<svg xmlns="http://www.w3.org/2000/svg" width="27" height="48">
    <path d="M25.5 13.199c0 3.315-1.343 6.315-3.514 8.485-1.086 1.086-3.209 5.046-4.265 7.821C15.507 35.325 13.5 47.7 13.5 47.7s-2.007-12.375-4.221-18.195c-1.056-2.775-3.178-6.735-4.264-7.82A11.963 11.963 0 0 1 1.5 13.198c0-3.314 1.343-6.314 3.514-8.486A11.963 11.963 0 0 1 13.5 1.2c3.315 0 6.315 1.344 8.486 3.514A11.963 11.963 0 0 1 25.5 13.2z" style="stroke:#F00;fill:#0F0;fill-opacity:1;stroke-width:.6;stroke-linejoin:round;"/>
    <path d="M18 13.199a4.5 4.5 0 0 1-4.5 4.5 4.5 4.5 0 0 1-4.5-4.5 4.5 4.5 0 0 1 4.5-4.5 4.5 4.5 0 0 1 4.5 4.5z" style="fill:#F00;"/>
    <path d="m 22.5,13.169483 a 9,9 0 0 1 -9,9 9,9 0 0 1 -9.0000002,-9 A 9,9 0 0 1 13.5,4.169495 a 9,9 0 0 1 9,8.999988 z" style="fill:#FF0;fill-opacity:0.5;"/>
</svg>
