<svg xmlns="http://www.w3.org/2000/svg" width="27" height="48">
  <g
     style="stroke-width:0.5;stroke-miterlimit:4;"
     stroke="#F00"
     stroke-linejoin="round"
     fill="#0F0"
     stroke-opacity="1"
     fill-opacity="1">
    <path d="m 26.5,22.5 c -0.0985,4.398 -5.774625,6.8495 -9,12 -3.225375,5.1505 -4,13.25 -4,13.25 0,0 -0.75,-7.93675 -4,-13.25 -3.25,-5.31325 -9,-8.253 -9,-12"/>
    <path d="M4.5.5h18c2.216 0 4 1.784 4 4v18c0 2.216-1.784 4-4 4h-18c-2.216 0-4-1.784-4-4v-18c0-2.216 1.784-4 4-4z"/>
    <path
        style="stroke-width:0.5;stroke-opacity:0.5;fill-opacity:0;stroke:#FF0;"
        d="m 26.5,22.5 c -0.0985,4.398 -5.774625,6.8495 -9,12 -3.225375,5.1505 -4,13.25 -4,13.25 0,0 -0.75,-7.93675 -4,-13.25 -3.25,-5.31325 -9,-8.253 -9,-12" />
    <path
        style="stroke-width:2.5;stroke-opacity:0.5;fill-opacity:0;stroke:#FF0;"
        d="m 5.5,1.5 h 16 c 2.216,0 4,1.784 4,4 v 16 c 0,2.216 -1.784,4 -4,4 h -16 c -2.216,0 -4,-1.784 -4,-4 v -16 c 0,-2.216 1.784,-4 4,-4 z" />
    <path id="icon_placeholder_path"/>
  </g>
</svg>
