<svg xmlns="http://www.w3.org/2000/svg" width="24" height="24" viewBox="0 0 24 24"><path transform="scale(0.48)" d="M35.484 15.034c-.248 0-.484-.167-.484-.411v-6.18c0-.244-.134-.443-.383-.443h-19.235c-.249 0-.382 .199 -.382 .443 v6.18c0 .244-.269 .377 -.519 .377 h-13.032c-.246 0-.449 .267 -.449 .508 v6.87c0 .242 .203 .622 .449 .622h20.986c.249 0 .565-.38 .565 -.622v-1.465c0-.244 .092 -.913 .34 -.913h3.321c.248 0 .339 .669 .339 .913 v1.465c0 .242 .316 .622 .563 .622h20.985c.25 0 .452-.38 .452 -.622v-6.87c0-.242-.202-.508-.451-.508h-13.031l-.034 .034 zm-17.391-.034c-.248 0-.093-.133-.093-.376v-3.513c0-.245-.155-.111 .093 -.111h13.814c.248 0 .093-.134 .093 .111v3.513c0 .243 .155 .376-.093 .376 h-13.814zm8.962 14.712c0 .242-.146 .288 -.394 .288 h-3.321c-.248 0-.34 .107 -.34-.135v-4.938c0-.242-.316-.927-.564-.927h-20.987c-.246 0-.449 .685 -.449 .927 v14.629c0 .243 .203 .444 .449 .444h47.1c.249 0 .451-.201 .451 -.443v-14.63c0-.242-.202-.927-.451-.927h-20.986c-.247 0-.563 .685 -.563 .927 v4.938l.055-.153z" style="fill:#000;fill-opacity:1"/></svg>