<svg xmlns="http://www.w3.org/2000/svg" width="24" height="24" viewBox="0 0 24 24"><path transform="scale(0.48)" d="M 25.015 22.315 C 26.491809421 22.315 27.689 23.5184585925 27.689 25.003 C 27.689 26.4875414075 26.491809421 27.691 25.015 27.691 C 23.538190579 27.691 22.341 26.4875414075 22.341 25.003 C 22.341 23.5184585925 23.538190579 22.315 25.015 22.315 Z" style="fill:#000;fill-opacity:1"/><path transform="scale(0.48)" d="M25.554 36.172c3.601 16.811 23.919 3.049 3.74-8.661 22.24 12.908 22.293-17.916 .045 -5.018 22.248-12.897-4.317-28.315-4.322-2.509 .005 -25.806-26.564-10.4-4.327 2.509-22.237-12.91-22.263 17.915-.019 5.016-20.19 11.704 .082 25.482 3.684 8.637l1.199 .026 zm-3.213-11.169c0-1.486 1.198-2.688 2.674-2.688 1.477 0 2.673 1.202 2.673 2.688 0 1.484-1.196 2.688-2.673 2.688-1.475-.001-2.674-1.204-2.674-2.688z" style="fill:#000;fill-opacity:1"/></svg>