<?xml version="1.0" encoding="UTF-8" standalone="no"?>
<svg
   xmlns="http://www.w3.org/2000/svg"
   width="24"
   height="24"
   viewBox="0 0 24 24"
   version="1.1" >
  <path d="M 12 4 C 9.11 4 6.5996094 5.6390625 5.3496094 8.0390625 C 2.3396094 8.3590625 1.1842379e-15 10.91 0 14 C 0 17.31 2.69 20 6 20 L 19 20 C 21.76 20 24 17.76 24 15 C 24 12.36 21.949609 10.219062 19.349609 10.039062 C 18.669609 6.5890625 15.64 4 12 4 z M 11 8 L 13 8 L 13 11 L 16 11 L 16 13 L 13 13 L 13 16 L 11 16 L 11 13 L 8 13 L 8 11 L 11 11 L 11 8 z " />
  <path style="fill:none" d="m 19.525424,-14.440679 24,0 0,24.0000002 -24,0 z m 18.31,6.0000002 -2.76,5 z" />
</svg>
