<?xml version="1.0" encoding="UTF-8" standalone="no"?>
<svg
   xmlns:svg="http://www.w3.org/2000/svg"
   xmlns="http://www.w3.org/2000/svg"
   width="32px"
   viewBox="0 0 32 32"
   version="1.1"
   height="32px">
  <path
     style="fill:#000000;fill-rule:evenodd;stroke:none;stroke-width:1;fill-opacity:1"
     id="Oval 278"
     d="M 16,30 C 8.2680131,30 2,23.731987 2,16 2,8.2680131 8.2680131,2 16,2 c 7.731987,0 14,6.2680131 14,14 0,7.731987 -6.268013,14 -14,14 z m 0,-2 C 22.627417,28 28,22.627417 28,16 28,9.3725827 22.627417,4 16,4 9.3725827,4 4,9.3725827 4,16 4,22.627417 9.3725827,28 16,28 Z m 0,0" />
  <path
     style="fill:#000000;fill-rule:evenodd;stroke:none;stroke-width:1;fill-opacity:1"
     id="Triangle 25 copy 2"
     d="m 16,5 c 0,0 4,8.790001 4,11 0,2.209999 -1.790861,4 -4,4 -2.209139,0 -4,-1.790001 -4,-4 0,-2.209999 4,-11 4,-11 z m 0,13 c 1.10457,0 2,-0.89543 2,-2 0,-1.10457 -0.89543,-2 -2,-2 -1.10457,0 -2,0.89543 -2,2 0,1.10457 0.89543,2 2,2 z m 0,0" />
</svg>
