<?xml version="1.0" encoding="UTF-8" standalone="no"?>
<svg
   height="48"
   width="48"
   version="1.1"
   xmlns="http://www.w3.org/2000/svg"
   xmlns:svg="http://www.w3.org/2000/svg">
  <path
     d="m 14.5,44 c -1,0 -1.85,-0.35 -2.55,-1.05 -0.7,-0.7 -1.05,-1.55 -1.05,-2.55 0,-1 0.35,-1.85 1.05,-2.55 0.7,-0.7 1.55,-1.05 2.55,-1.05 1,0 1.85,0.35 2.55,1.05 0.7,0.7 1.05,1.55 1.05,2.55 0,1 -0.35,1.85 -1.05,2.55 C 16.35,43.65 15.5,44 14.5,44 Z m 20.2,0 c -1,0 -1.85,-0.35 -2.55,-1.05 -0.7,-0.7 -1.05,-1.55 -1.05,-2.55 0,-1 0.35,-1.85 1.05,-2.55 0.7,-0.7 1.55,-1.05 2.55,-1.05 1,0 1.85,0.35 2.55,1.05 0.7,0.7 1.05,1.55 1.05,2.55 0,1 -0.35,1.85 -1.05,2.55 C 36.55,43.65 35.7,44 34.7,44 Z M 14.5,33.65 c -1.4,0 -2.425,-0.566667 -3.075,-1.7 -0.65,-1.133333 -0.641667,-2.283333 0.025,-3.45 L 14.5,22.95 7,7 H 3.1 V 4 h 5.8 l 8.5,18.2 H 32 l 7.8,-14 2.6,1.4 -7.65,13.85 c -0.3,0.566667 -0.708333,1 -1.225,1.3 -0.516667,0.3 -1.125,0.45 -1.825,0.45 h -15 l -3.1,5.45 h 24.7 v 3 z" />
  <path
     d="m 24.769122,11.545928 q -0.775,0 -1.325,-0.55 -0.55,-0.55 -0.55,-1.3250004 0,-0.775 0.55,-1.325 0.55,-0.55 1.325,-0.55 0.775,0 1.325,0.55 0.55,0.55 0.55,1.325 0,0.7750004 -0.55,1.3250004 -0.55,0.55 -1.325,0.55 z m 0,7.124999 q -3.775,0 -6.3875,-2.624999 -2.6125,-2.625 -2.6125,-6.4000004 h 1.5 q 0,3.1250004 2.1875,5.3250004 2.1875,2.199999 5.3125,2.199999 3.125,0 5.3125,-2.187499 2.1875,-2.1875 2.1875,-5.3125004 0,-3.125 -2.1875,-5.3124998 -2.1875,-2.1874997 -5.3125,-2.1874997 -1.7,0 -3.225,0.7749997 -1.525,0.775 -2.625,2.05 h 2.6 v 1.4999998 h -5.2 V 1.2959281 h 1.5 v 2.6499997 q 1.3,-1.5249997 3.125,-2.3999997 1.825,-0.87499997 3.825,-0.87499997 1.875,0 3.5125,0.69999997 1.6375,0.7 2.8625,1.9249997 1.225,1.225 1.925,2.8624998 0.7,1.6375 0.7,3.5125 0,1.8750004 -0.7,3.5125004 -0.7,1.6375 -1.925,2.8625 -1.225,1.224999 -2.8625,1.924999 -1.6375,0.7 -3.5125,0.7 z"
     style="fill:#000000;stroke-width:0.5" />
</svg>
