<?xml version="1.0" encoding="UTF-8" standalone="no"?>
<svg
   xmlns:dc="http://purl.org/dc/elements/1.1/"
   xmlns:cc="http://creativecommons.org/ns#"
   xmlns:rdf="http://www.w3.org/1999/02/22-rdf-syntax-ns#"
   xmlns:svg="http://www.w3.org/2000/svg"
   xmlns="http://www.w3.org/2000/svg"
   xmlns:sodipodi="http://sodipodi.sourceforge.net/DTD/sodipodi-0.dtd"
   xmlns:inkscape="http://www.inkscape.org/namespaces/inkscape"
   width="24"
   height="24"
   viewBox="0 0 24 24"
   version="1.1"
   id="svg8"
   sodipodi:docname="baseline-image_search-24px.svg"
   inkscape:version="0.92.3 (2405546, 2018-03-11)">
  <metadata
     id="metadata14">
    <rdf:RDF>
      <cc:Work
         rdf:about="">
        <dc:format>image/svg+xml</dc:format>
        <dc:type
           rdf:resource="http://purl.org/dc/dcmitype/StillImage" />
      </cc:Work>
    </rdf:RDF>
  </metadata>
  <defs
     id="defs12">
    <linearGradient
       id="linearGradient9320">
      <stop
         style="stop-color:#fef088;stop-opacity:1.0000000;"
         offset="0.0000000"
         id="stop9322" />
      <stop
         id="stop9324"
         offset="0.50000000"
         style="stop-color:#fde63a;stop-opacity:1.0000000;" />
      <stop
         style="stop-color:#dac203;stop-opacity:1.0000000;"
         offset="1.0000000"
         id="stop9326" />
    </linearGradient>
    <linearGradient
       id="linearGradient8576">
      <stop
         id="stop8578"
         offset="0.0000000"
         style="stop-color:#dac203;stop-opacity:1.0000000;" />
      <stop
         style="stop-color:#fdec69;stop-opacity:1.0000000;"
         offset="0.50000000"
         id="stop8584" />
      <stop
         id="stop8580"
         offset="1.0000000"
         style="stop-color:#fdef7e;stop-opacity:1.0000000;" />
    </linearGradient>
    <linearGradient
       id="linearGradient3558">
      <stop
         id="stop3560"
         offset="0"
         style="stop-color:#000000;stop-opacity:1;" />
      <stop
         id="stop3562"
         offset="1"
         style="stop-color:#000000;stop-opacity:0;" />
    </linearGradient>
    <linearGradient
       id="linearGradient15303">
      <stop
         id="stop15305"
         offset="0"
         style="stop-color:#b30000;stop-opacity:1;" />
      <stop
         style="stop-color:#ff5c5c;stop-opacity:1;"
         offset="0.5"
         id="stop15311" />
      <stop
         id="stop15307"
         offset="1"
         style="stop-color:#c30000;stop-opacity:1;" />
    </linearGradient>
    <linearGradient
       id="linearGradient11647">
      <stop
         id="stop11649"
         offset="0"
         style="stop-color:#c17d10;stop-opacity:1;" />
      <stop
         id="stop11651"
         offset="1.0000000"
         style="stop-color:#9b650c;stop-opacity:1.0000000;" />
    </linearGradient>
    <filter
       style="color-interpolation-filters:sRGB;"
       inkscape:label="Greyscale"
       id="filter1024">
      <feColorMatrix
         values="-10 -10 -10 0 0 -10 -10 -10 0 0 -10 -10 -10 0 0 0 0 0 1 0 "
         id="feColorMatrix1022" />
    </filter>
  </defs>
  <sodipodi:namedview
     pagecolor="#ffffff"
     bordercolor="#666666"
     borderopacity="1"
     objecttolerance="10"
     gridtolerance="10"
     guidetolerance="10"
     inkscape:pageopacity="0"
     inkscape:pageshadow="2"
     inkscape:window-width="1920"
     inkscape:window-height="960"
     id="namedview10"
     showgrid="false"
     inkscape:zoom="13.906433"
     inkscape:cx="10.355353"
     inkscape:cy="19.691162"
     inkscape:window-x="0"
     inkscape:window-y="27"
     inkscape:window-maximized="1"
     inkscape:current-layer="svg8" />
  <path
     fill="none"
     d="M0 0h24v24H0V0z"
     id="path2" />
  <path
     d="m 18,13 v 7 H 4 V 6 H 9.02 C 9.07,5.29 9.24,4.62 9.5,4 H 4 C 2.9,4 2,4.9 2,6 v 14 c 0,1.1 0.9,2 2,2 h 14 c 1.1,0 2,-0.9 2,-2 V 15 Z M 19.3,8.89 C 19.74,8.19 20,7.38 20,6.5 20,4.01 17.99,2 15.5,2 13.01,2 11,4.01 11,6.5 c 0,2.49 2.01,4.5 4.49,4.5 0.88,0 1.7,-0.26 2.39,-0.7 L 21,13.42 22.42,12 Z M 15.5,9 C 14.12,9 13,7.88 13,6.5 13,5.12 14.12,4 15.5,4 16.88,4 18,5.12 18,6.5 18,7.88 16.88,9 15.5,9 Z"
     id="path4"
     inkscape:connector-curvature="0"
     sodipodi:nodetypes="ccccccsssssscccssssccccsssss" />
  <path
     fill="none"
     d="M0 0h24v24H0z"
     id="path6" />
  <path
     inkscape:connector-curvature="0"
     d="m 12.349453,16.939446 h 2 v 1 h -2 z m 0,-4 h 3.5 v 1 h -3.5 z m 0,2 h 3 v 1 h -3 z m -5.9999994,3 c 0,0.55 0.45,1 1,1 h 2.9999994 c 0.55,0 1,-0.45 1,-1 v -5 H 6.3494536 Z m 5.4999994,-6.5 h -1.5 l -0.4999996,-0.5 H 7.8494536 l -0.5,0.5 h -1.5 v 1 h 5.9999994 z"
     id="path1026"
     style="stroke-width:0.5" />
</svg>
