<svg xmlns="http://www.w3.org/2000/svg" width="24" height="24" viewBox="0 0 24 24"><path transform="scale(0.48)" d="M 19.188 46.212 C 19.9368981208 46.212 20.544 46.8361150587 20.544 47.606 C 20.544 48.3758849413 19.9368981208 49 19.188 49 C 18.4391018792 49 17.832 48.3758849413 17.832 47.606 C 17.832 46.8361150587 18.4391018792 46.212 19.188 46.212 Z" style="fill:#000;fill-opacity:1"/><path transform="scale(0.48)" d="M30.148 48.974c.748 0 1.354-.63 1.354-1.411 0-.772-.605-1.399-1.354-1.399-.75 0-1.355 .627 -1.355 1.399 0 .781 .605 1.411 1.355 1.411zm-2.339-40.57c1.988 0 3.604-1.663 3.604-3.708-.001-2.044-1.616-3.696-3.604-3.696-1.987 0-3.604 1.652-3.604 3.696 0 2.045 1.617 3.708 3.604 3.708zm-19.543 32.394c-.17 .328 -.266 .7 -.266 1.103 0 1.302 1.032 2.364 2.307 2.364 .915 0 1.701-.547 2.073-1.335l7.861-13.9-3.264-3.358-8.711 15.126zm17.033-.624c-.371 .788 -1.158 1.336-2.072 1.336-1.265 0-2.295-1.062-2.295-2.364 0-.404 .095 -.775 .266 -1.104l3.423-6.189-6.676-6.826c-2.562-2.646-.733-5.511-.733-5.511l3.593-6.529-9.53 .011 c-1.052 0-1.892-.933-1.892-2.005-.001-1.061 .839 -1.993 1.891-1.993h28.843c1.043 0 1.883 .934 1.883 2.005 0 1.072-.84 1.995-1.883 1.995h-11.002l-5.25 9.458 5.346 5.435c1.873 1.849 .66 3.926 .66 3.926l-4.572 8.355zm8.701 3.826c0 .553-.447 1-1 1h-17c-.552 0-1-.447-1-1 0-.553 .448 -1 1-1h17c.553 0 1 .447 1 1z" style="fill:#000;fill-opacity:1"/></svg>