<svg xmlns="http://www.w3.org/2000/svg" width="24" height="24" viewBox="0 0 24 24"> <g transform="translate(4.346379853184224 0.0) scale(0.39795471835757984)">
  
  <g
     id="line"
     transform="translate(-16.580924,-6.1916445)">
    <path
       fill="none"
       stroke="#000"
       stroke-linecap="round"
       stroke-linejoin="round"
       stroke-width="2"
       d="M 17.7592,8.2729 A 0.4635,0.4635 0 0 0 17.6075,8.7965 C 21.6062,19.8566 27.4554,39.6606 22.5,57.5 l -1.7193,6.8773 A 0.9035,0.9035 0 0 0 21.6572,65.5 h 1.1593 a 1.0322,1.0322 0 0 0 0.9533,-0.6248 C 25.0143,61.9711 29.1546,49.732 29.4835,44.9507 A 0.4736,0.4736 0 0 1 29.9535,44.5 H 48.09 a 0.4722,0.4722 0 0 1 0.4675,0.4055 L 50.3743,64.62 a 1.0252,1.0252 0 0 0 1.0149,0.88 h 1.1757 A 0.9352,0.9352 0 0 0 53.5,64.5649 V 44.615 a 0.4933,0.4933 0 0 1 0.0506,-0.2126 c 0.22,-0.46 1.0317,-2.573 -0.0506,-6.9024 -1,-4 -1.75,-4.03 -3,-4 -4.7344,0.1127 -17.986,0.8342 -20.5627,0.9759 A 0.4654,0.4654 0 0 1 29.4497,34.0582 C 29.083,30.8967 26.7417,11.7417 23.5,8.5 A 4.0406,4.0406 0 0 0 17.7592,8.2729 Z"
       id="path2" />
    <line
       x1="30"
       x2="24.5"
       y1="44.5"
       y2="44.5"
       fill="none"
       stroke="#000"
       stroke-miterlimit="10"
       stroke-width="2"
       id="line4" />
    <line
       x1="54"
       x2="47"
       y1="44.5"
       y2="44.5"
       fill="none"
       stroke="#000"
       stroke-miterlimit="10"
       stroke-width="2"
       id="line6" />
  </g>
</g></svg>