<svg xmlns="http://www.w3.org/2000/svg" width="24" height="24" viewBox="0 0 24 24"> <g transform="translate(0.0 3.5871979775333376) scale(0.39243764803483905)">
  
  <g
     id="line"
     transform="translate(-5.1457044,-15.462608)">
    <path
       fill="none"
       stroke="#000"
       stroke-linecap="round"
       stroke-linejoin="round"
       stroke-miterlimit="10"
       stroke-width="2"
       d="m 8.9874,37.6522 c 0,0 2.0168,1.435 4.2662,-0.1551 l 3.1083,0.2228 c 1.2161,0.0872 2.411,-0.3521 3.2811,-1.2061 l 3.2672,-3.2067"
       id="path2" />
    <path
       fill="none"
       stroke="#000"
       stroke-linecap="round"
       stroke-linejoin="round"
       stroke-miterlimit="10"
       stroke-width="2"
       d="M 13.5926,33.272 C 12.7306,32.6127 12.25,30.6875 13.1259,29.0625"
       id="path4" />
    <path
       fill="none"
       stroke="#000"
       stroke-linecap="round"
       stroke-linejoin="round"
       stroke-miterlimit="10"
       stroke-width="2"
       d="m 15.2316,32.2225 c -2.6899,2.3456 -8.1684,2.5269 -8.1684,2.5269 L 6.1457,32.268 c 1.2128,-4.971 8.4793,-7.7055 8.4793,-7.7055 l 2.158,-1.4542 0.8422,-2.227 c 4.6223,-3.7209 9.9561,-5.1271 16.0675,-4.0947 0,0 22.6884,2.9476 27.5312,12.1651 0,0 1.5911,2.3191 -2.9684,12.8941 l 0.8349,3.2467 -0.6967,9.7954 c -0.0693,0.9744 -0.88,1.7295 -1.8569,1.7295 h -0.8575 c -1.0976,0 -1.957,-0.9448 -1.8533,-2.0375 l 0.7712,-8.1238 -3.6699,-4.2393 c 0,0 -2.0681,3.983 -9.5452,1.5783"
       id="path6" />
    <path
       fill="none"
       stroke="#000"
       stroke-linecap="round"
       stroke-linejoin="round"
       stroke-miterlimit="10"
       stroke-width="2"
       d="m 23.8161,22.5654 3.7744,-1.6828 c 0.4668,-0.1173 0.9199,0.2224 0.9441,0.7031 0.1034,2.0556 0.2325,7.379 -3.8398,7.7668"
       id="path8" />
    <path
       fill="none"
       stroke="#000"
       stroke-linecap="round"
       stroke-linejoin="round"
       stroke-miterlimit="10"
       stroke-width="2"
       d="m 22.2409,38.6608 c 1.9649,1.5919 5.4102,4.0457 8.5566,4.1126 l 1.6928,7.755 -0.4077,4.7893 c -0.0925,1.0865 0.7645,2.0195 1.8549,2.0195 h 0.4326 c 1.0539,0 1.903,-0.8717 1.8602,-1.9248 -0.1416,-3.4875 0.0316,-10.8589 3.5901,-14.8514"
       id="path10" />
    <path
       fill="none"
       stroke="#000"
       stroke-linecap="round"
       stroke-linejoin="round"
       stroke-miterlimit="10"
       stroke-width="2"
       d="m 27.6225,45.5745 c 0.4154,1.9173 0.6969,4.7358 -0.4188,8.2036 -0.344,1.0692 0.4357,2.1677 1.5588,2.1677 h 0.0046"
       id="path12" />
    <path
       fill="none"
       stroke="#000"
       stroke-linecap="round"
       stroke-linejoin="round"
       stroke-miterlimit="10"
       stroke-width="2"
       d="m 64.5713,31.0769 c 0.5566,1.0204 1.515,6.2151 -0.4484,7.4211 -1.9634,1.2059 0.5892,3.3395 0.5892,3.3395"
       id="path14" />
  </g>
</g></svg>