<svg xmlns="http://www.w3.org/2000/svg" width="24" height="24" viewBox="0 0 24 24"> <g transform="translate(0.0 2.4753397387591622) scale(0.4349091026384576)">
  
  <g
     id="line"
     transform="translate(-8.4079722,-14.104406)">
    <path
       fill="none"
       stroke="#000"
       stroke-linecap="round"
       stroke-linejoin="round"
       stroke-width="2"
       d="m 16.1452,42.671 c -1.9293,-0.2841 -3.7236,1.0496 -4.0077,2.9789 -0.2841,1.9293 1.0496,3.7236 2.9789,4.0077 0.3094,0.0456 0.6235,0.0498 0.9341,0.0126 L 35.0488,49.9273 36,49.9225 26.3748,49.7299 c -1.9293,-0.2841 -3.7236,1.0496 -4.0077,2.9789 -0.2841,1.9293 1.0496,3.7236 2.9789,4.0077 0.3094,0.0456 0.6235,0.0498 0.9341,0.0126 l 12.9987,0.176 10.0853,-0.0526 c 8.31,-0.4248 13.6293,-7.7519 13.2046,-16.06 -0.2654,-4.7918 -2.2781,-9.32 -5.6572,-12.7278 -3.09,-2.9178 -13.8165,-12.2811 -13.8165,-12.2811 -1.4091,-1.0107 -3.3356,-0.8867 -4.6036,0.2962 -1.1904,1.177 -1.3134,3.0579 -0.2865,4.38 l 7.15,8.1952 -5.4,0.0389 5.4,-0.0389 -5.4,0.0389 -21.85,-0.0395 c -1.9293,-0.2841 -3.7236,1.0496 -4.0077,2.9789 -0.2841,1.9293 1.0496,3.7236 2.9789,4.0077 0.3094,0.0456 0.6235,0.0498 0.9341,0.0126 l 6.9994,0.0947 10.6365,0.1861 -22.1928,-0.3671 c -1.9293,-0.2841 -3.7236,1.0496 -4.0077,2.9789 -0.2841,1.9293 1.0496,3.7236 2.9789,4.0077 0.3094,0.0456 0.6235,0.0498 0.9341,0.0126 l 20.4538,0.1758"
       id="path2" />
  </g>
</g></svg>