<svg xmlns="http://www.w3.org/2000/svg" width="24" height="24" viewBox="0 0 24 24"> <g transform="scale(0.5)">
  
  <g
     id="line"
     transform="translate(-12,-12)">
    <circle
       cx="36"
       cy="36"
       r="23"
       fill="none"
       stroke="#000"
       stroke-miterlimit="10"
       stroke-width="2"
       id="circle2" />
    <path
       d="m 30,30.92 c -0.0014,1.657 -1.346,2.999 -3.002,2.998 C 25.342,33.917 23.999,32.572 24,30.916 24.001,29.26 25.346,27.917 27.002,27.918 28.659,27.92 30,29.264 30,30.92"
       id="path4" />
    <path
       d="m 48,30.94 c -0.0014,1.657 -1.346,2.999 -3.002,2.998 C 43.342,33.937 41.999,32.592 42,30.936 42.001,29.28 43.346,27.937 45.002,27.938 46.659,27.9399 48,29.284 48,30.94"
       id="path6" />
    <path
       fill="none"
       stroke="#000"
       stroke-linecap="round"
       stroke-linejoin="round"
       stroke-width="2"
       d="m 20.88,25.89 c 1.714,0.4976 3.552,0.3383 5.155,-0.4469 1.341,-0.6851 2.429,-1.78 3.105,-3.126"
       id="path8" />
    <path
       fill="none"
       stroke="#000"
       stroke-linecap="round"
       stroke-linejoin="round"
       stroke-width="2"
       d="m 51.14,25.89 c -1.714,0.4976 -3.552,0.3383 -5.155,-0.4469 -1.341,-0.6851 -2.429,-1.78 -3.105,-3.126"
       id="path10" />
    <path
       fill="none"
       stroke="#000"
       stroke-linecap="round"
       stroke-linejoin="round"
       stroke-miterlimit="10"
       stroke-width="2"
       d="m 41.66,44.82 c 0,6.075 -2.532,11 -5.656,11 -3.124,0 -5.656,-4.925 -5.656,-11 5.141,-1.979 8.198,-0.9474 11.31,0 z"
       id="path12" />
    <path
       fill="none"
       stroke="#000"
       stroke-linecap="round"
       stroke-linejoin="round"
       stroke-miterlimit="10"
       stroke-width="2"
       d="m 50.39,40.63 c -0.5305,-0.5275 -0.8278,-1.246 -0.8256,-1.994 0,-2.479 2.343,-4.851 2.443,-4.95 0.2068,-0.2071 0.5424,-0.2073 0.7495,-5e-4 l 5e-4,5e-4 c 0.1,0.1 2.443,2.472 2.444,4.951 -0.0013,1.557 -1.265,2.818 -2.822,2.817 -0.7462,-6e-4 -1.462,-0.2971 -1.99,-0.8243 z"
       id="path14" />
    <path
       fill="none"
       stroke="#000"
       stroke-miterlimit="2"
       stroke-width="1.737"
       d="m 31.56,49.05 h -2.739 c -1.865,-0.0058 -3.375,-1.601 -3.381,-3.571 0.0055,-1.97 1.516,-3.566 3.381,-3.571 h 14.37 c 1.865,0.0058 3.375,1.601 3.381,3.571 -0.0055,1.97 -1.516,3.566 -3.381,3.571 h -2.649"
       id="path16" />
  </g>
</g></svg>