<svg xmlns="http://www.w3.org/2000/svg" width="24" height="24" viewBox="0 0 24 24"> <g transform="translate(3.5552455923939377 0.0) scale(0.4123272091289244)">
  
  <g
     id="line"
     transform="translate(-15.522366,-6.8969)">
    <path
       fill="none"
       stroke="#000"
       stroke-linecap="round"
       stroke-linejoin="round"
       stroke-miterlimit="10"
       stroke-width="2"
       d="m 55.4792,47.6473 c 0,9.0883 -7.3675,16.4558 -16.4558,16.4558 -9.0883,0 -16.4558,-7.3675 -16.4558,-16.4558"
       id="path2" />
    <line
       x1="55.479198"
       x2="55.479198"
       y1="46.7738"
       y2="34.7738"
       fill="none"
       stroke="#000"
       stroke-linecap="round"
       stroke-linejoin="round"
       stroke-miterlimit="10"
       stroke-width="2"
       id="line4" />
    <path
       fill="none"
       stroke="#000"
       stroke-linecap="round"
       stroke-linejoin="round"
       stroke-miterlimit="10"
       stroke-width="2"
       d="m 48.4869,34.4804 c 0.081,-1.9313 1.7123,-3.4313 3.6436,-3.3502 1.9313,0.081 3.4312,1.7123 3.3502,3.6436"
       id="path6" />
    <path
       fill="none"
       stroke="#000"
       stroke-linecap="round"
       stroke-linejoin="round"
       stroke-miterlimit="10"
       stroke-width="2"
       d="m 41.49,34.2475 c 0.081,-1.9313 1.7123,-3.4312 3.6436,-3.3502 1.9313,0.081 3.4313,1.7123 3.3502,3.6436"
       id="path8" />
    <path
       fill="none"
       stroke="#000"
       stroke-linecap="round"
       stroke-linejoin="round"
       stroke-miterlimit="10"
       stroke-width="2"
       d="m 41.494,34.1136 c 0.155,-1.9268 1.8426,-3.3631 3.7694,-3.2081 1.9268,0.155 3.3631,1.8426 3.2081,3.7694"
       id="path10" />
    <path
       fill="none"
       stroke="#000"
       stroke-linecap="round"
       stroke-linejoin="round"
       stroke-miterlimit="10"
       stroke-width="2"
       d="m 34.4524,33.7692 c 0.1237,-1.929 1.7878,-3.3925 3.7168,-3.2688 1.929,0.1237 3.3925,1.7878 3.2688,3.7168"
       id="path12" />
    <path
       fill="none"
       stroke="#000"
       stroke-linecap="round"
       stroke-linejoin="round"
       stroke-miterlimit="10"
       stroke-width="2"
       d="m 17.4986,35.9928 c -1.3429,-1.3904 -1.3044,-3.6061 0.086,-4.949 1.3904,-1.3429 3.6061,-1.3044 4.949,0.086"
       id="path14" />
    <path
       fill="none"
       stroke="#000"
       stroke-linecap="round"
       stroke-linejoin="round"
       stroke-miterlimit="10"
       stroke-width="2"
       d="m 27.4524,11.3969 c 0,-1.933 1.567,-3.5 3.5,-3.5 1.933,0 3.5,1.567 3.5,3.5"
       id="path16" />
    <line
       x1="34.4524"
       x2="34.4524"
       y1="33.732101"
       y2="11.3969"
       fill="none"
       stroke="#000"
       stroke-linecap="round"
       stroke-linejoin="round"
       stroke-miterlimit="10"
       stroke-width="2"
       id="line18" />
    <line
       x1="27.4524"
       x2="27.4524"
       y1="11.3969"
       y2="39.1875"
       fill="none"
       stroke="#000"
       stroke-linecap="round"
       stroke-linejoin="round"
       stroke-miterlimit="10"
       stroke-width="2"
       id="line20" />
    <line
       x1="24.4916"
       x2="22.5336"
       y1="33.343498"
       y2="31.129801"
       fill="none"
       stroke="#000"
       stroke-linecap="round"
       stroke-linejoin="round"
       stroke-miterlimit="10"
       stroke-width="2"
       id="line22" />
    <path
       fill="none"
       stroke="#000"
       stroke-linecap="round"
       stroke-linejoin="round"
       stroke-miterlimit="10"
       stroke-width="2"
       d="m 19.2663,38.3125 c 1.9526,2.1439 3.3734,5.1677 3.3013,9.5218"
       id="path24" />
    <line
       x1="17.4986"
       x2="19.32"
       y1="35.992802"
       y2="38.373001"
       fill="none"
       stroke="#000"
       stroke-linecap="round"
       stroke-linejoin="round"
       stroke-miterlimit="10"
       stroke-width="2"
       id="line26" />
  </g>
</g></svg>