<svg xmlns="http://www.w3.org/2000/svg" width="24" height="24" viewBox="0 0 24 24"> <g transform="translate(0.0 2.351281020781835) scale(0.4177522640997786)">
  
  <g
     id="line"
     transform="translate(-5.9741998,-12.0044)">
    <line
       x1="10.5258"
       x2="7.4741998"
       y1="33.460098"
       y2="31.5399"
       fill="none"
       stroke="#000"
       stroke-linecap="round"
       stroke-linejoin="round"
       stroke-miterlimit="10"
       stroke-width="3"
       id="line2" />
    <line
       x1="10.2934"
       x2="7.7066002"
       y1="36.428001"
       y2="37.571999"
       fill="none"
       stroke="#000"
       stroke-linecap="round"
       stroke-linejoin="round"
       stroke-miterlimit="10"
       stroke-width="3"
       id="line4" />
    <line
       x1="14"
       x2="12"
       y1="46"
       y2="47"
       fill="none"
       stroke="#000"
       stroke-linecap="round"
       stroke-linejoin="round"
       stroke-miterlimit="10"
       stroke-width="2"
       id="line6" />
    <line
       x1="18"
       x2="17"
       y1="51"
       y2="52"
       fill="none"
       stroke="#000"
       stroke-linecap="round"
       stroke-linejoin="round"
       stroke-miterlimit="10"
       stroke-width="2"
       id="line8" />
    <line
       x1="37.179401"
       x2="37.820599"
       y1="54.869801"
       y2="56.130199"
       fill="none"
       stroke="#000"
       stroke-linecap="round"
       stroke-linejoin="round"
       stroke-miterlimit="10"
       stroke-width="2"
       id="line10" />
    <line
       x1="48.113602"
       x2="49.886398"
       y1="45.8186"
       y2="47.1814"
       fill="none"
       stroke="#000"
       stroke-linecap="round"
       stroke-linejoin="round"
       stroke-miterlimit="10"
       stroke-width="2"
       id="line12" />
    <line
       x1="48.706402"
       x2="50.869701"
       y1="25.5716"
       y2="24.3367"
       fill="none"
       stroke="#000"
       stroke-linecap="round"
       stroke-linejoin="round"
       stroke-miterlimit="10"
       stroke-width="2"
       id="line14" />
    <line
       x1="33.906399"
       x2="34.093601"
       y1="14.9956"
       y2="13.0044"
       fill="none"
       stroke="#000"
       stroke-linecap="round"
       stroke-linejoin="round"
       stroke-miterlimit="10"
       stroke-width="2"
       id="line16" />
    <line
       x1="26.563101"
       x2="26.194799"
       y1="15.1814"
       y2="13.0627"
       fill="none"
       stroke="#000"
       stroke-linecap="round"
       stroke-linejoin="round"
       stroke-miterlimit="10"
       stroke-width="2"
       id="line18" />
    <line
       x1="20.1485"
       x2="18.8515"
       y1="17.9107"
       y2="16.0893"
       fill="none"
       stroke="#000"
       stroke-linecap="round"
       stroke-linejoin="round"
       stroke-miterlimit="10"
       stroke-width="2"
       id="line20" />
    <line
       x1="15"
       x2="13"
       y1="23"
       y2="21"
       fill="none"
       stroke="#000"
       stroke-linecap="round"
       stroke-linejoin="round"
       stroke-miterlimit="10"
       stroke-width="2"
       id="line22" />
    <line
       x1="30.6136"
       x2="30.3864"
       y1="55.802101"
       y2="57.197899"
       fill="none"
       stroke="#000"
       stroke-linecap="round"
       stroke-linejoin="round"
       stroke-miterlimit="10"
       stroke-width="2"
       id="line24" />
    <line
       x1="23.889299"
       x2="23.110701"
       y1="54.909698"
       y2="56.090302"
       fill="none"
       stroke="#000"
       stroke-linecap="round"
       stroke-linejoin="round"
       stroke-miterlimit="10"
       stroke-width="2"
       id="line26" />
    <path
       fill="none"
       stroke="#000"
       stroke-linecap="round"
       stroke-linejoin="round"
       stroke-miterlimit="10"
       stroke-width="2"
       d="M 39.5833,16.3333 C 39.5833,16.3333 48,14 49,14 c 1,0 0.1667,5.3333 -1.9167,8.1667"
       id="path28" />
    <path
       fill="none"
       stroke="#000"
       stroke-linecap="round"
       stroke-linejoin="round"
       stroke-miterlimit="10"
       stroke-width="2"
       d="m 50.2961,29.631 c 0,0 9.4861,-7.4171 11.4192,-6.2931 1.933,1.124 -0.262,20.0233 -4.4431,22.7653 0,0 -3.8127,0.7425 -7.6739,-3.4998"
       id="path30" />
    <polyline
       fill="none"
       stroke="#000"
       stroke-linecap="round"
       stroke-linejoin="round"
       stroke-miterlimit="10"
       stroke-width="2"
       points="46.4976,48.1823 48.4494,55.5437 40.8246,52.4033"
       id="polyline32" />
    <path
       fill="none"
       stroke="#000"
       stroke-linecap="round"
       stroke-linejoin="round"
       stroke-miterlimit="10"
       stroke-width="2"
       d="m 12,41 c 0,0 4,-6 7,-5 3,1 2,5 5,5 3,0 2,-5 6,-5 0,0 1.1561,0.3122 3,4 2,4 3.7351,-3.3675 5,-4 2,-1 2.5193,0.279 5,4 2,3 5,-4 7,-4"
       id="path34" />
    <path
       fill="none"
       stroke="#000"
       stroke-linecap="round"
       stroke-linejoin="round"
       stroke-miterlimit="10"
       stroke-width="2"
       d="M 51,35 C 51,46.0457 42.0457,55 31,55 19.9543,55 11,46.0457 11,35 11,23.9543 19.9543,15 31,15 c 3.2428,0 6.3053,0.7718 9.0139,2.1416 C 46.5315,20.4378 51,27.1971 51,35 Z"
       id="path36" />
    <circle
       cx="34"
       cy="50"
       r="2"
       fill="#000"
       stroke="none"
       id="circle38" />
    <circle
       cx="40"
       cy="44"
       r="2"
       fill="#000"
       stroke="none"
       id="circle40" />
    <circle
       cx="22"
       cy="46"
       r="2"
       fill="#000"
       stroke="none"
       id="circle42" />
    <circle
       cx="30"
       cy="44"
       r="1"
       fill="#000"
       stroke="none"
       id="circle44" />
    <circle
       cx="17"
       cy="42"
       r="1"
       fill="#000"
       stroke="none"
       id="circle46" />
    <circle
       cx="27"
       cy="50"
       r="1"
       fill="#000"
       stroke="none"
       id="circle48" />
    <circle
       cx="40"
       cy="49"
       r="1"
       fill="#000"
       stroke="none"
       id="circle50" />
  </g>
</g></svg>