<svg xmlns="http://www.w3.org/2000/svg" width="24" height="24" viewBox="0 0 24 24"> <g transform="translate(3.2858954268485547 0.0) scale(0.41379479429941807)">
  
  <g
     id="line"
     transform="translate(-14.941,-7.0000829)">
    <polyline
       fill="none"
       stroke="#000"
       stroke-linecap="round"
       stroke-linejoin="round"
       stroke-width="2"
       points="43 33 50 33 55 31"
       id="polyline2" />
    <polyline
       fill="none"
       stroke="#000"
       stroke-linecap="round"
       stroke-linejoin="round"
       stroke-width="2"
       points="42.827 34.277 51.747 36.423 56.059 35.433"
       id="polyline4" />
    <polyline
       fill="none"
       stroke="#000"
       stroke-linecap="round"
       stroke-linejoin="round"
       stroke-width="2"
       points="44.219 35.901 52.227 39.961 55 43"
       id="polyline6" />
    <polyline
       fill="none"
       stroke="#000"
       stroke-linecap="round"
       stroke-linejoin="round"
       stroke-width="2"
       points="44.1 36.744 48.042 42.529 47.576 46.476"
       id="polyline8" />
    <polyline
       fill="none"
       stroke="#000"
       stroke-linecap="round"
       stroke-linejoin="round"
       stroke-width="2"
       points="29 33 22 33 17 31"
       id="polyline10" />
    <polyline
       fill="none"
       stroke="#000"
       stroke-linecap="round"
       stroke-linejoin="round"
       stroke-width="2"
       points="29.173 34.277 20.253 36.423 15.941 35.433"
       id="polyline12" />
    <polyline
       fill="none"
       stroke="#000"
       stroke-linecap="round"
       stroke-linejoin="round"
       stroke-width="2"
       points="27.781 35.901 19.773 39.961 17 43"
       id="polyline14" />
    <polyline
       fill="none"
       stroke="#000"
       stroke-linecap="round"
       stroke-linejoin="round"
       stroke-width="2"
       points="27.9 36.744 23.958 42.529 24.424 46.476"
       id="polyline16" />
    <path
       fill="none"
       stroke="#000"
       stroke-linecap="round"
       stroke-linejoin="round"
       stroke-width="2"
       d="m 37.0909,21 a 68.0771,68.0771 0 0 1 0,-7.9952 c 0.1422,-3.0924 0.353,-4.0369 0.9849,-4.5687 1.58,-1.33 2.6166,0.7838 2.9242,1.0159"
       id="path18" />
    <path
       fill="none"
       stroke="#000"
       stroke-linecap="round"
       stroke-linejoin="round"
       stroke-width="2"
       d="m 34.8931,21 a 68.0213,68.0213 0 0 0 0,-7.9952 C 34.7509,9.9124 34.5402,8.9679 33.9083,8.4361 c -1.58,-1.33 -2.6166,0.7838 -2.9242,1.0159"
       id="path20" />
    <line
       x1="28.364401"
       x2="24.7115"
       y1="15.1851"
       y2="16.814899"
       fill="none"
       stroke="#000"
       stroke-linecap="round"
       stroke-linejoin="round"
       stroke-width="2"
       id="line22" />
    <path
       fill="none"
       stroke="#000"
       stroke-linecap="round"
       stroke-linejoin="round"
       stroke-width="2"
       d="M 32.645,53.9761 29,64 A 8.2931,8.2931 0 0 1 33,62.625 3.83,3.83 0 0 1 36,64 v -6.6944"
       id="path24" />
    <path
       fill="none"
       stroke="#000"
       stroke-linecap="round"
       stroke-linejoin="round"
       stroke-width="2"
       d="M 39.35,53.9629 43,64 A 8.2931,8.2931 0 0 0 39,62.625 3.83,3.83 0 0 0 36,64 v -6.6944"
       id="path26" />
    <path
       fill="none"
       stroke="#000"
       stroke-linecap="round"
       stroke-linejoin="round"
       stroke-width="2"
       d="m 29.538,30 c -0.5253,0.94 -5.4979,0.1019 -9,-3 -1.0848,-0.9608 -4.2232,-3.7406 -4,-8 a 9.0123,9.0123 0 0 1 6,-8 8.563,8.563 0 0 1 5,0 c -1.1435,2.2418 -2.4664,4.59 -4,7 q -0.9955,1.5643 -2,3 c 0.7247,0.7036 1.7686,1.7319 3,3 3.5345,3.64 5.302,5.46 5,6 z"
       id="path28" />
    <path
       fill="none"
       stroke="#000"
       stroke-linejoin="round"
       stroke-width="2"
       d="m 42.5136,32.4562 q -0.1217,-0.6969 -0.2728,-1.3875 a 26.8047,26.8047 0 0 0 -2.386,-7.0151 c -0.03,-0.0558 -0.0686,-0.1051 -0.0995,-0.16 A 3.0619,3.0619 0 0 0 36.8038,21 h -1.8485 a 3.0619,3.0619 0 0 0 -2.9515,2.8933 c -0.031,0.0552 -0.0692,0.1045 -0.1,0.16 a 26.8045,26.8045 0 0 0 -2.3859,7.0151 q -0.1511,0.69 -0.2728,1.3875 a 32.5738,32.5738 0 0 0 0.0951,11.7368 q 0.182,0.9425 0.42,1.8713 a 35.4912,35.4912 0 0 0 4.2021,9.8769 2.5544,2.5544 0 0 0 0.4964,0.5295 A 2.6679,2.6679 0 0 0 35.88,57 a 2.6673,2.6673 0 0 0 1.42,-0.5293 2.5547,2.5547 0 0 0 0.4965,-0.5295 35.4912,35.4912 0 0 0 4.2021,-9.8769 q 0.2374,-0.9282 0.42,-1.8713 a 32.5738,32.5738 0 0 0 0.095,-11.7368 z"
       id="path30" />
    <path
       fill="none"
       stroke="#000"
       stroke-linecap="round"
       stroke-linejoin="round"
       stroke-width="2"
       d="m 36,33 a 13.7256,13.7256 0 0 1 6.8276,1.8022 c -0.0789,-0.7855 -0.1784,-1.5688 -0.3141,-2.346 Q 42.392,31.7593 42.2408,31.0687 a 26.8047,26.8047 0 0 0 -2.386,-7.0151 c -0.03,-0.0558 -0.0685,-0.1051 -0.0995,-0.16 A 3.0619,3.0619 0 0 0 36.8038,21 h -1.8485 a 3.0619,3.0619 0 0 0 -2.9515,2.8932 c -0.031,0.0553 -0.0692,0.1046 -0.1,0.16 a 26.812,26.812 0 0 0 -2.386,7.0151 q -0.1509,0.69 -0.2727,1.3875 c -0.1439,0.8246 -0.249,1.6559 -0.3292,2.49 A 13.7141,13.7141 0 0 1 36,33 Z"
       id="path32" />
    <path
       fill="none"
       stroke="#000"
       stroke-linecap="round"
       stroke-linejoin="round"
       stroke-width="2"
       d="m 42,30 c 0.5252,0.94 5.4979,0.1019 9,-3 1.0848,-0.9608 4.2232,-3.7406 4,-8 a 9.0123,9.0123 0 0 0 -6,-8 8.563,8.563 0 0 0 -5,0 c 1.1434,2.2418 2.4664,4.59 4,7 q 0.9955,1.5643 2,3 c -0.7248,0.7036 -1.7686,1.7319 -3,3 -3.5345,3.64 -5.3017,5.46 -5,6 z"
       id="path34" />
    <line
       x1="43.173599"
       x2="46.826401"
       y1="15.1851"
       y2="16.814899"
       fill="none"
       stroke="#000"
       stroke-linecap="round"
       stroke-linejoin="round"
       stroke-width="2"
       id="line36" />
    <path
       fill="none"
       stroke="#000"
       stroke-linecap="round"
       stroke-linejoin="round"
       stroke-width="2"
       d="m 29.4432,44.65 a 13.88,13.88 0 0 1 12.9,-0.12 c 0.0231,-0.1129 0.0538,-0.2241 0.0757,-0.3373 a 32.5716,32.5716 0 0 0 0.095,-11.7368 Q 42.3924,31.759 42.2412,31.0684 a 26.8047,26.8047 0 0 0 -2.386,-7.0151 c -0.03,-0.0558 -0.0685,-0.1051 -0.0995,-0.16 A 3.0619,3.0619 0 0 0 36.8038,21 h -1.8485 a 3.0619,3.0619 0 0 0 -2.9515,2.8932 c -0.031,0.0553 -0.0692,0.1046 -0.1,0.16 a 26.812,26.812 0 0 0 -2.386,7.0151 q -0.1509,0.69 -0.2727,1.3875 a 32.5739,32.5739 0 0 0 0.0951,11.7368 c 0.0298,0.1539 0.0711,0.3047 0.103,0.4574 z"
       id="path38" />
    <path
       fill="none"
       stroke="#000"
       stroke-linecap="round"
       stroke-linejoin="round"
       stroke-width="2"
       d="m 29.76,46.0643 c 0.2593,1.0132 0.5759,2.0088 0.9226,2.9929 a 13.9528,13.9528 0 0 1 10.428,-0.0916 c 0.3333,-0.9543 0.6366,-1.92 0.8877,-2.9013 q 0.2374,-0.9282 0.42,-1.8713 a 32.5716,32.5716 0 0 0 0.095,-11.7368 q -0.1215,-0.6969 -0.2727,-1.3875 a 26.8047,26.8047 0 0 0 -2.386,-7.0151 c -0.03,-0.0558 -0.0685,-0.1051 -0.0995,-0.16 A 3.0619,3.0619 0 0 0 36.8038,21 h -1.8485 a 3.0619,3.0619 0 0 0 -2.9515,2.8932 c -0.031,0.0553 -0.0692,0.1046 -0.1,0.16 a 26.812,26.812 0 0 0 -2.386,7.0151 q -0.1509,0.69 -0.2727,1.3875 a 32.5739,32.5739 0 0 0 0.0951,11.7368 q 0.1824,0.9427 0.4198,1.8717 z"
       id="path40" />
    <path
       fill="none"
       stroke="#000"
       stroke-linecap="round"
       stroke-linejoin="round"
       stroke-width="2"
       d="m 36,38 a 13.7192,13.7192 0 0 1 6.9494,1.87 32.738,32.738 0 0 0 -0.4359,-7.4143 Q 42.392,31.7588 42.2408,31.0682 a 26.8047,26.8047 0 0 0 -2.386,-7.0151 c -0.03,-0.0558 -0.0685,-0.1051 -0.0995,-0.16 A 3.0619,3.0619 0 0 0 36.8038,21 h -1.8485 a 3.0619,3.0619 0 0 0 -2.9515,2.8932 c -0.031,0.0553 -0.0692,0.1046 -0.1,0.16 a 26.812,26.812 0 0 0 -2.386,7.0151 q -0.1509,0.69 -0.2727,1.3875 A 32.7391,32.7391 0 0 0 28.82,40 13.7117,13.7117 0 0 1 36,38 Z"
       id="path42" />
  </g>
</g></svg>