<svg xmlns="http://www.w3.org/2000/svg" width="24" height="24" viewBox="0 0 24 24"> <g transform="translate(3.012031043915947 0.0) scale(0.3810261609228111)">
  
  <g
     id="line"
     transform="translate(-10,-4.4644)">
    <path
       fill="none"
       stroke="#000"
       stroke-linecap="round"
       stroke-linejoin="round"
       stroke-miterlimit="10"
       stroke-width="2"
       d="m 18.613,6.6826 c 0,-0.6728 0.3732,-1.2182 0.8335,-1.2182 h 35.8977 c 0.4603,0 0.8335,0.5454 0.8335,1.2182 v 52.466 c 0,0.6728 -0.3732,1.2182 -0.8335,1.2182"
       id="path2" />
    <path
       fill="none"
       stroke="#000"
       stroke-linecap="round"
       stroke-linejoin="round"
       stroke-miterlimit="10"
       stroke-width="2"
       d="M 51.1805,66.4522 H 15.2828 c -0.4603,0 -0.8335,-0.5454 -0.8335,-1.2182 V 58.0566 23.3439 19.4011 12.768 c 0,-0.6728 0.3732,-1.2182 0.8335,-1.2182 h 35.8977 c 0.4603,0 0.8335,0.5454 0.8335,1.2182 v 52.466 c 0,0.6728 -0.3732,1.2182 -0.8335,1.2182 z"
       id="path4" />
    <line
       x1="12.3558"
       x2="19.628"
       y1="20.500799"
       y2="20.500799"
       fill="none"
       stroke="#000"
       stroke-linecap="round"
       stroke-linejoin="round"
       stroke-miterlimit="10"
       stroke-width="2"
       id="line6" />
    <line
       x1="12.3558"
       x2="19.628"
       y1="27.864401"
       y2="27.864401"
       fill="none"
       stroke="#000"
       stroke-linecap="round"
       stroke-linejoin="round"
       stroke-miterlimit="10"
       stroke-width="2"
       id="line8" />
    <line
       x1="11"
       x2="18.2722"
       y1="35.319302"
       y2="35.319302"
       fill="none"
       stroke="#000"
       stroke-linecap="round"
       stroke-linejoin="round"
       stroke-miterlimit="10"
       stroke-width="2"
       id="line10" />
    <line
       x1="18.2722"
       x2="11"
       y1="42.6828"
       y2="42.6828"
       fill="none"
       stroke="#000"
       stroke-linecap="round"
       stroke-linejoin="round"
       stroke-miterlimit="10"
       stroke-width="2"
       id="line12" />
    <line
       x1="11"
       x2="18.2722"
       y1="50.046398"
       y2="50.046398"
       fill="none"
       stroke="#000"
       stroke-linecap="round"
       stroke-linejoin="round"
       stroke-miterlimit="10"
       stroke-width="2"
       id="line14" />
    <line
       x1="11"
       x2="18.2722"
       y1="57.409901"
       y2="57.409901"
       fill="none"
       stroke="#000"
       stroke-linecap="round"
       stroke-linejoin="round"
       stroke-miterlimit="10"
       stroke-width="2"
       id="line16" />
    <path
       fill="none"
       stroke="#000"
       stroke-linecap="round"
       stroke-linejoin="round"
       stroke-width="2"
       d="m 42.8181,45.6368 c 0,0 0,-0.7431 -0.3715,-2.2292 -0.4499,-1.8004 -1.4862,-2.9723 -3.7154,-2.9723 -1.8577,0 -5.5731,0 -8.1739,0 -2.2292,0 -3.2653,1.172 -3.7154,2.9723 -0.3715,1.4862 -0.3715,2.2292 -0.3715,2.2292"
       id="path18" />
    <path
       fill="none"
       stroke="#000"
       stroke-linejoin="round"
       stroke-width="2"
       d="m 30.9288,33.0044 c 0,1.3838 0.2003,2.9012 0.7431,3.7154 0.6916,1.0377 1.8642,1.4862 2.9723,1.4862 1.1502,0 2.28,-0.4485 2.9723,-1.4862 0.5424,-0.8142 0.7431,-2.3316 0.7431,-3.7154 0,-1.0379 -0.3715,-4.4585 -3.7154,-4.4585 -3.3439,0 -3.7154,2.7286 -3.7154,4.4585 z"
       id="path20" />
  </g>
</g></svg>