<svg xmlns="http://www.w3.org/2000/svg" width="24" height="24" viewBox="0 0 24 24"> <g transform="translate(1.5350779756914221 0.0) scale(0.49474803317557675)">
  
  <g
     id="line"
     transform="translate(-14.661455,-11.875)">
    <path
       fill="none"
       stroke="#000"
       stroke-linecap="round"
       stroke-linejoin="round"
       stroke-miterlimit="10"
       stroke-width="2"
       d="m 15.661,35.5399 c 0,0 -0.201,5.0192 4.9803,8.9725 l 2.9011,1.7458 c 0,0 -0.9857,7.4544 -0.9581,11.4135 0.0065,0.9269 0.0723,1.5872 3.2907,1.7079 h 9.6223 c 0,0 2.4297,0.1463 2.4769,-1.4407 0.0894,-3.0038 0,-11.8463 0,-11.8463 0,0 2.8109,-2.3107 3.4363,-3.3459 0,0 2.8044,-3.9765 1.6135,-7.0315 0,0 -0.93,-0.1194 -4.1375,-0.1263 L 20.0704,35.5488 Z"
       id="path2" />
    <path
       fill="none"
       stroke="#000"
       stroke-linecap="round"
       stroke-linejoin="round"
       stroke-miterlimit="10"
       stroke-width="2"
       d="M 38.1354,30.0615 H 16.4951 c 0,0 -0.9323,0.0764 -0.8214,1.6588"
       id="path4" />
    <path
       fill="none"
       stroke="#000"
       stroke-linecap="round"
       stroke-linejoin="round"
       stroke-miterlimit="10"
       stroke-width="2"
       d="m 42.0698,59.2955 h 6.9469 C 46.3266,50.0316 47.2341,41.907 47.2341,41.907 c 0,0 0.1739,-4.8033 3.4783,-5.8033 0,0 3.7391,-1.087 5,-1.8261 V 16.893 H 42.1083 v 14.1367"
       id="path6" />
    <line
       x1="42"
       x2="55.9655"
       y1="12.875"
       y2="12.875"
       fill="none"
       stroke="#000"
       stroke-linecap="round"
       stroke-linejoin="round"
       stroke-miterlimit="10"
       stroke-width="2"
       id="line8" />
  </g>
</g></svg>