<svg xmlns="http://www.w3.org/2000/svg" width="24" height="24" viewBox="0 0 24 24"> <g transform="scale(0.44444196709199824)">
  
  <g
     id="line-supplement"
     transform="translate(-9,-9)">
    <path
       fill="#000"
       d="M 24.6621,10.5685 C 25.0261,10.2045 25.5197,10 26.0344,10 h 19.9314 c 0.5147,0 1.0084,0.2045 1.3724,0.5685 l 14.0936,14.0936 c 0.364,0.364 0.5685,0.8576 0.5685,1.3723 v 19.9314 c 0,0.5147 -0.2045,1.0084 -0.5685,1.3724 L 47.3382,61.4318 c -0.364,0.364 -0.8577,0.5685 -1.3724,0.5685 H 26.0344 c -0.5147,0 -1.0083,-0.2045 -1.3723,-0.5685 L 10.5685,47.3382 C 10.2045,46.9742 10,46.4805 10,45.9658 V 26.0344 c 0,-0.5147 0.2045,-1.0083 0.5685,-1.3723 z"
       id="path2" />
  </g>
  <g
     id="line"
     transform="translate(-9,-9)">
    <path
       fill="none"
       stroke="#000"
       stroke-width="2"
       d="M 24.6621,10.5685 C 25.0261,10.2045 25.5197,10 26.0344,10 h 19.9314 c 0.5147,0 1.0084,0.2045 1.3724,0.5685 l 14.0936,14.0936 c 0.364,0.364 0.5685,0.8576 0.5685,1.3723 v 19.9314 c 0,0.5147 -0.2045,1.0084 -0.5685,1.3724 L 47.3382,61.4318 c -0.364,0.364 -0.8577,0.5685 -1.3724,0.5685 H 26.0344 c -0.5147,0 -1.0083,-0.2045 -1.3723,-0.5685 L 10.5685,47.3382 C 10.2045,46.9742 10,46.4805 10,45.9658 V 26.0344 c 0,-0.5147 0.2045,-1.0083 0.5685,-1.3723 z"
       id="path5" />
  </g>
</g></svg>