<svg xmlns="http://www.w3.org/2000/svg" width="24" height="24" viewBox="0 0 24 24"> <g transform="translate(0.0 0.2622698789143989) scale(0.5675455195745622)">
  
  <g
     id="line"
     transform="translate(-13.301088,-14.9071)">
    <path
       fill="none"
       stroke="#000"
       stroke-linecap="round"
       stroke-linejoin="round"
       stroke-miterlimit="10"
       stroke-width="2"
       d="M 32.2615,26.8361 31,28.9064 l -10,-6 2.9936,-5.047 c 1.4882,-1.9298 4.1084,-2.4725 6.2065,-1.4143 0.4895,0.2469 0.8889,0.6454 1.1717,1.1151 L 37,26.9064 35.0962,28.1583 44,28.9064 l 5,-8 -2,1 -3,-5 -0.0966,-0.1637 c -0.4877,-0.8169 -1.1217,-0.8302 -1.8606,-0.8302 l -7.0917,-0.0054"
       id="path2" />
    <path
       fill="none"
       stroke="#000"
       stroke-linecap="round"
       stroke-linejoin="round"
       stroke-miterlimit="10"
       stroke-width="2"
       d="m 14.7341,35.7661 c -1.0145,2.2288 -0.2617,4.7593 1.8762,5.7145 0,0 0.7482,-0.0046 0.7566,-9e-4 l 0.0915,10e-4 9.9074,0.0291 3.6013,-0.0292 0.1741,11.6605 -5.9275,0.0201 h -1.7755 c -0.7727,0 -1.3384,0.0331 -1.7954,-0.8014 l -0.0905,-0.1672 -3.6618,-6.7839"
       id="path4" />
    <polyline
       fill="none"
       stroke="#000"
       stroke-linecap="round"
       stroke-linejoin="round"
       stroke-miterlimit="10"
       stroke-width="2"
       points="14.7341,35.7661 17.76,30.7817 15.9432,29.4782 25.3515,30.1741 28,37.9064 26,36.9064 25.5367,37.5666"
       id="polyline6" />
    <path
       fill="none"
       stroke="#000"
       stroke-linecap="round"
       stroke-linejoin="round"
       stroke-miterlimit="10"
       stroke-width="2"
       d="m 42.3269,37.7505 -1.2117,-2.1088 10.0715,-5.8791 2.9838,5.0528 c 0.9756,2.2332 0.1905,4.7912 -1.7467,6.1213 -0.4519,0.3103 -0.9935,0.4687 -1.5413,0.4906 l -11.2687,0.0641 v -2.2145 l -4.754,7.761 4.6071,8.2326 0.0478,-2.1256 5.7482,0.008 0.2891,-4e-4 c 0.9508,-0.0344 1.2847,-0.9301 1.6403,-1.5779 l 3.3361,-6.0667"
       id="path8" />
  </g>
</g></svg>