<svg xmlns="http://www.w3.org/2000/svg" width="24" height="24" viewBox="0 0 24 24"> <g transform="translate(0.0 2.209509224618639) scale(0.4079422064196743)">
  
  <g
     id="line"
     transform="translate(-6.584068,-12)">
    <path
       fill="none"
       stroke="#000"
       stroke-linecap="round"
       stroke-linejoin="round"
       stroke-width="2"
       d="M 46.7165,56.3562 C 39.9698,59.9008 31.9067,59.8797 25.1786,56.3"
       id="path2" />
    <path
       fill="none"
       stroke="#000"
       stroke-linecap="round"
       stroke-linejoin="round"
       stroke-width="2"
       d="m 47.4511,55.9513 c -0.2421,0.1393 -0.4869,0.2743 -0.7346,0.4049"
       id="path4" />
    <path
       fill="none"
       stroke="#000"
       stroke-linecap="round"
       stroke-linejoin="round"
       stroke-width="2"
       d="M 13.1224,38.3876 C 13.0407,37.5944 12.9999,36.7974 13,36 13,23.2975 23.2975,13 36,13 c 12.7025,0 23,10.2975 23,23 0,0.5043 -0.0161,1.0046 -0.0482,1.501"
       id="path6" />
    <line
       x1="23"
       x2="30"
       y1="24.000099"
       y2="28.000099"
       fill="none"
       stroke="#000"
       stroke-linecap="round"
       stroke-linejoin="round"
       stroke-width="2"
       id="line8" />
    <line
       x1="49"
       x2="42"
       y1="24.000099"
       y2="28.000099"
       fill="none"
       stroke="#000"
       stroke-linecap="round"
       stroke-linejoin="round"
       stroke-width="2"
       id="line10" />
    <path
       fill="none"
       stroke="#000"
       stroke-linecap="round"
       stroke-linejoin="round"
       stroke-width="2"
       d="m 30,43 c 2.1924,-0.7812 4.5179,-1.1204 6.8421,-0.9981 C 38.9397,41.9366 41.0304,42.2755 43,43"
       id="path12" />
    <path
       fill="none"
       stroke="#000"
       stroke-linecap="round"
       stroke-linejoin="round"
       stroke-width="2"
       d="m 22.5,33.0775 c 1.3758,1.1372 3.1261,1.7206 4.9091,1.6364 1.503,-0.0963 2.9361,-0.6696 4.0909,-1.6364"
       id="path14" />
    <path
       fill="none"
       stroke="#000"
       stroke-linecap="round"
       stroke-linejoin="round"
       stroke-width="2"
       d="m 40.5,33.0775 c 1.3758,1.1372 3.1261,1.7206 4.9091,1.6364 1.503,-0.0963 2.9361,-0.6696 4.0909,-1.6364"
       id="path16" />
    <path
       fill="none"
       stroke="#000"
       stroke-linecap="round"
       stroke-linejoin="round"
       stroke-width="2"
       d="M 30.4596,37.4966 16.7127,43.81 c 0,0 -3.8107,-4.3777 -7.3934,-0.753 -1.8042,1.6892 -1.8974,4.5211 -0.2082,6.3253 0,0 0,10e-5 10e-5,10e-5 0.0219,0.0235 0.0441,0.0468 0.0666,0.07 0.0338,0.0348 -3.46,3.3212 -0.3024,6.4791 1.6137,1.6749 4.2498,1.8118 6.0283,0.313 0,0 2.5218,3.7566 6.0858,-0.2148 3.564,-3.9714 -0.8088,-7.42 -0.8088,-7.42 z"
       id="path18" />
    <path
       fill="none"
       stroke="#000"
       stroke-linecap="round"
       stroke-linejoin="round"
       stroke-width="2"
       d="M 41.5405,37.4966 55.2873,43.81 c 0,0 3.8107,-4.3777 7.3934,-0.753 1.8042,1.6892 1.8974,4.5211 0.2082,6.3253 0,0 0,10e-5 -10e-5,10e-5 -0.0219,0.0235 -0.0441,0.0468 -0.0666,0.07 -0.0338,0.0348 3.46,3.3212 0.3024,6.4791 -1.6137,1.6749 -4.2497,1.8118 -6.0282,0.313 0,0 -2.5219,3.7564 -6.086,-0.2145 -3.5641,-3.9709 0.8088,-7.42 0.8088,-7.42 z"
       id="path20" />
  </g>
</g></svg>