<svg xmlns="http://www.w3.org/2000/svg" width="24" height="24" viewBox="0 0 24 24"> <g transform="translate(4.639818554761789 0.0) scale(0.4617240479678188)">
  
  <g
     id="line"
     transform="translate(-20.05935,-9.73535)">
    <path
       fill="none"
       stroke="#000"
       stroke-miterlimit="10"
       stroke-width="2"
       d="m 40.7177,21.7966 h 4.4873 a 2.3348,2.3348 0 0 1 2.3208,2.3516 v 26.9237 a 1.9256,1.9256 0 0 1 -2.0124,1.9353 l -8.6276,-0.4858 a 12.8781,12.8781 0 0 0 -1.542,0 l -8.6276,0.4858 A 1.9256,1.9256 0 0 1 24.7038,51.0719 V 24.1482 a 2.34,2.34 0 0 1 2.3208,-2.3516 h 4.5567"
       id="path2" />
    <circle
       cx="36.301998"
       cy="56.560101"
       r="1.1022"
       fill="none"
       stroke="#000"
       stroke-miterlimit="10"
       id="circle4" />
    <path
       fill="none"
       stroke="#000"
       stroke-linecap="round"
       stroke-linejoin="round"
       stroke-width="2.0013"
       d="m 36.15,10.736 a 14.4448,14.4448 0 0 0 -6.52,1.6474 l 1.4535,7.9938 a 5.6334,5.6334 0 0 0 10.1336,0 L 42.67,12.3834 A 14.4446,14.4446 0 0 0 36.15,10.736 Z"
       id="path6" />
    <path
       fill="none"
       stroke="#000"
       stroke-linecap="round"
       stroke-linejoin="round"
       stroke-width="2.0013"
       d="m 41.6988,17.7142 h 3.608 A 5.6376,5.6376 0 0 1 50.94,23.3474 V 54.236 a 4.9723,4.9723 0 0 1 -3.7637,4.8215 l -2.2057,0.5493 a 36.9,36.9 0 0 1 -17.9412,0 L 24.8237,59.0575 A 4.9723,4.9723 0 0 1 21.06,54.236 V 23.3474 a 5.6376,5.6376 0 0 1 5.6332,-5.6332 h 3.9031"
       id="path8" />
  </g>
</g></svg>