<svg xmlns="http://www.w3.org/2000/svg" width="24" height="24" viewBox="0 0 24 24"> <g transform="translate(3.65683363594783 0.0) scale(0.41580617887981813)">
  
  <g
     id="line"
     transform="translate(-15.810965,-6.2339)">
    <g
       id="line-2">
      <path
         d="m 41.88,32.0871 a 2,2 0 1 1 -2,-2 2.0007,2.0007 0 0 1 2,2"
         id="path2" />
      <path
         d="m 33.88,32.0871 a 2,2 0 1 1 -2,-2 2.0007,2.0007 0 0 1 2,2"
         id="path4" />
      <path
         d="m 35.88,42.09 a 7.6528,7.6528 0 0 1 -3.4473,-0.8579 1.0001485,1.0001485 0 0 1 0.8946,-1.7891 5.3772,5.3772 0 0 0 5.1054,0 1.0001485,1.0001485 0 0 1 0.8946,1.7891 A 7.6528,7.6528 0 0 1 35.88,42.09 Z"
         id="path6" />
      <path
         fill="none"
         stroke="#000"
         stroke-linecap="round"
         stroke-linejoin="round"
         stroke-width="2"
         d="m 16.9359,62.9433 c 0,0 -1.62,-10.56 6.84,-12.64 a 13.0806,13.0806 0 0 1 3.16,-0.36 c 3.16,2.09 5.86,3.55 8.88,3.59 h 0.12 c 3.02,-0.04 5.73,-1.5 8.88,-3.59 a 13.1666,13.1666 0 0 1 3.17,0.36 c 8.45,2.09 6.83,12.64 6.83,12.64"
         id="path8" />
      <path
         fill="none"
         stroke="#000"
         stroke-linecap="round"
         stroke-linejoin="round"
         stroke-width="2"
         d="m 23.7759,50.3033 c 5.39,7.44 16.72,9.31 24.21,0"
         id="path10" />
      <path
         d="m 34.2207,63.9531 a 0.9994,0.9994 0 0 1 -1,-1 v -6.4013 a 1,1 0 0 1 2,0 v 6.4013 a 0.9994,0.9994 0 0 1 -1,1 z"
         id="path12" />
      <path
         d="m 37.7793,63.9531 a 0.9994,0.9994 0 0 1 -1,-1 v -6.4326 a 1,1 0 0 1 2,0 v 6.4326 a 0.9994,0.9994 0 0 1 -1,1 z"
         id="path14" />
      <path
         d="M 46.4443,29.0259 H 25.1719 a 1,1 0 0 1 -1,-1 V 14.5864 a 8.3621,8.3621 0 0 1 8.3525,-8.3525 h 6.5684 a 8.3613,8.3613 0 0 1 8.3515,8.3525 v 13.44 a 1,1 0 0 1 -1,0.9995 z m -20.2724,-2 H 45.4443 V 14.5864 A 6.3593,6.3593 0 0 0 39.0928,8.2339 h -6.5684 a 6.36,6.36 0 0 0 -6.3525,6.3525 z"
         id="path16" />
      <path
         d="m 41.8758,32.0792 a 2,2 0 1 1 -2,-2 2.0007,2.0007 0 0 1 2,2"
         id="path18" />
      <path
         d="m 33.8758,32.0792 a 2,2 0 1 1 -2,-2 2.0007,2.0007 0 0 1 2,2"
         id="path20" />
      <path
         d="m 35.8757,42.0817 a 7.6541,7.6541 0 0 1 -3.4473,-0.8579 1.0001485,1.0001485 0 0 1 0.8946,-1.7891 5.3772,5.3772 0 0 0 5.1054,0 1.0001485,1.0001485 0 0 1 0.8946,1.7891 7.6544,7.6544 0 0 1 -3.4473,0.8579 z"
         id="path22" />
      <path
         d="m 35.876,48.6133 c -6.8037,0 -12.3389,-6.8067 -12.3389,-15.1734 a 18.26,18.26 0 0 1 0.82,-5.4565 1,1 0 1 1 1.9082,0.5977 16.2548,16.2548 0 0 0 -0.7285,4.8588 c 0,7.2642 4.6377,13.1734 10.3389,13.1734 5.7012,0 10.3382,-5.9092 10.3382,-13.1733 a 16.62,16.62 0 0 0 -0.3018,-3.17 15.84,15.84 0 0 0 -0.4209,-1.6723 1.0000873,1.0000873 0 0 1 1.91,-0.5938 17.86,17.86 0 0 1 0.4736,1.8843 18.619,18.619 0 0 1 0.3389,3.5517 c 2e-4,8.3667 -5.535,15.1734 -12.3377,15.1734 z"
         id="path24" />
      <path
         fill="none"
         stroke="#000"
         stroke-linecap="round"
         stroke-linejoin="round"
         stroke-width="2"
         d="m 17.7153,49.4632 a 15.0763,15.0763 0 0 1 6.3522,-2.3986"
         id="path26" />
      <path
         fill="none"
         stroke="#000"
         stroke-linecap="round"
         stroke-linejoin="round"
         stroke-width="2"
         d="M 54.2847,49.4632 A 15.0763,15.0763 0 0 0 47.9325,47.0646"
         id="path28" />
    </g>
    <path
       fill="none"
       stroke="#000"
       stroke-linecap="round"
       stroke-linejoin="round"
       stroke-width="2"
       d="m 28.1323,44.0457 c -2.8064,1.58 -4.7476,0.7338 -5.8883,-0.2663 A 1.3329,1.3329 0 0 1 22.0946,41.87 C 24.05,39.75 25,28 25,28"
       id="path31" />
    <path
       fill="none"
       stroke="#000"
       stroke-linecap="round"
       stroke-linejoin="round"
       stroke-width="2"
       d="m 43.7589,44.0457 c 2.8065,1.58 4.7476,0.7338 5.8884,-0.2663 A 1.3329,1.3329 0 0 0 49.7967,41.87 C 47.8414,39.75 46.8913,28 46.8913,28"
       id="path33" />
  </g>
</g></svg>