<svg xmlns="http://www.w3.org/2000/svg" width="24" height="24" viewBox="0 0 24 24"> <g transform="scale(0.48)">
  
  <g
     id="line-supplement"
     transform="translate(-11,-11)">
    <g
       id="B_Button">
      <path
         fill="none"
         stroke="#000"
         stroke-linejoin="round"
         stroke-width="2"
         d="m 59.0349,60 h -46.07 A 0.9679,0.9679 0 0 1 12,59.0349 v -46.07 A 0.9679,0.9679 0 0 1 12.9651,12 h 46.07 A 0.9679,0.9679 0 0 1 60,12.9651 v 46.07 A 0.9679,0.9679 0 0 1 59.0349,60 Z"
         id="path2" />
      <path
         fill="none"
         stroke="#000"
         stroke-linecap="round"
         stroke-linejoin="round"
         stroke-width="2"
         d="m 37.7628,35.2283 h -8.42 v -11 h 8.42 a 5.5,5.5 0 0 1 5.5,5.5 v 0 a 5.5,5.5 0 0 1 -5.5,5.5 z"
         id="path4" />
      <path
         fill="none"
         stroke="#000"
         stroke-linecap="round"
         stroke-linejoin="round"
         stroke-width="2"
         d="m 37.7628,46.2284 h -8.42 v -11 h 8.42 a 5.5,5.5 0 0 1 5.5,5.5 v 0 a 5.5,5.5 0 0 1 -5.5,5.5 z"
         id="path6" />
    </g>
  </g>
  <g
     id="line"
     transform="translate(-11,-11)" />
</g></svg>