<svg xmlns="http://www.w3.org/2000/svg" width="24" height="24" viewBox="0 0 24 24"> <g transform="translate(1.844767385679562 0.0) scale(0.4477119123081601)">
  
  <g
     id="line"
     transform="translate(-14.724912,-7.3522)">
    <path
       fill="none"
       stroke="#000"
       stroke-linecap="round"
       stroke-linejoin="round"
       stroke-width="2"
       d="m 25.5206,24.3478 a 27.7526,27.7526 0 0 0 -0.2988,3.747 c -0.1723,8.2606 4.6388,15.06 10.7461,15.1878 6.1073,0.1278 11.1974,-6.4661 11.37,-14.7267"
       id="path2" />
    <path
       fill="none"
       stroke="#000"
       stroke-linecap="round"
       stroke-linejoin="round"
       stroke-width="2"
       d="M 47.3376,28.5559 A 27.4609,27.4609 0 0 0 47.1028,24.3478"
       id="path4" />
    <path
       d="m 42,29.773 a 2,2 0 1 1 -2,-2 2.0007,2.0007 0 0 1 2,2"
       id="path6" />
    <path
       d="m 34,29.773 a 2,2 0 1 1 -2,-2 2.0007,2.0007 0 0 1 2,2"
       id="path8" />
    <path
       d="m 36,39.7754 a 7.6524,7.6524 0 0 1 -3.4472,-0.8579 1.0001261,1.0001261 0 0 1 0.8945,-1.7891 5.3774,5.3774 0 0 0 5.1055,0 1.0001261,1.0001261 0 1 1 0.8945,1.7891 A 7.6528,7.6528 0 0 1 36,39.7754 Z"
       id="path10" />
    <path
       fill="none"
       stroke="#000"
       stroke-linecap="round"
       stroke-linejoin="round"
       stroke-width="2"
       d="m 47.2692,19.3722 a 23.7827,23.7827 0 0 0 -0.359,-2.7506"
       id="path12" />
    <path
       fill="none"
       stroke="#000"
       stroke-linecap="round"
       stroke-linejoin="round"
       stroke-width="2"
       d="M 47.1948,19.3523 H 25.5506 a 1.0769,1.0769 0 0 0 -1.1779,0.9325 V 23.42 a 1.0769,1.0769 0 0 0 1.1779,0.9325 H 47.1948 A 1.077,1.077 0 0 0 48.3727,23.42 v -3.135 a 1.077,1.077 0 0 0 -1.1779,-0.9327 z"
       id="path14" />
    <path
       fill="none"
       stroke="#000"
       stroke-linecap="round"
       stroke-linejoin="round"
       stroke-width="2"
       d="m 25.4762,19.3722 c 0.5059,-6.6438 5.8965,-11.02 10.8965,-11.02 6,0 9.0025,1.39 10.8816,2.3793 10.4928,5.524 8.7806,17.3451 7.9726,22.6407 0.05,-0.0038 0.0952,-0.02 0.1458,-0.02 a 1.9917,1.9917 0 0 1 1.7273,1.0085 1.9833,1.9833 0 0 1 1.7271,2.9916 1.9832,1.9832 0 0 1 -1.7271,2.9915 1.9835,1.9835 0 0 1 -3.4546,0 1.9833,1.9833 0 0 1 -1.7271,-2.9915 1.9913,1.9913 0 0 1 -0.01,-2 1.9167,1.9167 0 0 1 0.1933,-0.2494 L 51.0706,34.62"
       id="path16" />
    <path
       fill="none"
       stroke="#000"
       stroke-linecap="round"
       stroke-linejoin="round"
       stroke-width="2"
       d="m 25.4762,19.3722 c 0.5059,-6.6438 5.8965,-11.02 10.8965,-11.02 6,0 9.0025,1.39 10.8816,2.3793 10.4928,5.524 8.7806,17.3451 7.9726,22.6407 0.05,-0.0038 0.0952,-0.02 0.1458,-0.02 a 1.9917,1.9917 0 0 1 1.7273,1.0085 1.9833,1.9833 0 0 1 1.7271,2.9916 1.9832,1.9832 0 0 1 -1.7271,2.9915 1.9835,1.9835 0 0 1 -3.4546,0 1.9833,1.9833 0 0 1 -1.7271,-2.9915 1.9913,1.9913 0 0 1 -0.01,-2 1.9167,1.9167 0 0 1 0.1933,-0.2494 L 51.0706,34.62"
       id="path18" />
    <path
       fill="none"
       stroke="#000"
       stroke-linecap="round"
       stroke-linejoin="round"
       stroke-width="2"
       d="m 38.5818,59.9581 v -5.225 c 5.8635,-0.3618 10.1308,-2.969 11.6845,-7.47"
       id="path20" />
    <path
       fill="none"
       stroke="#000"
       stroke-linecap="round"
       stroke-linejoin="round"
       stroke-width="2"
       d="M 55.4807,59.9581 C 56.4726,57.2837 54.7048,45.2004 44.8391,46.124 a 15.1321,15.1321 0 0 1 -8.5644,3.5915 l -1.004,0.0058 a 15.1117,15.1117 0 0 1 -8.65,-3.5973 C 16.7553,45.2 14.9876,57.2837 15.98,59.9581"
       id="path22" />
    <path
       fill="none"
       stroke="#000"
       stroke-linecap="round"
       stroke-linejoin="round"
       stroke-width="2"
       d="m 21.1939,47.2627 c 1.5537,4.5014 5.8209,7.1086 11.6845,7.47 v 5.225"
       id="path24" />
    <path
       fill="none"
       stroke="#000"
       stroke-linecap="round"
       stroke-linejoin="round"
       stroke-width="2"
       d="m 24.3727,23.42 a 14.2578,14.2578 0 0 1 -5.2976,1.4325 c 0,0 0.8181,3.2885 2.6488,4.2367 0,0 0.3859,10.6864 7.3309,10.6864"
       id="path26" />
    <path
       fill="none"
       stroke="#000"
       stroke-linecap="round"
       stroke-linejoin="round"
       stroke-width="2"
       d="m 48.381,23.42 a 14.258,14.258 0 0 0 5.2977,1.4325 c 0,0 -0.8181,3.2885 -2.6488,4.2367 0,0 -0.3859,10.6864 -7.3309,10.6864"
       id="path28" />
  </g>
</g></svg>