<svg xmlns="http://www.w3.org/2000/svg" width="24" height="24" viewBox="0 0 24 24"> <g transform="scale(0.5)">
  
  <g
     id="line-supplement"
     transform="translate(-11.9772,-11.958302)">
    <path
       d="m 42.8472,45.6583 c 0,-2.592 -3.834,-4.694 -6.869,-4.694 -3.035,0 -6.869,2.101 -6.869,4.694 0,2.593 3.659,0.9248 6.694,0.9248 3.035,0 7.044,1.6669 7.044,-0.9248 z"
       id="path2" />
  </g>
  <g
     id="line"
     transform="translate(-11.9772,-11.958302)">
    <path
       fill="none"
       stroke="#000"
       stroke-linecap="round"
       stroke-linejoin="round"
       stroke-width="2"
       d="m 29.3564,22.669 a 8.44,8.44 0 0 0 -9.0659,4.4981"
       id="path5" />
    <path
       fill="none"
       stroke="#000"
       stroke-linecap="round"
       stroke-linejoin="round"
       stroke-width="2"
       d="M 51.664,27.1671 A 8.44,8.44 0 0 0 42.5981,22.669"
       id="path7" />
    <circle
       cx="35.9772"
       cy="35.958302"
       r="23"
       fill="none"
       stroke="#000"
       stroke-miterlimit="10"
       stroke-width="2"
       id="circle9" />
    <path
       fill="none"
       stroke="#000"
       stroke-miterlimit="10"
       stroke-width="2"
       d="m 42.8472,45.6583 c 0,-2.592 -3.834,-4.694 -6.869,-4.694 -3.035,0 -6.869,2.101 -6.869,4.694 0,2.593 3.659,0.9248 6.694,0.9248 3.035,0 7.044,1.6669 7.044,-0.9248 z"
       id="path11" />
    <path
       d="m 29.9772,32.9583 a 3,3 0 1 1 -3,-3 3.0011,3.0011 0 0 1 3,3"
       id="path13" />
    <path
       d="m 47.9772,32.9583 a 3,3 0 1 1 -3,-3 3.0011,3.0011 0 0 1 3,3"
       id="path15" />
  </g>
</g></svg>