<svg xmlns="http://www.w3.org/2000/svg" width="24" height="24" viewBox="0 0 24 24"> <g transform="translate(0.0 0.076596097142275) scale(0.4726301551075674)">
  
  <g
     id="line-supplement"
     transform="translate(-8.6046189,-12.388558)">
    <g
       id="_790Luc">
      <path
         fill="none"
         stroke="#000"
         stroke-miterlimit="10"
         stroke-width="2"
         d="m 48.1275,18.3578 a 13.2415,13.2415 0 0 1 1.7215,0.3209 c 1.5622,0.4786 2.2719,1.8225 2.6327,3.4557 a 11.7982,11.7982 0 0 1 -0.1157,5.1717 c -0.4984,2.207 -1.1045,4.3854 -1.7123,6.5593 a 14.1,14.1 0 0 0 -0.3114,4.3735 22.593,22.593 0 0 1 -0.0251,4.5267 3.4324,3.4324 0 0 1 -0.87,1.7845 11.8577,11.8577 0 0 1 -1.006,0.9937 5.0531,5.0531 0 0 0 -1.6331,2.8834 16.5128,16.5128 0 0 1 -0.57,2.0025 5.6829,5.6829 0 0 1 -2.4343,3.0074 2.7874,2.7874 0 0 1 -1.9869,0.2424 1.8119,1.8119 0 0 0 -1.7622,0.5345 10.7525,10.7525 0 0 1 -2.7711,2.2015 3.0127,3.0127 0 0 1 -2.28,0.391 2.2219,2.2219 0 0 1 -0.8038,-0.4436 3.8683,3.8683 0 0 0 -2.9082,-0.8751 c -0.93,0.0511 -1.8621,0.1048 -2.7932,0.1039 a 5.5664,5.5664 0 0 1 -5.235,-3.48 25.2946,25.2946 0 0 1 -1.3066,-3.5511 5.0183,5.0183 0 0 0 -1.6912,-2.604 8.3293,8.3293 0 0 1 -1.126,-1.0833 4.9929,4.9929 0 0 1 -1.1286,-2.9983 6.6485,6.6485 0 0 1 2.44,-5.8956 5.0969,5.0969 0 0 1 0.4949,-0.4116 3.3926,3.3926 0 0 0 1.4441,-2.1409 3.0426,3.0426 0 0 1 1.4754,-1.9592 c 0.5545,-0.33 1.1348,-0.6111 1.6706,-0.9744 a 4.1935,4.1935 0 0 0 1.1892,-1.0262 13.3484,13.3484 0 0 1 4.202,-3.9194 66.1844,66.1844 0 0 1 10.4628,-5.5814 23.35,23.35 0 0 1 5.1875,-1.4722 c 0.4425,-0.0641 0.8909,-0.08 1.55,-0.1363 z"
         id="path2" />
    </g>
  </g>
  <g
     id="line"
     transform="translate(-8.6046189,-12.388558)">
    <g
       id="_790Luc-5">
      <path
         fill="none"
         stroke="#000"
         stroke-miterlimit="10"
         stroke-width="2"
         d="m 51.9434,13.3926 a 20.5288,20.5288 0 0 1 2.4178,0.4036 c 2.1939,0.6019 3.1906,2.292 3.6972,4.3461 a 13.3281,13.3281 0 0 1 -0.1625,6.5042 c -0.7,2.7757 -1.5511,5.5154 -2.4047,8.25 a 15.9333,15.9333 0 0 0 -0.4372,5.5 25.4664,25.4664 0 0 1 -0.0354,5.6931 4.1557,4.1557 0 0 1 -1.2218,2.2442 15.9048,15.9048 0 0 1 -1.4128,1.25 6.2312,6.2312 0 0 0 -2.2935,3.6262 19.1265,19.1265 0 0 1 -0.8,2.5185 7.3713,7.3713 0 0 1 -3.4187,3.7822 4.3231,4.3231 0 0 1 -2.79,0.3049 2.7389,2.7389 0 0 0 -2.4748,0.6722 14.9577,14.9577 0 0 1 -3.8917,2.7688 4.6516,4.6516 0 0 1 -3.2022,0.4917 3.2429,3.2429 0 0 1 -1.1288,-0.5579 5.878,5.878 0 0 0 -4.085,-1.1004 c -1.3066,0.0643 -2.6151,0.1319 -3.9227,0.1307 a 7.8881,7.8881 0 0 1 -7.3519,-4.376 29.7614,29.7614 0 0 1 -1.835,-4.4661 6.2988,6.2988 0 0 0 -2.3752,-3.275 11.2476,11.2476 0 0 1 -1.5813,-1.3624 5.9124,5.9124 0 0 1 -1.585,-3.7712 7.9788,7.9788 0 0 1 3.426,-7.4147 7.08,7.08 0 0 1 0.695,-0.5177 4.2858,4.2858 0 0 0 2.0293,-2.6931 3.9057,3.9057 0 0 1 2.0721,-2.464 c 0.7786,-0.4155 1.5935,-0.7686 2.346,-1.2256 a 5.7566,5.7566 0 0 0 1.67,-1.2905 18.1066,18.1066 0 0 1 5.9013,-4.9293 97.0057,97.0057 0 0 1 14.693,-7.02 35.7891,35.7891 0 0 1 7.2852,-1.8515 c 0.622,-0.0805 1.2518,-0.1003 2.1773,-0.171 z"
         id="path6" />
    </g>
    <path
       fill="none"
       stroke="#000"
       stroke-linecap="round"
       stroke-linejoin="round"
       stroke-width="2.1266"
       d="M 44.1,24.5157 A 92.9134,92.9134 0 0 0 33.298,32.5812"
       id="path9" />
    <path
       fill="none"
       stroke="#000"
       stroke-linecap="round"
       stroke-linejoin="round"
       stroke-width="2.1266"
       d="m 26.8551,39.8181 c -1.5775,2.67 -1.9478,5.212 0.0034,7.1632 11.5921,11.5921 21.4208,-20.1146 21.4208,-20.1146"
       id="path11" />
    <circle
       cx="31.000799"
       cy="37.0229"
       r="5"
       fill="none"
       stroke="#000"
       stroke-linecap="round"
       stroke-linejoin="round"
       stroke-width="2.435"
       id="circle13" />
  </g>
</g></svg>