<svg xmlns="http://www.w3.org/2000/svg" width="24" height="24" viewBox="0 0 24 24"> <g transform="translate(0.0 4.5) scale(0.375)">
  
  <g
     id="line"
     transform="translate(-3.924,-27.629)">
    <polyline
       fill="none"
       stroke="#000"
       stroke-linecap="round"
       stroke-linejoin="round"
       stroke-width="2"
       points="50.924 66.629 50.924 36.629 66.924 36.629 66.924 66.629"
       id="polyline2" />
    <polyline
       fill="none"
       stroke="#000"
       stroke-linecap="round"
       stroke-linejoin="round"
       stroke-width="2"
       points="4.924 66.629 4.924 45.629 38.924 45.629 38.924 66.629"
       id="polyline4" />
    <polyline
       fill="none"
       stroke="#000"
       stroke-linecap="round"
       stroke-linejoin="round"
       stroke-width="2"
       points="34.924 42.629 34.924 32.629 46.924 32.629 46.924 66.629"
       id="polyline6" />
    <polyline
       fill="none"
       stroke="#000"
       stroke-linecap="round"
       stroke-linejoin="round"
       stroke-width="2"
       points="10.924 42.629 10.924 28.629 18.924 28.629 18.924 42.629"
       id="polyline8" />
    <polyline
       fill="none"
       stroke="#000"
       stroke-linecap="round"
       stroke-linejoin="round"
       stroke-width="2"
       points="56.924 45.629 54.924 45.629 54.924 40.629"
       id="polyline10" />
    <polyline
       fill="none"
       stroke="#000"
       stroke-linecap="round"
       stroke-linejoin="round"
       stroke-width="2"
       points="62.924 55.629 60.924 55.629 60.924 50.629"
       id="polyline12" />
    <polyline
       fill="none"
       stroke="#000"
       stroke-linecap="round"
       stroke-linejoin="round"
       stroke-width="2"
       points="28.924 54.629 26.924 54.629 26.924 49.629"
       id="polyline14" />
    <polyline
       fill="none"
       stroke="#000"
       stroke-linecap="round"
       stroke-linejoin="round"
       stroke-width="2"
       points="34.924 54.629 32.924 54.629 32.924 49.629"
       id="polyline16" />
    <polyline
       fill="none"
       stroke="#000"
       stroke-linecap="round"
       stroke-linejoin="round"
       stroke-width="2"
       points="34.924 64.629 32.924 64.629 32.924 59.629"
       id="polyline18" />
    <polyline
       fill="none"
       stroke="#000"
       stroke-linecap="round"
       stroke-linejoin="round"
       stroke-width="2"
       points="16.924 54.629 14.924 54.629 14.924 49.629"
       id="polyline20" />
    <polyline
       fill="none"
       stroke="#000"
       stroke-linecap="round"
       stroke-linejoin="round"
       stroke-width="2"
       points="10.924 54.629 8.924 54.629 8.924 49.629"
       id="polyline22" />
    <polyline
       fill="none"
       stroke="#000"
       stroke-linecap="round"
       stroke-linejoin="round"
       stroke-width="2"
       points="10.924 64.629 8.924 64.629 8.924 59.629"
       id="polyline24" />
    <polyline
       fill="none"
       stroke="#000"
       stroke-linecap="round"
       stroke-linejoin="round"
       stroke-width="2"
       points="22.924 64.629 20.924 64.629 20.924 59.629"
       id="polyline26" />
    <polyline
       fill="none"
       stroke="#000"
       stroke-linecap="round"
       stroke-linejoin="round"
       stroke-width="2"
       points="56.924 65.629 54.924 65.629 54.924 60.629"
       id="polyline28" />
    <polyline
       fill="none"
       stroke="#000"
       stroke-linecap="round"
       stroke-linejoin="round"
       stroke-width="2"
       points="62.924 65.629 60.924 65.629 60.924 60.629"
       id="polyline30" />
    <line
       x1="14.9236"
       x2="14.9236"
       y1="31.629"
       y2="42.629002"
       fill="none"
       stroke="#000"
       stroke-linecap="round"
       stroke-linejoin="round"
       stroke-width="2"
       id="line32" />
    <line
       x1="38.923599"
       x2="38.923599"
       y1="35.629002"
       y2="42.629002"
       fill="none"
       stroke="#000"
       stroke-linecap="round"
       stroke-linejoin="round"
       stroke-width="2"
       id="line34" />
    <line
       x1="42.923599"
       x2="42.923599"
       y1="35.629002"
       y2="66.628998"
       fill="none"
       stroke="#000"
       stroke-linecap="round"
       stroke-linejoin="round"
       stroke-width="2"
       id="line36" />
  </g>
</g></svg>