<svg xmlns="http://www.w3.org/2000/svg" width="24" height="24" viewBox="0 0 24 24"> <g transform="translate(0.0 1.6074593191539694) scale(0.40019810473181067)">
  
  <g
     id="line"
     transform="translate(-8.5957286,-7.1732174)">
    <path
       d="m 41.9027,27.1 c 0,1.1045 -0.8965,2 -2,2 -1.1035,0 -2,-0.8955 -2,-2 0,-1.1035 0.8965,-2 2,-2 1.1035,0 2,0.8965 2,2"
       id="path2" />
    <path
       d="m 33.9027,27.1 c 0,1.1045 -0.8965,2 -2,2 -1.1035,0 -2,-0.8955 -2,-2 0,-1.1035 0.8965,-2 2,-2 1.1035,0 2,0.8965 2,2"
       id="path4" />
    <path
       d="m 35.9026,37.1024 c -1.1518,0 -2.3037,-0.2861 -3.4473,-0.8579 -0.4941,-0.247 -0.6943,-0.8476 -0.4472,-1.3418 0.2466,-0.4936 0.8462,-0.6943 1.3418,-0.4472 1.7177,0.8593 3.3877,0.8593 5.1054,0 0.4947,-0.2471 1.0948,-0.0464 1.3418,0.4472 0.2471,0.4942 0.0469,1.0948 -0.4472,1.3418 -1.1436,0.5718 -2.2954,0.8579 -3.4473,0.8579 z"
       id="path6" />
    <polyline
       fill="none"
       stroke="#000"
       stroke-linecap="round"
       stroke-linejoin="round"
       stroke-miterlimit="10"
       stroke-width="2"
       points="26.9026,45.0543 32.7064,55.2412 35.9026,49.9464"
       id="polyline8" />
    <polyline
       fill="none"
       stroke="#000"
       stroke-linecap="round"
       stroke-linejoin="round"
       stroke-miterlimit="10"
       stroke-width="2"
       points="44.9026,45.0543 39.0988,55.2412 35.9026,49.9464"
       id="polyline10" />
    <path
       fill="none"
       stroke="#000"
       stroke-linecap="round"
       stroke-linejoin="round"
       stroke-miterlimit="10"
       stroke-width="2"
       d="m 54.8401,57.9543 c 0,0 2,-13 -10,-13 -3.1918,2.1279 -5.9264,3.5984 -9,3.5921 h 0.125 c -3.0736,0.0063 -5.8081,-1.4642 -9,-3.5921 -12,0 -10,13 -10,13"
       id="path12" />
    <line
       x1="22.0322"
       x2="22.0322"
       y1="45.9062"
       y2="58.110199"
       fill="none"
       stroke="#000"
       stroke-linecap="round"
       stroke-linejoin="round"
       stroke-miterlimit="10"
       stroke-width="2"
       id="line14" />
    <line
       x1="49.522999"
       x2="49.522999"
       y1="45.9062"
       y2="58.110199"
       fill="none"
       stroke="#000"
       stroke-linecap="round"
       stroke-linejoin="round"
       stroke-miterlimit="10"
       stroke-width="2"
       id="line16" />
    <polyline
       fill="none"
       stroke="#000"
       stroke-linecap="round"
       stroke-linejoin="round"
       stroke-miterlimit="10"
       stroke-width="2"
       points="27.1709,45.2094 27.1709,58.1102 44.6192,58.096 44.6192,45.1888"
       id="polyline18" />
    <path
       fill="none"
       stroke="#000"
       stroke-linecap="round"
       stroke-linejoin="round"
       stroke-miterlimit="10"
       stroke-width="2"
       d="m 16.3571,38.4716 c -1.2234,-0.7748 -1.218,-2.1093 -0.4433,-3.3326 0.7748,-1.2234 1.908,-1.6877 3.1313,-0.9129"
       id="path20" />
    <path
       fill="none"
       stroke="#000"
       stroke-linecap="round"
       stroke-linejoin="round"
       stroke-miterlimit="10"
       stroke-width="2"
       d="m 18.9251,41.0396 c 0,1.4183 -1.1497,2.5681 -2.568,2.5681 -1.4183,0 -2.5681,-1.1498 -2.5681,-2.5681 0,-1.4183 1.1498,-2.568 2.5681,-2.568"
       id="path22" />
    <path
       fill="none"
       stroke="#000"
       stroke-linecap="round"
       stroke-linejoin="round"
       stroke-miterlimit="10"
       stroke-width="2"
       d="m 9.7129,48.6523 c 6.3524,-0.3944 4.5577,-5.6759 4.5577,-5.6759 0,0 -5.5445,-0.6118 -4.5577,5.6759 z"
       id="path24" />
    <path
       fill="none"
       stroke="#000"
       stroke-linecap="round"
       stroke-linejoin="round"
       stroke-miterlimit="10"
       stroke-width="2"
       d="m 23.2914,38.1504 c 0,0 0.8726,2.5851 -1.0791,3.5473 -1.2988,0.6403 -2.6056,0.6195 -3.2872,-0.6581"
       id="path26" />
    <polyline
       fill="none"
       stroke="#000"
       stroke-linecap="round"
       stroke-linejoin="round"
       stroke-miterlimit="10"
       stroke-width="2"
       points="27.0623,16.3751 27.0623,8.1732 35.8475,9.5905 44.6326,8.1732 44.6326,16.3751"
       id="polyline28" />
    <line
       x1="27.0623"
       x2="44.632599"
       y1="12.8703"
       y2="12.8703"
       fill="none"
       stroke="#000"
       stroke-linecap="round"
       stroke-linejoin="round"
       stroke-miterlimit="10"
       stroke-width="2"
       id="line30" />
    <path
       fill="none"
       stroke="#000"
       stroke-linecap="round"
       stroke-linejoin="round"
       stroke-miterlimit="10"
       stroke-width="2"
       d="m 26.383,16.3751 c 0,0 -11.9999,8.7517 -7.3379,17.851"
       id="path32" />
    <path
       fill="none"
       stroke="#000"
       stroke-linecap="round"
       stroke-linejoin="round"
       stroke-miterlimit="10"
       stroke-width="2"
       d="m 52.6447,41.0396 c 0,0.8066 0.3718,1.5264 0.9535,1.9972"
       id="path34" />
    <path
       fill="none"
       stroke="#000"
       stroke-linecap="round"
       stroke-linejoin="round"
       stroke-miterlimit="10"
       stroke-width="2"
       d="m 48.2784,38.1504 c 0,0 -0.8726,2.5851 1.0791,3.5473 1.2988,0.6403 2.6056,0.6195 3.2872,-0.6581"
       id="path36" />
    <path
       fill="none"
       stroke="#000"
       stroke-linecap="round"
       stroke-linejoin="round"
       stroke-miterlimit="10"
       stroke-width="2"
       d="m 45.1868,16.3751 c 0,0 2.9602,2.159 5.3689,5.4472"
       id="path38" />
    <path
       fill="none"
       stroke="#000"
       stroke-linecap="round"
       stroke-linejoin="round"
       stroke-miterlimit="10"
       stroke-width="2"
       d="m 53.1295,25.1 c 0,0 -2.3767,15.4155 7.0845,15.6583 V 25.1"
       id="path40" />
    <path
       fill="none"
       stroke="#000"
       stroke-linecap="round"
       stroke-linejoin="round"
       stroke-miterlimit="10"
       stroke-width="2"
       d="m 67.2985,25.1 c 0,0 2.3766,15.4155 -7.0845,15.6583 V 25.1"
       id="path42" />
    <rect
       x="57.561001"
       y="40.758301"
       width="5.4802999"
       height="4.2448001"
       fill="none"
       stroke="#000"
       stroke-linecap="round"
       stroke-linejoin="round"
       stroke-miterlimit="10"
       stroke-width="2"
       id="rect44" />
    <polyline
       fill="none"
       stroke="#000"
       stroke-linecap="round"
       stroke-linejoin="round"
       stroke-miterlimit="10"
       stroke-width="2"
       points="62.3012,57.9543 62.3012,45.044 58.3012,45.044 58.3012,57.9543"
       id="polyline46" />
    <line
       x1="19.389999"
       x2="51.958199"
       y1="16.375099"
       y2="16.375099"
       fill="none"
       stroke="#000"
       stroke-linecap="round"
       stroke-linejoin="round"
       stroke-miterlimit="10"
       stroke-width="2"
       id="line48" />
    <path
       fill="none"
       stroke="#000"
       stroke-linecap="round"
       stroke-linejoin="round"
       stroke-miterlimit="10"
       stroke-width="2"
       d="m 26.511,20.517 c -1.229,2.2659 -1.947,5 -1.947,7.9438 0,7.8277 5.0765,14.1732 11.3386,14.1732 6.2621,0 11.3386,-6.3455 11.3386,-14.1732 0,-2.7693 -0.6354,-5.3532 -1.734,-7.5362 l -0.2361,-0.8856 -0.5208,2.624 h -8.7852 -0.0625 -8.7852 l -0.6342,-2.0571"
       id="path50" />
  </g>
</g></svg>