<svg xmlns="http://www.w3.org/2000/svg" width="24" height="24" viewBox="0 0 24 24"> <g transform="translate(0.0 5.947345556901311) scale(0.47138317217855663)">
  
  <g
     id="line"
     transform="translate(-7.0454199,-26.7141)">
    <path
       fill="none"
       stroke="#000"
       stroke-linecap="round"
       stroke-linejoin="round"
       stroke-width="1.6"
       d="m 27.49,31.4541 h 0.07 l 17.53,0.85 c 10.46,0.2 11.28,0.15 12.05,0.1 a 15.2792,15.2792 0 0 0 0,-1.54 c -6.94,-0.21 -10.46,-0.36 -11.98,-0.42 -1.53,-0.05 -17.6,-2.93 -18.85,-2.93 -1.31,0 -12.14,0.05 -12.43,0.4 -0.29,0.35 -0.11,8.65 -0.11,8.65 -5.55,0 -5.92,0.05 -5.92,0.05 0,0 -0.01,1.37 0,1.96 4.42,-0.04 4.35,-0.03 4.83,-0.05 0.16,-0.01 1.37,-0.01 3.23,-0.01"
       id="path2" />
    <path
       fill="none"
       stroke="#000"
       stroke-linecap="round"
       stroke-linejoin="round"
       stroke-width="1.6"
       d="m 27.5,38.5141 c 6.39,0.01 13,0.04 15.63,0.07 4.9,0.06 11.78,0.11 14.01,-0.05 0.03,-0.63 0.02,-1.26 0,-1.83 -3.11,-0.15 -5.76,-0.1 -13.41,-0.1 a 87.3409,87.3409 0 0 1 -15.95,-1.63"
       id="path4" />
    <g
       id="g12">
      <path
         fill="none"
         stroke="#000"
         stroke-miterlimit="10"
         stroke-width="1.6"
         d="m 19.6457,41.914 a 18.5816,18.5816 0 0 0 7.9109,-0.7889"
         id="path6" />
      <path
         fill="none"
         stroke="#000"
         stroke-miterlimit="10"
         stroke-width="1.6"
         d="m 15.9489,41.4118 c -0.0032,7e-4 0.9347,0.128 2.0658,0.3187"
         id="path8" />
      <path
         fill="none"
         stroke="#000"
         stroke-miterlimit="10"
         stroke-width="1.6"
         d="m 16.1369,31.4466 c 0.3111,-0.5289 6.4383,-3.1164 11.42,0 0,0 0.0416,8.9476 -0.2341,9.7982 -0.0037,0.0113 -0.0178,0.0136 -0.0294,0.0108 -1.1989,-0.2891 -0.0768,-1.3447 -5.4808,-1.516 -4.8095,0.23 -5.8164,1.0321 -5.8634,1.6722 -0.047,0.6401 -0.1234,-9.4363 0.1877,-9.9652 z"
         id="path10" />
    </g>
    <path
       fill="none"
       d="m 24.1163,31.1324 c 0,0 2.6444,0.3145 2.9333,1.0867 0.0021,0.77 -0.1719,7.5842 -0.1719,7.5842 a 6.3387,6.3387 0 0 0 -2.7614,-0.8818 z"
       id="path14" />
    <path
       fill="none"
       stroke="#000"
       stroke-linecap="round"
       stroke-linejoin="round"
       stroke-width="1.6"
       d="m 24.4381,44.1636 c 0,0 4.1976,1.927 0,4.2585 -1.1832,0.6572 0,1.9312 0,1.9312"
       id="path16" />
    <path
       fill="none"
       d="m 23.7608,52.3945 a 0.7981,0.7981 0 0 1 -0.5864,-0.2559 2.5593,2.5593 0 0 1 -0.7188,-1.9453 1.6885,1.6885 0 0 1 0.9165,-1.23 c 0.9385,-0.5215 1.4683,-1.0527 1.4541,-1.458 -0.0181,-0.501 -0.8467,-1.1162 -1.4009,-1.374 a 0.80030741,0.80030741 0 0 1 0.669,-1.4541 c 0.2319,0.1064 2.2666,1.0879 2.3305,2.7656 0.0415,1.0752 -0.7246,2.0576 -2.2758,2.9189 a 0.3476,0.3476 0 0 0 -0.1158,0.0879 1.23,1.23 0 0 0 0.314,0.6006 0.8,0.8 0 0 1 -0.5864,1.3438 z"
       id="path18" />
    <path
       fill="none"
       stroke="#000"
       stroke-linecap="round"
       stroke-linejoin="round"
       stroke-width="1.6"
       d="m 20.3892,40.83 a 9.2588,9.2588 0 0 1 -0.6445,2.887 c -0.5514,1.1608 0.6445,3.2722 0.6445,3.2722"
       id="path20" />
  </g>
</g></svg>