<svg xmlns="http://www.w3.org/2000/svg" width="24" height="24" viewBox="0 0 24 24"> <g transform="translate(0.0 0.7414531498311057) scale(0.3752959912571046)">
  
  <g
     id="line"
     transform="translate(-4.0496377,-6.0477189)">
    <path
       fill="#000"
       stroke="none"
       d="m 26.1616,31.0595 c 0,0 -3.0474,-0.219 -3.8284,-1 -0.781,-0.781 -0.781,-2.0474 0,-2.8284 0.781,-0.781 2.0474,-0.781 2.8284,0 0.7811,0.781 1,3.8284 1,3.8284 z"
       id="path2" />
    <path
       fill="none"
       stroke="#000"
       stroke-linecap="round"
       stroke-linejoin="round"
       stroke-miterlimit="10"
       stroke-width="2"
       d="m 19.6191,26.2353 2.0377,-9.248 c 0,0 -7.6806,-0.627 -6.505,-7.4454 0,0 9.9534,3.2917 12.7748,0.4702 0,0 6.2375,-6.6642 16.1956,-0.0429 3.3226,2.2093 12.7748,-0.4702 12.7748,-0.4702 1.1756,6.8184 -6.505,7.4454 -6.505,7.4454 l 2.0377,9.248"
       id="path4" />
    <path
       fill="none"
       stroke="#000"
       stroke-linecap="round"
       stroke-linejoin="round"
       stroke-miterlimit="10"
       stroke-width="2"
       d="M 28.4825,46 H 44.209 c 0.272,0 0.5324,0.1138 0.7082,0.3213 0.8467,0.9992 3.1442,4.3471 2.0943,10.2966 -0.1836,1.0404 -1.1647,1.7418 -2.2037,1.5503 -3.4759,-0.6406 -11.324,-1.7893 -16.7592,-0.3263 -1.1058,0.2976 -2.2065,-0.454 -2.3432,-1.5909 -0.302,-2.5115 -0.3157,-6.6284 2.0103,-9.8682 C 27.8908,46.139 28.1824,46 28.4825,46 Z"
       id="path6" />
    <path
       fill="none"
       stroke="#000"
       stroke-linecap="round"
       stroke-linejoin="round"
       stroke-miterlimit="10"
       stroke-width="2"
       d="m 29.8671,50.277 c 0,0 -0.6865,2.855 3.1538,2.926"
       id="path8" />
    <path
       fill="none"
       stroke="#000"
       stroke-linecap="round"
       stroke-linejoin="round"
       stroke-miterlimit="10"
       stroke-width="2"
       d="m 29.1276,61.4663 c 0,0 6.3482,7.9157 13.7936,0.3135"
       id="path10" />
    <path
       fill="none"
       stroke="#000"
       stroke-linecap="round"
       stroke-linejoin="round"
       stroke-miterlimit="10"
       stroke-width="2"
       d="m 17.5177,20.1544 c -3.0642,-1.9576 -7.3791,-4.5873 -12.4353,-3.3426 0,0 -1.4891,14.0288 15.3611,15.5179 l 1.2133,0.881 c 0,0 -2.2906,8.9177 1.2618,16.1018"
       id="path12" />
    <path
       fill="#000"
       stroke="none"
       d="m 45.8871,31.0139 c 0,0 3.0474,-0.219 3.8284,-1 0.7811,-0.781 0.7811,-2.0474 0,-2.8284 -0.781,-0.781 -2.0474,-0.781 -2.8284,0 -0.781,0.781 -1,3.8284 -1,3.8284 z"
       id="path14" />
    <path
       fill="none"
       stroke="#000"
       stroke-linecap="round"
       stroke-linejoin="round"
       stroke-miterlimit="10"
       stroke-width="2"
       d="m 43.1817,50.2341 c 0,0 0.6865,2.855 -3.1538,2.926"
       id="path16" />
    <path
       fill="none"
       stroke="#000"
       stroke-linecap="round"
       stroke-linejoin="round"
       stroke-miterlimit="10"
       stroke-width="2"
       d="m 54.7743,19.9585 c 3.0474,-1.888 7.2683,-4.4017 12.1921,-3.1896 0,0 1.4891,14.0288 -15.3611,15.5179 l -1.2133,0.881 c 0,0 2.5382,7.9772 -1.0141,15.1613"
       id="path18" />
  </g>
</g></svg>