<svg xmlns="http://www.w3.org/2000/svg" width="24" height="24" viewBox="0 0 24 24"> <g transform="translate(0.0 4.050210496483979) scale(0.384143958716817)">
  
  <g
     id="line"
     transform="translate(-4.7634215,-15.313064)">
    <path
       fill="none"
       stroke="#000"
       stroke-linecap="round"
       stroke-linejoin="round"
       stroke-width="2"
       d="m 15.0017,22.1684 c -0.5,-2.27 -0.41,-3.76 0.11,-4.66 0.65,-1.06 1.87,-1.35 3.52,-1.12 5.45,0.88 15.1,7.92 19.94,11.67"
       id="path2" />
    <path
       fill="none"
       stroke="#000"
       stroke-linecap="round"
       stroke-linejoin="round"
       stroke-width="2"
       d="m 57.67,30.66 0.89,-0.14 a 7.237,7.237 0 0 1 2.93,-0.08 l 2.3,0.32 2.45,0.39"
       id="path4" />
    <path
       fill="none"
       stroke="#000"
       stroke-linecap="round"
       stroke-linejoin="round"
       stroke-width="2"
       d="m 38.3672,42.7944 0.95,3.0883 a 3.9745,3.9745 0 0 1 0.1584,0.95 v 2.4549 a 3.4747,3.4747 0 0 1 -0.7127,2.1381 L 37.1,53.5641"
       id="path6" />
    <path
       fill="none"
       stroke="#000"
       stroke-linecap="round"
       stroke-linejoin="round"
       stroke-width="2"
       d="m 48.1866,40.102 0.6335,1.8213 a 4.355,4.355 0 0 1 0.1584,1.7422 l -0.3959,2.6924"
       id="path8" />
    <path
       fill="none"
       stroke="#000"
       stroke-linecap="round"
       stroke-linejoin="round"
       stroke-width="2"
       d="m 35.5164,43.27 0.1584,5.1473 a 1.7433,1.7433 0 0 1 -0.0792,0.6335 l -0.5544,3.3259 a 3.2562,3.2562 0 0 1 -1.3462,2.1382 l -1.5838,1.1878"
       id="path10" />
    <path
       fill="none"
       stroke="#000"
       stroke-linecap="round"
       stroke-linejoin="round"
       stroke-width="2"
       d="m 44.6231,40.7355 0.95,2.0589 a 3.5229,3.5229 0 0 1 0,3.0883 l -0.7127,1.5046"
       id="path12" />
    <path
       fill="none"
       stroke="#000"
       stroke-linecap="round"
       stroke-linejoin="round"
       stroke-width="2"
       d="m 52.78,29.8074 1.1086,-1.1087 a 9.5883,9.5883 0 0 1 4.91,-2.7716 l 6.3351,-1.4254"
       id="path14" />
    <path
       fill="none"
       stroke="#000"
       stroke-linecap="round"
       stroke-linejoin="round"
       stroke-width="2"
       d="m 23,36.3 a 23.4709,23.4709 0 0 0 -6.81,11.8 v 0.08 a 2.6883,2.6883 0 0 0 -0.08,0.79 3.9248,3.9248 0 0 0 3.96,3.96 1.9881,1.9881 0 0 0 0.64,-0.08 22.0647,22.0647 0 0 0 2.29,-0.31"
       id="path16" />
    <path
       fill="none"
       stroke="#000"
       stroke-linecap="round"
       stroke-linejoin="round"
       stroke-width="2"
       d="m 54.28,38.52 a 6.2729,6.2729 0 0 0 1.35,-1.19 l 0.08,-0.08 0.08,-0.08 v -0.08 a 7.6549,7.6549 0 0 0 1.98,-5.22 6.8938,6.8938 0 0 0 -0.1,-1.21 7.7344,7.7344 0 0 0 -1.6,-3.69 c -0.07,-0.1 -0.16,-0.2 -0.24,-0.3 a 7.8346,7.8346 0 0 0 -4.79,-2.64 6.0051,6.0051 0 0 0 -1.19,-0.08 7.9258,7.9258 0 0 0 -5.86,2.61 h -1.35 a 7.8857,7.8857 0 0 0 -4.07,1.5"
       id="path18" />
    <path
       fill="none"
       stroke="#000"
       stroke-linecap="round"
       stroke-linejoin="round"
       stroke-width="2"
       d="m 40.4217,30.8384 c 0,0 -1.24,-0.55 -3.26,-1.49 a 0.1421,0.1421 0 0 1 -0.06,-0.02 c -0.56,-0.23 -1.11,-0.55 -1.74,-0.79 -5.29,-2.31 -13.82,-5.62 -20.37,-6.37 a 19.7,19.7 0 0 0 -3.63,-0.12 c -3.01,0.24 -5.15,1.42 -5.54,4.12 -0.79,5.7 6.1,8.39 13.3,9.58 1.27,0.24 2.62,0.39 3.88,0.55 a 93.7575,93.7575 0 0 0 11.33,0.48"
       id="path20" />
  </g>
</g></svg>