<svg xmlns="http://www.w3.org/2000/svg" width="24" height="24" viewBox="0 0 24 24"> <g transform="translate(0.0 3.1214858154413463) scale(0.4157324883385738)">
  
  <g
     id="line"
     transform="translate(-7.1397747,-14.379668)">
    <path
       fill="none"
       stroke="#000"
       stroke-linecap="round"
       stroke-linejoin="round"
       stroke-width="2"
       d="m 12.7288,33.3849 a 8.5288,8.5288 0 0 0 0.634,1.4 8.9671,8.9671 0 0 1 0.4782,7.6845 4.5549,4.5549 0 0 0 0,4.485 V 54.5 a 1.5005,1.5005 0 0 0 1.5005,1.5 h 3.116 c 0,0 0.1438,-3.7251 -2.0851,-3.7251 v -4.9611 c 0,0 5.1768,-3.3074 5.1768,-7.4057 a 10.6935,10.6935 0 0 0 6.9744,2.8041 8.92,8.92 0 0 0 4.2664,-1.2285"
       id="path2" />
    <path
       fill="none"
       stroke="#000"
       stroke-linecap="round"
       stroke-linejoin="round"
       stroke-width="2"
       d="m 19.4154,48.73 a 4.78,4.78 0 0 0 0.8825,1.36 C 21.57,51.3621 22.2166,56 22.2166,56 h 4.2128 c 0,0 0.4348,-3.7412 -2.3784,-3.7412 l -1.9585,-4.63 c 0,0 3.1415,-2.7488 3.1415,-5.5035"
       id="path4" />
    <path
       fill="none"
       stroke="#000"
       stroke-linecap="round"
       stroke-linejoin="round"
       stroke-width="2"
       d="m 27.5971,22.0525 c 0,0 -23.0812,5.0896 -18.9778,18.9775"
       id="path6" />
    <path
       fill="none"
       stroke="#000"
       stroke-linecap="round"
       stroke-linejoin="round"
       stroke-width="2"
       d="m 49.4575,36.1544 v 9.2331 c 3.4941,-3.4942 6.3579,-4.4669 8.2011,-4.6467 a 3.8288,3.8288 0 0 0 3.2526,-2.4574 L 63.57,31.1109 a 4.8041,4.8041 0 0 0 -0.6324,-4.5133 l -2.4844,-3.383 A 3.1777,3.1777 0 0 0 57.892,21.9179 l -5.4661,-0.0027 c -3.436,-4.529 -11.4876,-10.5947 -26.7,-2.7541"
       id="path8" />
    <path
       fill="none"
       stroke="#000"
       stroke-linecap="round"
       stroke-linejoin="round"
       stroke-width="2"
       d="m 38.1329,33.9789 a 15.277,15.277 0 0 0 -0.9928,1.9787 c -1.02,2.4154 -2.1653,6.6 0.1209,10.0169 2.2862,3.4169 2.299,10.1178 2.299,10.1178 h 5.4665 c 0.0041,-3.7518 -2.3121,-3.8816 -2.3121,-3.8816 l -1.8707,-6.8232 c 0,-3.2753 3.3023,-6.0344 5.8175,-7.6608"
       id="path10" />
    <path
       fill="none"
       stroke="#000"
       stroke-linecap="round"
       stroke-linejoin="round"
       stroke-width="2"
       d="m 51.8065,25.5027 a 4.6449,4.6449 0 0 1 -4.3549,-2.731 c 0,0 -1.1809,5.5021 2.51,7.2536"
       id="path12" />
    <path
       fill="none"
       stroke="#000"
       stroke-linecap="round"
       stroke-linejoin="round"
       stroke-width="2"
       d="m 44.9647,56.0923 h 3.1778 c 0,-5.6393 -3.1159,-5.3716 -3.1159,-5.3716 l -1.2792,-5.6851"
       id="path14" />
  </g>
</g></svg>