<svg xmlns="http://www.w3.org/2000/svg" width="24" height="24" viewBox="0 0 24 24"> <g transform="translate(4.312522284318509 0.0) scale(0.36809817644623516)">
  
  <g
     id="line"
     transform="translate(-15.279636,-3.4)">
    <line
       x1="36.334202"
       x2="36.334202"
       y1="22"
       y2="38"
       fill="none"
       stroke="#000"
       stroke-linecap="round"
       stroke-miterlimit="10"
       stroke-width="2"
       id="line2" />
    <line
       x1="31.534201"
       x2="41.134201"
       y1="26.633301"
       y2="26.633301"
       fill="none"
       stroke="#000"
       stroke-linecap="round"
       stroke-miterlimit="10"
       stroke-width="2"
       id="line4" />
    <path
       fill="none"
       stroke="#000"
       stroke-miterlimit="10"
       stroke-width="2"
       d="m 31.6322,67.6 h 9.0635 c 1.3055,0 2.4611,-0.8442 2.858,-2.0879 L 55.9064,26.807 c 0.271,-0.8492 0.1504,-1.7749 -0.3292,-2.5262 L 43.772,5.7859 C 43.2209,4.9225 42.2675,4.4 41.2432,4.4 H 31.0847 c -1.0242,0 -1.9777,0.5225 -2.5288,1.3859 L 16.7507,24.2807 c -0.4796,0.7514 -0.6002,1.6771 -0.3292,2.5262 L 28.7742,65.512 c 0.3969,1.2438 1.5525,2.088 2.858,2.088 z"
       id="path6" />
  </g>
</g></svg>