<svg xmlns="http://www.w3.org/2000/svg" width="24" height="24" viewBox="0 0 24 24"> <g transform="translate(1.7763568394002505e-15 3.1704005023081745) scale(0.5064611571092733)">
  
  <g
     id="line"
     transform="translate(-13.014635,-18.414853)">
    <path
       fill="none"
       stroke="#000"
       stroke-miterlimit="10"
       stroke-width="2"
       d="m 14.991,38.1914 a 15.5448,15.5448 0 0 0 3.0977,5.5031 24.0994,24.0994 0 0 0 17.0425,8.5555 c 0.7829,0.0454 1.2822,0.0341 1.5772,0.0227 0.295,0.0114 0.7943,0.0227 1.5772,-0.0227 a 24.1,24.1 0 0 0 17.0426,-8.5553 15.5464,15.5464 0 0 0 3.0977,-5.5031 c 1.2253,-3.8579 2.2012,-10.4049 -2.9615,-14.9322 0,0 -8.4079,-8.51 -18.756,-0.261 -10.3481,-8.249 -18.756,0.261 -18.756,0.261 -5.1624,4.5271 -4.1868,11.0741 -2.9614,14.932 z M 47.6466,42.56 a 7.2878,7.2878 0 0 1 -2.7346,1.1914 c -3.5288,0.7148 -12.6741,1.8722 -19.675,-3.3132 a 67.4538,67.4538 0 0 0 12.7422,-4.97 44.0008,44.0008 0 0 0 10.4617,6.2747 1.3857,1.3857 0 0 0 0.2042,0.0567 C 48.3273,42.0606 47.9983,42.31 47.6466,42.56 Z M 42.7,26.527 c 1.702,-0.8283 5.5938,-2.1331 8.76,1.2481 a 8.3515,8.3515 0 0 1 0.6241,10.4163 c -0.2043,0.2949 -0.4312,0.6013 -0.6694,0.9077 a 2.9908,2.9908 0 0 0 -1.3049,-1.3957 c 0,0 -5.1978,-1.6793 -7.7398,-4.6748 A 4.6837,4.6837 0 0 1 41.3375,27.9567 2.5261,2.5261 0 0 1 41.7913,27.2305 2.7582,2.7582 0 0 1 42.7,26.527 Z m -9.8149,1.3389 0.9191,0.1248 a 6.456,6.456 0 0 0 0.84,3.5289 c -7.67,3.9713 -12.9011,4.7428 -12.9011,4.7428 a 3.027,3.027 0 0 0 -0.3063,0.08 7.0952,7.0952 0 0 1 -0.851,-3.5629 c 0.1012,-2.996 2.2117,-6.5021 12.2988,-4.9136 z"
       id="path2" />
    <path
       fill="none"
       stroke="#000"
       stroke-miterlimit="10"
       stroke-width="2"
       d="m 36.7084,22.9982 a 7.8063,7.8063 0 0 0 -2.2353,2.61 5.9668,5.9668 0 0 0 -0.6694,2.3828"
       id="path4" />
    <path
       fill="none"
       stroke="#000"
       stroke-miterlimit="10"
       stroke-width="2"
       d="m 21.4359,36.3418 a 7.0946,7.0946 0 0 1 -0.851,-3.5628 c 0.1021,-2.9955 2.2126,-6.5016 12.3,-4.9131 l 0.9191,0.1248 a 6.4555,6.4555 0 0 0 0.84,3.5288"
       id="path6" />
    <path
       fill="none"
       stroke="#000"
       stroke-miterlimit="10"
       stroke-width="2"
       d="m 37.9792,35.4682 a 44.0009,44.0009 0 0 0 10.4616,6.2746 1.3786,1.3786 0 0 0 0.2043,0.0568 c 2.2579,0.6921 3.4493,-1.112 2.7685,-2.7"
       id="path8" />
    <path
       fill="none"
       stroke="#000"
       stroke-miterlimit="10"
       stroke-width="2"
       d="m 25.237,40.438 c 7.0009,5.1854 16.1462,4.028 19.675,3.3132 A 7.2894,7.2894 0 0 0 47.6466,42.56 c 0.3517,-0.25 0.6808,-0.4993 0.9985,-0.76"
       id="path10" />
    <path
       fill="none"
       stroke="#000"
       stroke-miterlimit="10"
       stroke-width="2"
       d="m 42.37,33.0286 c 2.5416,2.9955 7.7384,4.6748 7.7384,4.6748 1.18,0.4666 1.0779,0.8737 1.3048,1.3957 0.2383,-0.3064 0.4652,-0.6127 0.6695,-0.9078 A 8.3515,8.3515 0 0 0 51.4586,27.7751 c -3.1657,-3.3812 -7.0576,-2.0764 -8.76,-1.2481 a 2.7575,2.7575 0 0 0 -0.9077,0.7035 2.5285,2.5285 0 0 0 -0.4539,0.7262 4.6839,4.6839 0 0 0 1.033,5.0719"
       id="path12" />
    <path
       fill="none"
       stroke="#000"
       stroke-linecap="round"
       stroke-linejoin="round"
       stroke-width="2"
       d="m 42.4443,26.6673 c -2.5416,1.736 -6.2468,4.3494 -8.448,5.4954 -7.67,3.9713 -12.2541,4.1 -12.2541,4.1 a 3.053,3.053 0 0 0 -0.3063,0.0794 c -4.221,1.0666 -1.8722,6.0818 3.3132,4.221 0.17,-0.0454 0.329,-0.0908 0.4879,-0.1248 a 67.4538,67.4538 0 0 0 12.7422,-4.97 14.6381,14.6381 0 0 0 3.699,-2.519 l -0.068,-0.9985"
       id="path14" />
  </g>
</g></svg>