<svg xmlns="http://www.w3.org/2000/svg" width="24" height="24" viewBox="0 0 24 24"> <g transform="scale(0.41379310344827586)">
  
  <g
     id="line"
     transform="translate(-7,-7)">
    <circle
       cx="36"
       cy="36"
       r="28"
       fill="none"
       stroke="#000"
       stroke-linecap="round"
       stroke-linejoin="round"
       stroke-miterlimit="10"
       stroke-width="2"
       id="circle2" />
    <path
       fill="none"
       stroke="#000"
       stroke-linecap="round"
       stroke-linejoin="round"
       stroke-miterlimit="10"
       stroke-width="2"
       d="M 49.4394,11.4301 C 48.9012,12.3361 47.7952,13.5726 47,14 c -1.2452,0.6692 -1.904,0.2672 -3,1 -1.2689,0.8484 -1.2095,1.9379 -2,2 -0.8018,0.063 -0.6879,-1.993 -1,-3 -0.4521,-1.4585 -0.2307,-1.5267 -1,-2 -1.0834,-0.6665 -3.2121,-1.0502 -5,0 -0.7094,0.4167 -0.7506,0.682 -3,4 -1.7096,2.5218 -2.188,3.1093 -2,4 0.1989,0.9419 0.0427,1.7474 1,2 1.1873,0.3132 1.3661,-0.2722 2,-1 1.3282,-1.525 2.3581,-3.7828 3,-4 0.5713,-0.1933 2.0656,1.3495 2,3 -0.0463,1.1654 -0.852,1.922 -2,3 -0.7417,0.6965 -2.875,1.5 -6,2 -1.719,0.275 -1.4083,0.8524 -2.0625,1.5938 -0.8427,0.955 -0.4615,2.1691 -1.2812,3.3125 -1.0252,1.43 -3.4727,1.7917 -3.6564,2.7188 C 22.8432,33.4154 24.9604,33.9845 26,34 c 0.8505,0.0127 1.0644,-0.7721 3,-2 0.7408,-0.47 1.75,-1.2812 2.6875,-1.25 0.5041,0.0168 1.8289,0.2852 2.3438,0.7188 0.5938,0.5 -0.1562,1.8438 -0.4062,3.1562 -0.25,1.3124 -2.8976,1.8646 -3.8542,2.0208 -1.5737,0.257 -4.1439,-0.5228 -5.6042,0.9375 -1,1 -1.1155,1.766 -1.1667,3.4167 -0.0129,0.4172 0.937,3.0323 2,4 1.1442,1.0416 2.2939,-0.8356 4,0 1.7456,0.8549 2.493,2.7288 3,4 0.5078,1.2731 0.1756,1.1679 1,5 0.4146,1.9271 0.3191,1.1194 1,4 0.5632,2.3826 0.5889,2.7678 1,3 1.1732,0.6628 3.8997,-0.8162 5,-3 0.6895,-1.3683 0.2111,-1.9625 1,-5 0.3928,-1.5123 0.5892,-2.2685 1,-3 1.7332,-3.0861 4.8828,-3.1256 5,-5 0.0802,-1.2824 -1.3573,-1.8515 -1,-3 0.3421,-1.0997 1.8099,-1.0603 2,-2 0.2579,-1.2752 -2.2492,-2.316 -2,-3 0.2822,-0.7746 4.0696,-1.0098 6,1 0.6397,0.666 0.4982,0.9775 2,4 1.3839,2.7851 1.7637,3.0431 2,3 0.4287,-0.0782 0.3223,-1.1355 1,-3 0.3243,-0.8922 1.0927,-3.0062 2,-3 0.6247,0.0043 0.7386,1.0097 2,2 0.7103,0.5576 1.7908,0.8806 2.3474,1.0378 C 63.7747,40.0932 64,38.0729 64,36 64,25.3685 58.0748,16.1209 49.3465,11.3794"
       id="path4" />
  </g>
</g></svg>