<svg xmlns="http://www.w3.org/2000/svg" width="24" height="24" viewBox="0 0 24 24"> <g transform="translate(0.22430981006249517 0.0) scale(0.4419283824857742)">
  
  <g
     id="line"
     transform="translate(-9.2877971,-6.0489)">
    <path
       fill="none"
       stroke="#000"
       stroke-linecap="round"
       stroke-linejoin="round"
       stroke-width="2"
       d="m 10.2884,34.9887 v -7.7148 c 0,0 0.3826,-20.225 23.3254,-20.225 17.9306,0 21.0732,11.6225 21.5906,16.7008 a 2.14,2.14 0 0 0 1.2628,1.7566 c 1.1892,0.5224 3.4722,1.5061 4.4474,2.9856"
       id="path2" />
    <path
       fill="none"
       stroke="#000"
       stroke-linecap="round"
       stroke-linejoin="round"
       stroke-width="2"
       d="m 41.2792,10.6242 a 3.2361,3.2361 0 0 1 0.03,0.6192 1.64,1.64 0 0 1 -0.6356,1.1838 c -1.09,0.8681 -2.5035,1.4612 -3.1,2.7568 -0.6021,1.2174 -0.5677,3.1808 -2.1123,3.6421 -1.8331,0.3038 -2.68,-1.4424 -3.0156,-3.0674 -0.4465,-2.16 -3.4168,-1.92 -4.501,-3.4988 A 5.4826,5.4826 0 0 1 27.8775,7.5232"
       id="path4" />
    <path
       fill="none"
       stroke="#000"
       stroke-linecap="round"
       stroke-linejoin="round"
       stroke-width="2"
       d="m 19.1615,14.9782 a 2.8385,2.8385 0 0 1 0.7939,1.2076 c 0.2871,0.7931 0.2751,1.7432 0.865,2.3461 a 4.3425,4.3425 0 0 0 1.2045,0.7106 5.1737,5.1737 0 0 1 2.7217,3.769 c 0.4835,2.7822 -2.2428,2.208 -3.4466,3.8024 -0.8071,1.1837 -0.3777,3.1892 -1.7771,3.97 a 4.122,4.122 0 0 1 -2.7068,0.076 c -0.6758,-0.3069 -1.04,-1.04 -1.6059,-1.52 -1.0877,-0.922 -2.7021,-0.7735 -4.0425,-1.26 a 1.2269,1.2269 0 0 1 -0.8633,-0.7694"
       id="path6" />
    <path
       fill="none"
       stroke="#000"
       stroke-linecap="round"
       stroke-linejoin="round"
       stroke-width="2"
       d="m 51.8925,14.6983 c -1.2812,0.7267 -1.8385,2.4606 -2.2976,4.1693 a 8.51,8.51 0 0 1 -2.3477,3.9377 c -4.7234,4.5087 0.489,6.2689 5.352,4.9541"
       id="path8" />
    <path
       fill="none"
       stroke="#000"
       stroke-linecap="round"
       stroke-linejoin="round"
       stroke-width="2"
       d="m 39.53,24.7564 c 0.017,0.1912 0.0333,0.3836 0.0611,0.5722 a 2.4055,2.4055 0 0 0 0.3333,0.87 c 1.8952,3.1736 -0.076,3.6362 -2.7874,4.3207 a 2.4982,2.4982 0 0 0 -1.1806,0.6853 c -0.9283,0.9572 -1.6846,2.1508 -3.1407,2.3806 -2.1614,0.8111 -5.4346,-0.3425 -5.1039,-3.0114 0.13,-0.773 0.6482,-1.4308 0.832,-2.1931 0.2488,-1.0318 -0.1283,-2.185 0.1881,-3.169 a 1.9309,1.9309 0 0 1 0.3446,-0.6049 c 1.9845,-2.4709 6.2012,-3.1215 9.0686,-1.8523 a 2.4072,2.4072 0 0 1 1.3849,2.0019 z"
       id="path10" />
    <path
       fill="none"
       stroke="#000"
       stroke-linecap="round"
       stroke-linejoin="round"
       stroke-width="2"
       d="m 22.7661,39.2424 q -0.07,-0.0821 -0.1483,-0.1575 A 8.4287,8.4287 0 0 0 20.8926,38.0175 C 19.9039,37.4432 19.086,36.6166 18.1349,35.9819 a 3.9614,3.9614 0 0 0 -3.2328,-0.75 4.3711,4.3711 0 0 0 -1.2835,0.7023 15.4907,15.4907 0 0 0 -2.9007,2.7485 1.9838,1.9838 0 0 0 -0.43,1.2537 v 0 a 2.0181,2.0181 0 0 0 2.018,2.0179 h 9.353 a 18.9116,18.9116 0 0 0 12.0256,-4.316 l 2.61,-2.1506 a 18.9112,18.9112 0 0 1 12.0256,-4.316 h 13.26"
       id="path12" />
    <path
       fill="none"
       stroke="#000"
       stroke-linecap="round"
       stroke-linejoin="round"
       stroke-width="2"
       d="m 42.1156,32.089 c 0,0 0.3991,10.8651 -5.8172,15.5623"
       id="path14" />
    <path
       fill="none"
       stroke="#000"
       stroke-linecap="round"
       stroke-linejoin="round"
       stroke-width="2"
       d="M 31.2564,48.9821 Q 30.7383,48.974 30.1717,48.995 C 24.5281,49.208 19.3939,42.5324 18.9601,41.9542"
       id="path16" />
    <path
       fill="none"
       stroke="#000"
       stroke-linecap="round"
       stroke-linejoin="round"
       stroke-width="2"
       d="m 36.2984,47.6513 a 10.8261,10.8261 0 0 1 8.5647,4.7387 c 0,0 2.2657,3.1164 5.7239,2.1147 3.4582,-1.0017 3.013,2.0587 3.013,2.0587 0,0 -0.7791,4.4825 -5.7319,2.09 0,0 -5.4314,-3.01 -7.739,-5.3173 a 15.6652,15.6652 0 0 0 -3.9437,-3.2863"
       id="path18" />
    <rect
       x="31.2799"
       y="46.3353"
       rx="1.6793"
       width="5.0137"
       height="5.0137"
       transform="matrix(-0.99579,-0.09168,0.09168,-0.99579,62.954,100.576)"
       fill="none"
       stroke="#000"
       stroke-linecap="round"
       stroke-linejoin="round"
       stroke-width="2"
       id="rect20" />
  </g>
</g></svg>