<svg xmlns="http://www.w3.org/2000/svg" width="24" height="24" viewBox="0 0 24 24"> <g transform="translate(1.218924933309376 0.0) scale(0.4146567333342548)">
  
  <g
     id="line"
     transform="translate(-10,-4.1210298)">
    <path
       d="m 30,22.0343 a 2,2 0 1 0 2,-2 2.0007,2.0007 0 0 0 -2,2"
       id="path2" />
    <path
       d="m 38,22.0343 a 2,2 0 1 0 2,-2 2.0007,2.0007 0 0 0 -2,2"
       id="path4" />
    <path
       fill="none"
       stroke="#000"
       stroke-linecap="round"
       stroke-linejoin="round"
       stroke-width="2"
       d="m 32.7621,34.1416 a 4.9971,4.9971 0 0 0 6.4747,9e-4"
       id="path6" />
    <path
       fill="none"
       stroke="#000"
       stroke-miterlimit="10"
       stroke-width="2"
       d="m 21,24.0448 a 15,15 0 1 0 15,-15 15.0055,15.0055 0 0 0 -15,15"
       id="path8" />
    <path
       fill="none"
       stroke="#000"
       stroke-miterlimit="10"
       stroke-width="2"
       d="m 30.5611,10.066 a 7.5009,7.5009 0 1 0 -8.9647,9.7881"
       id="path10" />
    <path
       fill="none"
       stroke="#000"
       stroke-miterlimit="10"
       stroke-width="2"
       d="m 11,52.142 c 0,4.7856 3.3619,8.6656 7.5,8.6656 4.1381,0 7.5,-3.88 7.5,-8.6656 0,-4.7813 -3.3619,-8.6656 -7.5,-8.6656 -4.1381,0 -7.5,3.8843 -7.5,8.6656"
       id="path12" />
    <path
       fill="none"
       stroke="#000"
       stroke-miterlimit="10"
       stroke-width="2"
       d="m 46,52.142 c 0,4.7856 3.3619,8.6656 7.5,8.6656 4.1381,0 7.5,-3.88 7.5,-8.6656 0,-4.7813 -3.3619,-8.6656 -7.5,-8.6656 -4.1381,0 -7.5,3.8843 -7.5,8.6656"
       id="path14" />
    <path
       fill="none"
       stroke="#000"
       stroke-linecap="round"
       stroke-miterlimit="10"
       stroke-width="2"
       d="m 14.4143,53.4248 a 4.0015,4.0015 0 0 0 4,4"
       id="path16" />
    <path
       fill="none"
       stroke="#000"
       stroke-linecap="round"
       stroke-miterlimit="10"
       stroke-width="2"
       d="m 54,57.4248 a 4.0015,4.0015 0 0 0 4,-4"
       id="path18" />
    <path
       fill="none"
       stroke="#000"
       stroke-miterlimit="10"
       stroke-width="2"
       d="m 28.5,32.931 c 0,3.3763 3.3619,6.1138 7.5,6.1138 4.1381,0 7.5,-2.7375 7.5,-6.1138 0,-3.3732 -3.3618,-6.1137 -7.5,-6.1137 -4.1382,0 -7.5,2.7405 -7.5,6.1137"
       id="path20" />
    <path
       fill="none"
       stroke="#000"
       stroke-miterlimit="10"
       stroke-width="2"
       d="M 50.4041,19.8542 A 7.5008,7.5008 0 1 0 41.44,10.0649"
       id="path22" />
    <line
       x1="36"
       x2="36"
       y1="32.3325"
       y2="35.3325"
       fill="none"
       stroke="#000"
       stroke-linecap="round"
       stroke-linejoin="round"
       stroke-width="2"
       id="line24" />
    <path
       fill="none"
       stroke="#000"
       stroke-linecap="round"
       stroke-linejoin="round"
       stroke-width="2"
       d="m 36,31.9131 c 0,0 -3.2374,-0.881 -3.2374,-3.1277 0,-1.5446 1.53,-1.8607 2.4865,-1.9074 l 1.2638,-0.0068 c 0.9127,0.0072 2.7249,0.2332 2.7249,1.9142 0,2.2467 -3.2373,3.1277 -3.2373,3.1277"
       id="path26" />
    <path
       fill="none"
       stroke="#000"
       stroke-linecap="round"
       stroke-linejoin="round"
       stroke-width="2"
       d="m 20.2823,43.7251 c 1.1282,-5.2329 5.8479,-8.3926 5.8479,-8.3926"
       id="path28" />
    <path
       fill="none"
       stroke="#000"
       stroke-linecap="round"
       stroke-linejoin="round"
       stroke-width="2"
       d="m 46,35.3325 c 0,0 4.6611,3.1205 5.8264,8.2952"
       id="path30" />
    <path
       fill="none"
       stroke="#000"
       stroke-linecap="round"
       stroke-linejoin="round"
       stroke-width="2"
       d="M 24.9516,41.9494 28.5,48.01 a 3.22,3.22 0 0 0 4.2578,1.3235 v 0 a 3.22,3.22 0 0 0 1.4263,-4.3471 l -1.0163,-1.9848"
       id="path32" />
    <path
       fill="none"
       stroke="#000"
       stroke-linecap="round"
       stroke-linejoin="round"
       stroke-width="2"
       d="m 47.4348,41.9494 -3.791,6.0606 a 3.22,3.22 0 0 1 -4.2578,1.3235 v 0 A 3.22,3.22 0 0 1 37.96,44.9867 l 1.0163,-1.9848"
       id="path34" />
    <path
       fill="none"
       stroke="#000"
       stroke-linecap="round"
       stroke-linejoin="round"
       stroke-width="2"
       d="m 24.2861,58.0782 c 0,0 9.4536,6.5808 23.4278,0"
       id="path36" />
  </g>
</g></svg>