<svg xmlns="http://www.w3.org/2000/svg" width="24" height="24" viewBox="0 0 24 24"> <g transform="translate(0.9630901548958768 0.0) scale(0.40877443870756014)">
  
  <g
     id="line"
     transform="translate(-9,-5.2879146)">
    <path
       fill="none"
       stroke="#000"
       stroke-linecap="round"
       stroke-linejoin="round"
       stroke-miterlimit="10"
       stroke-width="2"
       d="m 55.1059,33.6894 c 0,0 -9.2758,-9.2767 -13.2519,6.6249 10.6021,7.9513 13.2519,-6.6249 13.2519,-6.6249 z"
       id="path2" />
    <line
       x1="62"
       x2="52.639999"
       y1="54.1278"
       y2="48.927799"
       fill="none"
       stroke="#000"
       stroke-linecap="round"
       stroke-linejoin="round"
       stroke-miterlimit="10"
       stroke-width="2"
       id="line4" />
    <line
       x1="57.84"
       x2="48.48"
       y1="59.327801"
       y2="54.1278"
       fill="none"
       stroke="#000"
       stroke-linecap="round"
       stroke-linejoin="round"
       stroke-miterlimit="10"
       stroke-width="2"
       id="line6" />
    <path
       fill="none"
       stroke="#000"
       stroke-linecap="round"
       stroke-linejoin="round"
       stroke-miterlimit="10"
       stroke-width="2"
       d="M 13.2916,47.9995 C 12.1744,45.234 11.56,42.2125 11.56,39.0478 l 3.64,-32.76 10.9799,10.7149 c 2.858,-1.2066 6.0013,-1.8749 9.3001,-1.8749 h 1.04 c 3.2988,0 6.4421,0.6683 9.3001,1.8749 L 56.8,6.2878 l 3.64,32.76 c 0,3.1647 -0.6144,6.1862 -1.7316,8.9517"
       id="path8" />
    <path
       fill="none"
       stroke="#000"
       stroke-linecap="round"
       stroke-linejoin="round"
       stroke-miterlimit="10"
       stroke-width="2"
       d="m 16.8941,33.6894 c 0,0 9.2758,-9.2767 13.2519,6.6249 -10.6021,7.9513 -13.2519,-6.6249 -13.2519,-6.6249 z"
       id="path10" />
    <line
       x1="10"
       x2="19.360001"
       y1="54.1278"
       y2="48.927799"
       fill="none"
       stroke="#000"
       stroke-linecap="round"
       stroke-linejoin="round"
       stroke-miterlimit="10"
       stroke-width="2"
       id="line12" />
    <line
       x1="14.16"
       x2="23.52"
       y1="59.327801"
       y2="54.1278"
       fill="none"
       stroke="#000"
       stroke-linecap="round"
       stroke-linejoin="round"
       stroke-miterlimit="10"
       stroke-width="2"
       id="line14" />
    <circle
       cx="23.52"
       cy="36.4478"
       r="2.0799999"
       id="circle16" />
    <circle
       cx="48.48"
       cy="36.4478"
       r="2.0799999"
       id="circle18" />
    <line
       x1="31.637501"
       x2="39.9575"
       y1="45.465698"
       y2="45.465698"
       fill="none"
       stroke="#000"
       stroke-linecap="round"
       stroke-linejoin="round"
       stroke-miterlimit="10"
       stroke-width="2"
       id="line20" />
    <path
       fill="none"
       stroke="#000"
       stroke-linecap="round"
       stroke-linejoin="round"
       stroke-miterlimit="10"
       stroke-width="2"
       d="m 25.3975,48.5857 c 0,0 7.8,4.16 10.4,-3.12 2.6,7.28 10.805,3.0701 10.805,3.0701 0,0 -2.6936,4.3812 -3.4875,5.2337 -4.0173,4.3139 -9.4006,4.0538 -13.6716,0.1167 -0.9352,-0.8621 -4.0459,-5.3005 -4.0459,-5.3005 z"
       id="path22" />
    <path
       fill="none"
       stroke="#000"
       stroke-linecap="round"
       stroke-linejoin="round"
       stroke-miterlimit="10"
       stroke-width="2"
       d="M 22.851,59.3894 C 26.5154,61.6782 30.8436,63 35.4811,63 h 1.038 c 4.6375,0 8.9677,-1.3218 12.6301,-3.6106"
       id="path24" />
  </g>
</g></svg>