<svg xmlns="http://www.w3.org/2000/svg" width="24" height="24" viewBox="0 0 24 24"> <g transform="scale(0.41379310344827586)">
  
  <g
     id="line"
     transform="translate(-7,-7.0001)">
    <path
       fill="#000"
       d="m 54.896,34 v 1 c 0.2833,0 0.5533,-0.1202 0.743,-0.3307 0.1896,-0.2105 0.281,-0.4916 0.2516,-0.7734 z m -5.4225,-11.3965 -0.796,-0.6052 c -0.3021,0.3972 -0.265,0.9564 0.0869,1.3103 z M 47.8341,34 46.8479,34.1654 C 46.9287,34.6471 47.3456,35 47.8341,35 Z m -16.4108,-9.0964 -0.848,0.53 c 0.2587,0.414 0.7784,0.5806 1.2296,0.3943 z m -3.7436,-5.9897 -0.4385,-0.8988 c -0.2547,0.1243 -0.4447,0.3508 -0.5228,0.6232 -0.0781,0.2725 -0.0369,0.5652 0.1133,0.8056 z m 13.2072,-1.2795 -0.2566,0.9665 c 0.4818,0.1279 0.9842,-0.1186 1.178,-0.5779 z m 0.2798,-0.5626 -0.866,-0.5 v 0 z m 6.8301,-1.8301 -0.5,0.866 v 0 z m 1.8301,6.8301 0.8661,0.5 v 0 z m -32.1736,18.8859 0.9655,-0.2603 c -0.1303,-0.4835 -0.5983,-0.7961 -1.0949,-0.7313 z m 0,-9.9154 -0.1294,0.9916 c 0.4966,0.0648 0.9646,-0.2478 1.0949,-0.7313 z m 6.6362,-10.0055 0.848,-0.53 c -0.1503,-0.2405 -0.3957,-0.4059 -0.6751,-0.4549 -0.2794,-0.049 -0.5665,0.0229 -0.7897,0.1978 z m 3.7434,5.9894 0.6642,0.7476 c 0.3647,-0.324 0.4424,-0.8639 0.1838,-1.2776 z m 0,17.9476 0.848,0.53 c 0.2586,-0.4137 0.1809,-0.9536 -0.1838,-1.2776 z m -3.7434,5.9894 -0.6168,0.787 c 0.2232,0.175 0.5103,0.2469 0.7897,0.1979 0.2794,-0.049 0.5248,-0.2144 0.6751,-0.4549 z m 25.5563,-1.0361 0.866,-0.5 v 0 z m -0.3612,-0.5419 -0.7097,-0.7045 c -0.352,0.3547 -0.3882,0.9148 -0.0847,1.3118 z m -1.4689,7.372 0.5,0.8661 v 0 z m -6.8302,-1.8301 -0.866,0.5 v 0 z m -0.2813,-0.5661 0.9217,-0.3879 c -0.1936,-0.46 -0.6968,-0.7069 -1.1791,-0.5784 z m -13.2245,-1.2749 -0.848,-0.53 c -0.1502,0.2404 -0.1914,0.5331 -0.1133,0.8056 0.0781,0.2724 0.2681,0.4989 0.5228,0.6232 z m 3.7436,-5.9897 0.3816,-0.9244 C 31.3537,45.9858 30.834,46.1524 30.5753,46.5664 Z M 47.8341,38 v -1 c -0.4885,0 -0.9054,0.3528 -0.9862,0.8345 z m 7.0619,0 0.9946,0.104 C 55.92,37.8223 55.8286,37.5412 55.639,37.3307 55.4493,37.1202 55.1793,37 54.896,37 Z m 0.9946,-4.1041 C 55.4027,29.2321 53.3122,25.046 50.1826,21.8985 l -1.4182,1.4101 c 2.819,2.8351 4.6983,6.6014 5.137,10.7954 z M 47.8341,35 H 54.896 V 33 H 47.8341 Z M 36,25 c 5.4495,0 9.9752,3.9637 10.8479,9.1654 l 1.9724,-0.3309 C 47.7887,27.6854 42.4425,23 36,23 Z m -4.1951,0.8279 C 33.0964,25.2947 34.5125,25 36,25 v -2 c -1.7539,0 -3.4291,0.3479 -4.9584,0.9793 z m -4.9732,-6.384 3.7436,5.9897 1.696,-1.06 -3.7436,-5.9897 z M 36,16 c -3.1393,0 -6.1124,0.724 -8.7588,2.0151 l 0.8769,1.7975 C 30.4974,18.6518 33.1711,18 36,18 Z m 5.1434,0.6678 C 39.5011,16.232 37.7769,16 36,16 v 2 c 1.6022,0 3.154,0.2091 4.6303,0.6009 z m 0.6649,1.3552 c 0.0643,-0.1526 0.139,-0.3033 0.2244,-0.4512 l -1.732,-1 c -0.127,0.22 -0.2387,0.445 -0.3352,0.674 z m 0.2244,-0.4512 c 1.1046,-1.9132 3.5509,-2.5687 5.4641,-1.4641 l 1,-1.7321 c -2.8697,-1.6568 -6.5393,-0.6736 -8.1961,2.1962 z m 5.4641,-1.4641 c 1.9132,1.1046 2.5687,3.5509 1.4641,5.4641 l 1.7321,1 c 1.6568,-2.8698 0.6736,-6.5393 -2.1962,-8.1962 z m 1.4641,5.4641 c -0.0868,0.1503 -0.1816,0.2925 -0.2834,0.4265 l 1.592,1.2105 c 0.1528,-0.2009 0.2944,-0.4134 0.4235,-0.637 z M 17,42 c 0.2648,0 0.5261,-0.0172 0.7827,-0.0507 L 17.5239,39.9661 C 17.3529,39.9884 17.178,40 17,40 Z m -6,-6 c 0,3.3137 2.6863,6 6,6 v -2 c -2.2091,0 -4,-1.7909 -4,-4 z m 6,-6 c -3.3137,0 -6,2.6863 -6,6 h 2 c 0,-2.2091 1.7909,-4 4,-4 z m 0.7827,0.0507 C 17.5261,30.0172 17.2648,30 17,30 v 2 c 0.178,0 0.3529,0.0116 0.5239,0.0339 z m 0.8361,1.2519 c 1.0256,-3.8046 3.2686,-7.1126 6.2876,-9.4787 l -1.2337,-1.5742 c -3.3511,2.6264 -5.8442,6.3005 -6.9849,10.5323 z m 4.8227,-9.7358 3.7434,5.9894 1.696,-1.06 -3.7434,-5.9894 z m 3.9272,4.7119 C 24.6901,28.6585 23,32.1325 23,36 h 2 c 0,-3.2722 1.4275,-6.2098 3.6971,-8.2262 z M 23,36 c 0,3.8675 1.6901,7.3415 4.3687,9.7213 l 1.3284,-1.4951 C 26.4275,42.2098 25,39.2722 25,36 Z m 4.1849,8.4438 -3.7434,5.9894 1.696,1.06 3.7434,-5.9894 z m -2.2785,5.7323 C 21.8874,47.81 19.6444,44.502 18.6188,40.6974 l -1.931,0.5206 c 1.1407,4.2318 3.6338,7.9059 6.9849,10.5322 z m 25.8054,-0.749 C 50.5801,49.199 50.4354,48.9824 50.2791,48.7779 l -1.5889,1.2146 c 0.1042,0.1363 0.201,0.2812 0.2896,0.4346 z m -2.1961,8.1962 c 2.8697,-1.6569 3.853,-5.3264 2.1961,-8.1962 l -1.732,1 c 1.1045,1.9132 0.449,4.3595 -1.4641,5.4641 z m -8.1962,-2.1962 c 1.6569,2.8698 5.3264,3.853 8.1962,2.1962 l -1,-1.7321 c -1.9132,1.1046 -4.3596,0.4491 -5.4641,-1.4641 z m -0.337,-0.6782 c 0.097,0.2304 0.2092,0.4569 0.337,0.6782 l 1.7321,-1 c -0.0859,-0.1488 -0.161,-0.3004 -0.2257,-0.454 z m 0.6643,-1.3542 C 39.1655,53.7894 37.6081,54 36,54 v 2 c 1.7835,0 3.5139,-0.2337 5.1617,-0.6727 z M 36,54 c -2.8289,0 -5.5026,-0.6519 -7.8819,-1.8126 l -0.8769,1.7975 C 29.8876,55.276 32.8607,56 36,56 Z m -7.4723,-0.3839 3.7436,-5.9897 -1.696,-1.06 -3.7436,5.9897 z m 2.5139,-5.5954 C 32.5709,48.6521 34.2461,49 36,49 v -2 c -1.4875,0 -2.9036,-0.2947 -4.1951,-0.828 z M 36,49 c 6.4425,0 11.7887,-4.6854 12.8203,-10.8346 L 46.8479,37.8345 C 45.9752,43.0363 41.4495,47 36,47 Z M 47.8341,39 h 7.0619 v -2 h -7.0619 z m 6.0673,-1.1041 c -0.4382,4.1889 -2.3133,7.9509 -5.1265,10.7848 l 1.4194,1.409 c 3.1232,-3.1461 5.209,-7.3276 5.6963,-11.9857 z"
       id="path2" />
    <path
       fill="none"
       stroke="#000"
       stroke-linejoin="round"
       stroke-width="2"
       d="m 36,64.0001 c 15.464,0 28,-12.536 28,-28 0,-15.464 -12.536,-28 -28,-28 -15.464,0 -28,12.536 -28,28 0,15.464 12.536,28 28,28 z"
       id="path4" />
  </g>
</g></svg>