<svg xmlns="http://www.w3.org/2000/svg" width="24" height="24" viewBox="0 0 24 24"> <g transform="translate(5.26315742197596 0.0) scale(0.4210526611265025)">
  
  <g
     id="line"
     transform="translate(-20,-7.5000017)">
    <path
       id="_1F4B2-2"
       fill="none"
       stroke="#000"
       stroke-miterlimit="10"
       stroke-width="2"
       d="M 35.5,33 C 33.74,33 28,32.6035 28,27.5 28,22.3965 33.74,22 35.5,22 44,22 44,25.9956 44,27.5 a 3.5,3.5 0 0 0 7,0 C 51,20.82 46.7694,16.45 39.5,15.3083 V 12.5 a 4,4 0 0 0 -8,0 v 2.9037 C 25.0883,16.7194 21,21.2447 21,27.5 21,34.9766 26.8271,40 35.5,40 38.44,40 44,41.1494 44,45.5 44,49.8506 38.44,51 35.5,51 33.74,51 28,50.6035 28,45.5 a 3.5,3.5 0 0 0 -7,0 c 0,6.2553 4.0883,10.7806 10.5,12.0963 V 59.5 a 4,4 0 0 0 8,0 V 57.601 C 45.6858,56.3727 51,52.2729 51,45.5 51,37.2939 43.2021,33 35.5,33 Z" />
  </g>
</g></svg>