<svg xmlns="http://www.w3.org/2000/svg" width="24" height="24" viewBox="0 0 24 24"> <g transform="translate(0.0 3.0604961038961047) scale(0.4722550177095632)">
  
  <g
     id="line"
     transform="translate(-10.5905,-18.3832)">
    <path
       fill="none"
       stroke="#000"
       stroke-linecap="round"
       stroke-linejoin="round"
       stroke-width="2"
       d="m 52.3244,33.688 c 0,3.8911 -7.3087,7.0454 -16.3244,7.0454 -9.0157,0 -16.3244,-3.1543 -16.3244,-7.0454"
       id="path2" />
    <path
       fill="none"
       stroke="#000"
       stroke-linecap="round"
       stroke-linejoin="round"
       stroke-width="2"
       d="m 53.3015,42.5287 c -1.5841,2.241 -5.687,4.008 -10.885,4.6863"
       id="path4" />
    <path
       fill="none"
       stroke="#000"
       stroke-linecap="round"
       stroke-linejoin="round"
       stroke-width="2"
       d="m 11.5905,31.688 c 0,-6.7958 10.9285,-12.3048 24.41,-12.3048 13.4815,0 24.41,5.509 24.41,12.3048 v 1.0556 c 0,5.6918 -2.0093,12.49 -5.0625,16.3445 -3.0887,3.8978 -9.5935,6.1539 -19.348,6.1539 -9.7545,0 -15.8538,-1.8262 -19.347,-6.1539 -3.0884,-3.8263 -5.0625,-9.6808 -5.0625,-16.3445 z"
       id="path6" />
    <g
       id="line-2-4">
      <path
         fill="none"
         stroke="#000"
         stroke-linecap="round"
         stroke-linejoin="round"
         stroke-width="2"
         d="m 30.1896,39.9811 c -0.5807,-1.2291 -0.8903,-2.6807 -0.8903,-4.2194 0,-3.2033 1.3258,-6.5034 3.4936,-8.1002 0.842,-0.629 1.8194,-0.9968 2.8936,-0.9968 1.5291,0 2.8646,0.7452 3.9098,1.9258 1.5581,1.7613 2.4871,4.5001 2.4871,7.1711 0,1.5775 -0.329,3.0678 -0.9484,4.3259"
         id="path8" />
    </g>
    <g
       id="line-2-5">
      <path
         fill="none"
         stroke="#000"
         stroke-linecap="round"
         stroke-linejoin="round"
         stroke-width="2"
         d="m 22.2547,37.3126 c -0.3774,-1.0452 -0.7556,-2.6638 -0.7556,-3.8832 0,-4.4614 2.5646,-9.097 6.3969,-9.097 2.071,0 3.7743,1.3645 4.8969,3.3291"
         id="path11" />
    </g>
    <g
       id="line-2-6">
      <path
         fill="none"
         stroke="#000"
         stroke-linecap="round"
         stroke-linejoin="round"
         stroke-width="2"
         d="m 47.859,38.4898 c 2.7968,-3.1646 4.144,-8.2831 1.5891,-10.8477 -2.4097,-2.4097 -6.7066,-1.5097 -9.8518,0.9484"
         id="path14" />
    </g>
  </g>
</g></svg>