<svg xmlns="http://www.w3.org/2000/svg" width="24" height="24" viewBox="0 0 24 24"> <g transform="translate(1.9291451085170461 0.0) scale(0.44697150545478437)">
  
  <g
     id="line"
     transform="translate(-15.706101,-6.276)">
    <path
       fill="#000"
       stroke="none"
       d="m 54.7275,58.8516 c -0.0507,0 -0.1015,-0.003 -0.1523,-0.0108 -0.5459,-0.083 -0.9209,-0.5928 -0.8379,-1.1387 0.002,-0.0126 0.1836,-1.246 0.082,-2.8984 -0.0341,-0.5517 0.3858,-1.0254 0.9366,-1.0596 0.5732,-0.0234 1.0263,0.3858 1.0595,0.9366 0.1153,1.8798 -0.0927,3.2656 -0.1015,3.3232 -0.0762,0.4951 -0.502,0.8477 -0.9864,0.8477 z"
       id="path2" />
    <path
       fill="#000"
       stroke="none"
       d="m 49.6152,59.9707 c -0.1191,0 -0.2392,-0.0215 -0.3574,-0.0664 -0.5156,-0.1973 -0.7734,-0.7744 -0.5762,-1.291 l 3.3643,-8.7988 c 0.1973,-0.5166 0.7754,-0.7735 1.291,-0.5762 0.5156,0.1972 0.7735,0.7744 0.5762,1.291 l -3.3643,8.7988 c -0.1513,0.3985 -0.5312,0.6426 -0.9336,0.6426 z"
       id="path4" />
    <path
       fill="#000"
       stroke="none"
       d="m 40.0358,24.996 c 1.1,0 2,0.9 2,2 0,1.11 -0.9,2 -2,2 -1.1,0 -2,-0.89 -2,-2 0,-1.1 0.9,-2 2,-2 z"
       id="path6" />
    <path
       fill="#000"
       stroke="none"
       d="m 39.9258,34.806 c 0.25,0.49 0.05,1.09 -0.44,1.34 -1.15,0.57 -2.3,0.86 -3.45,0.86 -1.15,0 -2.3,-0.29 -3.45,-0.86 -0.49,-0.25 -0.69,-0.85 -0.44,-1.34 0.24,-0.5 0.84,-0.7 1.34,-0.45 1.71,0.86 3.38,0.86 5.1,0 0.5,-0.25 1.1,-0.05 1.34,0.45 z"
       id="path8" />
    <path
       fill="#000"
       stroke="none"
       d="m 32.0358,24.996 c 1.1,0 2,0.9 2,2 0,1.11 -0.9,2 -2,2 -1.1,0 -2,-0.89 -2,-2 0,-1.1 0.9,-2 2,-2 z"
       id="path10" />
    <path
       fill="none"
       stroke="#000"
       stroke-linecap="round"
       stroke-linejoin="round"
       stroke-miterlimit="10"
       stroke-width="2"
       d="m 25.0258,24.986 c 0.2,-1.03 0.49,-2.01 0.86,-2.93 v -0.01"
       id="path12" />
    <path
       fill="none"
       stroke="#000"
       stroke-linecap="round"
       stroke-linejoin="round"
       stroke-miterlimit="10"
       stroke-width="2"
       d="m 46.2858,22.286 c 0.23,0.62 0.43,1.27 0.59,1.94 0.07,0.25 0.13,0.51 0.18,0.77 0.21,1.08 0.32,2.21 0.32,3.36 0,7.83 -5.08,14.18 -11.34,14.18 -6.26,0 -11.34,-6.35 -11.34,-14.18 0,-1.16 0.11,-2.28 0.33,-3.36"
       id="path14" />
    <path
       fill="none"
       stroke="#000"
       stroke-linecap="round"
       stroke-linejoin="round"
       stroke-miterlimit="10"
       stroke-width="2"
       d="m 35.7358,16.566 c -3.01,-0.12 -6.05,0.45 -8.41,1.89 -0.02,0.01 -0.05,0.03 -0.07,0.04 -0.99,0.62 -1.86,1.38 -2.54,2.31 0.33,0.43 0.62,1.07 1.17,1.25 0.03,0.01 0.06,0.02 0.1,0.03 2.96,0.62 6.31,0.94 9.51,0.9"
       id="path16" />
    <path
       fill="none"
       stroke="#000"
       stroke-linecap="round"
       stroke-linejoin="round"
       stroke-miterlimit="10"
       stroke-width="2"
       d="m 27.1958,18.406 c 1.76,-4.76 6.05,-9.05 8.54,-9.71 -14.44,1.61 -13.32,12.16 -10.71,16.29 v 0.01"
       id="path18" />
    <path
       fill="none"
       stroke="#000"
       stroke-linecap="round"
       stroke-linejoin="round"
       stroke-miterlimit="10"
       stroke-width="2"
       d="m 35.7358,16.566 c 3.01,-0.12 6.05,0.45 8.41,1.89 0.02,0.01 0.05,0.03 0.07,0.04 0.99,0.62 1.86,1.38 2.54,2.31 -0.35,0.46 -0.65,1.15 -1.27,1.28 -2.96,0.62 -6.3,0.94 -9.51,0.9"
       id="path20" />
    <path
       fill="none"
       stroke="#000"
       stroke-linecap="round"
       stroke-linejoin="round"
       stroke-miterlimit="10"
       stroke-width="2"
       d="m 44.2758,18.406 c -1.76,-4.76 -6.05,-9.05 -8.54,-9.71 13.63,1.52 13.4,11 11.15,15.53"
       id="path22" />
    <line
       x1="35.735802"
       x2="35.735802"
       y1="8.6960001"
       y2="7.276"
       fill="none"
       stroke="#000"
       stroke-linecap="round"
       stroke-linejoin="round"
       stroke-miterlimit="10"
       stroke-width="2"
       id="line24" />
    <path
       fill="#000"
       stroke="none"
       d="m 38.5986,58.9707 c -0.5527,0 -1,-0.4473 -1,-1 v -5.7676 c 0,-0.2988 0.1328,-0.581 0.3633,-0.7715 1.9912,-1.6425 3.7324,-2.1494 5.1768,-1.5078 1.542,0.6856 2.2334,2.4971 2.5429,3.9073 l 2.3536,-1.8282 c 0.4355,-0.3418 1.0664,-0.2597 1.4023,0.1758 0.3398,0.4356 0.2607,1.0635 -0.1758,1.4024 l -3.7187,2.8906 c -0.294,0.2304 -0.6953,0.2734 -1.0323,0.1181 -0.3388,-0.1562 -0.5625,-0.4892 -0.58,-0.8623 -0.0498,-1.0879 -0.5088,-3.4902 -1.6055,-3.9765 -0.6113,-0.2686 -1.5684,0.0605 -2.7266,0.9355 v 5.2842 c 0,0.5527 -0.4472,1 -1,1 z"
       id="path26" />
    <path
       fill="none"
       stroke="#000"
       stroke-linecap="round"
       stroke-linejoin="round"
       stroke-miterlimit="10"
       stroke-width="2"
       d="m 46.4358,45.026 c -0.7,-0.11 -0.89,-0.17 -1.71,-0.17 -3.15,2.09 -5.86,3.55 -8.88,3.59 h -0.12 c -3.02,-0.04 -5.72,-1.5 -8.88,-3.59 -4.72,0 -7.28,2.01 -8.64,4.46 -2.1,3.76 -1.36,8.54 -1.36,8.54"
       id="path28" />
    <path
       fill="none"
       stroke="#000"
       stroke-linecap="round"
       stroke-linejoin="round"
       stroke-miterlimit="10"
       stroke-width="2"
       d="m 32.7358,57.966 v -5.76 c -5.97,-4.93 -6.33,3.48 -6.33,3.48 l -8.19,-6.37"
       id="path30" />
    <line
       x1="32.735802"
       x2="26.8458"
       y1="52.206001"
       y2="44.855999"
       fill="none"
       stroke="#000"
       stroke-linecap="round"
       stroke-linejoin="round"
       stroke-miterlimit="10"
       stroke-width="2"
       id="line32" />
    <path
       fill="#000"
       stroke="none"
       d="m 38.5977,53.2031 c -0.2256,0 -0.4522,-0.0761 -0.6397,-0.2314 -0.4238,-0.3545 -0.4814,-0.9844 -0.1279,-1.4092 l 6.1269,-7.3506 c 0.3545,-0.4238 0.9834,-0.4814 1.4092,-0.1279 0.4238,0.3545 0.4815,0.9844 0.1279,1.4092 l -6.1269,7.3506 c -0.1983,0.2373 -0.4824,0.3593 -0.7695,0.3593 z"
       id="path34" />
    <path
       fill="#000"
       stroke="none"
       d="m 54.7588,51.502 c -0.7109,0 -1.4336,-0.127 -2.1367,-0.3965 -1.4971,-0.5723 -2.6807,-1.6934 -3.335,-3.1563 -0.6543,-1.4638 -0.6992,-3.0937 -0.126,-4.5908 0.5723,-1.4971 1.6934,-2.6807 3.1563,-3.335 1.4629,-0.6513 3.0947,-0.6982 4.5908,-0.125 1.4971,0.5723 2.6816,1.6934 3.335,3.1563 0.6543,1.4639 0.6992,3.0937 0.1259,4.5908 -0.9121,2.3867 -3.1943,3.8565 -5.6103,3.8565 z M 54.7627,41.5 c -0.5547,0 -1.1074,0.1172 -1.6299,0.3496 -0.9746,0.4365 -1.7226,1.2256 -2.1045,2.2236 -0.3808,0.9981 -0.3515,2.084 0.085,3.0596 0.4355,0.9756 1.2256,1.7236 2.2236,2.1055 0.9981,0.3799 2.084,0.3496 3.0606,-0.084 0.9746,-0.4365 1.7226,-1.2256 2.1045,-2.2236 0.3808,-0.9981 0.3515,-2.085 -0.084,-3.0596 C 57.9814,42.8955 57.1924,42.1475 56.1934,41.7656 55.7295,41.5889 55.2461,41.5 54.7627,41.5 Z"
       id="path36" />
  </g>
</g></svg>