<svg xmlns="http://www.w3.org/2000/svg" width="24" height="24" viewBox="0 0 24 24"> <g transform="translate(0.0 3.732886527594779) scale(0.4137217863720664)">
  
  <g
     id="line"
     transform="translate(-8.2654,-16.1103)">
    <line
       x1="57.838299"
       x2="54.305698"
       y1="30.2283"
       y2="30.2283"
       fill="none"
       stroke="#000"
       stroke-linecap="round"
       stroke-linejoin="round"
       stroke-miterlimit="10"
       stroke-width="2"
       id="line2" />
    <polyline
       fill="none"
       stroke="#000"
       stroke-linecap="round"
       stroke-linejoin="round"
       stroke-miterlimit="10"
       stroke-width="2"
       points="63.8098,35.4331 65.2754,35.4331 65.2754,26.5952 63.8137,26.5952"
       id="polyline4" />
    <line
       x1="30.221701"
       x2="30.288099"
       y1="37.492199"
       y2="44.177101"
       fill="none"
       stroke="#000"
       stroke-linecap="round"
       stroke-linejoin="round"
       stroke-miterlimit="10"
       stroke-width="2"
       id="line6" />
    <line
       x1="36.561401"
       x2="36.494999"
       y1="44.177101"
       y2="37.492199"
       fill="none"
       stroke="#000"
       stroke-linecap="round"
       stroke-linejoin="round"
       stroke-miterlimit="10"
       stroke-width="2"
       id="line8" />
    <line
       x1="42.4021"
       x2="42.335701"
       y1="44.177101"
       y2="37.492199"
       fill="none"
       stroke="#000"
       stroke-linecap="round"
       stroke-linejoin="round"
       stroke-miterlimit="10"
       stroke-width="2"
       id="line10" />
    <line
       x1="41.714699"
       x2="43.0895"
       y1="22.650801"
       y2="22.650801"
       fill="none"
       stroke="#000"
       stroke-linecap="round"
       stroke-linejoin="round"
       stroke-miterlimit="10"
       stroke-width="2"
       id="line12" />
    <line
       x1="35.874001"
       x2="37.248798"
       y1="22.650801"
       y2="22.650801"
       fill="none"
       stroke="#000"
       stroke-linecap="round"
       stroke-linejoin="round"
       stroke-miterlimit="10"
       stroke-width="2"
       id="line14" />
    <line
       x1="29.6007"
       x2="30.975401"
       y1="22.650801"
       y2="22.650801"
       fill="none"
       stroke="#000"
       stroke-linecap="round"
       stroke-linejoin="round"
       stroke-miterlimit="10"
       stroke-width="2"
       id="line16" />
    <path
       fill="none"
       stroke="#000"
       stroke-linecap="round"
       stroke-linejoin="round"
       stroke-miterlimit="10"
       stroke-width="2"
       d="m 26.1079,37.6426 c 0,0 -2.0417,2.6643 -2.0417,4.7346 0,2.563 1.3796,4.0715 3.2173,4.6482 1.9612,0.6154 18.1289,0.202 19.3513,-0.154 1.3861,-0.4037 3.3121,-1.1107 3.4554,-5.9911 C 50.2335,36 48.3276,34.6302 47.5192,34.1314 46.266,33.3583 28.0699,33.9745 28.0699,33.9745 c 0,0 -5.189,0.362 -7.6574,1.0359 -9.1295,2.4924 -8.0053,11.5071 -8.0053,11.5071 H 9.2654 V 17.1103 h 3.0788 c 0,0 -1.6465,9.7107 8.4778,12.178 2.1637,0.5273 6.989,0.7823 6.989,0.7823 0,0 19.023,-0.0951 20.3492,0.1535 1.3263,0.2486 2.7594,0.8684 4.2257,2.7225 2.2131,2.7984 2.3729,7.8267 1.1911,12.2513 -1.0834,4.0563 -4.7447,5.0552 -6.551,5.53 -1.8491,0.4861 -18.989,0.5285 -20.9337,0 -1.2837,-0.3489 -3.3067,-0.5402 -5.2377,-3.8217 -2.2431,-3.8119 -0.4919,-8.0208 0.5584,-9.0312"
       id="path18" />
    <path
       fill="none"
       stroke="#000"
       stroke-linecap="round"
       stroke-linejoin="round"
       stroke-miterlimit="10"
       stroke-width="2"
       d="m 59.8332,27.8924 c -1.2323,0.5044 -2.1005,1.7157 -2.1005,3.1296 0,1.4065 0.859,2.6123 2.081,3.1215"
       id="path20" />
    <line
       x1="30.288099"
       x2="30.288099"
       y1="26.2565"
       y2="26.759001"
       fill="none"
       stroke="#000"
       stroke-linecap="round"
       stroke-linejoin="round"
       stroke-miterlimit="10"
       stroke-width="2"
       id="line22" />
    <line
       x1="36.561401"
       x2="36.561401"
       y1="26.759001"
       y2="26.2565"
       fill="none"
       stroke="#000"
       stroke-linecap="round"
       stroke-linejoin="round"
       stroke-miterlimit="10"
       stroke-width="2"
       id="line24" />
    <line
       x1="42.4021"
       x2="42.4021"
       y1="26.759001"
       y2="26.2565"
       fill="none"
       stroke="#000"
       stroke-linecap="round"
       stroke-linejoin="round"
       stroke-miterlimit="10"
       stroke-width="2"
       id="line26" />
    <line
       x1="30.288099"
       x2="30.288099"
       y1="54.528801"
       y2="55.074902"
       fill="none"
       stroke="#000"
       stroke-linecap="round"
       stroke-linejoin="round"
       stroke-miterlimit="10"
       stroke-width="2"
       id="line28" />
    <line
       x1="36.561401"
       x2="36.561401"
       y1="55.074902"
       y2="54.528801"
       fill="none"
       stroke="#000"
       stroke-linecap="round"
       stroke-linejoin="round"
       stroke-miterlimit="10"
       stroke-width="2"
       id="line30" />
    <line
       x1="42.4021"
       x2="42.4021"
       y1="55.074902"
       y2="54.528801"
       fill="none"
       stroke="#000"
       stroke-linecap="round"
       stroke-linejoin="round"
       stroke-miterlimit="10"
       stroke-width="2"
       id="line32" />
  </g>
</g></svg>