<svg xmlns="http://www.w3.org/2000/svg" width="24" height="24" viewBox="0 0 24 24"> <g transform="translate(4.8983693629635106 0.0) scale(0.3916822935661728)">
  
  <g
     id="line"
     transform="translate(-17.8689,-5.362448)">
    <path
       id="_26B1-2"
       fill="none"
       stroke="#000"
       stroke-linecap="round"
       stroke-linejoin="round"
       stroke-width="2"
       d="m 44.7967,15.1753 3.3621,-2.9411 A 2.1208,2.1208 0 0 0 47.6139,8.7021 27.5414,27.5414 0 0 0 36.2764,6.3634 27.5411,27.5411 0 0 0 24.9389,8.7021 2.1208,2.1208 0 0 0 24.394,12.2342 l 3.6591,3.2009 c -4.8465,3.0433 -9.1842,8.3556 -9.1842,14.4156 0,10.7391 8.5614,35.7859 8.5614,35.7859 H 44.57 c 0,0 8.5611,-25.0466 8.5611,-35.7859 A 17.0965,17.0965 0 0 0 44.7967,15.1753 Z" />
  </g>
</g></svg>