<svg xmlns="http://www.w3.org/2000/svg" width="24" height="24" viewBox="0 0 24 24"> <g transform="translate(0.0 2.438890545454546) scale(0.36363636363636365)">
  
  <g
     id="line"
     transform="translate(-3.5,-6.0833)">
    <polygon
       fill="none"
       stroke="#000"
       stroke-linecap="round"
       stroke-linejoin="round"
       stroke-miterlimit="10"
       stroke-width="2"
       points="55.8358,21.7542 55.9525,19.1777 56.5,7.0833 16.5,7.0833 18.3184,47.2519 17.645,32.3764 55.355,32.3764 54.6817,47.2519 "
       id="polygon2" />
    <path
       fill="none"
       stroke="#000"
       stroke-linecap="round"
       stroke-linejoin="round"
       stroke-miterlimit="10"
       stroke-width="2"
       d="m 54.5,51.262 c 0,0 -11.2908,1.7703 -17.5,1.7703 -6.2092,0 -18.5,-1.7703 -18.5,-1.7703 -7.3129,-1.1586 -14,-2.0756 -14,-0.04 0,3.5608 14.3269,6.4474 32,6.4474 17.6731,0 32,-2.8866 32,-6.4474 0,-2.0356 -6.6871,-1.1186 -14,0.04 z"
       id="path4" />
  </g>
</g></svg>