<svg xmlns="http://www.w3.org/2000/svg" width="24" height="24" viewBox="0 0 24 24"> <g transform="translate(0.0 7.8620760285254) scale(0.41379239714746)">
  
  <g
     id="line"
     transform="translate(-6,-27.1661)">
    <path
       fill="none"
       stroke="#000"
       stroke-linecap="round"
       stroke-linejoin="round"
       stroke-width="2"
       d="m 16,37.1661 c 1,3 2.2386,5 5,5 2.7495,0 3.9892,-1.9827 4.987,-4.9611 0.0043,-0.013 0.0087,-0.0259 0.013,-0.0389 l 0.0172,-0.0514 c 1.797,-5.3715 4.0281,-8.9486 8.9828,-8.9486 4.9706,0 7.2,3.6 9,9 l 0.0382,0.1138 c 1.1198,2.906 2.2354,4.8862 4.9618,4.8862 2.7614,0 4,-2 5,-5 v 0 l 0.0209,-0.0625 0.023,-0.0684 c 1.7925,-5.3272 4.0259,-8.8691 8.9562,-8.8691 v 0.0765 4.8539 0.0696 c -2.6345,0.3308 -4.2753,1.8259 -5,4 l -0.0814,0.242 c -1.7862,5.2653 -4.0227,8.758 -8.9186,8.758 -4.9463,0 -7.1782,-3.5649 -8.9736,-8.921 l -0.1149,-0.34 C 38.966,34.0515 37.6805,32.1661 35,32.1661 c -2.7614,0 -4,2 -5,5 l -0.06,0.1788 c -1.7897,5.3005 -4.0245,8.8212 -8.94,8.8212 -4.9706,0 -7.2,-3.6 -9,-9 L 11.9698,37.0773 C 11.2303,34.9514 9.5985,33.4925 7,33.1661 v -0.0889 -4.8568 -0.0543 c 4.9706,0 7.2,3.6 9,9"
       id="path2" />
  </g>
</g></svg>