<svg xmlns="http://www.w3.org/2000/svg" width="24" height="24" viewBox="0 0 24 24"> <g transform="translate(0.630931915260815 0.0) scale(0.45476306900949987)">
  
  <g
     id="line"
     transform="translate(-10.992019,-8.1832668)">
    <path
       fill="none"
       stroke="#000"
       stroke-linecap="round"
       stroke-linejoin="round"
       stroke-width="2"
       d="m 48.578,39.5384 a 2.9,2.9 0 0 1 -2.5859,1.42"
       id="path2" />
    <path
       fill="none"
       stroke="#000"
       stroke-linecap="round"
       stroke-linejoin="round"
       stroke-width="2"
       d="M 25.9921,40.9583 A 3.5531,3.5531 0 0 1 22.68,39.0208"
       id="path4" />
    <path
       d="m 41.8651,31.9583 a 2,2 0 1 1 -2,-2 2,2 0 0 1 2,2"
       id="path6" />
    <path
       d="m 33.8651,31.9583 a 2,2 0 1 1 -2,-2 2,2 0 0 1 2,2"
       id="path8" />
    <path
       fill="none"
       stroke="#000"
       stroke-linejoin="round"
       stroke-width="2"
       d="m 24.9286,32.9583 c 0,9 4.9365,14 11,14 5.9365,0 11.0635,-5 11.0635,-14 a 12.1371,12.1371 0 0 0 -1,-5.0005 c -3,-2.9995 -7,-8 -7,-8 -4,3 -7,6 -13,7.0005 0,0 -1.0635,0.9995 -1.0635,6 z"
       id="path10" />
    <path
       fill="none"
       stroke="#000"
       stroke-linecap="round"
       stroke-linejoin="round"
       stroke-width="2"
       d="m 38.9921,39.4583 c -1,2 -5,2 -6,0"
       id="path12" />
    <path
       fill="none"
       stroke="#000"
       stroke-linecap="round"
       stroke-linejoin="round"
       stroke-width="2"
       d="m 48.7743,39.4593 c 0.9844,-3.8408 1.7237,-8.0274 2.2178,-10.501 0.667,-3.3345 -5,-12 -5,-12 a 3.4914,3.4914 0 0 0 -2,-1 c -3,0 -4,-2 -6,-3 a 52.19,52.19 0 0 0 -7.5547,-0.9932 1.3266,1.3266 0 0 1 -1.4033,-1.3242 c 0,0 -0.042,-1.4785 2.0791,-1.4453 a 49.99,49.99 0 0 1 9.8789,0.7627 c 0.98,0.1963 6.0244,1.0508 8,2 a 11.0667,11.0667 0 0 1 2,2 c 0,0 7,11 7,15 v 13.9678"
       id="path14" />
    <path
       fill="none"
       stroke="#000"
       stroke-linecap="round"
       stroke-linejoin="round"
       stroke-width="2"
       d="m 39.9335,14.41 a 0.8313,0.8313 0 0 1 -0.9414,0.5483 c -6,0 -8,2 -11,2 h -2 c 0,0 -5.6426,9.4106 -5,12.75 0.3125,1.625 0.8125,5.4375 1.7344,9.2188"
       id="path16" />
    <path
       fill="none"
       stroke="#000"
       stroke-linecap="round"
       stroke-linejoin="round"
       stroke-width="2"
       d="m 13.9921,41.9583 v -13 c 0,-4 7,-15 7,-15 a 11.464,11.464 0 0 1 4,-2 13.3688,13.3688 0 0 1 4.7363,-0.187"
       id="path18" />
    <polyline
       fill="none"
       stroke="#000"
       stroke-linecap="round"
       stroke-linejoin="round"
       stroke-width="2"
       points="22.492 39.926 11.992 42.958 15.992 59.958"
       id="polyline20" />
    <polyline
       fill="none"
       stroke="#000"
       stroke-linecap="round"
       stroke-linejoin="round"
       stroke-width="2"
       points="48.578 39.538 59.992 43.958 55.992 59.958"
       id="polyline22" />
  </g>
</g></svg>