<svg xmlns="http://www.w3.org/2000/svg" width="24" height="24" viewBox="0 0 24 24"> <g transform="translate(0.0 0.8363531740312453) scale(0.41680083167048615)">
  
  <g
     id="line"
     transform="translate(-7.2189891,-12.085919)">
    <path
       fill="none"
       stroke="#000"
       stroke-linecap="round"
       stroke-linejoin="round"
       stroke-width="2"
       d="m 8.28,43.3818 9.731,-29.5131 a 1.1007,1.1007 0 0 1 2.0964,0.018 l 5.9675,19.2065 20.2165,-0.0016 5.7173,-19.2323 a 1.1006,1.1006 0 0 1 2.0947,-0.0216 l 9.6344,28.8251 a 1.2305,1.2305 0 0 1 -0.4247,1.3714 L 36.0582,64.6542 8.7247,44.7621 A 1.2307,1.2307 0 0 1 8.28,43.3818 Z"
       id="path2" />
    <line
       x1="11.6729"
       x2="26.625401"
       y1="33.091599"
       y2="33.091599"
       fill="none"
       stroke="#000"
       stroke-linecap="round"
       stroke-miterlimit="10"
       stroke-width="2"
       id="line4" />
    <line
       x1="45.586201"
       x2="60.5387"
       y1="33.091599"
       y2="33.091599"
       fill="none"
       stroke="#000"
       stroke-linecap="round"
       stroke-miterlimit="10"
       stroke-width="2"
       id="line6" />
    <polyline
       fill="none"
       stroke="#000"
       stroke-linecap="round"
       stroke-linejoin="round"
       stroke-width="2"
       points="60.337 33.079 36.245 64.617 11.79 33.079"
       id="polyline8" />
    <path
       fill="none"
       stroke="#000"
       stroke-linecap="round"
       stroke-linejoin="round"
       stroke-width="2"
       d="M 46.7818,33.5822 C 46.5226,34.576 36.2447,64.6169 36.2447,64.6169 36.3241,64.3127 26.3099,33.8913 26.3099,33.8913"
       id="path10" />
  </g>
</g></svg>