<svg xmlns="http://www.w3.org/2000/svg" width="24" height="24" viewBox="0 0 24 24"> <g transform="translate(0.0 2.011435322906399) scale(0.410888061097822)">
  
  <g
     id="line"
     transform="translate(-10.503186,-11.999021)">
    <path
       fill="none"
       stroke="#000"
       stroke-linecap="round"
       stroke-linejoin="round"
       stroke-width="2"
       d="M 55.2766,23.4489 Q 55.2307,23.3781 55.1842,23.3078 A 23.0031,23.0031 0 0 0 14.2153,43.3865 c 0.0343,0.1023 0.1046,0.2972 0.14,0.3993"
       id="path2" />
    <path
       fill="none"
       stroke="#000"
       stroke-linecap="round"
       stroke-linejoin="round"
       stroke-width="2"
       d="M 25.0368,56.22 A 23.5311,23.5311 0 0 0 46.2359,56.5955 23.3425,23.3425 0 0 0 58.7218,39.5728"
       id="path4" />
    <path
       fill="none"
       stroke="#000"
       stroke-linecap="round"
       stroke-linejoin="round"
       stroke-width="2"
       d="m 51.58,34.554 a 11.5549,11.5549 0 0 1 1.2192,4.408 C 42.9625,47.2342 30.1775,50.5842 28.1236,51.08 a 11.4345,11.4345 0 0 1 -2.6837,-3.535 l 0.0985,-0.0489 c 0,0 14.8516,-3.3718 25.9023,-12.7948 z"
       id="path6" />
    <path
       fill="none"
       stroke="#000"
       stroke-linecap="round"
       stroke-linejoin="round"
       stroke-width="2"
       d="m 52.799,38.962 c 0.2974,4.6205 -2.4688,9.3006 -9.0418,12.5673 C 37.1215,54.8271 31.6358,54.17 28.1237,51.08 30.1775,50.584 42.9625,47.2341 52.799,38.962 Z"
       id="path8" />
    <path
       fill="none"
       stroke="#000"
       stroke-linejoin="round"
       stroke-width="2"
       d="m 67.6926,32.9089 a 4.2419,4.2419 0 0 1 -5.3735,2.6717 c -3.9838,-1.3386 -6.68,-6.6869 -6.7069,-6.74 0.213,-0.0912 5.4464,-2.637 9.41,-1.3052 a 4.241,4.241 0 0 1 2.6706,5.3737 z"
       id="path10" />
    <path
       fill="none"
       stroke="#000"
       stroke-linejoin="round"
       stroke-width="2"
       d="m 14.395,59.3977 a 4.2421,4.2421 0 0 1 -2.6718,-5.3736 c 1.3387,-3.9837 6.6869,-6.68 6.74,-6.7068 0.0912,0.213 2.6369,5.4464 1.3052,9.41 a 4.2411,4.2411 0 0 1 -5.3737,2.6707 z"
       id="path12" />
    <polyline
       fill="none"
       stroke="#000"
       stroke-linecap="round"
       stroke-linejoin="round"
       stroke-width="2"
       points="22.478 33.13 30.163 33.793 25.928 40.072"
       id="polyline14" />
    <polyline
       fill="none"
       stroke="#000"
       stroke-linecap="round"
       stroke-linejoin="round"
       stroke-width="2"
       points="41.878 23.488 37.766 30.014 45.328 30.43"
       id="polyline16" />
  </g>
</g></svg>