<svg xmlns="http://www.w3.org/2000/svg" width="24" height="24" viewBox="0 0 24 24"> <g transform="scale(0.48)">
  
  <g
     id="line"
     transform="translate(-11,-11)">
    <path
       fill="none"
       stroke="#000"
       stroke-miterlimit="10"
       stroke-width="2"
       d="M 59.0349,60 H 12.9651 C 12.4343,60 12,59.5657 12,59.0349 V 12.9651 C 12,12.4343 12.4343,12 12.9651,12 H 59.0349 C 59.5657,12 60,12.4343 60,12.9651 V 59.0349 C 60,59.5657 59.5657,60 59.0349,60 Z"
       id="path2" />
    <polyline
       fill="none"
       stroke="#000"
       stroke-linecap="round"
       stroke-linejoin="round"
       stroke-miterlimit="10"
       stroke-width="2"
       points="37.4857,32.4699 32.9143,32.4699 32.9143,40.4699 37.4857,40.4699"
       id="polyline4" />
    <line
       x1="32.914299"
       x2="36.342899"
       y1="36.469898"
       y2="36.469898"
       fill="none"
       stroke="#000"
       stroke-linecap="round"
       stroke-linejoin="round"
       stroke-miterlimit="10"
       stroke-width="2"
       id="line6" />
    <polyline
       fill="none"
       stroke="#000"
       stroke-linecap="round"
       stroke-linejoin="round"
       stroke-miterlimit="10"
       stroke-width="2"
       points="23,40.4699 23,32.4699 28.7143,40.4699 28.7143,32.4699"
       id="polyline8" />
    <polyline
       fill="none"
       stroke="#000"
       stroke-linecap="round"
       stroke-linejoin="round"
       stroke-miterlimit="10"
       stroke-width="2"
       points="50,32.4699 47.7143,40.4699 45.4286,32.4699 43.1429,40.4699 40.8571,32.4699"
       id="polyline10" />
  </g>
</g></svg>