<svg xmlns="http://www.w3.org/2000/svg" width="24" height="24" viewBox="0 0 24 24"> <g transform="translate(0.7313314789696168 0.0) scale(0.46584575198849654)">
  
  <g
     id="line"
     transform="translate(-13.620517,-9.5808)">
    <path
       fill="none"
       stroke="#000"
       stroke-linejoin="round"
       stroke-width="2"
       d="m 21.9365,29.5808 c 0,9 4.9365,14 11,14 5.9365,0 11.0635,-5 11.0635,-14 0.0245,-1.7187 -0.3164,-3.4229 -1,-5 -3,-3 -7,-8 -7,-8 -4,3 -7,6 -13,7.0005 0,0 -1.0635,0.9987 -1.0635,5.9995 z"
       id="path2" />
    <path
       fill="#000"
       d="m 38.9529,28.0468 c 0,1.1046 -0.8954,2 -2,2 -1.1046,0 -2,-0.8954 -2,-2 0,-1.1046 0.8954,-2 2,-2 1.1044,4e-4 1.9996,0.8956 2,2 z"
       id="path4" />
    <path
       fill="#000"
       d="m 30.9529,28.0468 c 0,1.1046 -0.8954,2 -2,2 -1.1046,0 -2,-0.8954 -2,-2 0,-1.1046 0.8954,-2 2,-2 1.1044,4e-4 1.9996,0.8956 2,2 z"
       id="path6" />
    <path
       fill="none"
       stroke="#000"
       stroke-linecap="round"
       stroke-linejoin="round"
       stroke-width="2"
       d="m 16.5,40 c -3.5,0 -1,-3.0808 -1,-14 0,-9.0808 7.5,-15.4192 17.5,-15.4192 10,0 13.5,7 13.5,14 0,4.4919 -1.2353,8.5721 -3.1775,10.9192"
       id="path8" />
    <path
       fill="#000"
       d="m 32.9527,38.0492 c -1.2005,-0.0116 -2.3813,-0.3055 -3.4472,-0.8579 -0.494,-0.247 -0.6943,-0.8477 -0.4473,-1.3418 0.247,-0.4941 0.8477,-0.6943 1.3418,-0.4473 1.5934,0.8593 3.5121,0.8593 5.1055,0 0.494,-0.247 1.0947,-0.0468 1.3418,0.4473 0.2471,0.4941 0.0468,1.0947 -0.4473,1.3418 -1.0659,0.5524 -2.2468,0.8463 -3.4473,0.8579 z"
       id="path10" />
    <path
       fill="none"
       stroke="#000"
       stroke-linecap="round"
       stroke-width="2"
       d="M 24,58 V 52.5 C 24,47.2533 21.9853,43 19.5,43 17.0147,43 15,47.2533 15,52.5 V 58"
       id="path12" />
    <path
       fill="none"
       stroke="#000"
       stroke-width="2"
       d="M 17.2384,44.2896 C 16.4808,43.7393 16,42.9178 16,42 c 0,-1.6569 1.567,-3 3.5,-3 1.933,0 3.5,1.3431 3.5,3 0,0.9178 -0.4808,1.7393 -1.2384,2.2896"
       id="path14" />
    <g
       id="g24">
      <path
         fill="none"
         stroke="#000"
         stroke-linecap="round"
         stroke-linejoin="round"
         stroke-width="2"
         d="M 43.5,46.1178 C 43.0034,46.0403 42.5017,46 42,46 36.6762,50.4365 31.3524,50.9365 26.0286,47.5"
         id="path16" />
      <path
         fill="#000"
         d="m 27,53 c -0.5523,0 -1,0.4477 -1,1 0,0.5523 0.4477,1 1,1 z m 15,1 v 1 c 0.5265,0 0.9628,-0.4082 0.9978,-0.9335 z M 27,55 H 42 V 53 H 27 Z m 15.9978,-0.9335 0.5,-7.5 -1.9956,-0.133 -0.5,7.5 z"
         id="path18" />
      <path
         fill="none"
         stroke="#000"
         stroke-linecap="round"
         stroke-linejoin="round"
         stroke-width="2"
         d="M 46.1996,54.1 C 45.4463,52.4287 45,50.3512 45,48.1 h 12 c 0,2.2512 -0.4463,4.3287 -1.1996,6"
         id="path20" />
      <path
         fill="none"
         stroke="#000"
         stroke-linejoin="round"
         stroke-width="2"
         d="m 41,57.1 h 20 l -2,3 H 43 Z"
         id="path22" />
    </g>
  </g>
</g></svg>