<svg xmlns="http://www.w3.org/2000/svg" width="24" height="24" viewBox="0 0 24 24"> <g transform="translate(0.4932067666157902 0.0) scale(0.41420102718748236)">
  
  <g
     id="line"
     transform="translate(-8.2193029,-4.0571198)">
    <ellipse
       cx="28.068399"
       cy="32.818001"
       rx="3"
       ry="5.4038"
       id="ellipse2" />
    <ellipse
       cx="43.931599"
       cy="32.821602"
       rx="3"
       ry="5.4038"
       id="ellipse4" />
    <path
       fill="none"
       stroke="#000"
       stroke-linecap="round"
       stroke-linejoin="round"
       stroke-miterlimit="10"
       stroke-width="2"
       d="M 58.4382,32.925 C 58.8059,34.5577 59,36.2562 59,38 59,50.7025 48.7025,61 36,61 23.2975,61 13,50.7025 13,38 c 0,-1.7438 0.1941,-3.4423 0.5618,-5.075"
       id="path6" />
    <path
       fill="none"
       stroke="#000"
       stroke-linecap="round"
       stroke-linejoin="round"
       stroke-miterlimit="10"
       stroke-width="2"
       d="m 36,23.3153 c 9.267,-0.1288 15.3345,-2.4577 15.3345,-2.4577 2.5862,2.315 4.6453,5.2066 5.9755,8.4727 0,0 10.5948,-8.3618 2.2954,-15.1052 0,0 -4.0069,-3.8593 -10.0363,1.6462 0,0 -3.8861,3.6651 -13.5691,3.706 -9.683,-0.0409 -13.5691,-3.706 -13.5691,-3.706 -6.0294,-5.5055 -10.0363,-1.6462 -10.0363,-1.6462 -8.2994,6.7434 2.2954,15.1052 2.2954,15.1052 1.3301,-3.2661 3.3893,-6.1577 5.9755,-8.4727 0,0 6.0675,2.329 15.3345,2.4577 z"
       id="path8" />
    <path
       fill="none"
       stroke="#000"
       stroke-linecap="round"
       stroke-linejoin="round"
       stroke-miterlimit="10"
       stroke-width="2"
       d="m 36,19.5773 c 6.0519,-0.0256 9.767,-1.4279 11.7566,-2.5053 0,0 -1.6341,-0.5702 -1.3904,-2.7816 0.0725,-0.6576 0.3541,-1.6277 0.7107,-2.549 0.6391,-1.651 0.1938,-2.9689 -4.1138,-5.1348 0,0 -2.0825,-1.0407 -2.8202,-1.2739 C 39.0599,4.9904 37.209,4.7124 36,6.1508 34.791,4.7124 32.9401,4.9904 31.8572,5.3327 31.1195,5.5659 29.037,6.6066 29.037,6.6066 c -4.3076,2.1659 -4.7529,3.4838 -4.1138,5.1348 0.3566,0.9213 0.6382,1.8914 0.7107,2.549 0.2437,2.2114 -1.3904,2.7816 -1.3904,2.7816 1.9895,1.0774 5.7046,2.4797 11.7565,2.5053 z"
       id="path10" />
    <path
       fill="none"
       stroke="#000"
       stroke-linecap="round"
       stroke-linejoin="round"
       stroke-width="2"
       d="m 50.595,43.64 c 0.012,1.5397 -0.2838,3.0662 -0.87,4.49 -12.49,3.03 -25.43,0.34 -27.49,-0.13 -0.5588,-1.3852 -0.8407,-2.8664 -0.83,-4.36 h 0.11 c 0,0 14.8,3.59 28.89,0.07 z"
       id="path12" />
    <path
       fill="none"
       stroke="#000"
       stroke-linecap="round"
       stroke-linejoin="round"
       stroke-width="2"
       d="m 49.7251,48.13 c -1.79,4.27 -6.35,7.23 -13.69,7.23 -7.41,0 -12.03,-3.03 -13.8,-7.36 2.06,0.47 14.9999,3.16 27.49,0.13 z"
       id="path14" />
  </g>
</g></svg>