<svg xmlns="http://www.w3.org/2000/svg" width="24" height="24" viewBox="0 0 24 24"> <g transform="translate(0.004761313556111091 0.0) scale(0.4639073957334785)">
  
  <g
     id="line"
     transform="translate(-9.6226497,-10.015538)">
    <path
       fill="none"
       stroke="#000"
       stroke-linecap="round"
       stroke-linejoin="round"
       stroke-miterlimit="10"
       stroke-width="2"
       d="M 45.6667,15.875 C 43.8957,14.104 40.5569,13.842 36.625,15.4583"
       id="path2" />
    <path
       fill="none"
       stroke="#000"
       stroke-linecap="round"
       stroke-linejoin="round"
       stroke-miterlimit="10"
       stroke-width="2"
       d="m 14.3712,40.6667 c -0.6125,2.4641 -0.3948,4.4784 0.8066,5.6797"
       id="path4" />
    <path
       fill="none"
       stroke="#000"
       stroke-linecap="round"
       stroke-linejoin="round"
       stroke-miterlimit="10"
       stroke-width="2"
       d="m 45.6662,15.8579 c 1.1431,1.1431 1.4082,2.0153 0.8338,4.3921 -0.4408,1.824 0.875,7.5 -2.7014,7.1824 C 42.0282,27.2752 41.386,33.147 40.125,34.75 38.864,36.353 38.0786,34.4214 36.5,36 c -1.2405,1.2405 -3.6268,2.9832 -5.25,4.125 -0.5293,0.3723 0.0439,0.7503 -0.125,1.375 -0.3324,1.2299 -5.9607,3.9444 -7.7968,4.7164 C 22.0241,46.7646 20.2273,45.8219 19.125,46 c -1.953,0.3156 -2.9552,1.3383 -3.9472,0.3464"
       id="path6" />
    <path
       fill="none"
       stroke="#000"
       stroke-linecap="round"
       stroke-linejoin="round"
       stroke-miterlimit="10"
       stroke-width="2"
       d="m 52.7379,53.1335 c -1.8989,1.899 -4.0249,3.4471 -6.2955,4.6442 -0.7534,0.3922 -1.5274,0.7534 -2.3118,1.0734 C 41.0035,60.1101 37.67,60.75 34.3468,60.75 27.6901,60.75 21.0334,58.2112 15.9557,53.1335 5.8004,42.9782 11.4663,32.1726 21.6217,22.0173 31.777,11.8516 42.5826,6.196 52.7379,16.3513 c 1.1972,1.1972 2.2186,2.6717 3.1371,4.0237 6.8528,10.1141 5.8314,23.8003 -3.1371,32.7585 z"
       id="path8" />
  </g>
</g></svg>