<svg xmlns="http://www.w3.org/2000/svg" width="24" height="24" viewBox="0 0 24 24"> <g transform="translate(0.686408727348093 0.0) scale(0.45451150391341977)">
  
  <g
     id="line"
     transform="translate(-15.802701,-8.2258)">
    <path
       d="m 41.9743,27.0348 c 0,1.1045 -0.8965,2 -2,2 -1.1035,0 -2,-0.8955 -2,-2 0,-1.1035 0.8965,-2 2,-2 1.1035,0 2,0.8965 2,2"
       id="path2" />
    <path
       d="m 33.9743,27.0348 c 0,1.1045 -0.8965,2 -2,2 -1.1035,0 -2,-0.8955 -2,-2 0,-1.1035 0.8965,-2 2,-2 1.1035,0 2,0.8965 2,2"
       id="path4" />
    <path
       d="m 35.9742,37.0372 c -1.1519,0 -2.3037,-0.2861 -3.4473,-0.8579 -0.4941,-0.2471 -0.6943,-0.8477 -0.4473,-1.3418 0.2466,-0.4937 0.8462,-0.6943 1.3418,-0.4473 1.7178,0.8594 3.3877,0.8594 5.1055,0 0.4946,-0.247 1.0947,-0.0464 1.3418,0.4473 0.2471,0.4941 0.0469,1.0947 -0.4473,1.3418 -1.1435,0.5718 -2.2954,0.8579 -3.4472,0.8579 z"
       id="path6" />
    <path
       fill="none"
       stroke="#000"
       stroke-linecap="round"
       stroke-miterlimit="10"
       stroke-width="2"
       d="m 24.7535,26.3437 c -0.0777,0.6699 -0.1179,1.355 -0.1179,2.0519 0,7.8277 5.0764,14.1732 11.3386,14.1732 6.2621,0 11.3386,-6.3455 11.3386,-14.1732 0,-0.3957 -0.013,-0.7876 -0.0385,-1.1751"
       id="path8" />
    <path
       fill="none"
       stroke="#000"
       stroke-linecap="round"
       stroke-linejoin="round"
       stroke-miterlimit="10"
       stroke-width="2"
       d="m 51.7457,47.1887 c -1.5129,-1.3672 -3.7235,-2.3011 -6.9399,-2.3011 -3.1918,2.1279 -5.9264,3.5984 -9,3.5921 h 0.125 c -3.0736,0.0063 -5.8081,-1.4642 -9,-3.5921 -12,0 -10,13 -10,13"
       id="path10" />
    <path
       fill="none"
       stroke="#000"
       stroke-linecap="round"
       stroke-linejoin="round"
       stroke-miterlimit="10"
       stroke-width="2"
       d="m 54.7242,38.1713 c 0.5179,-2.1527 2.3562,-3.642 4.4486,-3.8149 l -1.1314,4.637 c 0.0817,0.0154 2.7265,0.6496 2.8079,0.6692 l 1.1311,-4.7124 c 1.9373,1.0552 3.007,3.313 2.4664,5.5601 -0.4768,1.9822 -2.0758,3.3943 -3.9596,3.7416 l -3.4226,14.2269 c -0.2616,1.0876 -1.3553,1.7572 -2.443,1.4956 -1.0876,-0.2617 -1.757,-1.3555 -1.4954,-2.4431 l 3.4226,-14.2269 c -1.5196,-1.166 -2.3014,-3.1509 -1.8246,-5.1331 z"
       id="path12" />
    <path
       fill="none"
       stroke="#000"
       stroke-linecap="round"
       stroke-miterlimit="10"
       stroke-width="2"
       d="m 33.1159,18.2555 v -2.3118 c 0,-1.6568 1.3431,-3 3,-3 1.6569,0 3,1.3432 3,3 v 2.3295"
       id="path14" />
    <polyline
       fill="none"
       stroke="#000"
       stroke-linecap="round"
       stroke-linejoin="round"
       stroke-miterlimit="10"
       stroke-width="2"
       points="44.8058,44.8876 44.8058,52.1327 26.929,52.1327 26.9308,44.8876"
       id="polyline16" />
    <line
       x1="49.297199"
       x2="49.297199"
       y1="45.671902"
       y2="57.8666"
       fill="none"
       stroke="#000"
       stroke-linecap="round"
       stroke-linejoin="round"
       stroke-miterlimit="10"
       stroke-width="2"
       id="line18" />
    <line
       x1="22.2649"
       x2="22.2649"
       y1="45.756901"
       y2="57.8666"
       fill="none"
       stroke="#000"
       stroke-linecap="round"
       stroke-linejoin="round"
       stroke-miterlimit="10"
       stroke-width="2"
       id="line20" />
    <line
       x1="32.604198"
       x2="26.929001"
       y1="56.777599"
       y2="56.777599"
       fill="none"
       stroke="#000"
       stroke-linecap="round"
       stroke-linejoin="round"
       stroke-miterlimit="10"
       stroke-width="2"
       id="line22" />
    <path
       fill="none"
       stroke="#000"
       stroke-linecap="round"
       stroke-linejoin="round"
       stroke-miterlimit="10"
       stroke-width="2"
       d="m 46.9763,20.5397 c 0,0 1.2502,-11.2787 -10.045,-11.3139 H 35.1279 C 23.8327,9.261 25.083,20.5397 25.083,20.5397"
       id="path24" />
    <path
       fill="none"
       stroke="#000"
       stroke-linecap="round"
       stroke-linejoin="round"
       stroke-miterlimit="10"
       stroke-width="2"
       d="m 49.8089,22.4082 c -6.1883,-4.9827 -16.9721,-5.4838 -24.0306,-2.1379 -1.2509,0.593 -2.3848,1.3068 -3.3554,2.1379"
       id="path26" />
    <path
       fill="none"
       stroke="#000"
       stroke-linecap="round"
       stroke-linejoin="round"
       stroke-miterlimit="10"
       stroke-width="2"
       d="m 25.4782,20.4703 c 0.5452,-0.1169 10.5986,-5.3959 21.5581,0.3394 l -0.0361,0.1447 c 1.5074,5.4986 0.1748,6.2727 0.1748,6.2727 l -5.2599,-6.3244 c 0,0 -1.4782,2.8056 -5.6542,2.4931 0,0 0.6471,-2.293 0.2934,-3.5679 0,0 -6.8103,4.4728 -11.6497,6.5335 L 24.8973,26.36 24.7759,26.3637 c -0.4592,0.1263 -0.7052,-4.1554 0.8544,-5.824"
       id="path28" />
  </g>
</g></svg>