<svg xmlns="http://www.w3.org/2000/svg" width="24" height="24" viewBox="0 0 24 24"> <g transform="translate(9.802722479419376 0.0) scale(0.3863175281228295)">
  
  <g
     id="line"
     transform="translate(-30.312,-4.9999386)">
    <polygon
       fill="none"
       stroke="#000"
       stroke-linecap="round"
       stroke-linejoin="round"
       stroke-width="2"
       points="40.687,66.125 40.687,32.625 31.312,32.625 31.312,41.391 31.312,66.125 "
       id="polygon2" />
    <line
       x1="31.3125"
       x2="40.6875"
       y1="41.391399"
       y2="41.391399"
       fill="none"
       stroke="#000"
       stroke-linecap="round"
       stroke-linejoin="round"
       stroke-width="2"
       id="line4" />
    <path
       fill="none"
       stroke="#000"
       stroke-linecap="round"
       stroke-linejoin="round"
       stroke-width="2"
       d="m 36,32.625 0.1412,-14.1237 a 9.3053,9.3053 0 0 0 -0.5293,-2.8977 l -1.0051,-2.5809 a 11.319,11.319 0 0 1 -0.6275,-2.8954 l -0.1461,-2.63 A 1.4067,1.4067 0 0 1 35.25,6 h 1.5 a 1.4054,1.4054 0 0 1 1.4156,1.4976 l -0.162,2.8744 a 10.4354,10.4354 0 0 1 -0.2431,1.9243 l -0.1588,0.4266"
       id="path6" />
    <line
       x1="33.0625"
       x2="39.0625"
       y1="24.75"
       y2="24.75"
       fill="none"
       stroke="#000"
       stroke-linecap="round"
       stroke-linejoin="round"
       stroke-width="2"
       id="line8" />
  </g>
</g></svg>