<svg xmlns="http://www.w3.org/2000/svg" width="24" height="24" viewBox="0 0 24 24"> <g transform="scale(0.5)">
  
  <g
     id="line"
     transform="translate(-12,-12)">
    <circle
       cx="36"
       cy="36"
       r="23"
       fill="none"
       stroke="#000"
       stroke-miterlimit="10"
       stroke-width="2"
       id="circle2" />
    <path
       d="m 30,32.9252 c 0,1.6567 -1.3448,3 -3,3 -1.6553,0 -3,-1.3433 -3,-3 0,-1.6553 1.3447,-3 3,-3 1.6552,0 3,1.3448 3,3"
       id="path4" />
    <path
       d="m 48,32.9252 c 0,1.6567 -1.3447,3 -3,3 -1.6553,0 -3,-1.3433 -3,-3 0,-1.6553 1.3447,-3 3,-3 1.6553,0 3,1.3448 3,3"
       id="path6" />
    <line
       x1="23"
       x2="30"
       y1="24"
       y2="28"
       fill="none"
       stroke="#000"
       stroke-linecap="round"
       stroke-linejoin="round"
       stroke-miterlimit="10"
       stroke-width="2"
       id="line8" />
    <line
       x1="49"
       x2="42"
       y1="24"
       y2="28"
       fill="none"
       stroke="#000"
       stroke-linecap="round"
       stroke-linejoin="round"
       stroke-miterlimit="10"
       stroke-width="2"
       id="line10" />
    <path
       fill="none"
       stroke="#000"
       stroke-linecap="round"
       stroke-linejoin="round"
       stroke-miterlimit="10"
       stroke-width="2"
       d="m 29.5,43 c 1.2841,-0.6376 3.9847,-1.0308 6.8421,-0.9981 2.6235,0.03 4.9897,0.4146 6.1579,0.9981"
       id="path12" />
  </g>
</g></svg>