<svg xmlns="http://www.w3.org/2000/svg" width="24" height="24" viewBox="0 0 24 24"> <g transform="translate(0.0 4.339219063881993) scale(0.4129813956355231)">
  
  <g
     id="line"
     transform="translate(-6.95,-17.454117)">
    <path
       fill="none"
       stroke="#000"
       stroke-linecap="round"
       stroke-linejoin="round"
       stroke-miterlimit="10"
       stroke-width="2.434"
       d="m 8.167,34.6 c 4.981,1.66 6.255,1.889 14.07,0.1774"
       id="path2" />
    <path
       fill="none"
       stroke="#000"
       stroke-linecap="round"
       stroke-linejoin="round"
       stroke-miterlimit="10"
       stroke-width="2.434"
       d="m 63.83,34.6 c -4.981,1.66 -6.255,1.889 -14.07,0.1774"
       id="path4" />
    <path
       fill="none"
       stroke="#000"
       stroke-linecap="round"
       stroke-linejoin="round"
       stroke-miterlimit="10"
       stroke-width="2.434"
       d="m 8.167,34.6 c 4.981,1.66 6.255,1.889 14.07,0.1774"
       id="path6" />
    <path
       fill="none"
       stroke="#000"
       stroke-linecap="round"
       stroke-linejoin="round"
       stroke-miterlimit="10"
       stroke-width="2.434"
       d="m 8.167,34.6 14.91,14.25 c 2.51,2.434 5.782,4.487 12.93,4.487 7.148,0 10.42,-2.053 12.93,-4.487 L 63.847,34.6"
       id="path8" />
    <path
       fill="none"
       stroke="#000"
       stroke-linecap="round"
       stroke-linejoin="round"
       stroke-miterlimit="10"
       stroke-width="2.434"
       d="m 8.167,34.6 c 4.525,-2.941 9.886,-9.214 15.56,-14.2 1.318,-1.16 2.902,-2.548 5.805,-1.16 l 3.821,2.034 c 0.8813,0.5098 1.182,0.6844 2.643,0.6844 1.461,0 1.761,-0.1746 2.643,-0.6844 L 42.46,19.24 c 2.902,-1.388 4.487,0 5.805,1.16 5.678,4.981 11.04,11.25 15.56,14.2"
       id="path10" />
    <path
       fill="none"
       stroke="#000"
       stroke-linecap="round"
       stroke-linejoin="round"
       stroke-miterlimit="10"
       stroke-width="2.434"
       d="m 63.83,34.6 c -4.981,1.66 -6.255,1.889 -14.07,0.1774"
       id="path12" />
    <path
       fill="none"
       stroke="#000"
       stroke-linecap="round"
       stroke-linejoin="round"
       stroke-miterlimit="10"
       stroke-width="2.434"
       d="m 36,39.03 c -7.608,0 -9.715,-4.867 -13.76,-4.259 6.711,-5.057 10.4,-0.6084 13.76,-0.6084 3.36,0 7.053,-4.449 13.76,0.6084 C 45.711,34.1626 43.604,39.03 36,39.03 Z"
       id="path14" />
  </g>
</g></svg>