<svg xmlns="http://www.w3.org/2000/svg" width="24" height="24" viewBox="0 0 24 24"> <g transform="scale(0.3870967741935484)">
  
  <g
     id="line"
     fill="none"
     stroke="#000"
     stroke-linecap="round"
     stroke-linejoin="round"
     transform="translate(-5,-5)">
    <circle
       cx="36"
       cy="36"
       r="30"
       stroke-width="2"
       id="circle2" />
    <path
       stroke-width="2"
       d="M 55.66,51.44 A 24.99,24.99 0 0 0 20.6,16.31 Z"
       id="path4" />
    <path
       stroke-width="2"
       d="m 16.99,19.77 a 24.99,24.99 0 0 0 35.2,35.27 z"
       id="path6" />
    <path
       stroke-width="2"
       d="m 49.56,41.4 c 0,0 3.254,-2.857 4.074,-4.273 2.565,-4.413 -0.5542,-11.5 -6.097,-12.68"
       id="path8" />
    <path
       stroke-width="2"
       d="M 34.83,41.37 27.3,45.45"
       id="path10" />
    <path
       stroke-width="2"
       d="m 37.66,44.16 -7.596,3.776"
       id="path12" />
    <path
       stroke-width="2"
       d="m 23.46,42.96 2.978,-2.532 4.835,-2.519"
       id="path14" />
    <path
       stroke-width="2"
       d="m 35.54,49.1 c -5.007,3.176 -6.302,-0.1717 -5.482,-1.159 -1.597,0.9443 -3.626,-0.3004 -2.763,-2.489 -2.245,1.073 -4.101,-0.6009 -3.842,-2.489 -1.942,0.3434 -3.151,-1.245 -2.59,-3.133 -3.925,-2.664 -4.518,-9.921 -1.516,-13.6 m 7.81,7.928 -2.492,1.418 c -1.468,0.9872 -3.496,3.391 -3.799,4.249"
       id="path16" />
    <path
       stroke-width="2"
       d="m 39.08,47.85 c -0.6475,-0.8584 -1.597,-0.9872 -2.46,-0.515 -0.8202,0.4721 -1.424,1.373 -0.8633,2.361 0,0 0.6475,1.03 0.8202,1.373 0.04317,0.1288 0.1295,0.3004 0.2158,0.4292 0.6475,0.8584 1.856,0.9872 2.676,0.3863 0.8633,-0.6438 0.9928,-1.846 0.3885,-2.661 l -0.777,-1.373 z"
       id="path18" />
    <path
       stroke-width="2"
       d="m 39.33,45.97 c -0.4456,0.4954 -0.6563,1.17 -0.2472,1.89 0,0 0.6043,0.9872 0.777,1.373 0.08633,0.1288 0.1295,0.3004 0.259,0.4292 0.6043,0.8155 1.813,0.9872 2.676,0.3434 0.08279,-0.06065 0.159,-0.1274 0.2284,-0.1993"
       id="path20" />
    <path
       stroke-width="1.819"
       d="m 33.11,24.57 2.495,-0.774 5.474,-1.356 c 1.171,-0.3074 2.383,0.3314 2.791,1.472 0.4391,1.636 0.9789,2.889 2.102,4.868 0.4255,1.038 -0.0612,2.225 -1.093,2.666 -1.114,0.277 -1.623,-0.2243 -2.605,-0.9799 -1.282,-1.221 -1.535,-1.741 -2.222,-2.658 l -3.029,0.8602"
       id="path22" />
  </g>
</g></svg>