<svg xmlns="http://www.w3.org/2000/svg" width="24" height="24" viewBox="0 0 24 24"> <g transform="scale(0.41379310344827586)">
  
  <g
     id="line-supplement"
     transform="translate(-7,-7)">
    <path
       fill="#000"
       d="M 35,44.2857 V 7 c 7.9565,0 15.5871,3.0553 21.2132,8.4939 C 61.8393,20.9325 65,28.3087 65,36 65,43.6913 61.8393,51.0675 56.2132,56.5061 50.5871,61.9447 42.9565,65 35,65 Z"
       id="path2" />
  </g>
  <g
     id="line"
     transform="translate(-7,-7)">
    <path
       fill="none"
       stroke="#000"
       stroke-linejoin="round"
       stroke-width="2"
       d="M 36,64 C 51.464,64 64,51.464 64,36 64,20.536 51.464,8 36,8 20.536,8 8,20.536 8,36 8,51.464 20.536,64 36,64 Z"
       id="path5" />
    <path
       fill="none"
       stroke="#000"
       stroke-linecap="round"
       stroke-width="2"
       d="M 36,8 V 61"
       id="path7" />
  </g>
</g></svg>