<svg xmlns="http://www.w3.org/2000/svg" width="24" height="24" viewBox="0 0 24 24"> <g transform="translate(0.0 0.17601362370857565) scale(0.46538595941031646)">
  
  <g
     id="line"
     transform="translate(-8.1040003,-8.7329998)">
    <circle
       cx="11.9638"
       cy="20.3582"
       r="2.8598001"
       fill="none"
       stroke="#000"
       stroke-miterlimit="10"
       stroke-width="2"
       id="circle2" />
    <circle
       cx="35.795601"
       cy="12.733"
       r="3"
       fill="none"
       stroke="#000"
       stroke-miterlimit="10"
       stroke-width="2"
       id="circle4" />
    <path
       fill="none"
       stroke="#000"
       stroke-linecap="round"
       stroke-linejoin="round"
       stroke-width="2"
       d="m 35.8909,37.4227 a 90.5555,90.5555 0 0 1 -5.923,6.8645 2.9679,2.9679 0 0 1 -1.2624,0.6957 l -9.7828,2.64 a 1.6983,1.6983 0 0 1 -2.0972,-1.1439 2.2778,2.2778 0 0 1 1.5252,-2.0972 c 0,0 5.5886,-2.5513 8.5521,-4.4092 a 5.8866,5.8866 0 0 0 2.2209,-2.5418 25.0686,25.0686 0 0 0 2.1391,-6.2632 c 0.2841,-2.2769 -1.0744,-6.7349 -1.0744,-6.7349"
       id="path6" />
    <path
       fill="none"
       stroke="#000"
       stroke-linecap="round"
       stroke-linejoin="round"
       stroke-width="2"
       d="m 33.4782,40.9126 c 0,0 0.0743,1.6874 0.0494,3.5222 a 11.9068,11.9068 0 0 1 -2.0585,6.5386 l -3.3,4.8475 a 1.7776,1.7776 0 0 0 0.3813,2.4785 2.3716,2.3716 0 0 0 2.7645,-0.4767 c 0,0 3.7957,-4.72 5.6483,-7.3 a 7.8939,7.8939 0 0 0 1.2806,-2.8262 l 1.0933,-4.7194 a 20.5445,20.5445 0 0 0 0.4647,-4.2037 c 0.0674,-1.5154 0.1449,-3.4686 0.1415,-4.7769 -9e-4,-0.6015 0.4306,-6.9214 0.4306,-7.1464"
       id="path8" />
    <path
       fill="none"
       stroke="#000"
       stroke-linecap="round"
       stroke-linejoin="round"
       stroke-width="2"
       d="m 12.8218,17.404 6.9588,3.05 a 6.3671,6.3671 0 0 0 3.5271,0.1907 l 2.0972,-0.6673 a 23.3584,23.3584 0 0 1 3.7178,-0.7627 l 10.486,-0.6672 a 12.4482,12.4482 0 0 1 3.7177,0.4766 l 15.3477,5.0523"
       id="path10" />
  </g>
</g></svg>