<svg xmlns="http://www.w3.org/2000/svg" width="24" height="24" viewBox="0 0 24 24"> <g transform="translate(0.630931915260815 0.0) scale(0.45476306900949987)">
  
  <g
     id="line"
     transform="translate(-10.992019,-8.1832668)">
    <path
       d="m 41.8646,31.9583 a 2,2 0 1 1 -2,-2 2,2 0 0 1 2,2"
       id="path2" />
    <path
       d="m 33.8646,31.9583 a 2,2 0 1 1 -2,-2 2,2 0 0 1 2,2"
       id="path4" />
    <path
       fill="none"
       stroke="#000"
       stroke-linecap="round"
       stroke-linejoin="round"
       stroke-width="2"
       d="m 38.9916,39.4583 c -1,2 -5,2 -6,0"
       id="path6" />
    <path
       fill="none"
       stroke="#000"
       stroke-linecap="round"
       stroke-linejoin="round"
       stroke-width="2"
       d="m 50.4917,25.6766 a 48.8222,48.8222 0 0 0 -4.5,-8.7183 3.4914,3.4914 0 0 0 -2,-1 c -3,0 -4,-2 -6,-3 A 52.19,52.19 0 0 0 30.437,11.9651 1.3266,1.3266 0 0 1 29.0337,10.6409 c 0,0 -0.042,-1.4785 2.0791,-1.4453 a 49.99,49.99 0 0 1 9.8789,0.7627 c 0.98,0.1963 6.0244,1.0508 8,2 a 11.0667,11.0667 0 0 1 2,2 c 0,0 7,11 7,15 v 13.9678"
       id="path8" />
    <path
       fill="none"
       stroke="#000"
       stroke-linecap="round"
       stroke-linejoin="round"
       stroke-width="2"
       d="m 39.933,14.41 a 0.8313,0.8313 0 0 1 -0.9414,0.5483 c -6,0 -8,2 -11,2 h -2 a 60.7884,60.7884 0 0 0 -4.2353,8.6106"
       id="path10" />
    <path
       fill="none"
       stroke="#000"
       stroke-linecap="round"
       stroke-linejoin="round"
       stroke-width="2"
       d="m 13.9916,41.9583 v -13 c 0,-4 7,-15 7,-15 a 11.464,11.464 0 0 1 4,-2 13.3688,13.3688 0 0 1 4.7363,-0.187"
       id="path12" />
    <polyline
       fill="none"
       stroke="#000"
       stroke-linecap="round"
       stroke-linejoin="round"
       stroke-width="2"
       points="19.159 40.888 11.992 42.958 15.992 59.958"
       id="polyline14" />
    <polyline
       fill="none"
       stroke="#000"
       stroke-linecap="round"
       stroke-linejoin="round"
       stroke-width="2"
       points="52.832 41.186 59.992 43.958 55.992 59.958"
       id="polyline16" />
    <path
       fill="none"
       stroke="#000"
       stroke-linejoin="round"
       stroke-width="2"
       d="m 24.9454,32.9759 c 0,8 5,14 11,14 6,0 11,-6 11,-14 0,-5 -2,-8 -6,-12 -4,4 -16,9 -16,11 z"
       id="path18" />
    <path
       fill="none"
       stroke="#000"
       stroke-linecap="round"
       stroke-linejoin="round"
       stroke-width="2"
       d="m 48.6751,42.6963 c 9.6774,-0.4961 2.7925,-14.0812 1.7261,-17.2936"
       id="path20" />
    <path
       fill="none"
       stroke="#000"
       stroke-linecap="round"
       stroke-linejoin="round"
       stroke-width="2"
       d="m 21.7618,25.5574 c -1.2019,3.33 -7.6447,14.1492 1.3293,17.4954"
       id="path22" />
  </g>
</g></svg>