<svg xmlns="http://www.w3.org/2000/svg" width="24" height="24" viewBox="0 0 24 24"> <g transform="translate(0.4931708999284101 0.0) scale(0.46966733736467076)">
  
  <g
     id="line"
     transform="translate(-13,-10)">
    <path
       fill="none"
       stroke="#000"
       stroke-linejoin="round"
       stroke-width="2"
       d="m 32.9683,15.3 c -6.0635,0 -11,5 -11,14 0,6.6462 3.3964,14.1 11,14.1 7.5559,0 11.0635,-7.483 11.0635,-14.1 0,-9 -5.127,-14 -11.0635,-14 z"
       id="path2" />
    <path
       fill="#000"
       d="m 39,27.9 c 0,1.1 -0.9,2 -2,2 -1.1,0 -2,-0.9 -2,-2 0,-1.1 0.9,-2 2,-2 1.1,0 2,0.9 2,2 z"
       id="path4" />
    <path
       fill="#000"
       d="m 31,27.9 c 0,1.1 -0.9,2 -2,2 -1.1,0 -2,-0.9 -2,-2 0,-1.1 0.9,-2 2,-2 1.1,0 2,0.9 2,2 z"
       id="path6" />
    <path
       fill="none"
       stroke="#000"
       stroke-linecap="round"
       stroke-linejoin="round"
       stroke-width="2"
       d="m 30,36.1 c 1.9,1 4.1,1 6,0"
       id="path8" />
    <path
       fill="none"
       stroke="#000"
       stroke-width="2"
       d="M 30.5,15.4517 C 29.5855,14.9935 29,14.2895 29,13.5 29,12.1193 30.7909,11 33,11 c 2.2091,0 4,1.1193 4,2.5 0,0.7895 -0.5855,1.4935 -1.5,1.9517"
       id="path10" />
    <path
       fill="none"
       stroke="#000"
       stroke-linecap="round"
       stroke-linejoin="round"
       stroke-width="2"
       d="M 22,28.5 C 22,21 29,18 33,20.5 37,18 44,21 44,28.5"
       id="path12" />
    <g
       id="g24">
      <path
         fill="none"
         stroke="#000"
         stroke-linecap="round"
         stroke-linejoin="round"
         stroke-width="2"
         d="m 14,58 v -3 c 0,-5 5,-9 10,-9 6,5 12,5 18,0 0.5017,0 1.0034,0.0403 1.5,0.1178"
         id="path14" />
      <path
         fill="none"
         stroke="#000"
         stroke-linejoin="round"
         stroke-width="2"
         d="m 23.5,46.6 0.5,7.5 h 18 l 0.5,-7.5"
         id="path16" />
      <path
         fill="none"
         stroke="#000"
         stroke-linecap="round"
         stroke-width="2"
         d="m 20,47.1 v 11"
         id="path18" />
      <path
         fill="none"
         stroke="#000"
         stroke-linecap="round"
         stroke-linejoin="round"
         stroke-width="2"
         d="M 46.1996,54.1 C 45.4463,52.4287 45,50.3512 45,48.1 h 12 c 0,2.2512 -0.4463,4.3287 -1.1996,6"
         id="path20" />
      <path
         fill="none"
         stroke="#000"
         stroke-linejoin="round"
         stroke-width="2"
         d="m 41,57.1 h 20 l -2,3 H 43 Z"
         id="path22" />
    </g>
  </g>
</g></svg>