<svg xmlns="http://www.w3.org/2000/svg" width="24" height="24" viewBox="0 0 24 24"> <g transform="scale(0.41379310344827586)">
  
  <g
     id="line"
     transform="translate(-7,-7)">
    <g
       id="line-2">
      <circle
         cx="36"
         cy="36"
         r="28"
         fill="none"
         stroke="#000"
         stroke-linejoin="round"
         stroke-width="2"
         id="circle2" />
    </g>
    <path
       fill="none"
       stroke="#000"
       stroke-linejoin="round"
       stroke-width="2"
       d="m 46,21.0122 c -0.5527,0 -1,0.4478 -1,1 V 46.8916 L 26.8135,21.4312 c -0.2529,-0.354 -0.7041,-0.5039 -1.1191,-0.3711 -0.4131,0.1323 -0.6943,0.5176 -0.6943,0.9521 v 28 c 0,0.5522 0.4473,1 1,1 0.5527,0 1,-0.4478 1,-1 V 25.1328 l 18.1865,25.4604 c 0.1914,0.2681 0.4971,0.4189 0.8135,0.4189 0.1016,0 0.2051,-0.0156 0.3057,-0.0479 0.4131,-0.1323 0.6943,-0.5176 0.6943,-0.9521 V 22.0122 c 0,-0.5522 -0.4473,-1 -1,-1 z"
       id="path5" />
  </g>
</g></svg>