<svg xmlns="http://www.w3.org/2000/svg" width="24" height="24" viewBox="0 0 24 24"> <g transform="translate(2.5894281860566313 0.0) scale(0.49271298031816946)">
  
  <g
     id="line"
     transform="translate(-15.2535,-9.5201)">
    <path
       fill="none"
       stroke="#000"
       stroke-linecap="round"
       stroke-linejoin="round"
       stroke-width="2"
       d="m 20.6347,57.2294 -0.08,-8.2906 c 0,-0.9552 0.0782,-2.6339 0.713,-3.1639 a 5.2776,5.2776 0 0 1 1.5729,-0.5015 c 0.9009,-0.3145 1.3842,-2.7635 2.0982,-2.8683 0.5786,-0.0849 2.9208,2.7635 3.0638,2.9 a 6.0315,6.0315 0 0 1 0.1153,2.1678 28.1171,28.1171 0 0 0 -0.2259,6.0561 c 0.1,0.8789 0.837,3.7006 0.837,3.7006"
       id="path2" />
    <path
       fill="none"
       stroke="#000"
       stroke-linecap="round"
       stroke-linejoin="round"
       stroke-width="2"
       d="m 48.0149,57.2294 0.08,-8.2906 c 0,-0.9552 -0.0781,-2.6339 -0.713,-3.1639 A 5.2776,5.2776 0 0 0 45.809,45.2734 c -0.9008,-0.3145 -1.3841,-2.7635 -2.0982,-2.8683 -0.5786,-0.0849 -2.9208,2.7635 -3.0638,2.9 a 6.0315,6.0315 0 0 0 -0.1153,2.1678 28.1171,28.1171 0 0 1 0.2259,6.0561 c -0.1,0.8789 -0.8369,3.7006 -0.8369,3.7006"
       id="path4" />
    <path
       fill="none"
       stroke="#000"
       stroke-linecap="round"
       stroke-linejoin="round"
       stroke-width="2"
       d="m 31.506,36.5 a 7.7957,7.7957 0 0 0 6,0"
       id="path6" />
    <path
       fill="#000"
       d="M 40.0855,28.9065 A 1.9066,1.9066 0 1 1 38.179,27 a 1.9122,1.9122 0 0 1 1.9065,1.9065"
       id="path8" />
    <path
       fill="#000"
       d="M 32.46,28.9065 A 1.9066,1.9066 0 1 1 30.553,27 1.9122,1.9122 0 0 1 32.46,28.9065"
       id="path10" />
    <path
       fill="none"
       stroke="#000"
       stroke-linejoin="round"
       stroke-width="2"
       d="m 23.88,29.5855 c 0,7.6261 4.7663,13.3458 10.486,13.3458 5.7197,0 10.4859,-5.72 10.4859,-13.3458 0,-4.7664 -1.9065,-7.6262 -5.72,-11.4393 -3.8131,3.8131 -15.2523,8.58 -15.2523,10.486 z"
       id="path12" />
    <path
       fill="none"
       stroke="#000"
       stroke-linecap="round"
       stroke-linejoin="round"
       stroke-width="2"
       d="M 28.2206,47.5319 A 11.3883,11.3883 0 0 0 36,49.2361 v 0 a 12.3365,12.3365 0 0 0 3.9668,-1.3941"
       id="path14" />
    <path
       fill="none"
       stroke="#000"
       stroke-linecap="round"
       stroke-linejoin="round"
       stroke-width="2"
       d="m 16.2535,57.23 v -2.86 a 8.921,8.921 0 0 1 0.5752,-2.7366 C 17.2757,50.3061 17.9355,49.3658 20,48"
       id="path16" />
    <path
       fill="none"
       stroke="#000"
       stroke-linecap="round"
       stroke-linejoin="round"
       stroke-width="2"
       d="m 17.9694,44.5518 c -3.5271,-5.6243 -0.572,-9.628 1.1439,-14.0131 1.5253,-4.0037 -0.1906,-6.1962 1.2393,-11.4392 1.4299,-5.243 6.9589,-8.5794 13.06,-8.5794 5.1477,0 7.6262,2.86 7.6262,2.86 a 7.7436,7.7436 0 0 1 7.0542,7.6261 c 0.3813,6.8636 0.9532,6.8636 3.2411,12.2019 a 11.1874,11.1874 0 0 1 -1.3346,11.1533"
       id="path18" />
    <path
       fill="none"
       stroke="#000"
       stroke-linecap="round"
       stroke-linejoin="round"
       stroke-width="2"
       d="M 52.4525,57.23 V 54.37 A 8.921,8.921 0 0 0 51.8773,51.6334 C 51.43,50.3061 50.7705,49.3658 48.7056,48"
       id="path20" />
  </g>
</g></svg>