<svg xmlns="http://www.w3.org/2000/svg" width="24" height="24" viewBox="0 0 24 24"> <g transform="translate(0.8685108887467194 0.0) scale(0.5798093287358963)">
  
  <g
     id="line"
     transform="translate(-16.804078,-16.323888)">
    <g
       id="TBUbV3.tif-2">
      <path
         fill="none"
         stroke="#000"
         stroke-miterlimit="10"
         stroke-width="2"
         d="m 52.4821,29.6194 c -1.2516,1.8087 -0.0754,3.3868 1.1034,5.1863 1.2235,1.8679 0.5637,4.3036 -1.2618,5.9167 a 1.3535,1.3535 0 0 0 -0.3668,1.9489 c 1.2419,2.625 0.3572,5.1635 -2.1192,6.7382 a 2.9742,2.9742 0 0 0 -1.118,1.377 4.9165,4.9165 0 0 1 -5.2731,3.4475 1.9016,1.9016 0 0 0 -1.3917,0.7023 c -1.4215,1.9664 -3.2778,2.3548 -5.3092,0.9175 a 1.1147,1.1147 0 0 0 -1.5535,0.0083 c -1.9606,1.4167 -3.89,1.0065 -5.3236,-0.9417 a 1.9253,1.9253 0 0 0 -1.4079,-0.6945 4.7193,4.7193 0 0 1 -5.1489,-3.371 2.9727,2.9727 0 0 0 -1.12,-1.4037 c -2.6518,-1.6524 -3.51,-4.2687 -2.0824,-7.0627 0.4036,-0.79 0.1733,-1.0993 -0.3716,-1.5765 a 4.98,4.98 0 0 1 -0.1622,-7.7694 1.3192,1.3192 0 0 0 0.3736,-1.7532 C 18.815,28.4926 19.6441,26.2379 22.191,24.5985 a 3.1617,3.1617 0 0 0 1.147,-1.5315 4.5915,4.5915 0 0 1 4.98,-3.2013 1.4459,1.4459 0 0 0 1.6636,-0.79 3.3792,3.3792 0 0 1 5.09,-0.9907 1.2271,1.2271 0 0 0 1.7651,0.0123 c 1.8769,-1.3483 3.8243,-0.89 5.2124,0.99 a 2.0478,2.0478 0 0 0 1.5051,0.73 4.8644,4.8644 0 0 1 5.1831,3.5575 3.24,3.24 0 0 0 1.2827,1.4158 5.2345,5.2345 0 0 1 2.4621,4.8288 z"
         id="path2" />
    </g>
    <line
       x1="36"
       x2="36"
       y1="18.4613"
       y2="55.544701"
       fill="none"
       stroke="#000"
       stroke-miterlimit="10"
       stroke-width="2"
       id="line5" />
    <path
       fill="none"
       stroke="#000"
       stroke-linecap="round"
       stroke-linejoin="round"
       stroke-width="2"
       d="m 30.6748,30.0612 c 0,0 3.9235,-3.9446 5.3252,1.3514"
       id="path7" />
    <path
       fill="none"
       stroke="#000"
       stroke-linecap="round"
       stroke-linejoin="round"
       stroke-width="2"
       d="m 41.3252,30.0612 c 0,0 -3.9235,-3.9446 -5.3252,1.3514"
       id="path9" />
    <path
       fill="none"
       stroke="#000"
       stroke-linecap="round"
       stroke-linejoin="round"
       stroke-width="2"
       d="m 44.1216,27.077 c 0,0 2.6591,-4.887 -2.8166,-4.717"
       id="path11" />
    <path
       fill="none"
       stroke="#000"
       stroke-linecap="round"
       stroke-linejoin="round"
       stroke-width="2"
       d="m 41.3252,42.9007 c 0,0 -3.9235,3.9446 -5.3252,-1.3514"
       id="path13" />
    <path
       fill="none"
       stroke="#000"
       stroke-linecap="round"
       stroke-linejoin="round"
       stroke-width="2"
       d="m 42.3124,36.5012 c 0,0 3.96,-3.908 5.3125,1.4007"
       id="path15" />
    <path
       fill="none"
       stroke="#000"
       stroke-linecap="round"
       stroke-linejoin="round"
       stroke-width="2"
       d="m 30.6748,42.9007 c 0,0 3.9235,3.9446 5.3252,-1.3514"
       id="path17" />
    <path
       fill="none"
       stroke="#000"
       stroke-linecap="round"
       stroke-linejoin="round"
       stroke-width="2"
       d="m 50.02,24.7906 c 0,0 -1.2582,-1.335 -5.2985,-1.0092"
       id="path19" />
    <path
       fill="none"
       stroke="#000"
       stroke-linecap="round"
       stroke-linejoin="round"
       stroke-width="2"
       d="m 44.0628,46.5889 c 0,0 2.2139,5.1041 -3.225,4.4479"
       id="path21" />
    <path
       fill="none"
       stroke="#000"
       stroke-linecap="round"
       stroke-linejoin="round"
       stroke-width="2"
       d="m 49.98,49.317 c 0,0 -1.6167,1.2917 -5.612,0.6079"
       id="path23" />
    <path
       fill="none"
       stroke="#000"
       stroke-linecap="round"
       stroke-linejoin="round"
       stroke-width="2"
       d="m 28.085,27.077 c 0,0 -2.6591,-4.887 2.8166,-4.717"
       id="path25" />
    <path
       fill="none"
       stroke="#000"
       stroke-linecap="round"
       stroke-linejoin="round"
       stroke-width="2"
       d="m 29.2,36.5012 c 0,0 -3.96,-3.908 -5.3124,1.4007"
       id="path27" />
    <path
       fill="none"
       stroke="#000"
       stroke-linecap="round"
       stroke-linejoin="round"
       stroke-width="2"
       d="m 22.137,24.6339 c 0,0 1.3076,-1.1783 5.3478,-0.8525"
       id="path29" />
    <path
       fill="none"
       stroke="#000"
       stroke-linecap="round"
       stroke-linejoin="round"
       stroke-width="2"
       d="m 27.89,46.5889 c 0,0 -2.2139,5.1041 3.225,4.4479"
       id="path31" />
    <path
       fill="none"
       stroke="#000"
       stroke-linecap="round"
       stroke-linejoin="round"
       stroke-width="2"
       d="m 21.9732,49.317 c 0,0 1.6167,1.2917 5.612,0.6079"
       id="path33" />
  </g>
</g></svg>