<svg xmlns="http://www.w3.org/2000/svg" width="24" height="24" viewBox="0 0 24 24"> <g transform="translate(2.4000000000000004 0.0) scale(0.48)">
  
  <g
     id="line"
     transform="translate(-16,-11)">
    <path
       fill="none"
       stroke="#000"
       stroke-linecap="round"
       stroke-linejoin="round"
       stroke-width="2"
       d="m 27.0957,41 c -4,-2 -5.4473,-8.0303 -6,-13 -1,-9 6,-16 15,-16 10,0 16,7 15,16.1538 -0.7432,6.8062 -3,11.8462 -6,12.8462"
       id="path2" />
    <path
       fill="none"
       stroke="#000"
       stroke-linejoin="round"
       stroke-width="2"
       d="m 25.0957,31.5 c 0,8.2861 4,14.5 10.9365,14.5 7.0635,0 11.0635,-6.2139 11.0635,-14.5 0,-6.2144 -1.2158,-8.1025 -2,-9.3213 -2,-3.1074 -4,-5.1787 -4,-5.1787 -2,1.0356 -10,0 -12,2.0713 -1,1.0356 -4,6.2143 -4,12.4287 z"
       id="path4" />
    <path
       fill="none"
       stroke="#000"
       stroke-linecap="round"
       stroke-linejoin="round"
       stroke-width="2"
       d="m 17,60 v -3 c 0,-4.9941 5.0078,-9 10,-9 6,5 12,5 18,0 4.9941,0 10,4.0059 10,9 v 3"
       id="path6" />
    <path
       fill="none"
       stroke="#000"
       stroke-linecap="round"
       stroke-linejoin="round"
       stroke-width="2"
       d="m 38.127,38.4375 c -1.2481,0.75 -2.5821,0.75 -4,0"
       id="path8" />
    <path
       fill="none"
       stroke="#000"
       stroke-linecap="round"
       stroke-linejoin="round"
       stroke-width="2"
       d="m 31.127,36.4375 c 0,1 -1,2 -1,2"
       id="path10" />
    <path
       fill="none"
       stroke="#000"
       stroke-linecap="round"
       stroke-linejoin="round"
       stroke-width="2"
       d="m 41.127,36.4375 c 0,1 1,2 1,2"
       id="path12" />
    <path
       d="m 42,29.4375 c 0,1.1045 -0.8955,2 -2,2 -1.1045,0 -2,-0.8955 -2,-2 0,-1.1045 0.8955,-2 2,-2 1.1045,0 2,0.8955 2,2"
       id="path14" />
    <path
       d="m 34,29.4375 c 0,1.1045 -0.8955,2 -2,2 -1.1045,0 -2,-0.8955 -2,-2 0,-1.1045 0.8955,-2 2,-2 1.1045,0 2,0.8955 2,2"
       id="path16" />
  </g>
</g></svg>