<svg xmlns="http://www.w3.org/2000/svg" width="24" height="24" viewBox="0 0 24 24"> <g transform="translate(0.7946064411202727 0.0) scale(0.44174497363242654)">
  
  <g
     id="line"
     transform="translate(-10.660589,-9.3265893)">
    <path
       fill="none"
       stroke="#000"
       stroke-linecap="round"
       stroke-linejoin="round"
       stroke-width="2"
       d="m 11.6652,27.07 v 11.9275 c 0,0 -0.6652,18.8073 14.0271,22.7508 0,0 11.0936,2.637 19.6412,-1.1821 v -4.3341 c 0,0 -19.7322,5.6979 -19.7322,-6.6686 a 48.3633,48.3633 0 0 0 10.14,1.273 c 0,0 14.497,1.0971 21.3824,-5.3515 0,0 3.2693,-2.3614 3.2693,-12.4766 l -0.0268,-7.4038 c 0,0 0.1455,-10.4889 -10.3955,-13.6868 -2.6259,-0.7112 -24.1695,-4.28 -32.8209,2.3913 2e-4,0 -5.2373,3.5522 -5.4846,12.7609 z"
       id="path2" />
    <path
       fill="none"
       stroke="#000"
       stroke-linecap="round"
       stroke-linejoin="round"
       stroke-width="2"
       d="m 36.0269,24.801 c -2.5181,-5.53 -6.5695,-5.4914 -6.5695,-5.4914 h -1.11 a 7.9118,7.9118 0 0 0 -7.9119,7.9118 V 42.2467 H 25.869 V 28.0413 a 3.4205,3.4205 0 0 1 3.421,-3.4206 h 0.5171 a 3.4205,3.4205 0 0 1 3.4206,3.4206 v 9.0007 h 5.5992 v -9.0007 a 3.4205,3.4205 0 0 1 3.42,-3.4206 h 0.5172 a 3.4206,3.4206 0 0 1 3.4206,3.4206 v 14.2054 h 5.433 V 27.2214 A 7.9118,7.9118 0 0 0 43.706,19.31 h -1.11 c 0,0 -4.0513,-0.0384 -6.5694,5.4914"
       id="path4" />
  </g>
</g></svg>