<svg xmlns="http://www.w3.org/2000/svg" width="24" height="24" viewBox="0 0 24 24"> <g transform="translate(3.71863172172503 0.0) scale(0.4562737469097434)">
  
  <g
     id="line"
     transform="translate(-17.6,-9.7)">
    <path
       fill="none"
       stroke="#000"
       stroke-linecap="round"
       stroke-linejoin="round"
       stroke-miterlimit="10"
       stroke-width="2"
       d="m 39.1,42.3 c 1.2,-0.5 2.5,-0.8 3.9,-0.8 5.5,0 9.9,4.4 9.9,9.9 0,5.5 -4.4,9.9 -9.9,9.9"
       id="path2" />
    <path
       fill="none"
       stroke="#000"
       stroke-linecap="round"
       stroke-linejoin="round"
       stroke-miterlimit="10"
       stroke-width="2"
       d="m 19.5,10.7 c 0,0.3 0,0.7 0,1 0.1,17.1 3.2,27.7 4.3,31"
       id="path4" />
    <path
       fill="none"
       stroke="#000"
       stroke-linecap="round"
       stroke-linejoin="round"
       stroke-miterlimit="10"
       stroke-width="2"
       d="m 43,61.2 c -1.5,0 -2.9,-0.3 -4.2,-0.9"
       id="path6" />
    <circle
       cx="28.5"
       cy="51.400002"
       r="9.8999996"
       fill="none"
       stroke="#000"
       stroke-linecap="round"
       stroke-linejoin="round"
       stroke-miterlimit="10"
       stroke-width="2"
       id="circle8" />
    <path
       fill="none"
       stroke="#000"
       stroke-linecap="round"
       stroke-linejoin="round"
       stroke-miterlimit="10"
       stroke-width="2"
       d="m 35.2,15.7 c 4.5,4 5.7,11.6 5.7,11.6 0,0 -7.7,-0.4 -12.1,-4.4 -4.5,-4 -5.7,-11.6 -5.7,-11.6 0,0 7.7,0.4 12.1,4.4 z"
       id="path10" />
    <circle
       cx="28.5"
       cy="51.400002"
       r="9.8999996"
       fill="none"
       stroke="#000"
       stroke-linecap="round"
       stroke-linejoin="round"
       stroke-miterlimit="10"
       stroke-width="2"
       id="circle12" />
    <path
       fill="none"
       stroke="#000"
       stroke-linecap="round"
       stroke-linejoin="round"
       stroke-miterlimit="10"
       stroke-width="2"
       d="M 39,42.3 C 39,42.3 19.5,32.2 19.5,10.7"
       id="path14" />
  </g>
</g></svg>