<svg xmlns="http://www.w3.org/2000/svg" width="24" height="24" viewBox="0 0 24 24"> <g transform="scale(0.5)">
  
  <g
     id="line"
     transform="translate(-12,-12)">
    <path
       fill="none"
       stroke="#000"
       stroke-linecap="round"
       stroke-linejoin="round"
       stroke-width="2"
       d="M 42.2391,58.1437 C 40.2551,58.7016 38.1624,59 36,59 33.7611,59 31.5969,58.6801 29.5506,58.0835"
       id="path2" />
    <path
       fill="none"
       stroke="#000"
       stroke-linecap="round"
       stroke-linejoin="round"
       stroke-width="2"
       d="M 15.8745,47.1427 C 14.043,43.8417 13,40.0427 13,36 13,23.2975 23.2975,13 36,13 c 12.7025,0 23,10.2975 23,23 0,4.0427 -1.043,7.8418 -2.8747,11.1429"
       id="path4" />
    <path
       fill="none"
       stroke="#000"
       stroke-linecap="round"
       stroke-linejoin="round"
       stroke-width="2"
       d="m 33.08,42.41 c 0.86,-0.52 1.86,-0.81 2.92,-0.81 1.06,0 2.06,0.29 2.92,0.81 h 0.01"
       id="path6" />
    <path
       fill="none"
       stroke="#000"
       stroke-linecap="round"
       stroke-linejoin="round"
       stroke-width="2"
       d="m 41.62,48.55 v 0.01 c -0.56,2.6 -2.86,4.53 -5.62,4.53 -2.76,0 -5.06,-1.93 -5.62,-4.53 v -0.01"
       id="path8" />
    <path
       fill="none"
       stroke="#000"
       stroke-linecap="round"
       stroke-linejoin="round"
       stroke-width="2"
       d="m 28.6372,22.3427 c -3.076,-0.8804 -6.4735,0.3898 -8.163,3.2789"
       id="path10" />
    <path
       fill="none"
       stroke="#000"
       stroke-linecap="round"
       stroke-linejoin="round"
       stroke-width="2"
       d="m 43.3628,22.3427 c 3.076,-0.8804 6.4735,0.3898 8.163,3.2789"
       id="path12" />
    <path
       fill="none"
       stroke="#000"
       stroke-linecap="round"
       stroke-linejoin="round"
       stroke-width="2"
       d="m 16.1049,56.8794 c 0.6,-3 1.1,-5.2 1.3,-6.1 -0.4,-0.8 -0.8,-1.7 -1.2,-2.5 -0.2,-0.4 -0.6,-1.6 -1.2,-8.3 -0.2,-2 -0.1,-3.1 0.5,-3.8 0.2894,-0.3703 0.7301,-0.5906 1.2,-0.6 1.3,0 2.1128,1.1756 2.3896,3.4044 2.7603,-7.3627 4.0952,-11.5004 6.4169,-10.2728 1.1145,0.5893 0.898,1.837 0.898,1.837 1.774,-4.0421 5.0508,-1.4963 3.3908,1.4442 0,0 1.6297,-1.3548 2.658,-0.029 0.6537,0.8428 0.2595,1.7936 -1.036,4.5196 1.6014,-1.8518 3.3371,-0.0749 2.9059,1.7059 -2.4426,10.0891 -7.8439,16.3489 -7.8439,16.3489 0,0 -0.5556,1.5658 -0.6793,3.0419"
       id="path14" />
    <path
       d="m 46.9428,33.6341 c 0,1.0703 -0.8693,1.9388 -1.9388,1.9388 -1.0695,0 -1.9388,-0.8678 -1.9388,-1.9388 0,-1.0695 0.8693,-1.9388 1.9388,-1.9388 1.0695,0 1.9388,0.8693 1.9388,1.9388"
       id="path16" />
    <path
       fill="none"
       stroke="#000"
       stroke-linecap="round"
       stroke-linejoin="round"
       stroke-width="2"
       d="m 46.2,57.58 c -0.13,-1.48 -0.68,-3.04 -0.68,-3.04 0,0 -5.41,-6.26 -7.85,-16.35 -0.43,-1.78 1.14,-3.18 2.53,-1.79 -1.55,-2.92 -1.78,-4.25 -0.33,-4.76 0.12,-0.04 0.23,-0.06 0.37,-0.06 0.68,-0.01 1.57,0.58 2.44,2.45 0.63,1.35 1.35,2.8 2.52,4.77 0.41,0.7 0.89,1.47 1.43,2.33 0.2,-0.92 0.33,-1.84 0.41,-2.74 0.38,-3.96 -0.1,-7.53 0.39,-9.33 0.22,-0.83 0.65,-1.29 1.46,-1.24 0.89,0.06 1.56,0.91 1.4,2.18 0,0 0.75,-1.49 2.21,-0.72 1.22,0.65 0.74,1.89 0.41,9.7 0.27,-2.22 1.09,-3.4 2.39,-3.4 0.46,0.01 0.91,0.23 1.2,0.6 0.6,0.7 0.7,1.8 0.5,3.8 -0.6,6.7 -1,7.9 -1.2,8.3 -0.4,0.8 -0.8,1.7 -1.2,2.5 0.2,0.9 0.7,3.1 1.3,6.1"
       id="path18" />
    <path
       fill="none"
       stroke="#000"
       stroke-miterlimit="10"
       stroke-width="2"
       d="m 40.24,31.58 c 0.43,-0.97 1.13,-1.79 2.02,-2.34 0.8,-0.5 1.74,-0.79 2.74,-0.79 0.88,0 1.7,0.22 2.43,0.61"
       id="path20" />
  </g>
</g></svg>