<svg xmlns="http://www.w3.org/2000/svg" width="24" height="24" viewBox="0 0 24 24"> <g transform="translate(0.0 0.000009293511668673204) scale(0.4425481746879261)">
  
  <g
     id="line"
     transform="translate(-7.6408919,-10.561925)">
    <path
       fill="none"
       stroke="#000"
       stroke-linecap="round"
       stroke-linejoin="round"
       stroke-miterlimit="10"
       stroke-width="2"
       d="m 29.5835,39.6214 c 3.0581,-6.8803 6.6525,-14.6439 7.7996,-16.8652 2.0717,-4.012 5.7336,-10.1903 12.5418,-11.1943 L 37.2636,42.1156"
       id="path2" />
    <path
       fill="none"
       stroke="#000"
       stroke-linecap="round"
       stroke-linejoin="round"
       stroke-miterlimit="10"
       stroke-width="2"
       d="m 41.4622,50.9758 c -1.1378,-2.5493 -3.3045,-4.3145 -5.7916,-5.0337 l 1.593,-3.8265 -7.6801,-2.4942 c -2.5052,5.6398 -4.8798,11.2159 -5.0918,12.2646 -0.3613,1.7873 -0.6165,4.374 0.3383,6.5134 2.0499,4.5928 7.435,6.6542 12.0278,4.6044 4.5929,-2.0499 6.6543,-7.4351 4.6044,-12.028 z m -3.5499,4.7362 c -0.5596,2.4517 -3.0009,3.9855 -5.4525,3.4258 -2.4517,-0.5597 -3.9856,-3.0008 -3.4259,-5.4525 0.5597,-2.4518 3.0009,-3.9856 5.4526,-3.4259 2.4517,0.5597 3.9855,3.0009 3.4258,5.4526 z"
       id="path4" />
    <path
       fill="none"
       stroke="#000"
       stroke-linecap="round"
       stroke-linejoin="round"
       stroke-miterlimit="10"
       stroke-width="2"
       d="m 26.3726,38.2375 c -0.7838,-2.3259 -2.4964,-4.3306 -4.9143,-5.4099 -4.5928,-2.0498 -9.9779,0.0115 -12.0279,4.6045 -2.0499,4.5928 0.0116,9.9778 4.6044,12.0277 2.1394,0.955 4.7261,0.6996 6.5134,0.3384 0.2928,-0.0592 0.8983,-0.2697 1.7418,-0.5971 M 18.749,45.256 c -2.4518,0.5597 -4.893,-0.9741 -5.4526,-3.4259 -0.5597,-2.4517 0.974,-4.8928 3.4258,-5.4525 2.4517,-0.5597 4.8929,0.974 5.4526,3.4257 0.5596,2.4518 -0.9741,4.893 -3.4258,5.4527 z"
       id="path6" />
    <path
       fill="none"
       stroke="#000"
       stroke-linecap="round"
       stroke-linejoin="round"
       stroke-miterlimit="10"
       stroke-width="2"
       d="M 46.6251,30.3466 60.8723,24.365 c -1.004,6.8082 -7.1823,10.4701 -11.1943,12.5418 -1.3118,0.6774 -3.3115,1.6931 -7.1655,3.463"
       id="path8" />
  </g>
</g></svg>