<svg xmlns="http://www.w3.org/2000/svg" width="24" height="24" viewBox="0 0 24 24"> <g transform="translate(0.0 0.8626157528352909) scale(0.39998820034808974)">
  
  <g
     id="line"
     transform="translate(-5.9991153,-7.9753508)">
    <circle
       cx="27.633801"
       cy="29.677099"
       r="2"
       fill="#000"
       stroke="none"
       id="circle2" />
    <path
       fill="none"
       stroke="#000"
       stroke-linecap="round"
       stroke-linejoin="round"
       stroke-miterlimit="10"
       stroke-width="2"
       d="m 23.0393,27.9538 c 0,0 4.726,-6.5434 9.4521,0.1023"
       id="path4" />
    <path
       fill="none"
       stroke="#000"
       stroke-linecap="round"
       stroke-linejoin="round"
       stroke-miterlimit="10"
       stroke-width="2"
       d="m 30.8968,40.1701 c 0,0 0.6484,2.299 3.537,2.7117"
       id="path6" />
    <path
       fill="none"
       stroke="#000"
       stroke-linecap="round"
       stroke-linejoin="round"
       stroke-miterlimit="10"
       stroke-width="2"
       d="m 27.989,51.7674 1.2915,0.8045 c 1.2002,0.7477 2.5573,1.1408 3.9382,1.1408 h 5.6222 c 1.3232,0 2.6255,-0.361 3.7893,-1.0503 l 1.5111,-0.895"
       id="path8" />
    <path
       fill="none"
       stroke="#000"
       stroke-linecap="round"
       stroke-linejoin="round"
       stroke-miterlimit="10"
       stroke-width="2"
       d="M 31.0557,35.5878 C 28.4399,37.096 25.0871,40.4167 25.4759,47.464"
       id="path10" />
    <path
       fill="none"
       stroke="#000"
       stroke-linecap="round"
       stroke-linejoin="round"
       stroke-miterlimit="10"
       stroke-width="2"
       d="m 26.8178,56.0264 0.2809,0.6695 c 1.0574,2.5206 3.1675,4.4503 5.7723,5.279 l 0.7864,0.2502 c 2.2541,0.7171 4.6965,0.5509 6.8326,-0.4651 v 0 c 2.0135,-0.9577 3.6173,-2.6051 4.5206,-4.6436 l 0.4855,-1.0957"
       id="path12" />
    <path
       fill="none"
       stroke="#000"
       stroke-linecap="round"
       stroke-linejoin="round"
       stroke-miterlimit="10"
       stroke-width="2"
       d="m 16.0795,18.8447 -1.7688,-1.228 C 12.691,16.4922 10.5176,16.5976 9.0142,17.8734 v 0 c -0.7659,0.65 -1.2866,1.5421 -1.4642,2.5308 -0.6192,3.4457 -1.5742,11.5715 2.6707,13.7114"
       id="path14" />
    <circle
       cx="43.366199"
       cy="29.9126"
       r="2"
       fill="#000"
       stroke="none"
       id="circle16" />
    <path
       fill="none"
       stroke="#000"
       stroke-linecap="round"
       stroke-linejoin="round"
       stroke-miterlimit="10"
       stroke-width="2"
       d="m 48.0175,28.1759 c 0,0 -4.726,-6.5434 -9.4521,0.1023"
       id="path18" />
    <path
       fill="none"
       stroke="#000"
       stroke-linecap="round"
       stroke-linejoin="round"
       stroke-miterlimit="10"
       stroke-width="2"
       d="m 49.9607,41.4195 c 2.5152,-1.7505 2.6995,-5.9685 3.3012,-10.1803 0.4127,-2.8885 -0.4716,-5.895 -3.5959,-8.4888 -3.1321,-2.6002 -7.3146,-2.1486 -9.39,-1.6993 -1.0224,0.2213 -2.0608,0.3145 -3.1062,0.2758 l -2.7267,-0.1011 c -0.842,-0.0312 -1.6765,-0.1564 -2.4973,-0.3471 -1.9859,-0.4613 -6.3637,-1.0469 -9.6117,1.6496 -3.1243,2.5938 -4.0086,5.6002 -3.5959,8.4888 0.6017,4.2118 0.786,8.4298 3.3012,10.1803"
       id="path20" />
    <path
       fill="none"
       stroke="#000"
       stroke-linecap="round"
       stroke-linejoin="round"
       stroke-miterlimit="10"
       stroke-width="2"
       d="m 41.1032,40.1701 c 0,0 -0.6484,2.299 -3.537,2.7117"
       id="path22" />
    <path
       fill="none"
       stroke="#000"
       stroke-linecap="round"
       stroke-linejoin="round"
       stroke-miterlimit="10"
       stroke-width="2"
       d="m 41.2534,35.9947 c 2.5625,1.588 5.6444,4.9189 5.2707,11.6914"
       id="path24" />
    <path
       fill="none"
       stroke="#000"
       stroke-linecap="round"
       stroke-linejoin="round"
       stroke-miterlimit="10"
       stroke-width="2"
       d="m 41.2534,35.9947 c -0.5708,-0.3538 -1.1928,-0.6531 -1.7718,-0.8958 -1.2375,-0.5188 -2.5724,-0.7524 -3.9139,-0.7201 l -0.0521,0.0013 c -1.5439,0.0372 -3.0699,0.4152 -4.4116,1.18 -0.0161,0.0092 -0.0322,0.0184 -0.0483,0.0277"
       id="path26" />
    <path
       fill="none"
       stroke="#000"
       stroke-linecap="round"
       stroke-linejoin="round"
       stroke-miterlimit="10"
       stroke-width="2"
       d="m 54.4627,54.7601 c 0,0 12.6763,-6.0522 3.9518,-28.4623 C 49.69,3.8877 36.0651,9.7105 36.0651,9.7105 c 0,0 -13.755,-6.0449 -22.4795,16.3652 -8.7245,22.4101 3.9518,28.4623 3.9518,28.4623"
       id="path28" />
    <path
       fill="none"
       stroke="#000"
       stroke-linecap="round"
       stroke-linejoin="round"
       stroke-miterlimit="10"
       stroke-width="2"
       d="m 55.9205,19.0668 1.7688,-1.228 c 1.6197,-1.1245 3.7931,-1.0191 5.2965,0.2567 v 0 c 0.7659,0.65 1.2866,1.5421 1.4642,2.5308 0.6192,3.4457 1.5742,11.5715 -2.6707,13.7114"
       id="path30" />
  </g>
</g></svg>