<svg xmlns="http://www.w3.org/2000/svg" width="24" height="24" viewBox="0 0 24 24"> <g transform="translate(0.7843110833635549 0.0) scale(0.47502394368084455)">
  
  <g
     id="line"
     transform="translate(-12.328186,-12.74403)">
    <path
       id="Tooth_Line_1"
       fill="none"
       stroke="#000"
       stroke-miterlimit="10"
       stroke-width="2"
       d="m 56.8463,18.7956 a 11.6415,11.6415 0 0 0 -10.55,-5.0124 c -4.808,0.5457 -6.061,2.7647 -10.3573,3.1882 -4.2963,-0.4234 -5.5494,-2.6425 -10.3574,-3.1882 a 11.6418,11.6418 0 0 0 -10.55,5.0124 C 12.2738,23.008 12.8791,29.3 16.8442,34.1143 a 6.0923,6.0923 0 0 1 1.4434,3.6257 c 0.2378,6.1213 1.402,23.3418 6.9884,24.5078 4.3092,0.8994 2.0308,-19.6965 10.663,-19.43 8.6321,-0.2667 6.3537,20.3292 10.6628,19.43 5.5865,-1.166 6.7508,-18.3865 6.9885,-24.5078 a 6.0917,6.0917 0 0 1 1.4434,-3.6257 C 58.9988,29.3 59.6042,23.008 56.8463,18.7956 Z" />
  </g>
</g></svg>