<svg xmlns="http://www.w3.org/2000/svg" width="24" height="24" viewBox="0 0 24 24"> <g transform="translate(0.0 1.5627305934603726) scale(0.48327933055986033)">
  
  <g
     id="line"
     transform="translate(-11.161555,-14.409416)">
    <path
       fill="none"
       stroke="#000"
       stroke-miterlimit="10"
       stroke-width="2"
       d="m 59.5568,52.3009 c 0.0023,-0.0038 0.0034,-0.008 0.0058,-0.0118 0.0024,-0.004 0.0038,-0.0086 0.0063,-0.0126 0.3557,-0.5929 0.3272,-1.306 -0.0084,-1.8614 -2.3758,-5.3476 -2.4708,-10.5429 -2.5386,-14.7272 -0.0692,-4.2642 -0.1243,-7.6324 -2.4436,-9.7216 -1.5084,-1.3593 -3.6639,-1.866 -6.7806,-1.5912 -2.0898,0.1883 -2.3516,0.4517 -3.3919,-0.1941 -1.0403,-0.6458 -0.9204,-0.9973 -1.6799,-2.9566 -1.1463,-2.9441 -2.5625,-4.6637 -4.4577,-5.4131 -2.8893,-1.1421 -5.9077,0.3033 -9.7293,2.1327 -3.7707,1.8059 -8.4563,4.0366 -14.325,4.2904 -0.6841,-0.0849 -1.3929,0.1982 -1.7732,0.8108 -0.5718,0.921 -0.1461,2.0778 0.599,2.5454 0.4679,0.6741 0.9501,3.2438 1.3393,5.3361 1.2839,6.8908 3.2244,17.3045 11.7939,22.6244 8.5695,5.3199 18.7632,2.4391 25.5084,0.5326 2.0479,-0.5794 4.5646,-1.2873 5.3764,-1.167 0.8709,0.5349 1.9975,0.192 2.4991,-0.6158 z"
       id="path2" />
    <path
       fill="none"
       stroke="#000"
       stroke-miterlimit="10"
       stroke-width="2"
       d="m 38.3683,33.7525 c 0,0 -1.0207,-2.2751 -2.3856,-3.1224 -1.522,-0.9448 -2.7501,-0.6102 -4.5924,0.0536 -1.2572,0.4516 -2.6185,0.9414 -4.2992,0.7309 -0.5597,-0.0701 -0.8772,0.6307 -0.4723,1.0234 3.4626,3.3568 5.1926,7.5546 5.8325,9.4125 0.0932,0.2708 0.2895,0.502 0.4996,0.6284 0.2065,0.1323 0.5008,0.2056 0.7848,0.169 1.949,-0.2507 6.4785,-0.5625 11.023,1.0515 0.5316,0.1887 1.0188,-0.4068 0.7077,-0.8773 C 44.5321,41.4092 44.3672,39.9719 44.2142,38.6449 43.9918,36.6993 43.7469,35.4503 42.2249,34.5054 40.86,33.658 38.3683,33.7525 38.3683,33.7525 Z"
       id="path4" />
  </g>
</g></svg>