<svg xmlns="http://www.w3.org/2000/svg" width="24" height="24" viewBox="0 0 24 24"> <g transform="translate(0.0 0.47671394329749184) scale(0.45833450065401465)">
  
  <g
     id="line"
     transform="translate(-15.774401,-8.5808)">
    <circle
       cx="54.6619"
       cy="37.461399"
       fill="none"
       stroke="#000"
       stroke-linecap="round"
       stroke-linejoin="round"
       stroke-miterlimit="10"
       stroke-width="2"
       id="ellipse2"
       r="4" />
    <line
       x1="65.090698"
       x2="67.137901"
       y1="47.666698"
       y2="49.713799"
       fill="none"
       stroke="#000"
       stroke-linecap="round"
       stroke-linejoin="round"
       stroke-miterlimit="10"
       stroke-width="2"
       id="line4" />
    <line
       x1="58.892799"
       x2="58.892799"
       y1="44.664101"
       y2="57.864101"
       fill="none"
       stroke="#000"
       stroke-linecap="round"
       stroke-linejoin="round"
       stroke-miterlimit="10"
       stroke-width="2"
       id="line6" />
    <path
       fill="none"
       stroke="#000"
       stroke-linecap="round"
       stroke-linejoin="round"
       stroke-miterlimit="10"
       stroke-width="2"
       d="m 33.5327,48.0978 c 0,0 -1.2063,6.0215 2.3073,6.0215 3.5135,0 2.3072,-6.0215 2.3072,-6.0215"
       id="path8" />
    <path
       fill="none"
       stroke="#000"
       stroke-linecap="round"
       stroke-linejoin="round"
       stroke-miterlimit="10"
       stroke-width="2"
       d="M 34.9896,54.1193 32.5744,57.757 C 28.9446,56.0032 26.9025,44.7949 26.9025,44.7949 l -5.1046,6.9346 2.974,1.842 -0.9985,3.1134 8.8689,1.0721"
       id="path10" />
    <path
       fill="none"
       stroke="#000"
       stroke-linecap="round"
       stroke-linejoin="round"
       stroke-miterlimit="10"
       stroke-width="2"
       d="m 36.6904,54.1193 2.4151,3.6377 c 3.6298,-1.7538 5.672,-12.9621 5.672,-12.9621 l 5.1045,6.9346 -2.974,1.842 0.9985,3.1134 -8.8689,1.0721"
       id="path12" />
    <path
       fill="none"
       stroke="#000"
       stroke-linecap="round"
       stroke-linejoin="round"
       stroke-miterlimit="10"
       stroke-width="2"
       d="m 16.9025,57.7949 c 0,0 -2,-13 10,-13 3.1918,2.1279 5.9264,3.5984 9,3.5921 h -0.125 c 3.0736,0.0063 5.8081,-1.4642 9,-3.5921 12,0 10,13 10,13"
       id="path14" />
    <path
       fill="none"
       stroke="#000"
       stroke-linecap="round"
       stroke-linejoin="round"
       stroke-width="2"
       d="m 26,35.0808 c -4,0 -4,-4.5 -4,-11.5 0,-7 4,-14 14,-14 10,0 14,7 14,14 0,7 0,11.5 -4,11.5"
       id="path16" />
    <path
       fill="none"
       stroke="#000"
       stroke-linejoin="round"
       stroke-width="2"
       d="m 24.9365,28.5808 c 0,9 4.9365,14 11,14 5.9365,0 11.0635,-5 11.0635,-14 0.0245,-1.7187 -0.3164,-3.4229 -1,-5 -3,-3 -7,-8 -7,-8 -4,3 -7,6 -13,7.0005 0,-5e-4 -1.0635,0.9987 -1.0635,5.9995 z"
       id="path18" />
    <path
       d="m 33.9529,27.0468 c 0,1.1046 -0.8954,2 -2,2 -1.1046,0 -2,-0.8954 -2,-2 0,-1.1046 0.8954,-2 2,-2 1.1044,4e-4 1.9996,0.8956 2,2"
       id="path20" />
    <path
       d="m 35.9527,37.0492 c -1.2005,-0.0116 -2.3813,-0.3055 -3.4472,-0.8579 -0.494,-0.247 -0.6943,-0.8477 -0.4473,-1.3418 0.247,-0.4941 0.8477,-0.6943 1.3418,-0.4473 1.5934,0.8593 3.5121,0.8593 5.1055,0 0.494,-0.247 1.0947,-0.0468 1.3418,0.4473 0.2471,0.4941 0.0468,1.0947 -0.4473,1.3418 -1.0659,0.5524 -2.2468,0.8463 -3.4473,0.8579 z"
       id="path22" />
    <path
       d="m 41.9529,27.0468 c 0,1.1046 -0.8954,2 -2,2 -1.1046,0 -2,-0.8954 -2,-2 0,-1.1046 0.8954,-2 2,-2 1.1044,4e-4 1.9996,0.8956 2,2"
       id="path24" />
    <rect
       x="59.3862"
       y="38.781601"
       width="4"
       height="10.4296"
       transform="matrix(0.7071,-0.7071,0.7071,0.7071,-13.1305,56.2929)"
       fill="none"
       stroke="#000"
       stroke-linecap="round"
       stroke-linejoin="round"
       stroke-miterlimit="9.9999"
       stroke-width="2"
       id="rect26" />
  </g>
</g></svg>