<svg xmlns="http://www.w3.org/2000/svg" width="24" height="24" viewBox="0 0 24 24"> <g transform="translate(0.0 0.11693635723144169) scale(0.4864079283195228)">
  
  <g
     id="line"
     transform="translate(-11.0886,-9.2765158)">
    <path
       fill="none"
       stroke="#000"
       stroke-linecap="round"
       stroke-linejoin="round"
       stroke-width="2"
       d="m 47.54,38.1889 c 1.8096,0.6235 6.2091,2.3107 8.3564,4.6279 2.9678,3.2048 3.4785,13.0241 3.5335,14.3202"
       id="path2" />
    <path
       fill="none"
       stroke="#000"
       stroke-linecap="round"
       stroke-linejoin="round"
       stroke-width="2"
       d="m 12.0886,57.1368 c 0.3035,-1.1772 3.4064,-13.0738 5.4818,-15.478 1.938,-2.246 10.925,-5.9 10.925,-5.9 l 1.5259,0.1812"
       id="path4" />
    <line
       x1="45.951698"
       x2="45.1828"
       y1="51.703999"
       y2="57.136799"
       fill="none"
       stroke="#000"
       stroke-linecap="round"
       stroke-linejoin="round"
       stroke-width="2"
       id="line6" />
    <line
       x1="30.8577"
       x2="30.3262"
       y1="57.137001"
       y2="51.562401"
       fill="none"
       stroke="#000"
       stroke-linecap="round"
       stroke-linejoin="round"
       stroke-width="2"
       id="line8" />
    <line
       x1="20.315399"
       x2="20.315399"
       y1="57.136799"
       y2="47.325802"
       fill="none"
       stroke="#000"
       stroke-linecap="round"
       stroke-linejoin="round"
       stroke-width="2"
       id="line10" />
    <line
       x1="53.505402"
       x2="53.505402"
       y1="57.136799"
       y2="48.215801"
       fill="none"
       stroke="#000"
       stroke-linecap="round"
       stroke-linejoin="round"
       stroke-width="2"
       id="line12" />
    <polyline
       fill="none"
       stroke="#000"
       stroke-linecap="round"
       stroke-linejoin="round"
       stroke-width="2"
       points="44.1145,47.3258 47.0244,47.933 46.8224,38.8038"
       id="polyline14" />
    <polyline
       fill="none"
       stroke="#000"
       stroke-linecap="round"
       stroke-linejoin="round"
       stroke-width="2"
       points="31.1405,47.3258 28.7011,48.1558 29.6561,34.868"
       id="polyline16" />
    <path
       fill="none"
       stroke="#000"
       stroke-linecap="round"
       stroke-linejoin="round"
       stroke-width="2"
       d="m 39.6829,42.5874 c 0,0 1.3145,0.7544 1.3145,2.3074 0,1.553 -1.4027,3.2464 -1.4027,3.2464 l 1.8508,8.9956"
       id="path18" />
    <path
       fill="none"
       stroke="#000"
       stroke-linecap="round"
       stroke-linejoin="round"
       stroke-width="2"
       d="m 34.9458,57.1368 1.6239,-8.981 c 0,0 -1.1499,-1.7806 -1.1499,-3.284 0,-1.5034 1.5094,-2.4668 1.5094,-2.4668"
       id="path20" />
    <path
       fill="none"
       stroke="#000"
       stroke-linecap="round"
       stroke-linejoin="round"
       stroke-width="2"
       d="m 50.3543,20.5757 c 0.3527,3.5621 0.7042,8.4021 0.1151,8.7841 -0.3842,0.2494 -0.7696,0.5022 -1.1479,0.7507"
       id="path22" />
    <path
       fill="none"
       stroke="#000"
       stroke-linecap="round"
       stroke-linejoin="round"
       stroke-width="2"
       d="m 46.9214,20.9673 c 0.879,1.8979 1.3803,3.9555 1.469,6.0565 0.131,2.145 0.081,4.297 -0.149,6.433 -0.207,2.934 -1.604,5.655 -3.865,7.534 -1.789,1.182 -3.917,1.744 -6.057,1.6 -4.079,-0.043 -8.179,-4.6 -9.522,-10.453 -0.23,-1.006 -1.316,-0.801 -2.1,-2.143 -0.703,-1.398 -1.002,-2.966 -0.862,-4.525"
       id="path24" />
    <circle
       cx="43.199402"
       cy="26.435801"
       r="2"
       id="circle26" />
    <circle
       cx="35.149399"
       cy="26.435801"
       r="2"
       id="circle28" />
    <path
       fill="none"
       stroke="#000"
       stroke-linecap="round"
       stroke-linejoin="round"
       stroke-miterlimit="10"
       stroke-width="2"
       d="m 50.0354,15.5568 c -3.029,-1.269 -6.474,-3.82 -10.58,-4.834 -2.849,-0.7 -6.005,-0.811 -8.979,1.267 -2.518,1.754 -5.229,8.09 -4.641,13.479 0,0 0.948,-2.771 2.891,-0.291 l 0.6,2.725 c -0.161,-1.025 -0.237,-2.062 -0.229,-3.1 0.138,-0.815 0.387,-0.869 1.16,-2.545 1.122,-2.431 0.958,-3.65 0.313,-4.268 0.2,0.052 0.376,0.1 0.51,0.146 2.969,0.974 3.671,1.442 4.53,1.734 3.088,1.047 11.113,1.707 14.641,0.277 2.639,-1.068 3.971,-4.854 3.971,-4.854 -1.291,0.698 -2.821,0.794 -4.187,0.264 z"
       id="path30" />
    <path
       fill="none"
       stroke="#000"
       stroke-linecap="round"
       stroke-linejoin="round"
       stroke-width="2"
       d="m 39.7204,33.1368 v 0 c 0.85,0.181 1.391,1.015 1.21,1.863 l -0.253,1.189 c -0.181,0.849 -1.015,1.391 -1.863,1.209 h -10e-4 c -0.849,-0.18 -1.391,-1.015 -1.21,-1.863 l 0.253,-1.189 c 0.181,-0.848 1.016,-1.39 1.864,-1.209 z"
       id="path32" />
    <path
       fill="none"
       stroke="#000"
       stroke-linecap="round"
       stroke-linejoin="round"
       stroke-width="2"
       d="m 25.8354,25.4688 c 0,0 0.948,-2.771 2.891,-0.291 l 0.6,2.725 c -0.161,-1.025 -0.237,-2.062 -0.229,-3.1 0.138,-0.815 0.387,-0.869 1.16,-2.545 1.122,-2.431 0.958,-3.65 0.313,-4.268 0.2,0.052 0.376,0.1 0.51,0.146 2.3257,0.974 3.671,1.442 4.53,1.734 3.088,1.047 11.113,1.707 14.641,0.277 2.639,-1.068 3.971,-4.854 3.971,-4.854 -1.291,0.698 -2.821,0.794 -4.187,0.264 -3.029,-1.269 -6.474,-3.82 -10.58,-4.834 -2.849,-0.7 -6.005,-0.811 -8.979,1.267 -2.518,1.754 -5.229,8.09 -4.641,13.479"
       id="path34" />
  </g>
</g></svg>