<svg xmlns="http://www.w3.org/2000/svg" width="24" height="24" viewBox="0 0 24 24"> <g transform="translate(1.9103623820244273 0.0) scale(0.4689304466339762)">
  
  <g
     id="line"
     transform="translate(-15.624373,-16.825101)">
    <path
       fill="none"
       stroke="#000"
       stroke-linecap="round"
       stroke-linejoin="round"
       stroke-miterlimit="10"
       stroke-width="2"
       d="m 40.1565,67.0054 v -8.4719 c 1.6181,0.9361 3.4967,1.4719 5.5005,1.4719 4.7844,0 9.1921,-2.0095 10.4955,-6.9403 0.3112,-1.1773 0.3498,-2.4102 0.2359,-3.6226 L 56.2123,48.6606 C 54.9086,42.8713 54.3855,36.9335 54.657,31.0054 v 0 h 3 l -4.5032,-7.8401 -4.4968,7.8401 h 3 l -0.4802,9.1245 -0.2672,5.0769 c -0.0725,1.3768 -0.4085,2.7268 -0.9899,3.9769 v 0 c -1.7015,3.6581 -6.9018,3.6598 -8.6056,0.0028 v 0 c -0.5842,-1.2539 -0.942,-2.6014 -1.0569,-3.9799 l -1.6001,-19.201 -0.0332,-0.3403 h 3 L 37.127,17.825 32.6238,25.6651 h 3 l 5e-4,0.1968 -1.6001,19.201 c -0.1149,1.3786 -0.4727,2.726 -1.0569,3.9799 v 0 c -1.7038,3.657 -6.9042,3.6553 -8.6056,-0.0028 v 0 c -0.5814,-1.2501 -0.9175,-2.6001 -0.99,-3.9769 l -0.2672,-5.0769 -0.4802,-9.1245 h 3 l -4.4968,-7.8401 -4.5032,7.8401 h 3 v 0 c 0.2715,5.9281 -0.2516,11.8659 -1.5553,17.6552 l -0.1761,0.7819 c -0.1139,1.2124 -0.0753,2.4453 0.2359,3.6226 1.3034,4.9308 5.7111,6.9403 10.4955,6.9403 2.0038,0 3.8824,-0.5358 5.5005,-1.4719 l 0.0116,8.5736"
       id="path2" />
  </g>
</g></svg>