<svg xmlns="http://www.w3.org/2000/svg" width="24" height="24" viewBox="0 0 24 24"> <g transform="translate(0.0 1.1144538461538467) scale(0.46153846153846156)">
  
  <g
     id="line"
     transform="translate(-10.0429,-13.7957)">
    <path
       fill="none"
       stroke="#000"
       stroke-linecap="round"
       stroke-linejoin="round"
       stroke-width="2"
       d="m 22.82,46.3643 c 0,0 -5.2779,-5.1456 -0.4356,-7.31 5.1124,-2.2848 4.7872,4.7872 4.7872,4.7872 v 14.7669 c 0,0 -0.1171,1.358 2.5264,1.358 h 11.51 c 2.6435,0 2.5264,-1.358 2.5264,-1.358 V 43.8418 c 0,0 -0.3251,-7.072 4.7872,-4.7872 4.8424,2.1641 -0.4355,7.31 -0.4355,7.31"
       id="path2" />
    <path
       fill="none"
       stroke="#000"
       stroke-linecap="round"
       stroke-linejoin="round"
       stroke-width="2"
       d="m 27.1714,46.672 c -9.4278,-0.3943 -16.1285,-2.0392 -16.1285,-8.8763 0,-8.8366 11.1929,-23 25,-23 13.8071,0 25,14.1634 25,23 0,7.1191 -7.2648,8.6088 -17.3086,8.919"
       id="path4" />
  </g>
</g></svg>