<svg xmlns="http://www.w3.org/2000/svg" width="24" height="24" viewBox="0 0 24 24"> <g transform="translate(-1.7763568394002505e-15 0.9987575637803268) scale(0.5240872692651205)">
  
  <g
     id="line"
     transform="translate(-13.7106,-13.560077)">
    <path
       fill="none"
       stroke="#000"
       stroke-linecap="round"
       stroke-linejoin="round"
       stroke-width="2.069"
       d="m 36.6013,29.2336 v 22.644 a 2.0994,2.0994 0 0 1 -2.627,2.032 L 32.8302,53.6126 32.6657,53.5699 18.151,49.8016 a 4.6932,4.6932 0 0 1 -3.3843,-4.6127 v -22.54 a 2.0993,2.0993 0 0 1 2.5761,-2.0445 l 17.7214,4.1321 a 6.8379,6.8379 0 0 0 3.105,0 L 55.8937,20.6043 A 2.0994,2.0994 0 0 1 58.47,22.649 v 24.65 a 2.1,2.1 0 0 1 -1.5719,2.032 l -19.5738,5.0817 a 2.9706,2.9706 0 0 1 -1.3844,0.0261 L 33.9743,53.91"
       id="path2" />
    <path
       fill="none"
       stroke="#000"
       stroke-linecap="round"
       stroke-linejoin="round"
       stroke-width="2.069"
       d="m 14.7451,24.4107 0.0168,-3.4268 a 1.2719,1.2719 0 0 1 0.9537,-1.2252 L 34.83,14.82 a 7.0928,7.0928 0 0 1 3.926,0.1089 l 18.5261,5.0135 a 1.6083,1.6083 0 0 1 1.1879,1.5528 v 2.6654"
       id="path4" />
  </g>
</g></svg>