<svg xmlns="http://www.w3.org/2000/svg" width="24" height="24" viewBox="0 0 24 24"> <g transform="translate(1.4366590278156526 0.0) scale(0.46630882774876375)">
  
  <g
     id="line"
     transform="translate(-15.693797,-9.5319626)">
    <polyline
       fill="none"
       stroke="#000"
       stroke-linecap="round"
       stroke-linejoin="round"
       stroke-miterlimit="10"
       stroke-width="2"
       points="28,53.875 28,59 25,60"
       id="polyline2" />
    <line
       x1="31"
       x2="28"
       y1="59"
       y2="59"
       fill="none"
       stroke="#000"
       stroke-linecap="round"
       stroke-linejoin="round"
       stroke-miterlimit="10"
       stroke-width="2"
       id="line4" />
    <polyline
       fill="none"
       stroke="#000"
       stroke-linecap="round"
       stroke-linejoin="round"
       stroke-miterlimit="10"
       stroke-width="2"
       points="36,53.875 36,59 33,60"
       id="polyline6" />
    <line
       x1="39"
       x2="36"
       y1="59"
       y2="59"
       fill="none"
       stroke="#000"
       stroke-linecap="round"
       stroke-linejoin="round"
       stroke-miterlimit="10"
       stroke-width="2"
       id="line8" />
    <path
       fill="none"
       stroke="#000"
       stroke-linecap="round"
       stroke-linejoin="round"
       stroke-miterlimit="10"
       stroke-width="2"
       d="M 43,49 C 41,52 34.0645,54.6585 26.5953,53.6317 22,53 15.125,49 17,42 21.2595,26.098 39,32 39,32 c 0,0 0.5,-15.75 9.75,-16.375 9.25,-0.625 -2,10.75 -2,10.75 0,0 4.25,-5.375 8.25,-3.375 4,2 -1.75,6 -4.875,6.5 C 47,30 57,28 59,30 c 2,2 0.375,3 -6,4 -6.375,1 7,-1 7,2 0,3 -7,4 -7,4 0,0 3.5,-0.75 5.25,2.125 C 60,45 52.25,45 52.25,45 c 0,0 7.75,3 5.75,6 -2,3 -11,-1 -11,-3"
       id="path10" />
    <path
       fill="none"
       stroke="#000"
       stroke-linecap="round"
       stroke-linejoin="round"
       stroke-miterlimit="10"
       stroke-width="2"
       d="m 25,17 c 0,0 -5,-2 -7,2 0,0 5,-14 13.75,-6 0,0 3.75,2 1,8 C 30,27 29,24.5 29.5,28.25"
       id="path12" />
    <path
       fill="none"
       stroke="#000"
       stroke-linecap="round"
       stroke-linejoin="round"
       stroke-miterlimit="10"
       stroke-width="2"
       d="m 24,20 c 0,0 2,2 -1.375,4.25 C 17,28 18.25,32.875 18.25,32.875"
       id="path14" />
  </g>
</g></svg>