<svg xmlns="http://www.w3.org/2000/svg" width="24" height="24" viewBox="0 0 24 24"> <g transform="translate(0.0 0.96952508802217) scale(0.4326211020027545)">
  
  <g
     id="line"
     transform="translate(-10.911602,-9.9883)">
    <path
       fill="none"
       stroke="#000"
       stroke-linecap="round"
       stroke-linejoin="round"
       stroke-width="2"
       d="m 11.9481,59.982 v -3 c 0,-4.9941 5.0078,-9 10,-9 q 9,7.5 18,0 a 10.2713,10.2713 0 0 1 4.0029,0.84"
       id="path2" />
    <path
       d="m 36.8211,29.982 a 2,2 0 1 1 -2,-2 2,2 0 0 1 2,2"
       id="path4" />
    <path
       d="m 28.8211,29.982 a 2,2 0 1 1 -2,-2 2,2 0 0 1 2,2"
       id="path6" />
    <path
       fill="none"
       stroke="#000"
       stroke-linecap="round"
       stroke-linejoin="round"
       stroke-width="2"
       d="m 27.9481,37.982 a 6.5535,6.5535 0 0 0 6,0"
       id="path8" />
    <path
       fill="none"
       stroke="#000"
       stroke-linecap="round"
       stroke-linejoin="round"
       stroke-width="2"
       d="m 54.9481,59.982 -1.9375,-13.3057 0.9375,-1.25 6,-2 5,-6 a 1.4142136,1.4142136 0 0 0 -2,-2 l -3,3 c -1,1 -4,0 -7,1 -3,1 -5,3.2325 -5,5 V 59.982"
       id="path10" />
    <path
       fill="none"
       stroke="#000"
       stroke-linecap="round"
       stroke-linejoin="round"
       stroke-width="2"
       d="m 13.6524,46.7129 c -3.7227,-5.8565 -0.628,-10.08 1.18,-14.7246 1.6357,-4.2 -0.209,-6.4512 1.291,-12.0342 1.4795,-5.5 7.2773,-8.9658 13.709,-8.9658 5.4,0 8,3 8,3 a 8.1321,8.1321 0 0 1 7.4052,8.0371 c 0.3867,7.18 1.0244,7.1523 3.4287,12.8222 a 11.6,11.6 0 0 1 0.7356,2.3707"
       id="path12" />
    <path
       fill="none"
       stroke="#000"
       stroke-linejoin="round"
       stroke-width="2"
       d="m 19.8321,30.9883 c 0,8 5,14 11,14 6,0 11,-6 11,-14 0,-5 -2,-8 -6,-12 -4,4 -16,9 -16,11 z"
       id="path14" />
  </g>
</g></svg>