<svg xmlns="http://www.w3.org/2000/svg" width="24" height="24" viewBox="0 0 24 24"> <g transform="translate(0.7640866311882757 0.0) scale(0.4494095881535633)">
  
  <g
     id="line"
     transform="translate(-10.997,-7.6884003)">
    <circle
       cx="22"
       cy="19.849001"
       transform="matrix(0.0096,-1,1,0.0096,1.9414,41.6581)"
       fill="none"
       fill-rule="evenodd"
       stroke="#000"
       stroke-linecap="round"
       stroke-linejoin="round"
       stroke-miterlimit="10"
       stroke-width="2"
       clip-rule="evenodd"
       id="ellipse2"
       r="3" />
    <line
       x1="26.005699"
       x2="46.055801"
       y1="12.1224"
       y2="12.1224"
       fill="none"
       stroke="#000"
       stroke-linecap="round"
       stroke-linejoin="round"
       stroke-miterlimit="10"
       stroke-width="2"
       id="line4" />
    <polyline
       fill="none"
       stroke="#000"
       stroke-linecap="round"
       stroke-linejoin="round"
       stroke-miterlimit="10"
       stroke-width="2"
       points="54.0163,12.1224 60,12.1224 60,28.1224 12,28.1224 12,12.1224 18.0318,12.1224"
       id="polyline6" />
    <line
       x1="22.0151"
       x2="22.0151"
       y1="8.6884003"
       y2="18.997601"
       fill="none"
       fill-rule="evenodd"
       stroke="#000"
       stroke-linecap="round"
       stroke-linejoin="round"
       stroke-miterlimit="10"
       stroke-width="2"
       clip-rule="evenodd"
       id="line8" />
    <circle
       cx="50.000599"
       cy="19.849001"
       transform="matrix(0.0096,-1,1,0.0096,29.6742,69.6575)"
       fill="none"
       fill-rule="evenodd"
       stroke="#000"
       stroke-linecap="round"
       stroke-linejoin="round"
       stroke-miterlimit="10"
       stroke-width="2"
       clip-rule="evenodd"
       id="ellipse10"
       r="3" />
    <line
       x1="50.0158"
       x2="50.0158"
       y1="8.6884003"
       y2="18.997601"
       fill="none"
       fill-rule="evenodd"
       stroke="#000"
       stroke-linecap="round"
       stroke-linejoin="round"
       stroke-miterlimit="10"
       stroke-width="2"
       clip-rule="evenodd"
       id="line12" />
    <path
       fill="none"
       stroke="#000"
       stroke-linecap="round"
       stroke-linejoin="round"
       stroke-miterlimit="10"
       stroke-width="2"
       d="m 34.3355,38.092 c 0.5248,-2.5644 2.7937,-4.4936 5.5134,-4.4936 v 0 c 1.5539,0 2.9609,0.63 3.9793,1.6484 1.5843,1.5842 1.438,4.2167 -0.0484,5.8928 l -9.5586,10.7799 h 4.7601"
       id="path14" />
    <polyline
       fill="none"
       stroke="#000"
       stroke-linecap="round"
       stroke-linejoin="round"
       stroke-miterlimit="10"
       stroke-width="2"
       points="23.2764,37.3982 28.3485,33.5984 28.3485,51.9195"
       id="polyline16" />
    <polyline
       fill="none"
       stroke="#000"
       stroke-linecap="round"
       stroke-linejoin="round"
       stroke-miterlimit="10"
       stroke-width="2"
       points="11.997,28.0918 11.997,60.0918 43.6564,60.0864 59.997,48.0382 59.997,28.0918"
       id="polyline18" />
    <polyline
       fill="none"
       stroke="#000"
       stroke-linecap="round"
       stroke-linejoin="round"
       stroke-miterlimit="10"
       stroke-width="2"
       points="59.7462,48.0382 43.1384,48.0382 43.1384,53.5175"
       id="polyline20" />
  </g>
</g></svg>