<svg xmlns="http://www.w3.org/2000/svg" width="24" height="24" viewBox="0 0 24 24"> <g transform="scale(0.4)">
  
  <g
     id="line"
     transform="translate(-6,-6)">
    <path
       fill="none"
       stroke="#000"
       stroke-linecap="round"
       stroke-linejoin="round"
       stroke-miterlimit="10"
       stroke-width="2"
       d="m 65,36 c 0,1.61 -0.13,3.19 -0.39,4.73 -0.71,4.39 -2.42,8.45 -4.89,11.94 0,0 0,0 0,0.01 C 55.48,58.71 48.99,63.05 41.48,64.48 39.7,64.82 37.87,65 36,65 35.5,65 35,64.99 34.51,64.96 h -0.07 c -0.47,-0.03 -0.94,-0.06 -1.41,-0.11 -0.04,0 -0.08,-0.01 -0.1201,-0.01 -0.39,-0.04 -0.78,-0.09 -1.17,-0.15 -0.11,-0.02 -0.23,-0.03 -0.34,-0.05 -0.3,-0.05 -0.59,-0.1 -0.89,-0.16 -0.47,-0.09 -0.94,-0.19 -1.41,-0.31 -0.19,-0.04 -0.39,-0.09 -0.58,-0.14 -0.26,-0.07 -0.52,-0.15 -0.78,-0.23 -0.23,-0.07 -0.47,-0.14 -0.71,-0.22 -0.2401,-0.0699 -0.47,-0.15 -0.7,-0.24 -0.19,-0.07 -0.38,-0.14 -0.57,-0.21 -0.11,-0.03 -0.21,-0.07 -0.32,-0.12 -0.39,-0.16 -0.78,-0.32 -1.16,-0.4901 -0.52,-0.23 -1.03,-0.48 -1.54,-0.74 -0.23,-0.12 -0.45,-0.24 -0.68,-0.37 -0.26,-0.14 -0.51,-0.28 -0.76,-0.43 -0.28,-0.17 -0.56,-0.33 -0.84,-0.51 -0.08,-0.05 -0.16,-0.11 -0.2401,-0.16 -0.39,-0.25 -0.78,-0.52 -1.15,-0.79 -0.32,-0.22 -0.63,-0.46 -0.93,-0.69 -0.03,-0.02 -0.05,-0.04 -0.08,-0.0699 -0.27,-0.21 -0.53,-0.42 -0.78,-0.64 -0.13,-0.1 -0.26,-0.21 -0.38,-0.32 -0.1,-0.09 -0.19,-0.17 -0.29,-0.26 -0.02,-0.01 -0.03,-0.02 -0.04,-0.03 -0.03,-0.03 -0.06,-0.06 -0.09,-0.08 -0.02,-0.01 -0.03,-0.03 -0.04,-0.04 -0.02,-0.01 -0.03,-0.02 -0.04,-0.04 -0.13,-0.11 -0.25,-0.22 -0.37,-0.34 -0.13,-0.12 -0.25,-0.23 -0.36,-0.35 -0.02,-0.02 -0.04,-0.04 -0.05,-0.06 -0.1,-0.1 -0.2,-0.19 -0.3,-0.28 -0.1517,-0.1517 -0.2917,-0.3225 -0.4401,-0.4795 -0.0066,-0.0068 -0.0134,-0.0137 -0.02,-0.0205 8e-4,4e-4 0.0015,9e-4 0.0023,0.0013 -0.3342,-0.3544 -0.6707,-0.7049 -0.9923,-1.0813 -0.24,-0.28 -0.48,-0.57 -0.71,-0.87 -0.3199,-0.41 -0.6299,-0.82 -0.93,-1.25 -2.46,-3.51 -4.16,-7.59 -4.87,-12.01 C 7.12,39.11 7,37.57 7,36 7,29.83 8.92,24.11 12.22,19.41 15.41,14.83 19.9,11.22 25.15,9.11 28.5,7.74 32.16,7 36,7 c 3.83,0 7.49,0.74 10.83,2.1 2.52,1 4.86,2.36 6.97,4.02 0.56,0.43 1.11,0.89 1.64,1.38 h 0.01 c 0.53,0.48 1.04,0.98 1.53,1.5 0.75,0.77 1.44,1.58 2.09,2.44 0.21,0.28 0.43,0.57 0.63,0.86 v 0.01 c 0,0 0,-0.01 0.01,0 0.5,0.69 0.97,1.42 1.39,2.17 0.15,0.25 0.29,0.5 0.4301,0.76 0.17,0.31 0.33,0.61 0.47,0.92 0.11,0.21 0.21,0.42 0.31,0.64 0.16,0.32 0.3,0.64 0.43,0.96 0.16,0.36 0.3,0.72 0.43,1.09 0.11,0.28 0.21,0.56 0.3,0.85 0.08,0.23 0.16,0.47 0.2401,0.72 0.1,0.32 0.19,0.64 0.28,0.96 0.06,0.23 0.12,0.45 0.17,0.68 0.1801,0.71 0.33,1.42 0.44,2.15 0.04,0.21 0.07,0.42 0.1,0.64 0.05,0.32 0.09,0.65 0.12,0.97 0.02,0.14 0.04,0.28 0.05,0.41 0.03,0.35 0.06,0.7 0.07,1.06 0.02,0.15 0.03,0.29 0.03,0.44 C 64.99,35.15 65,35.57 65,36 Z"
       id="path2" />
    <path
       fill="#000"
       stroke="none"
       d="m 34.2366,28.0728 -6.1555,4.4722 c -1.0515,0.7639 -1.4914,2.118 -1.0898,3.3541 l 2.3512,7.2362 c 0.4016,1.2361 1.5535,2.0729 2.8532,2.0729 h 7.6086 c 1.2997,0 2.4515,-0.8369 2.8532,-2.0729 l 2.3512,-7.2362 C 45.4103,34.663 44.9704,33.3089 43.9189,32.545 l -6.1555,-4.4722 c -1.0515,-0.7639 -2.4753,-0.7639 -3.5268,0 z"
       id="path4" />
    <path
       fill="#000"
       stroke="none"
       d="m 46.28,10.18 -8.41,4.12 c -0.59,0.28 -1.23,0.42 -1.87,0.41 -0.57,-0.0099 -1.14,-0.14 -1.68,-0.39 l -8.61,-4.1 C 25.29,10.02 25.07,9.55 25.15,9.11 28.5,7.74 32.16,7 36,7 c 3.83,0 7.49,0.74 10.83,2.1 0.08,0.43 -0.13,0.88 -0.55,1.08 z"
       id="path6" />
    <path
       fill="#000"
       stroke="none"
       d="M 30.51,64.48 C 30.04,64.39 29.57,64.29 29.1,64.17 28.91,64.13 28.71,64.08 28.52,64.03 28.26,63.96 28,63.88 27.74,63.8 27.51,63.73 27.27,63.66 27.03,63.58 26.7899,63.5101 26.56,63.43 26.33,63.34 26.14,63.27 25.95,63.2 25.76,63.13 25.65,63.1 25.55,63.06 25.44,63.01 25.05,62.85 24.66,62.69 24.28,62.5199 23.758,62.2895 23.2467,62.0393 22.7414,61.7789 22.5115,61.661 22.286,61.5366 22.0597,61.4128 21.804,61.2721 21.5507,61.1279 21.2996,60.9796 21.0173,60.8137 20.7361,60.647 20.4599,60.4719 c -0.0818,-0.0522 -0.1609,-0.108 -0.2422,-0.161 -3.1296,-2.0298 -5.849,-4.6387 -7.9878,-7.691 0.19,-0.34 0.58,-0.55 1.01,-0.5 l 9.34,1.14 c 0.64,0.08 1.24,0.3 1.76,0.65 0.49,0.33 0.91,0.76 1.22,1.27 l 2.82,4.59 2.19,3.58 C 30.79,63.71 30.76,64.16 30.51,64.48 Z"
       id="path8" />
    <path
       fill="#000"
       stroke="none"
       d="m 15.16,31.37 c -0.14,0.58 -0.41,1.13 -0.79,1.61 l -5.9,7.3 C 8.19,40.62 7.74,40.74 7.36,40.61 7.12,39.11 7,37.57 7,36 7,29.83 8.92,24.11 12.22,19.41 c 0.42,0.05 0.79,0.35 0.88,0.79 l 2.08,9.33 c 0.14,0.61 0.13,1.24 -0.02,1.84 z"
       id="path10" />
    <path
       fill="#000"
       stroke="none"
       d="m 59.72,52.67 c 0,0 0,0 0,0.01 -4.24,6.03 -10.73,10.37 -18.24,11.8 -0.26,-0.32 -0.29,-0.78 -0.07,-1.15 l 4.99,-8.14 c 0.3199,-0.52 0.74,-0.95 1.24,-1.28 0.52,-0.34 1.11,-0.56 1.74,-0.64 l 9.31,-1.14 c 0.44,-0.05 0.84,0.18 1.03,0.54 z"
       id="path12" />
    <path
       fill="#000"
       stroke="none"
       d="m 65,36 c 0,1.61 -0.13,3.19 -0.39,4.73 -0.36,0.08 -0.75,-0.04 -1,-0.35 l -5.25,-6.5 -0.73,-0.9 c -0.78,-0.96 -1.08,-2.23 -0.8,-3.45 l 1.06,-4.75 v -0.01 l 1.04,-4.69 c 0.08,-0.39 0.39,-0.6899 0.77,-0.77 0,-0.01 0,-0.01 0.01,0 0.5,0.69 0.97,1.42 1.39,2.17 0.15,0.25 0.29,0.5 0.4301,0.76 0.17,0.31 0.33,0.61 0.47,0.92 0.11,0.21 0.21,0.42 0.31,0.64 0.16,0.32 0.3,0.64 0.43,0.96 0.16,0.36 0.3,0.72 0.43,1.09 0.11,0.28 0.21,0.56 0.3,0.85 0.08,0.23 0.16,0.47 0.2401,0.72 0.1,0.32 0.19,0.64 0.28,0.96 0.06,0.23 0.12,0.45 0.17,0.68 0.1801,0.71 0.33,1.42 0.44,2.15 0.04,0.21 0.07,0.42 0.1,0.64 0.05,0.32 0.09,0.65 0.12,0.97 0.02,0.14 0.04,0.28 0.05,0.41 0.03,0.35 0.06,0.7 0.07,1.06 0.02,0.15 0.03,0.29 0.03,0.44 C 64.99,35.15 65,35.57 65,36 Z"
       id="path14" />
    <line
       x1="36"
       x2="36"
       y1="14.7122"
       y2="27.499901"
       fill="none"
       stroke="#000"
       stroke-linecap="round"
       stroke-linejoin="round"
       stroke-miterlimit="10"
       stroke-width="2"
       id="line16" />
    <line
       x1="44.988899"
       x2="56.8125"
       y1="33.9902"
       y2="31.326599"
       fill="none"
       stroke="#000"
       stroke-linecap="round"
       stroke-linejoin="round"
       stroke-miterlimit="10"
       stroke-width="2"
       id="line18" />
    <line
       x1="41.590599"
       x2="47.6376"
       y1="44.617199"
       y2="53.912601"
       fill="none"
       stroke="#000"
       stroke-linecap="round"
       stroke-linejoin="round"
       stroke-miterlimit="10"
       stroke-width="2"
       id="line20" />
    <line
       x1="30.393999"
       x2="24.343399"
       y1="44.6059"
       y2="53.912601"
       fill="none"
       stroke="#000"
       stroke-linecap="round"
       stroke-linejoin="round"
       stroke-miterlimit="10"
       stroke-width="2"
       id="line22" />
    <line
       x1="27.001301"
       x2="15.1636"
       y1="34.018799"
       y2="31.372801"
       fill="none"
       stroke="#000"
       stroke-linecap="round"
       stroke-linejoin="round"
       stroke-miterlimit="10"
       stroke-width="2"
       id="line24" />
  </g>
</g></svg>