<svg xmlns="http://www.w3.org/2000/svg" width="24" height="24" viewBox="0 0 24 24"> <g transform="translate(0.5936851868504966 0.0) scale(0.47527951435780796)">
  
  <g
     id="line"
     transform="translate(-12.02352,-10.4618)">
    <path
       fill="none"
       stroke="#000"
       stroke-linecap="round"
       stroke-linejoin="round"
       stroke-width="2"
       d="m 16.2,59.9584 c 0,0 -2.0938,-13.61 10.4689,-13.61 3.3416,2.2277 6.2043,3.7671 9.4221,3.7605 H 35.96 c 3.2177,0.0066 6.0806,-1.5328 9.4221,-3.7605 12.5627,0 10.4689,13.61 10.4689,13.61"
       id="path2" />
    <path
       fill="none"
       stroke="#000"
       stroke-linecap="round"
       stroke-linejoin="round"
       stroke-width="2"
       d="m 51.2159,59.9584 c -5.7322,-8.0208 -6.9511,-4.5345 -15.19,-4.5345 -7.8374,0 -9.31,-3.4863 -15.0426,4.5345"
       id="path4" />
    <path
       fill="none"
       stroke="#000"
       stroke-linecap="round"
       stroke-linejoin="round"
       stroke-width="2"
       d="m 19.2447,27.5332 c 0,0 -9.8778,22.0215 -4.7355,23.9245"
       id="path6" />
    <path
       fill="none"
       stroke="#000"
       stroke-linecap="round"
       stroke-linejoin="round"
       stroke-width="2"
       d="m 52.8141,27.5626 c 0.3992,0.896 9.7523,22.0251 4.725,23.8941"
       id="path8" />
    <path
       fill="none"
       stroke="#000"
       stroke-linecap="round"
       stroke-linejoin="round"
       stroke-width="2"
       d="m 26.1,37.4618 c -3,0 -4,-7 -4,-14 0,-6 5,-12 14,-12 9,0 14,6 14,12 0,7 -1,14 -4,14"
       id="path10" />
    <path
       d="m 41.9725,29.4618 a 2,2 0 1 1 -2,-2 2,2 0 0 1 2,2"
       id="path12" />
    <path
       d="m 33.9725,29.4618 a 2,2 0 1 1 -2,-2 2,2 0 0 1 2,2"
       id="path14" />
    <path
       fill="none"
       stroke="#000"
       stroke-linejoin="round"
       stroke-width="2"
       d="M 37.9725,22.5611 A 10.22,10.22 0 0 1 27.1672,22.264 21.15,21.15 0 0 0 25.036,30.4618 c -0.1015,7.999 4.9365,14 11,14 5.9365,0 11.0635,-6 11.0635,-14 a 26.5183,26.5183 0 0 0 -2.2116,-9.2336 c 0,0 -0.8779,-1.9692 -6.9154,1.3329 z"
       id="path16" />
    <path
       fill="none"
       stroke="#000"
       stroke-linecap="round"
       stroke-linejoin="round"
       stroke-width="2"
       d="m 32.9725,37.7118 a 8.2741,8.2741 0 0 0 6,0"
       id="path18" />
    <path
       fill="none"
       stroke="#000"
       stroke-linecap="round"
       stroke-linejoin="round"
       stroke-width="2"
       d="m 27.8283,17.1677 c 0,0 7.5751,3.5795 14.9005,0"
       id="path20" />
  </g>
</g></svg>