<svg xmlns="http://www.w3.org/2000/svg" width="24" height="24" viewBox="0 0 24 24"> <g transform="translate(2.521414050996569 0.0) scale(0.47392929745017154)">
  
  <g
     id="line"
     transform="translate(-16,-10.294536)">
    <path
       fill="none"
       stroke="#000"
       stroke-linecap="round"
       stroke-linejoin="round"
       stroke-width="2"
       d="m 35.1773,17.1746 c -5.8765,0.5287 -10.5159,6.6407 -10.5159,14.1212 0,7.8277 5.0764,14.1733 11.3386,14.1733 6.2622,0 11.3387,-6.3456 11.3387,-14.1733 a 17.2594,17.2594 0 0 0 -0.7674,-5.0941 9.9175,9.9175 0 0 1 -11.394,-9.0271 z"
       id="path2" />
    <path
       fill="none"
       stroke="#000"
       stroke-linecap="round"
       stroke-linejoin="round"
       stroke-width="2"
       d="m 45.3836,25.2821 a 2,2 0 0 0 -1.3286,-2.18 1.9753,1.9753 0 0 0 0.3775,-0.8915 1.9931,1.9931 0 0 0 -2.79,-2.1141 1.9923,1.9923 0 0 0 -3.3909,-1.3058 1.9922,1.9922 0 0 0 -2.7713,-0.4814"
       id="path4" />
    <path
       fill="none"
       stroke="#000"
       stroke-linecap="round"
       stroke-linejoin="round"
       stroke-width="2"
       d="m 35.1773,17.1746 q 0.0408,0.48 0.1262,0.9464 a 9.9978,9.9978 0 0 0 9.4213,8.1874 q 0.2037,0.0083 0.4093,0.0082 a 10.0162,10.0162 0 0 0 1.4372,-0.1149"
       id="path6" />
    <path
       fill="none"
       stroke="#000"
       stroke-linecap="round"
       stroke-linejoin="round"
       stroke-width="2"
       d="m 32,38.3166 c 0,0 8,-3.11 8,0 0,6.2424 -8,0 -8,0 z"
       id="path8" />
    <line
       x1="39.433201"
       x2="35.133999"
       y1="40.033199"
       y2="40.033199"
       fill="none"
       stroke="#000"
       stroke-linecap="round"
       stroke-linejoin="round"
       stroke-width="2"
       id="line10" />
    <line
       x1="36.943501"
       x2="36.943501"
       y1="40.033199"
       y2="37.107498"
       fill="none"
       stroke="#000"
       stroke-linecap="round"
       stroke-linejoin="round"
       stroke-width="1.5"
       id="line12" />
    <path
       fill="none"
       stroke="#000"
       stroke-linecap="round"
       stroke-linejoin="round"
       stroke-width="2"
       d="M 26.6519,48.9428 C 29.326,53.63 32.663,55.9324 36,55.9121 l 2,4.0179 2.0029,-5.1777 a 15.6376,15.6376 0 0 0 5.3451,-5.81"
       id="path14" />
    <line
       x1="43.549599"
       x2="42.7939"
       y1="57.257999"
       y2="59.920799"
       fill="none"
       stroke="#000"
       stroke-linecap="round"
       stroke-linejoin="round"
       stroke-width="2"
       id="line16" />
    <polyline
       fill="none"
       stroke="#000"
       stroke-linecap="round"
       stroke-linejoin="round"
       stroke-width="2"
       points="20.216 59.889 22.3 56.326 23.828 59.889"
       id="polyline18" />
    <path
       d="m 55,60.935 a 1,1 0 0 1 -1,-1 v -3 c 0,-4.4517 -4.4961,-7.8105 -8.6518,-7.9922 -6.2051,5.0117 -12.4912,5.0117 -18.6963,0 C 22.4961,49.1245 18,52.4833 18,56.935 v 3 a 1,1 0 0 1 -2,0 v -3 c 0,-5.3247 5.14,-9.9976 11,-10 v 0 a 0.9994,0.9994 0 0 1 0.64,0.2319 c 5.625,4.6875 11.0947,4.6875 16.72,0 A 0.9994,0.9994 0 0 1 45,46.935 h 5e-4 C 50.86,46.9374 56,51.61 56,56.935 v 3 a 1,1 0 0 1 -1,1 z"
       id="path20" />
    <path
       fill="none"
       stroke="#000"
       stroke-miterlimit="10"
       stroke-width="1.5"
       d="m 42,29.935 a 2,2 0 1 1 -2,-2 2.0007,2.0007 0 0 1 2,2"
       id="path22" />
    <path
       fill="none"
       stroke="#000"
       stroke-miterlimit="10"
       stroke-width="1.5"
       d="m 34,29.935 a 2,2 0 1 1 -2,-2 2.0007,2.0007 0 0 1 2,2"
       id="path24" />
    <path
       fill="none"
       stroke="#000"
       stroke-linecap="round"
       stroke-linejoin="round"
       stroke-width="2"
       d="m 48.0364,20.6121 c 3.4146,0.1863 4.8648,2.27 5.26,3.741 -2.8809,-0.5155 -3.37,1.5587 -3.37,1.5587 -0.1412,6.4506 -1.2038,12.46 -3.9834,12.46"
       id="path26" />
    <path
       fill="none"
       stroke="#000"
       stroke-linecap="round"
       stroke-linejoin="round"
       stroke-width="2"
       d="m 22.1624,23.7859 c -1.5605,-0.13 -4.0343,-2.7451 -3.5986,-3.954 4.5956,-1.089 6.9979,-4.4539 13.6841,-5.0564 a 2.8884,2.8884 0 0 0 -0.8363,-2.9536 c 1.6367,-0.9116 6.3473,-1.01 7.3072,3.2529"
       id="path28" />
    <path
       fill="none"
       stroke="#000"
       stroke-linecap="round"
       stroke-linejoin="round"
       stroke-width="2"
       d="m 25.9433,38.3714 c -3.9772,-0.12 -5.3519,-11.8735 -3.797,-14.5173"
       id="path30" />
  </g>
</g></svg>