<svg xmlns="http://www.w3.org/2000/svg" width="24" height="24" viewBox="0 0 24 24"> <g transform="translate(0.25286487376996014 0.0) scale(0.4804207044108526)">
  
  <g
     id="line"
     transform="translate(-10.916966,-11.88012)">
    <path
       fill="none"
       stroke="#000"
       stroke-linecap="round"
       stroke-linejoin="round"
       stroke-miterlimit="10"
       stroke-width="2"
       d="m 48.2977,17.3576 c 0,0 4.0466,-4.7508 10.5228,-4.4651 v 5.8571 c 0,0 -3.1429,-0.2857 -5.7619,3"
       id="path2" />
    <path
       fill="none"
       stroke="#000"
       stroke-linecap="round"
       stroke-linejoin="round"
       stroke-miterlimit="10"
       stroke-width="2"
       d="m 21.0821,26.6679 c 0,0 -1.6306,1.0684 -0.75,2.0833 l 22.6667,22.6667 c 0,0 1,1.1667 2.1667,-0.75"
       id="path4" />
    <path
       fill="none"
       stroke="#000"
       stroke-linecap="round"
       stroke-linejoin="round"
       stroke-miterlimit="10"
       stroke-width="2"
       d="m 24,24 c 0,0 8,-6 17,-2 l 3,-3 7.1483,6.849 -2.6127,3.0195 c 0,0 5.1386,9.3265 -1.1003,18.7815 z"
       id="path6" />
    <path
       fill="none"
       stroke="#000"
       stroke-linecap="round"
       stroke-linejoin="round"
       stroke-miterlimit="10"
       stroke-width="2"
       d="m 20.7513,41.9211 c -0.9549,0.9549 -2.5745,0.8797 -3.6198,-0.1655 -1.0453,-1.0452 -1.1185,-2.6668 -0.1636,-3.6217 0,0 1.1397,-1.1811 4.8354,-1.683 0,0 0.7352,-0.1359 0.6299,0.5727 -0.5019,3.6957 -1.6819,4.8975 -1.6819,4.8975"
       id="path8" />
    <path
       fill="none"
       stroke="#000"
       stroke-miterlimit="10"
       stroke-width="2"
       d="m 16.3667,53.4705 c -0.9549,0.9549 -2.5745,0.8797 -3.6198,-0.1655 -1.0453,-1.0453 -1.1185,-2.6668 -0.1636,-3.6217 0,0 1.1397,-1.1812 4.8354,-1.683 0,0 0.7352,-0.1359 0.6299,0.5727 -0.5018,3.6957 -1.6819,4.8975 -1.6819,4.8975"
       id="path10" />
    <path
       fill="none"
       stroke="#000"
       stroke-miterlimit="10"
       stroke-width="2"
       d="m 23.0674,60.1712 c -0.9549,0.9549 -2.5745,0.8797 -3.6198,-0.1655 -1.0453,-1.0452 -1.1185,-2.6668 -0.1636,-3.6217 0,0 1.1397,-1.1811 4.8354,-1.683 0,0 0.7352,-0.1359 0.6299,0.5727 -0.5018,3.6957 -1.6819,4.8975 -1.6819,4.8975"
       id="path12" />
    <path
       fill="none"
       stroke="#000"
       stroke-miterlimit="10"
       stroke-width="2"
       d="m 27.2838,48.4537 c -0.9549,0.9549 -2.5745,0.8797 -3.6198,-0.1655 -1.0453,-1.0453 -1.1185,-2.6668 -0.1636,-3.6217 0,0 1.1397,-1.1811 4.8354,-1.683 0,0 0.7352,-0.1359 0.6299,0.5727 -0.5019,3.6957 -1.6819,4.8975 -1.6819,4.8975"
       id="path14" />
    <path
       fill="none"
       stroke="#000"
       stroke-miterlimit="10"
       stroke-width="2"
       d="m 33.8206,54.9905 c -0.9549,0.9549 -2.5745,0.8797 -3.6198,-0.1655 -1.0453,-1.0453 -1.1185,-2.6668 -0.1636,-3.6217 0,0 1.1397,-1.1812 4.8354,-1.683 0,0 0.7352,-0.1359 0.6299,0.5727 -0.5018,3.6957 -1.6819,4.8975 -1.6819,4.8975"
       id="path16" />
  </g>
</g></svg>