<svg xmlns="http://www.w3.org/2000/svg" width="24" height="24" viewBox="0 0 24 24"> <g transform="translate(3.428541873375991 0.0) scale(0.45122435781279374)">
  
  <g
     id="line"
     transform="translate(-15.796,-9.004384)">
    <line
       x1="38.677502"
       x2="34.026901"
       y1="29.0791"
       y2="28.067499"
       fill="none"
       stroke="#000"
       stroke-linecap="round"
       stroke-linejoin="round"
       stroke-width="2"
       id="line2" />
    <path
       fill="none"
       stroke="#000"
       stroke-linecap="round"
       stroke-linejoin="round"
       stroke-width="2"
       d="m 27.7411,38.49 -1.2329,6.2363 a 8.6041,8.6041 0 0 1 -1.1925,3.066 L 22.6339,53.48 a 2.03,2.03 0 0 1 -2.4363,0.8335 c -0.7188,-0.3625 -0.8282,-1.4934 -0.3865,-2.417 l 2.6143,-6.9494 0.5052,-4.0976"
       id="path4" />
    <path
       fill="none"
       stroke="#000"
       stroke-linecap="round"
       stroke-linejoin="round"
       stroke-width="2"
       d="m 28.5423,33.5552 5.5574,0.96 a 2.3433,2.3433 0 0 1 1.8726,1.8726 l 1.87,8.96 a 1.7244,1.7244 0 0 1 -1.0307,2.2671 2.0818,2.0818 0 0 1 -2.27,-1.502 l -2.3905,-7.82 -5.1687,-0.5111 c -4.4727,-0.402 -6.063,-1.6708 -5.1868,-6.1563 0.1544,-0.7906 2.5621,-11.0379 2.5621,-11.0379 a 13.8467,13.8467 0 0 1 3.629,-0.9979 c 1.4705,0 3.1637,1.1238 2.7171,3.7685 -0.1726,1.0225 -1.1756,6.4169 -1.1756,6.4169"
       id="path6" />
    <polyline
       fill="none"
       stroke="#000"
       stroke-linecap="round"
       stroke-linejoin="round"
       stroke-width="2"
       points="52.788 45.107 41.915 45.107 41.915 50.728 30.481 50.728 30.481 56.349 19.242 56.349 19.242 61.193"
       id="polyline8" />
    <path
       fill="none"
       stroke="#000"
       stroke-linecap="round"
       stroke-linejoin="round"
       stroke-width="2"
       d="m 16.796,31.303 c 0,0 1.4482,-6.0251 1.8065,-7.3793 A 2.3092,2.3092 0 0 1 20.03,22.2573 l 4.3275,-1.6693"
       id="path10" />
    <path
       fill="none"
       stroke="#000"
       stroke-linecap="round"
       stroke-linejoin="round"
       stroke-width="2"
       d="m 28.2635,13.4056 a 3.4017,3.4017 0 1 1 3.4017,3.4016"
       id="path12" />
  </g>
</g></svg>