<svg xmlns="http://www.w3.org/2000/svg" width="24" height="24" viewBox="0 0 24 24"> <g transform="translate(0.0 0.09363780620019391) scale(0.39270437734806535)">
  
  <g
     id="line"
     transform="translate(-4.9136104,-5.4261035)">
    <path
       fill="none"
       stroke="#000"
       stroke-miterlimit="10"
       stroke-width="2"
       d="M 48.1546,23.505 C 44.7267,19.9528 44.1262,14.7214 46.2864,10.5716 L 42.6855,6.8401 6.3276,41.9262 l 3.8016,3.9394 c 4.0722,-1.5735 8.8681,-0.6711 12.09,2.6676 3.2219,3.3387 3.9531,8.1636 2.2356,12.1773 l 3.8016,3.9394 36.3579,-35.0861 -3.6009,-3.7315 c -4.2242,2.0111 -9.4309,1.2249 -12.8588,-2.3273 z"
       id="path2" />
    <circle
       cx="37.122299"
       cy="22.122"
       transform="matrix(0.7098,-0.7044,0.7044,0.7098,-4.8096,32.5704)"
       fill="#000"
       stroke="none"
       id="ellipse4"
       r="2" />
    <circle
       cx="43.611599"
       cy="28.660601"
       transform="matrix(0.7098,-0.7044,0.7044,0.7098,-7.5322,39.0393)"
       fill="#000"
       stroke="none"
       id="ellipse6"
       r="2" />
    <circle
       cx="50.101002"
       cy="35.1992"
       transform="matrix(0.7098,-0.7044,0.7044,0.7098,-10.2548,45.5083)"
       fill="#000"
       stroke="none"
       id="ellipse8"
       r="2" />
  </g>
</g></svg>