<svg xmlns="http://www.w3.org/2000/svg" width="24" height="24" viewBox="0 0 24 24"> <g transform="translate(2.5815130799237096 0.0) scale(0.4709243460038145)">
  
  <g
     id="line"
     transform="translate(-15.9707,-9.9729)">
    <path
       fill="none"
       stroke="#000"
       stroke-linecap="round"
       stroke-linejoin="round"
       stroke-width="2"
       d="m 18.9312,46.6975 c -3.7227,-5.8565 -0.628,-10.08 1.18,-14.7246 1.6357,-4.2 -0.209,-6.4512 1.291,-12.0342 1.4795,-5.5 7.2773,-8.9658 13.709,-8.9658 5.4,0 8,3 8,3 a 8.1321,8.1321 0 0 1 7.4049,8.0371 c 0.3867,7.18 1.0244,7.1523 3.4287,12.8222 a 11.5986,11.5986 0 0 1 -1.4463,11.6631"
       id="path2" />
    <path
       fill="none"
       stroke="#000"
       stroke-linecap="round"
       stroke-linejoin="round"
       stroke-width="2"
       d="m 33.1109,38.2229 a 6.375,6.375 0 0 0 6,0"
       id="path4" />
    <path
       fill="none"
       stroke="#000"
       stroke-linejoin="round"
       stroke-width="2"
       d="m 25.1109,30.9729 c 0,8 5,14 11,14 6,0 11,-6 11,-14 0,-5 -2,-8 -6,-12 -4,4 -16,9 -16,11 z"
       id="path6" />
    <path
       d="m 42.1109,29.9729 a 2,2 0 1 1 -2,-2 2,2 0 0 1 2,2"
       id="path8" />
    <path
       d="m 34.1109,29.9729 a 2,2 0 1 1 -2,-2 2,2 0 0 1 2,2"
       id="path10" />
    <path
       fill="none"
       stroke="#000"
       stroke-linecap="round"
       stroke-miterlimit="10"
       stroke-width="2"
       d="m 20.5873,53.6014 a 11.8957,11.8957 0 0 1 4.048,-3.3589 11.7524,11.7524 0 0 1 3.3071,-1.088"
       id="path12" />
    <path
       fill="none"
       stroke="#000"
       stroke-linecap="round"
       stroke-miterlimit="10"
       stroke-width="2"
       d="m 29.2463,49.6409 a 10.3571,10.3571 0 0 0 -6.7707,7.5255"
       id="path14" />
    <path
       fill="none"
       stroke="#000"
       stroke-linecap="round"
       stroke-miterlimit="10"
       stroke-width="2"
       d="m 51.6769,53.8446 a 11.8957,11.8957 0 0 0 -4.048,-3.3589 11.7524,11.7524 0 0 0 -3.3071,-1.088"
       id="path16" />
    <path
       fill="none"
       stroke="#000"
       stroke-linecap="round"
       stroke-miterlimit="10"
       stroke-width="2"
       d="M 43.0179,49.8841 A 10.3575,10.3575 0 0 1 49.7887,57.41"
       id="path18" />
    <path
       fill="none"
       stroke="#000"
       stroke-linecap="round"
       stroke-miterlimit="10"
       stroke-width="2"
       d="m 29.9791,50.5829 a 21.0149,21.0149 0 0 0 -4.2927,6.2814 20.5707,20.5707 0 0 0 -1.0428,2.9617"
       id="path20" />
    <path
       fill="none"
       stroke="#000"
       stroke-linecap="round"
       stroke-linejoin="round"
       stroke-width="2"
       d="m 16.9707,59.9365 v -3 c 0,-4.9941 5.0078,-9 10,-9 q 9,7.5 18,0 c 4.9941,0 10,4.0059 10,9 v 3"
       id="path22" />
    <path
       fill="none"
       stroke="#000"
       stroke-linecap="round"
       stroke-miterlimit="10"
       stroke-width="2"
       d="m 42.3918,50.5829 a 26.4349,26.4349 0 0 1 4.19,6.3125 26.1039,26.1039 0 0 1 1.1949,2.9984"
       id="path24" />
    <path
       fill="none"
       stroke="#000"
       stroke-linecap="round"
       stroke-linejoin="round"
       stroke-width="2"
       d="m 31.1227,59.3806 -1.027,-1.8948 a 2.36,2.36 0 0 0 1.9771,-2.0471 h 7.8545 a 2.36,2.36 0 0 0 1.9771,2.0471 L 40.91,59.3212"
       id="path26" />
    <path
       fill="none"
       stroke="#000"
       stroke-linejoin="round"
       stroke-width="2"
       d="m 25.1261,29.2078 a 6.47,6.47 0 0 0 3.8171,-1.1031 c 1.4077,-1.1888 3.11,-2.1743 5.5654,-0.3989 a 3.1567,3.1567 0 0 0 1.5278,0.6005 3.1567,3.1567 0 0 0 1.5277,-0.6005 c 2.4554,-1.7754 4.1577,-0.79 5.5655,0.3989 a 6.47,6.47 0 0 0 3.8171,1.1031 l -0.0728,1.53 a 6.47,6.47 0 0 0 -3.8171,1.1031 c -1.4077,1.1888 -3.11,2.1743 -5.5654,0.3989 a 3.1567,3.1567 0 0 0 -1.5278,-0.6005 3.1567,3.1567 0 0 0 -1.5277,0.6005 c -2.4554,1.7754 -4.1577,0.79 -5.5655,-0.3989 a 6.47,6.47 0 0 0 -3.8171,-1.1031 z"
       id="path28" />
  </g>
</g></svg>