<svg xmlns="http://www.w3.org/2000/svg" width="24" height="24" viewBox="0 0 24 24"> <g transform="translate(0.0 0.35634367818403945) scale(0.48515334737111065)">
  
  <g
     id="line"
     transform="translate(-11.264803,-10.9064)">
    <circle
       cx="36"
       cy="34.906399"
       r="5"
       fill="none"
       stroke="#000"
       stroke-linecap="round"
       stroke-linejoin="round"
       stroke-miterlimit="10"
       stroke-width="2"
       id="circle2" />
    <circle
       cx="36"
       cy="34.906399"
       r="10"
       fill="none"
       stroke="#000"
       stroke-linecap="round"
       stroke-linejoin="round"
       stroke-miterlimit="10"
       stroke-width="2"
       id="circle4" />
    <path
       fill="none"
       stroke="#000"
       stroke-linecap="round"
       stroke-linejoin="round"
       stroke-miterlimit="10"
       stroke-width="2"
       d="m 31.1191,19.6921 c -0.2389,0.9895 -1.31,1.5799 -2.2425,1.1717 -0.0147,-0.0065 -0.0296,-0.0131 -0.0445,-0.0199 l -7.1357,-4.6903 -0.73,0.6834 -3.6502,3.417 4.5037,7.484 c 0.7363,1.6239 -1.0785,2.0744 -1.0785,2.0744 l -8.4766,2.1074 0.1649,4.9973 0.033,0.9995 8.3622,1.7291 v 0 c 0.9521,0.3641 1.3501,1.4954 0.8359,2.3754 l -0.0328,0.0562 -4.5037,7.484 3.6502,3.417 0.73,0.6834 7.1357,-4.6903 c 0.0149,-0.0068 0.03,-0.0129 0.0445,-0.0199 0,0 0.0116,-0.0042 0.0332,-0.0112 1.1606,-0.3768 2.393,0.3463 2.6794,1.5324 l 1.7947,7.4336 h 1 5 l 1.8869,-7.8157 c 0.2424,-1.004 1.3364,-1.5418 2.2794,-1.1205 v 0 l 7.1357,4.6903 0.73,-0.6834 3.6502,-3.417 -4.5037,-7.484 -0.0328,-0.0562 c -0.5143,-0.8801 -0.1162,-2.0113 0.8359,-2.3755 v 0 l 8.3622,-1.7291 0.033,-0.9995 0.1649,-4.9973 -8.4766,-2.1074 c 0,0 -1.8149,-0.4505 -1.0785,-2.0744 l 4.5037,-7.484 -3.6502,-3.417 -0.73,-0.6834 -7.1357,4.6903 v 0 c -0.943,0.4212 -2.037,-0.1166 -2.2794,-1.1206 L 39,11.9064 h -5 -1 l -1.8809,7.7857"
       id="path6" />
  </g>
</g></svg>