<svg xmlns="http://www.w3.org/2000/svg" width="24" height="24" viewBox="0 0 24 24"> <g transform="translate(2.442025539927549 0.0) scale(0.41881092041098755)">
  
  <g
     id="line"
     transform="translate(-13.503191,-7.3407119)">
    <path
       fill="none"
       stroke="#000"
       stroke-linecap="round"
       stroke-linejoin="round"
       stroke-miterlimit="10"
       stroke-width="2"
       d="M 38.29,46.13 C 66.65,45.2151 56.59,8.62 55.67,13.2 54.75,17.78 28.23,44.3 25.48,40.64 c -2.744,-3.659 -6.404,-4.574 -8.233,-1.83 -1.83,2.744 -2.744,3.659 -2.744,3.659 0,0 5.489,-0.9149 6.404,0.9149 0.9149,1.83 3.816,7.833 9.148,8.233 0,0 1.821,0.6215 5.489,8.233 4.277,8.876 21.96,0 16.47,-4.574 -5.489,-4.574 -9.148,-2.744 -11.89,-4.574 -2.744,-1.83 -1.83,-4.574 -1.83,-4.574 z"
       id="path2" />
    <path
       fill="none"
       stroke="#000"
       stroke-linecap="round"
       stroke-linejoin="round"
       stroke-miterlimit="10"
       stroke-width="2"
       d="M 38.37,26.51 C 38.6838,19.491 35.108,2.4 31.889,10.45 28.23,19.598 26.4,22.34 26.4,22.34 c -4.348,4.13 -5.957,7.228 -6.529,9.162"
       id="path4" />
  </g>
</g></svg>