<svg xmlns="http://www.w3.org/2000/svg" width="24" height="24" viewBox="0 0 24 24"> <g transform="translate(1.610539655892321 0.0) scale(0.3938649688767081)">
  
  <g
     id="line"
     transform="translate(-10.058464,-5.4999018)">
    <path
       fill="none"
       stroke="#000"
       stroke-linecap="round"
       stroke-linejoin="round"
       stroke-miterlimit="10"
       stroke-width="2"
       d="m 34.2042,25.0412 c -0.0364,-0.2205 -0.0784,-0.4413 -0.134,-0.6623 -1.0117,-4.0167 -4.871,-6.5074 -8.6199,-5.5631 -3.7489,0.9443 -5.9678,4.9659 -4.9561,8.9826 0.0557,0.221 0.1233,0.4353 0.1957,0.6468 -1.1533,1.1787 -1.6914,2.9682 -1.2371,4.7717 0.6745,2.6778 3.2473,4.3382 5.7466,3.7087 1.6833,-0.424 3.7084,-3.5122 3.9147,-3.5641 0.2063,-0.052 3.4527,1.7084 5.136,1.2844 2.4993,-0.6295 3.9785,-3.3106 3.3041,-5.9884 -0.4544,-1.8035 -1.7759,-3.1246 -3.35,-3.6163 z"
       id="path2" />
    <ellipse
       cx="19.012899"
       cy="12.4327"
       rx="2.6882999"
       ry="3.7634001"
       transform="matrix(0.9327,-0.3607,0.3607,0.9327,-3.2047,7.6957)"
       fill="none"
       stroke="#000"
       stroke-linecap="round"
       stroke-linejoin="round"
       stroke-miterlimit="10"
       stroke-width="2"
       id="ellipse4" />
    <ellipse
       cx="14.1245"
       cy="21.5497"
       rx="2.6882999"
       ry="3.7634001"
       transform="matrix(0.8286,-0.5598,0.5598,0.8286,-9.6426,11.5991)"
       fill="none"
       stroke="#000"
       stroke-linecap="round"
       stroke-linejoin="round"
       stroke-miterlimit="10"
       stroke-width="2"
       id="ellipse6" />
    <ellipse
       cx="36.132401"
       cy="14.8271"
       rx="3.7634001"
       ry="2.6882999"
       transform="matrix(0.0748,-0.9972,0.9972,0.0748,18.6429,49.7486)"
       fill="none"
       stroke="#000"
       stroke-linecap="round"
       stroke-linejoin="round"
       stroke-miterlimit="10"
       stroke-width="2"
       id="ellipse8" />
    <ellipse
       cx="27.7026"
       cy="10.244"
       rx="2.6882999"
       ry="3.7634001"
       transform="matrix(0.9893,-0.1458,0.1458,0.9893,-1.1975,4.1481)"
       fill="none"
       stroke="#000"
       stroke-linecap="round"
       stroke-linejoin="round"
       stroke-miterlimit="10"
       stroke-width="2"
       id="ellipse10" />
    <path
       fill="none"
       stroke="#000"
       stroke-linecap="round"
       stroke-linejoin="round"
       stroke-miterlimit="10"
       stroke-width="2"
       d="m 52.0157,56.9056 c 0.0775,-0.2096 0.1503,-0.4223 0.2113,-0.6418 1.1089,-3.991 -1.0118,-8.0652 -4.7367,-9.1002 -3.7249,-1.035 -7.6434,1.3613 -8.7523,5.3523 -0.061,0.2196 -0.1083,0.4393 -0.1501,0.6589 -1.5855,0.4534 -2.9387,1.742 -3.4366,3.534 -0.7393,2.6606 0.6745,5.3768 3.1578,6.0668 1.6725,0.4647 4.9607,-1.2164 5.1656,-1.1594 0.2049,0.057 2.1545,3.1934 3.8271,3.6581 2.4832,0.69 5.0956,-0.9076 5.8349,-3.5682 0.4978,-1.7922 0.0033,-3.5942 -1.121,-4.8005 z"
       id="path12" />
    <ellipse
       cx="45.055901"
       cy="38.431"
       rx="3.7634001"
       ry="2.6882999"
       transform="matrix(0.1482,-0.989,0.989,0.1482,0.3735,77.2956)"
       fill="none"
       stroke="#000"
       stroke-linecap="round"
       stroke-linejoin="round"
       stroke-miterlimit="10"
       stroke-width="2"
       id="ellipse14" />
    <ellipse
       cx="36.295898"
       cy="43.933498"
       rx="2.6882999"
       ry="3.7634001"
       transform="matrix(0.9971,-0.0763,0.0763,0.9971,-3.2453,2.8964)"
       fill="none"
       stroke="#000"
       stroke-linecap="round"
       stroke-linejoin="round"
       stroke-miterlimit="10"
       stroke-width="2"
       id="ellipse16" />
    <ellipse
       cx="58.746399"
       cy="48.9846"
       rx="3.7634001"
       ry="2.6882999"
       transform="matrix(0.5586,-0.8295,0.8295,0.5586,-14.6983,70.3506)"
       fill="none"
       stroke="#000"
       stroke-linecap="round"
       stroke-linejoin="round"
       stroke-miterlimit="10"
       stroke-width="2"
       id="ellipse18" />
    <ellipse
       cx="53.689899"
       cy="40.829899"
       rx="3.7634001"
       ry="2.6882999"
       transform="matrix(0.363,-0.9318,0.9318,0.363,-3.8434,76.038)"
       fill="none"
       stroke="#000"
       stroke-linecap="round"
       stroke-linejoin="round"
       stroke-miterlimit="10"
       stroke-width="2"
       id="ellipse20" />
  </g>
</g></svg>