<svg xmlns="http://www.w3.org/2000/svg" width="24" height="24" viewBox="0 0 24 24"> <g transform="translate(2.284639026572645 0.0) scale(0.48576804867136775)">
  
  <g
     id="line"
     transform="translate(-16,-11.493706)">
    <g
       id="g14">
      <path
         fill="none"
         stroke="#000"
         stroke-linecap="round"
         stroke-linejoin="round"
         stroke-width="2"
         d="m 17,59.9 v -3 c 0,-5 5,-9 10,-9 6,5 12,5 18,0 5,0 10,4 10,9 v 3"
         id="path2" />
      <path
         d="m 42,29.9 c 0,1.1 -0.9,2 -2,2 -1.1,0 -2,-0.9 -2,-2 0,-1.1 0.9,-2 2,-2 1.1,0 2,0.9 2,2"
         id="path4" />
      <path
         d="m 34,29.9 c 0,1.1 -0.9,2 -2,2 -1.1,0 -2,-0.9 -2,-2 0,-1.1 0.9,-2 2,-2 1.1,0 2,0.9 2,2"
         id="path6" />
      <path
         fill="none"
         stroke="#000"
         stroke-linecap="round"
         stroke-linejoin="round"
         stroke-width="2"
         d="m 33,38.1 c 1.9,1 4.1,1 6,0"
         id="path8" />
      <path
         fill="none"
         stroke="#000"
         stroke-linecap="round"
         stroke-linejoin="round"
         stroke-width="2"
         d="M 28.8,41.5 C 26.3,38.6 25,34.8 25.1,31 c 0.1,-2.8 0.8,-5.5 2.1,-8 0.5,0.9 1.4,1.5 2.4,1.6 1.3,0 2.5,-0.9 2.8,-2.1 1.1,1.4 3,1.7 4.4,0.6 0.3,-0.2 0.5,-0.4 0.7,-0.7 1.5,1.8 4.1,2.1 5.9,0.6 0.4,-0.4 0.8,-0.8 1.1,-1.3 1.6,2.9 2.5,6.1 2.7,9.4 0,8 -5.1,14 -11.1,14 -2.8,-0.1 -5.5,-1.4 -7.3,-3.6 z"
         id="path10" />
      <path
         fill="none"
         stroke="#000"
         stroke-linejoin="round"
         stroke-width="2"
         d="m 44.6,39.6 c 1.3,0.5 2.7,0.3 3.7,-0.5 0.8,-0.6 1.3,-1.5 1.5,-2.5 0.9,-0.5 1.6,-1.3 1.9,-2.4 0.3,-1.2 0,-2.4 -0.7,-3.4 1,-1 1.5,-2.3 1.3,-3.7 C 52.1,26 51.5,25 50.7,24.4 51.7,23.2 52,21.6 51.4,20.1 50.9,19.1 50.1,18.4 49,18 49.1,16.7 48.6,15.4 47.5,14.7 46.2,13.9 44.6,14 43.4,15 c -0.5,-1.3 -1.6,-2.2 -3,-2.4 -1.3,-0.1 -2.5,0.4 -3.3,1.4 0,0 -3.2,-3.5 -7.1,0.1 0,0 -4.7,-3.1 -6.1,2.6 0,0 -5.4,0.8 -2.6,6.2 0,0 -2.9,3 -0.8,6.5 0,0 -2.1,4.2 1.8,5.7 -0.1,1 0.2,1.9 0.7,2.7 0.9,1.1 2.3,1.7 3.7,1.5"
         id="path12" />
    </g>
  </g>
</g></svg>