<svg xmlns="http://www.w3.org/2000/svg" width="24" height="24" viewBox="0 0 24 24"> <g transform="translate(0.0 5.9702426375980435) scale(0.34122285113700995)">
  
  <g
     id="line"
     transform="translate(-1.0057151,-16.233113)">
    <path
       fill="none"
       stroke="#000"
       stroke-linecap="round"
       stroke-linejoin="round"
       stroke-width="2"
       d="M 6.523,24.2978 C 5.6963,23.1857 4.1245,22.9543 3.0123,23.7811 1.9001,24.6079 1.6688,26.1796 2.4956,27.2918 2.6281,27.4701 2.7837,27.63 2.9584,27.7673 l 9.417,9.6754 0.8938,0.8849 -5.153,-5.3427 C 7.2895,31.8728 5.7177,31.6414 4.6055,32.4682 3.4934,33.295 3.262,34.8667 4.0888,35.9789 c 0.1325,0.1783 0.2881,0.3382 0.4628,0.4755 l 6.4432,6.62 5.0941,5.0412 c 4.3891,3.9622 10.7435,2.9533 14.7048,-1.4348 2.2744,-2.5411 3.5384,-5.8278 3.5528,-9.238 C 34.2597,34.4238 33.6183,26.579 33.6183,26.579 33.2689,24.7595 31.0227,23.6535 30.8681,24.6335 l -2.6253,7.2992 -2.7327,-2.6936 2.7327,2.6936 -2.7327,-2.6936 -10.9596,-10.9994 c -0.8267,-1.1121 -2.3985,-1.3435 -3.5107,-0.5167 -1.1121,0.8268 -1.3435,2.3985 -0.5167,3.5107 0.1325,0.1783 0.2881,0.3382 0.4628,0.4755 l 3.4694,3.5646 4.7716,4.9416 L 8.7396,19.376 C 7.9129,18.2639 6.3411,18.0325 5.2289,18.8593 4.1168,19.6861 3.8854,21.2578 4.7122,22.37 c 0.1325,0.1783 0.2881,0.3382 0.4628,0.4755 l 9.5524,9.7181"
       id="path2" />
    <path
       fill="none"
       stroke="#000"
       stroke-linecap="round"
       stroke-linejoin="round"
       stroke-width="2"
       d="m 65.8237,24.2978 c 0.8267,-1.1121 2.3985,-1.3435 3.5107,-0.5167 1.1122,0.8268 1.3435,2.3985 0.5167,3.5107 -0.1325,0.1783 -0.2881,0.3382 -0.4628,0.4755 l -9.417,9.6754 -0.8938,0.8849 5.153,-5.3427 c 0.8268,-1.1121 2.3985,-1.3435 3.5107,-0.5167 1.1121,0.8268 1.3435,2.3985 0.5167,3.5107 -0.1325,0.1783 -0.2881,0.3382 -0.4628,0.4755 l -6.4432,6.62 -5.0941,5.0412 c -4.3891,3.9622 -10.7435,2.9533 -14.7048,-1.4348 -2.2744,-2.5411 -3.5384,-5.8278 -3.5528,-9.238 0.0868,-3.019 0.7283,-10.8638 0.7283,-10.8638 0.3494,-1.8195 2.5956,-2.9255 2.7502,-1.9455 l 2.6253,7.2992 2.7327,-2.6936 -2.7327,2.6936 2.7327,-2.6936 10.9595,-10.9992 c 0.8267,-1.1121 2.3985,-1.3435 3.5107,-0.5167 1.1121,0.8268 1.3435,2.3985 0.5167,3.5107 -0.1325,0.1783 -0.2881,0.3382 -0.4628,0.4755 L 57.8914,25.274 53.1198,30.2156 63.6071,19.376 c 0.8267,-1.1121 2.3985,-1.3435 3.5107,-0.5167 1.1121,0.8268 1.3435,2.3985 0.5167,3.5107 -0.1325,0.1783 -0.2881,0.3382 -0.4628,0.4755 l -9.5524,9.7181"
       id="path4" />
  </g>
</g></svg>