<svg xmlns="http://www.w3.org/2000/svg" width="24" height="24" viewBox="0 0 24 24"> <g transform="translate(0.0 0.24853915384615277) scale(0.46153846153846156)">
  
  <g
     id="line"
     transform="translate(-10,-10.4902)">
    <path
       fill="none"
       stroke="#000"
       stroke-linecap="round"
       stroke-linejoin="round"
       stroke-miterlimit="10"
       stroke-width="1.8"
       d="m 22.3528,51.6738 c -0.7516,1.1632 -2.1343,1.603 -3.0902,0.9854 -0.9559,-0.6177 -1.1216,-2.0613 -0.37,-3.2245 0,0 0.8761,-1.5078 4.0066,-3.0386 0,0 0.6168,-0.3534 0.5724,0.3205 -0.1914,3.5001 -1.1188,4.9572 -1.1188,4.9572"
       id="path2" />
    <path
       fill="none"
       stroke="#000"
       stroke-linecap="round"
       stroke-linejoin="round"
       stroke-miterlimit="10"
       stroke-width="1.8"
       d="m 52.4574,51.6738 c -0.7516,1.1632 -2.1343,1.603 -3.0902,0.9854 -0.9559,-0.6177 -1.1216,-2.0613 -0.37,-3.2245 0,0 0.8761,-1.5078 4.0066,-3.0386 0,0 0.6168,-0.3534 0.5724,0.3205 -0.1914,3.5001 -1.1188,4.9572 -1.1188,4.9572"
       id="path4" />
    <path
       fill="none"
       stroke="#000"
       stroke-linecap="round"
       stroke-linejoin="round"
       stroke-miterlimit="10"
       stroke-width="1.8"
       d="m 37.4051,51.6738 c -0.7516,1.1632 -2.1343,1.603 -3.0902,0.9854 -0.9559,-0.6177 -1.1216,-2.0613 -0.37,-3.2245 0,0 0.8761,-1.5078 4.0066,-3.0386 0,0 0.6168,-0.3534 0.5724,0.3205 -0.1914,3.5001 -1.1188,4.9572 -1.1188,4.9572"
       id="path6" />
    <path
       fill="none"
       stroke="#000"
       stroke-linecap="round"
       stroke-linejoin="round"
       stroke-miterlimit="10"
       stroke-width="1.8"
       d="m 29.3789,59.2449 c -0.7516,1.1632 -2.1343,1.603 -3.0902,0.9854 -0.9559,-0.6177 -1.1216,-2.0613 -0.37,-3.2245 0,0 0.8761,-1.5078 4.0066,-3.0386 0,0 0.6168,-0.3534 0.5724,0.3205 -0.1914,3.5002 -1.1188,4.9572 -1.1188,4.9572"
       id="path8" />
    <path
       fill="none"
       stroke="#000"
       stroke-linecap="round"
       stroke-linejoin="round"
       stroke-miterlimit="10"
       stroke-width="1.8"
       d="m 44.4312,59.2449 c -0.7516,1.1632 -2.1343,1.603 -3.0902,0.9854 -0.9559,-0.6176 -1.1216,-2.0613 -0.37,-3.2245 0,0 0.8761,-1.5078 4.0066,-3.0386 0,0 0.6168,-0.3534 0.5724,0.3205 -0.1914,3.5002 -1.1188,4.9572 -1.1188,4.9572"
       id="path10" />
    <path
       fill="none"
       stroke="#000"
       stroke-linecap="round"
       stroke-linejoin="round"
       stroke-miterlimit="10"
       stroke-width="2"
       d="m 19.2787,22.3171 c -0.031,0.3535 -0.3174,0.6396 -0.6721,0.6775 C 14.307,23.4552 11,27.6889 11,32.8421 c 0,5.4608 3.7871,9.8877 8.4588,9.8877 h 32.248 C 56.8393,42.7298 61,38.0515 61,32.2806 61,26.7501 57.1788,22.2231 52.3431,21.8555 c -0.37,-0.0281 -0.67,-0.2871 -0.7406,-0.6494 -1.0803,-5.5472 -6.0636,-9.7159 -11.9553,-9.7159 -3.829,0 -7.2399,1.7335 -9.4549,4.4912 -0.2164,0.2695 -0.5797,0.3929 -0.8992,0.2589 -0.8523,-0.3575 -1.7525,-0.5304 -2.7597,-0.5304 -3.8062,0 -6.9303,2.9047 -7.2547,6.6072 z"
       id="path12" />
  </g>
</g></svg>