<svg xmlns="http://www.w3.org/2000/svg" width="24" height="24" viewBox="0 0 24 24"> <g transform="translate(0.0 0.0011169181862733524) scale(0.4733707083176086)">
  
  <g
     id="line"
     transform="translate(-11,-11.004496)">
    <circle
       cx="8.6750002"
       cy="51.41"
       r="18.219999"
       transform="rotate(-45)"
       fill="none"
       stroke="#000"
       stroke-linecap="round"
       stroke-linejoin="round"
       stroke-miterlimit="10"
       stroke-width="2"
       id="circle2" />
    <line
       x1="12"
       x2="25.790001"
       y1="60.700001"
       y2="46.91"
       fill="none"
       stroke="#000"
       stroke-linecap="round"
       stroke-linejoin="round"
       stroke-miterlimit="10"
       stroke-width="2"
       id="line4" />
    <path
       fill="none"
       stroke="#000"
       stroke-linecap="round"
       stroke-linejoin="round"
       stroke-width="1.864"
       d="m 42.69,30.99 c 0.1901,-0.7095 1.05,-0.09377 1.179,0.316 0.3497,1.11 -0.8196,1.996 -1.811,2.042 -1.774,0.0823 -2.992,-1.659 -2.906,-3.306 0.1275,-2.417 2.507,-4.008 4.801,-3.769 3.058,0.3191 5.032,3.357 4.632,6.297 -0.5031,3.699 -4.208,6.059 -7.792,5.495 -4.341,-0.6831 -7.089,-5.059 -6.359,-9.287 0.8609,-4.982 5.911,-8.12 10.78,-7.222 5.624,1.037 9.152,6.763 8.085,12.28 -1.213,6.266 -7.615,10.18 -13.77,8.948 -6.907,-1.387 -11.22,-8.467 -9.811,-15.27 1.562,-7.549 9.32,-12.25 16.76,-10.67"
       id="path6" />
  </g>
</g></svg>