<svg xmlns="http://www.w3.org/2000/svg" width="24" height="24" viewBox="0 0 24 24"> <g transform="translate(0.7968974905251862 0.0) scale(0.44919636804522595)">
  
  <g
     id="line"
     transform="translate(-15.266333,-5.3894494)">
    <path
       fill="none"
       stroke="#000"
       stroke-linecap="round"
       stroke-linejoin="round"
       stroke-width="2"
       d="m 54.7288,52.4471 a 16.7057,16.7057 0 0 1 0.2087,5.3706"
       id="path2" />
    <path
       fill="none"
       stroke="#000"
       stroke-linecap="round"
       stroke-linejoin="round"
       stroke-width="2"
       d="m 17.0625,57.8177 c 0,0 -2,-13 10,-13 3.1918,2.1279 5.9264,3.5984 9,3.5922 h -0.125 c 3.0736,0.0062 5.8081,-1.4643 9,-3.5922"
       id="path4" />
    <path
       fill="none"
       stroke="#000"
       stroke-linecap="round"
       stroke-linejoin="round"
       stroke-width="2"
       d="m 44.287,12.09 a 5.0267,5.0267 0 0 0 0,-5.7006 8.4359,8.4359 0 0 1 -4.7251,2.0561 3.7937,3.7937 0 0 0 -3.56,4.24"
       id="path6" />
    <path
       fill="none"
       stroke="#000"
       stroke-linecap="round"
       stroke-linejoin="round"
       stroke-width="2"
       d="m 46.9339,23.3667 c 2.137,-2.8369 5.3093,-2.0623 8.8,-4.36 -0.548,3.5228 -1.6172,12.3056 -8.9959,12.787"
       id="path8" />
    <path
       fill="none"
       stroke="#000"
       stroke-linecap="round"
       stroke-linejoin="round"
       stroke-width="2"
       d="m 25.2622,31.7941 c -7.3787,-0.4814 -8.4479,-9.2642 -8.9959,-12.787 3.49,2.2973 6.6628,1.5227 8.8,4.36"
       id="path10" />
    <path
       fill="none"
       stroke="#000"
       stroke-linecap="round"
       stroke-linejoin="round"
       stroke-width="2"
       d="m 36.0022,42.0333 c -15.2776,0 -10.5548,-6.0794 -10.5548,-12.7628 0,-3.5808 -0.3769,-3.4016 -0.3769,-5.9038 0,-2.5022 0.6328,-10.681 10.9317,-10.681 10.2989,0 10.9317,8.1789 10.9317,10.681 0,2.5021 -0.3769,2.323 -0.3769,5.9038 0,6.6834 4.723,12.7628 -10.5548,12.7628 z"
       id="path12" />
    <path
       d="m 42.0023,26.4993 a 2,2 0 1 1 -2,-2 2,2 0 0 1 2,2"
       id="path14" />
    <path
       d="m 34.0023,26.4993 a 2,2 0 1 1 -2,-2 2,2 0 0 1 2,2"
       id="path16" />
    <path
       fill="none"
       stroke="#000"
       stroke-linecap="round"
       stroke-linejoin="round"
       stroke-width="2"
       d="m 38.039,23.0265 a 5.4257,5.4257 0 0 1 5.0488,-1.2713"
       id="path18" />
    <path
       fill="none"
       stroke="#000"
       stroke-linecap="round"
       stroke-linejoin="round"
       stroke-width="2"
       d="m 28.97,21.7552 a 5.4256,5.4256 0 0 1 5.0488,1.2713"
       id="path20" />
    <path
       fill="none"
       stroke="#000"
       stroke-linecap="round"
       stroke-linejoin="round"
       stroke-width="2"
       d="M 44.9635,57.8182 A 47.8735,47.8735 0 0 1 51.43,50.9394 c 4.4058,-3.4682 6.7662,-3.56 10.948,-8.9061 2.0629,-2.6374 2.6374,-7.2817 0,-9.3447 -2.6374,-2.063 -6.354,-1.2434 -8.878,1.8278 -4.681,5.6962 -3.8249,8.713 -6.1991,13.1933 A 102.5608,102.5608 0 0 1 40.4972,57.816"
       id="path22" />
    <line
       x1="50.372799"
       x2="53.5159"
       y1="36.072601"
       y2="37.973999"
       fill="none"
       stroke="#000"
       stroke-linecap="round"
       stroke-linejoin="round"
       stroke-width="2"
       id="line24" />
    <line
       x1="56.472401"
       x2="58.3992"
       y1="45.2117"
       y2="48.3395"
       fill="none"
       stroke="#000"
       stroke-linecap="round"
       stroke-linejoin="round"
       stroke-width="2"
       id="line26" />
    <line
       x1="59.3606"
       x2="59.052299"
       y1="29.432501"
       y2="33.093102"
       fill="none"
       stroke="#000"
       stroke-linecap="round"
       stroke-linejoin="round"
       stroke-width="2"
       id="line28" />
    <line
       x1="31.055099"
       x2="31.055099"
       y1="32.495602"
       y2="35.2715"
       fill="none"
       stroke="#000"
       stroke-linecap="round"
       stroke-linejoin="round"
       stroke-width="2"
       id="line30" />
    <line
       x1="42.249401"
       x2="29.8085"
       y1="35.2715"
       y2="35.2715"
       fill="none"
       stroke="#000"
       stroke-linecap="round"
       stroke-linejoin="round"
       stroke-width="2"
       id="line32" />
    <line
       x1="41.002701"
       x2="41.002701"
       y1="32.495602"
       y2="35.2715"
       fill="none"
       stroke="#000"
       stroke-linecap="round"
       stroke-linejoin="round"
       stroke-width="2"
       id="line34" />
    <path
       fill="none"
       stroke="#000"
       stroke-linecap="round"
       stroke-linejoin="round"
       stroke-width="2"
       d="m 47.2467,15.1081 a 9.3183,9.3183 0 0 1 2.754,1.1523 c 0,0 0,-5.21 -4.4936,-5.21"
       id="path36" />
  </g>
</g></svg>