<svg xmlns="http://www.w3.org/2000/svg" width="24" height="24" viewBox="0 0 24 24"> <g transform="translate(0.9599966879990056 0.0) scale(0.4800001440000432)">
  
  <g
     id="line"
     transform="translate(-13,-11.000015)">
    <rect
       x="16"
       y="26"
       width="40"
       height="34"
       fill="none"
       stroke="#000"
       stroke-linecap="round"
       stroke-linejoin="round"
       stroke-miterlimit="10"
       stroke-width="2"
       id="rect2" />
    <rect
       x="14"
       y="22"
       width="44"
       height="4"
       fill="none"
       stroke="#000"
       stroke-linecap="round"
       stroke-linejoin="round"
       stroke-miterlimit="10"
       stroke-width="2"
       id="rect4" />
    <polyline
       fill="none"
       stroke="#000"
       stroke-linecap="round"
       stroke-linejoin="round"
       stroke-miterlimit="10"
       stroke-width="2"
       points="19.5,26 22.5,26 22.5,60 19.5,60"
       id="polyline6" />
    <polyline
       fill="none"
       stroke="#000"
       stroke-linecap="round"
       stroke-linejoin="round"
       stroke-miterlimit="10"
       stroke-width="2"
       points="24.9331,26 27.9331,26 27.9331,60 24.9331,60"
       id="polyline8" />
    <polyline
       fill="none"
       stroke="#000"
       stroke-linecap="round"
       stroke-linejoin="round"
       stroke-miterlimit="10"
       stroke-width="2"
       points="47.0669,60 44.0669,60 44.0669,26 47.0669,26"
       id="polyline10" />
    <polyline
       fill="none"
       stroke="#000"
       stroke-linecap="round"
       stroke-linejoin="round"
       stroke-miterlimit="10"
       stroke-width="2"
       points="52.5,60 49.5,60 49.5,26 52.5,26"
       id="polyline12" />
    <polygon
       fill="none"
       stroke="#000"
       stroke-linecap="round"
       stroke-linejoin="round"
       stroke-miterlimit="10"
       stroke-width="2"
       points="53,21.7491 36,12 19,21.7491 "
       id="polygon14" />
    <rect
       x="31.5"
       y="50"
       width="9"
       height="10"
       fill="none"
       stroke="#000"
       stroke-linecap="round"
       stroke-linejoin="round"
       stroke-miterlimit="10"
       stroke-width="2"
       id="rect16" />
    <line
       x1="36"
       x2="36"
       y1="60"
       y2="50"
       fill="none"
       stroke="#000"
       stroke-linecap="round"
       stroke-linejoin="round"
       stroke-miterlimit="10"
       stroke-width="2"
       id="line18" />
    <circle
       cx="36"
       cy="35"
       r="5"
       fill="none"
       stroke="#000"
       stroke-miterlimit="10"
       stroke-width="2"
       id="circle20" />
    <path
       fill="none"
       stroke="#000"
       stroke-linecap="round"
       stroke-linejoin="round"
       stroke-miterlimit="10"
       d="m 36.9482,34.2622 c -0.0977,-0.3803 -0.5204,-0.6665 -1.0269,-0.6665 v 0 c -0.5789,0 -1.0483,0.3737 -1.0483,0.8347 0,0.461 0.4693,0.8347 1.0483,0.8347 L 35.9,35.2682 c 0.5789,0 1.0483,0.3737 1.0483,0.8347 0,0.461 -0.4693,0.8347 -1.0483,0.8347 v 0 c -0.5066,0 -0.9293,-0.2861 -1.027,-0.6665"
       id="path22" />
    <line
       x1="35.910599"
       x2="35.910599"
       y1="33.595798"
       y2="32.799999"
       fill="none"
       stroke="#000"
       stroke-linecap="round"
       stroke-linejoin="round"
       stroke-miterlimit="10"
       id="line24" />
    <line
       x1="35.910599"
       x2="35.910599"
       y1="37.733299"
       y2="36.9375"
       fill="none"
       stroke="#000"
       stroke-linecap="round"
       stroke-linejoin="round"
       stroke-miterlimit="10"
       id="line26" />
  </g>
</g></svg>