<svg xmlns="http://www.w3.org/2000/svg" width="24" height="24" viewBox="0 0 24 24"> <g transform="translate(0.0 5.453638881150457) scale(0.38835997137528105)">
  
  <g
     id="line"
     transform="translate(-5.2020379,-22.143549)">
    <path
       fill="none"
       stroke="#000"
       stroke-linecap="round"
       stroke-linejoin="round"
       stroke-width="2"
       d="m 38.7948,49.3248 c 0,0 1.3527,0.2556 2.8951,0.4089 0.6907,5.1227 -4.3352,3.666 -5.16,3.01 C 35.7051,52.0877 26.684,40.17 23.6673,37.2281 a 0.0359,0.0359 0 0 1 -0.011,-0.0228 C 19.0484,32.7075 17.181,32.503 16.8826,32.503 h -0.0442 c -8.4827,3.328 -9.4763,0.3022 -10.5546,-1.31 -1.0129,-1.5145 6.3159,-5.7589 10.4,-6.9135 1.5767,-0.4458 2.0188,0.319 4.3654,0.3568 0,0 16.5855,0.6882 17.6021,0.5973 0.9171,-0.0909 4.7625,-1.1017 5.4808,-1.2835 0.0663,-0.0228 0.1105,-0.0341 0.1105,-0.0341 a 15.5769,15.5769 0 0 1 4.8841,-0.7724 c 7.4588,0 16.4107,7.6182 16.8734,9.3746 v 0.7731 a 0.9674,0.9674 0 0 1 -1.4758,0.8465 l -2.8521,-1.809"
       id="path2" />
    <path
       fill="none"
       stroke="#000"
       stroke-linecap="round"
       stroke-linejoin="round"
       stroke-width="2"
       d="m 23.6673,37.2281 c 0.1326,0.5339 3.2727,12.0447 -0.011,12.5056 -3.2837,0.4609 -3.79,1.1586 -3.7018,3.4757 h 8.7517 L 32.872,49.37"
       id="path4" />
    <path
       fill="none"
       stroke="#000"
       stroke-linecap="round"
       stroke-linejoin="round"
       stroke-width="2"
       d="m 50.6155,53.9417 h -6.8076 c 0,0 -0.3684,-3.534 2.5783,-3.818 2.9467,-0.284 2.0719,-4.1273 2.0719,-4.1273 a 20.0267,20.0267 0 0 1 -9.7789,0"
       id="path6" />
    <path
       fill="none"
       stroke="#000"
       stroke-linecap="round"
       stroke-linejoin="round"
       stroke-width="2"
       d="m 55.8671,50.631 c 0,0 -7.2364,-6.3521 -7.8234,-10.9665"
       id="path8" />
    <path
       fill="none"
       stroke="#000"
       stroke-linecap="round"
       stroke-linejoin="round"
       stroke-width="2"
       d="m 55.8671,50.631 c 0,0 -6.6033,0.4392 -5.0148,4.2254 h 9.3464 c 0,0 2.3113,-0.1064 1.3994,-5.8564 0,0 3.5266,-9.125 1.3985,-15.8437"
       id="path10" />
    <path
       fill="none"
       stroke="#000"
       stroke-linecap="round"
       stroke-linejoin="round"
       stroke-width="2"
       d="m 17.1768,26.1842 c 0,0 2.3021,-0.38 1.3813,3.0754"
       id="path12" />
  </g>
</g></svg>