<svg xmlns="http://www.w3.org/2000/svg" width="24" height="24" viewBox="0 0 24 24"> <g transform="translate(0.0 2.6394903428294416) scale(0.5722562856451585)">
  
  <g
     id="line"
     transform="translate(-15.08,-19.645604)">
    <path
       fill="none"
       stroke="#000"
       stroke-linecap="round"
       stroke-linejoin="round"
       stroke-width="2"
       d="M 56,51.36 A 7.3679,7.3679 0 0 0 55.94,49.75 8.34,8.34 0 0 0 52.68,44.36 8.17,8.17 0 0 0 54,35.89 7.78,7.78 0 0 0 49.32,31.78 7.12,7.12 0 0 0 46.41,25.19 6.69,6.69 0 0 0 38.33,25.7 7.32,7.32 0 0 0 32.45,20.9 7.58,7.58 0 0 0 26,23.69 c 0,0 -4.13,-4.62 -9.92,-2.49"
       id="path2" />
    <path
       fill="none"
       stroke="#000"
       stroke-linecap="round"
       stroke-linejoin="round"
       stroke-width="2"
       d="m 44.93,51.36 a 49.76,49.76 0 0 0 -4.59,-12.45 8.7,8.7 0 0 1 -5.29,4.2 8.65,8.65 0 0 1 -8.53,-2.8 6.59,6.59 0 0 1 -5.18,2.69 6.53,6.53 0 0 1 -5,-2.49 v 0"
       id="path4" />
  </g>
</g></svg>