<svg xmlns="http://www.w3.org/2000/svg" width="24" height="24" viewBox="0 0 24 24"> <g transform="translate(0.0 1.2009646978996233) scale(0.4683567906904721)">
  
  <g
     id="line"
     transform="translate(-10.998705,-13.025343)">
    <path
       fill="none"
       stroke="#000"
       stroke-linecap="round"
       stroke-miterlimit="10"
       stroke-width="2"
       d="m 56.8025,45.75 c 0.5985,-0.2993 1.1573,-0.6722 1.6634,-1.11 0.8038,-0.6976 1.4629,-1.5461 1.94,-2.4974 0.5989,-1.3027 0.883,-2.7279 0.8294,-4.1607 0.034,-1.4985 -0.1539,-2.9938 -0.5576,-4.4373 -0.4512,-1.6454 -1.1043,-3.2287 -1.9444,-4.7137 -0.9668,-2.1411 -2.2799,-4.1081 -3.8867,-5.8219 -1.2415,-1.3259 -2.7565,-2.366 -4.44,-3.048 -0.8772,-0.3717 -1.8212,-0.5599 -2.7739,-0.5529 -1.4019,0.0742 -2.7291,0.697 -3.882,1.3893 -1.2849,0.81 -2.2444,1.7349 -2.7707,3.0526 -0.7395,2.3618 0.8273,4.8208 1.1128,5.2689 0.0032,0.005 0.1872,0.2806 0.5553,0.8317 1.512,2.2643 1.5885,2.3577 1.6657,2.4951 0.6462,1.221 1.114,2.5283 1.3892,3.882 1.0433,4.0005 1.565,6.0008 2.2232,6.9323 1.2081,1.71 3.4553,3.4136 5.8265,3.3245 1.0593,-0.0879 2.0933,-0.3708 3.0498,-0.8345 z"
       id="path2" />
    <path
       fill="none"
       stroke="#000"
       stroke-linecap="round"
       stroke-miterlimit="10"
       stroke-width="2"
       d="m 22,41 c -1.5401,0.5536 -2.8303,1.6417 -3.6357,3.0664 -0.7139,1.3652 -0.9574,2.9278 -0.6928,4.4455 0.1779,1.247 0.6317,2.4387 1.3285,3.4881 2.0319,3.2278 5.3827,4.4231 7,5 1.6129,0.561 3.2954,0.8975 5,1 2.3868,0.2048 6.9232,0.5352 11,-2 1.2867,-0.665 2.335,-1.7133 3,-3 0.6609,-1.6012 0.6609,-3.3988 0,-5 -0.389,-1.1558 -1.1211,-2.1654 -2.0988,-2.8943 -0.9191,-0.599 -1.9745,-0.9562 -3.0685,-1.0386 -2.0572,-0.3135 -2.7555,0.1392 -5.0143,0.0571 -1.2715,-0.0193 -2.5342,-0.2136 -3.7527,-0.5774 -3.0361,-0.95 -3.33,-2.4569 -5.8888,-2.8289 C 24.1105,40.5601 23.0219,40.6568 22,41 Z"
       id="path4" />
    <path
       fill="none"
       stroke="#000"
       stroke-linecap="round"
       stroke-miterlimit="10"
       stroke-width="2"
       d="m 12.7,26.9745 c 1.7582,-3.6039 5.3112,-3.1906 9.58,-7.0912 2.7013,-2.4686 2.8583,-4.0782 5.6126,-5.2025 1.407,-0.644 2.9836,-0.8193 4.4977,-0.5 C 34.443,14.6561 36.1513,16.0715 37,18 38.1162,20.7423 36.6863,23.4373 35.6016,25.4819 34.651,27.1712 33.4349,28.6968 32,30 c -1.4793,1.552 -3.1611,2.8975 -5,4 -2.6292,1.5406 -6.3325,3.7106 -9.989,2.43 C 15.5297,35.882 14.2429,34.9093 13.3117,33.6336 11.8159,31.7274 11.5765,29.1213 12.7,26.9745 Z"
       id="path6" />
  </g>
</g></svg>