<svg xmlns="http://www.w3.org/2000/svg" width="24" height="24" viewBox="0 0 24 24"> <g transform="translate(0.0 2.940775525553967) scale(0.40844113030773077)">
  
  <g
     id="line"
     fill="none"
     stroke="#000"
     stroke-linecap="round"
     stroke-linejoin="round"
     stroke-miterlimit="10"
     stroke-width="2"
     transform="translate(-6.6209998,-12.661)">
    <path
       d="M 12.06,41.13 V 35.189"
       id="path2" />
    <path
       d="m 15.97,48.79 v 6.091 c 0,0.6292 -0.5101,1.139 -1.139,1.139 h -1.636 c -0.6292,0 -1.139,-0.5101 -1.139,-1.139 v -5.682"
       id="path4" />
    <path
       d="m 15.97,35.19 v 5.941"
       id="path6" />
    <path
       d="M 12.06,27.59 V 14.81 c 0,-0.6292 0.51,-1.139 1.139,-1.139 h 1.636 c 0.6292,0 1.139,0.5101 1.139,1.139 V 27.5"
       id="path8" />
    <path
       d="M 56,41.67 V 35.193"
       id="path10" />
    <path
       d="m 59.91,49.2 v 5.682 c 0,0.6292 -0.5101,1.139 -1.139,1.139 h -1.636 c -0.6292,0 -1.139,-0.5101 -1.139,-1.139 V 49.2"
       id="path12" />
    <path
       d="m 59.91,35.19 v 5.586"
       id="path14" />
    <path
       d="M 56,27.38 V 14.8 c 0,-0.6292 0.51,-1.139 1.139,-1.139 h 1.636 c 0.6292,0 1.139,0.5101 1.139,1.139 v 12.49"
       id="path16" />
    <rect
       x="7.6209998"
       y="27.67"
       width="56.759998"
       height="7.1240001"
       id="rect18" />
    <rect
       x="7.6209998"
       y="27.67"
       width="11.35"
       height="7.1240001"
       id="rect20" />
    <rect
       x="18.969999"
       y="27.67"
       width="11.35"
       height="7.1240001"
       id="rect22" />
    <rect
       x="30.280001"
       y="27.67"
       width="11.35"
       height="7.1240001"
       id="rect24" />
    <rect
       x="41.630001"
       y="27.67"
       width="11.35"
       height="7.1240001"
       id="rect26" />
    <rect
       x="52.98"
       y="27.67"
       width="11.35"
       height="7.1240001"
       id="rect28" />
    <rect
       x="7.6209998"
       y="41.669998"
       width="56.759998"
       height="7.1240001"
       id="rect30" />
    <rect
       x="7.6209998"
       y="41.669998"
       width="11.35"
       height="7.1240001"
       id="rect32" />
    <rect
       x="18.969999"
       y="41.669998"
       width="11.35"
       height="7.1240001"
       id="rect34" />
    <rect
       x="30.280001"
       y="41.669998"
       width="11.35"
       height="7.1240001"
       id="rect36" />
    <rect
       x="41.630001"
       y="41.669998"
       width="11.35"
       height="7.1240001"
       id="rect38" />
    <polyline
       transform="translate(-0.5)"
       points="60.41 41.67 64.83 41.67 64.83 48.79 53.48 48.79 53.48 41.67 60.41 41.67"
       id="polyline40" />
  </g>
</g></svg>