<svg xmlns="http://www.w3.org/2000/svg" width="24" height="24" viewBox="0 0 24 24"> <g transform="translate(0.0 3.743395621703838) scale(0.4156899684449745)">
  
  <g
     id="line"
     transform="translate(-7.2257933,-16.045814)">
    <path
       fill="none"
       stroke="#000"
       stroke-linecap="round"
       stroke-linejoin="round"
       stroke-width="2"
       d="m 44.04,46.24 0.6839,-0.4559 a 2.55,2.55 0 0 1 3.218,0.3187 l 1.65,1.65 a 2.55,2.55 0 0 1 0.1854,3.399 l -0.8328,1.038 a 2.55,2.55 0 0 1 -2.126,0.95 l -1.501,-0.08121 a 2.55,2.55 0 0 1 -2.412,-2.546 v -2.151 a 2.55,2.55 0 0 1 1.135,-2.122 z"
       id="path2" />
    <path
       fill="none"
       stroke="#000"
       stroke-miterlimit="10"
       stroke-width="2"
       d="m 23.59,46.21 0.7924,-0.7046 a 2.55,2.55 0 0 1 1.694,-0.6445 h 13.48 a 2.55,2.55 0 0 1 1.695,0.6445 l 0.7923,0.7046 a 2.55,2.55 0 0 1 0.8555,1.905 V 51.1 a 2.55,2.55 0 0 1 -0.8555,1.905 l -0.7923,0.7046 a 2.55,2.55 0 0 1 -1.695,0.6445 h -13.48 a 2.55,2.55 0 0 1 -1.694,-0.6445 L 23.59,53.005 A 2.55,2.55 0 0 1 22.7346,51.1 v -2.985 a 2.55,2.55 0 0 1 0.8551,-1.905 z"
       id="path4" />
    <path
       fill="none"
       stroke="#000"
       stroke-miterlimit="10"
       stroke-width="2"
       d="m 49.86,48.06 -2.37,-2.37 a 2.55,2.55 0 0 1 -0.7364,-2.034 l 0.9638,-10.6 q 0.01032,-0.1132 0.03073,-0.2253 l 1.951,-10.73 a 2.55,2.55 0 0 1 1.094,-1.665 l 4.443,-2.962 a 2.55,2.55 0 0 1 2.419,-0.2221 l 4.76,2.04 a 2.55,2.55 0 0 1 1.546,2.344 v 4.265 a 2.55,2.55 0 0 1 -0.2246,1.046 l -9.057,20.13 a 2.55,2.55 0 0 1 -1.519,1.373 l -0.6913,0.2304 a 2.55,2.55 0 0 1 -2.609,-0.6159 z"
       id="path6" />
    <path
       transform="matrix(1.275,0,0,1.275,-8.565,-9.172)"
       fill="none"
       stroke="#000"
       stroke-linecap="round"
       stroke-linejoin="round"
       stroke-width="1.569"
       d="M 15.86,47.11 H 14.32"
       id="path8" />
    <path
       transform="matrix(1.275,0,0,1.275,-8.565,-9.172)"
       fill="none"
       stroke="#000"
       stroke-linecap="round"
       stroke-linejoin="round"
       stroke-width="1.569"
       d="m 15.65,44.32 -1.25,0.1"
       id="path10" />
    <path
       transform="matrix(1.275,0,0,1.275,-8.565,-9.172)"
       fill="none"
       stroke="#000"
       stroke-linecap="round"
       stroke-linejoin="round"
       stroke-width="1.569"
       d="m 20.65,50.15 c 0.3858,-3.8e-5 0.7633,-0.1117 1.087,-0.3215 l 2.447,-1.586 v -3.53 l -1.629,-3.167 c -0.1011,-0.1966 -0.1689,-0.4086 -0.2007,-0.6273 l -0.7261,-4.998 c -0.268,-0.8935 -1.974,-0.9759 -2.502,-0.092 -0.2689,1.154 -0.3842,2.339 -0.3429,3.523 0.03806,1.08 -0.7724,2.001 -1.848,2.102 l -2.45,0.1825 c -1.7,0.1012 -1.778,2.576 -0.0882,2.785 -1.721,0.6565 -1.495,2.417 -0.0775,2.694 -1.519,0.3195 -1.474,2.498 0.05605,2.763 l 1.741,0.2732 z"
       id="path12" />
  </g>
</g></svg>