<svg xmlns="http://www.w3.org/2000/svg" width="24" height="24" viewBox="0 0 24 24"> <g transform="translate(0.0 1.106829461538462) scale(0.46153846153846156)">
  
  <g
     id="line"
     transform="translate(-9.996,-9.9584)">
    <path
       fill="none"
       stroke="#000"
       stroke-linecap="round"
       stroke-linejoin="round"
       stroke-miterlimit="10"
       stroke-width="2"
       d="m 27.1244,46.7322 v 8.0389 c 0,0 -0.1171,1.358 2.5264,1.358 2.6435,0 11.7694,0 11.7694,0 0,0 2.2545,0.3973 2.2545,-1.7204 0,-1.1748 0,-4.7373 0,-7.6766"
       id="path2" />
    <path
       fill="none"
       stroke="#000"
       stroke-linecap="round"
       stroke-linejoin="round"
       stroke-miterlimit="10"
       stroke-width="2"
       d="m 60.996,33.9584 c 0,8.8366 -11.1929,9 -25,9 -13.8071,0 -25,-0.1634 -25,-9 0,-8.8366 11.1929,-23 25,-23 13.8071,0 25,14.1634 25,23 z"
       id="path4" />
    <path
       fill="none"
       stroke="#000"
       stroke-linecap="round"
       stroke-linejoin="round"
       stroke-miterlimit="10"
       stroke-width="2"
       d="m 60.996,33.9584 c 0,8.8366 -11.1929,9 -25,9 -13.8071,0 -25,-0.1634 -25,-9 0,-8.8366 11.1929,-23 25,-23 13.8071,0 25,14.1634 25,23 z"
       id="path6" />
    <path
       fill="none"
       stroke="#000"
       stroke-linecap="round"
       stroke-linejoin="round"
       stroke-miterlimit="10"
       stroke-width="2"
       d="m 22.7421,15.3869 c 0,0 4.6919,14.1211 -10.9254,14.0122 0,-10e-5 3.005,-9.0637 10.9254,-14.0122 z"
       id="path8" />
    <ellipse
       cx="35.995998"
       cy="30.148899"
       rx="8.0207996"
       ry="6.1759"
       transform="matrix(0.9993,-0.0382,0.0382,0.9993,-1.1252,1.3968)"
       fill="none"
       stroke="#000"
       stroke-linecap="round"
       stroke-linejoin="round"
       stroke-miterlimit="10"
       stroke-width="2"
       id="ellipse10" />
    <path
       fill="none"
       stroke="#000"
       stroke-linecap="round"
       stroke-linejoin="round"
       stroke-miterlimit="10"
       stroke-width="2"
       d="m 49.1551,15.3869 c 0,0 -4.6919,14.1211 10.9254,14.0122 -1e-4,-10e-5 -3.0051,-9.0637 -10.9254,-14.0122 z"
       id="path12" />
  </g>
</g></svg>