<svg xmlns="http://www.w3.org/2000/svg" width="24" height="24" viewBox="0 0 24 24"> <g transform="scale(0.5)">
  
  <g
     id="line"
     transform="translate(-12,-12)">
    <circle
       cx="36"
       cy="36"
       r="23"
       fill="none"
       stroke="#000"
       stroke-miterlimit="10"
       stroke-width="2"
       id="circle2" />
    <path
       d="m 30,30.9252 c 0,1.6568 -1.3448,3 -3,3 -1.6553,0 -3,-1.3433 -3,-3 0,-1.6552 1.3447,-3 3,-3 1.6552,0 3,1.3448 3,3"
       id="path4" />
    <path
       d="m 48,30.9252 c 0,1.6568 -1.3447,3 -3,3 -1.6553,0 -3,-1.3433 -3,-3 0,-1.6552 1.3447,-3 3,-3 1.6553,0 3,1.3448 3,3"
       id="path6" />
    <path
       fill="none"
       stroke="#000"
       stroke-linecap="round"
       stroke-linejoin="round"
       stroke-miterlimit="10"
       stroke-width="2"
       d="m 28,46 c 0,0 -0.1191,-2.9038 0,-3 1.3686,-0.7308 3.9645,-1 8,-1 4,0 6.6522,0.2795 8,1 0.0878,0.0572 0,3 0,3 z"
       id="path8" />
    <path
       fill="none"
       stroke="#000"
       stroke-linecap="round"
       stroke-linejoin="round"
       stroke-miterlimit="10"
       stroke-width="2"
       d="m 23.1483,24.2501 c 0.4872,0.2275 2.6277,1.1608 5.1639,0.3327 2.0576,-0.6718 3.1771,-2.1117 3.5396,-2.6239"
       id="path10" />
    <path
       fill="none"
       stroke="#000"
       stroke-linecap="round"
       stroke-linejoin="round"
       stroke-miterlimit="10"
       stroke-width="2"
       d="m 48.8517,24.2501 c -0.4872,0.2275 -2.6277,1.1608 -5.1639,0.3327 -2.0576,-0.6718 -3.1771,-2.1117 -3.5396,-2.6239"
       id="path12" />
  </g>
</g></svg>