<svg xmlns="http://www.w3.org/2000/svg" width="24" height="24" viewBox="0 0 24 24"> <g transform="translate(0.0 1.8387664572338096) scale(0.46067307830177395)">
  
  <g
     id="line"
     transform="translate(-10.25,-17.465657)">
    <path
       fill="none"
       stroke="#000"
       stroke-linecap="round"
       stroke-linejoin="round"
       stroke-miterlimit="10"
       stroke-width="2"
       d="m 21.7378,21.5926 c 0,0 -5.271,-5.1624 -10.4878,0.0543"
       id="path2" />
    <path
       fill="none"
       stroke="#000"
       stroke-linecap="round"
       stroke-linejoin="round"
       stroke-miterlimit="10"
       stroke-width="2"
       d="m 24.8805,18.9186 c 2.9293,-1.0048 6.3086,-0.3418 8.6475,1.9971 3.0495,3.0495 7.5868,4.6409 12.0426,6.2396 1.658,0.5922 3.3012,1.1843 4.8482,1.843 2.1169,0.9178 4.0709,1.9689 5.6401,3.3604 0.185,0.1702 0.3627,0.333 0.5403,0.5107 6.3433,6.3433 6.3359,16.6243 0,22.9601 -6.3433,6.3433 -16.6169,6.3433 -22.9601,0 C 33.4615,55.6519 33.2986,55.4742 33.1284,55.2892 31.5888,53.6164 30.4711,51.6846 29.768,49.6491 29.1092,48.1022 28.5171,46.459 27.9249,44.801 26.3262,40.3452 24.7348,35.8079 21.6853,32.7584 19.5289,30.602 18.7938,27.5645 19.4801,24.8075"
       id="path4" />
  </g>
</g></svg>