<svg xmlns="http://www.w3.org/2000/svg" width="24" height="24" viewBox="0 0 24 24"> <g transform="translate(0.0 1.4701380977787188) scale(0.4290699695662458)">
  
  <g
     id="line"
     transform="translate(-12.162967,-10.70644)">
    <path
       d="m 41.9226,27.0667 c 0,1.1045 -0.8965,2 -2,2 -1.1035,0 -2,-0.8955 -2,-2 0,-1.1035 0.8965,-2 2,-2 1.1035,0 2,0.8965 2,2"
       id="path2" />
    <path
       d="m 33.9226,27.0667 c 0,1.1045 -0.8965,2 -2,2 -1.1035,0 -2,-0.8955 -2,-2 0,-1.1035 0.8965,-2 2,-2 1.1035,0 2,0.8965 2,2"
       id="path4" />
    <path
       d="m 35.9225,37.0691 c -1.1519,0 -2.3037,-0.2861 -3.4473,-0.8579 -0.4941,-0.2471 -0.6943,-0.8477 -0.4473,-1.3418 0.2466,-0.4937 0.8462,-0.6943 1.3418,-0.4473 1.7178,0.8594 3.3877,0.8594 5.1055,0 0.4946,-0.247 1.0947,-0.0464 1.3418,0.4473 0.2471,0.4941 0.0469,1.0947 -0.4473,1.3418 -1.1435,0.5718 -2.2954,0.8579 -3.4472,0.8579 z"
       id="path6" />
    <path
       fill="none"
       stroke="#000"
       stroke-linecap="round"
       stroke-linejoin="round"
       stroke-miterlimit="10"
       stroke-width="2"
       d="m 25.0079,32.2806 c 1.3428,5.9552 5.7209,10.3201 10.9146,10.3201 4.9713,0 9.1954,-3.9992 10.7256,-9.5644"
       id="path8" />
    <path
       fill="none"
       stroke="#000"
       stroke-linecap="round"
       stroke-linejoin="round"
       stroke-miterlimit="10"
       stroke-width="2"
       d="m 54.7375,57.9195 c 0,0 2,-13 -10,-13 -3.1918,2.1279 -5.9263,3.5984 -9,3.5921 h 0.125 c -3.0736,0.0063 -5.8081,-1.4642 -9,-3.5921 -12,0 -10,13 -10,13"
       id="path10" />
    <rect
       x="58.346802"
       y="37.905998"
       width="4"
       height="10.4297"
       transform="matrix(0.7071,-0.7071,0.7071,0.7071,-12.8159,55.3014)"
       fill="none"
       stroke="#000"
       stroke-linecap="round"
       stroke-linejoin="round"
       stroke-miterlimit="10"
       stroke-width="2"
       id="rect12" />
    <circle
       cx="53.622002"
       cy="36.585899"
       fill="none"
       stroke="#000"
       stroke-linecap="round"
       stroke-linejoin="round"
       stroke-miterlimit="10"
       stroke-width="2"
       id="ellipse14"
       r="4" />
    <line
       x1="64.251801"
       x2="67.0979"
       y1="46.992298"
       y2="49.838402"
       fill="none"
       stroke="#000"
       stroke-linecap="round"
       stroke-linejoin="round"
       stroke-miterlimit="10"
       stroke-width="2"
       id="line16" />
    <line
       x1="58.852901"
       x2="58.852901"
       y1="44.7887"
       y2="58.7887"
       fill="none"
       stroke="#000"
       stroke-linecap="round"
       stroke-linejoin="round"
       stroke-miterlimit="10"
       stroke-width="2"
       id="line18" />
    <path
       fill="none"
       stroke="#000"
       stroke-linecap="round"
       stroke-linejoin="round"
       stroke-miterlimit="10"
       stroke-width="2"
       d="m 38.6599,14.6725 c 0,0 -3.6231,-6.1695 -10.065,-0.8151 -6.4419,5.3544 -7.4886,10.4623 -8.0345,12.6925 -0.5459,2.2303 -0.3262,4.414 -2.0745,4.6323 -1.7484,0.2184 -2.6232,3.1251 -1.7484,4.5105 0.8749,1.3855 0.6565,4.3608 -1.1996,4.8931 -1.8561,0.5322 -3.4939,3.6986 -1.4194,5.8823"
       id="path20" />
    <path
       fill="none"
       stroke="#000"
       stroke-linecap="round"
       stroke-linejoin="round"
       stroke-miterlimit="10"
       stroke-width="2"
       d="m 38.958,14.389 c 0,0 2.3499,-2.209 4.6792,-0.5316 6.7975,4.8951 7.4886,10.4623 8.0345,12.6925 0.1015,0.4145 0.1765,0.8274 0.2426,1.2263 0.0753,0.4543 0.1391,0.8905 0.2172,1.2905"
       id="path22" />
    <path
       fill="none"
       stroke="#000"
       stroke-linecap="round"
       stroke-linejoin="round"
       stroke-miterlimit="10"
       stroke-width="2"
       d="m 47.2014,33.4751 c -1.9653,-1.5286 -0.0438,-6.9252 -0.0438,-6.9252 -2.2275,-0.4832 -8.2142,-8.1654 -8.2142,-8.1654 0,0 -0.6951,2.2068 -2.6604,3.0803 l -0.7643,-4.8041 c 0,0 -6.2493,8.9692 -11.0405,9.8892 0,0 3.6159,4.3048 0.122,6.0517 -3.4939,1.747 -2.5532,4.9133 -1.0246,5.2409"
       id="path24" />
    <path
       fill="none"
       stroke="#000"
       stroke-linecap="round"
       stroke-linejoin="round"
       stroke-miterlimit="10"
       stroke-width="2"
       d="m 45.0703,44.9076 c 0,0 -0.2787,11.844 -8.9179,12.9588 H 35.302 C 26.6628,56.7516 26.3841,44.9076 26.3841,44.9076"
       id="path26" />
    <line
       x1="21.5072"
       x2="21.5072"
       y1="46.300999"
       y2="57.918301"
       fill="none"
       stroke="#000"
       stroke-linecap="round"
       stroke-linejoin="round"
       stroke-miterlimit="10"
       stroke-width="2"
       id="line28" />
    <line
       x1="50.4902"
       x2="50.4902"
       y1="46.300999"
       y2="57.974998"
       fill="none"
       stroke="#000"
       stroke-linecap="round"
       stroke-linejoin="round"
       stroke-miterlimit="10"
       stroke-width="2"
       id="line30" />
  </g>
</g></svg>