<svg xmlns="http://www.w3.org/2000/svg" width="24" height="24" viewBox="0 0 24 24"> <g transform="translate(0.0 4.10952) scale(0.4)">
  
  <g
     id="line"
     transform="translate(-5,-15.5476)">
    <polyline
       fill="none"
       stroke="#000"
       stroke-linecap="round"
       stroke-linejoin="round"
       stroke-miterlimit="10"
       stroke-width="2"
       points="46,27 50.2353,23 64,35.0976 64,54 38,54 38,41.5482"
       id="polyline2" />
    <rect
       x="43"
       y="42"
       width="6"
       height="12"
       fill="none"
       stroke="#000"
       stroke-linecap="round"
       stroke-linejoin="round"
       stroke-miterlimit="10"
       stroke-width="2"
       id="rect4" />
    <rect
       x="54"
       y="42"
       width="6"
       height="5"
       fill="none"
       stroke="#000"
       stroke-linecap="round"
       stroke-linejoin="round"
       stroke-miterlimit="10"
       stroke-width="2"
       id="rect6" />
    <polyline
       fill="none"
       stroke="#000"
       stroke-linecap="round"
       stroke-linejoin="round"
       stroke-miterlimit="10"
       stroke-width="2"
       points="43.5,23 46.5,23 46.5,26"
       id="polyline8" />
    <polyline
       fill="none"
       stroke="#000"
       stroke-linecap="round"
       stroke-linejoin="round"
       stroke-width="2"
       points="22.5,54 22.5,46.8269 17.5,42"
       id="polyline10" />
    <line
       x1="23.0408"
       x2="25.885"
       y1="46.726501"
       y2="43.765701"
       fill="none"
       stroke="#000"
       stroke-linecap="round"
       stroke-linejoin="round"
       stroke-width="2"
       id="line12" />
    <path
       fill="none"
       stroke="#000"
       stroke-linecap="round"
       stroke-miterlimit="10"
       stroke-width="2"
       d="m 41.0059,28.3393 c 0,-3.3123 -3.4447,-6.0025 -7.6937,-6.0025 -0.3549,0.0029 -0.7095,0.025 -1.0622,0.0662 -1.7995,-3.4553 -5.7065,-5.8554 -10.2499,-5.8554 -6.2478,0 -11.3122,4.5286 -11.3122,10.1144 0.0012,0.3692 0.0247,0.738 0.0704,1.1043 C 7.9656,28.6665 6,30.8102 6,33.3136 c 0,3.3123 3.4446,6.0025 7.6936,6.0025 1.6151,0.0139 3.2056,-0.4022 4.6137,-1.207 1.8177,1.4766 4.7264,2.4385 8.0154,2.4385 5.5105,0 9.9776,-2.6875 9.9776,-6.0025 -9e-4,-0.2191 -0.0214,-0.4377 -0.0612,-0.6531 2.7966,-0.9016 4.7668,-3.0467 4.7668,-5.5527 z"
       id="path14" />
    <line
       x1="63.5"
       x2="42.5"
       y1="36"
       y2="36"
       fill="none"
       stroke="#000"
       stroke-linecap="round"
       stroke-linejoin="round"
       stroke-miterlimit="10"
       stroke-width="2"
       id="line16" />
  </g>
</g></svg>