<svg xmlns="http://www.w3.org/2000/svg" width="24" height="24" viewBox="0 0 24 24"> <g transform="translate(0.0 1.6912529919890211) scale(0.4319489686849416)">
  
  <g
     id="line"
     transform="translate(-8.1040024,-10.290238)">
    <path
       fill="none"
       stroke="#000"
       stroke-linecap="round"
       stroke-linejoin="round"
       stroke-miterlimit="10"
       stroke-width="2"
       d="M 23.886,35.5323 C 21.5209,40.645 10.6482,36.5552 10.6482,36.5552 10.0514,36.2848 9.625,35.7392 9.5066,35.0949 L 9.1369,33.0822 c -0.0882,-0.4801 0.0022,-0.976 0.2543,-1.394 l 1.9397,-3.2171 c 0.9308,-1.5438 2.2842,-2.7888 3.9002,-3.5877 l 3.7161,-1.8372 c 0,0 3.5476,-10.8515 9.3212,-11.7558 0,0 4.591,4.6606 -3.478,15.0252 0,0 2.0247,1.3871 3.6172,4.0345 0,0 15.2559,-8.8797 24.9028,10.3646 8.946,17.8462 -8.3356,16.735 -14.2114,15.8977 -1.4891,-0.2122 -2.836,-1.1028 -3.4651,-2.4691 -0.6568,-1.4264 -0.5172,-3.1231 3.347,-3.6205"
       id="path2" />
    <path
       fill="none"
       stroke="#000"
       stroke-linecap="round"
       stroke-linejoin="round"
       stroke-miterlimit="10"
       stroke-width="2"
       d="m 15,41.1641 c 0.3333,2.9167 2.0746,6.1553 6.6667,6.8193 0,0 1.4608,1.8086 0,3.3389 0,0 -1.351,1.1679 -2.4473,2.2562 C 17.9523,54.8362 18.8443,57 20.6295,57 h 3.8928 c 0.6864,0 1.3249,-0.352 1.6913,-0.9325 l 3.7193,-5.8926 1.2571,-3.965"
       id="path4" />
    <path
       fill="none"
       stroke="#000"
       stroke-linecap="round"
       stroke-linejoin="round"
       stroke-miterlimit="10"
       stroke-width="2"
       d="m 59,47.9834 c 0,0 4.9053,-0.1041 3.375,3.8609 -1.5303,3.965 -5.0417,3.6322 -5.0417,3.6322"
       id="path6" />
    <path
       fill="none"
       stroke="#000"
       stroke-linecap="round"
       stroke-linejoin="round"
       stroke-miterlimit="10"
       stroke-width="2"
       d="m 16.3125,20.2041 c -0.1542,-3.0543 0.75,-7.2275 4.0259,-8.9138 0,0 1.9372,-0.233 3.1598,3.1876"
       id="path8" />
  </g>
</g></svg>