<svg xmlns="http://www.w3.org/2000/svg" width="24" height="24" viewBox="0 0 24 24"> <g transform="translate(0.0 3.182087644474299) scale(0.43884260237173944)">
  
  <g
     id="line"
     transform="translate(-8.6553439,-15.963371)">
    <path
       id="Gloves_Line_1"
       fill="none"
       stroke="#000"
       stroke-linecap="round"
       stroke-linejoin="round"
       stroke-width="2"
       d="m 12.9834,55.1505 h 15.5327 c 4.6471,-3.7963 6.7794,-10.2411 5.5558,-21.5825 a 1.6534,1.6534 0 0 0 -2.1567,-1.4435 5.79,5.79 0 0 0 -2.9407,3.0528 L 28.976,24.74 a 7.3549,7.3549 0 0 0 -2.8,-5.8308 C 19.5783,13.8105 11.1374,19.5243 10.612,26.0597 9.7764,36.4475 8.13,49.7477 12.9834,55.1505 Z" />
    <path
       id="Gloves_Line_1-2"
       fill="none"
       stroke="#000"
       stroke-linecap="round"
       stroke-linejoin="round"
       stroke-width="2"
       d="M 59.0166,55.1505 H 43.4839 C 38.8368,51.3542 36.7045,44.9094 37.9281,33.568 a 1.6534,1.6534 0 0 1 2.1567,-1.4435 5.79,5.79 0 0 1 2.9407,3.0528 L 43.024,24.74 a 7.3549,7.3549 0 0 1 2.8,-5.8308 c 6.5977,-5.0987 15.0386,0.6151 15.564,7.1505 0.8356,10.3878 2.482,23.688 -2.3714,29.0908 z" />
    <line
       x1="43.483898"
       x2="43.025501"
       y1="41.881901"
       y2="35.177299"
       fill="none"
       stroke="#000"
       stroke-linecap="round"
       stroke-linejoin="round"
       stroke-width="2"
       id="line4" />
    <line
       x1="28.5161"
       x2="28.974501"
       y1="41.881901"
       y2="35.177299"
       fill="none"
       stroke="#000"
       stroke-linecap="round"
       stroke-linejoin="round"
       stroke-width="2"
       id="line6" />
  </g>
</g></svg>