<svg xmlns="http://www.w3.org/2000/svg" width="24" height="24" viewBox="0 0 24 24"> <g transform="translate(0.0 2.74251606326332) scale(0.4675159405403877)">
  
  <g
     id="line"
     transform="translate(-8.5083996,-14.28977)">
    <line
       x1="19.34"
       x2="9.5100002"
       y1="38.779999"
       y2="46.919998"
       fill="none"
       stroke="#000"
       stroke-linecap="round"
       stroke-linejoin="round"
       stroke-width="2"
       id="line2" />
    <path
       fill="none"
       stroke="#000"
       stroke-linecap="round"
       stroke-linejoin="round"
       stroke-width="2"
       d="m 58,41.24 c 1.41,-5 3.12,-17.65 -13.85,-23 0,0 0.27,-2.72 -2.28,-2.94 -2.55,-0.22 -2.93,2.66 -2.93,2.66 C 19.12,19 19.5,38.72 19.5,38.72 c 2.5468,-0.3449 5.1338,-0.2536 7.65,0.27 2.44,0.51 7.44,1.74 12.38,2.66 1.91,0.36 3.83,0.64 5.55,0.88 0,0 2.2292,0.2878 3.85,0.53 1.6208,0.2422 4.679,0.71 6,0.71 1.321,0 2.6956,-1.1153 3.07,-2.53 z"
       id="path4" />
    <path
       fill="none"
       stroke="#000"
       stroke-linecap="round"
       stroke-linejoin="round"
       stroke-width="2"
       d="m 9.51,46.92 c -0.06,1 1.08,0.87 2,0.54 0.92,-0.33 8.21,-2.06 16.49,3.91 8.28,5.97 22.9689,-7.4612 20.9981,-8.1632"
       id="path6" />
    <path
       fill="none"
       stroke="#000"
       stroke-linecap="round"
       stroke-linejoin="round"
       stroke-width="2"
       d="m 27.15,39 c 1.54,-9.93 5.17,-15.39 8,-18.24 C 37,18.88 38,17.8791 42.79,18.5091 l 0.0614,0.01 c 1.4606,0.2488 2.5919,1.4016 3.0183,2.8205 0.7794,2.5933 2.7449,10.419 -0.6837,20.9014"
       id="path8" />
  </g>
</g></svg>