<svg xmlns="http://www.w3.org/2000/svg" width="24" height="24" viewBox="0 0 24 24"> <g transform="translate(0.0 0.8905208933525888) scale(0.47623500983336)">
  
  <g
     id="line"
     transform="translate(-10.740087,-13.434717)">
    <line
       x1="20.8988"
       x2="23.261801"
       y1="46.910099"
       y2="49.1996"
       fill="none"
       stroke="#000"
       stroke-linecap="round"
       stroke-linejoin="round"
       stroke-miterlimit="10"
       stroke-width="2"
       id="line2" />
    <path
       fill="none"
       stroke="#000"
       stroke-linecap="round"
       stroke-linejoin="round"
       stroke-miterlimit="10"
       stroke-width="2"
       d="m 52.3386,22.2637 c 0,0 1.3423,-0.0178 2.2362,-0.5799 0.8941,-0.562 1.0716,-1.066 1.0637,-1.542 -0.0079,-0.476 0.7356,-2.3263 2.3062,-2.7289 1.5708,-0.4028 2.4877,-1.2997 2.128,-2.2506 -0.3598,-0.9508 -2.1142,-0.6964 -2.5538,-0.6898 -0.4397,0.0066 -3.1881,1.6713 -3.1881,1.6713 0,0 -3.5106,2.3476 -3.9665,2.9203 -0.4557,0.5728 -0.5206,1.0193 -0.5206,1.0193 L 26.2045,43.1537"
       id="path4" />
    <ellipse
       cx="22.7523"
       cy="47.7785"
       rx="5.4696002"
       ry="5.4696999"
       transform="matrix(0.9999,-0.0158,0.0158,0.9999,-0.751,0.3649)"
       fill="none"
       stroke="#000"
       stroke-linecap="round"
       stroke-linejoin="round"
       stroke-miterlimit="10"
       stroke-width="2"
       id="ellipse6" />
    <path
       fill="none"
       stroke="#000"
       stroke-linecap="round"
       stroke-linejoin="round"
       stroke-miterlimit="10"
       stroke-width="2"
       d="m 30.1674,38.3398 c -0.6184,-1.6047 -0.6911,-3.4291 -0.0767,-5.1788 0.8444,-2.4046 3.2143,-5.4706 3.2061,-5.5286 -0.036,-0.2561 -2.4648,-0.6658 -4.0754,1.2156 -1.6106,1.8814 -1.9747,3.5723 -2.4923,4.7953 -0.5176,1.223 -0.6392,1.4866 -1.4695,2.7743 -0.7821,1.2129 -2.3485,2.2248 -3.7112,2.4143 -1.3627,0.1894 -3.5669,0.6275 -6.2429,2.6452 -3.1998,2.4126 -5.3398,8.5125 -1.546,13.664 1.7344,2.355 6.314,5.2555 11.4299,3.3176 3.7656,-1.4265 5.0953,-3.635 5.5126,-4.6436 0.5701,-1.378 0.8892,-3.167 0.9549,-3.6356 0.1095,-0.7806 -0.0477,-1.6554 1.7554,-2.3604 1.8031,-0.7051 3.987,-1.7099 4.5698,-2.3949 0.6572,-0.7728 0.7207,-1.5145 0.4697,-2.1736 -0.1366,0.0216 -1.1682,0.3697 -3.1645,-0.0969 -1.9963,-0.4665 -2.0687,-1.1225 -2.3125,-1.2866"
       id="path8" />
  </g>
</g></svg>