<svg xmlns="http://www.w3.org/2000/svg" width="24" height="24" viewBox="0 0 24 24"> <g transform="translate(0.013653219253274784 0.0) scale(0.48132338903167476)">
  
  <g
     id="line"
     transform="translate(-11.097132,-11.011386)">
    <path
       fill="none"
       stroke="#000"
       stroke-linecap="round"
       stroke-linejoin="round"
       stroke-miterlimit="10"
       stroke-width="2"
       d="M 58.6194,13.2261 C 46.2902,9.9936 32.6209,13.209 22.9578,22.8721 13.2746,32.5553 10.066,46.2614 13.3321,58.6106 l 0.0486,0.0486 c 12.3292,3.2325 25.9985,0.0171 35.6616,-9.646 C 58.7255,39.33 61.934,25.6239 58.668,13.2747"
       id="path2" />
    <line
       x1="58.669201"
       x2="13.3333"
       y1="13.276"
       y2="58.6119"
       fill="none"
       stroke="#000"
       stroke-linecap="round"
       stroke-linejoin="round"
       stroke-miterlimit="10"
       stroke-width="2"
       id="line4" />
    <line
       x1="41.5751"
       x2="37.495899"
       y1="34.446701"
       y2="30.3675"
       fill="none"
       stroke="#000"
       stroke-linecap="round"
       stroke-linejoin="round"
       stroke-miterlimit="10"
       stroke-width="2"
       id="line6" />
    <line
       x1="45.110699"
       x2="41.031399"
       y1="30.9112"
       y2="26.832001"
       fill="none"
       stroke="#000"
       stroke-linecap="round"
       stroke-linejoin="round"
       stroke-miterlimit="10"
       stroke-width="2"
       id="line8" />
    <line
       x1="38.0396"
       x2="33.9604"
       y1="37.9823"
       y2="33.903"
       fill="none"
       stroke="#000"
       stroke-linecap="round"
       stroke-linejoin="round"
       stroke-miterlimit="10"
       stroke-width="2"
       id="line10" />
    <line
       x1="34.504101"
       x2="30.424801"
       y1="41.517799"
       y2="37.438599"
       fill="none"
       stroke="#000"
       stroke-linecap="round"
       stroke-linejoin="round"
       stroke-miterlimit="10"
       stroke-width="2"
       id="line12" />
    <line
       x1="30.9685"
       x2="26.889299"
       y1="45.053299"
       y2="40.974098"
       fill="none"
       stroke="#000"
       stroke-linecap="round"
       stroke-linejoin="round"
       stroke-miterlimit="10"
       stroke-width="2"
       id="line14" />
    <path
       fill="none"
       stroke="#000"
       stroke-linecap="round"
       stroke-linejoin="round"
       stroke-miterlimit="10"
       stroke-width="2"
       d="m 26.0156,36.0794 c 0,-1.7991 0.4751,-3.4872 1.3066,-4.9457"
       id="path16" />
    <path
       fill="none"
       stroke="#000"
       stroke-linecap="round"
       stroke-linejoin="round"
       stroke-miterlimit="10"
       stroke-width="2"
       d="m 41.0078,44.7461 c -1.4691,0.8481 -3.174,1.3333 -4.9922,1.3333"
       id="path18" />
    <path
       fill="none"
       stroke="#000"
       stroke-linecap="round"
       stroke-linejoin="round"
       stroke-miterlimit="10"
       stroke-width="2"
       d="m 46.0156,36.0794 c 0,1.8198 -0.4861,3.5261 -1.3355,4.996"
       id="path20" />
    <path
       fill="none"
       stroke="#000"
       stroke-linecap="round"
       stroke-linejoin="round"
       stroke-miterlimit="10"
       stroke-width="2"
       d="m 30.9861,27.4344 c 1.4575,-0.8498 3.1494,-1.3415 4.9551,-1.3547"
       id="path22" />
  </g>
</g></svg>