<svg xmlns="http://www.w3.org/2000/svg" width="24" height="24" viewBox="0 0 24 24"> <g transform="translate(0.09669633919781262 0.0) scale(0.4943133369857597)">
  
  <g
     id="line"
     transform="translate(-12,-11.4478)">
    <path
       fill="none"
       stroke="#000"
       stroke-linecap="round"
       stroke-linejoin="round"
       stroke-miterlimit="10"
       stroke-width="2"
       d="M 44.7693,14.7308 C 44.4015,14.579 44.0288,14.4364 43.6517,14.3034 41.258,13.4592 38.6826,13 36,13 23.2969,13 13,23.2969 13,36 13,48.7022 23.2969,59 36,59 48.7022,59 59,48.7022 59,36 59,33.1764 58.4912,30.4716 57.5603,27.9724"
       id="path2" />
    <circle
       cx="36"
       cy="48.143501"
       r="3.4042001"
       fill="none"
       stroke="#000"
       stroke-linecap="round"
       stroke-linejoin="round"
       stroke-miterlimit="10"
       stroke-width="2"
       id="circle4" />
    <path
       fill="none"
       stroke="#000"
       stroke-linecap="round"
       stroke-linejoin="round"
       stroke-miterlimit="10"
       stroke-width="2"
       d="m 50.1652,32.8593 c -3.1758,2.3436 -7.4563,2.061 -10,0"
       id="path6" />
    <path
       fill="none"
       stroke="#000"
       stroke-linecap="round"
       stroke-linejoin="round"
       stroke-miterlimit="10"
       stroke-width="2"
       d="m 31.8348,32.8593 c -3.1758,2.3436 -7.4563,2.061 -10,0"
       id="path8" />
    <path
       d="m 44.8748,24.0258 h -2.6162 c -0.3564,0 -0.6855,-0.1899 -0.8652,-0.498 -0.1787,-0.3086 -0.1797,-0.6885 -0.0029,-0.998 l 1.7607,-3.082 h -0.8926 c -0.5527,0 -1,-0.4478 -1,-1 0,-0.5522 0.4473,-1 1,-1 h 2.6162 c 0.3564,0 0.6855,0.1899 0.8652,0.498 0.1787,0.3086 0.1797,0.6885 0.0029,0.998 l -1.7607,3.082 h 0.8926 c 0.5527,0 1,0.4478 1,1 0,0.5522 -0.4473,1 -1,1 z"
       id="path10" />
    <path
       d="m 51.0184,20.0258 h -3.7598 c -0.3564,0 -0.6855,-0.1899 -0.8652,-0.498 -0.1787,-0.3086 -0.1797,-0.6885 -0.0029,-0.998 l 2.9043,-5.082 h -2.0361 c -0.5527,0 -1,-0.4478 -1,-1 0,-0.5522 0.4473,-1 1,-1 h 3.7598 c 0.3564,0 0.6855,0.1899 0.8652,0.498 0.1787,0.3086 0.1797,0.6885 0.0029,0.998 l -2.9044,5.082 h 2.0361 c 0.5527,0 1,0.4478 1,1 0,0.5522 -0.4472,1 -0.9999,1 z"
       id="path12" />
    <path
       d="m 59.1609,25.0258 h -4.9023 c -0.3564,0 -0.6855,-0.1899 -0.8652,-0.498 -0.1787,-0.3086 -0.1797,-0.6885 -0.0029,-0.998 l 4.0469,-7.082 h -3.1787 c -0.5527,0 -1,-0.4478 -1,-1 0,-0.5522 0.4473,-1 1,-1 h 4.9023 c 0.3564,0 0.6855,0.1899 0.8652,0.498 0.1787,0.3086 0.1797,0.6885 0.0029,0.998 l -4.0469,7.082 h 3.1787 c 0.5527,0 1,0.4478 1,1 0,0.5522 -0.4472,1 -1,1 z"
       id="path14" />
  </g>
</g></svg>