<svg xmlns="http://www.w3.org/2000/svg" width="24" height="24" viewBox="0 0 24 24"> <g transform="translate(4.140775113937353 0.0) scale(0.3837378180431028)">
  
  <g
     id="line"
     transform="translate(-15.859466,-5.6874)">
    <path
       d="m 23.6487,13.4223 c 0,-4.2718 3.463,-7.7349 7.7349,-7.7349 4.2719,0 7.7349,3.463 7.7349,7.7349 0,2.6699 -1.3527,5.0239 -3.4102,6.4139 -0.78,0.527 -0.412,-4.9898 -1.8246,-7.6565 -0.8231,-1.5539 -3.4931,-0.8244 -4.0828,-0.8244 -1.5102,0 -1.3365,9.3691 -2.5272,8.6208 -2.1776,-1.3684 -3.625,-3.7921 -3.625,-6.5538 z"
       id="path2" />
    <path
       fill="none"
       stroke="#000"
       stroke-linecap="round"
       stroke-linejoin="round"
       stroke-miterlimit="10"
       stroke-width="2"
       d="m 55.8163,50.7743 c 0,9.0883 -7.3675,16.4558 -16.4558,16.4558 -9.0883,0 -16.4558,-7.3675 -16.4558,-16.4558"
       id="path4" />
    <line
       x1="55.816299"
       x2="55.816299"
       y1="49.900799"
       y2="37.900799"
       fill="none"
       stroke="#000"
       stroke-linecap="round"
       stroke-linejoin="round"
       stroke-miterlimit="10"
       stroke-width="2"
       id="line6" />
    <path
       fill="none"
       stroke="#000"
       stroke-linecap="round"
       stroke-linejoin="round"
       stroke-miterlimit="10"
       stroke-width="2"
       d="m 48.824,37.6074 c 0.081,-1.9313 1.7123,-3.4313 3.6436,-3.3502 1.9313,0.0811 3.4313,1.7123 3.3502,3.6436"
       id="path8" />
    <path
       fill="none"
       stroke="#000"
       stroke-linecap="round"
       stroke-linejoin="round"
       stroke-miterlimit="10"
       stroke-width="2"
       d="m 41.827,37.3745 c 0.081,-1.9313 1.7123,-3.4313 3.6436,-3.3502 1.9313,0.0811 3.4313,1.7123 3.3502,3.6436"
       id="path10" />
    <path
       fill="none"
       stroke="#000"
       stroke-linecap="round"
       stroke-linejoin="round"
       stroke-miterlimit="10"
       stroke-width="2"
       d="m 41.8311,37.2406 c 0.155,-1.9268 1.8426,-3.3631 3.7694,-3.2081 1.9268,0.155 3.3631,1.8426 3.2081,3.7694"
       id="path12" />
    <path
       fill="none"
       stroke="#000"
       stroke-linecap="round"
       stroke-linejoin="round"
       stroke-miterlimit="10"
       stroke-width="2"
       d="m 34.7895,36.8962 c 0.1237,-1.929 1.7878,-3.3925 3.7168,-3.2688 1.929,0.1237 3.3925,1.7878 3.2688,3.7168"
       id="path14" />
    <path
       fill="none"
       stroke="#000"
       stroke-linecap="round"
       stroke-linejoin="round"
       stroke-miterlimit="10"
       stroke-width="2"
       d="m 17.8357,39.1198 c -1.3429,-1.3904 -1.3044,-3.6061 0.086,-4.949 1.3904,-1.3429 3.6061,-1.3044 4.949,0.086"
       id="path16" />
    <path
       fill="none"
       stroke="#000"
       stroke-linecap="round"
       stroke-linejoin="round"
       stroke-miterlimit="10"
       stroke-width="2"
       d="m 27.7895,14.5239 c 0,-1.933 1.567,-3.5 3.5,-3.5 1.933,0 3.5,1.567 3.5,3.5"
       id="path18" />
    <line
       x1="34.789501"
       x2="34.789501"
       y1="36.8591"
       y2="14.5239"
       fill="none"
       stroke="#000"
       stroke-linecap="round"
       stroke-linejoin="round"
       stroke-miterlimit="10"
       stroke-width="2"
       id="line20" />
    <line
       x1="27.789499"
       x2="27.789499"
       y1="14.5239"
       y2="42.314499"
       fill="none"
       stroke="#000"
       stroke-linecap="round"
       stroke-linejoin="round"
       stroke-miterlimit="10"
       stroke-width="2"
       id="line22" />
    <line
       x1="24.8286"
       x2="22.8706"
       y1="36.470501"
       y2="34.256802"
       fill="none"
       stroke="#000"
       stroke-linecap="round"
       stroke-linejoin="round"
       stroke-miterlimit="10"
       stroke-width="2"
       id="line24" />
    <path
       fill="none"
       stroke="#000"
       stroke-linecap="round"
       stroke-linejoin="round"
       stroke-miterlimit="10"
       stroke-width="2"
       d="m 19.6034,41.4395 c 1.9526,2.1439 3.3734,5.1677 3.3013,9.5218"
       id="path26" />
    <line
       x1="17.835699"
       x2="19.657101"
       y1="39.119801"
       y2="41.5"
       fill="none"
       stroke="#000"
       stroke-linecap="round"
       stroke-linejoin="round"
       stroke-miterlimit="10"
       stroke-width="2"
       id="line28" />
  </g>
</g></svg>