<svg xmlns="http://www.w3.org/2000/svg" width="24" height="24" viewBox="0 0 24 24"> <g transform="scale(0.41379310344827586)">
  
  <g
     id="line"
     transform="translate(-7,-7)">
    <circle
       cx="36"
       cy="36"
       r="28"
       fill="none"
       stroke="#000"
       stroke-linecap="round"
       stroke-linejoin="round"
       stroke-miterlimit="10"
       stroke-width="2"
       id="circle2" />
    <path
       fill="none"
       stroke="#000"
       stroke-linecap="round"
       stroke-linejoin="round"
       stroke-miterlimit="10"
       stroke-width="2"
       d="m 41.6878,29.1965 c -0.0568,0.7946 -2.2706,3.5222 -2.8378,3.9161 -1.1826,0.8214 -1.6443,0.4449 -2.6746,1.2557 -0.653,0.5139 -1.469,1.0634 -2.4689,1.2557 -0.5534,0.1064 -0.3086,-0.4165 -1.5537,0.3831 -0.6936,0.4454 -0.0778,0.9247 0,1.3621 0.1046,0.588 0.1828,0.2336 1.3621,1.3621 0.6157,0.5893 0.6707,1.1144 1.3621,1.3621 0.4322,0.1549 0.7463,0.07 1.3621,0 1.2911,-0.1467 0.717,1.1259 1.3621,1.3621 1.4839,0.5433 2.0319,0.3161 3.3988,0.5445 0.552,0.0922 1.3122,-0.1799 2,1 0.2963,0.5083 0,2 0.05,2.5421 0.0844,0.9159 -0.5065,1.7288 -1.3621,2.7243 -0.6921,0.8052 -0.8206,0.6811 -1.3621,1.3621 -0.7236,0.9099 -0.5299,1.1763 -1.3621,2.7243 -0.8424,1.5667 -1.3055,1.7862 -1.3621,2.7243 -0.0237,0.3923 -0.0011,1.32 0,1.3621 0.0238,0.9465 0.0765,1.0716 0,1.3621 -0.1781,0.677 -1.5528,1.2699 -2.0716,1.1919 -1.0211,-0.1535 -1.0026,-3.6818 -1.05,-4.2283 -0.0958,-1.1035 0.3564,-1.7204 0.3973,-2.4121 0.1412,-2.393 0.5408,-3.1351 0,-4.0864 -0.3451,-0.607 -0.5273,-0.3396 -1.3621,-1.3621 -0.4715,-0.5774 -1.1856,-1.4733 -1.3621,-2.7243 -0.1113,-0.788 0.1212,-0.7928 0,-1.3621 -0.2251,-1.0562 -1.1013,-1.3971 -2.7243,-2.7243 -1.0013,-0.8188 -1.8894,-1.5449 -2.7243,-2.7243 -0.4339,-0.6128 -1.0478,-1.48 -1.3621,-2.7243 -0.4138,-1.6378 0.2025,-1.9051 0,-4.0864 -0.0457,-0.4913 -0.2445,-2.2829 -1.3621,-4.0864 -0.4745,-0.7657 -0.8087,-1.2882 -1.3621,-1.3621 -1.055,-0.141 -1.6211,1.519 -2.7243,1.3621 -0.6593,-0.0938 -1.1689,-0.788 -1.3621,-1.3621 -0.0517,-0.1534 -0.2402,-0.7406 0,-1.3621 0.1331,-0.3445 0.5428,-0.6837 1.3621,-1.3621 0.836,-0.6924 1.2563,-1.045 1.3621,-1.3621 0.1992,-0.5974 -0.1599,-0.8105 0,-1.3621 0.2735,-0.944 1.7229,-1.6939 2.7243,-1.3621 0.5752,0.1906 0.4511,0.5555 1.3621,1.3621 0.4423,0.3916 1.3981,1.1259 2.7243,1.3621 0.6697,0.1193 1.0045,0.1788 1.3621,0 0.8809,-0.4408 0.4597,-1.6084 1.3621,-2.7243 0.8301,-1.0264 2.1787,-1.2654 2.7243,-1.3621 1.3486,-0.2391 1.5329,0.2732 2.7243,0 1.2802,-0.2937 1.2433,-0.9257 2.7243,-1.3621 0.6485,-0.1911 1.791,-0.528 2.7243,0 0.8401,0.4752 0.7287,1.2093 1.3621,1.3621 0.884,0.2134 1.3172,-1.1646 2.7243,-1.3621 1.0743,-0.1508 2.3522,0.4375 2.7243,1.3621 0.1847,0.4589 0.0982,0.8817 0,1.3621 -0.2966,1.4511 -1.0836,1.5389 -1.3621,2.7243 -0.3028,1.288 0.3458,1.6004 0,2.7243 -0.227,0.7378 -0.6811,0.5108 -1.4047,1.1067 -0.3311,0.2727 -0.4115,0.7094 -1.3196,1.6175 -0.454,0.454 -0.9255,0.8914 -1.3621,1.3621 -0.9957,1.0728 -1.1544,1.1541 -1.3625,1.3621"
       id="path4" />
  </g>
</g></svg>