<svg xmlns="http://www.w3.org/2000/svg" width="24" height="24" viewBox="0 0 24 24"> <g transform="translate(0.0 0.17702594056767218) scale(0.44418780260294055)">
  
  <g
     id="line"
     transform="translate(-10.9688,-7.0937996)">
    <circle
       cx="39.9688"
       cy="11.0938"
       r="3"
       fill="none"
       stroke="#000"
       stroke-miterlimit="10"
       stroke-width="2"
       id="circle2" />
    <circle
       cx="14.9688"
       cy="19.0938"
       r="3"
       fill="none"
       stroke="#000"
       stroke-miterlimit="10"
       stroke-width="2"
       id="circle4" />
    <path
       fill="none"
       stroke="#000"
       stroke-linecap="round"
       stroke-linejoin="round"
       stroke-miterlimit="10"
       stroke-width="2"
       d="m 40.1357,37 -4.8906,7.3359 c -0.6103,0.9151 -2,1.794 -3.0888,1.9522 l -9.7911,1.4238 C 21.2764,47.8701 20.29,47.3252 20.1738,46.5 c -0.1162,-0.8252 0.626,-1.8291 1.6494,-2.2314 l 6.4512,-2.5372 c 1.0235,-0.4023 2.1455,-1.5849 2.4942,-2.6289 l 0.7343,-2.205 c 0.3487,-1.044 0.9873,-2.7246 1.4209,-3.7354 l 1.4239,-3.3242 c 0.4336,-1.0108 0.7509,-2.7002 0.705,-3.7549 -0.0468,-1.0542 -0.3388,-2.4038 -0.6513,-3 C 34.0889,22.4873 33.834,22 33.834,22"
       id="path6" />
    <path
       fill="none"
       stroke="#000"
       stroke-linecap="round"
       stroke-linejoin="round"
       stroke-miterlimit="10"
       stroke-width="2"
       d="m 37,42 v 5 c 0,1.0996 -0.4414,2.7422 -1.0625,3.6494 l -3.8721,5.7012 c -0.622,0.9072 -0.4384,2.0996 0.3867,2.6494 0.8252,0.5498 2.1124,0.334 2.8516,-0.4814 l 5.4844,-6.0372 c 0.7392,-0.8154 1.5478,-2.3584 1.7959,-3.4306 l 2.1006,-9.1016 c 0.248,-1.0722 0.4707,-2.8486 0.4961,-3.9482 L 45.4316,22"
       id="path8" />
    <path
       fill="none"
       stroke="#000"
       stroke-linecap="round"
       stroke-linejoin="round"
       stroke-miterlimit="10"
       stroke-width="2"
       d="m 15.875,16 7.293,3.1973 c 1.0078,0.4414 2.6855,0.518 3.7295,0.1704 l 2.205,-0.7354 c 1.044,-0.3476 2.7959,-0.6924 3.8926,-0.7651 l 11.0098,-0.7344 c 1.0967,-0.0727 2.8486,0.1519 3.8926,0.4995 L 64,23"
       id="path10" />
  </g>
</g></svg>