<svg xmlns="http://www.w3.org/2000/svg" width="24" height="24" viewBox="0 0 24 24"> <g transform="translate(0.0 1.3999999999999986) scale(0.4)">
  
  <g
     id="line"
     transform="translate(-6,-9)">
    <path
       fill="#000"
       d="m 45.6547,36.4033 -0.784,0.6209 c 0.21,0.2651 0.5398,0.4061 0.8765,0.3748 0.3368,-0.0313 0.6349,-0.2307 0.7924,-0.53 z M 7,15.5 v -1 c -0.55228,0 -1,0.4477 -1,1 z M 20.5,28 v 1 c 0.4407,0 0.8294,-0.2885 0.9571,-0.7102 0.1277,-0.4218 -0.0357,-0.8774 -0.4024,-1.1219 z m -7,0 v -1 c -0.5523,0 -1,0.4477 -1,1 z m 13,9.5 v 1 c 0.4757,0 0.8855,-0.335 0.98,-0.8012 0.0946,-0.4662 -0.1523,-0.9344 -0.5904,-1.1198 z m -6.5,0 v -1 c -0.3755,0 -0.7194,0.2104 -0.8904,0.5447 -0.1709,0.3344 -0.1401,0.7364 0.0797,1.0408 z m 20.5776,8.9986 0.8738,0.4863 c 0.1679,-0.3018 0.1683,-0.6688 9e-4,-0.9709 -0.1674,-0.3021 -0.4788,-0.4965 -0.8237,-0.5141 z M 40,47.5 39.1425,46.9855 39.1391,46.9913 Z m -0.1277,0.2163 -0.8613,-0.5081 v 1e-4 z M 24,58 v -1 c -0.4347,0 -0.8196,0.2808 -0.9523,0.6948 -0.1327,0.414 0.0173,0.8663 0.3711,1.1189 z M 65,26 c 0.5523,0 1,-0.4477 1,-1 0,-0.5523 -0.4477,-1 -1,-1 z M 46.4386,35.7825 C 35.7251,22.2547 19.0272,14.5 7,14.5 v 2 c 11.3389,0 27.4859,7.4113 37.8707,20.5242 z M 6,15.5 c 0,0.7259 0.33534,1.4475 0.73601,2.0782 0.41705,0.6565 0.99201,1.3474 1.64741,2.0392 1.313,1.386 3.04258,2.8728 4.74368,4.2274 1.7066,1.3589 3.4099,2.6048 4.6847,3.5097 0.6379,0.4529 1.1699,0.8213 1.5429,1.0769 0.1865,0.1278 0.3334,0.2275 0.434,0.2954 0.0504,0.034 0.0891,0.06 0.1155,0.0777 0.0132,0.0089 0.0232,0.0156 0.0301,0.0202 0.0035,0.0023 0.0061,0.0041 0.008,0.0053 9e-4,6e-4 0.0016,0.0011 0.0021,0.0014 2e-4,2e-4 5e-4,4e-4 6e-4,4e-4 2e-4,2e-4 3e-4,3e-4 0.555,-0.8318 0.5547,-0.8321 0.5547,-0.832 0.5547,-0.8321 -10e-5,0 -2e-4,-10e-5 -3e-4,-2e-4 -3e-4,-2e-4 -9e-4,-5e-4 -0.0016,-0.001 -0.0014,-10e-4 -0.0037,-0.0025 -0.0067,-0.0045 C 21.04,27.1581 21.0307,27.1519 21.0184,27.1436 20.9937,27.127 20.9566,27.1021 20.908,27.0693 20.8109,27.0037 20.6677,26.9066 20.4852,26.7815 20.1199,26.5313 19.5972,26.1692 18.9695,25.7236 17.713,24.8317 16.0413,23.6088 14.3729,22.2802 12.699,20.9473 11.0536,19.5279 9.83533,18.2419 9.22511,17.5978 8.74538,17.0114 8.42415,16.5058 8.08653,15.9743 8,15.6491 8,15.5 Z M 20.5,27 h -7 v 2 h 7 z m -8,1 c 0,0.7694 0.3098,1.4862 0.7265,2.1113 0.4204,0.6305 0.996,1.238 1.6422,1.8096 1.2924,1.1432 2.9839,2.2447 4.6316,3.1953 1.6558,0.9553 3.3064,1.7803 4.5399,2.3654 0.6176,0.293 1.1329,0.5269 1.4946,0.6879 0.1809,0.0805 0.3236,0.1428 0.4216,0.1853 0.049,0.0213 0.0869,0.0375 0.1128,0.0486 0.013,0.0056 0.0229,0.0098 0.0298,0.0128 0.0035,0.0014 0.0062,0.0026 0.008,0.0034 0.001,4e-4 0.0017,7e-4 0.0023,9e-4 3e-4,1e-4 5e-4,2e-4 7e-4,3e-4 2e-4,1e-4 4e-4,2e-4 0.39,-0.9208 0.3896,-0.921 0.3897,-0.9209 0.3897,-0.9209 0,-10e-5 -10e-5,-10e-5 -2e-4,-10e-5 -2e-4,-1e-4 -7e-4,-3e-4 -0.0013,-6e-4 -0.0012,-5e-4 -0.0033,-0.0014 -0.0061,-0.0026 -0.0056,-0.0023 -0.0143,-0.006 -0.0259,-0.011 -0.0233,-0.01 -0.0584,-0.0251 -0.1046,-0.0451 -0.0924,-0.04 -0.229,-0.0998 -0.4036,-0.1774 -0.3492,-0.1555 -0.8496,-0.3825 -1.4507,-0.6677 -1.204,-0.5711 -2.8034,-1.3711 -4.3976,-2.2908 -1.6023,-0.9244 -3.1608,-1.9479 -4.3059,-2.9609 -0.5726,-0.5065 -1.0125,-0.985 -1.3032,-1.421 C 14.5965,28.5607 14.5,28.2306 14.5,28 Z m 14,8.5 H 20 v 2 h 6.5 z m -7.3107,1.5855 c 2.4222,3.3538 6.2611,5.6186 10.1787,7.0821 3.93,1.4683 8.0463,2.1706 11.1585,2.3297 l 0.1021,-1.9974 C 37.6977,45.3501 33.7857,44.683 30.0679,43.2941 26.3377,41.9005 22.9094,39.8204 20.8107,36.9145 Z m 21.6682,9.929 c 0.1988,-0.3314 0.3967,-0.6753 0.5939,-1.0296 l -1.7476,-0.9726 c -0.1883,0.3383 -0.3753,0.6632 -0.5613,0.9732 z m -0.1238,0.2099 c 0.0432,-0.0733 0.0855,-0.1451 0.1272,-0.2157 l -1.7218,-1.0174 c -0.0422,0.0713 -0.0849,0.1438 -0.1281,0.2169 z M 24,59 C 34.3996,59 38.5336,51.9542 40.7337,48.2244 L 39.011,47.2083 C 36.8318,50.9029 33.2134,57 24,57 Z m 10.5,1 c -2.9058,0 -6.6622,-0.4876 -9.9188,-2.8137 l -1.1624,1.6274 C 27.1622,61.4876 31.4058,62 34.5,62 Z m 24,-23 c 0,14.3086 -12.9021,23 -24,23 v 2 c 11.9021,0 26,-9.3086 26,-25 z M 65,24 c -0.9794,0 -1.8698,0.5095 -2.6016,1.2024 -0.7428,0.7033 -1.4161,1.6801 -1.9831,2.8321 C 59.2793,30.3424 58.5,33.4954 58.5,37 h 2 c 0,-3.2259 0.7207,-6.0729 1.7097,-8.0823 0.4955,-1.0068 1.041,-1.768 1.5638,-2.263 C 64.3073,26.1492 64.7294,26 65,26 Z m -7,2 h 7 V 24 H 58 Z M 46.5396,36.869 c 1.5589,-2.9627 3.238,-5.7116 5.1546,-7.7124 C 53.6026,27.1644 55.6607,26 58,26 v -2 c -3.0799,0 -5.6252,1.5548 -7.7501,3.7731 -2.1166,2.2096 -3.9006,5.1624 -5.4802,8.1646 z"
       id="path2" />
    <path
       fill="none"
       stroke="#000"
       stroke-linecap="round"
       stroke-linejoin="round"
       stroke-width="2"
       d="M 35.1398,23 C 35.1398,23 29,15 29,10 c 3.5,0 12.521,6.854 17.5896,19"
       id="path4" />
  </g>
</g></svg>