<svg xmlns="http://www.w3.org/2000/svg" width="24" height="24" viewBox="0 0 24 24"> <g transform="translate(2.4004532905956175 0.0) scale(0.4799773354702191)">
  
  <g
     id="line"
     transform="translate(-16.0083,-10.955942)">
    <path
       fill="none"
       stroke="#000"
       stroke-linecap="round"
       stroke-linejoin="round"
       stroke-width="2"
       d="m 22.0112,27.9583 c -0.0029,-0.6543 -0.0029,-1.3223 -0.0029,-2 0,-7 5,-14 14,-14 a 13.75,13.75 0 0 1 14,14 c 0,0.6 0.0039,1.1318 0.0049,1.666"
       id="path2" />
    <path
       d="m 41.8813,29.9583 a 2,2 0 1 1 -2,-2 2,2 0 0 1 2,2"
       id="path4" />
    <path
       d="m 33.8813,29.9583 a 2,2 0 1 1 -2,-2 2,2 0 0 1 2,2"
       id="path6" />
    <path
       fill="none"
       stroke="#000"
       stroke-linecap="round"
       stroke-linejoin="round"
       stroke-width="2"
       d="m 46.9712,29.9563 a 11.66,11.66 0 0 0 -0.9629,-3.998 c -3,-3 -7,-8 -7,-8 -4,3 -7,6 -13,7 0,0 -0.9287,0.873 -1.05,5.0693"
       id="path8" />
    <path
       fill="none"
       stroke="#000"
       stroke-linecap="round"
       stroke-linejoin="round"
       stroke-width="2"
       d="m 34.0083,37.9583 h 4"
       id="path10" />
    <path
       fill="none"
       stroke="#000"
       stroke-linecap="round"
       stroke-linejoin="round"
       stroke-width="2"
       d="m 47.9409,48.4075 c 3.85,1.1778 7.0674,4.5469 7.0674,8.5508 v 3"
       id="path12" />
    <path
       fill="none"
       stroke="#000"
       stroke-linecap="round"
       stroke-linejoin="round"
       stroke-width="2"
       d="m 17.0083,59.9583 v -3 c 0,-3.9756 3.1719,-7.3242 6.9844,-8.5244"
       id="path14" />
    <path
       fill="none"
       stroke="#000"
       stroke-linecap="round"
       stroke-linejoin="round"
       stroke-width="2"
       d="m 42.564,38.4026 8,-7 a 1.4142136,1.4142136 0 0 1 2,2 l -5,6"
       id="path16" />
    <path
       fill="none"
       stroke="#000"
       stroke-linecap="round"
       stroke-linejoin="round"
       stroke-width="2"
       d="m 29.4526,38.4026 -8,-7 a 1.4142136,1.4142136 0 0 0 -2,2 l 5,6"
       id="path18" />
    <line
       x1="36.0103"
       x2="32.008301"
       y1="54.905602"
       y2="59.958302"
       fill="none"
       stroke="#000"
       stroke-linecap="round"
       stroke-linejoin="round"
       stroke-width="2"
       id="line20" />
    <path
       fill="none"
       stroke="#000"
       stroke-linecap="round"
       stroke-linejoin="round"
       stroke-width="2"
       d="m 35.9771,45.4935 5.5869,-6.0909 1,-1 6,-4.5556 a 1.4142136,1.4142136 0 0 1 2,2 l -3,3.5556 a 39.3264,39.3264 0 0 1 -2,6 c -0.6328,1.2647 -3.5557,2 -3.5557,2 l -2.127,2"
       id="path22" />
    <line
       x1="22.008301"
       x2="32.008301"
       y1="59.958302"
       y2="49.402599"
       fill="none"
       stroke="#000"
       stroke-linecap="round"
       stroke-linejoin="round"
       stroke-width="2"
       id="line24" />
    <path
       fill="none"
       stroke="#000"
       stroke-linecap="round"
       stroke-linejoin="round"
       stroke-width="2"
       d="m 50.0083,59.9583 -16,-16.5557 -3.5557,-4 -1,-1 -6,-4.5556 a 1.4142136,1.4142136 0 0 0 -2,2 l 3,3.5556 a 39.3264,39.3264 0 0 0 2,6 c 0.6328,1.2647 3.5557,2 3.5557,2 l 2,2 8,10.5557"
       id="path26" />
  </g>
</g></svg>