<svg xmlns="http://www.w3.org/2000/svg" width="24" height="24" viewBox="0 0 24 24"> <g transform="translate(0.0 0.3151572247667609) scale(0.45054352726359964)">
  
  <g
     id="line"
     transform="translate(-8.9995027,-10.099811)">
    <path
       fill="none"
       stroke="#000"
       stroke-linecap="round"
       stroke-linejoin="round"
       stroke-width="2"
       d="m 60.0592,34.8474 c 0.05,-0.06 0.1009,-0.1185 0.1486,-0.18 0.1,-0.1316 0.196,-0.2642 0.2834,-0.4053 a 5.0805,5.0805 0 0 0 0.2776,-0.5115 c 0.0545,-0.1158 0.1048,-0.2321 0.1508,-0.3525 a 4.9924,4.9924 0 0 0 0.2022,-0.6512 c 0.02,-0.0868 0.0393,-0.1729 0.0551,-0.2613 a 4.5556,4.5556 0 0 0 0,-1.8179 c -0.0158,-0.0884 -0.0348,-0.1745 -0.0551,-0.2613 a 4.9924,4.9924 0 0 0 -0.2022,-0.6512 c -0.046,-0.12 -0.0963,-0.2367 -0.1508,-0.3525 a 5.0914,5.0914 0 0 0 -0.2776,-0.5115 c -0.0874,-0.1411 -0.1832,-0.2737 -0.2834,-0.4053 -0.0477,-0.0618 -0.0981,-0.1207 -0.1486,-0.18 a 5.1113,5.1113 0 0 0 -1.4214,-1.1812 h -7e-4 a 5.0646,5.0646 0 0 0 0.0679,-0.6742 5.1157,5.1157 0 0 0 -3.8628,-4.9511 c 0.0021,-0.06 0.0177,-0.1155 0.0177,-0.1757 a 5.1268,5.1268 0 0 0 -5.1268,-5.1269 5.0754,5.0754 0 0 0 -1.3957,0.2166 5.0951,5.0951 0 0 0 -8.3134,-2.828 5.0881,5.0881 0 0 0 -8.78,0 5.0951,5.0951 0 0 0 -8.3134,2.828 5.0754,5.0754 0 0 0 -1.3957,-0.2166 5.1268,5.1268 0 0 0 -5.1268,5.1269 c 0,0.06 0.0156,0.1161 0.0176,0.1757 a 4.91,4.91 0 0 0 -3.7949,5.6253 h -6e-4 a 5.1113,5.1113 0 0 0 -1.4214,1.1812 c -0.0505,0.06 -0.1009,0.1185 -0.1487,0.18 -0.1,0.1316 -0.1959,0.2642 -0.2833,0.4053 a 5.0714,5.0714 0 0 0 -0.2776,0.5115 c -0.0546,0.1158 -0.1049,0.2321 -0.1509,0.3525 a 5.0074,5.0074 0 0 0 -0.2021,0.6512 c -0.02,0.0868 -0.0393,0.1729 -0.0551,0.2613 a 4.5556,4.5556 0 0 0 0,1.8179 c 0.0158,0.0884 0.0347,0.1745 0.0551,0.2613 a 5.0074,5.0074 0 0 0 0.2021,0.6512 c 0.046,0.12 0.0963,0.2367 0.1509,0.3525 a 5.0606,5.0606 0 0 0 0.2776,0.5115 c 0.0874,0.1411 0.1831,0.2737 0.2833,0.4053 0.0478,0.0618 0.0982,0.1207 0.1487,0.18 a 5.1113,5.1113 0 0 0 1.4214,1.1812 h 6e-4 a 4.91,4.91 0 0 0 3.7949,5.6253 c -0.002,0.06 -0.0176,0.1155 -0.0176,0.1757 a 5.1268,5.1268 0 0 0 5.1268,5.1269 5.0754,5.0754 0 0 0 1.3957,-0.2166 5.0952,5.0952 0 0 0 8.3134,2.8281 5.0882,5.0882 0 0 0 8.78,0 5.0952,5.0952 0 0 0 8.3134,-2.828 5.0754,5.0754 0 0 0 1.3957,0.2166 A 5.1268,5.1268 0 0 0 54.86,41.83 c 0,-0.06 -0.0156,-0.116 -0.0177,-0.1757 a 5.1157,5.1157 0 0 0 3.8628,-4.9511 5.0646,5.0646 0 0 0 -0.0679,-0.6742 h 7e-4 a 5.1113,5.1113 0 0 0 1.4213,-1.1816 z"
       id="path2" />
    <path
       fill="none"
       stroke="#000"
       stroke-linecap="round"
       stroke-linejoin="round"
       stroke-width="2"
       d="m 10.8814,40.9339 c 0.0023,0.263 0.0049,0.4135 0.0079,0.4135 q 0.0239,0.2342 0.0659,0.4627 c 0.0155,0.0866 0.034,0.1709 0.0539,0.2559 a 4.89,4.89 0 0 0 0.198,0.6376 c 0.045,0.1179 0.0942,0.2318 0.1477,0.3451 a 4.9518,4.9518 0 0 0 0.2718,0.5009 c 0.0856,0.1382 0.1793,0.268 0.2774,0.3969 0.0467,0.06 0.0962,0.1182 0.1456,0.1765 a 5.0073,5.0073 0 0 0 1.3924,1.157 4.9544,4.9544 0 0 0 -0.0665,0.66 5.0089,5.0089 0 0 0 3.7823,4.8478 c -0.002,0.0585 -0.0173,0.1132 -0.0173,0.1722 a 5.02,5.02 0 0 0 5.02,5.02 4.9639,4.9639 0 0 0 1.3666,-0.2121 4.989,4.989 0 0 0 8.14,2.7692 4.9821,4.9821 0 0 0 8.5965,0 4.9889,4.9889 0 0 0 8.14,-2.7692 4.965,4.965 0 0 0 1.3664,0.2121 5.02,5.02 0 0 0 5.02,-5.02 c 0,-0.059 -0.0153,-0.1137 -0.0173,-0.1722 a 5.009,5.009 0 0 0 3.7825,-4.8478 5.0864,5.0864 0 0 0 -0.0659,-0.66 5.0051,5.0051 0 0 0 1.3918,-1.1566 c 0.0494,-0.0583 0.0988,-0.116 0.1455,-0.1765 0.0981,-0.1289 0.1919,-0.2587 0.2775,-0.3969 a 4.9347,4.9347 0 0 0 0.7611,-2.5072 q 0,-0.3159 0,-0.6319"
       id="path4" />
  </g>
</g></svg>