<svg xmlns="http://www.w3.org/2000/svg" width="24" height="24" viewBox="0 0 24 24"> <g transform="translate(0.0 3.603803987729915) scale(0.4426278179116207)">
  
  <g
     id="line"
     fill="none"
     stroke="#000"
     stroke-linecap="round"
     stroke-linejoin="round"
     stroke-width="2"
     transform="translate(-6.1527519,-19.03)">
    <path
       d="m 26.91,31.33 a 56.83,56.83 0 0 0 11.38,1.055 c 2.161,0 4.236,-0.1 6.165,-0.2836 l 2.299,19.29"
       id="path2" />
    <path
       d="m 32.29,22.65 c -7.285,0.6737 -12.52,2.539 -12.52,4.735 l -2.545,22.98 a 2.426,2.426 0 0 0 1.106,2.319 c 2.148,1.368 7.571,3.575 19.97,3.252 11.94,-0.3118 17.41,-2.133 19.72,-3.298 a 2.442,2.442 0 0 0 1.339,-2.451 l -2.538,-22.8 c 0,-2.155 -5.043,-3.992 -12.12,-4.696"
       id="path4" />
    <path
       d="m 44.72,22.74 c 4.001,0.5136 6.723,1.525 6.723,2.69 0,1.684 -5.693,3.049 -12.72,3.049 -7.027,0 -12.71,-1.365 -12.71,-3.049 0,-1.123 2.532,-2.104 6.302,-2.633"
       id="path6" />
    <path
       d="m 32.62,25.12 v -1.476 a 3.614,3.614 0 0 1 3.614,-3.614 h 4.987 a 3.614,3.614 0 0 1 3.614,3.614 v 1.782"
       id="path8" />
    <path
       d="M 17.86,44.54 11.397,32.95 a 14.77,14.77 0 0 0 -1.062,-1.787 l -3.14,-2.687 a 0.1893,0.1893 0 0 1 0.0475,-0.3287 l 4.192,-0.5607 7.677,5.663"
       id="path10" />
  </g>
</g></svg>