<svg xmlns="http://www.w3.org/2000/svg" width="24" height="24" viewBox="0 0 24 24"> <g transform="translate(0.0 5.566635120378518) scale(0.4436803365256195)">
  
  <g
     id="line"
     transform="translate(-8.8101997,-20)">
    <path
       fill="none"
       stroke="#000"
       stroke-miterlimit="10"
       stroke-width="2"
       d="m 45.4984,25.0163 a 33.6355,33.6355 0 0 0 -3.6522,0.1018 11.7134,11.7134 0 0 0 -6.1521,1.7939 1.2523,1.2523 0 0 1 -0.5877,0.3008 1.2216,1.2216 0 0 1 -0.639,-0.1909 14.775,14.775 0 0 0 -6.2841,-1.255 c -3.3125,-0.08 -6.7515,0.2835 -9.6195,1.9429 -3.8016,2.2 -6.0438,6.8879 -3.6121,10.8918 a 11.1051,11.1051 0 0 0 6.2783,4.6054 21.6048,21.6048 0 0 0 6.5791,0.8253 15.4557,15.4557 0 0 0 8.1509,-1.8771 1.5292,1.5292 0 0 1 0.8584,-0.3322 1.564,1.564 0 0 1 0.6015,0.2222 12.2219,12.2219 0 0 0 4.74,1.0915 21.2181,21.2181 0 0 0 9.0651,-0.95 c 3.3556,-1.2655 6.6136,-4.2408 6.6136,-8.0656 0,-4.1762 -3.7449,-7.2023 -7.4315,-8.3417 a 18.61,18.61 0 0 0 -4.9087,-0.7631 z"
       id="path2" />
    <line
       x1="35.098701"
       x2="35.098701"
       y1="21.4767"
       y2="25.2668"
       fill="none"
       stroke="#000"
       stroke-linecap="round"
       stroke-linejoin="round"
       stroke-width="2"
       id="line4" />
    <line
       x1="36.6147"
       x2="36.6147"
       y1="42.7332"
       y2="46.5233"
       fill="none"
       stroke="#000"
       stroke-linecap="round"
       stroke-linejoin="round"
       stroke-width="2"
       id="line6" />
    <line
       x1="28.6507"
       x2="29.4184"
       y1="21.757999"
       y2="25.4695"
       fill="none"
       stroke="#000"
       stroke-linecap="round"
       stroke-linejoin="round"
       stroke-width="2"
       id="line8" />
    <line
       x1="42.053001"
       x2="42.820702"
       y1="43.530499"
       y2="47.242001"
       fill="none"
       stroke="#000"
       stroke-linecap="round"
       stroke-linejoin="round"
       stroke-width="2"
       id="line10" />
    <line
       x1="41.5467"
       x2="40.778999"
       y1="21"
       y2="24.7115"
       fill="none"
       stroke="#000"
       stroke-linecap="round"
       stroke-linejoin="round"
       stroke-width="2"
       id="line12" />
    <line
       x1="30.9345"
       x2="30.1668"
       y1="44.288502"
       y2="48"
       fill="none"
       stroke="#000"
       stroke-linecap="round"
       stroke-linejoin="round"
       stroke-width="2"
       id="line14" />
    <line
       x1="48.185398"
       x2="46.773899"
       y1="21.2013"
       y2="24.7188"
       fill="none"
       stroke="#000"
       stroke-linecap="round"
       stroke-linejoin="round"
       stroke-width="2"
       id="line16" />
    <line
       x1="25.434299"
       x2="24.022699"
       y1="44.385502"
       y2="47.903"
       fill="none"
       stroke="#000"
       stroke-linecap="round"
       stroke-linejoin="round"
       stroke-width="2"
       id="line18" />
    <line
       x1="24.022699"
       x2="25.434299"
       y1="21.855101"
       y2="25.372499"
       fill="none"
       stroke="#000"
       stroke-linecap="round"
       stroke-linejoin="round"
       stroke-width="2"
       id="line20" />
    <line
       x1="47.5532"
       x2="48.964699"
       y1="43.627499"
       y2="47.144901"
       fill="none"
       stroke="#000"
       stroke-linecap="round"
       stroke-linejoin="round"
       stroke-width="2"
       id="line22" />
    <line
       x1="53.650398"
       x2="51.9212"
       y1="22.031799"
       y2="25.4044"
       fill="none"
       stroke="#000"
       stroke-linecap="round"
       stroke-linejoin="round"
       stroke-width="2"
       id="line24" />
    <line
       x1="20.539801"
       x2="18.8106"
       y1="43.0462"
       y2="46.4188"
       fill="none"
       stroke="#000"
       stroke-linecap="round"
       stroke-linejoin="round"
       stroke-width="2"
       id="line26" />
    <line
       x1="51.791698"
       x2="53.520901"
       y1="42.553501"
       y2="45.926102"
       fill="none"
       stroke="#000"
       stroke-linecap="round"
       stroke-linejoin="round"
       stroke-width="2"
       id="line28" />
    <line
       x1="19.5686"
       x2="21.2978"
       y1="22.789801"
       y2="26.162399"
       fill="none"
       stroke="#000"
       stroke-linecap="round"
       stroke-linejoin="round"
       stroke-width="2"
       id="line30" />
    <line
       x1="58.113201"
       x2="61.903198"
       y1="34.120998"
       y2="34.120998"
       fill="none"
       stroke="#000"
       stroke-linecap="round"
       stroke-linejoin="round"
       stroke-width="2"
       id="line32" />
    <line
       x1="9.8101997"
       x2="13.6003"
       y1="34.879002"
       y2="34.879002"
       fill="none"
       stroke="#000"
       stroke-linecap="round"
       stroke-linejoin="round"
       stroke-width="2"
       id="line34" />
    <line
       x1="10.7922"
       x2="14.1632"
       y1="40.1651"
       y2="38.432701"
       fill="none"
       stroke="#000"
       stroke-linecap="round"
       stroke-linejoin="round"
       stroke-width="2"
       id="line36" />
    <line
       x1="11.0231"
       x2="14.4163"
       y1="29.326401"
       y2="31.0149"
       fill="none"
       stroke="#000"
       stroke-linecap="round"
       stroke-linejoin="round"
       stroke-width="2"
       id="line38" />
    <line
       x1="60.416302"
       x2="57.0453"
       y1="39.1651"
       y2="37.432701"
       fill="none"
       stroke="#000"
       stroke-linecap="round"
       stroke-linejoin="round"
       stroke-width="2"
       id="line40" />
    <line
       x1="61.185398"
       x2="57.792198"
       y1="29.326401"
       y2="31.0149"
       fill="none"
       stroke="#000"
       stroke-linecap="round"
       stroke-linejoin="round"
       stroke-width="2"
       id="line42" />
    <line
       x1="14.3797"
       x2="17.0597"
       y1="24.8307"
       y2="27.510599"
       fill="none"
       stroke="#000"
       stroke-linecap="round"
       stroke-linejoin="round"
       stroke-width="2"
       id="line44" />
    <line
       x1="55.3797"
       x2="58.0597"
       y1="40.8307"
       y2="43.510601"
       fill="none"
       stroke="#000"
       stroke-linecap="round"
       stroke-linejoin="round"
       stroke-width="2"
       id="line46" />
    <line
       x1="58.0597"
       x2="55.3797"
       y1="24.8307"
       y2="27.510599"
       fill="none"
       stroke="#000"
       stroke-linecap="round"
       stroke-linejoin="round"
       stroke-width="2"
       id="line48" />
    <line
       x1="16.0597"
       x2="13.3797"
       y1="41.8307"
       y2="44.510601"
       fill="none"
       stroke="#000"
       stroke-linecap="round"
       stroke-linejoin="round"
       stroke-width="2"
       id="line50" />
    <circle
       cx="25"
       cy="37"
       r="1.25"
       id="circle52" />
    <circle
       cx="32"
       cy="33"
       r="1.25"
       id="circle54" />
    <circle
       cx="21"
       cy="32"
       r="1.25"
       id="circle56" />
    <circle
       cx="45"
       cy="37"
       r="1.25"
       id="circle58" />
    <circle
       cx="52"
       cy="33"
       r="1.25"
       id="circle60" />
    <circle
       cx="40"
       cy="33"
       r="1.25"
       id="circle62" />
  </g>
</g></svg>