<svg xmlns="http://www.w3.org/2000/svg" width="24" height="24" viewBox="0 0 24 24"> <g transform="translate(0.0 0.8904831568813947) scale(0.4615393402383593)">
  
  <g
     id="line"
     transform="translate(-10.0003,-12.858852)">
    <path
       fill="none"
       stroke="#000"
       stroke-miterlimit="10"
       stroke-width="2"
       d="m 31.5,25.5689 c 0,0.1839 0,0.3678 0,0.6437 0,5.7012 -3.5862,10.3908 -8,10.3908 -4.4138,0 -8,-4.6897 -8,-10.3908 0,-0.1839 0,-0.3678 0,-0.6437"
       id="path2" />
    <path
       fill="none"
       stroke="#000"
       stroke-linecap="round"
       stroke-linejoin="round"
       stroke-width="2"
       d="m 13.9286,21.3903 c 0.5334,-7.7347 6.4011,-7.8236 9.335,-7.3791 0.2667,0.0889 1.0669,0 1.3336,0 5.3343,-0.7112 8.0014,5.3343 8.0014,8.0014 0,0.978 0.2255,3.3655 -1.1081,4.6991 0,0 -3.2483,-3.7211 -3.4261,-5.8549 0,0 -10.1352,3.8229 -10.8464,0.5334 0,0 -0.7112,2.6671 -1.3336,3.3784 0,0 -0.3288,2.0448 -0.3288,2.6671 2e-4,2e-4 -1.8937,-2.667 -1.627,-6.0454 z"
       id="path4" />
    <path
       fill="none"
       stroke="#000"
       stroke-linecap="round"
       stroke-linejoin="round"
       stroke-width="2"
       d="M 11.0003,60 V 44.9552 c 0,-3.2895 3.2918,-5.9566 6.5836,-5.9566 0.541,0.4546 1.082,0.8464 1.6232,1.1754"
       id="path6" />
    <path
       fill="none"
       stroke="#000"
       stroke-linecap="round"
       stroke-linejoin="round"
       stroke-width="2"
       d="m 52.6455,40.2424 c 0.5886,-0.3426 1.1789,-0.7573 1.7711,-1.2439 3.2918,0 6.5836,2.6671 6.5836,5.9566 V 60"
       id="path8" />
    <path
       d="m 22.25,26.5 c 0,0.7143 -0.5357,1.25 -1.25,1.25 -0.7143,0 -1.25,-0.5357 -1.25,-1.25 0,-0.7143 0.5357,-1.25 1.25,-1.25 0.7143,0 1.25,0.5357 1.25,1.25"
       id="path10" />
    <path
       d="m 27.25,26.5 c 0,0.7143 -0.5357,1.25 -1.25,1.25 -0.7143,0 -1.25,-0.5357 -1.25,-1.25 0,-0.7143 0.5357,-1.25 1.25,-1.25 0.7143,0 1.25,0.5357 1.25,1.25"
       id="path12" />
    <path
       fill="none"
       stroke="#000"
       stroke-linecap="round"
       stroke-linejoin="round"
       stroke-width="2"
       d="m 21.633,31.5332 c 1.1558,0.6223 2.5782,0.6223 3.734,0"
       id="path14" />
    <path
       fill="none"
       stroke="#000"
       stroke-linecap="round"
       stroke-linejoin="round"
       stroke-width="1.6"
       d="m 44.1639,49.1857 c 0.7749,0.6425 1.8974,0.6425 2.6723,0"
       id="path16" />
    <path
       fill="none"
       stroke="#000"
       stroke-linecap="round"
       stroke-linejoin="round"
       stroke-width="1.6"
       d="M 17,60.2 V 58.4667 C 17,56 19.5018,54 22.0036,54 c 2.9751,2.4667 5.9502,2.4667 8.9929,0 C 33.4982,54 36,56 36,58.4667 V 60.2"
       id="path18" />
    <path
       fill="none"
       stroke="#000"
       stroke-linecap="round"
       stroke-linejoin="round"
       stroke-width="1.6"
       d="M 36.0003,60.2 V 58.4667 C 36.0003,56 38.5021,54 41.0039,54 c 2.9751,2.4667 5.9502,2.4667 8.9929,0 2.5018,0 5.0036,2 5.0036,4.4667 V 60.2"
       id="path20" />
    <path
       d="m 29.298,45.7015 c 0.0333,0.4958 -0.3417,0.9247 -0.8377,0.958 -0.4959,0.0333 -0.9249,-0.3417 -0.9582,-0.8375 -0.0333,-0.4958 0.3417,-0.9247 0.8377,-0.958 0.0201,-0.0014 0.0402,-0.002 0.0604,-0.002 0.4796,-0.0155 0.8813,0.3601 0.8978,0.8395 z"
       id="path22" />
    <path
       fill="none"
       stroke="#000"
       stroke-linecap="round"
       stroke-linejoin="round"
       stroke-width="1.6"
       d="m 25.1639,49.1857 c 0.7749,0.6425 1.8974,0.6425 2.6723,0"
       id="path24" />
    <path
       d="m 24.5998,44.862 c 0.0201,0 0.0403,7e-4 0.0604,0.002 0.4959,0.0333 0.871,0.4622 0.8377,0.958 -0.0333,0.4958 -0.4623,0.8707 -0.9582,0.8375 -0.4959,-0.0333 -0.871,-0.4622 -0.8377,-0.958 0.0165,-0.4794 0.4182,-0.855 0.8978,-0.8395 z"
       id="path26" />
    <path
       d="m 48.2984,45.7015 c 0.0333,0.4958 -0.3417,0.9247 -0.8377,0.958 -0.4959,0.0333 -0.9249,-0.3417 -0.9582,-0.8375 -0.0333,-0.4958 0.3417,-0.9247 0.8377,-0.958 0.0201,-0.0014 0.0402,-0.002 0.0604,-0.002 0.4795,-0.0155 0.8812,0.3601 0.8978,0.8395 z"
       id="path28" />
    <path
       d="m 43.6002,44.862 c 0.0201,0 0.0403,7e-4 0.0604,0.002 0.4959,0.0333 0.871,0.4622 0.8377,0.958 -0.0333,0.4958 -0.4623,0.8707 -0.9582,0.8375 -0.4959,-0.0333 -0.871,-0.4622 -0.8377,-0.958 0.0164,-0.4794 0.4181,-0.855 0.8978,-0.8395 z"
       id="path30" />
    <path
       fill="none"
       stroke="#000"
       stroke-miterlimit="10"
       stroke-width="1.6"
       d="m 33.0493,45.2683 c 0.0078,0.141 0.0117,0.283 0.0118,0.4261 0.1437,3.7311 -2.758,6.8753 -6.4886,7.031 -3.7306,-0.1557 -6.6322,-3.2999 -6.4885,-7.031 0,-0.0952 0.0017,-0.1899 0.0052,-0.2841"
       id="path32" />
    <path
       fill="none"
       stroke="#000"
       stroke-linecap="round"
       stroke-linejoin="round"
       stroke-width="1.6"
       d="m 24.1355,42.2716 c 0.4694,3.3631 4.487,-0.8706 4.487,-0.8706 0.5491,1.5737 4.4254,3.8674 4.4254,3.8674 1.0324,-0.9557 0.5259,-2.8525 0.3721,-3.5136 -0.5106,-2.7127 -3.0794,-4.5325 -5.8079,-4.1144 -0.3436,0.0276 -0.6888,0.0276 -1.0324,0 -2.2709,-0.3369 -6.03,-0.1483 -7.12,4.6433 -0.5317,2.3382 0.624,2.9844 0.624,2.9844 0,0 3.764,-5.0588 4.0518,-2.9965 z"
       id="path34" />
    <path
       fill="none"
       stroke="#000"
       stroke-miterlimit="10"
       stroke-width="1.6"
       d="m 51.9833,45.4103 c 0.0035,0.0942 0.0052,0.1889 0.0052,0.2841 0.1437,3.7311 -2.7579,6.8753 -6.4885,7.031 -3.7306,-0.1557 -6.6323,-3.2999 -6.4886,-7.031 10e-5,-0.1431 0.004,-0.2851 0.0118,-0.4261"
       id="path36" />
    <path
       fill="none"
       stroke="#000"
       stroke-linecap="round"
       stroke-linejoin="round"
       stroke-width="1.6"
       d="m 51.9888,45.2681 c 0,0 1.1557,-0.6462 0.624,-2.9844 -1.09,-4.7916 -4.8491,-4.9802 -7.12,-4.6433 -0.3436,0.0276 -0.6888,0.0276 -1.0324,0 -2.7285,-0.4181 -5.2973,1.4017 -5.8079,4.1144 -0.1538,0.6611 -0.6603,2.5579 0.3721,3.5136 0,0 3.8763,-2.2937 4.4254,-3.8674 0,0 4.0176,4.2337 4.487,0.8706 0.2878,-2.0623 4.0518,2.9965 4.0518,2.9965 z"
       id="path38" />
    <path
       fill="none"
       stroke="#000"
       stroke-linecap="round"
       stroke-linejoin="round"
       stroke-width="2"
       d="m 46.633,31.5332 c 1.1558,0.6223 2.5782,0.6223 3.734,0"
       id="path40" />
    <path
       fill="none"
       stroke="#000"
       stroke-miterlimit="10"
       stroke-width="2"
       d="m 56.5,25.5689 c 0,0.2759 0,0.4598 0,0.6437 0,5.7011 -3.5862,10.3908 -8,10.3908 -4.4138,0 -8,-4.6896 -8,-10.3908 0,-0.2759 0,-0.4598 0,-0.6437"
       id="path42" />
    <path
       fill="none"
       stroke="#000"
       stroke-linecap="round"
       stroke-linejoin="round"
       stroke-width="2"
       d="m 56.4444,27.4357 c 0,-0.6223 -0.3288,-2.6671 -0.3288,-2.6671 -0.6224,-0.7113 -1.3336,-3.3784 -1.3336,-3.3784 -0.7112,3.2895 -10.8464,-0.5334 -10.8464,-0.5334 -0.1778,2.1338 -3.4261,5.8549 -3.4261,5.8549 -1.3336,-1.3336 -1.1081,-3.7211 -1.1081,-4.6991 0,-2.6671 2.6671,-8.7126 8.0014,-8.0014 0.2667,0 1.0669,0.0889 1.3336,0 2.9339,-0.4445 8.8016,-0.3556 9.335,7.3791 0.2667,3.3784 -1.6272,6.0456 -1.627,6.0454 z"
       id="path44" />
    <path
       d="m 49.75,26.5 c 0,-0.7143 0.5357,-1.25 1.25,-1.25 0.7143,0 1.25,0.5357 1.25,1.25 0,0.7143 -0.5357,1.25 -1.25,1.25 -0.7143,0 -1.25,-0.5357 -1.25,-1.25"
       id="path46" />
    <path
       d="m 44.75,26.5 c 0,-0.7143 0.5357,-1.25 1.25,-1.25 0.7143,0 1.25,0.5357 1.25,1.25 0,0.7143 -0.5357,1.25 -1.25,1.25 -0.7143,0 -1.25,-0.5357 -1.25,-1.25"
       id="path48" />
  </g>
</g></svg>