<svg xmlns="http://www.w3.org/2000/svg" width="24" height="24" viewBox="0 0 24 24"> <g transform="scale(0.5)">
  
  <g
     id="line"
     transform="translate(-12,-12)">
    <circle
       cx="36"
       cy="36"
       r="23"
       fill="none"
       stroke="#000"
       stroke-miterlimit="10"
       stroke-width="2"
       id="circle2" />
    <path
       fill="none"
       stroke="#000"
       stroke-miterlimit="10"
       stroke-width="2"
       d="m 40.5,42.25 c -1.8,5.8 -6,10.7 -9,9.8 -3,-0.9 -4,-4.9 -2.3,-10.8"
       id="path4" />
    <path
       fill="none"
       stroke="#000"
       stroke-linecap="round"
       stroke-linejoin="round"
       stroke-width="2.0013"
       d="m 46.8,39.7 a 4,4 0 0 0 0,6"
       id="path6" />
    <path
       fill="none"
       stroke="#000"
       stroke-linecap="round"
       stroke-linejoin="round"
       stroke-width="2.0013"
       d="m 23.8,42.7 c 2.3,-0.8 6.8,-1 10.5,-1 3.7,0 8.3,0.2 10.5,1"
       id="path8" />
    <path
       fill="none"
       stroke="#000"
       stroke-linecap="round"
       stroke-miterlimit="10"
       stroke-width="2"
       d="m 48.9,32.4 a 4.7,4.7 0 0 0 -8.6,0"
       id="path10" />
    <path
       fill="none"
       stroke="#000"
       stroke-linecap="round"
       stroke-miterlimit="10"
       stroke-width="2"
       d="m 31.7,32.4 a 4.7,4.7 0 0 0 -8.6,0"
       id="path12" />
  </g>
</g></svg>