<svg xmlns="http://www.w3.org/2000/svg" width="24" height="24" viewBox="0 0 24 24"> <g transform="translate(0.0 4.357280722778999) scale(0.4672515734842753)">
  
  <g
     id="line"
     transform="translate(-8.6742532,-19.599992)">
    <circle
       cx="34.003399"
       cy="46.753601"
       r="4.5598998"
       fill="none"
       stroke="#000"
       stroke-miterlimit="10"
       stroke-width="2"
       id="circle2" />
    <path
       fill="none"
       stroke="#000"
       stroke-miterlimit="10"
       stroke-width="2"
       d="m 26.4722,44.9147 c 0.5586,-0.057 1.1058,-0.114 1.6643,-0.171 0.6156,-0.0684 1.2312,-0.1254 1.8582,-0.171 M 13.123,34.6435 c -0.0228,-1.8012 0,-3.6023 0.0456,-5.4149 a 8.9939,8.9939 0 0 1 9.8608,-8.5612 112.12,112.12 0 0 0 16.9287,0.798 c 2.6448,-0.114 5.2781,-0.399 7.9,-0.6954 a 9.9728,9.9728 0 0 1 7.1362,1.3565 8.79,8.79 0 0 1 4.0128,7.2959 c 0.0342,1.1856 0.057,6.7829 -0.1482,8.3446 A 8.8782,8.8782 0 0 1 49.42,45.2225 c -2.7131,-0.2166 -5.4263,-0.57 -8.1508,-0.7068 -1.1172,-0.057 -2.2344,-0.0912 -3.3515,-0.114"
       id="path4" />
    <circle
       cx="53.124199"
       cy="33.259602"
       r="1.4316"
       id="circle6" />
    <circle
       cx="26.6059"
       cy="34.369999"
       r="1.4316"
       id="circle8" />
    <circle
       cx="33.4795"
       cy="27.692301"
       r="1.4316"
       id="circle10" />
    <circle
       cx="46.522999"
       cy="39.3041"
       r="1.4316"
       id="circle12" />
    <circle
       cx="44.3871"
       cy="28.940001"
       r="1.9457999"
       fill="none"
       stroke="#000"
       stroke-miterlimit="10"
       stroke-width="2"
       id="circle14" />
    <circle
       cx="21.5865"
       cy="27.692301"
       r="1.9457999"
       fill="none"
       stroke="#000"
       stroke-miterlimit="10"
       stroke-width="2"
       id="circle16" />
    <circle
       cx="35.425301"
       cy="37.451698"
       r="1.9457999"
       fill="none"
       stroke="#000"
       stroke-miterlimit="10"
       stroke-width="2"
       id="circle18" />
    <path
       fill="none"
       stroke="#000"
       stroke-linecap="round"
       stroke-linejoin="round"
       stroke-width="2"
       d="m 19.4032,38.6779 a 5.6221,5.6221 0 0 0 -0.6279,0.2322 4.5039,4.5039 0 0 0 -0.0337,-0.5787 4.56,4.56 0 1 0 -3.7829,5.2226 c 0.08,-0.0127 0.1506,-0.0439 0.2285,-0.0605 a 5.6937,5.6937 0 1 0 4.216,-4.8156 z"
       id="path20" />
  </g>
</g></svg>