<svg xmlns="http://www.w3.org/2000/svg" width="24" height="24" viewBox="0 0 24 24"> <g transform="translate(0.6289146746997822 0.0) scale(0.43709977596450983)">
  
  <g
     id="line"
     transform="translate(-9.81,-6.0718294)">
    <path
       fill="none"
       stroke="#000"
       stroke-linecap="round"
       stroke-linejoin="round"
       stroke-miterlimit="10"
       stroke-width="2"
       d="m 50.3073,19.3462 c 6.3743,4.0565 10.5324,10.7195 10.5324,18.2513 0,12.3611 -11.1995,22.3817 -25.0149,22.3817 -13.8154,0 -25.0148,-10.0206 -25.0148,-22.3817 0,-7.3745 3.9861,-13.9159 10.1357,-17.9936"
       id="path2" />
    <path
       fill="none"
       stroke="#000"
       stroke-linejoin="round"
       stroke-miterlimit="10"
       stroke-width="2"
       d="m 46.3245,15.8489 c -0.384,1.3824 -0.9937,3.0311 -2.4357,4.235 C 38,25 30.2513,23.2876 26.8173,20.0838 c -1.3604,-1.2836 -2.0407,-2.8525 -2.4246,-4.235 -0.6364,-2.2821 -0.3621,-4.1691 -0.3621,-4.1691 0,0 2.2821,-0.3291 4.8384,0.5815 0.8668,0.3072 1.7664,0.757 2.6222,1.4044 0.4827,-3.3682 2.7319,-5.6174 3.5547,-6.3415 l 0.3072,-0.2523 0.3072,0.2523 c 0.8229,0.7242 3.0721,2.9733 3.5548,6.3415 0.8557,-0.6473 1.7554,-1.0971 2.6221,-1.4044 2.5564,-0.9106 4.8384,-0.5815 4.8384,-0.5815 0,0 0.2853,1.8871 -0.3511,4.1692 z"
       id="path4" />
  </g>
</g></svg>