<svg xmlns="http://www.w3.org/2000/svg" width="24" height="24" viewBox="0 0 24 24"> <g transform="translate(0.17354114861677417 -1.7763568394002505e-15) scale(0.5654076929888999)">
  
  <g
     id="line"
     transform="translate(-13.1566,-14.40016)">
    <path
       fill="none"
       stroke="#000"
       stroke-miterlimit="10"
       stroke-width="2"
       d="m 25.942,31.2662 c -1.6653,-1.6314 -2.8128,-3.7174 -3.2992,-5.9974 -0.4464,-2.2508 -0.2846,-4.9334 2.1864,-6.5942 0,0 10.4386,-7.3873 19.5924,0 0,0 11.081,6.8252 9.3948,24.6511 0,0 -0.1606,12.2855 -12.687,12.4461 0,0 -6.1828,1.5256 -6.8252,-8.5918 0.0609,-0.9424 0.059,-1.8878 -0.0055,-2.83 -0.2494,-3.8546 -2.0436,-7.4455 -4.9764,-9.9593 -1.0276,-0.8832 -2.2367,-1.9723 -3.3803,-3.1245 z"
       id="path2" />
    <path
       fill="none"
       stroke="#000"
       stroke-linecap="round"
       stroke-linejoin="round"
       stroke-width="2"
       d="m 34.9867,29.073 c 0,0 -3.9033,1.592 -7.2512,0.4347"
       id="path4" />
    <path
       fill="none"
       stroke="#000"
       stroke-linecap="round"
       stroke-linejoin="round"
       stroke-width="2"
       d="m 40.4068,43.4863 c 0,0 -6.9056,-0.8029 -9.6357,-3.8141 0,0 -3.3091,-3.739 -9.8363,0 l -6.7782,2.3365"
       id="path6" />
    <path
       fill="none"
       stroke="#000"
       stroke-linecap="round"
       stroke-linejoin="round"
       stroke-width="2"
       d="m 36.7879,33.69 c -0.4326,0.3737 -0.7294,0.88 -0.8442,1.44 -0.1346,0.6446 -0.0589,1.3153 0.2161,1.9136 0.3386,0.7868 0.7848,2.5839 -0.3043,5.44"
       id="path8" />
    <path
       fill="none"
       stroke="#000"
       stroke-linecap="round"
       stroke-linejoin="round"
       stroke-width="2"
       d="m 14.1566,42.0087 6.7782,-2.3365 c 0,0 5.6207,-2.2483 6.4237,-5.701 0,0 -0.3212,-6.0223 2.0877,-7.3071"
       id="path10" />
  </g>
</g></svg>