<svg xmlns="http://www.w3.org/2000/svg" width="24" height="24" viewBox="0 0 24 24"> <g transform="translate(4.936314238080392 1.7763568394002505e-15) scale(0.5523990298584104)">
  
  <g
     id="line"
     transform="translate(-22.436235,-14.714842)">
    <path
       fill="none"
       stroke="#000"
       stroke-linecap="round"
       stroke-linejoin="round"
       stroke-miterlimit="10"
       stroke-width="2"
       d="m 30,31 c 0,0 -2,23 7,26 9,3 14,-34 6,-34 C 36.7925,23 36,22 31.2901,22.6578 29.9197,22.8491 27.9837,22.7602 26,24 c -8,5 5,29 8,31"
       id="path2" />
    <path
       fill="none"
       stroke="#000"
       stroke-linecap="round"
       stroke-linejoin="round"
       stroke-miterlimit="10"
       stroke-width="2"
       d="m 42,22 c 0,0 1,-3 -2,-3 -3,0 -7,0 -7,0 0,0 -2.1402,-0.4205 -1,3"
       id="path4" />
    <path
       fill="none"
       stroke="#000"
       stroke-linecap="round"
       stroke-linejoin="round"
       stroke-miterlimit="10"
       stroke-width="2"
       d="m 34,18 c 3.2,-5.3333 5.1333,0.3333 5,0"
       id="path6" />
  </g>
</g></svg>