<svg xmlns="http://www.w3.org/2000/svg" width="24" height="24" viewBox="0 0 24 24"> <g transform="translate(0.16684161782347928 0.0) scale(0.48842509850516685)">
  
  <g
     id="line"
     transform="translate(-11.633123,-12.867976)">
    <path
       fill="none"
       stroke="#000"
       stroke-linecap="round"
       stroke-linejoin="round"
       stroke-miterlimit="10"
       stroke-width="2"
       d="m 39.3855,22.3566 c 0.4635,0 0.8719,-0.305 0.9938,-0.7522 0.5599,-2.0537 2.5904,-6.9293 7.6535,-7.6044 7.8343,-1.0446 10.968,4.1783 10.968,8.3565 0,5.0604 -2.0891,5.2228 -3.4152,7.597 -0.2637,0.4721 -0.4077,1.0587 -0.0342,1.4497 5.4428,5.697 8.1892,29.6023 -19.5311,29.6023 C 10.9508,61.0057 9,41 16.4762,31.384 c 0.333,-0.4283 0.391,-1.0013 0.0259,-1.4026 -1.4705,-1.6157 -4.5595,-5.6648 -2.9399,-9.7139 2.0891,-5.2228 6.2674,-6.2674 9.4011,-6.2674 3.0031,0 7.9249,1.9186 9.2492,7.5947 0.1057,0.4531 0.5276,0.7619 0.9928,0.7619 z"
       id="path2" />
    <path
       fill="none"
       stroke="#000"
       stroke-linecap="round"
       stroke-linejoin="round"
       stroke-miterlimit="10"
       stroke-width="2"
       d="m 22.441,48.4708 c 0,0 13.5794,12.5348 28.2033,0"
       id="path4" />
    <circle
       cx="22.441"
       cy="23.401199"
       r="3.1336999"
       fill="#000"
       stroke="none"
       id="circle6" />
    <circle
       cx="49.599701"
       cy="23.401199"
       r="3.1336999"
       fill="#000"
       stroke="none"
       id="circle8" />
    <circle
       cx="31.8421"
       cy="43.248001"
       r="2.0890999"
       fill="#000"
       stroke="none"
       id="circle10" />
    <circle
       cx="40.198601"
       cy="43.248001"
       r="2.0890999"
       fill="#000"
       stroke="none"
       id="circle12" />
  </g>
</g></svg>