<svg xmlns="http://www.w3.org/2000/svg" width="24" height="24" viewBox="0 0 24 24"> <g transform="translate(3.8098711768492493 0.0) scale(0.41237923989433745)">
  
  <g
     id="line"
     transform="translate(-18.534549,-6.496337)">
    <path
       fill="none"
       stroke="#000"
       stroke-linecap="round"
       stroke-linejoin="round"
       stroke-width="2"
       d="m 36.2291,52.1048 1.6033,-2.9724 -3.2724,-0.8341 1.6033,-2.9724 -3.2733,-0.8341 1.6033,-2.9724 -3.2731,-0.8345 1.6035,-2.9727 -3.2727,-0.834 1.6033,-2.9725 -3.2727,-0.834 1.6033,-2.9725 -3.2727,-0.834 1.6033,-2.9725 -3.2727,-0.834 1.6033,-2.9725 -3.2727,-0.834 1.6036,-2.9722 -3.2727,-0.8341 1.6033,-2.9724 -3.2731,-0.8346 1.6034,-2.9726 6.0357,-3.57 20.6964,34.9923"
       id="path2" />
    <path
       fill="none"
       stroke="#000"
       stroke-linecap="round"
       stroke-linejoin="round"
       stroke-width="2"
       d="m 38.3093,54.5876 4.8068,-7.5305 a 2.1045,2.1045 0 0 1 1.4986,-0.9541 l 5.7683,-0.7611 a 2.0017,2.0017 0 0 1 1.9849,0.9655 l 4.7473,8.0266 a 1.0436,1.0436 0 0 1 -0.367,1.4295 l -0.6281,0.3714 A 1.0435,1.0435 0 0 1 54.6907,55.768 l -0.5256,-0.8886 -10.089,5.9671 0.5256,0.8886 a 1.0435,1.0435 0 0 1 -0.367,1.4294 l -0.6587,0.39 a 1.0436,1.0436 0 0 1 -1.4295,-0.367 L 38.2743,56.64 a 1.96,1.96 0 0 1 0.035,-2.0524 z"
       id="path4" />
    <polyline
       fill="none"
       stroke="#000"
       stroke-linecap="round"
       stroke-linejoin="round"
       stroke-width="2"
       points="52.21 51.568 51.201 49.861 41.97 55.321 42.979 57.028"
       id="polyline6" />
  </g>
</g></svg>