<svg xmlns="http://www.w3.org/2000/svg" width="24" height="24" viewBox="0 0 24 24"> <g transform="translate(4.288360165119051 0.0) scale(0.411752804409749)">
  
  <g
     id="line"
     transform="translate(-15.5863,-5.1037998)">
    <path
       fill="none"
       stroke="#000"
       stroke-linecap="round"
       stroke-linejoin="round"
       stroke-width="2"
       d="m 40.2274,11.6776 10.6766,2.0972 0.9533,2.86 c 0.9533,1.9065 -1.9065,2.86 -2.86,0"
       id="path2" />
    <path
       fill="none"
       stroke="#000"
       stroke-linecap="round"
       stroke-linejoin="round"
       stroke-width="2"
       d="m 16.5863,7.1019 10.486,2.0019"
       id="path4" />
    <path
       fill="none"
       stroke="#000"
       stroke-linecap="round"
       stroke-linejoin="round"
       stroke-width="2"
       d="M 28.0256,18.5411 26.691,22.45 c -0.286,0.9533 -0.7626,2.6692 -1.0486,3.6225 l -1.0486,4.8617 c -0.1906,1.0486 -0.4766,2.6691 -0.5719,3.7177 l -0.6673,8.5795 c -0.0954,1.0486 -0.1907,2.7644 -0.1907,3.813 V 60.39 c 0,1.0486 0.6673,1.9066 1.43,1.9066 A 1.9638,1.9638 0 0 0 26.2144,60.39 l 1.43,-12.3925 c 0.0953,-1.0486 0.286,-2.7645 0.3813,-3.8131 l 0.572,-5.72 c 0.0953,-1.0486 0.3813,-1.9065 0.6672,-1.9065 0.2859,0 0.6673,0.8579 0.858,1.9065 l 1.2392,6.7682 a 22.6577,22.6577 0 0 0 1.0486,3.6225 l 4.385,11.7249 a 2.8,2.8 0 0 0 2.0972,1.8112 c 0.7626,0 1.2392,-0.8579 0.9533,-1.8112 l -2.86,-11.5346 A 25.07,25.07 0 0 1 36.4143,45.3276 L 35.747,35.7949 c -0.0953,-1.0486 -0.3813,-2.7644 -0.572,-3.7177 v -0.0953 a 12.2615,12.2615 0 0 1 -0.286,-3.7178 l 0.572,-6.6729 a 9.2911,9.2911 0 0 0 -0.286,-3.3364 4.0017,4.0017 0 0 0 -2.2878,-2.0019 l -5.91,-1.8112 A 4.6631,4.6631 0 0 1 24.4034,12.1538 L 23.2594,9.008"
       id="path6" />
    <circle
       cx="33.745201"
       cy="9.1037998"
       r="3"
       fill="none"
       stroke="#000"
       stroke-miterlimit="10"
       stroke-width="2"
       id="circle8" />
    <path
       fill="none"
       stroke="#000"
       stroke-linecap="round"
       stroke-linejoin="round"
       stroke-width="2"
       d="m 27.0723,20.4477 -4.7663,-0.572 a 3.3716,3.3716 0 0 1 -2.86,-3.2411 V 8.0552"
       id="path10" />
  </g>
</g></svg>