<svg xmlns="http://www.w3.org/2000/svg" width="24" height="24" viewBox="0 0 24 24"> <g transform="translate(0.0 3.650712189675602) scale(0.38451446189331906)">
  
  <g
     id="line"
     transform="translate(-4.1193,-15.89069)">
    <path
       fill="none"
       stroke="#000"
       stroke-linecap="round"
       stroke-linejoin="round"
       stroke-miterlimit="10"
       stroke-width="2"
       d="m 21.2018,46.7173 c 1.2841,2.2998 0.6705,4.1675 -0.3068,5.0943 -1.0582,1.0035 -3.1239,1.4522 -4.5341,1.0805 -12.6453,-3.3328 -3.9473,-25.1574 -3.9473,-25.1574 0.6152,-9.2276 8.0852,-8.8761 8.0852,-8.8761 0,0 6.9105,-4.5689 11.0186,0.1662 1.2299,1.4176 1.7756,3.2996 1.7197,5.1755 -0.0871,2.9273 2.8817,6.9577 -1.6526,10.3584 -1.75,1.3125 -0.947,5.108 -4.5,5.5833 0,0 -5.0918,0.5197 -5.1797,-7.4775"
       id="path2" />
    <path
       fill="none"
       stroke="#000"
       stroke-linecap="round"
       stroke-linejoin="round"
       stroke-miterlimit="10"
       stroke-width="2"
       d="m 25.3153,40.5458 c 0,0 -0.3114,2.4517 1.0948,12.4702 l -1.5105,2.5977 c -0.5087,0.8748 0.0629,1.9876 1.0713,2.0714 1.2249,0.1018 3.9499,0.1775 5.2613,0.0134 1.0114,-0.1266 1.8256,-1.0297 1.7028,-2.0416 -0.8553,-7.0462 0.6214,-11.0302 0.6214,-11.0302 4.6607,3.5732 11.223,0.1962 14.9141,-0.1554 0.7382,-0.0703 2.0387,0.1671 2.6527,0.3435 2.3131,0.6643 3.8527,2.1228 3.7945,8.5894 l -1.5535,2.5634 c -0.4911,0.9067 0.1568,2.0371 1.1652,2.2526 1.1002,0.2352 4.1595,-0.0517 5.0685,-0.2525 1.7298,-0.382 1.6507,-2.2086 1.7573,-3.9768 0.2273,-3.7699 -0.0975,-9.0142 -0.3054,-11.7441 -0.0757,-0.9936 -0.0446,-1.9861 0.1017,-2.9718 0.3711,-2.5006 3.1904,-12.548 -8.1712,-19.2086 -6.5744,-3.8542 -13.1928,4.2417 -20.6246,-0.55"
       id="path4" />
    <path
       fill="none"
       stroke="#000"
       stroke-linecap="round"
       stroke-linejoin="round"
       stroke-miterlimit="10"
       stroke-width="2"
       d="m 18.1259,35.9077 c 0,0 0.1758,10.8095 -13.0066,11.1611"
       id="path6" />
    <path
       fill="none"
       stroke="#000"
       stroke-linecap="round"
       stroke-linejoin="round"
       stroke-miterlimit="10"
       stroke-width="2"
       d="m 64.1336,29.8101 c 1.0513,2.4141 1.7681,6.2446 1.2036,12.3001"
       id="path8" />
    <path
       fill="none"
       stroke="#000"
       stroke-linecap="round"
       stroke-linejoin="round"
       stroke-miterlimit="10"
       stroke-width="2"
       d="m 47.9594,45.4242 0.4015,4.8512 c 0.0638,0.7704 -0.1286,1.5402 -0.5457,2.1835 l -0.883,1.3619 c -0.2136,0.3294 -0.3728,0.8248 -0.464,1.3684 -0.2372,1.4145 0.847,2.7027 2.2429,2.7027 h 1.1233"
       id="path10" />
  </g>
</g></svg>