<svg xmlns="http://www.w3.org/2000/svg" width="24" height="24" viewBox="0 0 24 24"> <g transform="translate(-1.7763568394002505e-15 0.03375164609948378) scale(0.5400090573019136)">
  
  <g
     id="line"
     transform="translate(-12.483601,-14.960522)">
    <g
       id="g28">
      <path
         fill="none"
         stroke="#000"
         stroke-linecap="round"
         stroke-miterlimit="10"
         stroke-width="2"
         d="m 40.82,41.5656 c 0.2106,0.6231 1.7517,4.7609 1.8826,5.1156 a 2.2912,2.2912 0 0 1 0.1394,0.8982 c -0.2637,5.4983 -1.66,6.9861 -2.0154,7.2784 -0.0225,0.0166 0.0218,-0.0174 0,0"
         id="path2" />
      <path
         fill="none"
         stroke="#000"
         stroke-linecap="round"
         stroke-miterlimit="10"
         stroke-width="2"
         d="M 43.0515,57.6769 C 46.925,54.223 46.5947,44.5008 46.5947,44.5008"
         id="path4" />
      <path
         fill="none"
         stroke="#000"
         stroke-miterlimit="10"
         stroke-width="2"
         d="m 40.8261,54.8578 a 2.2214,2.2214 0 0 0 -0.7423,1.2974 1.8749,1.8749 0 0 0 1.681,1.9961 1.7155,1.7155 0 0 0 1.4565,-0.6287 l 0.0022,0.0022"
         id="path6" />
      <path
         fill="none"
         stroke="#000"
         stroke-miterlimit="10"
         stroke-width="2"
         d="m 29.0794,46.4765 0.8961,2.64 c 1.1916,3.3885 0.69,4.9745 0.1641,5.6834 l -0.6091,0.529 a 1.8273,1.8273 0 0 0 -0.3085,1.8852 1.9989,1.9989 0 0 0 2.6854,0.8465 2.22,2.22 0 0 0 1.1967,-1.2528 v 0 c 0.0019,-0.009 0.0079,-0.0189 0.01,-0.028 a 1.8022,1.8022 0 0 0 0.1024,-0.6733 69.3265,69.3265 0 0 0 0.1615,-7.3127 10.11,10.11 0 0 0 -0.112,-2.3047 9.876,9.876 0 0 0 -0.96,-2.9863"
         id="path8" />
      <g
         id="g26">
        <path
           fill="none"
           stroke="#000"
           stroke-linecap="round"
           stroke-miterlimit="10"
           stroke-width="2"
           d="m 18.4664,47.75 a 3.5053,3.5053 0 0 0 0.204,2.5082 1.8926,1.8926 0 0 0 2.4356,1.084 c 0.8852,-0.4056 0.8639,-1.798 0.56,-2.8258"
           id="path10" />
        <path
           fill="none"
           stroke="#000"
           stroke-linecap="round"
           stroke-miterlimit="10"
           stroke-width="2"
           d="m 21.6208,48.366 a 4.5851,4.5851 0 0 1 3.7092,-1.6119 1.9908,1.9908 0 0 1 0.548,0.083 3.0274,3.0274 0 0 0 3.67,-1.3743"
           id="path12" />
        <g
           id="g18">
          <path
             fill="none"
             stroke="#000"
             stroke-linecap="round"
             stroke-miterlimit="10"
             stroke-width="2"
             d="m 53.42,33.0552 -0.2959,5.6328 c 0,0 -0.2094,3.6923 0.8078,4.5412 a 7.0925,7.0925 0 0 1 1.2718,4.7532 c 0,0 0.5363,5.7576 0.6973,7.9908"
             id="path14" />
          <path
             fill="none"
             stroke="#000"
             stroke-linecap="round"
             stroke-miterlimit="10"
             stroke-width="2"
             d="m 48.4465,23.8236 c 2.5433,-6.4561 5.1809,-3.19 5.1809,-3.19 3.1773,3.94 -0.9929,6.3629 -2.8305,7.1889 a 1.7628,1.7628 0 0 1 -1.39,-0.02 c -2.5616,-1.0291 -8.8257,0.179 -8.8257,0.179 -7.8521,0.7332 -9.4782,-2.556 -9.4782,-2.556 a 48.8236,48.8236 0 0 1 -3.0644,-7.2278 1.8421,1.8421 0 0 0 -1.0479,-1.1625 20.7191,20.7191 0 0 0 -5.1529,-1.0346 c -3.1365,-0.36 -3.5144,1.6507 -3.5144,1.6507 -0.532,1.369 -1.4378,1.3242 -1.4378,1.3242 l -1.8637,0.0069 c -2.3112,0.1289 -1.3312,2.5027 -1.3312,2.5027 -0.5857,3.0885 3.0884,3.7274 3.0884,3.7274 a 4.7691,4.7691 0 0 1 3.1949,1.3313 18.1364,18.1364 0 0 1 2.9287,7.8275 c 0.213,3.6741 1.7347,4.9614 1.7347,4.9614 2.8549,2.7708 0,3.82 0,3.82 -4.2084,1.5247 -5.75,3.2313 -6.1435,4.6061"
             id="path16" />
        </g>
        <path
           fill="none"
           stroke="#000"
           stroke-linecap="round"
           stroke-miterlimit="10"
           stroke-width="2"
           d="m 55.9007,55.9732 c 0.1855,1.6659 -0.9823,2.0907 -2.0845,2.0184 a 1.8925,1.8925 0 0 1 -1.88,-1.89 9.1155,9.1155 0 0 1 0.3381,-1.4584"
           id="path20" />
        <path
           fill="none"
           stroke="#000"
           stroke-linecap="round"
           stroke-miterlimit="10"
           stroke-width="2"
           d="m 55.9007,55.9732 c 0.0105,0.1456 0.02,0.2772 0.0266,0.39"
           id="path22" />
        <path
           fill="none"
           stroke="#000"
           stroke-linecap="round"
           stroke-miterlimit="10"
           stroke-width="2"
           d="m 52.125,55.2574 c 0.3731,-1.245 1.0885,-4.4929 -0.6282,-7.0156 a 1.726,1.726 0 0 0 -0.4809,-0.4666 c -1.1305,-0.742 -5.4176,-3.6535 -7.3255,-6.34 a 1.524,1.524 0 0 0 -1.1195,-0.6229 c -2.4893,-0.2181 -10.3347,-0.4413 -13.209,4.982"
           id="path24" />
      </g>
    </g>
  </g>
</g></svg>