<svg xmlns="http://www.w3.org/2000/svg" width="24" height="24" viewBox="0 0 24 24"> <g transform="translate(5.22291886204099 0.0) scale(0.5198822579326938)">
  
  <g
     id="line"
     transform="translate(-22.96,-13.2218)">
    <path
       d="m 38.97,14.268 h -5.5828 c -0.1475,-0.1475 2.7839,4.4322 2.7916,4.42 0.0076,0.012 2.9391,-4.5675 2.7912,-4.42 z"
       id="path2" />
    <path
       fill="none"
       stroke="#000"
       stroke-linecap="round"
       stroke-linejoin="round"
       stroke-width="2"
       d="m 23.96,17.1731 c 0.0775,-0.0278 5.1429,-2.9513 5.1429,-2.9513 H 42.18"
       id="path4" />
    <path
       fill="none"
       stroke="#000"
       stroke-linecap="round"
       stroke-linejoin="round"
       stroke-width="2"
       d="m 34.9279,24.8908 h 2.8388 A 10.2649,10.2649 0 0 1 48.0316,35.1557 V 52.74 a 5.6461,5.6461 0 0 1 -5.6461,5.6461 H 30.309 A 5.6461,5.6461 0 0 1 24.6629,52.74 V 35.1557 a 10.2649,10.2649 0 0 1 10.265,-10.2649 z"
       id="path6" />
    <path
       fill="none"
       stroke="#000"
       stroke-linecap="round"
       stroke-linejoin="round"
       stroke-width="2"
       d="m 36.0746,17.7765 v 0 a 3.7,3.7 0 0 1 3.7,3.7 v 3.1971 h -7.4 v -3.1971 a 3.7,3.7 0 0 1 3.7,-3.7 z"
       id="path8" />
    <ellipse
       cx="36.348099"
       cy="41.634701"
       rx="6.8339"
       ry="10.5612"
       fill="none"
       stroke="#000"
       stroke-miterlimit="10"
       stroke-width="2"
       id="ellipse10" />
  </g>
</g></svg>