<svg xmlns="http://www.w3.org/2000/svg" width="24" height="24" viewBox="0 0 24 24"> <g transform="scale(0.4528301886792453)">
  
  <g
     id="line"
     transform="translate(-9.5,-9.5)">
    <rect
       x="10.5"
       y="10.5"
       width="51"
       height="51"
       fill="none"
       stroke="#000"
       stroke-linejoin="round"
       stroke-width="2"
       id="rect2" />
    <path
       fill="none"
       stroke="#000"
       stroke-miterlimit="10"
       d="m 25.06,50.7014 c 0.2378,0.4745 0.6741,0.4215 0.85,0.85 0.1685,0.41 -0.0872,0.8106 0,0.85 0.1671,0.0754 0.7026,-1.5731 1.7,-1.7 0.34,-0.0433 0.4736,0.1237 0.85,0 a 1.3842,1.3842 0 0 0 0.85,-0.85 c 0.054,-0.1549 0.2046,-0.5869 0,-0.85 -0.3079,-0.3959 -1.2364,-0.1734 -1.7,0 -0.8912,0.3334 -1.0041,0.8366 -1.7,0.85 -0.4182,0.0081 -0.6735,-0.168 -0.85,0 -0.1807,0.1719 -0.14,0.5717 0,0.85 z"
       id="path4" />
    <path
       fill="none"
       stroke="#000"
       stroke-miterlimit="10"
       d="m 22.51,48.1514 c -0.0742,0.2542 -0.1926,0.66 0,0.85 0.2955,0.2915 1.0947,-0.1489 2.55,-0.85 a 20.1665,20.1665 0 0 1 4.25,-1.7 c 0.0962,-0.0222 2.3236,-0.5251 2.55,0 0.15,0.3478 -0.7579,0.7277 -0.85,1.7 a 1.7056,1.7056 0 0 0 0.85,1.7 1.4454,1.4454 0 0 0 0.85,0 4.0475,4.0475 0 0 0 1.7,-0.85 c 0.5846,-0.4108 0.8764,-0.6208 0.85,-0.85 -0.0372,-0.3234 -0.6014,-0.3173 -0.85,-0.85 a 0.9048,0.9048 0 0 1 0,-0.85 c 0.2854,-0.4 1.1491,-0.3473 1.7,0 0.527,0.3323 0.4446,0.7307 0.85,0.85 0.664,0.1955 1.5334,-0.6819 1.7,-0.85 0.4853,-0.49 0.5823,-0.8665 0.85,-0.85 0.39,0.024 0.48,0.84 0.85,0.85 0.3156,0.0085 0.341,-0.5822 0.85,-0.85 0.6114,-0.3217 1.1219,0.2427 1.7,0 0.3436,-0.1442 0.4888,-0.48 0.85,-1.7 a 18.23,18.23 0 0 0 0.85,-3.4 c 0.0643,-1.4517 -0.3334,-1.6634 0,-2.55 0.2777,-0.7383 0.6585,-0.8711 0.85,-1.7 0.1762,-0.7627 -0.0978,-0.86 0,-1.7 0.16,-1.3764 0.948,-1.5718 0.85,-2.55 -0.0527,-0.5254 -0.2754,-0.4231 -0.85,-1.7 -0.518,-1.1509 -0.5077,-1.6132 -0.85,-1.7 -0.5666,-0.1437 -1.0627,1.0043 -1.7,0.85 -0.48,-0.1161 -0.4969,-0.8388 -0.85,-0.85 -0.3916,-0.0125 -0.8927,0.86 -0.85,1.7 0.04,0.7889 0.5367,1.1119 0.85,1.7 1.1071,2.0785 -1.2306,5.3028 -1.7,5.95 -1.35,1.862 -2.8381,2.5466 -3.4,2.55 -0.6136,0.0038 -0.85,0 -0.85,0 -0.7148,-0.0115 -0.7365,-0.0406 -0.85,0 -0.4111,0.147 -0.4509,0.6459 -0.85,1.7 a 4.9162,4.9162 0 0 1 -0.85,1.7 3.2542,3.2542 0 0 1 -1.7,0.85 c -1.803,0.4419 -2.3758,-0.25 -4.25,0 a 7.4207,7.4207 0 0 0 -2.55,0.85 4.69,4.69 0 0 0 -2.55,2.55 z"
       id="path6" />
    <path
       fill="none"
       stroke="#000"
       stroke-miterlimit="10"
       d="m 44.61,26.0508 c -0.3615,0.2868 -1.6219,1.2866 -2.55,0.85 -0.83,-0.39 -0.9886,-1.7377 -0.85,-2.55 a 3.993,3.993 0 0 1 0.85,-1.7 c 0.3369,-0.4627 0.514,-0.706 0.85,-0.85 0.7488,-0.3211 1.3011,0.2735 1.7,0 0.3139,-0.2152 0.2389,-0.766 0,-2.55 -0.2412,-1.802 -0.3545,-2.717 0,-3.4 0.142,-0.2735 0.4316,-0.8315 0.85,-0.85 0.9168,-0.0407 0.9017,2.5766 2.55,3.4 1.6418,0.82 3.6354,-0.7878 4.25,0 0.5091,0.6524 -0.5033,2.21 0,2.55 0.2686,0.1814 0.6871,-0.175 0.85,0 0.207,0.2224 -0.1359,1.1561 -0.85,1.7 -0.97,0.7385 -1.8176,0.1452 -2.55,0.85 -0.6625,0.6374 -0.3136,1.4543 -0.85,1.7 -0.7227,0.3311 -1.5085,-1.0816 -2.55,-0.85 -0.6974,0.1551 -0.6324,0.8534 -1.7,1.7 z"
       id="path8" />
    <path
       fill="none"
       stroke="#000"
       stroke-miterlimit="10"
       d="m 16.9847,51.1265 a 1.41,1.41 0 0 0 0.85,1.7 c 0.3625,0.1093 0.5133,-0.1133 0.85,0 a 1.6877,1.6877 0 0 1 0.85,1.7 c -0.12,1.1373 -1.4024,1.4564 -1.2751,2.125 0.0978,0.5133 0.9686,0.9271 1.7,0.85 1.6614,-0.175 2.4016,-2.8612 2.55,-3.4 0.2509,-0.91 0.5153,-1.87 0,-2.55 -0.4292,-0.5667 -1.1944,-0.6689 -2.55,-0.85 a 6.7983,6.7983 0 0 0 -1.7,0 c -0.7208,0.0891 -1.106,0.1368 -1.2749,0.425 z"
       id="path10" />
    <polygon
       fill="none"
       stroke="#000"
       stroke-linejoin="round"
       stroke-width="0.7934"
       points="56.91,52.744 54.5,57.5 52.014,52.744 54.5,47.429 "
       id="polygon12" />
  </g>
</g></svg>