<svg xmlns="http://www.w3.org/2000/svg" width="24" height="24" viewBox="0 0 24 24"> <g transform="translate(0.0 2.939236334152815) scale(0.39278070375762497)">
  
  <g
     id="line"
     transform="translate(-3.7667,-10.5348)">
    <path
       fill="none"
       stroke="#000"
       stroke-linecap="round"
       stroke-linejoin="round"
       stroke-width="2"
       d="m 4.7667,40.9908 c 2.86,0 8.5794,2.86 14.299,2.86 5.7196,0 9.5327,-2.86 15.2524,-2.86 5.7197,0 10.4859,2.86 15.2523,2.86 4.7664,0 6.6729,-2.86 14.2991,-2.86"
       id="path2" />
    <path
       fill="none"
       stroke="#000"
       stroke-linecap="round"
       stroke-linejoin="round"
       stroke-width="2"
       d="m 43.8508,48.617 a 19.97,19.97 0 0 0 5.72,0.9533 c 2.5738,0 4.385,-0.858 6.6729,-1.6206"
       id="path4" />
    <path
       fill="none"
       stroke="#000"
       stroke-linecap="round"
       stroke-linejoin="round"
       stroke-width="2"
       d="m 12.2022,48.5217 a 26.5085,26.5085 0 0 0 6.8635,1.0483 c 5.72,0 9.5327,-2.86 15.2524,-2.86"
       id="path6" />
    <path
       fill="none"
       stroke="#000"
       stroke-linecap="round"
       stroke-linejoin="round"
       stroke-width="2"
       d="m 24.7853,55.29 c 3.05,-0.858 5.91,-2.0019 9.5328,-2.0019 4.1943,0 7.9121,1.5252 11.4392,2.3832"
       id="path8" />
    <circle
       cx="14.2994"
       cy="14.3946"
       r="2.8598001"
       fill="none"
       stroke="#000"
       stroke-miterlimit="10"
       stroke-width="2"
       id="circle10" />
    <circle
       cx="33.364498"
       cy="19.1609"
       r="3"
       fill="none"
       stroke="#000"
       stroke-miterlimit="10"
       stroke-width="2"
       id="circle12" />
    <path
       fill="none"
       stroke="#000"
       stroke-linecap="round"
       stroke-linejoin="round"
       stroke-width="2"
       d="m 28.5981,40.9908 v -6.6729 a 11.7283,11.7283 0 0 0 -0.4766,-3.3364 c -0.286,-0.7627 -0.4766,-1.43 -0.4766,-1.43"
       id="path14" />
    <path
       fill="none"
       stroke="#000"
       stroke-linecap="round"
       stroke-linejoin="round"
       stroke-width="2"
       d="m 40.0374,33.3646 -0.9533,7.6262"
       id="path16" />
    <path
       fill="none"
       stroke="#000"
       stroke-linecap="round"
       stroke-linejoin="round"
       stroke-width="2"
       d="m 17.0636,15.2525 2.3831,6.7682 a 4.1985,4.1985 0 0 0 2.4785,2.2879 l 3.9084,0.9532 a 16.7367,16.7367 0 0 0 3.7178,0.572 l 8.5794,0.6673 a 6.0312,6.0312 0 0 1 3.2412,1.5252 l 0.1906,0.1907 a 11.0074,11.0074 0 0 1 2.0019,3.1458 l 0.7626,2.0972 c 0.3813,0.9532 0.9533,2.5738 1.3346,3.5271 l 2.7645,6.3869"
       id="path18" />
  </g>
</g></svg>