<svg xmlns="http://www.w3.org/2000/svg" width="24" height="24" viewBox="0 0 24 24"> <g transform="translate(0.0 1.283187548214368) scale(0.3630258202114625)">
  
  <g
     id="line"
     transform="translate(-3.1577,-9.9584)">
    <path
       fill="none"
       stroke="#000"
       stroke-linecap="round"
       stroke-linejoin="round"
       stroke-miterlimit="10"
       stroke-width="2"
       d="M 63.1941,56 H 9.2323 C 6.4297,56 4.1577,53.728 4.1577,50.9254 V 16.033 c 0,-2.8026 2.272,-5.0746 5.0746,-5.0746 h 53.9618 c 2.8026,0 5.0746,2.272 5.0746,5.0746 V 50.9254 C 68.2687,53.728 65.9967,56 63.1941,56 Z"
       id="path2" />
    <path
       fill="none"
       stroke="#000"
       stroke-linecap="round"
       stroke-linejoin="round"
       stroke-miterlimit="10"
       stroke-width="0.9187"
       d="m 68.2687,47.5629 c 0,0 0.1688,4.8556 -1.5499,6.8305 -1.7187,1.9749 -0.7221,1.6035 -3.5247,1.6035 H 9.2323 c -2.8026,0 -4.164,-1.852 -4.164,-2.4434 L 4.1577,47.5629"
       id="path4" />
    <path
       fill="none"
       stroke="#000"
       stroke-linecap="round"
       stroke-linejoin="round"
       stroke-miterlimit="10"
       stroke-width="2"
       d="M 63.1941,56 H 9.2323 C 6.4297,56 4.1577,53.728 4.1577,50.9254 V 16.033 c 0,-2.8026 2.272,-5.0746 5.0746,-5.0746 h 53.9618 c 2.8026,0 5.0746,2.272 5.0746,5.0746 V 50.9254 C 68.2687,53.728 65.9967,56 63.1941,56 Z"
       id="path6" />
    <line
       x1="7.2132001"
       x2="65.213203"
       y1="48.492401"
       y2="48.492401"
       fill="none"
       stroke="#000"
       stroke-linecap="round"
       stroke-linejoin="round"
       stroke-miterlimit="10"
       stroke-width="2"
       id="line8" />
    <path
       fill="none"
       stroke="#000"
       stroke-linecap="round"
       stroke-linejoin="round"
       stroke-miterlimit="10"
       stroke-width="2"
       d="m 43.1833,60.9583 c 0,4.9583 8.8401,7.0417 8.8401,7.0417 H 36.4029 36.0234 20.4029 c 0,0 8.8401,-2.0833 8.8401,-7.0417"
       id="path10" />
  </g>
</g></svg>