<svg xmlns="http://www.w3.org/2000/svg" width="24" height="24" viewBox="0 0 24 24"> <g transform="translate(2.4215152063081433 0.0) scale(0.434351412625716)">
  
  <g
     id="line"
     transform="translate(-16.5073,-9.9585)">
    <path
       fill="none"
       stroke="#000"
       stroke-linecap="round"
       stroke-linejoin="round"
       stroke-width="2"
       d="m 43.5073,52.9583 c 0,0 -3,-10 -0.2951,-12 2.7049,-2 6.2951,1.4808 6.2951,1.4808 v 0 c 0.5942,0.5393 1.3909,0.7984 2.1887,0.7117 1.0706,-0.1689 1.8475,-1.1093 1.8113,-2.1925 -10e-4,-0.4278 -0.1404,-0.8438 -0.3974,-1.1859 -1.0019,-1.4007 0.6813,-3.1193 2.4438,-2.86 v 0 c 0.15,0.02 0.3,0.0241 0.4536,0.0457 1.355,0.2332 2.7025,-0.4504 3.3147,-1.6815 0.7434,-1.487 -0.0512,-2.909 -0.808,-4.2547 L 58.44,30.88 c -0.8084,-1.6185 -1.1385,-3.4339 -0.9517,-5.2333 0.0048,-0.0633 0.019,-0.1237 0.019,-0.1882 0,-1.3807 -1.1193,-2.5 -2.5,-2.5 -1.3807,0 -2.5,1.1193 -2.5,2.5 -0.011,3.5955 -3,10.5 -7,9.2532 -4,-1.2468 -1,-9.7532 2,-13.7532 1.7292,-2.1427 2.7744,-4.7558 3,-7.5 0,-1.3807 -1.1193,-2.5 -2.5,-2.5 -1.3807,0 -2.5,1.1193 -2.5,2.5 0,0 0,4.5 -3,4.5 -3,0 -3,-4 -3,-4 0,-1.6569 -1.3431,-3 -3,-3 -1.6569,0 -3,1.3431 -3,3 0,5 5,9 6,16.5074 1,7.5074 -3.2073,9.7117 -5.0534,9.4956 -2.0394,-0.2389 -3.9466,-4.0032 -1.9466,-8.0032 1.1938,-2.4872 1.5448,-5.2955 1,-8 0,-1.1046 -0.8954,-2 -2,-2 -1.1046,0 -2,0.8954 -2,2 0,5 -1,6 -3.0356,6 -2.0356,0 -2.9644,-5 -2.9644,-5 0,-1.6569 -1.3431,-3 -3,-3 -1.6569,0 -3,1.3431 -3,3 0,7 5,10 10.96,16 5.96,6 3.0644,11.9594 3.0644,11.9594"
       id="path2" />
    <path
       fill="none"
       stroke="#000"
       stroke-linecap="round"
       stroke-linejoin="round"
       stroke-width="2"
       d="m 43.882,60.7984 c 0,2.4383 -3.1845,3.4149 -7.1129,3.4149 -3.9284,0 -7.1129,-0.9766 -7.1129,-3.4149 0,-2.4383 3.1846,-4.4149 7.1129,-4.4149 3.9283,0 7.1129,1.9765 7.1129,4.4149 z"
       id="path4" />
    <path
       fill="none"
       stroke="#000"
       stroke-linecap="round"
       stroke-linejoin="round"
       stroke-width="2"
       d="m 44.5447,55.7547 c 0,0 1.1946,-0.4209 2.6667,-0.4209 2.7993,0 5.0686,1.4085 5.0686,3.146 0,1.7375 -2.2693,2.4334 -5.0686,2.4334"
       id="path6" />
    <path
       fill="none"
       stroke="#000"
       stroke-linecap="round"
       stroke-linejoin="round"
       stroke-width="2"
       d="m 26.0046,60.8236 c -0.5411,0.0619 -1.0854,0.0919 -1.63,0.09 -2.7992,0 -5.0685,-0.6959 -5.0685,-2.4334 0,-1.7375 2.2693,-3.146 5.0685,-3.146 1.0473,-0.0118 2.0848,0.2028 3.0414,0.6291"
       id="path8" />
  </g>
</g></svg>