<svg xmlns="http://www.w3.org/2000/svg" width="24" height="24" viewBox="0 0 24 24"> <g transform="translate(0.0 4.5) scale(0.375)">
  
  <g
     id="line"
     transform="translate(-4,-16)">
    <path
       fill="none"
       stroke="#000"
       stroke-linecap="round"
       stroke-linejoin="round"
       stroke-miterlimit="10"
       stroke-width="2"
       d="m 33,17 c 2.7617,0 5,2.2393 5,5 0,1.6357 -0.7969,3.0752 -2.0117,3.9873 -0.1074,0.0625 -0.207,0.1348 -0.2988,0.2168 C 35.2695,26.5703 35,27.1025 35,27.7031 V 53 c 0,1.1045 -0.8955,2 -2,2"
       id="path2" />
    <path
       fill="none"
       stroke="#000"
       stroke-linecap="round"
       stroke-linejoin="round"
       stroke-miterlimit="10"
       stroke-width="2"
       d="m 10,17 h 52 c 2.7617,0 5,2.2393 5,5 0,1.6357 -0.7969,3.0752 -2.0117,3.9873 -0.1074,0.0625 -0.207,0.1348 -0.2988,0.2168 C 64.2695,26.5703 64,27.1025 64,27.7031 V 53 c 0,1.1045 -0.8955,2 -2,2 H 10 C 8.8955,55 8,54.1045 8,53 V 27.7031 C 8,27.1025 7.7305,26.5703 7.3105,26.2041 7.2188,26.1221 7.1191,26.0498 7.0117,25.9873 5.7969,25.0752 5,23.6357 5,22 5,19.2393 7.2383,17 10,17 Z"
       id="path4" />
  </g>
</g></svg>