<svg xmlns="http://www.w3.org/2000/svg" width="24" height="24" viewBox="0 0 24 24"> <g transform="translate(0.0 2.136270149453251) scale(0.3716725549923615)">
  
  <g
     id="line"
     transform="translate(-4,-8.9266155)">
    <path
       fill="none"
       stroke="#000"
       stroke-linecap="round"
       stroke-linejoin="round"
       stroke-width="2"
       d="m 5,52 c 0,0 15,-3 17,-10 2,-7 14.6667,-11.1667 20.8333,-8.5833 0,0 6.3333,0.5833 8.25,-7.4167 C 53,18 55,9 62,10 c 7,1 6.1667,6.3333 4.0833,7.1667 C 64,18 61,18 60,19.5 59,21 57.8333,35.6667 53.4167,39.3333 c 0,0 -4.9167,6.5 -4.6667,9.5833 C 49,52 50.5833,61.25 47,61 43.3707,60.7468 44,54 44,53 44,52 36,50 33,52 30,54 30.8333,60 28.4167,60.5 26.0001,61 23.5,60.8333 22.75,59.9167 22,59 23.3494,53.229 22.25,51.25"
       id="path2" />
  </g>
</g></svg>