<svg xmlns="http://www.w3.org/2000/svg" width="24" height="24" viewBox="0 0 24 24"> <g transform="translate(0.0 0.058777021402271146) scale(0.3808306481334585)">
  
  <g
     id="line"
     transform="translate(-1.9902,-4.3655766)">
    <path
       fill="none"
       stroke="#000"
       stroke-linecap="round"
       stroke-linejoin="round"
       stroke-width="2"
       d="m 45.815,44.8043 c -5.6998,4.6988 -13.9302,4.6988 -19.63,0"
       id="path2" />
    <path
       fill="none"
       stroke="#000"
       stroke-linecap="round"
       stroke-linejoin="round"
       stroke-width="2"
       d="m 52.04,50.3656 c -2.2368,10e-5 -4.0499,1.8135 -4.0498,4.0502 0,0.7409 0.2033,1.4677 0.5878,2.1011 l 0.232,0.3422 7.1911,9.218 7.2333,-9.2748 c 1.3204,-1.8042 0.9281,-4.3372 -0.8761,-5.6576 -1.8042,-1.3204 -4.3372,-0.9281 -5.6576,0.8761 -0.147,0.2008 -0.2751,0.4148 -0.3828,0.6392 -0.0843,0.1747 -0.2943,0.2481 -0.4691,0.1637 C 55.7773,52.7892 55.7196,52.7315 55.6851,52.66 55.0167,51.2541 53.5967,50.3603 52.04,50.3656 Z"
       id="path4" />
    <path
       fill="none"
       stroke="#000"
       stroke-linecap="round"
       stroke-linejoin="round"
       stroke-width="2"
       d="m 7.04,32.3656 c -2.2368,10e-5 -4.0499,1.8135 -4.0498,4.0502 0,0.7409 0.2033,1.4677 0.5878,2.1011 l 0.232,0.3422 7.1911,9.218 7.2333,-9.2748 c 1.3204,-1.8042 0.9281,-4.3372 -0.8761,-5.6576 -1.8042,-1.3204 -4.3372,-0.9281 -5.6576,0.8761 -0.147,0.2008 -0.2751,0.4148 -0.3828,0.6391 -0.0843,0.1747 -0.2943,0.2481 -0.4691,0.1637 C 10.7773,34.7891 10.7196,34.7314 10.6851,34.6599 10.0167,33.2541 8.5967,32.3603 7.04,32.3656 Z"
       id="path6" />
    <path
       fill="none"
       stroke="#000"
       stroke-linecap="round"
       stroke-linejoin="round"
       stroke-width="2"
       d="m 44.04,5.3656 c -2.2368,1e-4 -4.0499,1.8135 -4.0498,4.0502 0,0.7409 0.2033,1.4677 0.5878,2.1011 l 0.232,0.3422 7.1911,9.218 7.2333,-9.2748 C 56.5548,9.9981 56.1625,7.4651 54.3583,6.1447 52.5541,4.8243 50.0211,5.2166 48.7007,7.0208 48.5537,7.2216 48.4256,7.4356 48.3179,7.66 48.2336,7.8347 48.0236,7.9081 47.8488,7.8237 47.7773,7.7892 47.7196,7.7315 47.6851,7.66 47.0167,6.2541 45.5967,5.3603 44.04,5.3656 Z"
       id="path8" />
    <path
       fill="none"
       stroke="#000"
       stroke-linecap="round"
       stroke-linejoin="round"
       stroke-width="2"
       d="M 42.8076,57.9758 C 40.6563,58.6415 38.37,59 36,59 28.0609,59 21.0613,54.9776 16.928,48.8595"
       id="path10" />
    <path
       fill="none"
       stroke="#000"
       stroke-linecap="round"
       stroke-linejoin="round"
       stroke-width="2"
       d="M 53.7479,21.3699 C 57.029,25.3456 59,30.4426 59,36 c 0,3.6035 -0.8287,7.0135 -2.3059,10.0497"
       id="path12" />
    <path
       fill="none"
       stroke="#000"
       stroke-linecap="round"
       stroke-linejoin="round"
       stroke-width="2"
       d="M 14.7323,27.2273 C 18.1806,18.8766 26.404,13 36,13"
       id="path14" />
    <path
       fill="none"
       stroke="#000"
       stroke-linecap="round"
       stroke-miterlimit="10"
       stroke-width="2"
       d="m 31.6941,32.4036 c -1.0598,-2.3854 -3.8527,-3.46 -6.238,-2.4002 -1.0697,0.4752 -1.9249,1.3305 -2.4002,2.4002"
       id="path16" />
    <path
       fill="none"
       stroke="#000"
       stroke-linecap="round"
       stroke-miterlimit="10"
       stroke-width="2"
       d="m 48.9441,32.4036 c -1.0598,-2.3854 -3.8527,-3.46 -6.238,-2.4002 -1.0697,0.4752 -1.9249,1.3305 -2.4002,2.4002"
       id="path18" />
  </g>
</g></svg>