<svg xmlns="http://www.w3.org/2000/svg" width="24" height="24" viewBox="0 0 24 24"> <g transform="translate(0.0 2.6896851724137942) scale(0.41379310344827586)">
  
  <g
     id="line"
     transform="translate(-7,-11.000144)">
    <polyline
       fill="none"
       stroke="#000"
       stroke-linecap="round"
       stroke-linejoin="round"
       stroke-miterlimit="10"
       stroke-width="2"
       points="31,35 31,28 41,28 41,34.9999"
       id="polyline2" />
    <path
       fill="none"
       stroke="#000"
       stroke-linecap="round"
       stroke-linejoin="round"
       stroke-miterlimit="10"
       stroke-width="2"
       d="m 37,35 h -2 v -3 c 0,-0.5523 0.4477,-1 1,-1 v 0"
       id="path4" />
    <polygon
       fill="none"
       stroke="#000"
       stroke-linecap="round"
       stroke-linejoin="round"
       stroke-miterlimit="10"
       stroke-width="2"
       points="20,41 20,39 20,39 27,39 27,41 32,41 31.9998,39 40,39 40,41 45,41 45,39 52,39 52,41 52,39 52,55 20,55 "
       id="polygon6" />
    <rect
       x="10"
       y="32"
       width="10"
       height="23"
       fill="none"
       stroke="#000"
       stroke-linecap="round"
       stroke-linejoin="round"
       stroke-miterlimit="10"
       stroke-width="2"
       id="rect8" />
    <rect
       x="52"
       y="32"
       width="10"
       height="23"
       fill="none"
       stroke="#000"
       stroke-linecap="round"
       stroke-linejoin="round"
       stroke-miterlimit="10"
       stroke-width="2"
       id="rect10" />
    <rect
       x="8"
       y="26"
       width="14"
       height="6"
       fill="none"
       stroke="#000"
       stroke-linecap="round"
       stroke-linejoin="round"
       stroke-miterlimit="10"
       stroke-width="2"
       id="rect12" />
    <rect
       x="29.5"
       y="22"
       width="13"
       height="6"
       fill="none"
       stroke="#000"
       stroke-linecap="round"
       stroke-linejoin="round"
       stroke-miterlimit="10"
       stroke-width="2"
       id="rect14" />
    <rect
       x="50"
       y="26"
       width="14"
       height="6"
       fill="none"
       stroke="#000"
       stroke-linecap="round"
       stroke-linejoin="round"
       stroke-miterlimit="10"
       stroke-width="2"
       id="rect16" />
    <polygon
       fill="none"
       stroke="#000"
       stroke-linecap="round"
       stroke-linejoin="round"
       stroke-miterlimit="10"
       stroke-width="2"
       points="40.5,22 36,12 31.5,22 "
       id="polygon18" />
    <polygon
       fill="none"
       stroke="#000"
       stroke-linecap="round"
       stroke-linejoin="round"
       stroke-miterlimit="10"
       stroke-width="2"
       points="20.5,26 15,16 9.5,26 "
       id="polygon20" />
    <polygon
       fill="none"
       stroke="#000"
       stroke-linecap="round"
       stroke-linejoin="round"
       stroke-miterlimit="10"
       stroke-width="2"
       points="62.5,26 57,16 51.5,26 "
       id="polygon22" />
    <path
       fill="none"
       stroke="#000"
       stroke-linecap="round"
       stroke-linejoin="round"
       stroke-miterlimit="10"
       stroke-width="2"
       d="m 40.5,55 h -9 v -6 c 0,-1.6569 1.3431,-3 3,-3 h 3 c 1.6569,0 3,1.3431 3,3 z"
       id="path24" />
    <line
       x1="36"
       x2="36"
       y1="46"
       y2="55"
       fill="none"
       stroke="#000"
       stroke-linecap="round"
       stroke-linejoin="round"
       stroke-miterlimit="10"
       stroke-width="2"
       id="line26" />
    <path
       fill="none"
       stroke="#000"
       stroke-linecap="round"
       stroke-linejoin="round"
       stroke-miterlimit="10"
       stroke-width="2"
       d="m 16,40 h -2 v -3 c 0,-0.5523 0.4477,-1 1,-1 v 0"
       id="path28" />
    <path
       fill="none"
       stroke="#000"
       stroke-linecap="round"
       stroke-linejoin="round"
       stroke-miterlimit="10"
       stroke-width="2"
       d="m 58,40 h -2 v -3 c 0,-0.5523 0.4477,-1 1,-1 v 0"
       id="path30" />
  </g>
</g></svg>