<svg xmlns="http://www.w3.org/2000/svg" width="24" height="24" viewBox="0 0 24 24"> <g transform="translate(0.0 2.0123651182649542) scale(0.4067060610065531)">
  
  <g
     id="line-supplement"
     transform="translate(-8.9967899,-11.450152)">
    <polyline
       fill="none"
       stroke="#000"
       stroke-linecap="round"
       stroke-linejoin="round"
       stroke-width="2"
       points="27 31 30 30 32 32 35 30 37 31 39 30 41 32 42 31"
       id="polyline2" />
  </g>
  <g
     id="line"
     transform="translate(-8.9967899,-11.450152)">
    <path
       fill="none"
       stroke="#000"
       stroke-linecap="round"
       stroke-linejoin="round"
       stroke-width="2"
       d="m 61.2,34.43 a 6.428,6.428 0 0 1 5.797,6.763 c 0,4.83 -3.864,5.797 -5.797,5.797 a 3.539,3.539 0 0 1 -3.864,-3.864"
       id="path5" />
    <path
       fill="none"
       stroke="#000"
       stroke-linecap="round"
       stroke-linejoin="round"
       stroke-width="2"
       d="m 21.59,28.63 c 0,0 -3.864,-0.9661 -6.763,0 -2.899,0.9661 -4.83,2.898 -4.83,7.729 a 11.57,11.57 0 0 0 2.898,7.729"
       id="path7" />
    <polyline
       fill="none"
       stroke="#000"
       stroke-linecap="round"
       stroke-linejoin="round"
       stroke-width="2"
       points="16.76 45.06 19.66 34.43 21.59 39.26 27.39 23.8 29.88 26.8 35.31 12.45 38.02 18.01 40.92 27.67 42.85 23.8 45.75 36.36 48.64 29.6 51 40"
       id="polyline9" />
    <path
       fill="none"
       stroke="#000"
       stroke-linecap="round"
       stroke-linejoin="round"
       stroke-width="2"
       d="m 19.66,44.09 a 6.428,6.428 0 0 0 -5.797,6.763 c 0,4.83 3.864,5.797 5.797,5.797 a 3.539,3.539 0 0 0 3.864,-3.864"
       id="path11" />
    <path
       fill="none"
       stroke="#000"
       stroke-linecap="round"
       stroke-linejoin="round"
       stroke-width="2"
       d="m 25.46,56.65 a 7.246,7.246 0 0 0 5.797,2.898 c 3.864,0 6.763,-3.864 6.763,-4.83"
       id="path13" />
    <path
       fill="none"
       stroke="#000"
       stroke-linecap="round"
       stroke-linejoin="round"
       stroke-width="2"
       d="m 39.95,57.62 a 4.186,4.186 0 0 0 3.864,1.932 5.175,5.175 0 0 0 4.83,-4.83"
       id="path15" />
    <path
       fill="none"
       stroke="#000"
       stroke-linecap="round"
       stroke-linejoin="round"
       stroke-width="2"
       d="m 23.53,45.06 c -1.932,-1.932 0.9661,-8.695 6.763,-8.695 2.898,0 8.695,0.9661 8.695,6.763"
       id="path17" />
    <path
       fill="none"
       stroke="#000"
       stroke-linecap="round"
       stroke-linejoin="round"
       stroke-width="2"
       d="m 41.88,40.23 c 0,0 3.864,-1.932 6.763,-0.9661 a 8.76,8.76 0 0 1 5.797,8.695 11.57,11.57 0 0 1 -2.898,7.729"
       id="path19" />
    <path
       fill="none"
       stroke="#000"
       stroke-linecap="round"
       stroke-miterlimit="10"
       stroke-width="2"
       d="m 57.34,35.4 c 1.932,-1.932 -0.9661,-8.695 -6.763,-8.695 a 10.77,10.77 0 0 0 -6.6,1.993"
       id="path21" />
  </g>
</g></svg>