<svg xmlns="http://www.w3.org/2000/svg" width="24" height="24" viewBox="0 0 24 24"> <g transform="translate(0.0 0.036704895168554685) scale(0.48680555134389875)">
  
  <g
     id="line"
     transform="translate(-11.5083,-12.9998)">
    <path
       fill="none"
       stroke="#000"
       stroke-linecap="round"
       stroke-miterlimit="10"
       stroke-width="2"
       d="M 39.23,44.875 V 57.78 c 0,1.85 -1.51,3.37 -3.36,3.37 -0.93,0 -1.77,-0.38 -2.38,-0.99 C 32.88,59.55 32.5,58.7 32.5,57.78 V 44.8438"
       id="path2" />
    <path
       fill="none"
       stroke="#000"
       stroke-linecap="round"
       stroke-linejoin="round"
       stroke-miterlimit="10"
       stroke-width="2"
       d="m 23.09,14.0098 0.01,-0.01 h 23.07 c 0.66,0 1.3,0.08 1.92,0.22 h 0.01 c 3.97,0.85 7.14,4.28 8.12,8.7"
       id="path4" />
    <path
       fill="none"
       stroke="#000"
       stroke-linecap="round"
       stroke-linejoin="round"
       stroke-miterlimit="10"
       stroke-width="2"
       d="m 24.53,39.4698 28.63,0.03 c 0.14,0 0.27,-0.01 0.4,-0.03 0.84,-0.11 1.58,-0.57 2.12,-1.25"
       id="path6" />
    <path
       fill="none"
       stroke="#000"
       stroke-linejoin="round"
       stroke-miterlimit="10"
       stroke-width="2"
       d="m 40.0996,29.0166 v 0.9051 c 0,0.6223 0.4264,1.1314 0.9476,1.1314 h 9.6653 v 2.0365 c 0,0.6222 0.4264,1.1314 0.9476,1.1314 h 7.2016 c 0.5212,0 0.9476,-0.5091 0.9476,-1.1314 v -4.073 c 0,-0.6222 -0.4264,-1.1314 -0.9476,-1.1314 H 41.0472 c -0.5212,10e-5 -0.9476,0.5092 -0.9476,1.1314 z"
       id="path8" />
    <path
       fill="none"
       stroke="#000"
       stroke-miterlimit="10"
       stroke-width="2"
       d="m 33.2176,25.8222 v 11.4044 c 0,1.2332 -0.8867,2.2422 -1.9874,2.2422 H 14.4855 c -1.1007,0 -1.9772,-1.009 -1.9772,-2.2422 V 24.9152 c 0.2344,-3.6486 1.9262,-6.8386 4.4333,-8.8158 C 18.6029,14.7848 20.6514,14 22.8426,14 c 0.6624,0 1.3045,0.0713 1.9262,0.214 h 0.0102 c 4.8002,1.0293 8.4386,5.8398 8.4386,11.6082 z"
       id="path10" />
    <path
       fill="none"
       stroke="#000"
       stroke-linecap="round"
       stroke-miterlimit="10"
       stroke-width="2"
       d="m 20.6616,17.5263 v 3.0167 c 0,0.5605 0.4586,1.0192 1.0192,1.0192 h 2.0383 c 0.5605,0 1.0192,-0.4586 1.0192,-1.0192 v -3.0575 -0.0204"
       id="path12" />
  </g>
</g></svg>