<svg xmlns="http://www.w3.org/2000/svg" width="24" height="24" viewBox="0 0 24 24"> <g transform="translate(0.0 1.145192053403175) scale(0.3832763742055)">
  
  <g
     id="line"
     transform="translate(-4.848,-6.8198029)">
    <path
       fill="none"
       stroke="#000"
       stroke-linecap="round"
       stroke-linejoin="round"
       stroke-miterlimit="10"
       stroke-width="2"
       d="m 12.61,36.87 v -8.385 h 38.94 v 8.274 c 2.138,-2.907 3.386,-2.824 6.768,-2.824 v 21.36 H 5.848 v -21.36 c 3.594,-0.509 4.265,0.6135 6.768,2.935 z"
       id="path2" />
    <path
       fill="none"
       stroke="#000"
       stroke-linecap="round"
       stroke-linejoin="round"
       stroke-miterlimit="10"
       stroke-width="2"
       d="m 7.833,58.61 v 3.852 h 3.422 V 58.61"
       id="path4" />
    <path
       fill="none"
       stroke="#000"
       stroke-linecap="round"
       stroke-linejoin="round"
       stroke-miterlimit="10"
       stroke-width="2"
       d="m 52.82,58.61 v 3.852 h 3.422 V 58.61"
       id="path6" />
    <path
       fill="none"
       stroke="#000"
       stroke-linecap="round"
       stroke-linejoin="round"
       stroke-miterlimit="10"
       stroke-width="2"
       d="m 34.53,9.549 v 8.465 c 4.382,2.115 8.559,2.125 12.56,0 V 9.549 c -4.033,-2.29 -8.197,-2.384 -12.56,0 z"
       id="path8" />
    <path
       fill="none"
       stroke="#000"
       stroke-linecap="round"
       stroke-linejoin="round"
       stroke-miterlimit="10"
       stroke-width="2"
       d="M 12.7,46.42 H 51.56"
       id="path10" />
    <path
       fill="none"
       stroke="#000"
       stroke-linecap="round"
       stroke-linejoin="round"
       stroke-miterlimit="10"
       stroke-width="2"
       d="M 51.56,54.6 51.5487,36.76"
       id="path12" />
    <path
       fill="none"
       stroke="#000"
       stroke-linecap="round"
       stroke-linejoin="round"
       stroke-miterlimit="10"
       stroke-width="2"
       d="m 12.61,36.87 0.01095,18.44"
       id="path14" />
    <path
       fill="none"
       stroke="#000"
       stroke-linecap="round"
       stroke-linejoin="round"
       stroke-miterlimit="10"
       stroke-width="2"
       d="m 47.09,13.7 c 0,0 15.18,-2.847 15.56,19.74 0.0985,5.856 0,23.43 0,23.43"
       id="path16" />
    <path
       fill="none"
       stroke="#000"
       stroke-linecap="round"
       stroke-linejoin="round"
       stroke-miterlimit="10"
       stroke-width="2"
       d="m 58.92,59.61 h 7.546"
       id="path18" />
  </g>
</g></svg>