<svg xmlns="http://www.w3.org/2000/svg" width="24" height="24" viewBox="0 0 24 24"> <g transform="translate(1.2762350040713457 0.0) scale(0.5361882497964328)">
  
  <g
     id="line"
     transform="translate(-16,-16.1567)">
    <path
       fill="none"
       stroke="#000"
       stroke-linecap="round"
       stroke-linejoin="round"
       stroke-width="2"
       d="m 35.1773,17.1567 c -5.8765,0.5287 -10.5159,6.6407 -10.5159,14.1212 0,7.8277 5.0764,14.1733 11.3386,14.1733 6.2622,0 11.3387,-6.3456 11.3387,-14.1733 a 17.2594,17.2594 0 0 0 -0.7674,-5.0941 9.9175,9.9175 0 0 1 -11.394,-9.0271 z"
       id="path2" />
    <path
       fill="none"
       stroke="#000"
       stroke-linecap="round"
       stroke-linejoin="round"
       stroke-width="2"
       d="m 45.3836,25.2642 a 2,2 0 0 0 -1.3286,-2.18 1.9753,1.9753 0 0 0 0.3775,-0.8915 1.9931,1.9931 0 0 0 -2.79,-2.1141 1.9923,1.9923 0 0 0 -3.3909,-1.3058 1.9922,1.9922 0 0 0 -2.7713,-0.4814"
       id="path4" />
    <path
       fill="none"
       stroke="#000"
       stroke-linecap="round"
       stroke-linejoin="round"
       stroke-width="2"
       d="m 35.1773,17.1567 q 0.0408,0.48 0.1262,0.9464 a 9.9978,9.9978 0 0 0 9.4213,8.1874 q 0.2037,0.0082 0.4093,0.0082 a 10.0162,10.0162 0 0 0 1.4372,-0.1149"
       id="path6" />
    <path
       fill="none"
       stroke="#000"
       stroke-linecap="round"
       stroke-linejoin="round"
       stroke-width="2"
       d="m 32,38.2987 c 0,0 8,-3.11 8,0 0,6.2424 -8,0 -8,0 z"
       id="path8" />
    <line
       x1="39.433201"
       x2="35.133999"
       y1="40.015301"
       y2="40.015301"
       fill="none"
       stroke="#000"
       stroke-linecap="round"
       stroke-linejoin="round"
       stroke-width="2"
       id="line10" />
    <line
       x1="36.943501"
       x2="36.943501"
       y1="40.015301"
       y2="37.0896"
       fill="none"
       stroke="#000"
       stroke-linecap="round"
       stroke-linejoin="round"
       stroke-width="1.5"
       id="line12" />
    <path
       fill="none"
       stroke="#000"
       stroke-linecap="round"
       stroke-linejoin="round"
       stroke-width="2"
       d="m 26.6519,48.9249 c 2.6741,4.6869 6.0111,6.99 9.3481,6.9693 l 2,4.0183 2.0029,-5.1777 a 15.6376,15.6376 0 0 0 5.3451,-5.81"
       id="path14" />
    <line
       x1="43.549599"
       x2="42.7939"
       y1="57.240101"
       y2="59.902901"
       fill="none"
       stroke="#000"
       stroke-linecap="round"
       stroke-linejoin="round"
       stroke-width="2"
       id="line16" />
    <polyline
       fill="none"
       stroke="#000"
       stroke-linecap="round"
       stroke-linejoin="round"
       stroke-width="2"
       points="20.216 59.871 22.3 56.308 23.828 59.871"
       id="polyline18" />
    <path
       d="m 55,60.9171 a 1,1 0 0 1 -1,-1 v -3 c 0,-4.4517 -4.4961,-7.81 -8.6518,-7.9922 -6.2051,5.0117 -12.4912,5.0117 -18.6963,0 C 22.4961,49.1066 18,52.4654 18,56.9171 v 3 a 1,1 0 1 1 -2,0 v -3 c 0,-5.3247 5.14,-9.9976 11,-10 v 0 a 0.9994,0.9994 0 0 1 0.64,0.2319 c 5.625,4.6875 11.0947,4.6875 16.72,0 A 0.9994,0.9994 0 0 1 45,46.9171 h 5e-4 C 50.86,46.92 56,51.5924 56,56.9171 v 3 a 1,1 0 0 1 -1,1 z"
       id="path20" />
    <path
       fill="none"
       stroke="#000"
       stroke-miterlimit="10"
       stroke-width="1.5"
       d="m 42,29.9171 a 2,2 0 1 1 -2,-2 2.0007,2.0007 0 0 1 2,2"
       id="path22" />
    <path
       fill="none"
       stroke="#000"
       stroke-miterlimit="10"
       stroke-width="1.5"
       d="m 34,29.9171 a 2,2 0 1 1 -2,-2 2.0007,2.0007 0 0 1 2,2"
       id="path24" />
  </g>
</g></svg>