<svg xmlns="http://www.w3.org/2000/svg" width="24" height="24" viewBox="0 0 24 24"> <g transform="translate(0.034607558035986585 0.0) scale(0.3741418297159872)">
  
  <g
     id="line"
     transform="translate(-4.1353998,-3.8808)">
    <rect
       x="32.6604"
       y="15.1602"
       rx="0.88739997"
       ry="0.88739997"
       width="6.8576999"
       height="4.8372002"
       id="rect2" />
    <polygon
       fill="none"
       stroke="#000"
       stroke-linecap="round"
       stroke-linejoin="round"
       stroke-width="2"
       points="32.88,62.518 35.44,62.518 36.126,62.518 38.686,62.518 37.489,32.657 34.22,32.657 "
       id="polygon4" />
    <path
       fill="none"
       stroke="#000"
       stroke-linecap="round"
       stroke-linejoin="round"
       stroke-width="2"
       d="m 29.9349,19.1426 a 16.3828,16.3828 0 0 0 11.7661,0 c 0,0 0.0512,0.0251 0.1181,0.0616 A 24.71,24.71 0 0 1 40.8065,30.4313 4.8949,4.8949 0 0 1 39.6851,32.06 c -0.0507,-0.0216 0.0432,0 0.0432,0"
       id="path6" />
    <path
       fill="none"
       stroke="#000"
       stroke-linecap="round"
       stroke-linejoin="round"
       stroke-width="2"
       d="m 41.8015,19.1426 a 16.3825,16.3825 0 0 1 -11.766,0 c 0,0 -0.0512,0.0251 -0.1182,0.0616 A 24.7124,24.7124 0 0 0 30.93,30.4313 4.8978,4.8978 0 0 0 32.0513,32.06 c 0.0507,-0.0216 -0.0432,0 -0.0432,0"
       id="path8" />
    <path
       fill="none"
       stroke="#000"
       stroke-linecap="round"
       stroke-linejoin="round"
       stroke-width="2"
       d="m 41.3842,27.5349 c 0,0 -6.01,2.7857 -10.8554,0"
       id="path10" />
    <path
       fill="none"
       stroke="#000"
       stroke-linecap="round"
       stroke-linejoin="round"
       stroke-width="2"
       d="m 39.6939,32.1028 a 12.7286,12.7286 0 0 1 -7.707,-0.0643"
       id="path12" />
    <path
       fill="none"
       stroke="#000"
       stroke-linecap="round"
       stroke-linejoin="round"
       stroke-width="2"
       d="m 42.0127,23.1431 c 0,0 -6.186,2.6591 -12.0988,-0.1334"
       id="path14" />
    <path
       fill="none"
       stroke="#000"
       stroke-miterlimit="10"
       stroke-width="1.6"
       d="M 37.6314,7.7469 V 5.818 c 0,-0.6286 -0.7067,-1.1372 -1.58,-1.1372 -0.8733,0 -1.58,0.5086 -1.58,1.1372 v 11.8859 h 3.1627 v -9.957 z"
       id="path16" />
    <rect
       x="5.1353998"
       y="62.527599"
       width="61.9618"
       height="4.5"
       fill="none"
       stroke="#000"
       stroke-linecap="round"
       stroke-linejoin="round"
       stroke-width="2"
       id="rect18" />
    <ellipse
       cx="35.832199"
       cy="18.919901"
       rx="6.777"
       ry="1.7045"
       id="ellipse20" />
  </g>
</g></svg>