<svg xmlns="http://www.w3.org/2000/svg" width="24" height="24" viewBox="0 0 24 24"> <g transform="translate(7.071452762903871 0.0) scale(0.44836095208775634)">
  
  <g
     id="line"
     transform="translate(-25.000972,-8.4717)">
    <path
       fill="none"
       stroke="#000"
       stroke-linecap="round"
       stroke-linejoin="round"
       stroke-miterlimit="10"
       stroke-width="2"
       d="m 33.4932,61 c 1.0449,0 1.9629,-0.5352 2.5,-1.3457 0.5371,0.8105 1.455,1.3457 2.499,1.3457 1.6572,0 3.001,-1.3437 3.001,-2.999 0,-1.6572 -1.3438,-3.001 -3,-3.001 v -6 h -5 v 6 c -1.6573,0 -3.001,1.3438 -3,3 0,1.6582 1.3427,3 3,3 z"
       id="path2" />
    <path
       fill="none"
       stroke="#000"
       stroke-linecap="round"
       stroke-linejoin="round"
       stroke-miterlimit="10"
       stroke-width="2"
       d="M 40.877,12.7861 C 40.0996,10.8467 38.21,9.4717 35.9932,9.4717 c -2.2168,0 -4.1065,1.375 -4.8838,3.3144 -6.417,8.2246 -6.7891,19.6231 -1.1162,28.2139 0,2.291 0,4.3369 0,5 0,1.6563 1.3437,3 3,3 1.6562,0 4.3437,0 6,0 1.6562,0 3,-1.3437 3,-3 0,-0.6631 0,-2.709 0,-5.001 5.6728,-8.5898 5.3017,-19.9883 -1.1162,-28.2129 z"
       id="path4" />
  </g>
</g></svg>