<svg xmlns="http://www.w3.org/2000/svg" width="24" height="24" viewBox="0 0 24 24"> <g transform="translate(0.0 0.00002160645758131352) scale(0.4364940925435133)">
  
  <g
     id="line"
     transform="translate(-8.5081867,-8.5083486)">
    <path
       fill="none"
       stroke="#000"
       stroke-linecap="round"
       stroke-linejoin="round"
       stroke-miterlimit="10"
       stroke-width="2"
       d="m 20.1808,61.2592 -0.0381,0.0381 c -1.5975,1.5975 -4.2117,1.5975 -5.8092,0 l -1.8154,-1.8154 -1.8154,-1.8154 c -1.5975,-1.5975 -1.5975,-4.2117 0,-5.8092 L 41.201,21.359 c 0.8894,-0.8894 2.0938,-1.2836 3.2625,-1.1827 0.719,0.062 1.4244,0.3115 2.0346,0.7483 0.3076,0.2168 0.748,0.1983 1.0232,-0.0769 l 0.0141,-0.0138 10.7301,-10.7301 c 0.7988,-0.7988 2.1059,-0.7987 2.9046,0 l 0.3631,0.3631 0.3631,0.3631 c 0.7988,0.7988 0.7988,2.1058 0,2.9046 L 51.1628,24.4679 c -0.2752,0.2752 -0.3167,0.712 -0.0999,1.0196 l 0.0146,0.0171 c 0.4356,0.6096 0.6843,1.314 0.7463,2.0319 0.1008,1.1687 -0.2934,2.3731 -1.1828,3.2624 L 32.7465,48.6935"
       id="path2" />
    <circle
       cx="27.508101"
       cy="56.001099"
       r="5"
       fill="none"
       stroke="#000"
       stroke-linecap="round"
       stroke-linejoin="round"
       stroke-miterlimit="10"
       stroke-width="2"
       id="circle4" />
  </g>
</g></svg>