<svg xmlns="http://www.w3.org/2000/svg" width="24" height="24" viewBox="0 0 24 24"> <g transform="scale(0.4)">
  
  <g
     id="line"
     transform="translate(-5.9884987,-5.9583015)">
    <path
       fill="none"
       stroke="#000"
       stroke-linecap="round"
       stroke-linejoin="round"
       stroke-miterlimit="10"
       stroke-width="2"
       d="M 36,35.9583 C 36,46.6806 30.3956,55.9481 21.7077,60.9571"
       id="path2" />
    <path
       fill="none"
       stroke="#000"
       stroke-linecap="round"
       stroke-linejoin="round"
       stroke-miterlimit="10"
       stroke-width="2"
       d="M 36,35.958 C 27.0006,30.08 22.3327,20.2459 22.8899,10.2328"
       id="path4" />
    <path
       fill="none"
       stroke="#000"
       stroke-linecap="round"
       stroke-linejoin="round"
       stroke-miterlimit="10"
       stroke-width="2"
       d="M 35.9933,35.9513 C 45.1466,30.316 56.0728,30.3767 64.8931,35.1489"
       id="path6" />
    <path
       fill="none"
       stroke="#000"
       stroke-linecap="round"
       stroke-linejoin="round"
       stroke-miterlimit="10"
       stroke-width="2"
       d="m 33.0808,48.9141 c 9.1533,-5.6353 20.2095,-5.5746 29.0298,-0.8024"
       id="path8" />
    <path
       fill="none"
       stroke="#000"
       stroke-linecap="round"
       stroke-linejoin="round"
       stroke-miterlimit="10"
       stroke-width="2"
       d="m 22.9297,60.6942 c 9.8471,-6.0624 21.3595,-6.6171 30.2812,-2.4044"
       id="path10" />
    <path
       fill="none"
       stroke="#000"
       stroke-linecap="round"
       stroke-linejoin="round"
       stroke-miterlimit="10"
       stroke-width="2"
       d="M 26.813,26.5626 C 26.8359,37.3115 21.0085,46.4592 12.3312,51.4868"
       id="path12" />
    <path
       fill="none"
       stroke="#000"
       stroke-linecap="round"
       stroke-linejoin="round"
       stroke-miterlimit="10"
       stroke-width="2"
       d="M 22.2601,11.2887 C 22.2859,23.3863 16.4884,33.9591 7.854,39.6151"
       id="path14" />
    <path
       fill="none"
       stroke="#000"
       stroke-linecap="round"
       stroke-linejoin="round"
       stroke-miterlimit="10"
       stroke-width="2"
       d="M 49.3099,31.6352 C 39.6887,26.8423 33.8977,17.4239 33.288,7.4139"
       id="path16" />
    <path
       fill="none"
       stroke="#000"
       stroke-linecap="round"
       stroke-linejoin="round"
       stroke-miterlimit="10"
       stroke-width="2"
       d="M 64.3321,33.8675 C 53.5037,28.4732 46.6464,18.9614 45.4557,8.7083"
       id="path18" />
    <circle
       cx="35.988499"
       cy="35.958302"
       r="29"
       fill="none"
       stroke="#000"
       stroke-linecap="round"
       stroke-linejoin="round"
       stroke-miterlimit="10"
       stroke-width="2"
       id="circle20" />
  </g>
</g></svg>