<svg xmlns="http://www.w3.org/2000/svg" width="24" height="24" viewBox="0 0 24 24"> <g transform="translate(0.0 2.721961457634203) scale(0.45562032156239496)">
  
  <g
     id="line"
     transform="translate(-9.6622803,-15.112937)">
    <path
       fill="none"
       stroke="#000"
       stroke-linecap="round"
       stroke-linejoin="round"
       stroke-width="2"
       d="m 51.38,48.0367 c -0.7015,1.3785 -2.3662,2.7692 -5.8135,3.8034 0,0 -6,1 -9,-2 0,0 -3,4 -11,1 a 6.968,6.968 0 0 1 -3.7623,-2.7463"
       id="path2" />
    <path
       fill="none"
       stroke="#000"
       stroke-linecap="round"
       stroke-linejoin="round"
       stroke-width="2"
       d="M 23.6494,39.7568 27.5661,35.84 c 2,-2 5,-5 9,-4 0,0 5,-1 9,4 a 36.4889,36.4889 0 0 0 3.6239,4.0462"
       id="path4" />
    <path
       fill="none"
       stroke="#000"
       stroke-linecap="round"
       stroke-linejoin="round"
       stroke-width="2"
       d="m 25.5661,50.84 a 3.699,3.699 0 0 0 -2,3"
       id="path6" />
    <path
       fill="none"
       stroke="#000"
       stroke-linecap="round"
       stroke-linejoin="round"
       stroke-width="2"
       d="M 29.6494,51.9234 A 3.8823,3.8823 0 0 0 28.5661,54.84"
       id="path8" />
    <path
       fill="none"
       stroke="#000"
       stroke-linecap="round"
       stroke-linejoin="round"
       stroke-width="2"
       d="M 44.5661,51.9234 A 3.8823,3.8823 0 0 1 45.6494,54.84"
       id="path10" />
    <ellipse
       cx="32.566101"
       cy="27.340099"
       rx="1"
       ry="2.5"
       id="ellipse12" />
    <ellipse
       cx="40.566101"
       cy="27.340099"
       rx="1"
       ry="2.5"
       id="ellipse14" />
    <path
       fill="none"
       stroke="#000"
       stroke-linecap="round"
       stroke-linejoin="round"
       stroke-width="2"
       d="m 48.9014,50.5918 c 0,0 1.7184,1.2213 1.3293,2.4966"
       id="path16" />
    <path
       fill="none"
       stroke="#000"
       stroke-linecap="round"
       stroke-linejoin="round"
       stroke-width="2"
       d="m 21.7309,44.231 c 0,0 -5,4 -8,-3 -3,-7 1,-7 1,-7 0,0 4,0 4,2 0,2 -1.6667,5 2.6667,6.5 z"
       id="path18" />
    <path
       fill="none"
       stroke="#000"
       stroke-linecap="round"
       stroke-linejoin="round"
       stroke-width="2"
       d="m 13.4921,33.043 c 0,0 -8.3114,-8.2415 3.4967,-16.0242 0,0 4.522,-2.1335 6.7065,0.153 -14.0216,5.6836 3.9956,14.6168 -10.2032,15.8712 z"
       id="path20" />
    <path
       fill="none"
       stroke="#000"
       stroke-linecap="round"
       stroke-linejoin="round"
       stroke-width="2"
       d="M 18.9663,26.0289 A 8.9447,8.9447 0 0 0 24.24,20.12 a 7.817,7.817 0 0 1 0.9574,9.2267 9.3849,9.3849 0 0 1 -8.4513,4.3305 3.077,3.077 0 0 1 -1.4973,-0.3754"
       id="path22" />
    <path
       fill="none"
       stroke="#000"
       stroke-linecap="round"
       stroke-linejoin="round"
       stroke-width="2"
       d="m 50.6024,42.731 c 4.3334,-1.5 2.6667,-4.5 2.6667,-6.5 0,-2 4,-2 4,-2 0,0 4,0 1,7 -3,7 -8,3 -8,3 z"
       id="path24" />
    <path
       fill="none"
       stroke="#000"
       stroke-linecap="round"
       stroke-linejoin="round"
       stroke-width="2"
       d="m 48.3047,17.1718 c 2.1845,-2.2865 6.7065,-0.153 6.7065,-0.153 11.8081,7.7827 3.4967,16.0242 3.4967,16.0242 C 44.3091,31.7886 62.3263,22.8554 48.3047,17.1718 Z"
       id="path26" />
    <path
       fill="none"
       stroke="#000"
       stroke-linecap="round"
       stroke-linejoin="round"
       stroke-width="2"
       d="M 53.0337,26.0289 A 8.9447,8.9447 0 0 1 47.76,20.12 a 7.817,7.817 0 0 0 -0.9574,9.2267 9.3849,9.3849 0 0 0 8.4513,4.3305 3.077,3.077 0 0 0 1.4973,-0.3754"
       id="path28" />
  </g>
</g></svg>