<svg xmlns="http://www.w3.org/2000/svg" width="24" height="24" viewBox="0 0 24 24"> <g transform="translate(0.0 1.3125) scale(0.375)">
  
  <g
     id="line"
     transform="translate(-4,-5)">
    <path
       fill="none"
       stroke="#000"
       stroke-linecap="round"
       stroke-linejoin="round"
       stroke-miterlimit="10"
       stroke-width="2"
       d="m 67,28 v 31 c 0,1.1055 -0.8955,2 -2,2 H 7 C 5.8955,61 5,60.1055 5,59 V 28 c 0,-1.1035 0.8955,-2 2,-2 l 33.9961,-5.4385"
       id="path2" />
    <path
       fill="none"
       stroke="#000"
       stroke-linecap="round"
       stroke-linejoin="round"
       stroke-miterlimit="10"
       stroke-width="2"
       d="M 58.0186,18.0513 C 63.0625,18.5615 67,22.8223 67,28"
       id="path4" />
    <path
       fill="none"
       stroke="#000"
       stroke-linecap="round"
       stroke-linejoin="round"
       stroke-miterlimit="10"
       stroke-width="2"
       d="m 5,40 h 1 c 2.7617,0 5,-2.2383 5,-4.999 C 11,32.2393 13.2383,30 16,30 c 2.7617,0 5,2.2393 5,5.001 0,2.7607 2.2383,4.999 5,4.999 2.7617,0 5,-2.2383 5,-4.999 C 31,32.2393 33.2383,30 36,30 c 2.7617,0 5,2.2393 5,5.001 0,2.7607 2.2383,4.999 5,4.999 2.7617,0 5,-2.2383 5,-4.999 C 51,32.2393 53.2383,30 56,30 c 2.7617,0 5,2.2393 5,5.001 0,2.7607 2.2383,4.999 5,4.999 h 1"
       id="path6" />
    <line
       x1="5"
       x2="67"
       y1="48"
       y2="48"
       fill="none"
       stroke="#000"
       stroke-linecap="round"
       stroke-linejoin="round"
       stroke-miterlimit="10"
       stroke-width="2"
       id="line8" />
    <line
       x1="5"
       x2="67"
       y1="52"
       y2="52"
       fill="none"
       stroke="#000"
       stroke-linecap="round"
       stroke-linejoin="round"
       stroke-miterlimit="10"
       stroke-width="2"
       id="line10" />
    <circle
       cx="49.5"
       cy="18.0005"
       r="5"
       fill="none"
       stroke="#000"
       stroke-linecap="round"
       stroke-linejoin="round"
       stroke-miterlimit="10"
       stroke-width="2"
       id="circle12" />
    <path
       fill="none"
       stroke="#000"
       stroke-linecap="round"
       stroke-linejoin="round"
       stroke-miterlimit="10"
       stroke-width="2"
       d="m 49.5,16 c 0,-5.5229 4.4766,-10 10,-10"
       id="path14" />
  </g>
</g></svg>