<svg xmlns="http://www.w3.org/2000/svg" width="24" height="24" viewBox="0 0 24 24"> <g transform="translate(0.926560421342872 0.0) scale(0.45197793737495395)">
  
  <g
     id="line"
     transform="translate(-13,-8.0000636)">
    <path
       fill="#000"
       d="m 37,24.7 c 1.1,0 2,0.9 2,2 0,1.1 -0.9,2 -2,2 -1.1,0 -2,-0.9 -2,-2 0,-1.1 0.9,-2 2,-2 z"
       id="path2" />
    <path
       fill="#000"
       d="m 36.9,34.5 c 0.2,0.5 0,1.1 -0.5,1.3 -1.1,0.6 -2.3,0.8 -3.5,0.8 -1.2,0 -2.3,-0.3 -3.4,-0.8 C 29,35.6 28.8,35 29,34.5 c 0.2,-0.5 0.8,-0.7 1.3,-0.4 1.7,0.9 3.4,0.9 5.1,0 0.6,-0.3 1.2,-0.1 1.5,0.4 z"
       id="path4" />
    <path
       fill="none"
       stroke="#000"
       stroke-linecap="round"
       stroke-linejoin="round"
       stroke-width="1.6"
       d="m 33,32 c 0,0 1.2,-2 3.6,0 0.3721,0.3786 0.8609,0.6208 1.3875,0.6875"
       id="path6" />
    <path
       fill="none"
       stroke="#000"
       stroke-linecap="round"
       stroke-linejoin="round"
       stroke-width="1.6"
       d="m 32.9875,32 c 0,0 -1.2,-2 -3.6,0 -0.3721,0.3786 -0.8609,0.6208 -1.3875,0.6875"
       id="path8" />
    <path
       fill="#000"
       d="m 29,24.7 c 1.1,0 2,0.9 2,2 0,1.1 -0.9,2 -2,2 -1.1,0 -2,-0.9 -2,-2 0,-1.1 0.9,-2 2,-2 z"
       id="path10" />
    <path
       fill="none"
       stroke="#000"
       stroke-linecap="round"
       stroke-linejoin="round"
       stroke-miterlimit="10"
       stroke-width="2"
       d="m 21.3,27 c 0,0.4 0,1.4 -0.1,2.4 -0.2,3.1 0.4,6.2 1.9,8.9 0.6,1 1.3,2 2.1,2.7 2.8,2.4 5.6,2.5 7.4,2.5"
       id="path12" />
    <path
       fill="none"
       stroke="#000"
       stroke-linecap="round"
       stroke-linejoin="round"
       stroke-miterlimit="10"
       stroke-width="2"
       d="m 44.2,27 c 0,0.4 0.1,1.4 0.1,2.4 0.2,3.1 -0.4,6.2 -1.9,8.9 -0.6,1 -1.2,2 -2.1,2.7 -2.8,2.4 -5.5,2.5 -7.4,2.5 -0.1,0 -0.2,0 -0.3,0"
       id="path14" />
    <path
       fill="none"
       stroke="#000"
       stroke-linecap="round"
       stroke-linejoin="round"
       stroke-miterlimit="10"
       stroke-width="2"
       d="m 21.3,27 c 0,0 -2.2,-6.8 2,-13.2 3.2,-4.9 12.9,-2.4 12.9,-2.4 l 3.1,-2.4 1.1,3.1 3.4,-2.5 c 0.8,2.2 0.1,3.9 -1.2,5.3 -1.1,1.2 -2.5,2 -3.5,2.5 -0.7,0.4 -1.2,0.5 -1.2,0.5 -5.8,2.2 -6.1,1.9 -10.6,0 0,0 -3.4,-2.5 -6.2,8.6"
       id="path16" />
    <path
       fill="none"
       stroke="#000"
       stroke-linecap="round"
       stroke-linejoin="round"
       stroke-miterlimit="10"
       stroke-width="2"
       d="m 39,17.9 c 0.1,0 0.1,0 0.2,0 1.2,0.1 3.2,1.5 5,8.7"
       id="path18" />
    <path
       fill="none"
       stroke="#000"
       stroke-linecap="round"
       stroke-linejoin="round"
       stroke-miterlimit="10"
       stroke-width="2"
       d="m 42.8,15.1 c 3,5.8 1.3,11.9 1.3,11.9"
       id="path20" />
    <g
       id="g32">
      <path
         fill="none"
         stroke="#000"
         stroke-linecap="round"
         stroke-linejoin="round"
         stroke-width="2"
         d="m 14,58 v -3 c 0,-5 5,-9 10,-9 6,5 12,5 18,0 0.5017,0 1.0034,0.0403 1.5,0.1178"
         id="path22" />
      <path
         fill="none"
         stroke="#000"
         stroke-linejoin="round"
         stroke-width="2"
         d="m 23.5,46.6 0.5,7.5 h 18 l 0.5,-7.5"
         id="path24" />
      <path
         fill="none"
         stroke="#000"
         stroke-linecap="round"
         stroke-width="2"
         d="m 20,47.1 v 11"
         id="path26" />
      <path
         fill="none"
         stroke="#000"
         stroke-linecap="round"
         stroke-linejoin="round"
         stroke-width="2"
         d="M 46.1996,54.1 C 45.4463,52.4287 45,50.3512 45,48.1 h 12 c 0,2.2512 -0.4463,4.3287 -1.1996,6"
         id="path28" />
      <path
         fill="none"
         stroke="#000"
         stroke-linejoin="round"
         stroke-width="2"
         d="m 41,57.1 h 20 l -2,3 H 43 Z"
         id="path30" />
    </g>
  </g>
</g></svg>