<svg xmlns="http://www.w3.org/2000/svg" width="24" height="24" viewBox="0 0 24 24"> <g transform="scale(0.46153846153846156)">
  
  <g
     id="line"
     transform="translate(-10,-10)">
    <path
       fill="none"
       stroke="#000"
       stroke-linecap="round"
       stroke-linejoin="round"
       stroke-miterlimit="10"
       stroke-width="2"
       d="M 60,61 H 12 c -0.5523,0 -1,-0.4477 -1,-1 V 12 c 0,-0.5523 0.4477,-1 1,-1 h 48 c 0.5523,0 1,0.4477 1,1 v 48 c 0,0.5523 -0.4477,1 -1,1 z"
       id="path2" />
    <path
       fill="none"
       stroke="#000"
       stroke-linecap="round"
       stroke-linejoin="round"
       stroke-miterlimit="10"
       stroke-width="2"
       d="m 47.4,40 c -4.536,-5.67 -11.9,-5.684 -11.9,-5.684 0,0 -7.364,0.014 -11.9,5.684"
       id="path4" />
    <path
       fill="none"
       stroke="#000"
       stroke-linecap="round"
       stroke-linejoin="round"
       stroke-miterlimit="10"
       stroke-width="2"
       d="m 39,38.6 5.6,11.2 c 0,0 0,1.4 -1.4,1.4 -1.4,0 -5.6,-4.2 -5.6,-4.2 h -2.8 1.4 -2.8 c 0,0 -4.2,4.2 -5.6,4.2 -1.4,0 -1.4,-1.4 -1.4,-1.4 L 32,38.6"
       id="path6" />
    <polygon
       fill="none"
       stroke="#000"
       stroke-linecap="round"
       stroke-linejoin="round"
       stroke-miterlimit="10"
       stroke-width="2"
       points="30.6,41.4 40.4,41.4 40.4,44.2 37.6,47 33.4,47 30.6,44.2 "
       id="polygon8" />
    <circle
       cx="36.200001"
       cy="27"
       r="4.1999998"
       fill="none"
       stroke="#000"
       stroke-linecap="round"
       stroke-linejoin="round"
       stroke-miterlimit="10"
       stroke-width="2"
       id="circle10" />
  </g>
</g></svg>