<svg xmlns="http://www.w3.org/2000/svg" width="24" height="24" viewBox="0 0 24 24"> <g transform="translate(0.0 2.3120611963823663) scale(0.46153670414870346)">
  
  <g
     id="line"
     transform="translate(-9.9998,-15.039671)">
    <path
       fill="none"
       stroke="#000"
       stroke-miterlimit="10"
       stroke-width="2"
       d="m 41.0031,26.1404 h -1.5889 c -0.5519,0 -0.9994,0.4474 -0.9994,0.9994 v 4.4112 c 0,0.5519 -0.4474,0.9994 -0.9994,0.9994 h -4.3313 c -0.5519,0 -0.9994,-0.4474 -0.9994,-0.9994 v -4.4112 c 0,-0.5519 -0.4474,-0.9994 -0.9994,-0.9994 h -1.5788 c -0.8109,0 -1.2842,-0.9149 -0.8157,-1.5768 l 5.7482,-8.1208 c 0.3983,-0.5627 1.2331,-0.5627 1.6314,0 l 5.7482,8.1208 c 0.4687,0.6619 -0.0046,1.5768 -0.8155,1.5768 z"
       id="path2" />
    <path
       fill="none"
       stroke="#000"
       stroke-linecap="round"
       stroke-linejoin="round"
       stroke-miterlimit="10"
       stroke-width="2"
       d="m 61,42.1886 v 10.7401 c 0,1.711 -1.3914,3.0922 -3.0922,3.0922 h -43.908 c -1.6569,0 -3,-1.3431 -3,-3 V 42.0964 c 0,-1.6569 1.3431,-3 3,-3 h 5.4067 c 1.1204,0 2.2273,0.523 2.7865,1.4938 0.5049,0.8765 1.4431,1.4643 2.5154,1.4643 l 11.2863,0.0103 11.2864,-0.0103 c 1.0722,0 2.0104,-0.5878 2.5154,-1.4643 0.5593,-0.9708 1.6662,-1.4938 2.7865,-1.4938 h 5.3248 c 1.7008,0 3.0922,1.3812 3.0922,3.0922 z"
       id="path4" />
  </g>
</g></svg>