<svg xmlns="http://www.w3.org/2000/svg" width="24" height="24" viewBox="0 0 24 24"> <g transform="scale(0.41379310344827586)">
  
  <g
     id="line"
     transform="translate(-7,-7)">
    <circle
       cx="36"
       cy="36"
       r="28"
       fill="none"
       stroke="#000"
       stroke-linejoin="round"
       stroke-miterlimit="10"
       stroke-width="2"
       id="circle2" />
    <path
       fill="#000"
       stroke="none"
       d="M 27.8789,24.5283 C 27.8789,24.2365 27.6321,24 27.3276,24 h -1.3975 c -0.3044,0 -0.5513,0.2365 -0.5513,0.5283 v 2 h -3.3674 c -0.3394,0 -0.6145,0.2636 -0.6145,0.5889 v 1.218 c 0,0.3252 0.2751,0.5889 0.6145,0.5889 h 6.9021 c -0.7422,2.2732 -2.7661,6.5282 -7.5166,6.5282 v 2.3958 c 1.5178,0 2.8325,-0.3326 3.9819,-0.8681 v 9.4887 c 0,0.2934 0.2482,0.5313 0.5544,0.5313 h 1.3912 c 0.3062,0 0.5544,-0.2379 0.5544,-0.5313 v -9.7355 c 0.6267,0.4781 1.4396,0.9211 2.4801,1.2422 0.3052,0.0942 0.6326,-0.09 0.7125,-0.3876 l 0.3448,-1.2838 c 0.0737,-0.2743 -0.096,-0.5455 -0.3764,-0.6351 -1.2618,-0.4031 -1.8985,-0.988 -2.2112,-1.3975 1.7137,-2.0718 2.6213,-4.605 2.9218,-6.3501 l 0.2397,-1.393 h -4.1113 v -2 z"
       id="path4" />
    <path
       fill="#000"
       stroke="none"
       d="m 49.1952,40.1236 h -1.0046 c -0.413,0 -0.7477,0.3429 -0.7477,0.7659 v 2.5168 c 0,0.2351 -0.0854,0.4602 -0.2407,0.6332 -0.1704,0.1896 -0.4023,0.2971 -0.6538,0.3021 -0.2417,0.023 -0.4868,-0.0915 -0.7183,-0.3276 -0.1724,-0.1771 -0.2676,-0.4116 -0.2676,-0.6617 v -9.8174 h 0.2056 c 1.313,0 2.3809,-1.0939 2.3809,-2.4388 V 26.439 c 0,-1.345 -1.0679,-2.4388 -2.3809,-2.4388 h -7.6743 c -1.313,0 -2.3809,1.0939 -2.3809,2.4388 v 4.6571 c 0,1.345 1.0679,2.4388 2.3809,2.4388 h 0.2936 c 0.126,2.5999 -0.1006,9.1154 -5.2887,11.1521 -0.1655,0.065 -0.2617,0.2515 -0.2061,0.4204 l 0.5833,1.7718 c 0.0622,0.189 0.2764,0.2924 0.4621,0.2209 5.9949,-2.3114 7.1952,-9.1902 6.9696,-13.5652 h 2.155 v 9.8174 c 0,0.9338 0.355,1.8121 1.0527,2.5264 0.6465,0.6622 1.5,1.0244 2.4116,1.0244 0.0244,0 0.0488,-5e-4 0.0737,-0.001 1.2753,-0.0272 2.4172,-0.7573 3.0295,-2.0039 0.2226,-0.4533 0.3128,-0.9631 0.3128,-1.4681 v -2.5405 c 0,-0.4231 -0.3348,-0.766 -0.7477,-0.766 z M 38.2129,26.5609 h 7.436 v 4.413 h -7.436 z"
       id="path6" />
  </g>
</g></svg>