<svg xmlns="http://www.w3.org/2000/svg" width="24" height="24" viewBox="0 0 24 24"> <g transform="translate(0.0 1.8845337534903681) scale(0.398702416340978)">
  
  <g
     id="line"
     stroke-miterlimit="10"
     transform="translate(-4.8990383,-16.840999)">
    <circle
       cx="21.6"
       cy="20.809999"
       r="2.9690001"
       fill="none"
       stroke="#000"
       stroke-miterlimit="10"
       stroke-width="2"
       id="circle2" />
    <path
       fill="none"
       stroke="#000"
       stroke-linecap="round"
       stroke-linejoin="round"
       stroke-miterlimit="10"
       stroke-width="2"
       d="m 25.37,28.59 c 3.052,-0.03019 6.105,0.4847 4.513,-1.838 -2.223,-2.713 -2.706,-1.703 -2.425,-4.755 0.4231,-1.015 1.382,-2.002 2.482,-2.016 4.442,-0.1066 8.627,0.7864 12.82,1.604 0.8095,0.2614 1.704,0.644 2.312,1.698 0.5417,0.9581 0.8023,1.671 0.7088,2.766 0,0 -0.1072,1.838 -0.7403,2.659 -2.226,2.886 -8.516,4.081 -9.837,5.261 l -0.2472,4.9 c -0.07315,1.487 -0.2026,3.366 -1.573,3.496 -1.683,0.1602 -2.163,-1.292 -2.203,-2.852 0,0 -0.1731,-5.068 -0.1775,-5.869 -0.0045,-0.8015 0.7853,-2.355 1.535,-3.049 0.7497,-0.694 0.2151,-0.4125 1.889,-1.168 l 4.747,-2.148 c 1.495,-1.187 0.9134,-1.546 0.07506,-1.779 -0.8383,-0.2324 -5.126,-0.6471 -5.126,-0.6471"
       id="path4" />
    <path
       fill="none"
       stroke="#000"
       stroke-linecap="round"
       stroke-linejoin="round"
       stroke-width="2"
       d="M 27,35 C 26,34 23.549,30.55 21,28 20,27 18,26 18,26 L 16,23"
       id="path6" />
    <path
       fill="none"
       stroke="#000"
       stroke-linecap="round"
       stroke-linejoin="round"
       stroke-width="2"
       d="m 46,40 c 0,0 -1,3 0,5 1.188,2.377 5.791,8 5.791,9 L 49,57 c 0,0 -1.138,0.748 -1.124,1.376 0.041,1.917 1.915,1.624 1.915,1.624 0,0 6.378,-5.564 6.209,-6 -0.5107,-1.319 -1.367,-3.735 -2,-5 -1,-2 4,-5 4,-8 0,-1.601 -1,-6 -5,-7 -1.725,-0.4316 -3.773,-0.4912 -5.958,-0.3486"
       id="path8" />
    <path
       fill="none"
       stroke="#000"
       stroke-linecap="round"
       stroke-linejoin="round"
       stroke-width="2"
       d="m 24,64 c -1.8,-0.7598 -3.957,-1.957 -5,-3 -0.3535,-0.3535 -0.6328,-1.735 0,-3 l 3,-6 c 0,0 -1.419,-0.4189 -3,-2 -1,-1 -0.8867,-5.003 -1,-7 -0.1025,-1.817 -2,-8 -2,-8 0,0 -4,0 -8,1 -0.6855,0.1719 -2.553,-1.558 -2,-2 5,-4 5,-4 8,-6"
       id="path10" />
    <path
       fill="none"
       stroke="#000"
       stroke-linecap="round"
       stroke-linejoin="round"
       stroke-width="2"
       d="m 26,61 c 0,0 0.5527,0.5254 1.23,1.166 0.6758,0.6416 0.6943,1.72 0.042,2.396 -0.6543,0.6758 -1.656,0.8252 -2.23,0.333 C 24.468,64.4028 24,63.9995 24,63.9995"
       id="path12" />
    <path
       fill="none"
       stroke="#000"
       stroke-linecap="round"
       stroke-linejoin="round"
       stroke-width="2"
       d="m 47,48 c 0,0 -7.385,3.359 -10,4 -2.44,0.5977 -9,1 -9,1 -4,4 -5,6 -5,6 0,0 1.629,1.342 3,2"
       id="path14" />
    <path
       fill="none"
       stroke="#000"
       stroke-linecap="round"
       stroke-linejoin="round"
       stroke-width="2"
       d="m 48,49 c 0,0 -2.143,6.789 -3,9 -0.4707,1.213 -0.6182,1.922 -1.542,3.958 -0.8242,1.816 -0.9101,2.118 -0.9101,2.118 -0.3018,1.059 0.1269,2.148 0.9521,2.424 0.8252,0.276 1.9,-0.3066 2.389,-1.292 l 1.049,-2.114"
       id="path16" />
    <path
       fill="none"
       stroke="#000"
       stroke-linecap="round"
       stroke-linejoin="round"
       stroke-width="2"
       d="m 15,62 v 2 c 0,1.1 -0.6748,2 -1.5,2 C 12.6748,66 12,65.2998 12,64.443 v -2.401"
       id="path18" />
    <path
       fill="none"
       stroke="#000"
       stroke-linecap="round"
       stroke-linejoin="round"
       stroke-width="2"
       d="m 18,50 c 0,0 -5,3 -6,4 -1,1 -1,2.21 -1,3 0,0.5176 0.4834,2.854 1,5.042"
       id="path20" />
    <path
       fill="none"
       stroke="#000"
       stroke-linecap="round"
       stroke-linejoin="round"
       stroke-width="2"
       d="M 55.68,35.03 58,34.99798 c 0,0 7,3 6,7 -0.7275,2.91 -5,6 0,11"
       id="path22" />
    <line
       x1="15"
       x2="15"
       y1="58"
       y2="62"
       fill="none"
       stroke="#000"
       stroke-linecap="round"
       stroke-linejoin="round"
       stroke-width="2"
       id="line24" />
  </g>
</g></svg>