<svg xmlns="http://www.w3.org/2000/svg" width="24" height="24" viewBox="0 0 24 24"> <g transform="translate(0.7014058655369109 0.0) scale(0.4363410894295244)">
  
  <g
     id="line"
     transform="translate(-10.1061,-5.9971582)">
    <g
       id="line-2">
      <rect
         x="11.1061"
         y="44.0303"
         width="49.787899"
         height="15.9697"
         fill="none"
         stroke="#000"
         stroke-linecap="round"
         stroke-linejoin="round"
         stroke-width="2"
         id="rect2" />
      <rect
         x="15.8031"
         y="48.727299"
         width="12.2121"
         height="11.2727"
         fill="none"
         stroke="#000"
         stroke-linecap="round"
         stroke-linejoin="round"
         stroke-width="2"
         id="rect4" />
      <line
         x1="15.8031"
         x2="28.0152"
         y1="52.484901"
         y2="52.484901"
         fill="none"
         stroke="#000"
         stroke-linecap="round"
         stroke-linejoin="round"
         stroke-width="2"
         id="line6" />
      <line
         x1="15.8031"
         x2="28.0152"
         y1="56.242401"
         y2="56.242401"
         fill="none"
         stroke="#000"
         stroke-linecap="round"
         stroke-linejoin="round"
         stroke-width="2"
         id="line8" />
      <polyline
         fill="none"
         stroke="#000"
         stroke-linecap="round"
         stroke-linejoin="round"
         stroke-width="2"
         points="37.409 53.424 32.712 53.424 32.712 48.727 37.409 48.727"
         id="polyline10" />
      <line
         x1="42.106098"
         x2="37.4091"
         y1="53.424198"
         y2="53.424198"
         fill="none"
         stroke="#000"
         stroke-linecap="round"
         stroke-linejoin="round"
         stroke-width="2"
         id="line12" />
      <line
         x1="37.4091"
         x2="42.106098"
         y1="48.727299"
         y2="48.727299"
         fill="none"
         stroke="#000"
         stroke-linecap="round"
         stroke-linejoin="round"
         stroke-width="2"
         id="line14" />
      <line
         x1="46.803001"
         x2="42.106098"
         y1="53.424198"
         y2="53.424198"
         fill="none"
         stroke="#000"
         stroke-linecap="round"
         stroke-linejoin="round"
         stroke-width="2"
         id="line16" />
      <line
         x1="42.106098"
         x2="46.803001"
         y1="48.727299"
         y2="48.727299"
         fill="none"
         stroke="#000"
         stroke-linecap="round"
         stroke-linejoin="round"
         stroke-width="2"
         id="line18" />
      <line
         x1="51.5"
         x2="46.803001"
         y1="53.424198"
         y2="53.424198"
         fill="none"
         stroke="#000"
         stroke-linecap="round"
         stroke-linejoin="round"
         stroke-width="2"
         id="line20" />
      <line
         x1="46.803001"
         x2="51.5"
         y1="48.727299"
         y2="48.727299"
         fill="none"
         stroke="#000"
         stroke-linecap="round"
         stroke-linejoin="round"
         stroke-width="2"
         id="line22" />
      <polyline
         fill="none"
         stroke="#000"
         stroke-linecap="round"
         stroke-linejoin="round"
         stroke-width="2"
         points="51.5 48.727 56.197 48.727 56.197 53.424 51.5 53.424"
         id="polyline24" />
      <polygon
         fill="none"
         stroke="#000"
         stroke-linecap="round"
         stroke-linejoin="round"
         stroke-width="2"
         points="50.091,29 53.848,29 54.788,44.03 49.152,44.03 "
         id="polygon26" />
      <polygon
         fill="none"
         stroke="#000"
         stroke-linecap="round"
         stroke-linejoin="round"
         stroke-width="2"
         points="25.194,44.03 15.8,37.455 15.805,44.03 "
         id="polygon28" />
      <polygon
         fill="none"
         stroke="#000"
         stroke-linecap="round"
         stroke-linejoin="round"
         stroke-width="2"
         points="35.061,44.03 25.667,37.455 25.671,44.03 "
         id="polygon30" />
      <polygon
         fill="none"
         stroke="#000"
         stroke-linecap="round"
         stroke-linejoin="round"
         stroke-width="2"
         points="44.455,44.03 35.061,37.455 35.065,44.03 "
         id="polygon32" />
    </g>
    <path
       fill="none"
       stroke="#000"
       stroke-linecap="round"
       stroke-linejoin="round"
       stroke-width="2"
       d="m 38.889,12.2778 a 5.2581,5.2581 0 0 1 9.2247,-3.4712 4.195,4.195 0 0 1 7.6433,2.4177 c 0.0071,0 0.0137,-0.002 0.0208,-0.002 a 4.2222,4.2222 0 1 1 0,8.4444 c -0.0686,0 -0.1323,-0.017 -0.2,-0.02 a 3.1151,3.1151 0 0 1 -1.9479,4.06 c 0.0057,0.0633 0.0369,0.1178 0.0369,0.1825 a 2.1111,2.1111 0 1 1 -4.2222,0 2.0851,2.0851 0 0 1 0.5476,-1.3879 A 3.1488,3.1488 0 0 1 49.5665,21.5464 3.1433,3.1433 0 0 1 45.2672,19.057 4.1985,4.1985 0 0 1 39.18,13.9329 5.22,5.22 0 0 1 38.889,12.2778 Z"
       id="path35" />
  </g>
</g></svg>