<svg xmlns="http://www.w3.org/2000/svg" width="24" height="24" viewBox="0 0 24 24"> <g transform="translate(2.2928351538461538 0.0) scale(0.46153846153846156)">
  
  <g
     id="line"
     transform="translate(-9.4100676,-9)">
    <circle
       cx="34.334"
       cy="52"
       r="3"
       fill="none"
       stroke="#000"
       stroke-miterlimit="10"
       stroke-width="2"
       id="circle2" />
    <path
       fill="none"
       stroke="#000"
       stroke-linecap="round"
       stroke-linejoin="round"
       stroke-miterlimit="10"
       stroke-width="2"
       d="m 28,42 0.7168,-5.0205 C 28.873,35.8906 28.251,34.501 27.3359,33.8906 L 21.6641,30.1094 C 20.749,29.499 19.2285,28.5371 18.2852,27.9712 L 11.7148,24.0293 C 10.7715,23.4634 10.2246,22.3257 10.5,21.5005 c 0.2754,-0.8252 1.3193,-1.1275 2.3203,-0.6724 l 7.3594,3.3443 c 1.001,0.455 2.6885,1.0644 3.75,1.354 l 7.1406,1.9472 c 1.0615,0.2896 2.3799,0.3013 2.9297,0.0264 0.5498,-0.2749 1.6914,-1.0762 2.5361,-1.7803 l 2.9278,-2.4394 c 0.8447,-0.7041 1.9892,-2.0576 2.5439,-3.0078 l 4.9844,-8.545 C 47.5469,10.7773 48.6748,10 49.5,10 c 0.8252,0 1.1973,0.8477 0.8271,1.8833 l -3.6542,10.2334 c -0.3702,1.0356 -1.1719,2.6323 -1.7823,3.5474 l -3.7812,5.6718 c -0.6104,0.9151 -1.2364,2.5547 -1.3926,3.6436 l -0.4336,3.041 C 39.127,39.1094 39.2246,40.4502 39.5,41 c 0.2754,0.5498 0.5,1 0.5,1"
       id="path4" />
    <path
       fill="none"
       stroke="#000"
       stroke-linecap="round"
       stroke-linejoin="round"
       stroke-miterlimit="10"
       stroke-width="2"
       d="m 25,60 c 0,-4 0,-6 0,-8 0,-3.4307 1.8301,-5.458 4,-6 4,-1 6,-1 10,0 2.1689,0.542 4,2.6543 4,6 0,2 0,5.0957 0,8"
       id="path6" />
  </g>
</g></svg>