<svg xmlns="http://www.w3.org/2000/svg" width="24" height="24" viewBox="0 0 24 24"> <g transform="translate(0.0 0.1607534756216964) scale(0.4699432151948306)">
  
  <g
     id="line"
     transform="translate(-6.0614,-9.3512264)">
    <path
       fill="none"
       stroke="#000"
       stroke-linecap="round"
       stroke-linejoin="round"
       stroke-width="2"
       d="m 18.6575,19.2409 c -0.9683,-1.6927 -3.1256,-2.2799 -4.8183,-1.3115 -1.6927,0.9684 -2.2799,3.1256 -1.3115,4.8183 0.1552,0.2714 0.3458,0.5209 0.5667,0.742 l 11.5324,15.0998 2.6883,3.3878 -7.8906,-10.3314 c -0.9683,-1.6927 -3.1256,-2.2799 -4.8183,-1.3115 -1.6927,0.9684 -2.2799,3.1256 -1.3115,4.8183 0.1552,0.2714 0.3458,0.5209 0.5667,0.7421 l 7.8906,10.3312 6.2707,7.899 c 5.467,6.2731 14.5147,5.9306 20.7863,0.465 3.6045,-3.1684 5.9226,-7.5482 6.5154,-12.3105 0.3858,-4.2326 0.807,-15.301 0.807,-15.301 -0.1826,-2.6008 -3.1353,-4.5234 -3.5158,-3.1802 L 47.7217,33.5558 44.356,29.3334 47.7217,33.5558 44.356,29.3334 30.8909,12.1248 c -0.9683,-1.6927 -3.1256,-2.2799 -4.8183,-1.3115 -1.6927,0.9684 -2.2799,3.1256 -1.3115,4.8183 0.1552,0.2714 0.3458,0.5209 0.5667,0.742 L 29.5766,21.9367 36,30.4167 22.581,12.7366 c -0.9683,-1.6927 -3.1256,-2.2799 -4.8183,-1.3115 -1.6927,0.9684 -2.2799,3.1256 -1.3116,4.8183 0.1552,0.2714 0.3458,0.5209 0.5667,0.7421 L 31.6894,36"
       id="path2" />
    <path
       fill="none"
       stroke="#000"
       stroke-linecap="round"
       stroke-linejoin="round"
       stroke-miterlimit="10"
       stroke-width="2"
       d="m 11.6726,42.8719 c 0,2.5663 1.747,4.6428 3.9059,4.6428"
       id="path4" />
    <path
       fill="none"
       stroke="#000"
       stroke-linecap="round"
       stroke-linejoin="round"
       stroke-miterlimit="10"
       stroke-width="2"
       d="m 7.0614,42.4369 c 0,5.5959 3.8094,10.1241 8.5171,10.1241"
       id="path6" />
    <path
       fill="none"
       stroke="#000"
       stroke-linecap="round"
       stroke-linejoin="round"
       stroke-miterlimit="10"
       stroke-width="2"
       d="m 45.2619,21.2377 c 0,-2.5663 -1.747,-4.6428 -3.9059,-4.6428"
       id="path8" />
    <path
       fill="none"
       stroke="#000"
       stroke-linecap="round"
       stroke-linejoin="round"
       stroke-miterlimit="10"
       stroke-width="2"
       d="m 49.8731,21.6727 c 0,-5.5959 -3.8094,-10.1241 -8.5171,-10.1241"
       id="path10" />
  </g>
</g></svg>