<svg xmlns="http://www.w3.org/2000/svg" width="24" height="24" viewBox="0 0 24 24"> <g transform="translate(2.4974018606710473 0.0) scale(0.47357469949268116)">
  
  <g
     id="line"
     transform="translate(-15.753647,-8.1254015)">
    <path
       d="m 41.9416,26.9513 c 0,1.1045 -0.8965,2 -2,2 -1.1035,0 -2,-0.8955 -2,-2 0,-1.1035 0.8965,-2 2,-2 1.1035,0 2,0.8965 2,2"
       id="path2" />
    <path
       d="m 33.9416,26.9513 c 0,1.1045 -0.8965,2 -2,2 -1.1035,0 -2,-0.8955 -2,-2 0,-1.1035 0.8965,-2 2,-2 1.1035,0 2,0.8965 2,2"
       id="path4" />
    <path
       d="m 35.9414,36.9537 c -1.1518,0 -2.3037,-0.2861 -3.4472,-0.8579 C 32,35.8487 31.7998,35.2481 32.0469,34.754 c 0.2466,-0.4937 0.8462,-0.6943 1.3418,-0.4473 1.7178,0.8594 3.3877,0.8594 5.1055,0 0.4946,-0.247 1.0947,-0.0464 1.3418,0.4473 0.247,0.4941 0.0468,1.0947 -0.4473,1.3418 -1.1436,0.5718 -2.2954,0.8579 -3.4473,0.8579 z"
       id="path6" />
    <path
       d="m 46.13,19.7698 c -0.57,-1.03 -1.24,-1.97 -2,-2.79 v 2.15 c -0.22,0 -0.48,0.01 -0.76,0.03 0.46,0.6 0.87,1.2599 1.23,1.96 1.06,2.07 1.6801,4.54 1.6801,7.19 0,7.27 -4.64,13.18 -10.34,13.18 -5.7,0 -10.34,-5.91 -10.34,-13.18 0,-2.66 0.62,-5.13 1.69,-7.2 0.36,-0.7 0.77,-1.35 1.22,-1.95 -0.28,-0.02 -0.54,-0.03 -0.76,-0.03 v -2.15 c -0.75,0.82 -1.43,1.76 -2,2.79 -1.36,2.43 -2.15,5.37 -2.15,8.54 0,8.37 5.54,15.18 12.34,15.18 6.81,0 12.34,-6.81 12.34,-15.18 -10e-5,-3.17 -0.7901,-6.11 -2.1501,-8.54 z"
       id="path8" />
    <polyline
       fill="none"
       stroke="#000"
       stroke-linecap="round"
       stroke-linejoin="round"
       stroke-miterlimit="10"
       stroke-width="2"
       points="21.3114,11.6554 26.7514,12.1854 35.8214,13.0654 45.1314,12.1554 50.3214,11.6554"
       id="polyline10" />
    <path
       d="m 36.74,23.3698 c -0.02,0.01 -0.03,0.03 -0.04,0.04 -0.13,0.16 -0.29,0.2599 -0.47,0.31 -0.04,0.02 -0.08,0.03 -0.12,0.03 -0.06,0.02 -0.11,0.02 -0.17,0.02 -0.06,0 -0.12,0 -0.17,-0.02 -0.04,0 -0.08,-0.01 -0.12,-0.03 -0.13,-0.03 -0.25,-0.1 -0.36,-0.19 -0.06,-0.05 -0.11,-0.1 -0.15,-0.16 -1.65,-1.86 -5.85,-2.25 -7.85,-2.26 -0.19,0 -0.36,0.01 -0.5,0.01 -0.27,0.01 -0.54,-0.08 -0.73,-0.27 -0.2,-0.19 -0.31,-0.45 -0.31,-0.72 v -8.47 c 0,-0.56 0.45,-1 1,-1 0.55,0 1,0.44 1,1 v 7.47 c 0.22,0 0.48,0.01 0.76,0.03 2.04,0.12 5.36,0.5699 7.43,2.24 0.28,0.21 0.53,0.45 0.76,0.72 0.31,0.3599 0.32,0.88 0.04,1.25 z"
       id="path12" />
    <path
       d="m 46.13,11.6598 v 8.47 c 0,0.27 -0.11,0.53 -0.3,0.72 -0.2,0.18 -0.44,0.28 -0.74,0.28 -0.14,-0.01 -0.31,-0.01 -0.4901,-0.01 -2.0099,0 -6.22,0.38 -7.86,2.25 -0.02,0.01 -0.03,0.03 -0.04,0.04 -0.13,0.16 -0.29,0.2599 -0.47,0.31 -0.04,0.02 -0.08,0.03 -0.12,0.03 -0.06,0.02 -0.11,0.02 -0.17,0.02 -0.06,0 -0.12,0 -0.17,-0.02 -0.04,0 -0.08,-0.01 -0.12,-0.03 -0.13,-0.03 -0.25,-0.1 -0.36,-0.19 -0.06,-0.05 -0.11,-0.1 -0.15,-0.16 -0.28,-0.37 -0.27,-0.89 0.04,-1.25 0.23,-0.27 0.48,-0.51 0.76,-0.72 2.07,-1.67 5.39,-2.12 7.43,-2.24 0.28,-0.02 0.54,-0.03 0.76,-0.03 v -7.47 c 0,-0.56 0.45,-1 1,-1 0.55,0 1.0001,0.44 1.0001,1 z"
       id="path14" />
    <polyline
       fill="none"
       stroke="#000"
       stroke-linecap="round"
       stroke-linejoin="round"
       stroke-miterlimit="10"
       stroke-width="2"
       points="50.3214,11.6554 35.1914,9.1254 21.3114,11.6554"
       id="polyline16" />
    <path
       d="m 21.3125,21.0005 c -0.5527,0 -1,-0.4478 -1,-1 v -8.1211 c 0,-0.5523 0.4473,-1 1,-1 0.5527,0 1,0.4477 1,1 v 8.1211 c 0,0.5522 -0.4473,1 -1,1 z"
       id="path18" />
    <path
       d="m 19.2852,23.5801 c -0.2159,0 -0.4336,-0.0698 -0.6172,-0.2134 -0.4336,-0.3413 -0.5098,-0.9702 -0.168,-1.4043 l 2.0264,-2.5796 c 0.3408,-0.4336 0.9677,-0.5102 1.4043,-0.1689 0.4336,0.3413 0.5097,0.9702 0.1679,1.4043 l -2.0263,2.5796 c -0.1973,0.2509 -0.4903,0.3823 -0.7871,0.3823 z"
       id="path20" />
    <path
       d="m 21.3125,25.1011 c -0.5527,0 -1,-0.4478 -1,-1 v -4.1006 c 0,-0.5523 0.4473,-1 1,-1 0.5527,0 1,0.4477 1,1 v 4.1006 c 0,0.5522 -0.4473,1 -1,1 z"
       id="path22" />
    <path
       d="m 45.8936,25.2324 c -1.5938,0 -4.6875,-0.4511 -7.753,-3.4267 -0.3965,-0.3848 -0.4062,-1.0181 -0.0215,-1.4141 0.3858,-0.3965 1.0176,-0.4053 1.4141,-0.0215 3.5215,3.4185 6.9356,2.8418 7.0781,2.8145 0.5401,-0.0967 1.0635,0.2573 1.1651,0.7964 0.1025,0.54 -0.2461,1.061 -0.7852,1.1669 -0.0527,0.0108 -0.4531,0.0845 -1.0976,0.0845 z"
       id="path24" />
    <path
       d="m 25.9893,25.2324 c -0.6455,0 -1.045,-0.0737 -1.0977,-0.0845 -0.542,-0.1064 -0.8945,-0.6323 -0.7881,-1.1743 0.1065,-0.5405 0.6289,-0.8911 1.169,-0.789 0.1611,0.0312 3.5664,0.5947 7.0771,-2.8145 0.3965,-0.3838 1.0283,-0.375 1.4141,0.0215 0.3847,0.396 0.375,1.0293 -0.0215,1.4141 -3.0654,2.9756 -6.1592,3.4267 -7.7529,3.4267 z"
       id="path26" />
    <path
       d="m 54.7588,58.8027 c -0.0508,0 -0.1016,-0.0029 -0.1524,-0.0107 -0.5459,-0.084 -0.9209,-0.5938 -0.8378,-1.1387 0.0087,-0.0576 0.8271,-5.7412 -2.129,-9.1777 -1.4755,-1.7149 -3.6894,-2.6123 -6.5859,-2.669 -3.3096,2.1856 -6.0283,3.5459 -9.126,3.5889 -0.0214,0.001 -0.0429,0.001 -0.0644,0.001 -0.0078,0 -0.0137,0 -0.0215,0 h -0.0449 c -0.0147,0 -0.0274,0 -0.042,0 -0.0147,0 -0.0293,0 -0.044,-0.001 -3.0996,-0.043 -5.8164,-1.4033 -9.1259,-3.5889 -2.8965,0.0567 -5.1104,0.9541 -6.586,2.669 -2.956,3.4365 -2.1377,9.1201 -2.1289,9.1777 0.083,0.5449 -0.292,1.0547 -0.8379,1.1387 -0.5351,0.084 -1.0547,-0.29 -1.1386,-0.8359 -0.0411,-0.2696 -0.9727,-6.6329 2.581,-10.7754 1.9229,-2.2412 4.751,-3.377 8.4072,-3.377 0.1973,0 0.3907,0.0586 0.5547,0.168 3.1533,2.1025 5.6602,3.4101 8.3828,3.4248 2.7217,-0.0137 5.2286,-1.3223 8.3828,-3.4248 0.1641,-0.1094 0.3575,-0.168 0.5547,-0.168 3.6563,0 6.4844,1.1358 8.4073,3.377 3.5537,4.1425 2.622,10.5058 2.581,10.7754 -0.0762,0.4941 -0.5019,0.8466 -0.9863,0.8466 z"
       id="path28" />
  </g>
</g></svg>