<svg xmlns="http://www.w3.org/2000/svg" width="24" height="24" viewBox="0 0 24 24"> <g transform="translate(7.939963636363636 0.0) scale(0.36363636363636365)">
  
  <g
     id="line"
     transform="translate(-24.8602,-2.556)">
    <path
       fill="none"
       stroke="#000"
       stroke-linecap="round"
       stroke-linejoin="round"
       stroke-miterlimit="10"
       stroke-width="2"
       d="m 38.3874,35.9133 c -0.7217,0.1599 -1.9748,0.2657 -3.3999,0.2657 -2.2364,0 -4.0494,-0.2606 -4.0494,-0.582"
       id="path2" />
    <path
       fill="none"
       stroke="#000"
       stroke-linecap="round"
       stroke-linejoin="round"
       stroke-miterlimit="10"
       stroke-width="2"
       d="m 38.3874,43.6108 c -0.7217,0.1599 -1.9748,0.2657 -3.3999,0.2657 -2.2364,0 -4.0494,-0.2606 -4.0494,-0.582"
       id="path4" />
    <path
       fill="none"
       stroke="#000"
       stroke-linecap="round"
       stroke-linejoin="round"
       stroke-miterlimit="10"
       stroke-width="2"
       d="m 38.3874,28.2158 c -0.7217,0.1599 -1.9748,0.2657 -3.3999,0.2657 -2.2364,0 -4.0494,-0.2606 -4.0494,-0.582"
       id="path6" />
    <path
       fill="none"
       stroke="#000"
       stroke-linecap="round"
       stroke-linejoin="round"
       stroke-miterlimit="10"
       stroke-width="2"
       d="m 38.3874,20.5183 c -0.7217,0.1599 -1.9748,0.2657 -3.3999,0.2657 -2.2364,0 -4.0494,-0.2606 -4.0494,-0.582"
       id="path8" />
    <path
       fill="none"
       stroke="#000"
       stroke-linecap="round"
       stroke-linejoin="round"
       stroke-miterlimit="10"
       stroke-width="2"
       d="m 29.6634,49.4624 c 1.2934,-0.9629 1.2755,-2.2365 1.2755,-2.2365 V 8.6385 c 0,-2.807 2.2755,-5.0825 5.0825,-5.0825 2.807,0 5.0825,2.2755 5.0825,5.0825 v 38.5874 c 0,0 0.0052,1.2859 1.2986,2.2488 2.3101,1.8633 3.7879,4.7172 3.7879,7.9162 0,5.614 -4.5511,10.1651 -10.1651,10.1651 -5.614,0 -10.1651,-4.5511 -10.1651,-10.1651 0,-1.5355 0.3405,-2.9915 0.95,-4.2966"
       id="path10" />
    <path
       fill="none"
       stroke="#000"
       stroke-linecap="round"
       stroke-linejoin="round"
       stroke-miterlimit="10"
       stroke-width="2"
       d="m 38.3874,12.8208 c -0.7217,0.1599 -1.9748,0.2657 -3.3999,0.2657 -2.2364,0 -4.0494,-0.2606 -4.0494,-0.582"
       id="path12" />
  </g>
</g></svg>