<svg xmlns="http://www.w3.org/2000/svg" width="24" height="24" viewBox="0 0 24 24"> <g transform="translate(0.0 6.776942901442445) scale(0.35616395218041863)">
  
  <g
     id="line"
     transform="translate(-3.8337,-18.89379)">
    <path
       fill="none"
       stroke="#000"
       stroke-linecap="round"
       stroke-linejoin="round"
       stroke-miterlimit="10"
       stroke-width="2"
       d="m 30.6989,41.7122 c -2.2463,3.325 -7.0505,5.5111 -11.3652,5.5111 -6.9036,0 -12.5,-5.5964 -12.5,-12.5 l -0.105,-4.9141 -1.895,0.0501 V 25.732 c 0,0 18.9318,-16.1788 29.4804,5.3212 h 2.9812 0.4615 2.9812 C 51.2866,9.5532 70.2184,25.732 70.2184,25.732 v 4.1273 l -1.895,-0.0501 -0.105,4.9141 c 0,6.9036 -5.5964,12.5 -12.5,12.5 -4.3147,0 -9.1189,-2.1861 -11.3652,-5.5111"
       id="path2" />
    <path
       fill="none"
       stroke="#000"
       stroke-linecap="round"
       stroke-linejoin="round"
       stroke-miterlimit="10"
       stroke-width="2"
       d="m 34.761,37.7063 c 0,-1.6569 1.3431,-3 3,-3 1.6569,0 3,1.3431 3,3"
       id="path4" />
    <circle
       cx="19.766399"
       cy="33.557701"
       r="9.5797997"
       fill="none"
       stroke="#000"
       stroke-linecap="round"
       stroke-linejoin="round"
       stroke-miterlimit="10"
       stroke-width="1.8457"
       id="circle6" />
    <circle
       cx="55.285599"
       cy="33.557701"
       r="9.5797997"
       fill="none"
       stroke="#000"
       stroke-linecap="round"
       stroke-linejoin="round"
       stroke-miterlimit="10"
       stroke-width="1.8457"
       id="circle8" />
  </g>
</g></svg>