<svg xmlns="http://www.w3.org/2000/svg" width="24" height="24" viewBox="0 0 24 24"> <g transform="translate(2.1351574039644454 0.0) scale(0.4353459795172982)">
  
  <g
     id="line"
     transform="translate(-14.578914,-7.6356342)">
    <circle
       cx="40.792301"
       cy="26.177"
       r="5"
       fill="none"
       stroke="#000"
       stroke-linecap="round"
       stroke-linejoin="round"
       stroke-width="2"
       id="circle2" />
    <path
       fill="none"
       stroke="#000"
       stroke-linecap="round"
       stroke-linejoin="round"
       stroke-width="2"
       d="m 23.8586,38.5631 c 2.7895,3.4142 1.96,8.708 1.96,8.708 0,0 -5.3525,-0.2425 -8.1427,-3.6566 -2.7902,-3.4141 -1.96,-8.708 -1.96,-8.708 0,0 5.3532,0.2452 8.1427,3.6566 z"
       id="path4" />
    <path
       fill="none"
       stroke="#000"
       stroke-linecap="round"
       stroke-linejoin="round"
       stroke-width="2"
       d="m 43.2779,20.5208 c 0.2751,-0.6458 1.4448,-3.2894 1.915,-3.8596 2.5924,-3.1437 7.5403,-3.3442 7.5403,-3.3442 0,0 0.7413,4.8964 -1.8486,8.0389 -0.7005,0.8493 -1.573,1.4837 -2.4733,1.9575 l -1.8646,0.8496 c 0.8166,-0.4354 3.5897,-1.6339 4.5743,-1.7568 4.0433,-0.5046 7.7775,2.7478 7.7775,2.7478 0,0 -2.8239,4.0682 -6.8647,4.5736 -1.5043,0.1875 -2.9658,-0.1449 -4.2082,-0.6363 L 46.3133,28.529 c 1.0721,0.4001 3.6449,1.5619 4.525,2.46 2.8519,2.9103 2.5281,7.8516 2.5281,7.8516 0,0 -4.9474,0.2194 -7.7984,-2.6884 -0.6293,-0.6423 -1.8855,-3.7761 -2.2431,-4.5413 l 0.7669,2.3973 c 0.2385,0.7124 0.3923,1.4743 0.4068,2.268 0.0742,4.074 -3.5548,7.4433 -3.5548,7.4433 0,0 -3.7467,-3.2383 -3.822,-7.3099 -0.0151,-0.834 1.3468,-4.7053 1.3468,-4.7053 l -1.1396,2.622 c -1.7718,2.4884 -4.5155,4.1433 -7.5548,4.4487 -0.9254,0.093 -1.5437,0.0656 -1.5437,0.0656 0,0 -0.3238,-4.9413 2.5281,-7.8516 0.8287,-0.8457 1.8343,-1.4269 2.844,-1.8259 l 1.711,-0.7108 c -0.0038,0.0015 -4.3141,1.4544 -5.7507,1.2753 -4.0408,-0.5054 -6.8647,-4.5736 -6.8647,-4.5736 0,0 3.7341,-3.2524 7.7775,-2.7478 0.8371,0.1045 3.8427,1.578 4.5608,1.9202 l -2.2099,-1.2115 c -0.7715,-0.4485 -1.5076,-1.0231 -2.1146,-1.759 -2.59,-3.1425 -1.8486,-8.0389 -1.8486,-8.0389 0,0 4.9479,0.2005 7.5403,3.3441 0.5013,0.6079 1.8537,3.2157 2.135,3.9064 l -0.9102,-1.9404 c -0.2945,-0.7916 -0.49,-1.6496 -0.5066,-2.5482 -0.0737,-4.0736 3.5548,-7.4433 3.5548,-7.4433 0,0 3.7478,3.2359 3.822,7.3099 0.0163,0.8967 -0.1467,1.7592 -0.411,2.5592"
       id="path6" />
    <path
       fill="none"
       stroke="#000"
       stroke-linecap="round"
       stroke-linejoin="round"
       stroke-width="2"
       d="m 36.2415,51.9973 c 3.4142,-2.7895 8.708,-1.96 8.708,-1.96 0,0 -0.2425,5.3525 -3.6566,8.1427 -3.4142,2.7902 -8.708,1.96 -8.708,1.96 0,0 0.2452,-5.3532 3.6566,-8.1427 z"
       id="path8" />
    <path
       fill="none"
       stroke="#000"
       stroke-linecap="round"
       stroke-linejoin="round"
       stroke-width="2"
       d="m 34.3663,41.0292 c -3.438,3.548 -7.676,10.246 -5.829,20.735"
       id="path10" />
  </g>
</g></svg>