<svg xmlns="http://www.w3.org/2000/svg" width="24" height="24" viewBox="0 0 24 24"> <g transform="translate(2.7416526273044592 0.0) scale(0.4814183354431492)">
  
  <g
     id="line"
     transform="translate(-19.3956,-10.9632)">
    <path
       fill="none"
       stroke="#000"
       stroke-linecap="round"
       stroke-linejoin="round"
       stroke-width="2"
       d="m 50.934,42.6522 c 0,0 2.91,-7.66 5.9244,-9.921 0,0 -0.5023,-5.2745 -2.6372,-5.7768 A 4.1563,4.1563 0 0 1 50.934,28.4793 V 18.3852"
       id="path2" />
    <path
       fill="none"
       stroke="#000"
       stroke-linecap="round"
       stroke-linejoin="round"
       stroke-width="2"
       d="m 50.934,46.034 v 7.3576 c 0,2.9685 -4.7887,5.4666 -11.2944,6.2023 L 39.6221,59.5465 A 11.4324,11.4324 0 0 1 38.9285,55.8939 6.2742,6.2742 0 0 1 39.23,53.6271 c 0.2165,-0.6044 0.566,-1.155 0.7737,-1.7625 a 8.1179,8.1179 0 0 0 0.2887,-2.6551 L 40.2709,39.1362"
       id="path4" />
    <path
       fill="none"
       stroke="#000"
       stroke-linecap="round"
       stroke-linejoin="round"
       stroke-width="2"
       d="m 20.3956,18.3852 v 35.0064 c 0,1.38 1.0348,2.6583 2.7959,3.7052 a 11.088,11.088 0 0 1 0.3037,-5.2173 c 0,0 0.7152,-2.3759 1.5671,1.5671 a 6.6658,6.6658 0 0 1 1.0752,4.5725 v 0.3914 a 30.5618,30.5618 0 0 0 9.5273,1.4032 q 0.2328,0 0.464,-0.0029"
       id="path6" />
    <path
       fill="none"
       stroke="#000"
       stroke-linecap="round"
       stroke-linejoin="round"
       stroke-width="2"
       d="m 38.0678,19.6992 c 7.1175,-2.4351 -9.8937,-4.0178 -8.7109,0.2467 2.3788,2.7141 15.2131,2.5557 16.4137,-1.4415 1.1582,-5.4256 -22.2033,-4.7544 -19.9212,0.91"
       id="path8" />
    <path
       fill="none"
       stroke="#000"
       stroke-linecap="round"
       stroke-linejoin="round"
       stroke-width="2"
       d="m 31.3506,48.3638 a 75.095,75.095 0 0 1 -0.5041,-9.564 4.6685,4.6685 0 0 0 -0.2721,-2.0361 8.1822,8.1822 0 0 0 -0.993,-1.3624 8.1053,8.1053 0 0 1 -1.164,-5.5933 53.8785,53.8785 0 0 0 0.5412,-5.44 l -0.0053,-0.2127 a 33.5233,33.5233 0 0 0 6.7115,0.652 c 8.433,0 15.2692,-2.8752 15.2692,-6.422 0,-3.5468 -6.8362,-6.4221 -15.2692,-6.4221 -8.433,0 -15.2692,2.8753 -15.2692,6.4221 0,1.9436 2.0528,3.6855 5.2964,4.8632"
       id="path10" />
  </g>
</g></svg>