<svg xmlns="http://www.w3.org/2000/svg" width="24" height="24" viewBox="0 0 24 24"> <g transform="translate(3.7206583218418032 0.0) scale(0.4059167302081387)">
  
  <g
     id="line"
     transform="translate(-20.411,-7.2316857)">
    <path
       id="Leg_Line_1"
       fill="none"
       stroke="#000"
       stroke-linecap="round"
       stroke-linejoin="round"
       stroke-width="2"
       d="m 60.2043,9.8937 c -3,7 -12.5379,11.949 -12.5,14.5 0.042,2.8237 1.2939,8.5391 1.5,11.5 0.5502,6.6553 0.5502,13.3447 0,20 -0.1448,1.9947 4.4567,6.3415 0,9 -1.6764,1 -6,-2 -14,0 -2.4988,0.4969 -5.0605,0.5949 -7.59,0.2906 -0.9843,-0.1391 -1.6695,-1.0498 -1.5304,-2.0342 0.0848,-0.6 0.4658,-1.1171 1.0138,-1.3758 2.2278,-1.0376 5.1861,-1.9593 7.1061,-2.8809 2.9511,-1.4165 4.7874,-2.833 5.8248,-4.6706 0.1194,-0.2145 0.1935,-0.4513 0.2176,-0.6956 0.8519,-8.01 -2.58,-20.217 -5.0424,-25.6338 -0.6737,-1.2244 -1.0183,-2.6026 -1,-4 0,-2 1,-3 2,-5 2.2429,-4.4858 2.8473,-7.1758 3.9283,-9.4321 C 40.4883,8.8461 41.1435,8.4652 41.8544,8.46 46.7475,8.0031 51.6805,8.2327 56.51,9.1421" />
    <path
       id="Leg_Line_2"
       fill="none"
       stroke="#000"
       stroke-linecap="round"
       stroke-linejoin="round"
       stroke-width="2"
       d="m 38.2782,26.7171 c 0.4484,-0.1672 0.8486,-0.4425 1.1652,-0.8014 1.0091,-1.1669 0.9664,-3.1874 -0.074,-5.0985" />
    <polyline
       fill="none"
       stroke="#000"
       stroke-linecap="round"
       stroke-linejoin="round"
       stroke-width="2"
       points="32.091,18.079 28.865,14.946 31.537,13.684 27.484,9.747"
       id="polyline4" />
    <polyline
       fill="none"
       stroke="#000"
       stroke-linecap="round"
       stroke-linejoin="round"
       stroke-width="2"
       points="22.854,32.557 26.735,30.285 27.238,33.198 32.114,30.343"
       id="polyline6" />
    <polyline
       fill="none"
       stroke="#000"
       stroke-linecap="round"
       stroke-linejoin="round"
       stroke-width="2"
       points="30.722,22.903 26.241,22.522 27.041,25.368 21.411,24.89"
       id="polyline8" />
  </g>
</g></svg>