<svg xmlns="http://www.w3.org/2000/svg" width="24" height="24" viewBox="0 0 24 24"> <g transform="translate(2.4210566315789475 0.0) scale(0.42105263157894735)">
  
  <g
     id="line-supplement"
     transform="translate(-16,-4)">
    <path
       fill="none"
       stroke="#000"
       stroke-linecap="round"
       stroke-linejoin="round"
       stroke-width="2"
       d="m 30.9999,15.5 1.38,14.5"
       id="path2" />
    <path
       fill="none"
       stroke="#000"
       stroke-linecap="round"
       stroke-linejoin="round"
       stroke-width="2"
       d="m 32.71,39 -0.4314,1 -1.1613,17.5"
       id="path4" />
  </g>
  <g
     id="line"
     transform="translate(-16,-4)">
    <path
       fill="none"
       stroke="#000"
       stroke-linejoin="round"
       stroke-width="2"
       d="m 26,39.5 -3,19.5 0.5,1 h 24 l 1,-1 -3,-19.5 -1,-1 H 43.5 27 Z"
       id="path7" />
    <path
       fill="#000"
       d="m 49.5,15.5 0.9685,0.249 c 0.1272,-0.4948 -0.139,-1.0059 -0.6174,-1.1853 z M 45,33 v 1 c 0.4564,0 0.8548,-0.309 0.9685,-0.751 z M 37.5,11 37.8511,10.0637 C 37.7388,10.0216 37.6199,10 37.5,10 Z M 34,11 v -1 c -0.1247,0 -0.2483,0.0233 -0.3644,0.0688 z m -11.5,4.5 v 1 c 0.1247,0 0.2483,-0.0233 0.3644,-0.0688 z m -5.5,0 v -1 c -0.5523,0 -1,0.4477 -1,1 z m 0,0.5 h -1 c 0,0.3788 0.214,0.725 0.5528,0.8944 z m 2,1 0.8503,-0.5264 c -0.0977,-0.1576 -0.2372,-0.2851 -0.4031,-0.368 z m 6.0923,9.8415 0.9749,-0.2229 C 26.0427,26.5113 26.0006,26.4087 25.9426,26.3151 Z M 26.5,33 25.5251,33.2228 C 25.6291,33.6775 26.0336,34 26.5,34 Z m 22.0315,-17.749 -4.5,17.5 1.937,0.498 4.5,-17.5 z m -11.3826,-3.3147 12,4.5 0.7022,-1.8726 -12,-4.5 z M 34,12 h 3.5 V 10 H 34 Z m -11.1356,4.4312 11.5,-4.5 -0.7288,-1.8624 -11.5,4.5 z M 17,16.5 h 5.5 v -2 H 17 Z M 18,16 V 15.5 H 16 V 16 Z m 1.4472,0.1056 -2,-1 -0.8944,1.7888 2,1 z m 6.4954,10.2095 -6.0923,-9.8415 -1.7006,1.0528 6.0924,9.8414 z m 1.5323,6.4621 -1.4077,-6.1586 -1.9497,0.4457 1.4076,6.1585 z M 45,32 H 26.5 v 2 H 45 Z"
       id="path9" />
    <path
       fill="none"
       stroke="#000"
       stroke-linecap="round"
       stroke-linejoin="round"
       stroke-width="2"
       d="m 52.5,13.5 h 4 l 4,5 -9,17 v -6 L 57,19.5 55,17 h -5.5"
       id="path11" />
    <path
       fill="none"
       stroke="#000"
       stroke-linecap="round"
       stroke-linejoin="round"
       stroke-width="2"
       d="M 41,15.5 39.6497,30"
       id="path13" />
    <path
       fill="none"
       stroke="#000"
       stroke-linecap="round"
       stroke-linejoin="round"
       stroke-width="2"
       d="m 39.2745,38.5 0.4314,1 1.1614,17.5"
       id="path15" />
    <path
       fill="none"
       stroke="#000"
       stroke-linejoin="round"
       stroke-width="2"
       d="m 33,5 h 5 l -1,6 h -3 z"
       id="path17" />
    <path
       fill="none"
       stroke="#000"
       stroke-linecap="round"
       stroke-linejoin="round"
       stroke-width="2"
       d="M 21.5,15.5 H 41"
       id="path19" />
    <path
       fill="none"
       stroke="#000"
       stroke-linecap="round"
       stroke-width="2"
       d="m 26.9888,15.5745 -1.2951,7.3566"
       id="path21" />
    <path
       fill="none"
       stroke="#000"
       stroke-linecap="round"
       stroke-width="2"
       d="m 28,33 v 3"
       id="path23" />
    <path
       fill="none"
       stroke="#000"
       stroke-linecap="round"
       stroke-width="2"
       d="m 44,33 v 5"
       id="path25" />
  </g>
</g></svg>