<svg xmlns="http://www.w3.org/2000/svg" width="24" height="24" viewBox="0 0 24 24"> <g transform="translate(0.1310013174921867 0.0) scale(0.48475827084462586)">
  
  <g
     id="line"
     transform="translate(-11.511702,-11.248507)">
    <path
       fill="none"
       stroke="#000"
       stroke-linecap="round"
       stroke-linejoin="round"
       stroke-width="2"
       d="m 57.59,18.33 a 6.431,6.431 0 0 0 -2.467,-1.533 4.371,4.371 0 0 0 -3.793,-0.2243 4.477,4.477 0 0 0 -6.104,-2.962 4.46,4.46 0 0 0 -6.223,-0.2 4.445,4.445 0 0 0 -6.532,0.5746 4.472,4.472 0 0 0 -6.716,2.333 4.434,4.434 0 0 0 -5.252,4.424 4.432,4.432 0 0 0 0.0549,0.5449 4.405,4.405 0 0 0 -3.979,5.207 4.472,4.472 0 0 0 -2.333,6.716 4.445,4.445 0 0 0 -0.5746,6.532 4.445,4.445 0 0 0 0.5746,6.532 4.487,4.487 0 0 0 1.955,6.586 6.486,6.486 0 0 0 11.07,4.98 l 30.32,-30.32 a 6.519,6.519 0 0 0 -2e-4,-9.192 z"
       id="path2" />
  </g>
</g></svg>