<svg xmlns="http://www.w3.org/2000/svg" width="24" height="24" viewBox="0 0 24 24"> <g transform="translate(0.2566754989549178 0.0) scale(0.41760502370491415)">
  
  <g
     id="line"
     transform="translate(-7.8948,-6.0662)">
    <path
       fill="none"
       stroke="#000"
       stroke-linecap="round"
       stroke-linejoin="round"
       stroke-miterlimit="10"
       stroke-width="2"
       d="m 31.1611,40.6344 c 0.9756,0.5038 1.643,1.5194 1.643,2.6874 l -2e-4,15.5047 c 0,1.2299 -0.74,2.2845 -1.8007,2.7478"
       id="path2" />
    <path
       fill="none"
       stroke="#000"
       stroke-linecap="round"
       stroke-linejoin="round"
       stroke-miterlimit="10"
       stroke-width="2"
       d="m 27.5419,39.6241 c 0,0 -6.354,1.7853 -7.0674,11.4887 -0.7134,9.7034 6.9726,11.424 6.9726,11.424 z"
       id="path4" />
    <path
       fill="none"
       stroke="#000"
       stroke-linecap="round"
       stroke-linejoin="round"
       stroke-miterlimit="10"
       stroke-width="2"
       d="m 40.8586,40.6258 c -0.8573,0.5269 -1.4336,1.4669 -1.4456,2.5423 l -0.1726,15.5037 c -0.0139,1.2475 0.7356,2.3231 1.8156,2.7878"
       id="path6" />
    <path
       fill="none"
       stroke="#000"
       stroke-linecap="round"
       stroke-linejoin="round"
       stroke-miterlimit="10"
       stroke-width="2"
       d="m 44.716,39.5293 c 0,0 6.3337,1.8559 6.939,11.5667 0.6052,9.7107 -7.0995,11.3456 -7.0995,11.3456 z"
       id="path8" />
    <path
       fill="none"
       stroke="#000"
       stroke-linecap="round"
       stroke-linejoin="round"
       stroke-miterlimit="10"
       stroke-width="2"
       d="m 58.0474,53.8081 c 3.209,-5.0583 5.0887,-11.1701 5.0887,-18.1887 0,-15.7593 -11.3519,-28.5359 -27.1053,-28.5525 v -7e-4 c -0.0053,0 -0.0102,2e-4 -0.0154,2e-4 -0.0051,0 -0.0102,-2e-4 -0.0153,-2e-4 v 7e-4 C 20.2467,7.0835 8.8948,19.8601 8.8948,35.6194 c 0,7.0186 1.8794,13.1304 5.0884,18.1887"
       id="path10" />
    <path
       fill="none"
       stroke="#000"
       stroke-linecap="round"
       stroke-linejoin="round"
       stroke-miterlimit="10"
       stroke-width="2"
       d="M 50.2136,20.1939 C 47.0814,15.7503 42.0471,12.8818 36.0254,12.8755 v -5e-4 c -0.0034,0 -0.0066,10e-5 -0.01,10e-5 -0.0033,0 -0.0066,-10e-5 -0.0099,-10e-5 v 5e-4 c -5.9961,0.0063 -11.0132,2.8504 -14.1482,7.2618"
       id="path12" />
  </g>
</g></svg>