<svg xmlns="http://www.w3.org/2000/svg" width="24" height="24" viewBox="0 0 24 24"> <g transform="translate(0.0 5.235582637838049) scale(0.3889787096555132)">
  
  <g
     id="line"
     transform="translate(-5.5543656,-21.3051)">
    <path
       fill="none"
       stroke="#000"
       stroke-linecap="round"
       stroke-linejoin="round"
       stroke-miterlimit="10"
       stroke-width="2"
       d="m 24.4626,26.6384 c -0.856,2.25 -1.8321,3.2941 -2.6133,4.0861 -0.5593,0.567 -1.4467,0.6356 -2.0742,0.1451 l -1.1842,-0.9257 -3.4235,5.054 c -0.4522,0.6675 -1.2059,1.0673 -2.0121,1.0673 v 0 c 0,0 -2.6719,3.2711 -3.6021,6.8056 -0.2609,0.9913 -0.8825,1.8494 -1.7039,2.4625 L 7.468,45.618 c 0,0 -2.3508,1.9617 0.455,2.8147 0,0 9.623,3.0391 14.9564,-1.2109"
       id="path2" />
    <path
       fill="none"
       stroke="#000"
       stroke-linecap="round"
       stroke-linejoin="round"
       stroke-miterlimit="10"
       stroke-width="2"
       d="m 41.3785,22.3051 c 0,0 -1.8239,1.2266 -3.1987,1.4888 -0.591,0.1127 -1.1626,0.2298 -1.7154,0.3508 l -3.1685,-0.6729 c -1.5711,1.7948 -3.7536,2.6499 -5.291,3.3242"
       id="path4" />
    <path
       fill="none"
       stroke="#000"
       stroke-linecap="round"
       stroke-linejoin="round"
       stroke-miterlimit="10"
       stroke-width="2"
       d="m 59.9626,28.8051 c -1.9853,0 -2.5489,-0.1535 -3.6695,-1.0568 -0.8687,-0.7003 -1.6041,-1.5463 -2.172,-2.5068 l -0.4085,-0.6909 c -2.6409,0 -5.4664,-0.3191 -8.0477,-0.7441"
       id="path6" />
    <path
       fill="none"
       stroke="#000"
       stroke-linecap="round"
       stroke-linejoin="round"
       stroke-miterlimit="10"
       stroke-width="2"
       d="M 66.2544,38.5007 C 63.158,37.346 62.7203,34.0848 61.6963,32.7648"
       id="path8" />
    <path
       fill="none"
       stroke="#000"
       stroke-linecap="round"
       stroke-linejoin="round"
       stroke-miterlimit="10"
       stroke-width="2"
       d="m 20.8181,51.7455 -0.2275,0.4726 c -0.639,1.3278 0.3286,2.8673 1.8022,2.8673 h 1.6275 c 0.7345,0 1.41,-0.4027 1.7593,-1.0488 l 2.8454,-5.2629 c 0,0 3.5011,1.4508 4.7542,5.0364 0.2731,0.7814 1.0483,1.2753 1.876,1.2753 h 2.0227 c 1.1869,0 2.121,-1.028 1.9899,-2.2077 -0.1031,-0.9279 -0.2908,-1.8895 -0.633,-2.3128 0,0 15.1566,0.4371 20.0075,-0.6121 1.0237,-0.2214 2.0438,0.3984 2.2698,1.4212 0.1096,0.4959 0.1747,1.0522 0.1418,1.6371 -0.0641,1.1392 0.8536,2.0744 1.9946,2.0744 h 0.3886 c 1.1246,0 2.0006,-0.7999 2.0742,-1.842 0.1232,-1.7442 -0.0146,-4.3923 -1.5486,-6.4315 0,0 1.1334,-0.9919 1.1126,-4.0873"
       id="path10" />
    <path
       fill="none"
       stroke="#000"
       stroke-linecap="round"
       stroke-linejoin="round"
       stroke-miterlimit="10"
       stroke-width="2"
       d="m 19.2107,37.2177 c 0,0 2.1233,-3.3264 4.0191,-0.3412 1.2792,2.0143 -0.3073,5.0412 -1.4745,6.797 -0.5543,0.8338 -1.618,1.1557 -2.5445,0.7763 v 0"
       id="path12" />
    <line
       x1="27.4209"
       x2="32.420898"
       y1="34.596802"
       y2="30.4718"
       fill="none"
       stroke="#000"
       stroke-linecap="round"
       stroke-linejoin="round"
       stroke-miterlimit="10"
       stroke-width="2"
       id="line14" />
    <line
       x1="31.5459"
       x2="37.545898"
       y1="40.120201"
       y2="38.061798"
       fill="none"
       stroke="#000"
       stroke-linecap="round"
       stroke-linejoin="round"
       stroke-miterlimit="10"
       stroke-width="2"
       id="line16" />
    <line
       x1="36.920898"
       x2="42.968102"
       y1="32.764801"
       y2="29.9718"
       fill="none"
       stroke="#000"
       stroke-linecap="round"
       stroke-linejoin="round"
       stroke-miterlimit="10"
       stroke-width="2"
       id="line18" />
    <line
       x1="39.9445"
       x2="46.795898"
       y1="43.471802"
       y2="42.724701"
       fill="none"
       stroke="#000"
       stroke-linecap="round"
       stroke-linejoin="round"
       stroke-miterlimit="10"
       stroke-width="2"
       id="line20" />
    <line
       x1="48.795898"
       x2="55.670898"
       y1="36.632702"
       y2="37.865501"
       fill="none"
       stroke="#000"
       stroke-linecap="round"
       stroke-linejoin="round"
       stroke-miterlimit="10"
       stroke-width="2"
       id="line22" />
    <line
       x1="46.944401"
       x2="52.397499"
       y1="32.490101"
       y2="29.987301"
       fill="none"
       stroke="#000"
       stroke-linecap="round"
       stroke-linejoin="round"
       stroke-miterlimit="10"
       stroke-width="2"
       id="line24" />
    <line
       x1="53.040401"
       x2="59.301498"
       y1="43.768902"
       y2="45.4464"
       fill="none"
       stroke="#000"
       stroke-linecap="round"
       stroke-linejoin="round"
       stroke-miterlimit="10"
       stroke-width="2"
       id="line26" />
  </g>
</g></svg>