<svg xmlns="http://www.w3.org/2000/svg" width="24" height="24" viewBox="0 0 24 24"> <g transform="scale(0.5)">
  
  <g
     id="line"
     transform="translate(-12,-12)">
    <circle
       cx="36"
       cy="36"
       r="23"
       fill="none"
       stroke="#000"
       stroke-miterlimit="10"
       stroke-width="2"
       id="circle2" />
    <path
       fill="none"
       stroke="#000"
       stroke-linecap="round"
       stroke-linejoin="round"
       stroke-miterlimit="10"
       stroke-width="2"
       d="m 26.5,48 c 1.8768,-3.8326 5.8239,-6.1965 10,-6 3.8343,0.1804 7.2926,2.4926 9,6"
       id="path4" />
    <path
       fill="none"
       stroke="#000"
       stroke-miterlimit="10"
       stroke-width="2"
       d="m 20.3869,41.6299 c -0.5326,-0.5326 -0.8258,-1.2405 -0.8256,-1.9936 0,-2.4789 2.3433,-4.8508 2.443,-4.9505 0.2074,-0.2074 0.5431,-0.2072 0.7503,0 0.0998,0.0998 2.4432,2.4718 2.4437,4.9512 l 2e-4,2e-4 c -7e-4,1.5535 -1.2653,2.8177 -2.8189,2.8175 -0.7523,9e-4 -1.4601,-0.2923 -1.9927,-0.8248 z"
       id="path6" />
    <path
       d="m 30,31 c 0,1.6568 -1.3448,3 -3,3 -1.6553,0 -3,-1.3433 -3,-3 0,-1.6552 1.3447,-3 3,-3 1.6552,0 3,1.3448 3,3"
       id="path8" />
    <path
       d="m 48,31 c 0,1.6568 -1.3447,3 -3,3 -1.6553,0 -3,-1.3433 -3,-3 0,-1.6552 1.3447,-3 3,-3 1.6553,0 3,1.3448 3,3"
       id="path10" />
  </g>
</g></svg>