<svg xmlns="http://www.w3.org/2000/svg" width="24" height="24" viewBox="0 0 24 24"> <g transform="translate(0.0 0.8563889923969192) scale(0.47564588053210344)">
  
  <g
     id="line"
     transform="translate(-10.771007,-12.57921)">
    <g
       id="_2692-2">
      <polyline
         fill="none"
         stroke="#000"
         stroke-linecap="round"
         stroke-linejoin="round"
         stroke-width="2"
         points="37.893 41.736 40.302 43.594 47.787 55.511 46.88 56.089 44.159 57.822 43.252 58.4 37.507 49.384 35.958 46.952"
         id="polyline2" />
      <polyline
         fill="none"
         stroke="#000"
         stroke-linecap="round"
         stroke-linejoin="round"
         stroke-width="2"
         points="33.934 41.754 32.335 39.214 24.391 26.476 27.112 24.743 34.258 36.212 35.908 38.834"
         id="polyline4" />
      <path
         fill="none"
         stroke="#000"
         stroke-linecap="round"
         stroke-linejoin="round"
         stroke-width="2"
         d="M 37.5652,14.9432 A 13.4631,13.4631 0 0 0 25.6038,15.0179 50.0827,50.0827 0 0 0 16.0515,21.21 l 1.3323,2.0913 -1.8766,1.1373 -0.9392,-1.4742 a 2.3813,2.3813 0 0 0 -2.797,1.7819 l 3.8527,6.0475 a 2.8253,2.8253 0 0 0 2.797,-1.7818 l -0.9875,-1.55 1.8668,-1.1527 1.5189,2.3842 9.6011,-6.1161 -2.7451,-4.3089 c 0,0 6.4251,-4.0935 9.8903,-3.3253 z"
         id="path6" />
      <path
         fill="none"
         stroke="#000"
         stroke-linecap="round"
         stroke-linejoin="round"
         stroke-width="2"
         d="M 45.4575,14.6959 40.69,22.18 l 9.6,6.1162 c 0,0 6.4676,1.63 9.9388,2.3534 l -5.1229,-9.9128 z"
         id="path8" />
      <polyline
         fill="none"
         stroke="#000"
         stroke-linecap="round"
         stroke-linejoin="round"
         stroke-width="2"
         points="35.908 38.834 44.801 24.743 47.522 26.476 36.926 43.268 36.175 46.616 28.538 58.436 27.631 57.858 24.91 56.124 24.003 55.547 31.564 43.678 34.204 41.535 35.908 38.834"
         id="polyline10" />
    </g>
  </g>
</g></svg>