<svg xmlns="http://www.w3.org/2000/svg" width="24" height="24" viewBox="0 0 24 24"> <g transform="translate(0.7514024847114804 0.0) scale(0.4786637240548306)">
  
  <g
     id="line"
     transform="translate(-14,-10.930208)">
    <path
       fill="#000"
       d="m 34,16.1628 h 1 c 0,-0.2933 -0.1287,-0.5718 -0.3522,-0.7618 -0.2234,-0.19 -0.519,-0.2723 -0.8085,-0.2252 z m -19,3.093 -0.1607,-0.987 C 14.3554,18.3476 14,18.7655 14,19.2558 Z M 15,34 h -1 c 0,0.5523 0.4477,1 1,1 z m 19,0 v 1 c 0.5523,0 1,-0.4477 1,-1 z m -19,4 v -1 c -0.5523,0 -1,0.4477 -1,1 z m 0,14.7442 h -1 c 0,0.4902 0.3554,0.9082 0.8393,0.987 z m 19,3.093 -0.1607,0.987 C 34.1288,56.8713 34.4244,56.789 34.6478,56.599 34.8713,56.409 35,56.1305 35,55.8372 Z M 34,38 h 1 c 0,-0.5523 -0.4477,-1 -1,-1 z m 4,18.4884 h -1 c 0,0.4902 0.3554,0.9082 0.8393,0.987 z m 22,3.5814 -0.1607,0.987 c 0.2895,0.0471 0.5851,-0.0352 0.8085,-0.2252 C 60.8712,60.6416 61,60.3631 61,60.0698 Z M 60,38 h 1 c 0,-0.5523 -0.4477,-1 -1,-1 z m -22,0 v -1 c -0.5523,0 -1,0.4477 -1,1 z m 22,-4 v 1 c 0.5523,0 1,-0.4477 1,-1 z m -22,0 h -1 c 0,0.5523 0.4477,1 1,1 z m 0,-18.4884 -0.1607,-0.987 C 37.3554,14.6034 37,15.0214 37,15.5116 Z m 22,-3.5814 h 1 c 0,-0.2933 -0.1288,-0.5718 -0.3522,-0.7618 -0.2234,-0.19 -0.519,-0.2723 -0.8085,-0.2252 z m -26.1607,3.2456 -19,3.093 0.3214,1.974 19,-3.093 z M 14,19.2558 V 34 h 2 V 19.2558 Z M 34,33 H 15 v 2 H 34 Z M 33,16.1628 V 34 h 2 V 16.1628 Z M 14,38 v 14.7442 h 2 V 38 Z m 0.8393,15.7312 19,3.093 0.3214,-1.974 -19,-3.093 z M 33,38 v 17.8372 h 2 V 38 Z M 15,39 H 34 V 37 H 15 Z m 22.8393,18.4754 22,3.5814 0.3214,-1.974 -22,-3.5814 z M 61,60.0698 V 38 H 59 V 60.0698 Z M 38,39 H 60 V 37 H 38 Z m 1,17.4884 V 38 H 37 V 56.4884 Z M 60,33 H 38 v 2 H 60 Z M 39,34 V 15.5116 H 37 V 34 Z m 20.8393,-23.0568 -22,3.5814 0.3214,1.974 22,-3.5814 z M 61,34 V 11.9302 H 59 V 34 Z"
       id="path2" />
  </g>
</g></svg>