<svg xmlns="http://www.w3.org/2000/svg" width="24" height="24" viewBox="0 0 24 24"> <g transform="translate(2.4941236363636357 0.0) scale(0.43636363636363634)">
  
  <g
     id="line"
     transform="translate(-14.1583,-9)">
    <path
       fill="none"
       stroke="#000"
       stroke-linecap="round"
       stroke-linejoin="round"
       stroke-miterlimit="10"
       stroke-width="2"
       d="m 30.7465,53.6689 c 0.4295,0.4051 2.3337,2.11 5.1016,1.9273 2.2456,-0.1483 3.7515,-1.4526 4.2513,-1.9273"
       id="path2" />
    <path
       fill="none"
       stroke="#000"
       stroke-miterlimit="10"
       stroke-width="2"
       d="m 22.5696,42.348 c 1.9926,3.7 5.3442,5.7121 7.4861,4.4943 2.1418,-1.2178 2.2628,-5.2045 0.2702,-8.9045 -1.9926,-3.7 -5.3442,-5.7121 -7.4861,-4.4943 -2.1419,1.2178 -2.2628,5.2046 -0.2702,8.9045 z"
       id="path4" />
    <path
       fill="none"
       stroke="#000"
       stroke-linecap="round"
       stroke-linejoin="round"
       stroke-miterlimit="10"
       stroke-width="2"
       d="m 35.9426,63 c -10,0 -13.5098,-11.7778 -13.5098,-11.7778 0,0 -7.2745,-5.8889 -7.2745,-18.8444 C 15.1583,17.417 25.5504,10 35.9426,10 c 10.3922,0 20.7843,7.417 20.7843,22.3778 0,12.9556 -7.0698,18.3804 -7.2745,18.8444 C 45.2955,60.6444 40.3213,63 35.9426,63 Z"
       id="path6" />
    <path
       fill="none"
       stroke="#000"
       stroke-miterlimit="10"
       stroke-width="2"
       d="m 49.0317,42.348 c -1.9926,3.7 -5.3442,5.7121 -7.4861,4.4943 -2.1418,-1.2178 -2.2628,-5.2045 -0.2702,-8.9045 1.9926,-3.7 5.3442,-5.7121 7.4861,-4.4943 2.1418,1.2179 2.2628,5.2046 0.2702,8.9045 z"
       id="path8" />
  </g>
</g></svg>