<svg xmlns="http://www.w3.org/2000/svg" width="24" height="24" viewBox="0 0 24 24"> <g transform="scale(0.48)">
  
  <g
     id="line"
     transform="translate(-11,-11)">
    <path
       fill="none"
       stroke="#000"
       stroke-linejoin="round"
       stroke-miterlimit="10"
       stroke-width="2"
       d="M 59.0349,60 H 12.9651 C 12.4343,60 12,59.5657 12,59.0349 V 12.9651 C 12,12.4343 12.4343,12 12.9651,12 H 59.0349 C 59.5657,12 60,12.4343 60,12.9651 V 59.0349 C 60,59.5657 59.5657,60 59.0349,60 Z"
       id="path2" />
    <path
       fill="none"
       stroke="#000"
       stroke-linecap="round"
       stroke-linejoin="round"
       stroke-miterlimit="10"
       stroke-width="2"
       d="m 44.168,33.2439 c -0.2926,-1.1381 -1.5573,-1.9943 -3.0731,-1.9943 v 0 c -1.7325,0 -3.1369,1.1182 -3.1369,2.4977 0,1.3795 1.4044,2.4977 3.1369,2.4977 l -0.0638,0.0093 c 1.7325,0 3.1369,1.1182 3.1369,2.4977 0,1.3795 -1.4044,2.4977 -3.1369,2.4977 v 0 c -1.5159,0 -2.7806,-0.8561 -3.0731,-1.9943"
       id="path4" />
    <polyline
       fill="none"
       stroke="#000"
       stroke-linecap="round"
       stroke-linejoin="round"
       stroke-miterlimit="10"
       stroke-width="2"
       points="35.2324,31.2589 32.3779,41.2496 29.5234,31.2589"
       id="polyline6" />
  </g>
</g></svg>