<svg xmlns="http://www.w3.org/2000/svg" width="24" height="24" viewBox="0 0 24 24"> <g transform="translate(0.0 0.7259272253126099) scale(0.3752239618022007)">
  
  <g
     id="line"
     transform="translate(-4.0191002,-7.9351)">
    <polygon
       fill="none"
       stroke="#000"
       stroke-linecap="round"
       stroke-linejoin="round"
       stroke-width="2"
       points="43.519,48.724 28.385,48.724 27.44,43.224 44.56,43.224 "
       id="polygon2" />
    <rect
       x="5.0191002"
       y="62.527599"
       width="61.9618"
       height="4.5"
       fill="none"
       stroke="#000"
       stroke-linecap="round"
       stroke-linejoin="round"
       stroke-width="2"
       id="rect4" />
    <path
       fill="none"
       stroke="#000"
       stroke-miterlimit="10"
       stroke-width="2"
       d="m 29.7858,62.0276 c 0,-5.314 2.8457,-9.6218 6.3561,-9.6218 3.5104,0 6.356,4.3078 6.356,9.6218"
       id="path6" />
    <path
       fill="none"
       stroke="#000"
       stroke-linecap="round"
       stroke-linejoin="round"
       stroke-width="2"
       d="m 42.8775,49.5279 a 17.0418,17.0418 0 0 0 3.03,5.8265 25.0285,25.0285 0 0 0 8.3533,6.6732"
       id="path8" />
    <path
       fill="none"
       stroke="#000"
       stroke-linecap="round"
       stroke-linejoin="round"
       stroke-width="2"
       d="m 28.832,49.353 a 17.8744,17.8744 0 0 1 -3.3641,7.0014 18.5363,18.5363 0 0 1 -7.6913,5.5376"
       id="path10" />
    <path
       fill="none"
       stroke="#000"
       stroke-linecap="round"
       stroke-linejoin="round"
       stroke-width="2"
       d="m 31.14,42.594 a 156.7777,156.7777 0 0 0 4.4836,-25.8015 q 0.3567,-4.0348 0.4949,-7.8574"
       id="path12" />
    <path
       fill="none"
       stroke="#000"
       stroke-linecap="round"
       stroke-linejoin="round"
       stroke-width="2"
       d="M 41.0282,42.594 A 156.7675,156.7675 0 0 1 36.5447,16.7925 Q 36.188,12.7577 36.0498,8.9351"
       id="path14" />
  </g>
</g></svg>