<svg xmlns="http://www.w3.org/2000/svg" width="24" height="24" viewBox="0 0 24 24"> <g transform="translate(0.0 3.427624972602745) scale(0.3988076316493072)">
  
  <g
     id="line"
     transform="translate(-5.910305,-14.504988)">
    <path
       fill="none"
       stroke="#000"
       stroke-miterlimit="10"
       stroke-width="2"
       d="M 63.873874,21.905712 C 63.204809,19.386148 61.233657,17.402098 58.73029,16.728737 54.19329,15.504988 36,15.504988 36,15.504988 c 0,0 -18.193191,0 -22.730324,1.223749 -2.503136,0.673361 -4.474637,2.657411 -5.143644,5.176975 -1.215727,4.566519 -1.215727,14.094287 -1.215727,14.094287 0,0 0,9.527636 1.215727,14.094587 0.669007,2.519265 2.640508,4.503295 5.143644,5.17695 C 17.806809,56.495012 36,56.495012 36,56.495012 c 0,0 18.19329,0 22.73029,-1.223476 2.503367,-0.673655 4.474519,-2.657685 5.143584,-5.17695 1.215821,-4.566951 1.215821,-14.094587 1.215821,-14.094587 0,0 0,-9.527768 -1.215821,-14.094287"
       id="path2" />
    <path
       fill="none"
       stroke="#000"
       stroke-linecap="round"
       stroke-linejoin="round"
       stroke-miterlimit="10"
       stroke-width="2"
       d="M 30.049835,44.650447 45.255811,36.000396 30.049835,27.349517 Z"
       id="path4" />
  </g>
</g></svg>