<svg xmlns="http://www.w3.org/2000/svg" width="24" height="24" viewBox="0 0 24 24"> <g transform="translate(0.0 1.6672723636363624) scale(0.36363636363636365)">
  
  <g
     id="line"
     transform="translate(-3,-2.9998)">
    <line
       x1="36"
       x2="36"
       y1="26.4063"
       y2="12.875"
       fill="none"
       stroke="#000"
       stroke-linecap="round"
       stroke-linejoin="round"
       stroke-miterlimit="10"
       stroke-width="2"
       id="line2" />
    <path
       fill="none"
       stroke="#000"
       stroke-linecap="round"
       stroke-linejoin="round"
       stroke-miterlimit="10"
       stroke-width="2"
       d="m 51.62,33.1998 c 0,-1.14 1.06,-2.07 2.35,-2.07 H 61 v -1.21 c 0,-1.29 -1.05,-2.34 -2.34,-2.34 H 13.34 c -1.29,0 -2.34,1.05 -2.34,2.34 v 1.21 h 7.03 c 1.29,0 2.35,0.93 2.35,2.07 v 13.14 c 0,1.14 -1.06,2.08 -2.35,2.08 H 11 v 3.33 h 50 v -3.33 h -7.03 c -1.29,0 -2.35,-0.94 -2.35,-2.08 z m -17.96,11.26 c 0,1.23 -1.05,2.23 -2.35,2.23 h -4.69 c -1.29,0 -2.34,-1 -2.34,-2.23 v -11.11 c 0,-1.23 1.05,-2.22 2.34,-2.22 h 4.69 c 1.3,0 2.35,0.99 2.35,2.22 z m 14.06,0 c 0,1.23 -1.05,2.23 -2.34,2.23 h -4.69 c -1.3,0 -2.35,-1 -2.35,-2.23 v -11.11 c 0,-1.23 1.05,-2.22 2.35,-2.22 h 4.69 c 1.29,0 2.34,0.99 2.34,2.22 z"
       id="path4" />
    <path
       fill="none"
       stroke="#000"
       stroke-linecap="round"
       stroke-linejoin="round"
       stroke-miterlimit="10"
       stroke-width="2"
       d="m 40.69,27.0298 v 0.55 h -9.38 v -0.55 c 0,-0.34 0.35,-0.62 0.78,-0.62 h 7.82 c 0.43,0 0.78,0.28 0.78,0.62 z"
       id="path6" />
    <path
       fill="none"
       stroke="#000"
       stroke-linecap="round"
       stroke-linejoin="round"
       stroke-miterlimit="10"
       stroke-width="2"
       d="M 18.03,48.4197 H 11 v -17.29 h 7.03 c 1.29,0 2.35,0.93 2.35,2.07 v 13.14 c 0,1.14 -1.06,2.08 -2.35,2.08 z"
       id="path8" />
    <path
       fill="none"
       stroke="#000"
       stroke-linecap="round"
       stroke-linejoin="round"
       stroke-miterlimit="10"
       stroke-width="2"
       d="m 24.28,44.4598 v -11.11 c 0,-1.23 1.05,-2.22 2.34,-2.22 h 4.69 c 1.3,0 2.35,0.99 2.35,2.22 v 11.11 c 0,1.23 -1.05,2.23 -2.35,2.23 h -4.69 c -1.29,0 -2.34,-1 -2.34,-2.23 z"
       id="path10" />
    <path
       fill="none"
       stroke="#000"
       stroke-linecap="round"
       stroke-linejoin="round"
       stroke-miterlimit="10"
       stroke-width="2"
       d="m 38.34,44.4598 v -11.11 c 0,-1.23 1.05,-2.22 2.35,-2.22 h 4.69 c 1.29,0 2.34,0.99 2.34,2.22 v 11.11 c 0,1.23 -1.05,2.23 -2.34,2.23 h -4.69 c -1.3,0 -2.35,-1 -2.35,-2.23 z"
       id="path12" />
    <path
       fill="none"
       stroke="#000"
       stroke-linecap="round"
       stroke-linejoin="round"
       stroke-miterlimit="10"
       stroke-width="2"
       d="m 61,31.1298 v 17.29 h -7.03 c -1.29,0 -2.35,-0.94 -2.35,-2.08 v -13.14 c 0,-1.14 1.06,-2.07 2.35,-2.07 z"
       id="path14" />
    <path
       fill="none"
       stroke="#000"
       stroke-linecap="round"
       stroke-linejoin="round"
       stroke-miterlimit="10"
       stroke-width="2"
       d="m 11,51.7498 h 50 v 4.73 c 0,1.29 -1.05,2.35 -2.34,2.35 H 13.34 c -1.29,0 -2.34,-1.06 -2.34,-2.35 z"
       id="path16" />
    <path
       fill="none"
       stroke="#000"
       stroke-linecap="round"
       stroke-linejoin="round"
       stroke-miterlimit="10"
       stroke-width="2"
       d="m 20.38,33.1998 v 6.57 H 11 v -8.64 h 7.03 c 1.29,0 2.35,0.93 2.35,2.07 z"
       id="path18" />
    <path
       fill="none"
       stroke="#000"
       stroke-linecap="round"
       stroke-linejoin="round"
       stroke-miterlimit="10"
       stroke-width="2"
       d="m 20.38,39.7698 v 6.57 c 0,1.14 -1.06,2.08 -2.35,2.08 H 11 v -8.65 z"
       id="path20" />
    <path
       fill="none"
       stroke="#000"
       stroke-linecap="round"
       stroke-linejoin="round"
       stroke-miterlimit="10"
       stroke-width="2"
       d="m 61,39.7698 v 8.65 h -7.03 c -1.29,0 -2.35,-0.94 -2.35,-2.08 v -6.57 z"
       id="path22" />
    <path
       fill="none"
       stroke="#000"
       stroke-linecap="round"
       stroke-linejoin="round"
       stroke-miterlimit="10"
       stroke-width="2"
       d="m 61,31.1298 v 8.64 h -9.38 v -6.57 c 0,-1.14 1.06,-2.07 2.35,-2.07 z"
       id="path24" />
    <rect
       x="11"
       y="51.749802"
       width="50"
       height="3.8699999"
       fill="none"
       stroke="#000"
       stroke-linecap="round"
       stroke-linejoin="round"
       stroke-miterlimit="10"
       stroke-width="2"
       id="rect26" />
    <path
       fill="none"
       stroke="#000"
       stroke-linecap="round"
       stroke-linejoin="round"
       stroke-miterlimit="10"
       stroke-width="2"
       d="m 33.66,38.9098 v 5.55 c 0,1.23 -1.05,2.23 -2.35,2.23 h -4.69 c -1.29,0 -2.34,-1 -2.34,-2.23 v -5.55 z"
       id="path28" />
    <path
       fill="none"
       stroke="#000"
       stroke-linecap="round"
       stroke-linejoin="round"
       stroke-miterlimit="10"
       stroke-width="2"
       d="m 33.66,33.3498 v 5.56 h -9.38 v -5.56 c 0,-1.23 1.05,-2.22 2.34,-2.22 h 4.69 c 1.3,0 2.35,0.99 2.35,2.22 z"
       id="path30" />
    <path
       fill="none"
       stroke="#000"
       stroke-linecap="round"
       stroke-linejoin="round"
       stroke-miterlimit="10"
       stroke-width="2"
       d="m 33.66,33.3498 v 5.56 h -9.38 v -5.56 c 0,-1.23 1.05,-2.22 2.34,-2.22 h 4.69 c 1.3,0 2.35,0.99 2.35,2.22 z"
       id="path32" />
    <path
       fill="none"
       stroke="#000"
       stroke-linecap="round"
       stroke-linejoin="round"
       stroke-miterlimit="10"
       stroke-width="2"
       d="m 47.72,33.3498 v 5.56 h -9.38 v -5.56 c 0,-1.23 1.05,-2.22 2.35,-2.22 h 4.69 c 1.29,0 2.34,0.99 2.34,2.22 z"
       id="path34" />
    <path
       fill="none"
       stroke="#000"
       stroke-linecap="round"
       stroke-linejoin="round"
       stroke-miterlimit="10"
       stroke-width="2"
       d="m 47.72,38.9098 v 5.55 c 0,1.23 -1.05,2.23 -2.34,2.23 h -4.69 c -1.3,0 -2.35,-1 -2.35,-2.23 v -5.55 z"
       id="path36" />
    <path
       fill="none"
       stroke="#000"
       stroke-linecap="round"
       stroke-linejoin="round"
       stroke-miterlimit="10"
       stroke-width="2"
       d="m 40.72,13.6298 c 0,0.04 0,0.08 -0.0099,0.12 -0.06,1.05 -0.93,1.88 -1.9901,1.88 -1.11,0 -2,-0.9 -2,-2 0,-0.32 0.07,-0.62 0.21,-0.88 0.31,-0.66 1,-1.12 1.79,-1.12 1.1,0 2,0.89 2,2 z"
       id="path38" />
    <line
       x1="36.93"
       x2="35.880001"
       y1="12.7498"
       y2="12.4698"
       fill="none"
       stroke="#000"
       stroke-linecap="round"
       stroke-linejoin="round"
       stroke-miterlimit="10"
       stroke-width="2"
       id="line40" />
    <line
       x1="68"
       x2="40.709999"
       y1="20.9998"
       y2="13.7498"
       fill="none"
       stroke="#000"
       stroke-linecap="round"
       stroke-linejoin="round"
       stroke-miterlimit="10"
       stroke-width="2"
       id="line42" />
    <line
       x1="32.02"
       x2="4"
       y1="11.4398"
       y2="3.9998"
       fill="none"
       stroke="#000"
       stroke-linecap="round"
       stroke-linejoin="round"
       stroke-miterlimit="10"
       stroke-width="2"
       id="line44" />
    <path
       fill="none"
       stroke="#000"
       stroke-miterlimit="10"
       stroke-width="2"
       d="m 35.95,11.9598 c 0,0.18 -0.02,0.35 -0.07,0.51 -0.22,0.86 -1,1.49 -1.93,1.49 -1.1,0 -2,-0.9 -2,-2 0,-0.18 0.02,-0.36 0.07,-0.52 0.23,-0.86 1.01,-1.48 1.93,-1.48 1.11,0 2,0.89 2,2 z"
       id="path46" />
  </g>
</g></svg>