<svg xmlns="http://www.w3.org/2000/svg" width="24" height="24" viewBox="0 0 24 24"> <g transform="scale(0.46153846153846156)">
  
  <g
     id="line-supplement"
     transform="translate(-10,-10)">
    <path
       fill="none"
       stroke="#000"
       stroke-linecap="round"
       stroke-linejoin="round"
       stroke-miterlimit="10"
       stroke-width="2"
       d="m 50.0852,41.7317 c -0.8686,0.7704 -2.0115,1.2382 -3.2639,1.2382 v 0 c -2.7175,0 -4.9206,-2.203 -4.9206,-4.9206 v -3.9364 3.9364 -3.9364 c 0,-2.7176 2.2031,-4.9206 4.9206,-4.9206 v 0 c 1.2524,0 2.3953,0.4679 3.2639,1.2384"
       id="path2" />
    <polyline
       fill="none"
       stroke="#000"
       stroke-linecap="round"
       stroke-linejoin="round"
       stroke-miterlimit="10"
       stroke-width="2"
       points="37.6606,29.1923 33.7242,42.9699 29.7877,29.1923 25.8512,42.9699 21.9148,29.1923"
       id="polyline4" />
  </g>
  <g
     id="line"
     transform="translate(-10,-10)">
    <path
       fill="none"
       stroke="#000"
       stroke-linecap="round"
       stroke-linejoin="round"
       stroke-miterlimit="10"
       stroke-width="2"
       d="M 60,61 H 12 c -0.5523,0 -1,-0.4477 -1,-1 V 12 c 0,-0.5523 0.4477,-1 1,-1 h 48 c 0.5523,0 1,0.4477 1,1 v 48 c 0,0.5523 -0.4477,1 -1,1 z"
       id="path7" />
  </g>
</g></svg>