<svg xmlns="http://www.w3.org/2000/svg" width="24" height="24" viewBox="0 0 24 24"> <g transform="translate(6.925956646445435 0.0) scale(0.39633066501511277)">
  
  <g
     id="line"
     transform="translate(-23.2585,-5.6763)">
    <path
       fill="none"
       stroke="#000"
       stroke-linecap="round"
       stroke-linejoin="round"
       stroke-miterlimit="10"
       stroke-width="2"
       d="m 38.8294,54.5013 h -5.5367 c -4.9688,0 -9.0342,-4.0654 -9.0342,-9.0342 V 26.38 c 0,-4.9688 4.0654,-9.0342 9.0342,-9.0342 h 5.5367 c 4.9688,0 9.0342,4.0654 9.0342,9.0342 v 19.0871 c 0,4.9688 -4.0654,9.0342 -9.0342,9.0342 z"
       id="path2" />
    <path
       fill="none"
       stroke="#000"
       stroke-linecap="round"
       stroke-linejoin="round"
       stroke-miterlimit="10"
       stroke-width="2"
       d="m 36.1449,32.1553 h -0.1677 c -1.1161,0 -2.0294,-0.9132 -2.0294,-2.0294 v -6.0465 c 0,-1.1161 0.9132,-2.0294 2.0294,-2.0294 h 0.1677 c 1.1161,0 2.0294,0.9132 2.0294,2.0294 v 6.0465 c 0,1.1162 -0.9132,2.0294 -2.0294,2.0294 z"
       id="path4" />
    <line
       x1="41.3312"
       x2="36.115501"
       y1="60.016102"
       y2="65.231796"
       fill="none"
       stroke="#000"
       stroke-linecap="round"
       stroke-linejoin="round"
       stroke-miterlimit="10"
       stroke-width="2"
       id="line6" />
    <line
       x1="30.857401"
       x2="36.073002"
       y1="60.016102"
       y2="65.231796"
       fill="none"
       stroke="#000"
       stroke-linecap="round"
       stroke-linejoin="round"
       stroke-miterlimit="10"
       stroke-width="2"
       id="line8" />
    <line
       x1="30.857401"
       x2="36.073002"
       y1="11.892"
       y2="6.6763"
       fill="none"
       stroke="#000"
       stroke-linecap="round"
       stroke-linejoin="round"
       stroke-miterlimit="10"
       stroke-width="2"
       id="line10" />
    <line
       x1="41.3312"
       x2="36.115501"
       y1="11.892"
       y2="6.6763"
       fill="none"
       stroke="#000"
       stroke-linecap="round"
       stroke-linejoin="round"
       stroke-miterlimit="10"
       stroke-width="2"
       id="line12" />
  </g>
</g></svg>