<svg xmlns="http://www.w3.org/2000/svg" width="24" height="24" viewBox="0 0 24 24"> <g transform="translate(0.35803621698044097 0.0) scale(0.39716754668514204)">
  
  <g
     id="line"
     transform="translate(-6.6875242,-6)">
    <g
       id="g12">
      <path
         fill="none"
         stroke="#000"
         stroke-linecap="round"
         stroke-linejoin="round"
         stroke-width="2"
         d="m 57.8085,36.4045 a 6.5742,6.5742 0 0 1 5.2295,2.4493 7.2824,7.2824 0 0 1 1.2049,2.853 7.9835,7.9835 0 0 1 -0.2836,3.4 6.8735,6.8735 0 0 1 -4.4379,4.5085 6.1343,6.1343 0 0 1 -2.9006,0.14 7.341,7.341 0 0 1 -2.7486,-1.223 l -0.458,0.6094"
         id="path2" />
      <path
         fill="none"
         stroke="#000"
         stroke-linecap="round"
         stroke-linejoin="round"
         stroke-width="2"
         d="m 53.4142,49.142 a 6.4274,6.4274 0 0 1 2.774,5.0457 6,6 0 0 1 -0.7005,3.0145 8.489,8.489 0 0 1 -0.91,1.4139 9.5342,9.5342 0 0 1 -1.3077,1.1739 7.19,7.19 0 0 1 -3.1394,1.3251 6.59,6.59 0 0 1 -3.0871,-0.2636 6.4881,6.4881 0 0 1 -3.9424,-4.2053 l -0.7167,0.2539"
         id="path4" />
      <path
         fill="none"
         stroke="#000"
         stroke-linecap="round"
         stroke-linejoin="round"
         stroke-width="2"
         d="M 42.3845,56.9 A 6.5106,6.5106 0 0 1 41.6602,62.6105 6.8785,6.8785 0 0 1 39.315,64.6286 8.1458,8.1458 0 0 1 36,65.4279 8.1458,8.1458 0 0 1 32.685,64.6288 6.8785,6.8785 0 0 1 30.34,62.6107 6.5106,6.5106 0 0 1 29.6155,56.9 l -0.7167,-0.2539"
         id="path6" />
      <path
         fill="none"
         stroke="#000"
         stroke-linecap="round"
         stroke-linejoin="round"
         stroke-width="2"
         d="m 28.8988,56.6463 a 6.4881,6.4881 0 0 1 -3.9424,4.2053 6.59,6.59 0 0 1 -3.0871,0.2636 7.19,7.19 0 0 1 -3.1393,-1.3252 9.5342,9.5342 0 0 1 -1.3072,-1.174 8.489,8.489 0 0 1 -0.91,-1.4139 6,6 0 0 1 -0.7,-3.0145 6.4274,6.4274 0 0 1 2.774,-5.0457 l -0.458,-0.6094"
         id="path8" />
      <path
         fill="none"
         stroke="#000"
         stroke-linecap="round"
         stroke-linejoin="round"
         stroke-width="2"
         d="m 18.1278,48.5326 a 7.341,7.341 0 0 1 -2.7486,1.223 6.1343,6.1343 0 0 1 -2.9006,-0.14 6.8735,6.8735 0 0 1 -4.4379,-4.5085 7.9835,7.9835 0 0 1 -0.2836,-3.4 7.2824,7.2824 0 0 1 1.2049,-2.853 6.5742,6.5742 0 0 1 5.23,-2.4493 v -0.3812"
         id="path10" />
    </g>
    <g
       id="g24">
      <path
         fill="none"
         stroke="#000"
         stroke-linecap="round"
         stroke-linejoin="round"
         stroke-width="2"
         d="m 53.8722,23.8953 a 7.0473,7.0473 0 0 1 2.7486,-1.2231 6.1331,6.1331 0 0 1 2.9006,0.14 6.8735,6.8735 0 0 1 4.4379,4.5084 7.9841,7.9841 0 0 1 0.2836,3.4 7.282,7.282 0 0 1 -1.2049,2.8534 6.5736,6.5736 0 0 1 -5.2295,2.4493 v 0.3812"
         id="path14" />
      <path
         fill="none"
         stroke="#000"
         stroke-linecap="round"
         stroke-linejoin="round"
         stroke-width="2"
         d="m 43.1012,15.7816 a 6.4879,6.4879 0 0 1 3.9424,-4.2053 6.59,6.59 0 0 1 3.0871,-0.2637 7.19,7.19 0 0 1 3.1393,1.3252 9.5336,9.5336 0 0 1 1.3072,1.1739 8.4857,8.4857 0 0 1 0.91,1.414 6,6 0 0 1 0.7005,3.0144 6.4277,6.4277 0 0 1 -2.774,5.0458 l 0.458,0.6094"
         id="path16" />
      <path
         fill="none"
         stroke="#000"
         stroke-linecap="round"
         stroke-linejoin="round"
         stroke-width="2"
         d="M 29.6155,15.5277 A 6.5106,6.5106 0 0 1 30.3398,9.8177 6.8788,6.8788 0 0 1 32.685,7.799 8.1441,8.1441 0 0 1 36,7 a 8.1441,8.1441 0 0 1 3.315,0.799 6.8788,6.8788 0 0 1 2.345,2.0182 6.5106,6.5106 0 0 1 0.7243,5.7105 l 0.7167,0.2539"
         id="path18" />
      <path
         fill="none"
         stroke="#000"
         stroke-linecap="round"
         stroke-linejoin="round"
         stroke-width="2"
         d="m 18.5858,23.2859 a 6.4277,6.4277 0 0 1 -2.774,-5.0458 6,6 0 0 1 0.7,-3.0144 8.4857,8.4857 0 0 1 0.91,-1.414 9.5336,9.5336 0 0 1 1.3082,-1.1739 7.19,7.19 0 0 1 3.1394,-1.3252 6.59,6.59 0 0 1 3.0871,0.2637 6.4879,6.4879 0 0 1 3.9424,4.2053 l 0.7167,-0.2539"
         id="path20" />
      <path
         fill="none"
         stroke="#000"
         stroke-linecap="round"
         stroke-linejoin="round"
         stroke-width="2"
         d="M 14.1915,36.0233 A 6.5736,6.5736 0 0 1 8.962,33.574 7.282,7.282 0 0 1 7.7571,30.7211 a 7.9841,7.9841 0 0 1 0.2836,-3.4 6.8735,6.8735 0 0 1 4.4379,-4.5084 6.1317,6.1317 0 0 1 2.9006,-0.14 7.3378,7.3378 0 0 1 2.7486,1.223 l 0.458,-0.6094"
         id="path22" />
    </g>
  </g>
</g></svg>