<svg xmlns="http://www.w3.org/2000/svg" width="24" height="24" viewBox="0 0 24 24"> <g transform="translate(0.22953026614360716 0.0) scale(0.4907444673315395)">
  
  <g
     id="line"
     transform="translate(-12.515073,-12.421701)">
    <path
       fill="none"
       stroke="#000"
       stroke-linecap="round"
       stroke-linejoin="round"
       stroke-miterlimit="10"
       stroke-width="2"
       d="m 54.215,34.1095 -5.2701,9.12 h 3.1702 c -2.4101,5.55 -7.6001,9.37 -13.5801,10.07 v -23.88 h 4 c 1.2053,0 2.1704,-1.0684 1.9747,-2.3241 -0.154,-0.9877 -1.0771,-1.6759 -2.0766,-1.6759 H 38.535 v -2.41 c 2.0104,-0.891 3.3423,-3.0605 2.9227,-5.4805 -0.3413,-1.9684 -1.8948,-3.5908 -3.8506,-3.9978 -3.2277,-0.6717 -6.0721,1.7782 -6.0721,4.8883 0,2.05 1.24,3.81 3,4.59 v 2.41 h -3.898 c -0.9996,0 -1.9227,0.6882 -2.0766,1.6759 -0.1958,1.2557 0.7694,2.3241 1.9746,2.3241 h 4 v 23.88 c -5.9299,-0.71 -11.1699,-4.56 -13.58,-10.07 h 3.1001 l -5.2701,-9.12 -5.27,9.12 h 3.28 c 0,0.24 0.0541,0.4652 0.13,0.71 2.6723,8.6078 16.5632,15.1685 19.0988,16.3038 0.2569,0.1151 0.5388,0.1164 0.7966,0.0034 2.5781,-1.1294 16.8623,-7.7541 19.5846,-17.0172 h 3.08 z m -17.68,-16.69 c 0.5501,0 1,0.45 1,1 0,0.55 -0.4499,1 -1,1 -0.55,0 -1,-0.45 -1,-1 0,-0.55 0.45,-1 1,-1 z"
       id="path2" />
  </g>
</g></svg>