<svg xmlns="http://www.w3.org/2000/svg" width="24" height="24" viewBox="0 0 24 24"> <g transform="translate(0.0 2.0540255588944873) scale(0.37909303192573035)">
  
  <g
     id="line"
     transform="translate(-4.686,-8.986426)">
    <path
       fill="none"
       stroke="#000"
       stroke-linecap="round"
       stroke-linejoin="round"
       stroke-miterlimit="10"
       stroke-width="2"
       d="m 16.31,22.62 c -0.264,3.606 -4.312,4.375 -4.312,4.375 l -1,1 C 9.694,30.821 5.686,28.62 5.686,26.557 7.194,23.142 8.748,20.807 8.748,20.807 8.623,18.015 12.06,16.182 12.06,16.182 L 10.782,14.41 C 10.3456,13.8415 8.284,10.062 8.997,9.994 c 1.253,-0.1186 6.042,2.815 7,4.938 0,0 8.865,0.9329 13.96,10.43 0.238,0.4441 9.877,2.308 16.07,0.4421 4.284,-1.29 17.05,-2.062 17.28,10.5 0.117,6.406 -0.5624,9.268 3.688,13.69"
       id="path2" />
    <path
       fill="none"
       stroke="#000"
       stroke-linecap="round"
       stroke-linejoin="round"
       stroke-miterlimit="10"
       stroke-width="2"
       d="m 59.19,37.02 c -0.4424,1.631 -1.221,3.426 -2.589,4.642 0,0 1.096,4.786 3.172,6.804 l -2.71,9.167 -1.062,1.927 c -0.3055,0.5545 -0.8885,0.8989 -1.522,0.8989 v 0 c -1.252,0 -2.096,-1.276 -1.594,-2.423 0.968,-2.212 2.16,-2.956 2.389,-8.301 0,0 -6.612,-3.939 -5.632,-9.837"
       id="path4" />
    <path
       fill="none"
       stroke="#000"
       stroke-linecap="round"
       stroke-linejoin="round"
       stroke-miterlimit="10"
       stroke-width="2"
       d="m 17.78,27.49 2.668,5.633 c 0,0 -1.153,6.343 3.287,9.168 l 2.422,1.557 2.513,9.234 0.9167,3.833 -0.4839,1.213 c -0.4446,1.114 0.3761,2.325 1.576,2.325 v 0 c 0.7126,0 1.349,-0.4454 1.594,-1.115 l 0.7465,-2.045 c 0.2401,-0.6576 0.2986,-1.368 0.1694,-2.056 l -1.331,-4.089 -0.1597,-8.684 c 9.1e-5,9.1e-5 7.634,6.18 15.02,2.145"
       id="path6" />
    <path
       fill="none"
       stroke="#000"
       stroke-linecap="round"
       stroke-linejoin="round"
       stroke-miterlimit="10"
       stroke-width="2"
       d="m 23.51,47.21 0.6035,4.42 -1.74,4.287 -0.3672,0.9192 c -0.482,1.207 0.4068,2.519 1.706,2.519 v 0 c 0.7335,0 1.397,-0.4362 1.687,-1.11 l 0.7899,-1.831"
       id="path8" />
    <path
       fill="none"
       stroke="#000"
       stroke-linecap="round"
       stroke-linejoin="round"
       stroke-miterlimit="10"
       stroke-width="2"
       d="m 48.07,57.22 -1.459,1.647 c -0.4197,0.4739 -1.064,0.682 -1.682,0.5431 v 0 c -1.221,-0.2748 -1.764,-1.705 -1.023,-2.714 1.43,-1.946 2.756,-2.41 4.153,-7.574"
       id="path10" />
  </g>
</g></svg>