<svg xmlns="http://www.w3.org/2000/svg" width="24" height="24" viewBox="0 0 24 24"> <g transform="translate(2.123726574190531 0.0) scale(0.47022958842097257)">
  
  <g
     id="line"
     transform="translate(-14.997049,-9.95)">
    <path
       fill="none"
       stroke="#000"
       stroke-linecap="round"
       stroke-linejoin="round"
       stroke-width="2"
       d="m 33.5793,49.7846 c 0,0 -1.2656,6.3176 2.4207,6.3176 3.6863,0 2.4207,-6.3176 2.4207,-6.3176"
       id="path2" />
    <path
       fill="none"
       stroke="#000"
       stroke-linecap="round"
       stroke-linejoin="round"
       stroke-width="2"
       d="m 35.1083,56.1526 -2.534,3.8363 c -3.8085,-1.8495 -5.9508,-13.67 -5.9508,-13.67 l -5.3557,7.3132 3.12,1.9425 -1.0476,3.2834 9.3051,1.1306"
       id="path4" />
    <path
       fill="none"
       stroke="#000"
       stroke-linecap="round"
       stroke-linejoin="round"
       stroke-width="2"
       d="m 36.8919,56.1526 2.5339,3.8363 c 3.8085,-1.8495 5.9509,-13.67 5.9509,-13.67 l 5.3556,7.3132 -3.12,1.9425 1.0477,3.2837 -9.305,1.1306"
       id="path6" />
    <path
       fill="none"
       stroke="#000"
       stroke-linecap="round"
       stroke-linejoin="round"
       stroke-width="2"
       d="m 16.1313,59.9586 c 0,0 -2.0984,-13.6394 10.4918,-13.6394 3.3487,2.2326 6.2178,3.7754 9.4426,3.7688 h -0.1312 c 3.2248,0.0066 6.0938,-1.5362 9.4427,-3.7688 12.59,0 10.4918,13.6394 10.4918,13.6394"
       id="path8" />
    <path
       fill="none"
       stroke="#000"
       stroke-linecap="round"
       stroke-linejoin="round"
       stroke-width="2"
       d="m 17.9716,44.93 c -2.1795,-5.0232 0.4937,-8.8394 2.1138,-12.98 1.6,-4.2 -0.2,-6.5 1.3,-12 1.5,-5.5 7.3,-9 13.7,-9 5.4,0 8,3 8,3 a 8.1232,8.1232 0 0 1 7.4,8 c 0.4,7.2 1,7.2 3.4,12.8 a 11.6408,11.6408 0 0 1 -0.41,10.1186"
       id="path10" />
    <path
       d="m 42.0854,29.95 a 2,2 0 1 1 -2,-2 2.0059,2.0059 0 0 1 2,2"
       id="path12" />
    <path
       d="m 34.0854,29.95 a 2,2 0 1 1 -2,-2 2.0059,2.0059 0 0 1 2,2"
       id="path14" />
    <path
       fill="none"
       stroke="#000"
       stroke-linejoin="round"
       stroke-width="2"
       d="m 25.0854,30.95 c 0,8 5,14 11,14 6,0 11,-6 11,-14 0,-5 -2,-8 -6,-12 -4,4 -16,9 -16,11 z"
       id="path16" />
    <path
       fill="none"
       stroke="#000"
       stroke-linecap="round"
       stroke-linejoin="round"
       stroke-width="2"
       d="m 33.0854,38.15 a 6.375,6.375 0 0 0 6,0"
       id="path18" />
  </g>
</g></svg>