<svg xmlns="http://www.w3.org/2000/svg" width="24" height="24" viewBox="0 0 24 24"> <g transform="translate(0.9188202823390998 1.7763568394002505e-15) scale(0.3479189157570882)">
  
  <g
     id="line"
     transform="translate(-4.1501146,-1.5146826)">
    <circle
       cx="53.910599"
       cy="41.8563"
       r="1.7664"
       fill="#000"
       stroke="none"
       id="circle2" />
    <path
       fill="none"
       stroke="#000"
       stroke-linecap="round"
       stroke-linejoin="round"
       stroke-miterlimit="10"
       stroke-width="2"
       d="m 62.3565,56.721 c 0.766,0.2372 1.487,0.6866 2.0105,1.4781 l 2.4829,-10.0557 c 0,0 -1.4978,-4.969 -6.7234,-5.113"
       id="path4" />
    <path
       fill="none"
       stroke="#000"
       stroke-linecap="round"
       stroke-linejoin="round"
       stroke-miterlimit="10"
       stroke-width="2"
       d="m 46.8612,68.5371 -1.6868,0.8404 c -0.7318,0.3646 -1.579,-0.3197 -1.2981,-1.065 1.1586,-3.0731 5.3156,-4.8418 5.3156,-4.8418 C 43.1734,56.957 43.5092,48.5113 43.5092,48.5113 43.165,36.036 51.0838,33 51.0838,33 c 0,0 10.0419,3.2568 9.6976,15.7322 0,0 0.0474,6.7897 -7.5845,14.7386 0,0 4.139,1.7874 5.1468,4.8905 0.2414,0.7433 -0.5889,1.3958 -1.3077,1.0377 l -1.7297,-0.8618 c -2.648,-1.3195 -5.7971,-1.3195 -8.4451,-1e-4 z"
       id="path6" />
    <path
       fill="none"
       stroke="#000"
       stroke-linecap="round"
       stroke-linejoin="round"
       stroke-miterlimit="10"
       stroke-width="2"
       d="m 40.1126,51.6063 c -0.5328,0.0283 -1.138,0.0835 -1.8251,0.1733 v -3.5718 c 0,0 0.8311,-3.533 5.5082,-4.3333"
       id="path8" />
    <path
       fill="none"
       stroke="#000"
       stroke-linecap="round"
       stroke-linejoin="round"
       stroke-miterlimit="10"
       stroke-width="2"
       d="M 51.0838,33 51.1952,7.8544 c 0,0 -3.7092,-8.8284 -16.5482,-3.8128 C 22.767,8.6826 16.4299,31.88 13.4264,44.5449"
       id="path10" />
    <path
       fill="none"
       stroke="#000"
       stroke-linecap="round"
       stroke-linejoin="round"
       stroke-miterlimit="10"
       stroke-width="2"
       d="M 15.1732,49.142 10.8838,66.6256 C 7.3332,66.5462 5.1501,65.2189 5.1501,65.2189 L 9.4395,47.7353 c 0,-1e-4 2.6145,1.4067 5.7337,1.4067 z"
       id="path12" />
    <path
       fill="none"
       stroke="#000"
       stroke-linecap="round"
       stroke-linejoin="round"
       stroke-miterlimit="10"
       stroke-width="2"
       d="m 6.0532,61.5291 c 0,0 2.6145,1.4067 5.7337,1.4067"
       id="path14" />
  </g>
</g></svg>