<svg xmlns="http://www.w3.org/2000/svg" width="24" height="24" viewBox="0 0 24 24"> <g transform="translate(0.7058823529411775 0.0) scale(0.47058823529411764)">
  
  <g
     id="line"
     transform="translate(-12,-9.9583)">
    <rect
       x="16"
       y="48.958302"
       rx="2.6210999"
       ry="2.6210999"
       width="40"
       height="8"
       fill="none"
       stroke="#000"
       stroke-linecap="round"
       stroke-linejoin="round"
       stroke-width="2"
       id="rect2" />
    <rect
       x="18"
       y="56.958302"
       rx="2"
       ry="2"
       width="6"
       height="4"
       id="rect4" />
    <rect
       x="48"
       y="56.958302"
       rx="2"
       ry="2"
       width="6"
       height="4"
       id="rect6" />
    <line
       x1="16"
       x2="13"
       y1="25.9583"
       y2="25.9583"
       fill="none"
       stroke="#000"
       stroke-linecap="round"
       stroke-linejoin="round"
       stroke-width="2"
       id="line8" />
    <line
       x1="13"
       x2="13"
       y1="22.9583"
       y2="28.9583"
       fill="none"
       stroke="#000"
       stroke-linecap="round"
       stroke-linejoin="round"
       stroke-width="2"
       id="line10" />
    <line
       x1="56"
       x2="59"
       y1="25.9583"
       y2="25.9583"
       fill="none"
       stroke="#000"
       stroke-linecap="round"
       stroke-linejoin="round"
       stroke-width="2"
       id="line12" />
    <line
       x1="59"
       x2="59"
       y1="22.9583"
       y2="28.9583"
       fill="none"
       stroke="#000"
       stroke-linecap="round"
       stroke-linejoin="round"
       stroke-width="2"
       id="line14" />
    <path
       fill="none"
       stroke="#000"
       stroke-linecap="round"
       stroke-linejoin="round"
       stroke-width="2"
       d="M 44.1556,13.9583 H 47.77 A 7.2518,7.2518 0 0 1 55,21.1888 v 26.27 a 1.5044,1.5044 0 0 1 -1.5,1.5 h -35 a 1.5044,1.5044 0 0 1 -1.5,-1.5 v -26.27 a 7.2515,7.2515 0 0 1 7.23,-7.23 h 2.6142"
       id="path16" />
    <path
       fill="none"
       stroke="#000"
       stroke-linecap="round"
       stroke-linejoin="round"
       stroke-width="2"
       d="m 51,21.9583 v 11.8 H 21"
       id="path18" />
    <polyline
       fill="none"
       stroke="#000"
       stroke-linecap="round"
       stroke-linejoin="round"
       stroke-width="2"
       points="21 44.958 27 44.958 27 42.958"
       id="polyline20" />
    <polyline
       fill="none"
       stroke="#000"
       stroke-linecap="round"
       stroke-linejoin="round"
       stroke-width="2"
       points="45 44.958 51 44.958 51 42.958"
       id="polyline22" />
    <line
       x1="32"
       x2="41"
       y1="41.958302"
       y2="41.958302"
       fill="none"
       stroke="#000"
       stroke-linecap="round"
       stroke-miterlimit="10"
       stroke-width="2"
       id="line24" />
    <line
       x1="32"
       x2="41"
       y1="44.958302"
       y2="44.958302"
       fill="none"
       stroke="#000"
       stroke-linecap="round"
       stroke-miterlimit="10"
       stroke-width="2"
       id="line26" />
    <path
       fill="none"
       stroke="#000"
       stroke-linecap="round"
       stroke-linejoin="round"
       stroke-width="2"
       d="m 26.8444,13.9583 v -0.4791 a 2.5283,2.5283 0 0 1 2.5209,-2.5209 h 12.2694 a 2.5283,2.5283 0 0 1 2.5209,2.5209 v 0.4791"
       id="path28" />
  </g>
</g></svg>