<svg xmlns="http://www.w3.org/2000/svg" width="24" height="24" viewBox="0 0 24 24"> <g transform="scale(0.5)">
  
  <g
     id="line"
     transform="translate(-12,-12)">
    <circle
       cx="36"
       cy="36"
       r="23"
       fill="none"
       stroke="#000"
       stroke-miterlimit="10"
       stroke-width="2"
       id="circle2" />
    <path
       fill="none"
       stroke="#000"
       stroke-linecap="round"
       stroke-linejoin="round"
       stroke-width="2"
       d="m 21.2638,27.6286 c 1.1139,-1.3946 2.7077,-2.3238 4.47,-2.6062 1.4909,-0.2133 3.011,0.0546 4.3392,0.7648"
       id="path4" />
    <path
       fill="none"
       stroke="#000"
       stroke-linecap="round"
       stroke-linejoin="round"
       stroke-width="2"
       d="m 41,27.0774 c 1.3758,1.1372 3.1261,1.7207 4.9091,1.6364 1.503,-0.0963 2.9361,-0.6696 4.0909,-1.6364"
       id="path6" />
    <path
       fill="none"
       stroke="#000"
       stroke-linecap="round"
       stroke-linejoin="round"
       stroke-width="2"
       d="M 24,40.9991 C 23.7435,40.795 23.52,49 29,49 c 5,0 4,-8.0009 9,-5.6007"
       id="path8" />
    <path
       fill="none"
       stroke="#000"
       stroke-linecap="round"
       stroke-linejoin="round"
       stroke-width="2"
       d="m 49,40.9991 c 0,0 -0.8892,6.146 -5,6.4007 -3.7688,0.2335 -5.1617,-6.1179 -9,-4.0005"
       id="path10" />
    <path
       d="m 30,33 c 0,1.6568 -1.3448,3 -3,3 -1.6553,0 -3,-1.3433 -3,-3 0,-1.6552 1.3447,-3 3,-3 1.6552,0 3,1.3448 3,3"
       id="path12" />
    <path
       d="m 48,31 c 0,1.6568 -1.3447,3 -3,3 -1.6553,0 -3,-1.3433 -3,-3 0,-1.6552 1.3447,-3 3,-3 1.6553,0 3,1.3448 3,3"
       id="path14" />
  </g>
</g></svg>