<svg xmlns="http://www.w3.org/2000/svg" width="24" height="24" viewBox="0 0 24 24"> <g transform="translate(0.0 1.0142756012543241) scale(0.46143109007327143)">
  
  <g
     id="line"
     transform="translate(-10.0401,-13.9756)">
    <path
       fill="none"
       stroke="#000"
       stroke-miterlimit="10"
       stroke-width="2"
       d="m 15.042,14.9756 c -2.2091,0 -4,1.7909 -4,4 v 11.7841 l -0.0019,4.5314 c -2e-4,0.2808 0.328,0.4336 0.5428,0.2527 l 5.0257,-4.389 c 0.1804,-0.1518 0.4086,-0.2351 0.6443,-0.2351 h 30.9557 c 2.2091,0 4,-1.7909 4,-4 v -7.9441 c 0,-2.2091 -1.7909,-4 -4,-4 z"
       id="path2" />
    <path
       fill="none"
       stroke="#000"
       stroke-miterlimit="10"
       stroke-width="2"
       d="m 60.5096,60.5444 c 0.2147,0.1808 0.5427,0.0281 0.5426,-0.2526 l -0.0018,-4.2707 h 7e-4 V 44.077 c 0,-2.2091 -1.7909,-4 -4,-4 H 24.103 c -2.2091,0 -4,1.7909 -4,4 v 7.9441 c 0,2.2091 1.7909,4 4,4 h 30.8579 c 0.2357,0 0.4639,0.0833 0.6441,0.2351 z"
       id="path4" />
    <circle
       cx="31.9965"
       cy="48.059299"
       r="2"
       fill="#000"
       stroke="none"
       id="circle6" />
    <circle
       cx="40.008099"
       cy="48.059299"
       r="2"
       fill="#000"
       stroke="none"
       id="circle8" />
    <circle
       cx="48.019798"
       cy="48.059299"
       r="2"
       fill="#000"
       stroke="none"
       id="circle10" />
  </g>
</g></svg>