<svg xmlns="http://www.w3.org/2000/svg" width="24" height="24" viewBox="0 0 24 24"> <g transform="translate(0.0 2.9800423125) scale(0.375)">
  
  <g
     id="line"
     transform="translate(-4.013,-19.874957)">
    <polyline
       fill="none"
       stroke="#000"
       stroke-linecap="round"
       stroke-linejoin="round"
       stroke-width="2"
       points="51.013 66.981 51.013 36.981 67.013 36.981 67.013 66.981"
       id="polyline2" />
    <polyline
       fill="none"
       stroke="#000"
       stroke-linecap="round"
       stroke-linejoin="round"
       stroke-width="2"
       points="5.013 66.981 5.013 45.981 39.013 45.981 39.013 66.981"
       id="polyline4" />
    <polyline
       fill="none"
       stroke="#000"
       stroke-linecap="round"
       stroke-linejoin="round"
       stroke-width="2"
       points="35.013 42.981 35.013 32.981 47.013 32.981 47.013 66.981"
       id="polyline6" />
    <polyline
       fill="none"
       stroke="#000"
       stroke-linecap="round"
       stroke-linejoin="round"
       stroke-width="2"
       points="11.013 42.981 11.013 28.981 19.013 28.981 19.013 42.981"
       id="polyline8" />
    <polyline
       fill="none"
       stroke="#000"
       stroke-linecap="round"
       stroke-linejoin="round"
       stroke-width="2"
       points="57.013 45.981 55.013 45.981 55.013 40.981"
       id="polyline10" />
    <polyline
       fill="none"
       stroke="#000"
       stroke-linecap="round"
       stroke-linejoin="round"
       stroke-width="2"
       points="63.013 55.981 61.013 55.981 61.013 50.981"
       id="polyline12" />
    <polyline
       fill="none"
       stroke="#000"
       stroke-linecap="round"
       stroke-linejoin="round"
       stroke-width="2"
       points="29.013 54.981 27.013 54.981 27.013 49.981"
       id="polyline14" />
    <polyline
       fill="none"
       stroke="#000"
       stroke-linecap="round"
       stroke-linejoin="round"
       stroke-width="2"
       points="35.013 54.981 33.013 54.981 33.013 49.981"
       id="polyline16" />
    <polyline
       fill="none"
       stroke="#000"
       stroke-linecap="round"
       stroke-linejoin="round"
       stroke-width="2"
       points="35.013 64.981 33.013 64.981 33.013 59.981"
       id="polyline18" />
    <polyline
       fill="none"
       stroke="#000"
       stroke-linecap="round"
       stroke-linejoin="round"
       stroke-width="2"
       points="17.013 54.981 15.013 54.981 15.013 49.981"
       id="polyline20" />
    <polyline
       fill="none"
       stroke="#000"
       stroke-linecap="round"
       stroke-linejoin="round"
       stroke-width="2"
       points="11.013 54.981 9.013 54.981 9.013 49.981"
       id="polyline22" />
    <polyline
       fill="none"
       stroke="#000"
       stroke-linecap="round"
       stroke-linejoin="round"
       stroke-width="2"
       points="11.013 64.981 9.013 64.981 9.013 59.981"
       id="polyline24" />
    <polyline
       fill="none"
       stroke="#000"
       stroke-linecap="round"
       stroke-linejoin="round"
       stroke-width="2"
       points="23.013 64.981 21.013 64.981 21.013 59.981"
       id="polyline26" />
    <polyline
       fill="none"
       stroke="#000"
       stroke-linecap="round"
       stroke-linejoin="round"
       stroke-width="2"
       points="57.013 65.981 55.013 65.981 55.013 60.981"
       id="polyline28" />
    <polyline
       fill="none"
       stroke="#000"
       stroke-linecap="round"
       stroke-linejoin="round"
       stroke-width="2"
       points="63.013 65.981 61.013 65.981 61.013 60.981"
       id="polyline30" />
    <line
       x1="15.0131"
       x2="15.0131"
       y1="31.9814"
       y2="42.9814"
       fill="none"
       stroke="#000"
       stroke-linecap="round"
       stroke-linejoin="round"
       stroke-width="2"
       id="line32" />
    <line
       x1="39.0131"
       x2="39.0131"
       y1="35.9814"
       y2="42.9814"
       fill="none"
       stroke="#000"
       stroke-linecap="round"
       stroke-linejoin="round"
       stroke-width="2"
       id="line34" />
    <line
       x1="43.0131"
       x2="43.0131"
       y1="35.9814"
       y2="66.9814"
       fill="none"
       stroke="#000"
       stroke-linecap="round"
       stroke-linejoin="round"
       stroke-width="2"
       id="line36" />
    <path
       fill="none"
       stroke="#000"
       stroke-linecap="round"
       stroke-miterlimit="10"
       stroke-width="2"
       d="M 23.8748,42.982 A 15.002,15.002 0 1 1 51.9664,33.9448"
       id="path38" />
  </g>
</g></svg>