<svg xmlns="http://www.w3.org/2000/svg" width="24" height="24" viewBox="0 0 24 24"> <g transform="translate(0.0 1.4812503750000001) scale(0.375)">
  
  <g
     id="line"
     transform="translate(-4,-13.1)">
    <circle
       cx="33.400002"
       cy="17.1"
       r="3"
       fill="none"
       stroke="#000"
       stroke-miterlimit="10"
       stroke-width="2"
       id="circle2" />
    <path
       fill="none"
       stroke="#000"
       stroke-linecap="round"
       stroke-linejoin="round"
       stroke-width="2"
       d="m 25.3,34.1 4.3,-2.9 a 12.3989,12.3989 0 0 0 2.8,-2.8 l 1.9,-2.7 a 4.1348,4.1348 0 0 1 3.1,-1.6 3.2054,3.2054 0 0 1 2.7,1.9 l 4.6,10.5 a 4.9741,4.9741 0 0 1 -0.1,3.6 l -0.1,0.2 a 6.1632,6.1632 0 0 1 -2.8,2.5 l -5.5,2.4 a 2.03,2.03 0 0 0 -1.1,2.6 l 2.6,6.4 A 2.3967,2.3967 0 0 1 37,57 1.8149,1.8149 0 0 1 34.5,56.2 L 30.1,48 a 9.0731,9.0731 0 0 1 -0.9,-3.4 3.8459,3.8459 0 0 1 1.7,-2.7 L 35.5,39 a 2.9209,2.9209 0 0 0 1.2,-3 l -1.5,-6"
       id="path4" />
    <circle
       cx="19.1"
       cy="58"
       r="10.2"
       fill="none"
       stroke="#000"
       stroke-miterlimit="10"
       stroke-width="2"
       id="circle6" />
    <circle
       cx="51.099998"
       cy="58"
       r="10.2"
       fill="none"
       stroke="#000"
       stroke-miterlimit="10"
       stroke-width="2"
       id="circle8" />
    <polyline
       fill="none"
       stroke="#000"
       stroke-linecap="round"
       stroke-linejoin="round"
       stroke-width="2"
       points="19.2 58 21.2 34 25 34"
       id="polyline10" />
    <path
       fill="none"
       stroke="#000"
       stroke-miterlimit="10"
       stroke-width="2"
       d="m 37,57 -1,3.1 A 2.791,2.791 0 0 1 33.6,62 1.7018,1.7018 0 0 1 32,60 l 0.9,-6.7"
       id="path12" />
    <line
       x1="41.400002"
       x2="37.799999"
       y1="42.900002"
       y2="54.400002"
       fill="none"
       stroke="#000"
       stroke-miterlimit="10"
       stroke-width="2"
       id="line14" />
    <path
       fill="none"
       stroke="#000"
       stroke-linecap="round"
       stroke-miterlimit="10"
       stroke-width="2"
       d="m 5,29.46 10.3624,-7.2646 a 3.2617,3.2617 0 0 1 3.3291,-0.0809 L 25,26.0952"
       id="path16" />
    <path
       fill="none"
       stroke="#000"
       stroke-linecap="round"
       stroke-miterlimit="10"
       stroke-width="2"
       d="m 44,23.5714 10.3085,-6.5042 a 2.3261,2.3261 0 0 1 2.9571,0.4814 L 67,29.46"
       id="path18" />
  </g>
</g></svg>