<svg xmlns="http://www.w3.org/2000/svg" width="24" height="24" viewBox="0 0 24 24"> <g transform="translate(0.0 0.525034900685375) scale(0.42509970004965164)">
  
  <g
     id="line-supplement"
     transform="translate(-8.0009481,-7.0015294)">
    <path
       fill="#000"
       d="m 34.824,8.45109 c 0.701,-0.509 1.651,-0.509 2.352,0 L 62.405,26.7811 c 0.701,0.51 0.994,1.412 0.727,2.236 l -9.637,29.659 c -0.268,0.824 -1.036,1.382 -1.902,1.382 H 20.407 c -0.866,0 -1.634,-0.558 -1.902,-1.382 L 8.868,29.0171 c -0.267,-0.824 0.026,-1.726 0.727,-2.236 z"
       id="path2" />
  </g>
  <g
     id="line"
     transform="translate(-8.0009481,-7.0015294)">
    <path
       fill="none"
       stroke="#000"
       stroke-width="2"
       d="m 35.0536,8.38175 c 0.701,-0.509 1.651,-0.509 2.352,0 l 25.229,18.33005 c 0.701,0.51 0.994,1.412 0.727,2.236 l -9.637,29.6589 c -0.268,0.824 -1.036,1.382 -1.902,1.382 h -31.186 c -0.866,0 -1.634,-0.558 -1.902,-1.382 L 9.09764,28.9478 c -0.267,-0.824 0.026,-1.726 0.727,-2.236 z"
       id="path5" />
  </g>
</g></svg>