<svg xmlns="http://www.w3.org/2000/svg" width="24" height="24" viewBox="0 0 24 24"> <g transform="translate(5.052317302546545 0.0) scale(0.37555041607856515)">
  
  <g
     id="line"
     transform="translate(-17,-4.0937996)">
    <circle
       cx="36.9688"
       cy="8.0937996"
       r="3"
       fill="none"
       stroke="#000"
       stroke-miterlimit="10"
       stroke-width="2"
       id="circle2" />
    <path
       fill="none"
       stroke="#000"
       stroke-linecap="round"
       stroke-linejoin="round"
       stroke-miterlimit="10"
       stroke-width="2"
       d="m 44,21 2.0361,16.8896 c 0.1319,1.0918 0.1534,2.8809 0.0479,3.9766 l -0.877,9.1426 c -0.1054,1.0957 -0.456,2.8516 -0.7802,3.9023 L 41.2891,65.0889 C 40.9648,66.1396 39.958,67 39.0508,67 c -0.9082,0 -1.499,-0.8877 -1.3145,-1.9717 l 1.7129,-10.0566 c 0.1846,-1.084 0.3584,-2.8711 0.3858,-3.9707 l 0.2148,-8.6016 c 0.0273,-1.0996 -0.4453,-1.999 -1.0498,-1.999 -0.6045,0 -1.3066,0.876 -1.5605,1.9463 l -5.379,22.707 C 31.8066,66.124 30.8574,67 29.9492,67 29.042,67 28.4033,66.1055 28.5293,65.0137 L 33.5,22"
       id="path4" />
    <path
       fill="none"
       stroke="#000"
       stroke-linecap="round"
       stroke-linejoin="round"
       stroke-miterlimit="10"
       stroke-width="2"
       d="m 18,36 c 0,0 0.6748,-0.4502 1.5,-1 0.8252,-0.5498 2.6406,-2.9395 4.0352,-5.3096 l 4.9296,-8.3808 C 29.8594,18.9395 32.7998,16.5498 35,16 c 2.2002,-0.5498 5.7998,-1 8,-1 2.2002,0 4.3184,2.2275 4.707,4.9497 l 0.586,4.1006 c 0.3886,2.7222 1.3252,7.1128 2.081,9.7573 L 53,43"
       id="path6" />
    <path
       fill="none"
       stroke="#000"
       stroke-linecap="round"
       stroke-linejoin="round"
       stroke-miterlimit="10"
       stroke-width="2"
       d="m 19,39 c 0,0 0.625,1 1,2 v 3 L 24.125,50 27,48 23.667,43.001"
       id="path8" />
  </g>
</g></svg>