<svg xmlns="http://www.w3.org/2000/svg" width="24" height="24" viewBox="0 0 24 24"> <g transform="translate(2.6765701401158175 0.0) scale(0.5093476866945502)">
  
  <g
     id="line"
     transform="translate(-17.639203,-14.91901)">
    <path
       fill="none"
       stroke="#000"
       stroke-linecap="round"
       stroke-linejoin="round"
       stroke-width="2"
       d="m 30.6019,30.0979 c -0.7559,-1.026 -3.0468,-3.6815 -6.5091,-3.6815 -4.2913,0 -5.1713,4.9052 -5.1713,4.9052 0,0 -1.9612,16.43 4.4506,25.573 4.5587,6.5009 7.4164,3.7576 8.6874,1.6289"
       id="path2" />
    <path
       fill="none"
       stroke="#000"
       stroke-linecap="round"
       stroke-linejoin="round"
       stroke-width="2"
       d="m 41.0119,30.4958 c 0,0 2.4917,-4.0794 6.783,-4.0794 4.2913,0 5.1713,4.9052 5.1713,4.9052 0,0 1.9612,16.43 -4.4506,25.573 -4.1538,5.9235 -6.8953,4.172 -8.3111,2.2038"
       id="path4" />
    <path
       fill="none"
       stroke="#000"
       stroke-linecap="round"
       stroke-linejoin="round"
       stroke-width="2"
       d="m 41.635,29.2141 a 7.6351,7.6351 0 0 0 -5.7767,-2.7977 c -4.1168,0.1745 -5.8558,4.9052 -5.8558,4.9052 a 37.9215,37.9215 0 0 0 -1.8073,12.3659"
       id="path6" />
    <path
       fill="none"
       stroke="#000"
       stroke-linecap="round"
       stroke-linejoin="round"
       stroke-width="2"
       d="m 30.3566,57.31 c 0.8186,0 1.7025,1.2132 1.7025,1.2132 3.6354,4.1062 6.4076,2.3556 8.148,0.5733 0,0 1.2724,-1.7865 2.38,-1.7865"
       id="path8" />
    <path
       fill="none"
       stroke="#000"
       stroke-linecap="round"
       stroke-linejoin="round"
       stroke-width="2"
       d="m 30.4581,25.9 a 7.7934,7.7934 0 0 1 4.3656,-2.226 c 0,0 -0.9027,-8.7029 5.9987,-7.674 a 11.3515,11.3515 0 0 1 4.2183,1.6255 1.991,1.991 0 0 1 0.2244,3.0754 v 0 a 2.0116,2.0116 0 0 1 -2.4077,0.2618 c -1.695,-0.984 -4.5364,-2.0851 -4.6067,2.9516 a 18.9983,18.9983 0 0 1 3.5351,1.8505"
       id="path10" />
  </g>
</g></svg>