<svg xmlns="http://www.w3.org/2000/svg" width="24" height="24" viewBox="0 0 24 24"> <g transform="translate(0.0 2.8218415350179917) scale(0.4385502559132609)">
  
  <g
     id="line"
     transform="translate(-8.0366885,-15.095486)">
    <path
       fill="none"
       stroke="#000"
       stroke-linecap="round"
       stroke-linejoin="round"
       stroke-miterlimit="10"
       stroke-width="2"
       d="m 45.3461,29.1377 0.3297,-0.5876 c 0.6377,-1.0595 0.444,-2.2743 -0.3788,-2.879 -0.8227,-0.6047 -2.2838,-0.09 -2.9215,0.9694 l -1.1633,1.7874"
       id="path2" />
    <line
       x1="48.608101"
       x2="47.639198"
       y1="21.4277"
       y2="22.4536"
       fill="none"
       stroke="#000"
       stroke-linecap="round"
       stroke-linejoin="round"
       stroke-miterlimit="10"
       stroke-width="2"
       id="line4" />
    <line
       x1="41.646801"
       x2="42.5284"
       y1="20.4571"
       y2="21.711599"
       fill="none"
       stroke="#000"
       stroke-linecap="round"
       stroke-linejoin="round"
       stroke-miterlimit="10"
       stroke-width="2"
       id="line6" />
    <line
       x1="46.898499"
       x2="46.943298"
       y1="32.024799"
       y2="32.185799"
       fill="none"
       stroke="#000"
       stroke-linecap="round"
       stroke-linejoin="round"
       stroke-miterlimit="10"
       stroke-width="2"
       id="line8" />
    <line
       x1="37.6465"
       x2="38.8447"
       y1="25.525801"
       y2="25.789301"
       fill="none"
       stroke="#000"
       stroke-linecap="round"
       stroke-linejoin="round"
       stroke-miterlimit="10"
       stroke-width="2"
       id="line10" />
    <line
       x1="50.651901"
       x2="49.364201"
       y1="27.9531"
       y2="27.51"
       fill="none"
       stroke="#000"
       stroke-linecap="round"
       stroke-linejoin="round"
       stroke-miterlimit="10"
       stroke-width="2"
       id="line12" />
    <line
       x1="21.956499"
       x2="34.263302"
       y1="43.992802"
       y2="43.992802"
       fill="none"
       stroke="#000"
       stroke-linecap="round"
       stroke-linejoin="round"
       stroke-miterlimit="10"
       stroke-width="2"
       id="line14" />
    <line
       x1="21.956499"
       x2="34.263302"
       y1="47.992802"
       y2="47.992802"
       fill="none"
       stroke="#000"
       stroke-linecap="round"
       stroke-linejoin="round"
       stroke-miterlimit="10"
       stroke-width="2"
       id="line16" />
    <line
       x1="21.956499"
       x2="34.263302"
       y1="51.992802"
       y2="51.992802"
       fill="none"
       stroke="#000"
       stroke-linecap="round"
       stroke-linejoin="round"
       stroke-miterlimit="10"
       stroke-width="2"
       id="line18" />
    <line
       x1="21.956499"
       x2="34.263302"
       y1="43.992802"
       y2="43.992802"
       fill="none"
       stroke="#000"
       stroke-linecap="round"
       stroke-linejoin="round"
       stroke-miterlimit="10"
       stroke-width="2"
       id="line20" />
    <line
       x1="21.956499"
       x2="34.263302"
       y1="47.992802"
       y2="47.992802"
       fill="none"
       stroke="#000"
       stroke-linecap="round"
       stroke-linejoin="round"
       stroke-miterlimit="10"
       stroke-width="2"
       id="line22" />
    <line
       x1="21.956499"
       x2="34.263302"
       y1="51.992802"
       y2="51.992802"
       fill="none"
       stroke="#000"
       stroke-linecap="round"
       stroke-linejoin="round"
       stroke-miterlimit="10"
       stroke-width="2"
       id="line24" />
    <polygon
       fill="none"
       stroke="#000"
       stroke-linecap="round"
       stroke-linejoin="round"
       stroke-miterlimit="10"
       stroke-width="2"
       points="42.6648,44.733 42.6389,31.8639 30.2679,31.928 16.8385,42.4653 16.8385,55.9523 41.7062,55.9523 42.6785,55.9523 49.323,55.9523 49.323,50.3426 42.6785,50.3426 42.6785,44.733 "
       id="polygon26" />
    <path
       fill="none"
       stroke="#000"
       stroke-linecap="round"
       stroke-linejoin="round"
       stroke-miterlimit="10"
       stroke-width="2"
       d="m 61.7625,46.4939 h -6.856 v -6.5555 h 6.856 c 0,0 -0.2947,0.8214 -0.2947,3.2778 0,2.4563 0.2947,3.2777 0.2947,3.2777 z"
       id="path28" />
    <polyline
       fill="none"
       stroke="#000"
       stroke-linecap="round"
       stroke-linejoin="round"
       stroke-miterlimit="10"
       stroke-width="2"
       points="56.0594,46.4939 48.0504,46.4939 48.0504,39.9384 56.0594,39.9384"
       id="polyline30" />
    <path
       fill="none"
       stroke="#000"
       stroke-linecap="round"
       stroke-linejoin="round"
       stroke-miterlimit="10"
       stroke-width="2"
       d="m 14.3144,40.5951 c -4.003,-2.1406 -6.1592,-6.8223 -4.937,-11.3972 1.4254,-5.3358 6.9064,-8.5057 12.2421,-7.0803 3.6206,0.9672 6.244,3.8018 7.1111,7.1913"
       id="path32" />
    <path
       fill="none"
       stroke="#000"
       stroke-linecap="round"
       stroke-linejoin="round"
       stroke-miterlimit="10"
       stroke-width="2"
       d="m 22.7534,33.62 -1.5938,-1.7619 c -0.8012,-0.9419 -2.0144,-1.1452 -2.8497,-0.5579 -0.8352,0.5873 -0.8128,2.1362 -0.0117,3.0781 l 1.3238,1.6721"
       id="path34" />
    <line
       x1="18.2351"
       x2="18.384701"
       y1="25.5404"
       y2="26.943501"
       fill="none"
       stroke="#000"
       stroke-linecap="round"
       stroke-linejoin="round"
       stroke-miterlimit="10"
       stroke-width="2"
       id="line36" />
    <line
       x1="12.9719"
       x2="14.4983"
       y1="30.198799"
       y2="30.3444"
       fill="none"
       stroke="#000"
       stroke-linecap="round"
       stroke-linejoin="round"
       stroke-miterlimit="10"
       stroke-width="2"
       id="line38" />
    <line
       x1="14.2226"
       x2="15.2018"
       y1="36.5336"
       y2="35.794399"
       fill="none"
       stroke="#000"
       stroke-linecap="round"
       stroke-linejoin="round"
       stroke-miterlimit="10"
       stroke-width="2"
       id="line40" />
    <line
       x1="24.521999"
       x2="23.3482"
       y1="28.2297"
       y2="28.920099"
       fill="none"
       stroke="#000"
       stroke-linecap="round"
       stroke-linejoin="round"
       stroke-miterlimit="10"
       stroke-width="2"
       id="line42" />
    <path
       fill="none"
       stroke="#000"
       stroke-linecap="round"
       stroke-linejoin="round"
       stroke-miterlimit="10"
       stroke-width="2"
       d="m 47.0768,35.6781 c 0.6124,-0.1736 1.3634,-0.466 2.4997,-1.1004 1.9943,-1.1134 2.9915,-2.7252 2.9915,-2.7252 2.0117,-2.8624 2.46,-6.6986 0.8411,-10.0784 -2.3858,-4.9809 -8.3577,-7.0847 -13.3387,-4.6989 -4.2707,2.0456 -6.4262,6.7276 -5.4503,11.1608"
       id="path44" />
  </g>
</g></svg>