<svg xmlns="http://www.w3.org/2000/svg" width="24" height="24" viewBox="0 0 24 24"> <g transform="translate(0.8986614021528307 0.0) scale(0.46956606363101466)">
  
  <g
     id="line"
     transform="translate(-12.836005,-10.659352)">
    <ellipse
       cx="39.8778"
       cy="23.2122"
       rx="1.7074"
       ry="3.1872001"
       fill="none"
       stroke="#000"
       stroke-linecap="round"
       stroke-linejoin="round"
       stroke-miterlimit="10"
       stroke-width="2"
       id="ellipse2" />
    <path
       fill="none"
       stroke="#000"
       stroke-linecap="round"
       stroke-linejoin="round"
       stroke-miterlimit="10"
       stroke-width="2"
       d="m 13.9753,51.377 c -0.9623,-2.069 3.4028,-6.2239 6.017,-12.0822 1.1268,-2.5251 1.2295,-4.7069 0.738,-6.384 -1.2826,-2.5697 -2.3564,-3.62 -3.4174,-6.1225 -0.8441,-1.991 8.174,-0.2897 8.3927,-0.3765 0.8853,-0.7861 3.2644,-9.554 5.4268,-12.2402 0.9874,-1.2266 3.396,-2.6415 5.7808,-2.5013 2.0182,0.1187 4.1012,1.3013 4.9603,2.3747 2.171,2.7125 4.7139,12.2063 5.4308,12.3544 1.9302,0.3988 7.9684,-1.8974 8.321,0.4119 0.0771,0.5053 -1.9201,5.7746 -2.2439,6.1147 -0.5692,1.348 -1.1653,3.3725 -0.3164,5.4799 1.2135,3.0123 6.055,8.5856 6.0544,14.0239 0,0.1925 -0.9263,5.5194 -7.6907,3.6474 -0.1511,-0.0418 -4.9809,-1.9766 -7.8778,-1.1202 -3.4167,1.01 -2.8112,2.9781 -6.954,4.7235 -1.0835,0.4565 -3.1113,1.2832 -5.7731,1.0496 C 30.1086,60.6673 28.045,60.4626 26.0123,59.1242 23.0967,57.2044 23.6516,55.1953 21.2244,53.4231 18.009,51.0753 14.672,52.875 13.9753,51.377 Z"
       id="path4" />
    <ellipse
       cx="36.499298"
       cy="30.341101"
       rx="1.7742"
       ry="2.1254001"
       fill="none"
       stroke="#000"
       stroke-linecap="round"
       stroke-linejoin="round"
       stroke-miterlimit="10"
       stroke-width="2"
       id="ellipse6" />
    <ellipse
       cx="33.080601"
       cy="23.2122"
       rx="1.7074"
       ry="3.1872001"
       fill="none"
       stroke="#000"
       stroke-linecap="round"
       stroke-linejoin="round"
       stroke-miterlimit="10"
       stroke-width="2"
       id="ellipse8" />
  </g>
</g></svg>