<svg xmlns="http://www.w3.org/2000/svg" width="24" height="24" viewBox="0 0 24 24"> <g transform="scale(0.41379310344827586)">
  
  <g
     id="line"
     transform="translate(-7,-7)">
    <polyline
       fill="none"
       stroke="none"
       stroke-linecap="round"
       stroke-linejoin="round"
       stroke-width="2"
       points="23.111 58.006 21.594 53.799 17.319 52.488"
       id="polyline2" />
    <polyline
       fill="none"
       stroke="none"
       stroke-linecap="round"
       stroke-linejoin="round"
       stroke-width="2"
       points="27.658 51.94 25.199 48.205 20.736 47.93"
       id="polyline4" />
    <polyline
       fill="none"
       stroke="none"
       stroke-linecap="round"
       stroke-linejoin="round"
       stroke-width="2"
       points="30.692 45.113 27.415 42.069 23.014 42.864"
       id="polyline6" />
    <polyline
       fill="none"
       stroke="none"
       stroke-linecap="round"
       stroke-linejoin="round"
       stroke-width="2"
       points="31.997 37.918 28.076 35.767 24.003 37.613"
       id="polyline8" />
    <polyline
       fill="none"
       stroke="none"
       stroke-linecap="round"
       stroke-linejoin="round"
       stroke-width="2"
       points="31.295 29.888 26.963 28.777 23.475 31.576"
       id="polyline10" />
    <polyline
       fill="none"
       stroke="none"
       stroke-linecap="round"
       stroke-linejoin="round"
       stroke-width="2"
       points="28.666 21.957 24.194 21.938 21.496 25.505"
       id="polyline12" />
    <polyline
       fill="none"
       stroke="none"
       stroke-linecap="round"
       stroke-linejoin="round"
       stroke-width="2"
       points="24.457 15.353 20.109 16.399 18.336 20.505"
       id="polyline14" />
    <polyline
       fill="none"
       stroke="none"
       stroke-linecap="round"
       stroke-linejoin="round"
       stroke-width="2"
       points="49.889 58.006 51.406 53.799 55.681 52.488"
       id="polyline16" />
    <polyline
       fill="none"
       stroke="none"
       stroke-linecap="round"
       stroke-linejoin="round"
       stroke-width="2"
       points="45.342 51.94 47.801 48.205 52.264 47.93"
       id="polyline18" />
    <polyline
       fill="none"
       stroke="none"
       stroke-linecap="round"
       stroke-linejoin="round"
       stroke-width="2"
       points="42.308 45.113 45.585 42.069 49.986 42.864"
       id="polyline20" />
    <polyline
       fill="none"
       stroke="none"
       stroke-linecap="round"
       stroke-linejoin="round"
       stroke-width="2"
       points="41.003 37.918 44.924 35.767 48.997 37.613"
       id="polyline22" />
    <polyline
       fill="none"
       stroke="none"
       stroke-linecap="round"
       stroke-linejoin="round"
       stroke-width="2"
       points="41.705 29.888 46.037 28.777 49.525 31.576"
       id="polyline24" />
    <polyline
       fill="none"
       stroke="none"
       stroke-linecap="round"
       stroke-linejoin="round"
       stroke-width="2"
       points="44.334 21.957 48.806 21.938 51.504 25.505"
       id="polyline26" />
    <polyline
       fill="none"
       stroke="none"
       stroke-linecap="round"
       stroke-linejoin="round"
       stroke-width="2"
       points="48.543 15.353 52.891 16.399 54.664 20.505"
       id="polyline28" />
    <path
       fill="none"
       stroke="#000"
       stroke-linecap="round"
       stroke-miterlimit="10"
       stroke-width="2"
       d="m 18,14.5579 a 27.9882,27.9882 0 0 1 0,42.8842"
       id="path30" />
    <path
       fill="none"
       stroke="#000"
       stroke-linecap="round"
       stroke-miterlimit="10"
       stroke-width="2"
       d="m 54.5,14.991 a 27.98,27.98 0 0 0 0,42.018"
       id="path32" />
    <polyline
       fill="none"
       stroke="#000"
       stroke-linecap="round"
       stroke-linejoin="round"
       stroke-width="2"
       points="23.111 58.006 21.594 53.799 17.319 52.488"
       id="polyline34" />
    <polyline
       fill="none"
       stroke="#000"
       stroke-linecap="round"
       stroke-linejoin="round"
       stroke-width="2"
       points="27.658 51.94 25.199 48.205 20.736 47.93"
       id="polyline36" />
    <polyline
       fill="none"
       stroke="#000"
       stroke-linecap="round"
       stroke-linejoin="round"
       stroke-width="2"
       points="27.658 51.94 25.199 48.205 20.736 47.93"
       id="polyline38" />
    <polyline
       fill="none"
       stroke="#000"
       stroke-linecap="round"
       stroke-linejoin="round"
       stroke-width="2"
       points="30.692 45.113 27.415 42.069 23.014 42.864"
       id="polyline40" />
    <polyline
       fill="none"
       stroke="#000"
       stroke-linecap="round"
       stroke-linejoin="round"
       stroke-width="2"
       points="31.997 37.918 28.076 35.767 24.003 37.613"
       id="polyline42" />
    <polyline
       fill="none"
       stroke="#000"
       stroke-linecap="round"
       stroke-linejoin="round"
       stroke-width="2"
       points="31.295 29.888 26.963 28.777 23.475 31.576"
       id="polyline44" />
    <polyline
       fill="none"
       stroke="#000"
       stroke-linecap="round"
       stroke-linejoin="round"
       stroke-width="2"
       points="28.666 21.957 24.194 21.938 21.496 25.505"
       id="polyline46" />
    <polyline
       fill="none"
       stroke="#000"
       stroke-linecap="round"
       stroke-linejoin="round"
       stroke-width="2"
       points="24.457 15.353 20.109 16.399 18.336 20.505"
       id="polyline48" />
    <polyline
       fill="none"
       stroke="#000"
       stroke-linecap="round"
       stroke-linejoin="round"
       stroke-width="2"
       points="49.889 58.006 51.406 53.799 55.681 52.488"
       id="polyline50" />
    <polyline
       fill="none"
       stroke="#000"
       stroke-linecap="round"
       stroke-linejoin="round"
       stroke-width="2"
       points="45.342 51.94 47.801 48.205 52.264 47.93"
       id="polyline52" />
    <polyline
       fill="none"
       stroke="#000"
       stroke-linecap="round"
       stroke-linejoin="round"
       stroke-width="2"
       points="42.308 45.113 45.585 42.069 49.986 42.864"
       id="polyline54" />
    <polyline
       fill="none"
       stroke="#000"
       stroke-linecap="round"
       stroke-linejoin="round"
       stroke-width="2"
       points="41.003 37.918 44.924 35.767 48.997 37.613"
       id="polyline56" />
    <polyline
       fill="none"
       stroke="#000"
       stroke-linecap="round"
       stroke-linejoin="round"
       stroke-width="2"
       points="41.705 29.888 46.037 28.777 49.525 31.576"
       id="polyline58" />
    <polyline
       fill="none"
       stroke="#000"
       stroke-linecap="round"
       stroke-linejoin="round"
       stroke-width="2"
       points="44.334 21.957 48.806 21.938 51.504 25.505"
       id="polyline60" />
    <polyline
       fill="none"
       stroke="#000"
       stroke-linecap="round"
       stroke-linejoin="round"
       stroke-width="2"
       points="48.543 15.353 52.891 16.399 54.664 20.505"
       id="polyline62" />
    <circle
       cx="36"
       cy="36"
       r="28"
       fill="none"
       stroke="#000"
       stroke-miterlimit="10"
       stroke-width="2"
       id="circle64" />
  </g>
</g></svg>