<svg xmlns="http://www.w3.org/2000/svg" width="24" height="24" viewBox="0 0 24 24"> <g transform="translate(0.46209959984780014 0.0) scale(0.4508249194375869)">
  
  <g
     id="line"
     transform="translate(-15.781992,-8.5808)">
    <path
       d="m 16.9082,58.9834 c -0.4844,0 -0.9102,-0.3525 -0.9863,-0.8467 -0.041,-0.2695 -0.9727,-6.6328 2.581,-10.7754 1.8809,-2.1914 4.627,-3.3261 8.166,-3.375 0.3672,-0.1035 0.7666,0.0235 1.0157,0.3116 3.0508,2.0175 5.5049,3.2656 8.1631,3.2783 2.7226,-0.0127 5.2294,-1.3213 8.3828,-3.4239 0.3886,-0.2587 0.9052,-0.2138 1.2441,0.1075 0.3379,0.3222 0.4092,0.8359 0.169,1.2373 -1.6524,2.7705 -7.2334,11.8652 -9.6397,12.5625 -1.9541,0.5713 -5.2012,-3.4942 -9.6621,-12.0645 -2.7637,0.1065 -4.8857,1 -6.3145,2.6612 -2.956,3.4365 -2.1377,9.1201 -2.1289,9.1777 0.083,0.5449 -0.292,1.0547 -0.8379,1.1387 -0.0507,0.0078 -0.1015,0.0107 -0.1523,0.0107 z M 29.6025,47.7959 c 2.3633,4.1709 4.9024,7.9229 5.9258,8.3096 0.9912,-0.4873 3.6455,-4.1123 6.2305,-8.1358 -1.9512,0.9991 -3.7979,1.5782 -5.8047,1.6055 -0.0215,10e-4 -0.0449,0 -0.0664,10e-4 -0.0078,0 -0.0156,0 -0.0234,0 h -0.0332 c -0.0157,9e-4 -0.0323,9e-4 -0.0479,0 -0.0146,0 -0.0283,0 -0.042,-10e-4 -2.1211,-0.0283 -4.0635,-0.6748 -6.1387,-1.7793 z"
       id="path2" />
    <path
       fill="none"
       stroke="#000"
       stroke-linecap="round"
       stroke-linejoin="round"
       stroke-miterlimit="10"
       stroke-width="2"
       d="m 57.2934,48.1898 -5.5,11.38 c -0.44,0.91 -1.47,1.45 -2.43,1.17 -1.24,-0.37 -1.8,-1.72 -1.26,-2.83 l 5.54,-11.48"
       id="path4" />
    <path
       fill="none"
       stroke="#000"
       stroke-linecap="round"
       stroke-linejoin="round"
       stroke-miterlimit="10"
       stroke-width="2"
       d="m 56.4134,38.2698 -1.93,-1.59 c -1.52,-0.74 -3.36,-0.1 -4.09,1.43 l -1.64,3.38 c -0.74,1.53 -0.1,3.36 1.43,4.1 l 2.52,0.54 0.96,0.21 h 0.02 l 3.65,1.76 0.02,0.02 0.53,0.44 2.05,1.74 c 1.52,0.73 3.36,0.09 4.1,-1.43 l 1.63,-3.39 c 0.74,-1.52 0.1,-3.36 -1.43,-4.09 l -2.54,-0.51 -0.8,-0.16 -3.64,-1.76 z"
       id="path6" />
    <line
       x1="61.6534"
       x2="58.243401"
       y1="41.0798"
       y2="48.129799"
       fill="none"
       stroke="#000"
       stroke-linecap="round"
       stroke-linejoin="round"
       stroke-miterlimit="10"
       stroke-width="2"
       id="line8" />
    <line
       x1="52.833401"
       x2="56.243401"
       y1="45.519798"
       y2="38.469799"
       fill="none"
       stroke="#000"
       stroke-linecap="round"
       stroke-linejoin="round"
       stroke-miterlimit="10"
       stroke-width="2"
       id="line10" />
    <path
       d="m 32.0244,54.6201 c -0.208,0 -0.417,-0.0644 -0.5967,-0.1982 -0.4423,-0.3301 -0.5341,-0.9571 -0.2041,-1.3994 l 3.7598,-5.044 c 0.1904,-0.2558 0.4883,-0.4053 0.8135,-0.4023 0.3203,0.0039 0.6181,0.1601 0.8037,0.4209 l 3.3779,4.7597 c 0.3194,0.4512 0.2139,1.0752 -0.2363,1.3946 -0.4512,0.3203 -1.0742,0.2129 -1.3945,-0.2364 l -2.5821,-3.6386 -2.9385,3.9414 c -0.1962,0.2636 -0.497,0.4023 -0.8027,0.4023 z"
       id="path12" />
    <path
       d="m 41.9529,27.0468 c 0,1.1046 -0.8954,2 -2,2 -1.1046,0 -2,-0.8954 -2,-2 0,-1.1046 0.8954,-2 2,-2 1.1044,4e-4 1.9996,0.8956 2,2"
       id="path14" />
    <path
       d="m 33.9529,27.0468 c 0,1.1046 -0.8954,2 -2,2 -1.1046,0 -2,-0.8954 -2,-2 0,-1.1046 0.8954,-2 2,-2 1.1044,4e-4 1.9996,0.8956 2,2"
       id="path16" />
    <path
       d="m 35.9527,37.0492 c -1.2005,-0.0116 -2.3813,-0.3055 -3.4472,-0.8579 -0.494,-0.247 -0.6943,-0.8477 -0.4473,-1.3418 0.247,-0.4941 0.8477,-0.6943 1.3418,-0.4473 1.5934,0.8593 3.5121,0.8593 5.1055,0 0.494,-0.247 1.0947,-0.0468 1.3418,0.4473 0.2471,0.4941 0.0468,1.0947 -0.4473,1.3418 -1.0659,0.5524 -2.2468,0.8463 -3.4473,0.8579 z"
       id="path18" />
    <path
       fill="none"
       stroke="#000"
       stroke-linecap="round"
       stroke-linejoin="round"
       stroke-width="2"
       d="m 26,36.5808 c -4,0 -4,-6 -4,-13 0,-7 4,-14 14,-14 10,0 14,7 14,14 0,7 0,13 -4,13"
       id="path20" />
    <path
       fill="none"
       stroke="#000"
       stroke-linejoin="round"
       stroke-width="2"
       d="m 24.9365,28.5808 c 0,9 4.9365,14 11,14 5.9365,0 11.0635,-5 11.0635,-14 0.0245,-1.7187 -0.3164,-3.4229 -1,-5 -3,-3 -7,-8 -7,-8 -4,3 -7,6 -13,7.0005 0,-5e-4 -1.0635,0.9987 -1.0635,5.9995 z"
       id="path22" />
  </g>
</g></svg>