<svg xmlns="http://www.w3.org/2000/svg" width="24" height="24" viewBox="0 0 24 24"> <g transform="translate(0.0 2.8648816138588398) scale(0.3398635037364098)">
  
  <g
     id="line"
     transform="translate(-0.71681834,-9.1463284)">
    <polyline
       fill="none"
       stroke="#000"
       stroke-linecap="round"
       stroke-linejoin="round"
       stroke-miterlimit="10"
       stroke-width="1.9"
       points="11.2649,40.762 8.0651,42.558 9.731,34.5816 1.6667,33.4196 7.7025,27.9466 1.8613,22.2652 9.9649,21.3884 8.5716,13.3574 15.644,17.4142 19.239,10.0962 22.5746,17.5334 29.7833,13.7289 28.1174,21.7053 36.1818,22.8673 33.2577,25.2498"
       id="polyline2" />
    <path
       fill="none"
       stroke="#000"
       stroke-linecap="round"
       stroke-linejoin="round"
       stroke-miterlimit="10"
       stroke-width="1.9"
       d="M 14.2551,37.865 C 10.6383,36.1248 8.142,32.4256 8.142,28.1434 c 0,-5.9549 4.8274,-10.7822 10.7822,-10.7822 5.59,0 10.1864,4.2539 10.7287,9.7012"
       id="path4" />
    <path
       fill="none"
       stroke="#000"
       stroke-linecap="round"
       stroke-linejoin="round"
       stroke-miterlimit="10"
       stroke-width="2"
       d="m 20.9631,37.7488 c -0.0366,0.4183 -0.3756,0.7568 -0.7953,0.8018 -5.0879,0.545 -9.0012,5.5548 -9.0012,11.6528 0,6.462 4.4814,11.7005 10.0096,11.7005 h 38.1602 c 6.0734,0 10.997,-5.536 10.997,-12.3649 0,-6.5444 -4.5218,-11.9014 -10.2441,-12.3364 C 59.6515,37.1693 59.2965,36.8629 59.213,36.4341 57.9347,29.8699 52.0377,24.937 45.0659,24.937 c -4.531,0 -8.5673,2.0513 -11.1884,5.3146 -0.2561,0.3189 -0.686,0.465 -1.0641,0.3064 -1.0086,-0.423 -2.0738,-0.6277 -3.2657,-0.6277 -4.5039,0 -8.2008,3.4372 -8.5846,7.8185 z"
       id="path6" />
  </g>
</g></svg>