<svg xmlns="http://www.w3.org/2000/svg" width="24" height="24" viewBox="0 0 24 24"> <g transform="translate(2.612659713475411 0.0) scale(0.4677742430287166)">
  
  <g
     id="line"
     transform="translate(-15.829801,-7.3682)">
    <path
       d="m 49.361,54.9954 c 0,1.1045 -0.8965,2 -2,2 -1.1035,0 -2,-0.8955 -2,-2 0,-1.1035 0.8965,-2 2,-2 1.1035,0 2,0.8965 2,2"
       id="path2" />
    <path
       fill="none"
       stroke="#000"
       stroke-linecap="round"
       stroke-linejoin="round"
       stroke-miterlimit="10"
       stroke-width="2"
       d="m 16.9579,57.675 c 0,0 -2,-13 10,-13 3.16,2.09 5.86,3.55 8.88,3.59 h 0.12 c 2.96,-0.04 5.63,-1.44 8.7,-3.47 0.06,-0.04 0.12,-0.08 0.18,-0.12 12,0 10,13 10,13"
       id="path4" />
    <polyline
       fill="none"
       stroke="#000"
       stroke-linecap="round"
       stroke-linejoin="round"
       stroke-miterlimit="10"
       stroke-width="2"
       points="26.9579,44.675 30.7079,53.555 33.2679,50.915 35.8379,48.265"
       id="polyline6" />
    <line
       x1="38.387901"
       x2="35.837898"
       y1="50.884998"
       y2="48.264999"
       fill="none"
       stroke="#000"
       stroke-linecap="round"
       stroke-linejoin="round"
       stroke-miterlimit="10"
       stroke-width="2"
       id="line8" />
    <polyline
       fill="none"
       stroke="#000"
       stroke-linecap="round"
       stroke-linejoin="round"
       stroke-miterlimit="10"
       stroke-width="2"
       points="44.7079,44.675 44.6579,44.795 40.9679,53.555 38.3879,50.895"
       id="polyline10" />
    <path
       fill="none"
       stroke="#000"
       stroke-linecap="round"
       stroke-linejoin="round"
       stroke-miterlimit="10"
       stroke-width="2"
       d="m 33.4279,51.065 c 0.14,1.5 0.72,3.01 2.47,3.01 1.83,0 2.38,-1.62 2.49,-3.18 v -0.01"
       id="path12" />
    <line
       x1="35.047901"
       x2="32.637901"
       y1="54.075001"
       y2="57.674999"
       fill="none"
       stroke="#000"
       stroke-linecap="round"
       stroke-linejoin="round"
       stroke-miterlimit="10"
       stroke-width="2"
       id="line14" />
    <line
       x1="36.747898"
       x2="39.1679"
       y1="54.075001"
       y2="57.674999"
       fill="none"
       stroke="#000"
       stroke-linecap="round"
       stroke-linejoin="round"
       stroke-miterlimit="10"
       stroke-width="2"
       id="line16" />
    <path
       d="m 26.9629,57.1289 h -5.8447 c -0.5528,0 -1,-0.4473 -1,-1 0,-0.5527 0.4472,-1 1,-1 h 5.8447 c 0.5527,0 1,0.4473 1,1 0,0.5527 -0.4473,1 -1,1 z"
       id="path18" />
    <path
       d="m 39.9734,24.815 c 1.11,0 2,0.9 2,2 0,1.11 -0.89,2 -2,2 -1.1,0 -2,-0.89 -2,-2 0,-1.1 0.9,-2 2,-2 z"
       id="path20" />
    <path
       d="m 31.9734,24.815 c 1.11,0 2,0.9 2,2 0,1.11 -0.89,2 -2,2 -1.1,0 -2,-0.89 -2,-2 0,-1.1 0.9,-2 2,-2 z"
       id="path22" />
    <path
       d="m 36.0224,36.8208 c -1.1518,0 -2.3037,-0.2861 -3.4472,-0.8579 -0.4942,-0.2471 -0.6944,-0.8476 -0.4473,-1.3418 0.2466,-0.4936 0.8462,-0.6943 1.3418,-0.4472 1.7178,0.8593 3.3877,0.8593 5.1055,0 0.4946,-0.2471 1.0947,-0.0464 1.3418,0.4472 0.247,0.4942 0.0468,1.0947 -0.4473,1.3418 -1.1436,0.5718 -2.2954,0.8579 -3.4473,0.8579 z"
       id="path24" />
    <path
       d="m 36.0225,43.3525 c -6.4161,0 -11.6983,-5.916 -12.2862,-13.7607 l 1.9942,-0.1504 c 0.5009,6.6797 5.0215,11.9111 10.292,11.9111 5.2578,0 9.6728,-5.0136 10.2714,-11.663 0.045,-0.5 0.0674,-1.0083 0.0674,-1.5103 h 2 c 0,0.561 -0.0254,1.1294 -0.0752,1.689 -0.6923,7.6875 -5.9638,13.4843 -12.2636,13.4843 z"
       id="path26" />
    <path
       d="m 36.0928,17.5562 c -2.9346,0 -3.4756,-4.3345 -3.5274,-4.8287 -0.0361,-0.3437 0.1075,-0.6816 0.3799,-0.894 1.9815,-1.5425 4.9697,-1.2002 6.3184,0.1362 0.2109,0.2095 0.3183,0.5025 0.292,0.7989 -0.044,0.4897 -0.5098,4.7827 -3.458,4.7876 -0.002,0 -0.0039,0 -0.0049,0 z m 0.001,-2 0.0019,1 -0.0019,-1 c 0.7539,-0.001 1.2119,-1.4581 1.3916,-2.42 -0.669,-0.3369 -1.8467,-0.499 -2.835,-0.02 0.2187,1.0708 0.7324,2.44 1.4424,2.44 0.001,0 0.001,0 0.001,0 z"
       id="path28" />
    <path
       d="m 24.6318,31.0176 c -0.3017,0 -0.5918,-0.1367 -0.7832,-0.3789 -1.4687,-1.8565 -2.0664,-3.772 -1.7773,-5.6939 0.4814,-3.2016 3.2871,-5.1675 3.4062,-5.25 l 0.7246,-0.5498 c 0.4405,-0.334 1.0674,-0.2461 1.4004,0.1934 0.334,0.4404 0.2471,1.0679 -0.1933,1.4013 l -0.7608,0.5762 c -0.0556,0.0401 -2.2578,1.6011 -2.6015,3.9395 -0.1309,0.8916 0.0263,1.8027 0.4677,2.7231 1.2686,-2.1982 4.1358,-5.8188 9.5196,-6.5762 0.5586,-0.0839 1.0527,0.3042 1.1299,0.8511 0.0771,0.5469 -0.3037,1.0528 -0.8506,1.1294 -6.46,0.9087 -8.6504,6.7285 -8.7403,6.9756 -0.124,0.3408 -0.4228,0.5889 -0.7802,0.6465 -0.0537,0.0088 -0.1075,0.0127 -0.1612,0.0127 z"
       id="path30" />
    <path
       d="m 36.2979,23.459 c -4.6973,0 -9.2071,-1.5288 -11.669,-3.9951 -0.2851,-0.2862 -0.3701,-0.7163 -0.2158,-1.0899 0.1553,-0.373 0.5195,-0.6167 0.9238,-0.6167 h 21.0684 c 0.3896,0 0.7441,0.2266 0.9072,0.5801 0.1641,0.3535 0.1074,0.7705 -0.1455,1.0674 -2.0313,2.3921 -5.6787,3.8633 -10.0059,4.0371 -0.2881,0.0112 -0.5761,0.0171 -0.8632,0.0171 z m -7.8243,-3.7017 c 2.333,1.1797 5.4317,1.8125 8.6075,1.6861 2.5634,-0.1031 4.8271,-0.6978 6.538,-1.6861 z"
       id="path32" />
    <path
       d="m 47.7324,23.4595 c -0.2236,0 -0.4492,-0.0752 -0.6357,-0.229 -0.4258,-0.3521 -0.4863,-0.9825 -0.1338,-1.4082 l 2.248,-2.7207 c 0.5166,-0.6241 0.836,-1.5703 0.8086,-1.9424 -2.5966,-0.7202 -4.1435,-2.3057 -5.6396,-3.8399 -1.9815,-2.0317 -3.8535,-3.9511 -8.3125,-3.9511 -4.46,0 -6.332,1.9194 -8.3135,3.9511 -1.4971,1.5347 -3.0439,3.1202 -5.6396,3.8399 -0.0264,0.3721 0.2929,1.3183 0.8086,1.9424 l 2.0117,2.434 c 0.3525,0.4258 0.292,1.0562 -0.1338,1.4082 -0.4268,0.3531 -1.0567,0.292 -1.4072,-0.1337 L 21.3818,20.376 c -0.6718,-0.813 -1.5791,-2.5943 -1.1562,-3.9151 0.1973,-0.6128 0.6484,-1.0415 1.2715,-1.207 2.1259,-0.564 3.4365,-1.9077 4.8252,-3.3306 2.082,-2.1352 4.4423,-4.5551 9.7451,-4.5551 5.3017,0 7.6621,2.4199 9.7441,4.5547 1.3887,1.4233 2.6992,2.767 4.8252,3.3315 0.6231,0.165 1.0752,0.5942 1.2715,1.2075 0.4238,1.3218 -0.4844,3.1026 -1.1562,3.9146 l -2.2481,2.7202 c -0.1973,0.2392 -0.4834,0.3628 -0.7715,0.3628 z"
       id="path34" />
    <path
       d="m 47.1748,31.0186 c -0.0566,0 -0.1133,-0.0049 -0.1699,-0.0147 -0.3613,-0.0625 -0.6592,-0.3174 -0.7774,-0.6641 -1.0039,-2.9599 -3.2607,-7.4033 -4.913,-7.541 -0.5508,-0.0459 -0.959,-0.5293 -0.9131,-1.0796 0.0449,-0.5498 0.5136,-0.9658 1.0791,-0.9135 2.6738,0.2231 4.8076,4.3305 5.9082,6.9624 0.3681,-0.8482 0.4922,-1.689 0.3711,-2.5122 C 47.416,22.917 45.2139,21.356 45.1914,21.3403 L 44.4668,20.7495 C 44.04,20.3989 43.9785,19.769 44.3291,19.3418 c 0.3496,-0.4258 0.9785,-0.4897 1.4072,-0.1382 l 0.6602,0.542 c 0.0517,0.0317 2.8574,1.9976 3.3389,5.1992 0.289,1.9219 -0.3086,3.8374 -1.7764,5.6939 -0.1914,0.2422 -0.4815,0.3799 -0.7842,0.3799 z"
       id="path36" />
  </g>
</g></svg>