<svg xmlns="http://www.w3.org/2000/svg" width="24" height="24" viewBox="0 0 24 24"> <g transform="translate(3.4564980008188773 0.0) scale(0.4257785569367674)">
  
  <g
     id="line"
     transform="translate(-15.938001,-8.3877)">
    <path
       fill="none"
       stroke="#000"
       stroke-linecap="round"
       stroke-linejoin="round"
       stroke-width="2"
       d="m 40.0036,63.7112 a 23.9672,23.9672 0 0 0 14.9375,-4.1124 c 0,0 2,-13 -10,-13 -3.1918,2.1279 -5.9264,3.5984 -9,3.5921 h 0.125 c -3.0736,0.0063 -5.8081,-1.4642 -9,-3.5921 -12,0 -10,13 -10,13 9.9776,6.0208 14.368,3.708 28.1188,-1.5619 l 0.6171,-3.5208 -24.0677,1.35"
       id="path2" />
    <path
       fill="none"
       stroke="#000"
       stroke-linecap="round"
       stroke-linejoin="round"
       stroke-width="2"
       d="m 45.5218,50.5618 0.797,2.48 -1.1339,4.9948"
       id="path4" />
    <path
       d="m 42.0036,28.738 a 2,2 0 1 1 -2,-2 2.0007,2.0007 0 0 1 2,2"
       id="path6" />
    <path
       d="m 34.0036,28.738 a 2,2 0 1 1 -2,-2 2.0007,2.0007 0 0 1 2,2"
       id="path8" />
    <path
       d="m 36.0035,38.74 a 7.6528,7.6528 0 0 1 -3.4473,-0.8579 1.0001485,1.0001485 0 0 1 0.8946,-1.7891 5.3772,5.3772 0 0 0 5.1054,0 1.0001485,1.0001485 0 0 1 0.8946,1.7891 7.6528,7.6528 0 0 1 -3.4473,0.8579 z"
       id="path10" />
    <path
       fill="none"
       stroke="#000"
       stroke-linecap="round"
       stroke-linejoin="round"
       stroke-width="2"
       d="m 34.006,21.7177 c -1.28,0.77 -2.47,1.53 -3.53,2.24 -3.13,2.09 -5.21,3.75 -5.7,4.14 -0.07,0.06 -0.11,0.09 -0.11,0.09 0,0 -3.96,-5.34 -2.24,-10.72 0,0 2.24,-8.08 13.04,-8.08 7.7,0 11.59,3.17 13.71,5.29 5.58,7.91 -0.72,12.65 -1.94,13.47 -0.13,0.09 -0.2,0.13 -0.2,0.13 0,0 -4.41,-3.38 -9.03,-7.75"
       id="path12" />
    <path
       fill="none"
       stroke="#000"
       stroke-linecap="round"
       stroke-linejoin="round"
       stroke-width="2"
       d="m 37.976,19.4577 a 66.4314,66.4314 0 0 1 11.2,-4.78"
       id="path14" />
    <path
       fill="none"
       stroke="#000"
       stroke-linecap="round"
       stroke-linejoin="round"
       stroke-width="2"
       d="m 36.0036,25.7654 v 0 a 2,2 0 0 1 -2,-2 v -4 a 2,2 0 0 1 2,-2 v 0 a 2,2 0 0 1 2,2 v 4 a 2,2 0 0 1 -2,2 z"
       id="path16" />
    <line
       x1="40.7729"
       x2="40.7729"
       y1="54.9161"
       y2="59.664501"
       fill="none"
       stroke="#000"
       stroke-linecap="round"
       stroke-linejoin="round"
       stroke-width="2"
       id="line18" />
    <path
       fill="none"
       stroke="#000"
       stroke-linecap="round"
       stroke-linejoin="round"
       stroke-width="2"
       d="m 24.7429,28.2805 a 17.8611,17.8611 0 0 0 -0.0948,1.8417 c 0,7.8276 5.0765,14.1732 11.3386,14.1732 6.2621,0 11.3386,-6.3454 11.3386,-14.1732 a 17.8264,17.8264 0 0 0 -0.101,-1.9"
       id="path20" />
  </g>
</g></svg>