<svg xmlns="http://www.w3.org/2000/svg" width="24" height="24" viewBox="0 0 24 24"> <g transform="scale(0.41379310344827586)">
  
  <g
     id="line"
     transform="translate(-7,-7)">
    <g
       id="line-2">
      <circle
         cx="36"
         cy="36"
         r="28"
         fill="none"
         stroke="#000"
         stroke-linejoin="round"
         stroke-width="2"
         id="circle2" />
    </g>
    <path
       fill="none"
       stroke="#000"
       stroke-linejoin="round"
       stroke-width="2"
       d="m 47.8262,28.9883 c 0,-4.3979 -3.5781,-7.9761 -7.9756,-7.9761 H 29.1738 c -0.5527,0 -1,0.4478 -1,1 v 28 c 0,0.5522 0.4473,1 1,1 0.5527,0 1,-0.4478 1,-1 V 36.9604 h 9.2615 l 5.8088,13.4453 c 0.1631,0.3779 0.5312,0.604 0.9189,0.604 0.1318,0 0.2666,-0.0269 0.3955,-0.0825 0.5068,-0.2192 0.7402,-0.8076 0.5215,-1.3145 l -5.5452,-12.835 c 3.5908,-0.7753 6.2913,-3.9715 6.2913,-7.7896 z m -7.9756,5.9722 H 30.1738 V 23.0123 h 9.6768 c 3.2949,0 5.9756,2.6807 5.9756,5.9761 0,3.293 -2.6807,5.9722 -5.9756,5.9722 z"
       id="path5" />
  </g>
</g></svg>