<svg xmlns="http://www.w3.org/2000/svg" width="24" height="24" viewBox="0 0 24 24"> <g transform="translate(3.635525259515571 0.0) scale(0.46136101499423293)">
  
  <g
     id="line"
     transform="translate(-17.87,-9.99)">
    <path
       fill="none"
       stroke="#000"
       stroke-linecap="round"
       stroke-linejoin="round"
       stroke-miterlimit="10"
       stroke-width="2"
       d="m 53.13,28.38 v 2.91 c 0,1.6569 -1.3431,3 -3,3 h -6.68 c -1.6569,0 -3,1.3431 -3,3 v 20.72 c 0,1.6569 -1.3431,3 -3,3 h -2.9 c -1.6569,0 -3,-1.3431 -3,-3 V 37.29 c 0,-1.6569 -1.3431,-3 -3,-3 h -6.68 c -1.6569,0 -3,-1.3431 -3,-3 v -2.91 c 0,-1.6569 1.3431,-3 3,-3 h 6.6799 c 1.6569,0 3,-1.3431 3,-3 v -8.39 c 0,-1.6569 1.3431,-3 3,-3 h 2.9 c 1.6569,0 3,1.3431 3,3 v 8.39 c 0,1.6569 1.3431,3 3,3 H 50.13 c 1.6569,0 3,1.3432 3,3 z"
       id="path2" />
  </g>
</g></svg>