<svg xmlns="http://www.w3.org/2000/svg" width="24" height="24" viewBox="0 0 24 24"> <g transform="translate(0.0 4.099273700770046) scale(0.3780371921495474)">
  
  <g
     id="line"
     transform="translate(-3.8683848,-15.214248)">
    <path
       fill="none"
       stroke="#000"
       stroke-linecap="round"
       stroke-linejoin="round"
       stroke-miterlimit="10"
       stroke-width="2"
       d="m 12.46,35.74 c -2.333,1 -4.917,0.8333 -4.917,0.8333 -1.677,0.1458 -3.115,-4.01 -2.485,-4.733 l 3.318,-5.1 -1.75,-3.417 c 0,0 5.008,-1.415 7.883,2.09 0.3444,0.42 0.7943,0.7429 1.279,0.9871 0.0298,0.015 0.0602,0.0302 0.0912,0.0456 2.593,1.289 5.546,1.571 8.385,0.9981 7.222,-1.458 14.07,-1.37 21.7,2.212 7.625,3.583 14.53,-2.25 13.64,-7.5 -0.793,-4.647 3.562,-7.583 6.75,-5"
       id="path2" />
    <path
       fill="none"
       stroke="#000"
       stroke-linecap="round"
       stroke-linejoin="round"
       stroke-miterlimit="10"
       stroke-width="2"
       d="m 16.05,48.82 c 0.6006,-2.206 8.491,-3.648 8.491,-3.648 0,0 3.228,-1.201 1.426,-4.504"
       id="path4" />
    <path
       fill="none"
       stroke="#000"
       stroke-linecap="round"
       stroke-linejoin="round"
       stroke-miterlimit="10"
       stroke-width="2"
       d="m 18.3,33.24 c -1.543,1.834 -3.893,4.803 -0.44,9.158 0,0 -6.756,2.853 -6.006,8.033 0,0 0.3624,2.476 2.402,2.402"
       id="path6" />
    <path
       fill="none"
       stroke="#000"
       stroke-linecap="round"
       stroke-linejoin="round"
       stroke-miterlimit="10"
       stroke-width="2"
       d="m 23.5,50.03 c -1.156,7.254 2.386,6.055 3.017,5.661 1.148,-0.7173 1.848,-9.854 3.952,-11.31 1.592,-1.104 8.167,-0.3021 8.167,-0.3021"
       id="path8" />
    <path
       fill="none"
       stroke="#000"
       stroke-linecap="round"
       stroke-linejoin="round"
       stroke-miterlimit="10"
       stroke-width="2"
       d="m 38.44,41.33 c 0.0911,1.742 0.7529,3.402 1.734,4.845 0.6616,0.9727 1.803,2.32 1.453,2.985 -4.479,8.5 0.6224,7.022 1.083,6.167 3.188,-5.917 6.125,-4.104 4.647,-10.52 0,0 5.27,-1.81 5.52,-7.977"
       id="path10" />
    <path
       fill="none"
       stroke="#000"
       stroke-linecap="round"
       stroke-linejoin="round"
       stroke-miterlimit="10"
       stroke-width="2"
       d="m 48.15,45.59 c 0,0 2.367,3.204 7.758,2.693 0,0 -3.326,6.762 0,7.62 1.917,0.4941 4.722,-11.16 4.722,-11.16 0,0 -1.839,-0.7937 -3.951,-4.182"
       id="path12" />
  </g>
</g></svg>