<svg xmlns="http://www.w3.org/2000/svg" width="24" height="24" viewBox="0 0 24 24"> <g transform="translate(0.00002586549462968435 0.0) scale(0.4880282005468925)">
  
  <g
     id="line"
     transform="translate(-11.989837,-10.989741)">
    <path
       fill="none"
       stroke="#000"
       stroke-linecap="round"
       stroke-miterlimit="10"
       stroke-width="2"
       d="M 16.0302,55.9368 C 14.4335,54.2639 14.094,51.844 15.0118,49.8556 10.7553,41.5083 13.3365,29.596 21.9662,20.9662 c 8.6297,-8.6298 20.542,-11.211 28.8894,-6.9545 2.026,-0.9351 4.4999,-0.5649 6.1752,1.1104 1.6753,1.6753 2.0455,4.1493 1.1104,6.1752 4.2661,8.3571 1.6753,20.2596 -6.9545,28.8894 -8.6298,8.6298 -20.5323,11.2207 -28.8894,6.9544 -2.026,0.9351 -4.5,0.5649 -6.1753,-1.1103 -0.031,-0.031 -0.0616,-0.0624 -0.0918,-0.094"
       id="path2" />
    <path
       fill="none"
       stroke="#000"
       stroke-linecap="round"
       stroke-miterlimit="10"
       stroke-width="2"
       d="M 16.0302,55.9368 C 14.4335,54.2639 14.094,51.844 15.0118,49.8556 10.7553,41.5083 13.3365,29.596 21.9662,20.9662 c 8.6297,-8.6298 20.542,-11.211 28.8894,-6.9545 2.026,-0.9351 4.4999,-0.5649 6.1752,1.1104 1.6753,1.6753 2.0455,4.1493 1.1104,6.1752 4.2661,8.3571 1.6753,20.2596 -6.9545,28.8894 -8.6298,8.6298 -20.5323,11.2207 -28.8894,6.9544 -2.026,0.9351 -4.5,0.5649 -6.1753,-1.1103 -0.031,-0.031 -0.0616,-0.0624 -0.0918,-0.094"
       id="path4" />
  </g>
</g></svg>