<svg xmlns="http://www.w3.org/2000/svg" width="24" height="24" viewBox="0 0 24 24"> <g transform="translate(2.6821532483496124 0.0) scale(0.3719407985550348)">
  
  <g
     id="line"
     transform="translate(-11.978188,-3.505)">
    <path
       fill="none"
       stroke="#000"
       stroke-linecap="round"
       stroke-linejoin="round"
       stroke-miterlimit="10"
       stroke-width="2"
       d="m 41,12 c 3.3439,-0.5011 6.7458,-0.4799 10.4994,2.0511 7.8693,5.3059 8.1448,17.1677 8.1532,17.6704 0.0056,0.3848 -0.1372,0.7497 -0.3839,0.9795 -0.167,0.1563 -0.3688,0.2379 -0.5724,0.2379 -0.0972,0 -0.1942,-0.0187 -0.2886,-0.056 C 57.8743,32.6727 46.6569,28.2104 39,18"
       id="path2" />
    <path
       fill="none"
       stroke="#000"
       stroke-linecap="round"
       stroke-linejoin="round"
       stroke-miterlimit="10"
       stroke-width="2"
       d="m 40.445,27.9895 -5.4208,2.6931 c -0.6447,0.3203 -0.978,1.0867 -0.7746,1.8045 1.2382,4.368 5.9416,19.1975 15.1459,28.9456 0.5127,0.5431 1.346,0.5627 1.9107,0.0672 l 9.2458,-8.1146 c 0.7049,-0.6187 0.7032,-1.763 -0.0138,-2.3489 C 57.413,48.4832 49.6648,41.3885 42.2511,28.5692 41.8759,27.9204 41.1009,27.6636 40.445,27.9895 Z"
       id="path4" />
    <path
       d="M 15.9497,13.5739 C 15.9629,10.6442 15.418,7.8674 14.4092,5.6891 14.6709,5.5949 15.0957,5.4918 15.6763,5.505 L 28.836,5.5636 c 0.5742,0.0024 1.0034,0.0991 1.2646,0.1953 -1.0283,2.1694 -1.5977,4.9414 -1.6108,7.8711 -0.0059,1.3179 0.103,2.7412 0.3154,4.1152 0.1804,1.1668 0.4319,2.2573 0.733,3.2396 H 31.64 c -0.3561,-1.0208 -0.6553,-2.2333 -0.8583,-3.5453 -0.1968,-1.2715 -0.2974,-2.5859 -0.292,-3.8008 0.0127,-2.8184 0.582,-5.4443 1.603,-7.394 C 32.3339,5.7843 32.3183,5.2633 32.0488,4.8155 31.498,3.9005 30.0327,3.5689 28.8447,3.5635 L 15.6855,3.505 c -1.21,0.0195 -2.6558,0.3125 -3.2153,1.2227 -0.2734,0.4453 -0.2944,0.9658 -0.0576,1.4287 1.0039,1.959 1.5498,4.5903 1.5371,7.4087 -0.0114,2.6023 -0.5109,5.3911 -1.2535,7.4198 h 2.1182 c 0.6929,-2.1552 1.1239,-4.818 1.1353,-7.411 z"
       id="path6" />
    <path
       d="m 15.8506,35.7399 c 0.0116,-2.53 -0.4008,-5.3115 -1.1029,-7.5328 H 12.637 c 0.0374,0.1025 0.0764,0.1989 0.1125,0.3057 0.7007,2.0723 1.1123,4.7705 1.1011,7.2183 -0.0111,2.5326 -0.4857,5.2396 -1.1954,7.2538 h 2.1177 c 0.6606,-2.1242 1.0666,-4.7207 1.0777,-7.245 z"
       id="path8" />
    <path
       d="m 30.3906,35.8048 c 0.0118,-2.6768 0.5377,-5.5574 1.316,-7.5977 h -2.119 c -0.728,2.1857 -1.1853,4.9222 -1.197,7.5889 -0.0113,2.4971 0.362,5.0714 0.9913,7.1888 h 2.1103 c -0.6751,-2.0117 -1.1129,-4.6825 -1.1016,-7.18 z"
       id="path10" />
    <path
       d="m 28.5249,54.6486 5e-4,10e-5 c -0.1509,1.1279 -0.2295,2.2431 -0.2339,3.3124 -0.0132,2.9307 0.5317,5.708 1.5405,7.8857 -0.2617,0.0938 -0.6904,0.1797 -1.2671,0.1846 L 15.4057,65.9718 c -0.5742,-0.0029 -1.0039,-0.0996 -1.2651,-0.1953 1.0283,-2.1699 1.5977,-4.9414 1.6108,-7.8711 0.0122,-2.7077 -0.4344,-5.4905 -1.1622,-7.6984 h -2.1128 c 0.7759,2.0511 1.2873,4.9786 1.275,7.6886 -0.0127,2.8193 -0.582,5.4453 -1.603,7.3945 -0.2412,0.4609 -0.2256,0.9814 0.0439,1.4297 0.5508,0.915 2.0166,1.2471 3.2046,1.252 l 13.1592,0.0596 c 0.0098,0 0.019,0 0.0288,0 1.1821,0 2.6309,-0.3203 3.186,-1.2236 0.2734,-0.4443 0.2944,-0.9658 0.0576,-1.4287 -1.0039,-1.959 -1.5498,-4.5898 -1.5371,-7.4092 0.0044,-0.9844 0.0771,-2.0127 0.2163,-3.0557 10e-5,-8e-4 -2e-4,-0.0014 -10e-5,-0.0022 0.2372,-1.7746 0.6535,-3.4259 1.1619,-4.705 H 29.537 c -0.4419,1.2899 -0.7925,2.7973 -1.0121,4.4416 z"
       id="path12" />
  </g>
</g></svg>