<svg xmlns="http://www.w3.org/2000/svg" width="24" height="24" viewBox="0 0 24 24"> <g transform="translate(1.4876982108231456 0.0) scale(0.44330172752097285)">
  
  <g
     id="line"
     transform="translate(-12.786199,-10.8413)">
    <path
       fill="#000"
       stroke="none"
       d="M 38.655,10.8413 H 22.7346 c -1.1045,0 -2,0.8955 -2,2 v 3.4189 c 0,1.1045 0.8955,2 2,2 H 38.655 c 9.3823,0 14.1396,5.5601 14.1396,16.5264 0,10.5693 -4.4155,15.4922 -13.8955,15.4922 H 26.2087 l 1.7612,-1.6172 c 0.8135,-0.7471 0.8672,-2.0122 0.1201,-2.8257 l -2.0293,-2.21 c -0.3589,-0.3911 -0.8584,-0.623 -1.3887,-0.6455 -0.5239,-0.0239 -1.0474,0.1665 -1.438,0.5254 l -9.8013,9.0098 c -0.4121,0.3794 -0.647,0.9136 -0.6465,1.4736 5e-4,0.56 0.2354,1.0942 0.6479,1.4727 l 9.8013,8.9922 c 0.3838,0.3525 0.8682,0.5264 1.3516,0.5264 0.5405,0 1.0791,-0.2178 1.4731,-0.6465 l 2.0293,-2.209 c 0.3589,-0.3916 0.5479,-0.9082 0.5254,-1.4385 -0.0225,-0.5303 -0.2544,-1.0293 -0.645,-1.3877 L 26.2266,57.6982 H 38.899 c 13.5454,0 21.3145,-8.3511 21.3145,-22.9116 C 60.2136,19.793 52.1545,10.8413 38.655,10.8413 Z m 0.244,44.8564 H 21.0921 l 5.5248,5.0743 -2.0293,2.209 -9.8013,-8.9927 9.8013,-9.0097 2.0293,2.21 -5.5427,5.0903 H 38.899 c 10.5479,0 15.8958,-5.8854 15.8958,-17.4921 0,-15.3124 -8.7767,-18.5264 -16.1395,-18.5264 H 22.7344 v -3.4189 h 15.9208 c 12.4294,0 19.5584,7.9988 19.5584,21.9453 1e-4,13.4847 -6.8594,20.9109 -19.3146,20.9109 z"
       id="path2" />
  </g>
</g></svg>