<svg xmlns="http://www.w3.org/2000/svg" width="24" height="24" viewBox="0 0 24 24"> <g transform="translate(0.7829982678009149 0.0) scale(0.4157943071106648)">
  
  <g
     id="line"
     transform="translate(-8.1554283,-7.1906249)">
    <path
       fill="none"
       stroke="#000"
       stroke-linecap="round"
       stroke-linejoin="round"
       stroke-miterlimit="10"
       stroke-width="2"
       d="M 19.92,47.53 C 18.9393,41.003 11.569,24.3 11.625,22.27 c 0.1586,-5.812 10.49,-9.177 12.76,-6.249 0.7559,0.7541 1.984,4.935 1.528,9.273 -1.062,10.12 1.628,15.72 3.893,19.89 1.22,2.848 -0.2223,5.898 -3.228,6.571 -3.006,0.6728 -5.888,-0.7659 -6.661,-4.224 z"
       id="path2" />
    <circle
       cx="9.2349997"
       cy="18.07"
       r="1.04"
       transform="rotate(-1.534)"
       fill="none"
       stroke="#000"
       stroke-linecap="round"
       stroke-linejoin="round"
       stroke-miterlimit="10"
       stroke-width="1.04"
       id="circle4" />
    <circle
       cx="3.2850001"
       cy="18.74"
       r="1.04"
       transform="rotate(-28.82)"
       fill="none"
       stroke="#000"
       stroke-linecap="round"
       stroke-linejoin="round"
       stroke-miterlimit="10"
       stroke-width="1.04"
       id="circle6" />
    <circle
       cx="5.9780002"
       cy="18.35"
       r="1.04"
       transform="rotate(-31.53)"
       fill="none"
       stroke="#000"
       stroke-linecap="round"
       stroke-linejoin="round"
       stroke-miterlimit="10"
       stroke-width="1.04"
       id="circle8" />
    <circle
       cx="17.66"
       cy="11.5"
       r="1.04"
       transform="rotate(-1.534)"
       fill="none"
       stroke="#000"
       stroke-linecap="round"
       stroke-linejoin="round"
       stroke-miterlimit="10"
       stroke-width="1.04"
       id="circle10" />
    <path
       fill="none"
       stroke="#000"
       stroke-linecap="round"
       stroke-linejoin="round"
       stroke-miterlimit="10"
       stroke-width="2"
       d="m 50.09,59.53 c 0.9807,-6.527 8.713,-22.96 8.658,-24.99 -0.1586,-5.812 -10.79,-9.193 -12.81,-6.392 -1.142,0.8976 -1.935,5.439 -1.647,9.219 0.6607,8.697 -1.694,14.58 -3.913,19.27 -1.22,2.848 0.04114,6.441 3.047,7.114 3.006,0.673 5.888,-0.7658 6.661,-4.224 z"
       id="path12" />
    <circle
       cx="60.549999"
       cy="29.940001"
       r="1.04"
       fill="none"
       stroke="#000"
       stroke-linecap="round"
       stroke-linejoin="round"
       stroke-miterlimit="10"
       stroke-width="1.04"
       id="circle14" />
    <circle
       cx="2.783"
       cy="64.349998"
       r="1.04"
       transform="rotate(-62.71)"
       fill="none"
       stroke="#000"
       stroke-linecap="round"
       stroke-linejoin="round"
       stroke-miterlimit="10"
       stroke-width="1.04"
       id="circle16" />
    <circle
       cx="6.263"
       cy="60.5"
       r="1.04"
       transform="rotate(-60)"
       fill="none"
       stroke="#000"
       stroke-linecap="round"
       stroke-linejoin="round"
       stroke-miterlimit="10"
       stroke-width="1.04"
       id="circle18" />
    <circle
       cx="52.259998"
       cy="23.389999"
       r="1.04"
       fill="none"
       stroke="#000"
       stroke-linecap="round"
       stroke-linejoin="round"
       stroke-miterlimit="10"
       stroke-width="1.04"
       id="circle20" />
    <ellipse
       cx="49.939999"
       cy="18.91"
       rx="1.893"
       ry="2.332"
       transform="matrix(0.9973,0.07399,-0.1025,0.9947,0,0)"
       fill="none"
       stroke="#000"
       stroke-linecap="round"
       stroke-linejoin="round"
       stroke-miterlimit="10"
       stroke-width="1.155"
       id="ellipse22" />
    <ellipse
       cx="20.93"
       cy="12.69"
       rx="1.888"
       ry="2.3740001"
       transform="matrix(0.9932,-0.1168,0.1312,0.9914,0,0)"
       fill="none"
       stroke="#000"
       stroke-linecap="round"
       stroke-linejoin="round"
       stroke-miterlimit="10"
       stroke-width="1.164"
       id="ellipse24" />
  </g>
</g></svg>