<svg xmlns="http://www.w3.org/2000/svg" width="24" height="24" viewBox="0 0 24 24"> <g transform="translate(0.0 2.1138395683119953) scale(0.41379416647122075)">
  
  <g
     id="line"
     transform="translate(-7.0000717,-12.217)">
    <path
       fill="none"
       stroke="#000"
       stroke-linecap="round"
       stroke-linejoin="round"
       stroke-width="2"
       d="M 31.037,43.5708 C 28.2283,44.8189 25.2024,45.5049 22.13,45.59 21.3352,45.5992 20.5406,45.5625 19.75,45.48 15.5524,44.9533 11.5322,43.4683 8,41.14 c 2.8158,-2.1842 6.1637,-3.5772 9.6978,-4.035"
       id="path2" />
    <path
       fill="none"
       stroke="#000"
       stroke-linecap="round"
       stroke-linejoin="round"
       stroke-width="2"
       d="m 35.6085,44.5929 c -0.6457,2.4758 -2.1654,4.6344 -4.2785,6.0771 -0.571,0.3918 -1.173,0.7362 -1.8,1.03 -5.42,2.61 -12.96,2.43 -12.96,2.43 -0.2099,-3.2031 0.9454,-6.3455 3.18,-8.65 0.7906,0.0825 1.5852,0.1192 2.38,0.11 3.0724,-0.0851 6.0983,-0.7711 8.907,-2.0192"
       id="path4" />
    <path
       fill="none"
       stroke="#000"
       stroke-linecap="round"
       stroke-linejoin="round"
       stroke-width="2"
       d="m 36.59,44.5242 c 0.7826,2.4929 2.4276,4.6256 4.64,6.0158 0.5928,0.3758 1.2148,0.7035 1.86,0.98 v 0.01 C 42.05,55.91 36,59 36,59 c 0,0 -5.18,-2.95 -6.47,-7.3 0.627,-0.2938 1.229,-0.6382 1.8,-1.03 2.1108,-1.4411 3.6296,-3.5966 4.2764,-6.0693"
       id="path6" />
    <path
       fill="none"
       stroke="#000"
       stroke-linecap="round"
       stroke-linejoin="round"
       stroke-width="2"
       d="m 36.781,45.07 c 0.839,2.2642 2.4032,4.1873 4.449,5.47 0.5928,0.3758 1.2148,0.7035 1.86,0.98 v 0.01 c 5.57,2.47 13.08,2.1 13.08,2.1 0.0203,-3.2395 -1.3095,-6.3412 -3.67,-8.56 -0.4849,-0.4407 -1.0068,-0.8388 -1.56,-1.19 -1.0805,-0.6708 -2.2379,-1.2092 -3.4471,-1.6034"
       id="path8" />
    <path
       fill="none"
       stroke="#000"
       stroke-linecap="round"
       stroke-linejoin="round"
       stroke-width="2"
       d="m 54.7227,36.5008 c 3.3059,0.7391 6.4496,2.0739 9.2773,3.9392 -3.4131,2.4314 -7.3544,4.0182 -11.5,4.63 -0.4849,-0.4407 -1.0068,-0.8388 -1.56,-1.19 -1.2326,-0.7602 -2.5604,-1.3539 -3.9488,-1.7658"
       id="path10" />
    <path
       fill="none"
       stroke="#000"
       stroke-linecap="round"
       stroke-linejoin="round"
       stroke-width="2"
       d="m 36.3064,44.5634 c 0,0 -19.3028,-2.4511 -19.3028,-11.03 0,-8.5789 2.8955,-14.7069 3.8606,-15.9324 0.9651,-1.2255 6.756,4.9022 6.756,7.3534"
       id="path12" />
    <path
       fill="none"
       stroke="#000"
       stroke-linecap="round"
       stroke-linejoin="round"
       stroke-width="2"
       d="m 44.9926,24.9543 c 0,-2.4512 5.7909,-8.579 6.756,-7.3534 0.9651,1.2256 3.86,7.3534 3.86,15.9324 0,8.579 -19.3027,11.03 -19.3027,11.03"
       id="path14" />
    <path
       fill="none"
       stroke="#000"
       stroke-linecap="round"
       stroke-miterlimit="10"
       stroke-width="2"
       d="m 43.3534,19.5336 c 0,0 -4.698,-6.3166 -7.047,-6.3166 -2.349,0 -7.047,6.3166 -7.047,6.3166"
       id="path16" />
  </g>
</g></svg>