<svg xmlns="http://www.w3.org/2000/svg" width="24" height="24" viewBox="0 0 24 24"> <g transform="translate(0.0 1.885285272023875) scale(0.40421509437184544)">
  
  <g
     id="line"
     transform="translate(-5.624,-14.4738)">
    <path
       fill="none"
       stroke="#000"
       stroke-miterlimit="10"
       stroke-width="1.992"
       d="m 59.056,16.1044 c -0.5572,-0.3152 -1.1471,-0.4855 -1.762,-0.4855 -2.2168,0 -5.2008,0.9656 -8.2145,2.4537"
       id="path2" />
    <path
       fill="none"
       stroke="#000"
       stroke-miterlimit="10"
       stroke-width="1.992"
       d="m 40.357,36.2449 c 11.5893,3.5957 14.4851,12.5149 20.1946,4.9369 5.8616,-7.7802 3.4998,-22.2515 -1.4956,-25.0774"
       id="path4" />
    <path
       fill="none"
       stroke="#000"
       stroke-miterlimit="10"
       stroke-width="1.992"
       d="m 49.0795,18.0727 c -3.7261,1.8399 -7.4976,4.4786 -9.9199,7.0785"
       id="path6" />
    <path
       fill="none"
       stroke="#000"
       stroke-miterlimit="10"
       stroke-width="1.992"
       d="m 30.11,28.4898 v 0.46 c 0.01,1.54 0.01,2.7 0,3.58 0,1.02 -0.01,1.67 0,2.14 0,0.57 0.03,0.88 0.11,1.24 0,0.02 0.01,0.03 0.01,0.05 0.02,0.04 0.03,0.09 0.04,0.14 h -0.01 c -7.18,2.23 -11.02,6.5 -14.26,7.62 -1.7,0.59 -3.24,0.32 -5,-1.56 -0.3,-0.32 -0.61,-0.7 -0.93,-1.12 -1.51,-2.01 -2.48,-4.46 -2.99,-7.04 -0.14,-0.72 -0.25,-1.44 -0.32,-2.17 -0.05,-0.44 -0.09,-0.88 -0.1,-1.32 -0.03,-0.43 -0.04,-0.87 -0.04,-1.3 0,-5.56 1.77,-10.85 4.38,-12.87 0.16,-0.13 0.32,-0.24 0.49,-0.34 0.58,-0.34 1.2,-0.53 1.84,-0.53 0.61,0 1.27,0.07 1.98,0.21 0.23,0.04 0.46,0.09 0.69,0.15 0.21,0.05 0.43,0.11 0.65,0.17 4.76,1.32 10.85,4.96 14.43,8.61"
       id="path8" />
    <path
       fill="none"
       stroke="#000"
       stroke-linecap="round"
       stroke-linejoin="round"
       stroke-miterlimit="10"
       stroke-width="2"
       d="m 30.2974,36.8198 c -1.2433,0.4498 -2.3699,0.9827 -3.4001,1.5558 -2.2091,2.9385 -6.1227,8.8343 -10.3118,18.2197 -0.3339,0.7478 0.1772,1.6439 0.8543,1.496 l 4.8211,-1.054 c 0.6993,-0.1529 1.3995,0.2638 1.7428,1.0375 l 2.1714,4.8934 c 0.38,0.8563 1.4067,0.6854 1.5923,-0.2651 0.9416,-4.8245 3.1008,-15.2418 5.7176,-22.2669 -1.5431,-0.3283 -2.787,-1.7591 -3.1876,-3.6164 z"
       id="path10" />
    <path
       fill="none"
       stroke="#000"
       stroke-linecap="round"
       stroke-linejoin="round"
       stroke-miterlimit="10"
       stroke-width="2"
       d="m 44.1456,38.4326 c -1.0626,-0.6085 -2.206,-1.1647 -3.4429,-1.6129 -0.4006,1.8573 -1.6446,3.2882 -3.1877,3.6164 2.6169,7.0251 4.7762,17.4424 5.7177,22.2669 0.1855,0.9505 1.2123,1.1214 1.5923,0.2651 l 2.1715,-4.8934 c 0.3433,-0.7734 1.0435,-1.1903 1.7428,-1.0375 l 4.8211,1.054 c 0.6771,0.1479 1.1882,-0.7481 0.8543,-1.496 C 50.2524,47.2699 46.3622,41.3901 44.1456,38.4326 Z"
       id="path12" />
    <path
       fill="none"
       stroke="#000"
       stroke-miterlimit="10"
       stroke-width="2"
       d="m 35.8394,22.7182 h -1.6787 c -2.2335,0 -4.0505,2.3813 -4.0505,5.3087 v 6.6448 c 0,2.9274 1.817,5.3088 4.0505,5.3088 h 1.6787 c 2.2335,0 4.0505,-2.3815 4.0505,-5.3088 v -6.6448 c 1e-4,-2.9274 -1.817,-5.3087 -4.0505,-5.3087 z"
       id="path14" />
  </g>
</g></svg>