<svg xmlns="http://www.w3.org/2000/svg" width="24" height="24" viewBox="0 0 24 24"> <g transform="translate(0.0 3.6527367481723303) scale(0.3931546919228367)">
  
  <g
     id="line"
     transform="translate(-5.4776133,-14.652934)">
    <path
       fill="none"
       stroke="#000"
       stroke-linecap="round"
       stroke-linejoin="round"
       stroke-miterlimit="10"
       stroke-width="2"
       d="m 27.9197,46.898 -3.9508,1.0585 C 20.1834,48.9709 16.1169,44.9132 14.171,41.5114 13.2533,39.9072 10.8138,36.9598 10.1174,35.3293 9.1961,33.1726 6.7343,26.6218 6.7343,26.6218 5.793,24.4182 7.7288,20.6671 10.0434,20.0469 c 0,0 6.3153,-1.3686 8.0716,-1.8392 1.7562,-0.4705 7.9098,-2.4429 7.9098,-2.4429 2.3145,-0.6202 5.8665,1.6604 6.1531,4.0394 0,0 1.1435,6.9053 1.4241,9.234 0.212,1.7598 -0.427,5.5314 -0.4197,7.3792 0.0157,3.9189 -1.4771,9.4662 -5.2626,10.4806 z"
       id="path2" />
    <path
       fill="none"
       stroke="#000"
       stroke-linecap="round"
       stroke-linejoin="round"
       stroke-miterlimit="10"
       stroke-width="2"
       d="m 28.3499,39.0182 c 0.6432,2.4006 -2.412,-1.2173 -4.8126,-0.574 -2.4006,0.6432 -3.2375,5.3039 -3.8808,2.9033 -0.6432,-2.4006 0.7814,-4.8681 3.182,-5.5113 2.4006,-0.6433 4.8681,0.7813 5.5114,3.182 z"
       id="path4" />
    <ellipse
       cx="25.725599"
       cy="27.2976"
       rx="1.9999"
       ry="1.5"
       transform="matrix(0.9659,-0.2588,0.2588,0.9659,-6.1883,7.5881)"
       fill="none"
       stroke="#000"
       stroke-linecap="round"
       stroke-linejoin="round"
       stroke-miterlimit="10"
       stroke-width="2"
       id="ellipse6" />
    <path
       fill="none"
       stroke="#000"
       stroke-linecap="round"
       stroke-linejoin="round"
       stroke-miterlimit="10"
       stroke-width="2"
       d="m 21.6693,23.4356 c 2.1356,-0.765 4.0226,-1.1808 5.0998,-0.9136 1.2528,0.3108 2.2244,1.0304 3.1249,2.106"
       id="path8" />
    <ellipse
       cx="15.8699"
       cy="29.937901"
       rx="1.9999"
       ry="1.5"
       transform="matrix(0.9659,-0.2588,0.2588,0.9659,-7.2074,5.1273)"
       fill="none"
       stroke="#000"
       stroke-linecap="round"
       stroke-linejoin="round"
       stroke-miterlimit="10"
       stroke-width="2"
       id="ellipse10" />
    <path
       fill="none"
       stroke="#000"
       stroke-linecap="round"
       stroke-linejoin="round"
       stroke-miterlimit="10"
       stroke-width="2"
       d="m 17.4538,24.5652 c -2.232,0.4053 -4.0741,0.9887 -4.8733,1.7587 -0.9295,0.8956 -1.4112,2.0046 -1.6533,3.3863"
       id="path12" />
    <path
       fill="none"
       stroke="#000"
       stroke-linecap="round"
       stroke-linejoin="round"
       stroke-miterlimit="10"
       stroke-width="2"
       d="m 48.031,55.9565 -3.9507,-1.0587 c -3.7855,-1.0143 -5.2784,-6.5616 -5.2627,-10.4806 0.0073,-1.8481 -0.6316,-5.6204 -0.4195,-7.3807 0.2805,-2.3284 1.4239,-9.2325 1.4239,-9.2325 0.2866,-2.379 3.8386,-4.6597 6.1532,-4.0395 0,0 6.1535,1.9724 7.9099,2.443 1.7561,0.4706 8.0715,1.8393 8.0715,1.8393 2.3145,0.6201 4.2503,4.3712 3.309,6.5748 0,0 -2.4623,6.5519 -3.3837,8.7089 -0.6963,1.63 -3.1355,4.5768 -4.0531,6.1807 -1.9459,3.402 -6.0123,7.4596 -9.7978,6.4453 z"
       id="path14" />
    <ellipse
       cx="55.930401"
       cy="37.8867"
       rx="1.5"
       ry="1.9999"
       transform="matrix(0.2588,-0.9659,0.9659,0.2588,4.8593,82.1061)"
       fill="none"
       stroke="#000"
       stroke-linecap="round"
       stroke-linejoin="round"
       stroke-miterlimit="10"
       stroke-width="2"
       id="ellipse16" />
    <path
       fill="none"
       stroke="#000"
       stroke-linecap="round"
       stroke-linejoin="round"
       stroke-miterlimit="10"
       stroke-width="2"
       d="m 54.3491,32.5124 c 2.232,0.4053 4.0741,0.9887 4.8733,1.7587 0.9295,0.8956 1.4112,2.0046 1.6533,3.3863"
       id="path18" />
    <ellipse
       cx="46.074001"
       cy="35.244999"
       rx="1.5"
       ry="1.9999"
       transform="matrix(0.2588,-0.9659,0.9659,0.2588,0.1055,70.6275)"
       fill="none"
       stroke="#000"
       stroke-linecap="round"
       stroke-linejoin="round"
       stroke-miterlimit="10"
       stroke-width="2"
       id="ellipse20" />
    <path
       fill="none"
       stroke="#000"
       stroke-linecap="round"
       stroke-linejoin="round"
       stroke-miterlimit="10"
       stroke-width="2"
       d="M 50.1336,31.3828 C 47.998,30.6178 46.111,30.202 45.0338,30.4692 43.781,30.78 42.8094,31.4996 41.9089,32.5752"
       id="path22" />
    <path
       fill="none"
       stroke="#000"
       stroke-linecap="round"
       stroke-linejoin="round"
       stroke-miterlimit="10"
       stroke-width="2"
       d="m 44.6141,43.4203 c 0.6432,-2.4006 1.4802,2.2601 3.8808,2.9033 2.4006,0.6433 5.4558,-2.9746 4.8125,-0.574 -0.6432,2.4006 -3.1107,3.8253 -5.5113,3.182 -2.4006,-0.6432 -3.8252,-3.1107 -3.182,-5.5113 z"
       id="path24" />
  </g>
</g></svg>