<svg xmlns="http://www.w3.org/2000/svg" width="24" height="24" viewBox="0 0 24 24"> <g transform="translate(0.0 1.7231244368109024) scale(0.47705780324542024)">
  
  <g
     id="line"
     transform="translate(-9.2462987,-13.464098)">
    <path
       fill="none"
       stroke="#000"
       stroke-linecap="round"
       stroke-miterlimit="10"
       stroke-width="2"
       d="m 48.4022,40.8228 c -1.7382,-4.9513 -3.41,-9.6347 -3.8074,-10.4437 a 8.6038,8.6038 0 0 0 -8.2664,-4.94 c -1.7794,-0.0078 -4.6533,-0.0018 -7.78,0.0107"
       id="path2" />
    <path
       fill="none"
       stroke="#000"
       stroke-miterlimit="10"
       stroke-width="2"
       d="m 25.6211,25.4632 c -5.4429,0.0268 -10.8706,0.0656 -12.1543,0.08 -2.1544,0.0241 -3.5618,-1.5206 -3.1534,-3.5158 a 6.14,6.14 0 0 1 0.4354,-1.0723 3.2263,3.2263 0 0 1 2.322,-1.2948 c 8.4613,-1.4536 28.8507,-5.0473 30.5994,-5.1652 a 9.0219,9.0219 0 0 1 9.6663,7.654 c 1.4457,8.2642 4.8648,28.0768 5.1394,29.7168 a 2.986,2.986 0 0 1 -1.301,3.2 2.85,2.85 0 0 1 -4.3429,-1.5744 c -0.2771,-0.7445 -1.8107,-5.18 -3.4878,-9.9791"
       id="path4" />
    <line
       x1="19.202999"
       x2="17.592199"
       y1="25.4998"
       y2="22.0557"
       fill="none"
       stroke="#000"
       stroke-linecap="round"
       stroke-linejoin="round"
       stroke-width="2"
       id="line6" />
    <line
       x1="25.621099"
       x2="24.0103"
       y1="25.4744"
       y2="22.0303"
       fill="none"
       stroke="#000"
       stroke-linecap="round"
       stroke-linejoin="round"
       stroke-width="2"
       id="line8" />
    <line
       x1="51.5331"
       x2="55.276402"
       y1="49.830002"
       y2="50.4963"
       fill="none"
       stroke="#000"
       stroke-linecap="round"
       stroke-linejoin="round"
       stroke-width="2"
       id="line10" />
    <line
       x1="49.347198"
       x2="53.090599"
       y1="43.5116"
       y2="44.177898"
       fill="none"
       stroke="#000"
       stroke-linecap="round"
       stroke-linejoin="round"
       stroke-width="2"
       id="line12" />
  </g>
</g></svg>