<svg xmlns="http://www.w3.org/2000/svg" width="24" height="24" viewBox="0 0 24 24"> <g transform="translate(6.103433618287442 0.0) scale(0.41218876527996634)">
  
  <g
     id="line"
     transform="translate(-21.542,-6.2215708)">
    <path
       fill="none"
       stroke="#000"
       stroke-linecap="round"
       stroke-width="2"
       d="m 47.8224,40.5722 v 22.0133 a 0.8892,0.8892 0 0 1 -0.9319,0.8608 h -9.537 A 1.5437,1.5437 0 0 1 36.0629,62.5855 L 30.4236,46.8824 h -0.542 l 0.66,15.7031 a 0.8893,0.8893 0 0 1 -0.9323,0.8608 h -4.8759 a 0.8286,0.8286 0 0 1 -0.86,-0.8608 V 40.5722 a 0.8286,0.8286 0 0 1 0.86,-0.8608 H 34.27 a 1.6608,1.6608 0 0 1 1.3624,0.8608 l 5.39,15.9183 h 0.4612 l -0.33,-15.9183 a 0.8287,0.8287 0 0 1 0.8605,-0.8608 h 4.8761 a 0.8892,0.8892 0 0 1 0.9322,0.8608 z"
       id="path2" />
    <polygon
       fill="none"
       stroke="#000"
       stroke-linecap="round"
       stroke-width="2"
       points="35.848,26.692 22.542,34.341 22.542,32.349 35.848,8.288 49.153,32.349 49.153,34.341 "
       id="polygon4" />
  </g>
</g></svg>