<svg xmlns="http://www.w3.org/2000/svg" width="24" height="24" viewBox="0 0 24 24"> <g transform="translate(3.65683363594783 0.0) scale(0.41580617887981813)">
  
  <g
     id="line"
     transform="translate(-15.810965,-1.2339)">
    <path
       d="m 41.8801,27.0871 c 0,1.1045 -0.8965,2 -2,2 -1.1035,0 -2,-0.8955 -2,-2 0,-1.1035 0.8965,-2 2,-2 1.1035,0 2,0.8965 2,2"
       id="path2" />
    <path
       d="m 33.8801,27.0871 c 0,1.1045 -0.8965,2 -2,2 -1.1035,0 -2,-0.8955 -2,-2 0,-1.1035 0.8965,-2 2,-2 1.1035,0 2,0.8965 2,2"
       id="path4" />
    <path
       d="m 35.88,37.0895 c -1.1519,0 -2.3037,-0.2861 -3.4473,-0.8579 -0.4941,-0.2471 -0.6943,-0.8477 -0.4472,-1.3418 0.2466,-0.4937 0.8462,-0.6943 1.3418,-0.4473 1.7177,0.8594 3.3877,0.8594 5.1054,0 0.4947,-0.247 1.0948,-0.0464 1.3418,0.4473 0.2471,0.4941 0.0469,1.0947 -0.4472,1.3418 -1.1436,0.5718 -2.2954,0.8579 -3.4473,0.8579 z"
       id="path6" />
    <path
       fill="none"
       stroke="#000"
       stroke-linecap="round"
       stroke-linejoin="round"
       stroke-miterlimit="10"
       stroke-width="2"
       d="m 16.9359,57.9433 c 0,0 -1.62,-10.56 6.84,-12.64 0.93,-0.23 1.97,-0.36 3.16,-0.36 3.16,2.09 5.86,3.55 8.88,3.59 h 0.12 c 3.02,-0.04 5.73,-1.5 8.88,-3.59 1.19,0 2.24,0.13 3.17,0.36 8.45,2.09 6.83,12.64 6.83,12.64"
       id="path8" />
    <path
       fill="none"
       stroke="#000"
       stroke-linecap="round"
       stroke-linejoin="round"
       stroke-miterlimit="10"
       stroke-width="2"
       d="m 23.7759,45.3033 c 5.39,7.44 16.72,9.31 24.21,0"
       id="path10" />
    <path
       d="m 34.2207,58.9531 c -0.5527,0 -1,-0.4472 -1,-1 v -6.4013 c 0,-0.5528 0.4473,-1 1,-1 0.5527,0 1,0.4472 1,1 v 6.4013 c 0,0.5528 -0.4473,1 -1,1 z"
       id="path12" />
    <path
       d="m 37.7793,58.9531 c -0.5527,0 -1,-0.4472 -1,-1 v -6.4326 c 0,-0.5527 0.4473,-1 1,-1 0.5527,0 1,0.4473 1,1 v 6.4326 c 0,0.5528 -0.4473,1 -1,1 z"
       id="path14" />
    <path
       d="M 46.4443,24.0259 H 25.1719 c -0.5528,0 -1,-0.4478 -1,-1 V 9.5864 c 0,-4.6054 3.747,-8.3525 8.3525,-8.3525 h 6.5684 c 4.6054,0 8.3515,3.7471 8.3515,8.3525 v 13.4395 c 0,0.5522 -0.4472,1 -1,1 z m -20.2724,-2 H 45.4443 V 9.5864 c 0,-3.5029 -2.8496,-6.3525 -6.3515,-6.3525 h -6.5684 c -3.5029,0 -6.3525,2.8496 -6.3525,6.3525 0,0 0,12.4395 0,12.4395 z"
       id="path16" />
    <path
       d="m 41.8758,27.0792 c 0,1.1045 -0.8965,2 -2,2 -1.1035,0 -2,-0.8955 -2,-2 0,-1.1035 0.8965,-2 2,-2 1.1035,0 2,0.8965 2,2"
       id="path18" />
    <path
       d="m 33.8758,27.0792 c 0,1.1045 -0.8965,2 -2,2 -1.1035,0 -2,-0.8955 -2,-2 0,-1.1035 0.8965,-2 2,-2 1.1035,0 2,0.8965 2,2"
       id="path20" />
    <path
       d="m 35.8757,37.0817 c -1.1519,0 -2.3037,-0.2862 -3.4473,-0.8579 -0.4941,-0.2471 -0.6943,-0.8477 -0.4472,-1.3418 0.2465,-0.4937 0.8461,-0.6944 1.3418,-0.4473 1.7177,0.8594 3.3876,0.8594 5.1054,0 0.4947,-0.2471 1.0947,-0.0464 1.3418,0.4473 0.2471,0.4941 0.0469,1.0947 -0.4472,1.3418 -1.1436,0.5717 -2.2955,0.8579 -3.4473,0.8579 z"
       id="path22" />
    <path
       d="m 35.876,43.6133 c -6.8037,0 -12.3389,-6.8067 -12.3389,-15.1734 0,-1.8813 0.2764,-3.7172 0.8203,-5.4565 0.1651,-0.5264 0.7227,-0.8203 1.253,-0.6558 0.5263,0.1651 0.8203,0.7261 0.6552,1.2535 -0.4834,1.5454 -0.7285,3.1801 -0.7285,4.8588 0,7.2642 4.6377,13.1734 10.3389,13.1734 5.7002,0 10.3379,-5.9092 10.3379,-13.1734 0,-1.0756 -0.1016,-2.142 -0.3018,-3.1699 -0.1094,-0.563 -0.251,-1.1255 -0.4209,-1.6723 -0.1641,-0.5274 0.1309,-1.0879 0.6582,-1.252 0.5313,-0.165 1.0889,0.1314 1.252,0.6582 0.1914,0.6167 0.3506,1.2505 0.4736,1.8843 0.2246,1.1528 0.3389,2.3481 0.3389,3.5517 0,8.3667 -5.5352,15.1734 -12.3379,15.1734 z"
       id="path24" />
    <path
       fill="none"
       stroke="#000"
       stroke-linecap="round"
       stroke-linejoin="round"
       stroke-miterlimit="10"
       stroke-width="2"
       d="m 17.7153,44.4632 c 1.5814,-1.107 3.6505,-1.9636 6.3522,-2.3986"
       id="path26" />
    <path
       fill="none"
       stroke="#000"
       stroke-linecap="round"
       stroke-linejoin="round"
       stroke-miterlimit="10"
       stroke-width="2"
       d="m 54.2847,44.4632 c -1.5814,-1.107 -3.6505,-1.9636 -6.3522,-2.3986"
       id="path28" />
  </g>
</g></svg>