<svg xmlns="http://www.w3.org/2000/svg" width="24" height="24" viewBox="0 0 24 24"> <g transform="translate(4.890136119487122 0.0) scale(0.45942272271478396)">
  
  <g
     id="line"
     transform="translate(-21.18647,-9.7604322)">
    <path
       fill="none"
       stroke="#000"
       stroke-linecap="round"
       stroke-linejoin="round"
       stroke-miterlimit="10"
       stroke-width="1.5"
       d="m 37,22 c 0,0 0.5,-1.5 -3,-2"
       id="path2" />
    <path
       fill="none"
       stroke="#000"
       stroke-linecap="round"
       stroke-linejoin="round"
       stroke-miterlimit="10"
       stroke-width="1.5"
       d="m 41,22 c 0,0 -0.5,-1.5 3,-2"
       id="path4" />
    <polyline
       fill="none"
       stroke="#000"
       stroke-linecap="round"
       stroke-linejoin="round"
       stroke-miterlimit="10"
       stroke-width="1.5"
       points="37.625,25.43 39.375,27 41.375,25.3438"
       id="polyline6" />
    <path
       fill="none"
       stroke="#000"
       stroke-linecap="round"
       stroke-linejoin="round"
       stroke-miterlimit="10"
       stroke-width="2"
       d="m 38,60 c 0,0 1,-4 -5,-3 v -2.375"
       id="path8" />
    <path
       fill="none"
       stroke="#000"
       stroke-linecap="round"
       stroke-linejoin="round"
       stroke-miterlimit="10"
       stroke-width="2"
       d="m 43,57.375 c 0,0 1,-4 -5,-3 V 52"
       id="path10" />
    <path
       fill="none"
       stroke="#000"
       stroke-linecap="round"
       stroke-linejoin="round"
       stroke-miterlimit="10"
       stroke-width="2"
       d="M 30,30 C 30,30 23.5,24.5 29.75,15.25 29.75,15.25 29,12 27,12 c -2,0 5,-3 6,1 0,0 7,-3 11,0 0,0 5.25,-3.5 7.125,-1.75 0,0 -4.125,2.75 -2.125,4.75 2,2 4,10 -1,14"
       id="path12" />
    <path
       fill="none"
       stroke="#000"
       stroke-linecap="round"
       stroke-linejoin="round"
       stroke-miterlimit="10"
       stroke-width="2"
       d="m 40,30 c 0,0 -10,0 -10,-7.875 0,-8.7341 8.1907,-4.7359 9,-3.125 0,0 7,-6 9.125,1.5 C 50.1834,27.7649 40,30 40,30 Z"
       id="path14" />
    <path
       fill="none"
       stroke="#000"
       stroke-linecap="round"
       stroke-linejoin="round"
       stroke-miterlimit="10"
       stroke-width="2"
       d="m 27,31 c -9.5,4.375 -2,30 -2,30 0,0 8.75,-9.25 15.875,-10.125 C 48,50 51.75,36.75 50,32"
       id="path16" />
    <path
       fill="none"
       stroke="#000"
       stroke-linecap="round"
       stroke-linejoin="round"
       stroke-miterlimit="10"
       stroke-width="2"
       d="m 25,59 c 0,0 -0.75,-7 1.625,-9 C 29,48 37,41 36,35"
       id="path18" />
  </g>
</g></svg>