<svg xmlns="http://www.w3.org/2000/svg" width="24" height="24" viewBox="0 0 24 24"> <g transform="scale(0.5)">
  
  <g
     id="line-supplement"
     transform="translate(-12,-12)">
    <path
       d="m 39.664,37.59 a 14.4676,14.4676 0 0 1 1.797,0.554 l 0.043,0.0166 a 6,6 0 1 0 -0.2266,-8.2832 c -4.4892,2.0332 -9.6,0.3379 -10.5742,-0.0215 a 6,6 0 1 0 -0.208,8.3047 0.8521,0.8521 0 0 0 0.0879,-0.0361 10.28,10.28 0 0 1 1.4286,-0.5464 c 0,0 0.4265,-5.741 3.9163,-5.741 3.4898,0 3.736,5.7529 3.736,5.7529 z M 26.3019,37.9 a 4,4 0 1 1 4,-4 4,4 0 0 1 -4,4 z m 19.3964,0 a 4,4 0 1 1 4,-4 4,4 0 0 1 -4,4 z"
       id="path2" />
  </g>
  <g
     id="line"
     transform="translate(-12,-12)">
    <circle
       cx="36"
       cy="36"
       r="23"
       fill="none"
       stroke="#000"
       stroke-linecap="round"
       stroke-linejoin="round"
       stroke-width="2"
       id="circle5" />
    <path
       fill="none"
       stroke="#000"
       stroke-linecap="round"
       stroke-linejoin="round"
       stroke-width="2"
       d="m 31.874,31.1923 c 0,0 0,-7.4294 -8.1916,-7.4294 a 2.9223,2.9223 0 0 0 0.4909,1.0227 c 0,0 -4.3364,-0.4909 -5.1137,1.3091 l 0.7773,1.0228 a 2.1161,2.1161 0 0 0 -1.5546,2.2909 1.7819,1.7819 0 0 0 1.7182,1.8816 h 2.0749"
       id="path7" />
    <path
       fill="none"
       stroke="#000"
       stroke-linecap="round"
       stroke-linejoin="round"
       stroke-width="2"
       d="m 40.7341,31.1923 c 0,0 0,-7.4294 8.1917,-7.4294 a 2.9223,2.9223 0 0 1 -0.4909,1.0227 c 0,0 4.3363,-0.4909 5.1136,1.3091 l -0.7773,1.0228 a 2.1161,2.1161 0 0 1 1.5546,2.2909 1.7819,1.7819 0 0 1 -1.7182,1.8816 h -2.0749"
       id="path9" />
    <path
       fill="none"
       stroke="#000"
       stroke-linecap="round"
       stroke-linejoin="round"
       stroke-width="2"
       d="m 31.9209,45.6612 a 2.5633,2.5633 0 0 0 -1.8361,-0.8893 1.5136,1.5136 0 0 1 -1.5491,-1.7212 3.6531,3.6531 0 0 1 1.7786,-2.9262 6.2855,6.2855 0 0 0 2.21,-3.89 c 0.4166,-4.4579 3.14,-4.6992 3.3858,-4.7119 h 0.0391 c 0.2678,0.0149 2.9675,0.2752 3.3821,4.7117 a 6.2855,6.2855 0 0 0 2.21,3.89 3.6531,3.6531 0 0 1 1.7787,2.9264 1.5136,1.5136 0 0 1 -1.5491,1.7212 2.5633,2.5633 0 0 0 -1.8361,0.8893"
       id="path11" />
    <path
       fill="none"
       stroke="#000"
       stroke-linecap="round"
       stroke-linejoin="round"
       stroke-width="2"
       d="m 31.6627,43.3662 c 0,0 -0.7642,4.7622 4.2653,4.7622 5.0295,0 4.2263,-4.7622 4.2263,-4.7622"
       id="path13" />
    <path
       fill="none"
       stroke="#000"
       stroke-linecap="round"
       stroke-linejoin="round"
       stroke-width="2"
       d="m 42.817,44.4015 c 0,0 5.0827,0.07 2.5335,4.3472 a 4.4929,4.4929 0 0 0 -1.8128,-0.8214 c 0,0 0.2266,2.9174 -3.5122,3.229 V 49.74 c 0,0 -0.6041,2.096 -4.0975,2.096 h -0.0168 c -3.4933,0 -4.0975,-2.096 -4.0975,-2.096 v 1.4162 c -3.7388,-0.3116 -3.5122,-3.229 -3.5122,-3.229 a 4.493,4.493 0 0 0 -1.8127,0.8214 c -2.5492,-4.2769 2.5335,-4.3472 2.5335,-4.3472"
       id="path15" />
  </g>
</g></svg>