<svg xmlns="http://www.w3.org/2000/svg" width="24" height="24" viewBox="0 0 24 24"> <g transform="scale(0.41379310344827586)">
  
  <g
     id="line"
     transform="translate(-7,-7)">
    <g
       id="line-2">
      <circle
         cx="36"
         cy="36"
         r="28"
         fill="none"
         stroke="#000"
         stroke-linejoin="round"
         stroke-width="2"
         id="circle2" />
    </g>
    <path
       fill="none"
       stroke="#000"
       stroke-linejoin="round"
       stroke-width="2"
       d="m 37.3163,31.4598 7.7462,-8.7889 c 0.3652,-0.4141 0.3252,-1.0464 -0.0889,-1.4111 -0.4141,-0.3652 -1.0449,-0.3252 -1.4111,0.0889 L 29.2344,37.6055 V 22.0123 c 0,-0.5522 -0.4473,-1 -1,-1 -0.5527,0 -1,0.4478 -1,1 v 28 c 0,0.5522 0.4473,1 1,1 0.5527,0 1,-0.4478 1,-1 v -9.3826 l 6.6624,-7.5591 8.9802,17.412 c 0.1777,0.3442 0.5273,0.5415 0.8896,0.5415 0.1543,0 0.3105,-0.0356 0.457,-0.1113 0.4912,-0.2529 0.6836,-0.856 0.4307,-1.3472 l -9.338,-18.1057 z"
       id="path5" />
  </g>
</g></svg>