<svg xmlns="http://www.w3.org/2000/svg" width="24" height="24" viewBox="0 0 24 24"> <g transform="translate(0.0 0.31710008114735366) scale(0.44197905255013076)">
  
  <g
     id="line"
     transform="translate(-13.735433,-7.7061925)">
    <path
       d="m 42.0185,26.8672 c 0,1.1045 -0.8965,2 -2,2 -1.1035,0 -2,-0.8955 -2,-2 0,-1.1035 0.8965,-2 2,-2 1.1035,0 2,0.8965 2,2"
       id="path2" />
    <path
       d="m 34.0185,26.8672 c 0,1.1045 -0.8965,2 -2,2 -1.1035,0 -2,-0.8955 -2,-2 0,-1.1035 0.8965,-2 2,-2 1.1035,0 2,0.8965 2,2"
       id="path4" />
    <path
       d="m 36.0183,36.8696 c -1.1518,0 -2.3037,-0.2861 -3.4472,-0.8579 -0.4942,-0.2471 -0.6944,-0.8477 -0.4473,-1.3418 0.2466,-0.4937 0.8462,-0.6943 1.3418,-0.4473 1.7178,0.8594 3.3877,0.8594 5.1055,0 0.4946,-0.247 1.0947,-0.0464 1.3418,0.4473 0.247,0.4941 0.0468,1.0947 -0.4473,1.3418 -1.1436,0.5718 -2.2954,0.8579 -3.4473,0.8579 z"
       id="path6" />
    <path
       d="m 36.0186,43.4014 c -6.8038,0 -12.3389,-6.8067 -12.3389,-15.1734 0,-0.4848 0.0185,-0.9643 0.0547,-1.437 l 1.9941,0.1524 c -0.0322,0.4228 -0.0488,0.8515 -0.0488,1.2846 0,7.2642 4.6377,13.1734 10.3389,13.1734 5.7002,0 10.3378,-5.9092 10.3378,-13.1734 0,-1.0757 -0.1015,-2.1421 -0.3017,-3.1699 -0.124,-0.6392 -0.2891,-1.2729 -0.4893,-1.8848 l 1.9004,-0.623 c 0.2266,0.6904 0.4121,1.4058 0.5518,2.126 0.2246,1.1528 0.3388,2.3481 0.3388,3.5517 0,8.3667 -5.5351,15.1734 -12.3378,15.1734 z"
       id="path8" />
    <path
       d="m 41.5156,32.4922 h -2.0068 c -1.5479,0 -2.8828,-0.9258 -3.4815,-2.2529 -0.5986,1.3271 -1.9335,2.2529 -3.4814,2.2529 h -2.0068 c -2.1045,0 -3.8164,-1.7119 -3.8164,-3.8164 V 27.438 h -0.6924 c -0.5528,0 -1,-0.4478 -1,-1 0,-0.5523 0.4472,-1 1,-1 h 1.6924 c 0.5527,0 1,0.4477 1,1 v 2.2378 c 0,1.0019 0.8144,1.8164 1.8164,1.8164 h 2.0068 c 1.002,0 1.8164,-0.8145 1.8164,-1.8164 v -1.104 c 0,-0.5523 0.4473,-1 1,-1 h 1.3301 c 0.5527,0 1,0.4477 1,1 v 1.104 c 0,1.0019 0.8144,1.8164 1.8164,1.8164 h 2.0068 c 1.002,0 1.8164,-0.8145 1.8164,-1.8164 V 26.438 c 0,-0.5523 0.4473,-1 1,-1 h 1.1563 c 0.5527,0 1,0.4477 1,1 0,0.5522 -0.4473,1 -1,1 H 45.332 v 1.2378 c 0,2.1045 -1.7119,3.8164 -3.8164,3.8164 z"
       id="path10" />
    <path
       d="m 24.7334,27.8672 c -0.3711,5e-4 -0.7275,-0.207 -0.9004,-0.563 -0.2412,-0.4966 -0.0342,-1.0952 0.4629,-1.3364 0.9268,-0.4502 2.9639,-4.9038 4.2852,-8.7808 0.165,-0.4829 0.666,-0.7617 1.164,-0.6533 0.4971,0.1108 0.832,0.5786 0.7764,1.0854 v 0 c 0.001,0 -0.0166,0.6861 0.8076,1.5093 1.2217,1.2193 4.8213,3.1973 15.1387,2.7354 0.542,-0.0249 1.0195,0.4023 1.0439,0.9546 0.0244,0.5517 -0.4023,1.019 -0.9541,1.0434 -8.6269,0.3877 -14.2695,-0.7803 -16.7803,-3.4614 -0.0585,-0.0625 -0.1152,-0.1255 -0.1679,-0.188 -1.0948,2.8359 -2.8584,6.7861 -4.4405,7.5542 -0.1406,0.0684 -0.289,0.1006 -0.4355,0.1006 z"
       id="path12" />
    <path
       d="m 16.2852,46.0303 c -0.3555,0 -0.6993,-0.1895 -0.8799,-0.5235 -1.8106,-3.3437 -2.1446,-5.6201 -1.0225,-6.9609 0.9297,-1.1094 2.5215,-1.1328 3.6641,-0.9678 0.1787,-3.3994 1.5595,-9.9536 4.1933,-19.9214 1.3702,-4.0268 2.2549,-5.5683 3.5284,-6.1753 0.7187,-0.3422 1.4443,-0.3022 2.082,-0.1474 1.5683,-1.6494 5.6025,-3.8858 10.0078,-3.6035 3.6475,0.2426 8.7344,2.3105 12.2539,10.7861 1.8174,5.7397 3.0361,10.4038 3.6533,13.9434 0.0703,0.4062 0.542,3.3418 0.7871,4.8691 0.9444,0.0088 2.3174,0.2744 3.3008,1.5391 0.3399,0.4365 0.2608,1.0644 -0.1748,1.4033 -0.4365,0.3418 -1.0635,0.2598 -1.4033,-0.1748 -0.8154,-1.0488 -2.3154,-0.7246 -2.3301,-0.7188 -0.2695,0.0655 -0.5557,0.0137 -0.7881,-0.1406 -0.2324,-0.1543 -0.3886,-0.3984 -0.4326,-0.6738 0,0 -0.834,-5.211 -0.9297,-5.7608 -0.6015,-3.4521 -1.7988,-8.0283 -3.5595,-13.6015 -2.4805,-5.9615 -6.0264,-9.1768 -10.5098,-9.4751 -4.2783,-0.2779 -8.1026,2.3164 -8.6553,3.2671 -0.2441,0.4194 -0.7558,0.601 -1.2099,0.436 -0.7598,-0.2798 -1.0489,-0.2295 -1.2315,-0.1421 -0.8301,0.3955 -1.7168,2.7232 -2.4756,4.9478 -2.9111,11.0297 -4.3017,17.9565 -4.1113,20.519 0.0254,0.333 -0.1182,0.6572 -0.3818,0.8623 -0.2637,0.2061 -0.6143,0.2647 -0.9297,0.1611 -0.9121,-0.2959 -2.3985,-0.4453 -2.8155,0.0538 -0.1318,0.1591 -0.6953,1.1337 1.2491,4.7226 0.2627,0.4863 0.082,1.0928 -0.4034,1.3565 -0.1513,0.081 -0.3144,0.1201 -0.4755,0.1201 z"
       id="path14" />
    <path
       d="m 16.8672,58.7188 c -0.4844,9e-4 -0.9102,-0.3526 -0.9863,-0.8467 -0.0411,-0.2696 -0.9727,-6.6328 2.581,-10.7754 1.9229,-2.2412 4.751,-3.377 8.4072,-3.377 0.1973,0 0.3907,0.0586 0.5547,0.168 3.1621,2.1084 5.6748,3.418 8.4063,3.4248 h 0.039 c 0.5518,0 0.9991,0.4473 1,0.999 10e-4,0.5586 -0.4404,1.0059 -1.0185,1.001 -0.0078,0 -0.0137,0 -0.0215,0 h -0.085 c -0.0156,0 -0.0302,0 -0.0459,-10e-4 -3.0996,-0.0429 -5.8164,-1.4033 -9.1259,-3.5888 -2.8965,0.0566 -5.1104,0.9541 -6.586,2.6689 -2.956,3.4365 -2.1377,9.1201 -2.1289,9.1777 0.083,0.545 -0.292,1.0547 -0.8379,1.1387 -0.0507,0.0078 -0.1015,0.0108 -0.1523,0.0108 z"
       id="path16" />
    <path
       d="m 33.9463,55.083 c -0.294,0 -0.584,-0.1279 -0.7813,-0.375 l -7.2646,-9.0713 c -0.3457,-0.4306 -0.2764,-1.0605 0.1553,-1.4053 0.4326,-0.3486 1.0615,-0.2753 1.4052,0.1553 l 7.2647,9.0713 c 0.3457,0.4307 0.2764,1.0606 -0.1553,1.4053 -0.1846,0.1484 -0.4053,0.2197 -0.624,0.2197 z"
       id="path18" />
    <path
       d="m 32.957,57.1563 c -0.0742,0 -0.1494,-0.0079 -0.2256,-0.0254 l -4.8974,-1.128 c -0.2686,-0.0615 -0.499,-0.2314 -0.6387,-0.4697 -0.1387,-0.2373 -0.1738,-0.5225 -0.0967,-0.7861 l 0.458,-1.5606 h -3.2373 c -0.2509,0 -0.4922,-0.0947 -0.6767,-0.2636 -1.4043,-1.292 -1.6201,-2.6456 -1.5537,-3.5547 0.2129,-2.9268 3.459,-5.2227 3.8281,-5.4746 0.4551,-0.3106 1.0771,-0.1944 1.3877,0.2617 0.3115,0.4551 0.1953,1.0771 -0.2598,1.3896 -0.7832,0.5381 -2.8428,2.3008 -2.9619,3.9717 -0.042,0.5918 0.1709,1.1406 0.6504,1.6699 h 4.1592 c 0.3154,0 0.6113,0.1485 0.8008,0.4004 0.1884,0.2529 0.247,0.5791 0.1591,0.8809 l -0.5361,1.8242 3.8643,0.8896 c 0.5381,0.1241 0.874,0.6612 0.75,1.1993 -0.1065,0.4629 -0.5186,0.7754 -0.9737,0.7754 z"
       id="path20" />
    <polygon
       fill="none"
       stroke="#000"
       stroke-linecap="round"
       stroke-linejoin="round"
       stroke-miterlimit="10"
       stroke-width="2"
       points="67.0367,43.2225 42.0467,43.2225 35.0967,59.5725 60.0867,59.5725 "
       id="polygon22" />
    <line
       x1="24.126699"
       x2="35.096699"
       y1="59.572498"
       y2="59.572498"
       fill="none"
       stroke="#000"
       stroke-linecap="round"
       stroke-linejoin="round"
       stroke-miterlimit="10"
       stroke-width="2"
       id="line24" />
  </g>
</g></svg>