<svg xmlns="http://www.w3.org/2000/svg" width="24" height="24" viewBox="0 0 24 24"> <g transform="translate(0.7653868085106392 1.7763568394002505e-15) scale(0.5106382978723404)">
  
  <g
     id="line"
     transform="translate(-10.997765,-12)">
    <path
       fill="none"
       stroke="#000"
       stroke-linecap="round"
       stroke-linejoin="round"
       stroke-width="2"
       d="m 38,13 c 0,0 2,18 2,23 0,4.1231 -2.1716,7.5858 -5,9 -4,2 -14,7 -19,7 H 12.6 A 4.8944,4.8944 0 0 0 12,54.5 3.5,3.5 0 0 0 15.5,58 H 49 a 5,5 0 0 0 5,-5 c 0,-6 -3,-11 -3,-17 0,-6 3,-23 3,-23"
       id="path2" />
    <path
       fill="none"
       stroke="#000"
       stroke-linecap="round"
       stroke-miterlimit="10"
       stroke-width="2"
       d="m 48,47 a 4,4 0 0 1 -4,4"
       id="path4" />
  </g>
</g></svg>