<svg xmlns="http://www.w3.org/2000/svg" width="24" height="24" viewBox="0 0 24 24"> <g transform="translate(0.0 6.241588078387854) scale(0.37223088141543026)">
  
  <g
     id="line"
     transform="translate(-3.7738913,-26.31)">
    <circle
       cx="16.3333"
       cy="53.25"
       r="3"
       fill="none"
       stroke="#000"
       stroke-miterlimit="10"
       stroke-width="2"
       id="circle2" />
    <polyline
       fill="none"
       stroke="#000"
       stroke-linecap="round"
       stroke-linejoin="round"
       stroke-miterlimit="10"
       stroke-width="2"
       points="10.75,41 15.8333,41 15.8333,35.0833"
       id="polyline4" />
    <circle
       cx="57.416698"
       cy="53.25"
       r="3"
       fill="none"
       stroke="#000"
       stroke-miterlimit="10"
       stroke-width="2"
       id="circle6" />
    <circle
       cx="48.416698"
       cy="53.25"
       r="3"
       fill="none"
       stroke="#000"
       stroke-miterlimit="10"
       stroke-width="2"
       id="circle8" />
    <path
       fill="none"
       stroke="#000"
       stroke-linecap="round"
       stroke-linejoin="round"
       stroke-miterlimit="10"
       stroke-width="2"
       d="M 10.3401,51.88 H 5.86 c -0.5499,0 -0.99,-0.44 -1,-0.99 L 4.7741,44.613 C 4.7685,44.1376 4.8752,43.669 5.087,43.2433 5.3508,42.713 5.6873,42.042 5.7274,41.9888 5.7851,41.9123 6.6257,39.552 8.0601,34.38 c 1.4499,-5.23 10.53,-5.92 13.6098,-6 0.5601,-0.01 1.02,0.44 1.02,1 v 21.5 c 0,0.32 -0.0024,0.745 -0.0024,0.745"
       id="path10" />
    <path
       fill="none"
       stroke="#000"
       stroke-linecap="round"
       stroke-linejoin="round"
       stroke-miterlimit="10"
       stroke-width="2"
       d="M 42.625,51.19 H 26.1899 V 28.31 c 0,-0.55 0.4501,-1 1,-1 H 66.25 c 0.55,0 1,0.45 1,1 v 21.88 c 0,0.55 -0.45,1 -1,1 h -3.11"
       id="path12" />
  </g>
</g></svg>