<svg xmlns="http://www.w3.org/2000/svg" width="24" height="24" viewBox="0 0 24 24"> <g transform="translate(3.5555462222222225 0.0) scale(0.4444444444444444)">
  
  <g
     id="line"
     transform="translate(-16.999957,-7)">
    <polyline
       fill="none"
       stroke="#000"
       stroke-linecap="round"
       stroke-linejoin="round"
       stroke-width="2"
       points="39 26 39 18 38 18 38 15 37 15 37 13 35 13 35 15 34 15 34 18 33 18 33 26"
       id="polyline2" />
    <rect
       x="34"
       y="52"
       rx="1.4085"
       width="5"
       height="8"
       fill="none"
       stroke="#000"
       stroke-linecap="round"
       stroke-linejoin="round"
       stroke-width="2"
       id="rect4" />
    <line
       x1="36"
       x2="36"
       y1="8"
       y2="13"
       fill="none"
       stroke="#000"
       stroke-linecap="round"
       stroke-linejoin="round"
       stroke-width="2"
       id="line6" />
    <line
       x1="33.650002"
       x2="33.650002"
       y1="42.0854"
       y2="44.198002"
       fill="none"
       stroke="#000"
       stroke-linecap="round"
       stroke-linejoin="round"
       stroke-width="2"
       id="line8" />
    <line
       x1="36.650002"
       x2="36.650002"
       y1="42.0854"
       y2="44.198002"
       fill="none"
       stroke="#000"
       stroke-linecap="round"
       stroke-linejoin="round"
       stroke-width="2"
       id="line10" />
    <line
       x1="39.650002"
       x2="39.650002"
       y1="42.0854"
       y2="44.198002"
       fill="none"
       stroke="#000"
       stroke-linecap="round"
       stroke-linejoin="round"
       stroke-width="2"
       id="line12" />
    <line
       x1="33.650002"
       x2="33.650002"
       y1="47.0854"
       y2="49.198002"
       fill="none"
       stroke="#000"
       stroke-linecap="round"
       stroke-linejoin="round"
       stroke-width="2"
       id="line14" />
    <line
       x1="36.650002"
       x2="36.650002"
       y1="47.0854"
       y2="49.198002"
       fill="none"
       stroke="#000"
       stroke-linecap="round"
       stroke-linejoin="round"
       stroke-width="2"
       id="line16" />
    <line
       x1="39.650002"
       x2="39.650002"
       y1="47.0854"
       y2="49.198002"
       fill="none"
       stroke="#000"
       stroke-linecap="round"
       stroke-linejoin="round"
       stroke-width="2"
       id="line18" />
    <line
       x1="23.65"
       x2="23.65"
       y1="41.0854"
       y2="43.198002"
       fill="none"
       stroke="#000"
       stroke-linecap="round"
       stroke-linejoin="round"
       stroke-width="2"
       id="line20" />
    <line
       x1="26.65"
       x2="26.65"
       y1="41.0854"
       y2="43.198002"
       fill="none"
       stroke="#000"
       stroke-linecap="round"
       stroke-linejoin="round"
       stroke-width="2"
       id="line22" />
    <line
       x1="23.65"
       x2="23.65"
       y1="46.0854"
       y2="48.198002"
       fill="none"
       stroke="#000"
       stroke-linecap="round"
       stroke-linejoin="round"
       stroke-width="2"
       id="line24" />
    <line
       x1="26.65"
       x2="26.65"
       y1="46.0854"
       y2="48.198002"
       fill="none"
       stroke="#000"
       stroke-linecap="round"
       stroke-linejoin="round"
       stroke-width="2"
       id="line26" />
    <line
       x1="45.650002"
       x2="45.650002"
       y1="41.0854"
       y2="43.198002"
       fill="none"
       stroke="#000"
       stroke-linecap="round"
       stroke-linejoin="round"
       stroke-width="2"
       id="line28" />
    <line
       x1="48.650002"
       x2="48.650002"
       y1="41.0854"
       y2="43.198002"
       fill="none"
       stroke="#000"
       stroke-linecap="round"
       stroke-linejoin="round"
       stroke-width="2"
       id="line30" />
    <line
       x1="45.650002"
       x2="45.650002"
       y1="46.0854"
       y2="48.198002"
       fill="none"
       stroke="#000"
       stroke-linecap="round"
       stroke-linejoin="round"
       stroke-width="2"
       id="line32" />
    <line
       x1="48.650002"
       x2="48.650002"
       y1="46.0854"
       y2="48.198002"
       fill="none"
       stroke="#000"
       stroke-linecap="round"
       stroke-linejoin="round"
       stroke-width="2"
       id="line34" />
    <line
       x1="33.650002"
       x2="33.650002"
       y1="37.0854"
       y2="39.198002"
       fill="none"
       stroke="#000"
       stroke-linecap="round"
       stroke-linejoin="round"
       stroke-width="2"
       id="line36" />
    <line
       x1="36.650002"
       x2="36.650002"
       y1="37.0854"
       y2="39.198002"
       fill="none"
       stroke="#000"
       stroke-linecap="round"
       stroke-linejoin="round"
       stroke-width="2"
       id="line38" />
    <line
       x1="39.650002"
       x2="39.650002"
       y1="37.0854"
       y2="39.198002"
       fill="none"
       stroke="#000"
       stroke-linecap="round"
       stroke-linejoin="round"
       stroke-width="2"
       id="line40" />
    <line
       x1="23.65"
       x2="23.65"
       y1="53.0854"
       y2="55.198002"
       fill="none"
       stroke="#000"
       stroke-linecap="round"
       stroke-linejoin="round"
       stroke-width="2"
       id="line42" />
    <line
       x1="26.65"
       x2="26.65"
       y1="53.0854"
       y2="55.198002"
       fill="none"
       stroke="#000"
       stroke-linecap="round"
       stroke-linejoin="round"
       stroke-width="2"
       id="line44" />
    <line
       x1="45.650002"
       x2="45.650002"
       y1="53.0854"
       y2="55.198002"
       fill="none"
       stroke="#000"
       stroke-linecap="round"
       stroke-linejoin="round"
       stroke-width="2"
       id="line46" />
    <line
       x1="48.650002"
       x2="48.650002"
       y1="53.0854"
       y2="55.198002"
       fill="none"
       stroke="#000"
       stroke-linecap="round"
       stroke-linejoin="round"
       stroke-width="2"
       id="line48" />
    <polygon
       fill="none"
       stroke="#000"
       stroke-linecap="round"
       stroke-linejoin="round"
       stroke-width="2"
       points="42.951,32 39.476,28 36,24 32.524,28 29.049,32 27,32 29,38 20,38 20,51 20,60 52,60 52,51 52,38 43,38 45,32 "
       id="polygon50" />
    <circle
       cx="36"
       cy="32"
       r="2"
       fill="none"
       stroke="#000"
       stroke-miterlimit="10"
       stroke-width="2"
       id="circle52" />
    <path
       fill="none"
       stroke="#000"
       stroke-linecap="round"
       stroke-linejoin="round"
       stroke-width="2"
       d="m 33.6663,26.6857 h -2.2958 l -9.2572,5.1429 a 13.3413,13.3413 0 0 1 -1.0285,3.0856 4.99,4.99 0 0 1 -3.0857,2.0572 H 18 V 38 h 2"
       id="path54" />
    <path
       fill="none"
       stroke="#000"
       stroke-linecap="round"
       stroke-linejoin="round"
       stroke-width="2"
       d="m 52,38 h 2 v -1.0286 a 4.99,4.99 0 0 1 -3.0857,-2.0572 13.3441,13.3441 0 0 1 -1.0286,-3.0856 l -9.2571,-5.1429 h -2.2949"
       id="path56" />
  </g>
</g></svg>