<svg xmlns="http://www.w3.org/2000/svg" width="24" height="24" viewBox="0 0 24 24"> <g transform="translate(4.034811337993917 0.0) scale(0.5645066579914537)">
  
  <g
     id="line"
     transform="translate(-22.78,-14.485)">
    <line
       x1="50"
       x2="23.780001"
       y1="16.67"
       y2="16.67"
       fill="none"
       stroke="#000"
       stroke-linecap="round"
       stroke-miterlimit="10"
       stroke-width="2"
       id="line2" />
    <line
       x1="23.780001"
       x2="50"
       y1="29.780001"
       y2="29.780001"
       fill="none"
       stroke="#000"
       stroke-linecap="round"
       stroke-miterlimit="10"
       stroke-width="2"
       id="line4" />
    <line
       x1="23.780001"
       x2="50"
       y1="42.889999"
       y2="42.889999"
       fill="none"
       stroke="#000"
       stroke-linecap="round"
       stroke-miterlimit="10"
       stroke-width="2"
       id="line6" />
    <line
       x1="23.780001"
       x2="50"
       y1="56"
       y2="56"
       fill="none"
       stroke="#000"
       stroke-linecap="round"
       stroke-miterlimit="10"
       stroke-width="2"
       id="line8" />
    <line
       x1="38.445"
       x2="42.814999"
       y1="15.485"
       y2="15.485"
       fill="none"
       stroke="#000"
       stroke-linecap="round"
       stroke-miterlimit="10"
       stroke-width="2"
       id="line10" />
    <path
       fill="none"
       stroke="#000"
       stroke-linecap="round"
       stroke-miterlimit="10"
       stroke-width="2"
       d="m 23.78,16.67 c 1.4057,1.3429 1.7607,3.6963 1.7607,6.376 0,2.937 -0.125,5.4819 -1.7607,6.734"
       id="path12" />
    <path
       fill="none"
       stroke="#000"
       stroke-linecap="round"
       stroke-miterlimit="10"
       stroke-width="2"
       d="m 23.78,29.78 c 1.4057,1.3429 1.7607,3.6963 1.7607,6.376 0,2.937 -0.125,5.4819 -1.7607,6.734"
       id="path14" />
    <path
       fill="none"
       stroke="#000"
       stroke-linecap="round"
       stroke-miterlimit="10"
       stroke-width="2"
       d="m 23.78,42.89 c 1.4057,1.3429 1.7607,3.6963 1.7607,6.376 0,2.937 -0.125,5.4819 -1.7607,6.734"
       id="path16" />
    <path
       fill="none"
       stroke="#000"
       stroke-linecap="round"
       stroke-miterlimit="10"
       stroke-width="2"
       d="m 50,16.67 c -1.4057,1.3429 -1.7607,3.6963 -1.7607,6.376 0,2.937 0.125,5.4819 1.7607,6.734"
       id="path18" />
    <path
       fill="none"
       stroke="#000"
       stroke-linecap="round"
       stroke-miterlimit="10"
       stroke-width="2"
       d="m 50,29.78 c -1.4057,1.3429 -1.7607,3.6963 -1.7607,6.376 0,2.937 0.125,5.4819 1.7607,6.734"
       id="path20" />
    <path
       fill="none"
       stroke="#000"
       stroke-linecap="round"
       stroke-miterlimit="10"
       stroke-width="2"
       d="m 50,42.89 c -1.4057,1.3429 -1.7607,3.6963 -1.7607,6.376 0,2.937 0.125,5.4819 1.7607,6.734"
       id="path22" />
  </g>
</g></svg>