<svg xmlns="http://www.w3.org/2000/svg" width="24" height="24" viewBox="0 0 24 24"> <g transform="translate(3.0231798823743006 0.0) scale(0.492814133383677)">
  
  <g
     id="line"
     transform="translate(-9.8694435,-12.3001)">
    <path
       fill="none"
       stroke="#000"
       stroke-linecap="round"
       stroke-linejoin="round"
       stroke-width="2"
       d="m 12.2968,36.7474 c -1.5719,-2.1674 -1.8612,-5.0005 -0.7991,-7.5333 1.6003,-3.734 2.0448,-3.734 2.3115,-8.5349 0.0889,-2.7561 2.2226,-5.0676 4.9787,-5.3343 0,0 1.6892,-2.0448 5.3343,-2.0448 4.2674,0 8.1792,2.3115 9.1572,5.9566 1.0668,3.734 -0.1779,5.2453 0.889,8.0903 0.8191,2.1061 2.0231,4.0582 1.9908,6.287"
       id="path2" />
    <path
       fill="none"
       stroke="#000"
       stroke-linejoin="round"
       stroke-miterlimit="10"
       stroke-width="2"
       d="m 30.8791,26.8135 -0.0889,-0.6223 c 0,-1.3336 -8.0015,-4.712 -10.6686,-7.3791 -2.6671,2.6671 -4.0007,4.623 -4.0007,8.0014 0,5.3343 3.3784,9.335 7.3791,9.335 4.0007,0 7.3791,-4.0007 7.3791,-9.335 z"
       id="path4" />
    <path
       d="m 24.75,26.5 c 0,-0.7143 0.5357,-1.25 1.25,-1.25 0.7143,0 1.25,0.5357 1.25,1.25 0,0.7143 -0.5357,1.25 -1.25,1.25 -0.7143,0 -1.25,-0.5357 -1.25,-1.25"
       id="path6" />
    <path
       d="m 19.75,26.5 c 0,-0.7143 0.5357,-1.25 1.25,-1.25 0.7143,0 1.25,0.5357 1.25,1.25 0,0.7143 -0.5357,1.25 -1.25,1.25 -0.7143,0 -1.25,-0.5357 -1.25,-1.25"
       id="path8" />
    <path
       fill="none"
       stroke="#000"
       stroke-linecap="round"
       stroke-linejoin="round"
       stroke-width="2"
       d="m 21.633,31.5332 c 1.1558,0.6223 2.5782,0.6223 3.734,0"
       id="path10" />
    <path
       fill="none"
       stroke="#000"
       stroke-linecap="round"
       stroke-linejoin="round"
       stroke-width="1.6"
       d="M 26.5003,60.2 V 58.4667 C 26.5003,56 29.0021,54 31.5039,54 c 2.9751,2.4667 5.9502,2.4667 8.9929,0 2.5017,0 5.0035,2 5.0035,4.4667 V 60.2"
       id="path12" />
    <path
       d="m 38.7983,45.7015 c 0.0333,0.4958 -0.3417,0.9247 -0.8377,0.958 -0.4959,0.0333 -0.9249,-0.3417 -0.9582,-0.8375 -0.0333,-0.4958 0.3417,-0.9247 0.8377,-0.958 0.0201,-0.0014 0.0402,-0.002 0.0604,-0.002 0.4796,-0.0155 0.8813,0.3601 0.8978,0.8395 z"
       id="path14" />
    <path
       fill="none"
       stroke="#000"
       stroke-linecap="round"
       stroke-linejoin="round"
       stroke-width="1.6"
       d="m 34.6642,49.1857 c 0.7749,0.6425 1.8974,0.6425 2.6723,0"
       id="path16" />
    <path
       d="m 34.1001,44.862 c 0.0201,0 0.0403,7e-4 0.0604,0.002 0.4959,0.0333 0.871,0.4622 0.8377,0.958 -0.0333,0.4958 -0.4623,0.8707 -0.9582,0.8375 -0.4959,-0.0333 -0.871,-0.4622 -0.8377,-0.958 0.0165,-0.4794 0.4182,-0.855 0.8978,-0.8395 z"
       id="path18" />
    <path
       fill="none"
       stroke="#000"
       stroke-miterlimit="10"
       stroke-width="1.6"
       d="m 42.5496,45.2683 c 0.0078,0.141 0.0117,0.283 0.0118,0.4261 0.1437,3.7311 -2.758,6.8753 -6.4886,7.031 -3.7306,-0.1557 -6.6322,-3.2999 -6.4885,-7.031 0,-0.0952 0.0017,-0.1899 0.0052,-0.2841"
       id="path20" />
    <path
       fill="none"
       stroke="#000"
       stroke-linecap="round"
       stroke-linejoin="round"
       stroke-width="1.6"
       d="m 33.6358,42.2716 c 0.4694,3.3631 4.487,-0.8706 4.487,-0.8706 0.5491,1.5737 4.4254,3.8674 4.4254,3.8674 1.0324,-0.9557 0.5259,-2.8525 0.3721,-3.5136 -0.5106,-2.7127 -3.0794,-4.5325 -5.8079,-4.1144 -0.3436,0.0276 -0.6888,0.0276 -1.0324,0 -2.2709,-0.3369 -6.03,-0.1483 -7.12,4.6433 -0.5317,2.3382 0.624,2.9844 0.624,2.9844 0,0 3.764,-5.0588 4.0518,-2.9965 z"
       id="path22" />
    <path
       fill="none"
       stroke="#000"
       stroke-linecap="round"
       stroke-linejoin="round"
       stroke-miterlimit="10"
       stroke-width="2"
       d="M 11.0003,60 V 44.9552 c 0,-3.2895 3.2918,-5.9566 6.5836,-5.9566 2.6822,2.2539 5.3643,2.9634 8.0751,2.1288"
       id="path24" />
  </g>
</g></svg>