<svg xmlns="http://www.w3.org/2000/svg" width="24" height="24" viewBox="0 0 24 24"> <g transform="translate(0.0 0.5499156428571439) scale(0.42857142857142855)">
  
  <g
     id="line"
     transform="translate(-8,-3.5662713)">
    <polyline
       fill="none"
       stroke="#000"
       stroke-linecap="round"
       stroke-linejoin="round"
       stroke-miterlimit="10"
       stroke-width="2"
       points="63,56 56.4,49.1 53,40"
       id="polyline2" />
    <polyline
       fill="none"
       stroke="#000"
       stroke-linecap="round"
       stroke-linejoin="round"
       stroke-miterlimit="10"
       stroke-width="2"
       points="24,22 19,34 17,46 9,56"
       id="polyline4" />
    <polyline
       fill="none"
       stroke="#000"
       stroke-linecap="round"
       stroke-linejoin="round"
       stroke-miterlimit="10"
       stroke-width="2"
       points="40,34 36,22 34.4,22.8"
       id="polyline6" />
    <polyline
       fill="none"
       stroke="#000"
       stroke-linecap="round"
       stroke-linejoin="round"
       stroke-miterlimit="10"
       stroke-width="2"
       points="40,34 45,34 53,40 52,46 53,51 51,53 48,56"
       id="polyline8" />
    <path
       fill="none"
       stroke="#000"
       stroke-linecap="round"
       stroke-linejoin="round"
       stroke-miterlimit="10"
       stroke-width="1.8"
       d="m 33.7,22.3 c 1.4,0.4 0.8,2.1 1.5,4.4 0.4,1.4 0.3,1.8 0.3,2 -0.5,1.3 -1.2,1.2 -1.7,2.4 -0.4,1.1 0.7,1.6 0.4,3 -0.3,1.4 -1.7,2.7 -2.7,2.4 -0.8,-0.2 -1.1,-1.3 -1.3,-1.8 -0.5,-1.8 0.2,-3.5 0.4,-4.1 0.8,-1.8 1.7,-2.2 1.5,-3.3 -0.1,-1 -1,-1.6 -1.3,-1.8 -0.8,-0.6 -2.1,-1 -3.1,-0.6 -1.9,0.8 -2.4,4.6 -2,7.4 0.4,2.2 2.8,7 2.2,8.7 -0.2,0.7 -2,-3.1 -3.2,-1.5 -1.1,1.4 0.4,5.3 -1.8,6.6 -1.3,0.7 -1.7,-3.9 -1.8,-3.9 -0.3,0 -1,1.5 -0.3,-2.1 0.4,-2.4 1.7,-1.4 2.1,-4 0.2,-1.5 0.1,-4 -0.1,-6 -0.3,-3 -1.4,-2.7 -1.1,-5.1 0.1,-0.8 0.8,-1.5 2,-2.1 0.5,-0.2 0.2,-1.9 2.4,-1.8 3.6,0.2 4.1,1.4 5.2,1.3 1.4,-0.1 1.7,-0.3 2.4,-0.1 z"
       id="path10" />
    <path
       fill="none"
       stroke="#000"
       stroke-linecap="round"
       stroke-linejoin="round"
       stroke-miterlimit="10"
       stroke-width="2"
       d="M 24.2,16.3 C 23.8,14.7 20.9,13.9 17.7,14.6"
       id="path12" />
    <path
       fill="none"
       stroke="#000"
       stroke-linecap="round"
       stroke-linejoin="round"
       stroke-miterlimit="10"
       stroke-width="2"
       d="M 35,18.9 C 37.7,17 41.7,18 43.9,21.2"
       id="path14" />
    <path
       fill="none"
       stroke="#000"
       stroke-linecap="round"
       stroke-linejoin="round"
       stroke-miterlimit="10"
       stroke-width="2"
       d="M 22.8,19.9 C 21.3,18.3 14.3,15.8 13,24.1"
       id="path16" />
    <path
       fill="none"
       stroke="#000"
       stroke-linecap="round"
       stroke-linejoin="round"
       stroke-miterlimit="10"
       stroke-width="2"
       d="M 27,6 C 26,5 25,5 24,5 22.4,5 21.3,6.4 20.6,7.7 20,9 20,11 22,11.7 c 1.3,0.5 3.1,0.7 4.2,1.6 1.5,1.2 1.5,3.4 1.5,4.9"
       id="path18" />
    <path
       fill="none"
       stroke="#000"
       stroke-linecap="round"
       stroke-linejoin="round"
       stroke-miterlimit="10"
       stroke-width="2"
       d="m 34.9,10.5 c 0.7,-0.1 2,-0.2 2.8,-2.3 0.8,-2.1 -1.4,-3.9 -4.4,-3.6 -3,0.3 -5,3.8 -4.6,4.4"
       id="path20" />
    <path
       fill="none"
       stroke="#000"
       stroke-linecap="round"
       stroke-linejoin="round"
       stroke-miterlimit="10"
       stroke-width="2"
       d="M 31.6,17.9 C 30.3,15 37.3,14.4 38.1,12.3"
       id="path22" />
  </g>
</g></svg>