<svg xmlns="http://www.w3.org/2000/svg" width="24" height="24" viewBox="0 0 24 24"> <g transform="translate(0.0 1.1068493609292762) scale(0.41847964253468933)">
  
  <g
     id="line-supplement"
     transform="translate(-7.3661193,-12)">
    <path
       fill="none"
       stroke="#000"
       stroke-linecap="round"
       stroke-miterlimit="10"
       stroke-width="2"
       d="M 53.3026,38.9999 C 54.638,35.0209 53.2264,30.2155 49.6488,28 45.4709,25.4128 39.1954,26.8881 36.1579,31.952 33.1952,26.8785 26.8991,25.3716 22.667,28 c -3.4854,2.1647 -5.2226,6.9179 -3.6538,11"
       id="path2" />
  </g>
  <g
     id="line"
     transform="translate(-7.3661193,-12)">
    <circle
       cx="26.836901"
       cy="35.2509"
       r="3"
       id="circle5" />
    <circle
       cx="45.393299"
       cy="35.2509"
       r="3"
       id="circle7" />
    <path
       fill="none"
       stroke="#000"
       stroke-linecap="round"
       stroke-linejoin="round"
       stroke-miterlimit="10"
       stroke-width="2"
       d="m 19.7774,19.6545 c -0.3299,0 -7.1412,-2.2454 -10.3066,3.9209 -2.7954,5.4454 0.1467,9.8121 3.4855,13.3115"
       id="path9" />
    <path
       fill="none"
       stroke="#000"
       stroke-linecap="round"
       stroke-linejoin="round"
       stroke-miterlimit="10"
       stroke-width="2"
       d="m 52.3053,19.6545 c 0.3299,0 7.1412,-2.2454 10.3066,3.9209 2.7954,5.4454 -0.1467,9.812 -3.4856,13.3114"
       id="path11" />
    <path
       fill="none"
       stroke="#000"
       stroke-linecap="round"
       stroke-linejoin="round"
       stroke-miterlimit="10"
       stroke-width="2"
       d="m 28.49,63.0606 0.55,-3.03 c 0,0 4.3,-0.85 6.4,-2.91 0.39,-0.38 0.76,-0.77 1.12,-1.14"
       id="path13" />
    <path
       fill="none"
       stroke="#000"
       stroke-linecap="round"
       stroke-linejoin="round"
       stroke-miterlimit="10"
       stroke-width="2"
       d="m 35.59,41.9806 c 0.12,-0.79 0.23,-1.62 -0.14,-2.07 -0.63,-0.78 -6.4,2.4 -9,5.49 -1.56,-4.03 -2.48,-4.79 -3.03,-4.72 -1.42,0.21 -1.97,6.1 -1.54,10.67 0.28,2.98 0.97,5.39 1.54,7.01 -0.16,0.33 -0.29,0.59 -0.39,0.8 v 0.01 c -0.01,0.03 -0.03,0.06 -0.04,0.08 -0.02,0.03 -0.04,0.07 -0.05,0.11 -0.02,0.04 -0.03,0.07 -0.05,0.09 0,0.02 -0.01,0.03 -0.01,0.04 -0.01,0 -0.01,0.01 -0.01,0.02 -0.01,0.01 -0.02,0.03 -0.02,0.04 -0.02,0.04 -0.04,0.07 -0.05,0.1"
       id="path15" />
    <path
       fill="none"
       stroke="#000"
       stroke-linecap="round"
       stroke-linejoin="round"
       stroke-miterlimit="10"
       stroke-width="2"
       d="m 22.33,60.6206 c 0.15,-0.32 0.28,-0.58 0.38,-0.78 0,0 0,-0.01 0.01,-0.02 v -0.01 c 0.01,-0.01 0.02,-0.02 0.02,-0.04 0.02,-0.04 0.04,-0.08 0.06,-0.12 0.01,-0.03 0.03,-0.06 0.05,-0.1 0,-0.01 0.01,-0.03 0.02,-0.04 0,-0.01 0,-0.02 0.01,-0.02 0.02,-0.05 0.04,-0.09 0.06,-0.13"
       id="path17" />
    <path
       fill="none"
       stroke="#000"
       stroke-linecap="round"
       stroke-linejoin="round"
       stroke-miterlimit="10"
       stroke-width="2"
       d="m 35.59,41.9806 c 0.12,-0.79 0.23,-1.62 -0.14,-2.07 -0.63,-0.78 -6.4,2.4 -9,5.49 -1.56,-4.03 -2.48,-4.79 -3.03,-4.72 -1.42,0.21 -1.97,6.1 -1.54,10.67 0.28,2.98 0.97,5.39 1.54,7.01 -0.16,0.33 -0.29,0.59 -0.39,0.8 v 0.01 c -0.01,0.03 -0.03,0.06 -0.04,0.08 -0.02,0.03 -0.04,0.07 -0.05,0.11 -0.02,0.04 -0.03,0.07 -0.05,0.09 -0.01,0.02 -0.02,0.04 -0.02,0.06 -0.01,0.01 -0.02,0.03 -0.02,0.04 -0.02,0.04 -0.04,0.07 -0.05,0.1 -0.02,0.04 -0.04,0.08 -0.06,0.12 0,0.02 -0.01,0.03 -0.02,0.04 v 0.01 c -0.01,0.01 -0.01,0.02 -0.01,0.02 -0.1,0.2 -0.23,0.46 -0.38,0.78"
       id="path19" />
    <path
       fill="none"
       stroke="#000"
       stroke-linecap="round"
       stroke-linejoin="round"
       stroke-miterlimit="10"
       stroke-width="2"
       d="m 50.0931,60.1137 c -1.8841,-3.9279 0.6032,1.2576 -1.2808,-2.6702 0.5664,-1.6119 1.2604,-4.0223 1.5384,-7.0087 0.425,-4.5648 -0.1233,-10.4598 -1.5384,-10.6624 -0.555,-0.0795 -1.4734,0.6838 -3.0324,4.7202 -2.6006,-3.0933 -8.3652,-6.2699 -8.999,-5.4998 -0.6228,0.7568 0.0903,2.5375 0.0098,3.503 -2.6552,-1.2069 -3.9497,-1.4041 -4.2664,-1.0505 -0.3186,0.3557 0.0824,1.6942 1.7721,4.3494 -3.1158,-0.7429 -4.1039,0.1181 -3.9426,0.8046 0.6076,2.5859 2.7004,5.9308 6.4366,9.6067 2.0968,2.0629 4.741,2.5726 6.3992,2.9133 0.6095,5.022 -0.1317,-1.0847 0.4778,3.9373"
       id="path21" />
    <path
       fill="none"
       stroke="#000"
       stroke-linecap="round"
       stroke-miterlimit="10"
       stroke-width="2"
       d="M 17.9101,50.2056 C 14.8346,46.2945 13,41.3615 13,36 13,23.2975 23.2975,13 36,13 c 12.7025,0 23,10.2975 23,23 0,5.2036 -1.728,10.0035 -4.6415,13.8573"
       id="path23" />
  </g>
</g></svg>