<svg xmlns="http://www.w3.org/2000/svg" width="24" height="24" viewBox="0 0 24 24"> <g transform="translate(0.0 1.1773527231160443) scale(0.43290589107535826)">
  
  <g
     id="line"
     transform="translate(-10.9345,-10.9851)">
    <path
       fill="none"
       stroke="#000"
       stroke-linecap="round"
       stroke-linejoin="round"
       stroke-width="2"
       d="m 20.9345,38.9851 c -4,0 -4,-6 -4,-13 0,-7 4,-14 14,-14 10,0 14,7 14,14 0,7 0,13 -4,13"
       id="path2" />
    <path
       fill="none"
       stroke="#000"
       stroke-linecap="round"
       stroke-linejoin="round"
       stroke-width="2"
       d="m 11.9345,59.9851 v -3 c 0,-4.9941 5.0078,-9 10,-9 q 9,7.5 18,0 a 10.2713,10.2713 0 0 1 4.0029,0.84"
       id="path4" />
    <path
       d="m 36.8075,29.9851 a 2,2 0 1 1 -2,-2 2,2 0 0 1 2,2"
       id="path6" />
    <path
       d="m 28.8075,29.9851 a 2,2 0 1 1 -2,-2 2,2 0 0 1 2,2"
       id="path8" />
    <path
       fill="none"
       stroke="#000"
       stroke-linejoin="round"
       stroke-width="2"
       d="m 19.871,30.9851 c 0,9 4.9365,14 11,14 5.9365,0 11.0635,-5 11.0635,-14 a 12.1371,12.1371 0 0 0 -1,-5 c -3,-3 -7,-8 -7,-8 -4,3 -7,6 -13,7 0,0 -1.0635,0.9995 -1.0635,6 z"
       id="path10" />
    <path
       fill="none"
       stroke="#000"
       stroke-linecap="round"
       stroke-linejoin="round"
       stroke-width="2"
       d="m 27.9345,37.9851 a 6.5535,6.5535 0 0 0 6,0"
       id="path12" />
    <path
       fill="none"
       stroke="#000"
       stroke-linecap="round"
       stroke-linejoin="round"
       stroke-width="2"
       d="m 54.9345,59.9851 -1.9375,-13.3057 0.9375,-1.25 6,-2 5,-6 a 1.4142136,1.4142136 0 0 0 -2,-2 l -3,3 c -1,1 -4,0 -7,1 -3,1 -5,3.2325 -5,5 v 15.5557"
       id="path14" />
  </g>
</g></svg>