<svg xmlns="http://www.w3.org/2000/svg" width="24" height="24" viewBox="0 0 24 24"> <g transform="translate(1.2376676788191787 1.7763568394002505e-15) scale(0.538116616059041)">
  
  <g
     id="line"
     transform="translate(-16,-16.3)">
    <path
       fill="none"
       stroke="#000"
       stroke-linecap="round"
       stroke-linejoin="round"
       stroke-width="2"
       d="m 17,59.9 v -3 c 0,-5 5,-9 10,-9 6,5 12,5 18,0 5,0 10,4 10,9 v 3"
       id="path2" />
    <path
       d="m 41.8,29.9 c 0,1.1 -0.9,2 -2,2 -1.1,0 -2,-0.9 -2,-2 0,-1.1 0.9,-2 2,-2 1.1,0 2,0.9 2,2"
       id="path4" />
    <path
       d="m 33.8,29.9 c 0,1.1 -0.9,2 -2,2 -1.1,0 -2,-0.9 -2,-2 0,-1.1 0.9,-2 2,-2 1.2,0 2,0.9 2,2"
       id="path6" />
    <path
       fill="none"
       stroke="#000"
       stroke-linecap="round"
       stroke-linejoin="round"
       stroke-width="2"
       d="m 32.8,38.1 c 1.9,1 4.1,1 6,0"
       id="path8" />
    <path
       fill="none"
       stroke="#000"
       stroke-linejoin="round"
       stroke-width="2"
       d="m 36,45 c -5.9,0 -11,-6 -11,-14 0,-3.3 1,-7.4 3,-10 0.3,-0.3 0.5,-0.6 0.8,-0.9 2,-1.8 4.5,-2.8 7.2,-2.8 v 0 c 2.7,0 5.2,1 7.2,2.8 0.3,0.3 0.6,0.6 0.8,0.9 2,2.6 3,6.7 3,10 0,8 -5.1,14 -11,14"
       id="path10" />
  </g>
</g></svg>