<svg xmlns="http://www.w3.org/2000/svg" width="24" height="24" viewBox="0 0 24 24"> <g transform="translate(1.4877201542586587 0.0) scale(0.44330172752097285)">
  
  <g
     id="line"
     transform="translate(-12.7864,-10.8413)">
    <path
       fill="#000"
       stroke="none"
       d="m 12.7864,34.7866 c 0,14.5605 7.769,22.9116 21.3145,22.9116 H 46.7733 L 45.03,59.2988 c -0.3906,0.3584 -0.6226,0.8574 -0.645,1.3877 -0.0224,0.5303 0.1665,1.0469 0.5254,1.4385 l 2.0293,2.209 c 0.394,0.4287 0.9326,0.6465 1.4731,0.6465 0.4834,0 0.9678,-0.1738 1.3516,-0.5264 l 9.8013,-8.9922 c 0.4126,-0.3784 0.6475,-0.9126 0.6479,-1.4727 4e-4,-0.5601 -0.2344,-1.0942 -0.6465,-1.4736 l -9.8013,-9.0098 c -0.3906,-0.3589 -0.9141,-0.5493 -1.438,-0.5254 -0.5303,0.0225 -1.0298,0.2544 -1.3887,0.6455 l -2.0293,2.21 c -0.7471,0.8135 -0.6934,2.0786 0.1201,2.8257 l 1.7612,1.6172 H 34.1008 c -9.48,0 -13.8955,-4.9229 -13.8955,-15.4922 0,-10.9663 4.7573,-16.5264 14.1396,-16.5264 h 15.9204 c 1.1045,0 2,-0.8955 2,-2 v -3.4189 c 0,-1.1045 -0.8955,-2 -2,-2 H 34.345 c -13.4995,0 -21.5586,8.9517 -21.5586,23.9453 z m 1.9999,1e-4 c 0,-13.9464 7.129,-21.9453 19.5584,-21.9453 h 15.9208 v 3.4189 H 34.3447 c -7.3628,0 -16.1395,3.214 -16.1395,18.5264 0,11.6068 5.3478,17.4921 15.8958,17.4921 h 17.8248 l -5.5427,-5.0903 2.0293,-2.21 9.8013,9.0097 -9.8013,8.9927 -2.0293,-2.209 5.5248,-5.0743 H 34.101 C 21.6458,55.6977 14.7863,48.2715 14.7863,34.7867 Z"
       id="path2" />
  </g>
</g></svg>