<svg xmlns="http://www.w3.org/2000/svg" width="24" height="24" viewBox="0 0 24 24"> <g transform="translate(4.421052631578948 0.0) scale(0.42105263157894735)">
  
  <g
     id="line"
     transform="translate(-18,-4)">
    <g
       id="g6">
      <path
         fill="none"
         stroke="#000"
         stroke-linecap="round"
         stroke-linejoin="round"
         stroke-width="2"
         d="m 40.67,31.4908 a 6.311,6.311 0 0 1 3.3679,5.3886 c 0,3.6514 -3.5924,6.596 -8.0188,6.596 C 31.5927,43.4754 28,40.5308 28,36.8794 a 6.3159,6.3159 0 0 1 3.24,-5.3"
         id="path2" />
      <path
         fill="none"
         stroke="#000"
         stroke-linejoin="round"
         stroke-width="2"
         d="m 39.3868,30.46 a 2.38,2.38 0 0 1 -0.77,1.2368 4.6141,4.6141 0 0 1 -5.4849,0 2.63,2.63 0 0 1 -0.77,-1.2368 3.5288,3.5288 0 0 1 -0.1283,-1.2367 3.9547,3.9547 0 0 1 1.54,0.1767 3.1031,3.1031 0 0 1 0.8339,0.4122 3.4064,3.4064 0 0 1 1.1548,-1.8551 l 0.0962,-0.0883 0.0962,0.0883 a 3.2333,3.2333 0 0 1 1.1547,1.8551 4.4355,4.4355 0 0 1 0.834,-0.4122 3.98,3.98 0 0 1 1.54,-0.1767 2.5244,2.5244 0 0 1 -0.0966,1.2367 z"
         id="path4" />
    </g>
    <line
       x1="23"
       x2="49"
       y1="5"
       y2="5"
       fill="none"
       stroke="#000"
       stroke-linecap="round"
       stroke-linejoin="round"
       stroke-width="2"
       id="line8" />
    <line
       x1="19"
       x2="53"
       y1="21"
       y2="21"
       fill="none"
       stroke="#000"
       stroke-linecap="round"
       stroke-linejoin="round"
       stroke-width="2"
       id="line10" />
    <line
       x1="19"
       x2="53"
       y1="49"
       y2="49"
       fill="none"
       stroke="#000"
       stroke-linecap="round"
       stroke-linejoin="round"
       stroke-width="2"
       id="line12" />
    <polyline
       fill="none"
       stroke="#000"
       stroke-linecap="round"
       stroke-linejoin="round"
       stroke-width="2"
       points="19.895 5 19 5 19 60 53 60 53 5 52.105 5"
       id="polyline14" />
  </g>
</g></svg>