<svg xmlns="http://www.w3.org/2000/svg" width="24" height="24" viewBox="0 0 24 24"> <g transform="translate(0.0 6.374060911131637) scale(0.41421444523862394)">
  
  <g
     id="line"
     transform="translate(-7.029,-22.41181)">
    <path
       fill="none"
       stroke="#000"
       stroke-linecap="round"
       stroke-width="2"
       d="m 36,32.51 c 4.335,-4.336 8.841,-9.096 15.73,-9.096 7.226,0 12.24,5.271 12.24,12.58 -0.05592,7.058 -5.863,12.71 -12.92,12.58 -5.006,0 -8.99,-3.178 -12.47,-6.532 m -2.581,-2.564 c -4.335,4.335 -8.841,9.096 -15.73,9.096 -7.141,0 -12.24,-5.271 -12.24,-12.58 0.05558,-7.058 5.863,-12.71 12.92,-12.58 5.02,0 9.012,3.194 12.49,6.558 m -3.476,3.475 c -2.586,-2.503 -5.447,-4.932 -9.102,-4.932 -4.129,0.0055 -7.474,3.351 -7.48,7.48 -0.2047,4.113 3.108,7.542 7.226,7.48 4.844,5e-4 8.754,-4.166 11.98,-7.48 m 9.401,2.521 c 2.594,2.513 5.462,4.959 9.129,4.959 4.129,-0.0052 7.476,-3.351 7.482,-7.48 h 4e-4 c 0.2047,-4.113 -3.108,-7.542 -7.226,-7.48 -4.846,0 -8.756,4.165 -11.99,7.48"
       id="path2" />
    <line
       x1="32.599998"
       x2="36"
       y1="36"
       y2="32.509998"
       stroke="#000"
       stroke-linecap="round"
       stroke-linejoin="round"
       stroke-width="2"
       id="line4" />
    <line
       x1="36"
       x2="39.400002"
       y1="39.490002"
       y2="36"
       stroke="#000"
       stroke-linecap="round"
       stroke-linejoin="round"
       stroke-width="2"
       id="line6" />
  </g>
</g></svg>