<svg xmlns="http://www.w3.org/2000/svg" width="24" height="24" viewBox="0 0 24 24"> <g transform="translate(0.0 0.993730502445807) scale(0.4480426082546549)">
  
  <g
     id="line"
     fill="none"
     stroke="#000"
     stroke-linecap="round"
     stroke-linejoin="round"
     stroke-miterlimit="10"
     stroke-width="2"
     transform="translate(-7.4898868,-14.664021)">
    <path
       d="M 59,35 C 59,35 55.5,34.833 53.25,34.417 51,34 49.371,33.053 45.186,34.027 41,35 42,35 42,35 l 3,3"
       id="path2" />
    <path
       d="m 27,25 c 0,0 1,-5 -2,-8 -3,-3 6.3333,-0.8333 8.6667,6.0833 0,0 19.333,-2.083 26.333,10.917 0,0 2,4 -16,4 0,0 -2,5 -9,5 0,0 -2,0 1,-5 0,0 -10,-0.5 -15.5,9.75 -0.29517,0.57883 -0.50441,1.2045 -0.62771,1.7365 -1.0477,4.0472 5.5475,2.4327 6.6491,5.2532 0.40316,1.0322 1.1544,4.1685 0.56439,4.5874 -0.0393,0.0283 -0.0851,0.0437 -0.13677,0.0467 -0.19108,0.009 -0.47061,-0.16726 -0.86303,-0.59882 -2.0599,-1.5336 -4.9982,0.51116 -6.9868,-0.6529 -0.80032,-0.46845 -1.2022,-1.2239 -1.4915,-1.7917 -0.46148,0.7394 -1.075,2.2683 -2.1236,2.6224 -1.8358,0.5511 -4.5889,0.37522 -5.8969,3.8416 -1.1916,-3.6368 -2.3829,-6.2308 2.0593,-9.292 1.5604,-1.057 3.9503,-2.6878 4.0085,-4.1251 0.013,-0.227 -0.646,-16.38 11.347,-24.376 z"
       id="path4" />
  </g>
</g></svg>