<svg xmlns="http://www.w3.org/2000/svg" width="24" height="24" viewBox="0 0 24 24"> <g transform="translate(0.8959392166123479 0.0) scale(0.4703383104272044)">
  
  <g
     id="line"
     transform="translate(-12.391382,-9.9729)">
    <path
       fill="none"
       stroke="#000"
       stroke-linecap="round"
       stroke-linejoin="round"
       stroke-width="2"
       d="m 54.7803,40.7757 c 0.2364,-2.0235 -0.0649,-4.0736 -0.8736,-5.9435 -2.4043,-5.67 -3.042,-5.6425 -3.4287,-12.8222 -0.0322,-4.1856 -3.2362,-7.6631 -7.4052,-8.0371 0,0 -2.6,-3 -8,-3 -6.4317,0 -12.23,3.4658 -13.709,8.9658 -1.5,5.583 0.3447,7.834 -1.291,12.0342 -1.2173,3.1275 -3.0181,6.0642 -2.928,9.4371"
       id="path2" />
    <path
       fill="none"
       stroke="#000"
       stroke-linejoin="round"
       stroke-width="2"
       d="M 25.1846,33.6654 C 26.1526,40.2963 30.6811,45 35.9935,45 c 5.3363,0 9.8817,-4.7461 10.8219,-11.4242"
       id="path4" />
    <path
       fill="none"
       stroke="#000"
       stroke-linecap="round"
       stroke-linejoin="round"
       stroke-width="2"
       d="m 46.2879,26.1914 c -0.9234,-2.519 -2.6619,-4.665 -5.2154,-7.2185 -2.117,2.117 -7.282,4.8159 -10.9157,6.9"
       id="path6" />
    <path
       fill="none"
       stroke="#000"
       stroke-linecap="round"
       stroke-linejoin="round"
       stroke-width="2"
       d="m 39,38.9729 c -1.875,-1 -4.125,-1 -6,0"
       id="path8" />
    <path
       d="m 42,29.9729 c 0,1.1046 -0.8954,2 -2,2 -1.1046,0 -2,-0.8954 -2,-2 0,-1.1046 0.8954,-2 2,-2 1.1046,0 2,0.8954 2,2"
       id="path10" />
    <path
       d="m 34,29.9729 c 0,1.1046 -0.8954,2 -2,2 -1.1046,0 -2,-0.8954 -2,-2 0,-1.1046 0.8954,-2 2,-2 1.1046,0 2,0.8954 2,2"
       id="path12" />
    <path
       fill="none"
       stroke="#000"
       stroke-linecap="round"
       stroke-linejoin="round"
       stroke-width="2"
       d="M 28.773,41.6054 13.3913,41.583 c 1.694,2.6777 4.6436,8.9425 5.1442,10.7899"
       id="path14" />
    <path
       fill="none"
       stroke="#000"
       stroke-linecap="round"
       stroke-miterlimit="10"
       stroke-width="2"
       d="m 20.5496,53.6671 c 1.0817,-1.4077 2.4649,-2.5554 4.048,-3.3589 1.0422,-0.5249 2.1568,-0.8916 3.3071,-1.088"
       id="path16" />
    <path
       fill="none"
       stroke="#000"
       stroke-linecap="round"
       stroke-miterlimit="10"
       stroke-width="2"
       d="m 29.2085,49.7066 c -3.4125,1.1596 -5.9768,4.0098 -6.7705,7.5255"
       id="path18" />
    <path
       fill="none"
       stroke="#000"
       stroke-linecap="round"
       stroke-miterlimit="10"
       stroke-width="2"
       d="M 29.9435,50.6006 C 28.1424,52.4158 26.6877,54.5445 25.6509,56.882 25.2283,57.8412 24.8797,58.9876 24.608,60"
       id="path20" />
    <path
       fill="none"
       stroke="#000"
       stroke-linejoin="round"
       stroke-width="2"
       d="m 36,32.706 c -0.4906,0.9134 -2.9358,2.556 -5.8905,2.566 -2.4937,0.0084 -5.3503,-1.146 -7.7007,-4.8833 -0.8499,-1.3361 -2.4223,-5.0381 -2.4223,-8.0675 1.9916,6.7499 6.304,3.5056 10.6368,3.5306 1.848,0.0107 3.6998,0.6161 5.3767,2.8456 1.6769,-2.2294 3.5286,-2.8349 5.3767,-2.8456 4.3328,-0.025 8.6452,3.2193 10.6368,-3.5306 0,3.0294 -1.5724,6.7314 -2.4223,8.0675 -2.3504,3.7372 -5.207,4.8917 -7.7007,4.8833 C 38.9358,35.262 36.4906,33.6194 36,32.706 Z"
       id="path22" />
    <path
       fill="none"
       stroke="#000"
       stroke-linecap="round"
       stroke-linejoin="round"
       stroke-width="2"
       d="m 17,60 v -3 c 0,-4.9941 5.0078,-9 10,-9 6,5 12,5 18,0 4.9941,0 10,4.0059 10,9 v 3"
       id="path24" />
    <path
       fill="none"
       stroke="#000"
       stroke-linecap="round"
       stroke-linejoin="round"
       stroke-width="2"
       d="m 53.4646,52.3729 c 0.5006,-1.8474 3.4502,-8.1122 5.1442,-10.7899 L 43.227,41.6054"
       id="path26" />
    <path
       fill="none"
       stroke="#000"
       stroke-linecap="round"
       stroke-miterlimit="10"
       stroke-width="2"
       d="m 44.0953,49.2202 c 1.1503,0.1964 2.2649,0.5631 3.3071,1.088 1.5831,0.8035 2.9663,1.9512 4.048,3.3589"
       id="path28" />
    <path
       fill="none"
       stroke="#000"
       stroke-linecap="round"
       stroke-miterlimit="10"
       stroke-width="2"
       d="M 49.562,57.2321 C 48.7683,53.7164 46.204,50.8662 42.7915,49.7066"
       id="path30" />
    <path
       fill="none"
       stroke="#000"
       stroke-linecap="round"
       stroke-miterlimit="10"
       stroke-width="2"
       d="M 47.392,60 C 47.1203,58.9876 46.7717,57.8412 46.3491,56.882 45.3123,54.5445 43.8576,52.4158 42.0565,50.6006"
       id="path32" />
  </g>
</g></svg>