<svg xmlns="http://www.w3.org/2000/svg" width="24" height="24" viewBox="0 0 24 24"> <g transform="translate(1.8238317278171507 0.0) scale(0.46551412223403876)">
  
  <g
     id="line"
     transform="translate(-14,-10.2011)">
    <path
       fill="#000"
       stroke="none"
       d="m 16.4861,34.8186 c 0.0913,-0.4585 0.1988,-0.9108 0.3247,-1.3545 -0.1282,0.4725 -0.2344,0.9248 -0.3247,1.3545 z"
       id="path2" />
    <path
       fill="#000"
       stroke="none"
       d="m 17.0849,32.53 c -0.1051,0.3064 -0.1854,0.6218 -0.274,0.9341 0.0828,-0.3053 0.1726,-0.6163 0.274,-0.9341 z"
       id="path4" />
    <path
       fill="#000"
       stroke="none"
       d="m 16.3149,35.7 c 0.0483,-0.2778 0.107,-0.5753 0.1713,-0.8814 -0.0584,0.2931 -0.1277,0.5812 -0.1713,0.8814 z"
       id="path6" />
    <path
       fill="#000"
       stroke="none"
       d="m 16.0649,37.91 c -0.02,0.27 -0.03,0.53 -0.03,0.8 0,-0.15 0,-0.42 0.03,-0.8 z"
       id="path8" />
    <line
       x1="42.357601"
       x2="29.5249"
       y1="19.8333"
       y2="19.8333"
       fill="none"
       stroke="#000"
       stroke-linecap="round"
       stroke-miterlimit="10"
       stroke-width="2"
       id="line10" />
    <path
       fill="none"
       stroke="#000"
       stroke-linecap="round"
       stroke-linejoin="round"
       stroke-miterlimit="10"
       stroke-width="2"
       d="m 56.7197,40.0422 c 0,11.4368 -9.2781,20.7148 -20.7148,20.7148 -11.4471,0 -20.7252,-9.2781 -20.7252,-20.7148 0,0 0,-0.0519 0,-0.1349 0,-0.2802 0.0104,-0.55 0.0311,-0.8302 0,-0.1141 0.0104,-0.2387 0.0208,-0.3736 0.0104,-0.1764 0.0312,-0.3736 0.0519,-0.5812 0.0312,-0.2595 0.0623,-0.5501 0.1141,-0.8614 0.0208,-0.1556 0.0519,-0.3113 0.0727,-0.4774 0.1661,-0.9548 0.4152,-2.086 0.7991,-3.2899 0.0623,-0.1972 0.1349,-0.4047 0.2076,-0.6123 0.2179,-0.5812 0.4566,-1.1831 0.7368,-1.7955 0.0312,-0.0726 0.0623,-0.1452 0.1038,-0.2075 0.6745,-1.4322 2.6879,-4.1306 2.6879,-4.1306 1.152,-1.3803 2.4804,-2.6049 3.9541,-3.6427 0.1142,-0.083 0.2387,-0.166 0.3529,-0.2387 0.0312,-0.0208 0.0727,-0.0519 0.1038,-0.0727 2.9578,-2.1898 2.003,-4.1409 0.851,-5.3032 -0.5916,-0.218 -1.1001,-0.6123 -1.4529,-1.1105 -0.0208,-0.0104 -0.0312,-0.0208 -0.0312,-0.0208 -0.3944,-0.5396 -0.6227,-1.1934 -0.6227,-1.8992 v -0.0208 c 0,-1.7747 1.4529,-3.238 3.238,-3.238 h 18.9298 c 1.7851,0 3.238,1.4633 3.238,3.238 v 0.0208 c 0,0.7368 -0.2595,1.4322 -0.6849,1.9822 -0.3321,0.4359 -0.7784,0.7784 -1.2869,0.9963 -0.0104,0 -0.0104,0 -0.0104,0 -1.1727,1.1623 -2.2002,3.1342 0.7991,5.3551 0.0312,0.0208 0.0727,0.0519 0.1038,0.0727 0.1141,0.0727 0.2387,0.1557 0.3528,0.2387 1.4737,1.0378 2.8021,2.2625 3.9541,3.6427 1.0482,1.2558 1.9615,2.6361 2.688,4.1306 0.0415,0.0623 0.0727,0.1349 0.1038,0.2075 0.1557,0.3321 0.2906,0.6538 0.4255,0.9859 0.1038,0.2698 0.2076,0.5397 0.3009,0.7991 0.1038,0.2802 0.1868,0.55 0.2698,0.8095 0,0.0104 0.0104,0.0208 0.0104,0.0312 0.0727,0.2491 0.1453,0.5085 0.2179,0.7576 0.0104,0.0415 0.0312,0.0934 0.0416,0.1349 0.0311,0.1141 0.0623,0.218 0.083,0.3321 0.0415,0.1557 0.083,0.3113 0.1141,0.4774 0.0311,0.1556 0.0727,0.3009 0.1038,0.4566 0.0312,0.1245 0.0623,0.2595 0.083,0.3944 0,0.0103 0,0.0311 0.0104,0.0415 0.0519,0.2906 0.1038,0.5604 0.1452,0.8199 0.0519,0.3633 0.0934,0.6954 0.1246,0.9963 0.0207,0.2076 0.0415,0.4048 0.0519,0.5812 0.0623,0.8408 0.0519,1.3389 0.0519,1.3389 z"
       id="path12" />
    <path
       fill="none"
       stroke="#000"
       stroke-linecap="round"
       stroke-linejoin="round"
       stroke-miterlimit="10"
       stroke-width="2"
       d="m 39.1902,36.3571 c -0.2715,-1.0566 -1.4456,-1.8514 -2.8529,-1.8514 h -10e-5 c -1.6083,0 -2.9121,1.0381 -2.9121,2.3188 0,1.2807 1.3038,2.3188 2.9121,2.3188 l -0.0591,0.0086 c 1.6083,0 2.9121,1.0381 2.9121,2.3188 0,1.2807 -1.3038,2.3188 -2.9121,2.3188 v 0 c -1.4073,0 -2.5815,-0.7947 -2.853,-1.8514"
       id="path14" />
    <line
       x1="36.307598"
       x2="36.307598"
       y1="34.5056"
       y2="32.294998"
       fill="none"
       stroke="#000"
       stroke-linecap="round"
       stroke-linejoin="round"
       stroke-miterlimit="10"
       stroke-width="2"
       id="line16" />
    <line
       x1="36.307598"
       x2="36.307598"
       y1="46"
       y2="43.789299"
       fill="none"
       stroke="#000"
       stroke-linecap="round"
       stroke-linejoin="round"
       stroke-miterlimit="10"
       stroke-width="2"
       id="line18" />
    <path
       fill="none"
       stroke="#000"
       stroke-linecap="round"
       stroke-linejoin="round"
       stroke-miterlimit="10"
       stroke-width="2"
       d="m 22,20 c 0,0 -6,0 -6,6"
       id="path20" />
    <path
       fill="none"
       stroke="#000"
       stroke-linecap="round"
       stroke-linejoin="round"
       stroke-miterlimit="10"
       stroke-width="2"
       d="m 17,18 c 0,0 -2,0 -2,-2"
       id="path22" />
  </g>
</g></svg>