<svg xmlns="http://www.w3.org/2000/svg" width="24" height="24" viewBox="0 0 24 24"> <g transform="scale(0.5)">
  
  <g
     id="line"
     transform="translate(-12,-12)">
    <circle
       cx="35.959999"
       cy="35.889999"
       stroke="#000"
       stroke-miterlimit="10"
       stroke-width="1.25"
       id="ellipse2"
       r="3.2809999" />
    <path
       stroke="#000"
       stroke-miterlimit="10"
       stroke-width="1.254"
       d="m 23.09,43.42 a 14.76,14.76 0 0 0 3.496,4.097 L 32.377,40.56 A 5.733,5.733 0 0 1 30.21,36.807 l -8.921,1.537 a 14.76,14.76 0 0 0 1.8,5.076 z"
       id="path4" />
    <path
       stroke="#000"
       stroke-miterlimit="10"
       stroke-width="1.254"
       d="m 48.91,43.42 a 14.76,14.76 0 0 0 1.8,-5.076 l -8.921,-1.537 a 5.733,5.733 0 0 1 -2.167,3.753 l 5.791,6.957 a 14.76,14.76 0 0 0 3.496,-4.097 z"
       id="path6" />
    <path
       stroke="#000"
       stroke-miterlimit="10"
       stroke-width="1.254"
       d="m 36,21.13 a 14.76,14.76 0 0 0 -5.296,0.9794 l 3.129,8.494 a 5.733,5.733 0 0 1 4.333,0 l 3.129,-8.494 A 14.76,14.76 0 0 0 35.999,21.13 Z"
       id="path8" />
    <circle
       cx="36"
       cy="36"
       r="23"
       fill="none"
       stroke="#000"
       stroke-linecap="round"
       stroke-linejoin="round"
       stroke-width="2"
       id="circle10" />
  </g>
</g></svg>