<svg xmlns="http://www.w3.org/2000/svg" width="24" height="24" viewBox="0 0 24 24"> <g transform="translate(1.4195578047042066 0.0) scale(0.5702066999287241)">
  
  <g
     id="line"
     transform="translate(-17.1832,-15)">
    <path
       fill="none"
       stroke="#000"
       stroke-linecap="round"
       stroke-linejoin="round"
       stroke-width="2"
       d="m 44.2748,23.3423 h 4.948 a 4.0713,4.0713 0 0 1 4.0713,4.0714 V 52.0186 A 4.0713,4.0713 0 0 1 49.2228,56.09 H 22.2546 A 4.0714,4.0714 0 0 1 18.1832,52.0186 V 27.4137 a 4.0714,4.0714 0 0 1 4.0714,-4.0714 H 28.63"
       id="path2" />
    <circle
       cx="36.062"
       cy="23.2787"
       r="7.2786999"
       fill="none"
       stroke="#000"
       stroke-linecap="round"
       stroke-linejoin="round"
       stroke-width="2"
       id="circle4" />
    <path
       d="m 38.39,18.9441 a 0.6217,0.6217 0 0 0 -0.8339,0.2782 l -1.89,3.7816 a 1.1456,1.1456 0 0 0 -1.0146,0.8128 1.182,1.182 0 0 0 2.2691,0.659 1.1232,1.1232 0 0 0 -0.14,-0.9217 l 1.8872,-3.776 A 0.6217,0.6217 0 0 0 38.39,18.9441 Z"
       id="path6" />
    <path
       fill="none"
       stroke="#000"
       stroke-linecap="round"
       stroke-linejoin="round"
       stroke-width="2"
       d="m 46.1273,24.0481 a 8.14,8.14 0 0 1 0.1092,1.3315 c 0,5.019 -4.5886,9.0876 -10.2489,9.0876 -5.6603,0 -10.2489,-4.0686 -10.2489,-9.0872 a 8.1373,8.1373 0 0 1 0.1417,-1.5145"
       id="path8" />
  </g>
</g></svg>