<svg xmlns="http://www.w3.org/2000/svg" width="24" height="24" viewBox="0 0 24 24"> <g transform="translate(2.5882232987159686 0.0) scale(0.47058883506420157)">
  
  <g
     id="line"
     transform="translate(-16,-10.000064)">
    <g
       id="color-3">
      <path
         fill="none"
         stroke="#000"
         stroke-linecap="round"
         stroke-linejoin="round"
         stroke-width="2"
         d="m 55,60 v -3 c 0,-5 -5,-9 -10,-9 -6,5 -12,5 -18,0 -5,0 -10,4 -10,9 v 3"
         id="path2" />
    </g>
    <path
       d="m 40,26.7 c 1.1046,0 2,0.8954 2,2 0,1.1046 -0.8954,2 -2,2 -1.1046,0 -2,-0.8954 -2,-2 0.0032,-1.1032 0.8968,-1.9968 2,-2 z"
       id="path5" />
    <path
       d="m 39.9,36.5 c 0.2165,0.4972 -0.0061,1.0761 -0.5,1.3 -1.0802,0.5583 -2.2845,0.8336 -3.5,0.8 -1.1781,-0.0154 -2.3386,-0.2885 -3.4,-0.8 -0.4939,-0.2239 -0.7165,-0.8028 -0.5,-1.3 0.1865,-0.4504 0.7028,-0.6643 1.1531,-0.4778 0.0513,0.0212 0.1005,0.0473 0.1469,0.0778 1.5809,0.9 3.5191,0.9 5.1,0 0.5251,-0.3006 1.1943,-0.1221 1.5,0.4 z"
       id="path7" />
    <path
       d="m 32,26.7 c 1.1046,0 2,0.8954 2,2 0,1.1046 -0.8954,2 -2,2 -1.1046,0 -2,-0.8954 -2,-2 0.0032,-1.1032 0.8968,-1.9968 2,-2 z"
       id="path9" />
    <path
       fill="none"
       stroke="#000"
       stroke-linecap="round"
       stroke-linejoin="round"
       stroke-width="2"
       d="m 24.3,29 c 0,0.4 0,1.4 -0.1,2.4 -0.2336,3.0875 0.426,6.177 1.9,8.9 0.561,1 1.2689,1.9101 2.1,2.7 2.0541,1.7528 4.7038,2.6479 7.4,2.5"
       id="path11" />
    <path
       fill="none"
       stroke="#000"
       stroke-linecap="round"
       stroke-linejoin="round"
       stroke-width="2"
       d="m 47.2,28.7 v 0.4 c -0.4805,2.0059 -1.1849,3.9515 -2.1,5.8 0,0 -1.9,3 -2.7,-1.2 -4.2842,-1.2003 -8.8158,-1.2003 -13.1,0 -0.8,4.2 -2.7,1.2 -2.7,1.2 -0.9151,-1.8485 -1.6195,-3.7941 -2.1,-5.8 0,-0.1 -0.2,-1.3 -0.2,-1.5"
       id="path13" />
    <path
       fill="none"
       stroke="#000"
       stroke-linecap="round"
       stroke-linejoin="round"
       stroke-width="2"
       d="m 47.2,29 c 0,0.4 0.1,1.4 0.1,2.4 0.2336,3.0875 -0.426,6.177 -1.9,8.9 -0.5279,1.0216 -1.2398,1.9369 -2.1,2.7 -2.0473,1.7647 -4.702,2.6615 -7.4,2.5 h -0.3"
       id="path15" />
    <path
       fill="none"
       stroke="#000"
       stroke-linecap="round"
       stroke-linejoin="round"
       stroke-width="2"
       d="m 24.3,29 c -1.2142,-4.4858 -0.4886,-9.2753 2,-13.2 3.2,-4.9 12.9,-2.4 12.9,-2.4 l 3.1,-2.4 1.1,3.1 3.4,-2.5 c 0.7247,1.8456 0.249,3.9466 -1.2,5.3 -1.0075,1.0362 -2.193,1.883 -3.5,2.5 -0.3734,0.2244 -0.7777,0.3928 -1.2,0.5 -5.8,2.2 -6.1,1.9 -10.6,0 0,0 -3.3,-2.5 -6.1,8.6"
       id="path17" />
    <path
       fill="none"
       stroke="#000"
       stroke-linecap="round"
       stroke-linejoin="round"
       stroke-width="2"
       d="m 42,19.9 h 0.2 c 1.2,0.1 3.2,1.5 5,8.7"
       id="path19" />
    <path
       fill="none"
       stroke="#000"
       stroke-linecap="round"
       stroke-linejoin="round"
       stroke-width="2"
       d="m 45.8,17.1 c 1.787,3.6977 2.28,7.8885 1.4,11.9"
       id="path21" />
  </g>
</g></svg>