<svg xmlns="http://www.w3.org/2000/svg" width="24" height="24" viewBox="0 0 24 24"> <g transform="translate(0.0 0.13136049708512942) scale(0.514332408320784)">
  
  <g
     id="line"
     transform="translate(-12.574118,-14.25)">
    <path
       fill="none"
       stroke="#000"
       stroke-miterlimit="10"
       stroke-width="2"
       d="m 55.4439,43.1392 c 3.9189,3.9189 3.7265,10.4004 -0.5773,14.0676 -3.821,3.2558 -9.5884,2.7869 -13.1692,-0.7314 -9.1932,-9.0327 -20.4663,-9.4964 -21.8012,-9.5195 -0.0506,-9e-4 -0.0777,-0.0591 -0.043,-0.096 1.404,-1.4949 19.344,-19.9446 35.1903,-4.0983 0.1372,0.1259 0.2688,0.246 0.4004,0.3776 z"
       id="path2" />
    <path
       fill="none"
       stroke="#000"
       stroke-linecap="round"
       stroke-miterlimit="10"
       stroke-width="2"
       d="m 37.4872,32.4593 c 0.6253,-1.3559 1.3429,-2.6301 2.0763,-3.8017 2.6065,-4.148 5.5172,-6.9573 6.075,-7.4847 0.0305,-0.0304 0.0913,-0.0101 0.0913,0.0406 0.0198,0.8707 0.2197,5.9457 2.8433,11.9158 l 0.2619,0.5604"
       id="path4" />
    <path
       fill="none"
       stroke="#000"
       stroke-linecap="round"
       stroke-miterlimit="10"
       stroke-width="2"
       d="M 36.1052,25.1992 C 30.4562,19.5502 24.797,16.2034 20.5374,15.4224 19.8985,15.3109 19.3001,15.25 18.7322,15.25 c -1.572,0 -2.8702,0.4564 -3.7931,1.3691 -3.4584,3.4686 -0.2535,12.3326 8.58,21.1661"
       id="path6" />
  </g>
</g></svg>