<svg xmlns="http://www.w3.org/2000/svg" width="24" height="24" viewBox="0 0 24 24"> <g transform="translate(3.793306274111748 0.0) scale(0.41126041292087684)">
  
  <g
     id="line"
     transform="translate(-18.366831,-6.6036136)">
    <path
       fill="none"
       stroke="#000"
       stroke-linecap="round"
       stroke-linejoin="round"
       stroke-width="2"
       d="M 33.0155,38.7965 31.08,63.9608 h 10.0322 l -2.19,-28.4641"
       id="path2" />
    <path
       fill="none"
       stroke="#000"
       stroke-linecap="round"
       stroke-linejoin="round"
       stroke-width="2"
       d="m 32.3667,24.4379 c 0.0046,0.0633 0.0216,0.1251 0.05,0.1818 0.1174,0.184 0.3019,0.315 0.5144,0.3652 1.2434,-1.0656 2.9447,-1.4229 4.5117,-0.9476 0.4714,-0.5217 0.7544,-1.1862 0.8038,-1.8876 0.0053,-0.6874 -0.1017,-1.3711 -0.3167,-2.0241 C 37.1348,17.0998 36.1754,14.1196 35.056,11.1982 34.7383,10.3074 34.3128,9.4589 33.7891,8.6714 33.4983,8.1988 33.0549,7.8397 32.5322,7.6534 31.9878,7.4823 31.4023,7.751 31.1771,8.2753 c -0.048,0.2033 -0.0577,0.4138 -0.0286,0.6206 0.4061,5.1807 0.8122,10.3614 1.2182,15.542 z"
       id="path4" />
    <path
       fill="none"
       stroke="#000"
       stroke-linecap="round"
       stroke-linejoin="round"
       stroke-width="2"
       d="m 34.0253,35.1441 c 0.0525,-0.0356 0.0975,-0.0812 0.1324,-0.1342 0.1007,-0.1937 0.1218,-0.419 0.0591,-0.6281 -1.5445,-0.544 -2.7046,-1.8387 -3.0765,-3.4334 -0.6875,-0.1474 -1.4045,-0.0602 -2.0366,0.2477 -0.598,0.3391 -1.1366,0.7736 -1.5946,1.2863 -2.2228,2.2015 -4.3241,4.5225 -6.2944,6.9526 -0.6126,0.7205 -1.1347,1.5133 -1.5548,2.3606 -0.2639,0.4881 -0.3532,1.0517 -0.2532,1.5975 0.124,0.557 0.6495,0.9297 1.2161,0.8626 0.2001,-0.0601 0.3872,-0.1569 0.5518,-0.2855 4.2837,-2.9422 8.5672,-5.8842 12.8507,-8.8261 z"
       id="path6" />
    <path
       fill="none"
       stroke="#000"
       stroke-linecap="round"
       stroke-linejoin="round"
       stroke-width="2"
       d="m 42.4678,28.3546 c -0.0571,-0.0277 -0.1191,-0.0439 -0.1824,-0.0476 -0.2181,0.0097 -0.4238,0.104 -0.5735,0.2629 0.3011,1.6096 -0.2401,3.2616 -1.4352,4.381 0.2161,0.6691 0.6501,1.2465 1.2328,1.6399 0.5927,0.3483 1.2383,0.5975 1.9113,0.7378 3.018,0.8243 6.0786,1.4836 9.1683,1.9748 0.9303,0.1702 1.8779,0.2261 2.8217,0.1662 0.5547,-0.0155 1.0874,-0.22 1.5101,-0.5795 0.4204,-0.3859 0.4804,-1.0273 0.139,-1.4845 -0.1521,-0.1432 -0.3295,-0.2569 -0.5232,-0.3351 -4.6897,-2.2386 -9.3793,-4.4772 -14.0689,-6.7159 z"
       id="path8" />
    <circle
       cx="36.2966"
       cy="29.2966"
       r="1.7034"
       fill="none"
       stroke="#000"
       stroke-linecap="round"
       stroke-linejoin="round"
       stroke-width="2"
       id="circle10" />
  </g>
</g></svg>