<svg xmlns="http://www.w3.org/2000/svg" width="24" height="24" viewBox="0 0 24 24"> <g transform="translate(0.0 3.0604961038961047) scale(0.4722550177095632)">
  
  <g
     id="line"
     transform="translate(-10.5905,-18.3832)">
    <path
       fill="none"
       stroke="#000"
       stroke-linecap="round"
       stroke-linejoin="round"
       stroke-width="2"
       d="m 23.1564,36.8075 c 0,-1.6922 5.7726,-4.0639 12.8436,-4.0639 7.0163,0 12.8436,2.3717 12.8436,4.0639"
       id="path2" />
    <path
       fill="none"
       stroke="#000"
       stroke-linecap="round"
       stroke-linejoin="round"
       stroke-width="2"
       d="m 52.3244,33.688 c 0,3.8911 -7.3087,7.0454 -16.3244,7.0454 -9.0157,0 -16.3244,-3.1543 -16.3244,-7.0454"
       id="path4" />
    <path
       fill="none"
       stroke="#000"
       stroke-linecap="round"
       stroke-linejoin="round"
       stroke-width="2"
       d="m 53.3015,42.5287 c -1.5841,2.241 -5.687,4.008 -10.885,4.6863"
       id="path6" />
    <path
       fill="none"
       stroke="#000"
       stroke-linecap="round"
       stroke-linejoin="round"
       stroke-width="2"
       d="m 36,24.6426 a 28.5707,28.5707 0 0 1 12.4738,2.5"
       id="path8" />
    <path
       fill="none"
       stroke="#000"
       stroke-linecap="round"
       stroke-linejoin="round"
       stroke-width="2"
       d="m 11.5905,31.688 c 0,-6.7958 10.9285,-12.3048 24.41,-12.3048 13.4815,0 24.41,5.509 24.41,12.3048 v 1.0556 c 0,5.6918 -2.0093,12.49 -5.0625,16.3445 -3.0887,3.8978 -9.5935,6.1539 -19.348,6.1539 -9.7545,0 -15.8538,-1.8262 -19.347,-6.1539 -3.0884,-3.8263 -5.0625,-9.6808 -5.0625,-16.3445 z"
       id="path10" />
    <ellipse
       cx="36.187599"
       cy="36.922699"
       rx="13.0311"
       ry="4.1791"
       id="ellipse12" />
  </g>
</g></svg>