<svg xmlns="http://www.w3.org/2000/svg" width="24" height="24" viewBox="0 0 24 24"> <g transform="translate(2.1250280367088283 0.0) scale(0.4708342600430566)">
  
  <g
     id="line"
     transform="translate(-15.02665,-10)">
    <path
       fill="none"
       stroke="#000"
       stroke-linecap="round"
       stroke-linejoin="round"
       stroke-miterlimit="10"
       stroke-width="2"
       d="m 26,21 c 0,-5.5228 4.4772,-10 10,-10 5.5228,0 10,4.4772 10,10"
       id="path2" />
    <path
       fill="none"
       stroke="#000"
       stroke-linecap="round"
       stroke-linejoin="round"
       stroke-miterlimit="10"
       stroke-width="2"
       d="M 36.0657,26.5031 C 37.7119,23.2387 41.0947,21 45,21 c 5.5225,0 10,4.4766 10,10 0,3.1787 -1.4829,6.0107 -3.7946,7.8423"
       id="path4" />
    <path
       fill="none"
       stroke="#000"
       stroke-linecap="round"
       stroke-linejoin="round"
       stroke-miterlimit="10"
       stroke-width="2"
       d="M 20.6391,38.7165 C 18.4166,36.8823 17,34.1066 17,31 c 0,-5.5228 4.4772,-10 10,-10 5.5228,0 10,4.4772 10,10 0,3.1784 -1.4828,6.0105 -3.7945,7.8421"
       id="path6" />
    <path
       fill="none"
       stroke="#000"
       stroke-linecap="round"
       stroke-linejoin="round"
       stroke-miterlimit="10"
       stroke-width="1.9467"
       d="m 33,60 v -6 c 0,-2.7617 -2.2393,-5 -5,-5 h -4 -3 c -2.7607,0 -5,-2.2383 -5,-5 v -3 c 0,-1.1045 0.8955,-2 2,-2 h 36 c 1.1045,0 2,0.8955 2,2 v 3 c 0,2.7617 -2.2393,5 -5,5 h -3 -4 c -2.7607,0 -5,2.2383 -5,5 v 6"
       id="path8" />
    <line
       x1="29"
       x2="43"
       y1="60"
       y2="60"
       fill="none"
       stroke="#000"
       stroke-linecap="round"
       stroke-linejoin="round"
       stroke-miterlimit="10"
       stroke-width="1.9467"
       id="line10" />
  </g>
</g></svg>