<svg xmlns="http://www.w3.org/2000/svg" width="24" height="24" viewBox="0 0 24 24"> <g transform="translate(4.3602486844643265 0.0) scale(0.37267079587978896)">
  
  <g
     id="line"
     transform="translate(-15.5,-3.8000002)">
    <rect
       x="16.5"
       y="4.8000002"
       width="39"
       height="62.400002"
       fill="none"
       stroke="#000"
       stroke-linecap="round"
       stroke-linejoin="round"
       stroke-width="2"
       id="rect2" />
    <path
       fill="none"
       stroke="#000"
       stroke-linecap="round"
       stroke-linejoin="round"
       stroke-width="2"
       d="m 21.0209,23.286 c -0.6734,0.15 3.9411,-6.4248 11.4258,-2.5271 0,0 4.5,-10.7789 14.4109,-6.7508 0,0 -8.1695,6.2635 -6.0268,5.9931 8.2578,-1.042 9.3575,4.3845 9.3575,4.3845 C 40.1169,21.5471 45.81,29.9874 45.81,29.9874 38.9563,23.1466 31.3361,24.2696 25.8558,29.2632 c 2e-4,0 2.9642,-7.7161 -4.8349,-5.9772 z"
       id="path4" />
    <path
       fill="none"
       stroke="#000"
       stroke-linecap="round"
       stroke-linejoin="round"
       stroke-width="2"
       d="m 25.9961,42.78 c -1.211,0.0039 -6.32,3.4383 -6.32,5.0027 0,0 6.5691,-1.77 8.2538,-1.1678 0,0 -1.939,3.8151 -1.8187,5.8608 0,0 6.3717,-3.1424 9.8822,-3.1424"
       id="path6" />
    <path
       fill="none"
       stroke="#000"
       stroke-linecap="round"
       stroke-linejoin="round"
       stroke-width="2"
       d="m 45.99,42.78 c 1.211,0.0039 6.32,3.4383 6.32,5.0027 0,0 -6.5692,-1.77 -8.2539,-1.1678 0,0 1.9391,3.8151 1.8187,5.8608 0,0 -6.3717,-3.1424 -9.8822,-3.1424"
       id="path8" />
    <path
       fill="none"
       stroke="#000"
       stroke-linecap="round"
       stroke-linejoin="round"
       stroke-width="2"
       d="m 23.37,7.35 v 4.5 a 2.5,2.5 0 0 1 -2.5,2.5 v 0 a 2.4908,2.4908 0 0 1 -1.6728,-0.642"
       id="path10" />
    <path
       fill="none"
       stroke="#000"
       stroke-linecap="round"
       stroke-linejoin="round"
       stroke-width="2"
       d="m 48.63,64.2165 v -4.5 a 2.5,2.5 0 0 1 2.5,-2.5 v 0 a 2.4908,2.4908 0 0 1 1.6728,0.642"
       id="path12" />
    <circle
       cx="50.782001"
       cy="27.4753"
       r="1.9488"
       id="circle14" />
    <circle
       cx="48.833199"
       cy="16.4818"
       r="1.9488"
       id="circle16" />
    <circle
       cx="20.679701"
       cy="26.466801"
       r="1.9488"
       id="circle18" />
    <path
       d="m 41.7716,31.0968 a 1.9489,1.9489 0 1 1 -1.9488,-1.9489 1.95,1.95 0 0 1 1.9488,1.9489"
       id="path20" />
    <path
       d="m 33.9763,31.0968 a 1.9489,1.9489 0 1 1 -1.9489,-1.9489 1.95,1.95 0 0 1 1.9489,1.9489"
       id="path22" />
    <path
       d="m 35.925,40.8433 a 7.4566,7.4566 0 0 1 -3.3591,-0.836 0.97450079,0.97450079 0 1 1 0.8717,-1.7432 5.24,5.24 0 0 0 4.9748,0 0.97450079,0.97450079 0 1 1 0.8717,1.7432 7.4566,7.4566 0 0 1 -3.3591,0.836 z"
       id="path24" />
  </g>
</g></svg>