<svg xmlns="http://www.w3.org/2000/svg" width="24" height="24" viewBox="0 0 24 24"> <g transform="translate(0.0 0.8360749341161764) scale(0.4130809092282585)">
  
  <g
     id="line"
     transform="translate(-6.95,-6.957)">
    <path
       fill="none"
       stroke="#000"
       stroke-linecap="round"
       stroke-linejoin="round"
       stroke-width="2"
       d="m 7.95,7.957 c 0,0 19.41,5.496 25.24,26.36"
       id="path2" />
    <path
       fill="none"
       stroke="#000"
       stroke-linecap="round"
       stroke-linejoin="round"
       stroke-width="2"
       d="m 33.16,34.42 h 21.05 a 1.868,1.872 0 0 1 1.868,1.872 V 42.58 A 1.868,1.872 0 0 1 54.21,44.452 H 34.37 A 1.868,1.872 0 0 1 32.502,42.58 v -7.494 a 0.6638,0.6649 0 0 1 0.6638,-0.6649 z"
       id="path4" />
    <line
       x1="53.32"
       x2="35.889999"
       y1="55.029999"
       y2="55.029999"
       fill="none"
       stroke="#000"
       stroke-linecap="round"
       stroke-linejoin="round"
       stroke-width="2"
       id="line6" />
    <polyline
       transform="matrix(1.549,0,0,1.552,-16.13,-26.71)"
       fill="none"
       stroke="#000"
       stroke-linecap="round"
       stroke-linejoin="round"
       stroke-width="1.29"
       points="33.64 49.24 35.06 49.24 35.06 45.87 43.28 45.87 43.28 49.24 45.42 49.24 46.77 49.23 46.77 49.32"
       id="polyline8" />
    <ellipse
       cx="28.65"
       cy="52.23"
       rx="7.7639999"
       ry="7.776"
       fill="none"
       stroke="#000"
       stroke-linecap="round"
       stroke-linejoin="round"
       stroke-width="2"
       id="ellipse10" />
    <ellipse
       cx="58.68"
       cy="54.630001"
       rx="5.3699999"
       ry="5.3790002"
       fill="none"
       stroke="#000"
       stroke-linecap="round"
       stroke-linejoin="round"
       stroke-width="2"
       id="ellipse12" />
    <rect
       x="45.580002"
       y="30.700001"
       rx="1.201"
       ry="1.201"
       width="6.7249999"
       height="3.7279999"
       id="rect14" />
  </g>
</g></svg>