<svg xmlns="http://www.w3.org/2000/svg" width="24" height="24" viewBox="0 0 24 24"> <g transform="scale(0.41379310344827586)">
  
  <g
     id="line"
     transform="translate(-7,-7)">
    <g
       id="line-2">
      <circle
         cx="36"
         cy="36"
         r="28"
         fill="none"
         stroke="#000"
         stroke-linejoin="round"
         stroke-width="2"
         id="circle2" />
    </g>
    <path
       fill="none"
       stroke="#000"
       stroke-linejoin="round"
       stroke-width="2"
       d="m 46,34.448 h -8 c -0.5522,0 -1,0.4478 -1,1 0,0.5522 0.4478,1 1,1 h 7 v 3.0562 c 0,4.9624 -4.0376,9 -9,9 -4.9624,0 -9,-4.0376 -9,-9 v -8 c 0,-4.9624 4.0376,-9 9,-9 2.209,0 4.3301,0.8037 5.9717,2.2637 0.4131,0.3677 1.0449,0.3296 1.4121,-0.083 0.3667,-0.4131 0.3296,-1.0449 -0.083,-1.4121 C 41.2925,21.4876 38.6997,20.5042 36,20.5042 c -6.0654,0 -11,4.9346 -11,11 v 8 c 0,6.0654 4.9346,11 11,11 6.0654,0 11,-4.9346 11,-11 V 35.448 c 0,-0.5522 -0.4478,-1 -1,-1 z"
       id="path5" />
  </g>
</g></svg>