<svg xmlns="http://www.w3.org/2000/svg" width="24" height="24" viewBox="0 0 24 24"> <g transform="translate(0.0 0.00001913906246286956) scale(0.38664772651297913)">
  
  <g
     id="line"
     transform="translate(-4.963946,-4.964046)">
    <g
       id="g6">
      <path
         fill="none"
         stroke="#000"
         stroke-miterlimit="10"
         stroke-width="2"
         d="m 23.1932,40.1518 c -0.7944,-3.9626 -0.3766,-8.4301 4.076,-12.8827 6.8508,-6.8508 13.7371,-4.1505 18.7646,-2.1779 4.9843,1.9542 7.7305,2.8277 10.8738,-0.3156 l 4.4401,-4.4401 c 1.0738,-1.0738 2.8153,-1.0738 3.8891,0 1.0738,1.0738 1.0738,2.8153 0,3.8891 l -4.4401,4.4401 c -5.835,5.835 -11.8986,3.4575 -16.7703,1.5468 -5.469,-2.1448 -8.7629,-3.1585 -12.8681,0.9467 -3.684,3.684 -3.2459,6.7149 -1.5669,11.2503"
         id="path2" />
      <path
         fill="none"
         stroke="#000"
         stroke-miterlimit="10"
         stroke-width="2"
         d="m 31.8511,48.8057 c 0.9568,3.7914 0.8586,7.946 -3.1864,11.991 l -4.4401,4.4401 c -1.0738,1.0738 -2.8153,1.0738 -3.8891,0 -1.0738,-1.0738 -1.0738,-2.8153 0,-3.8891 l 4.4401,-4.4401 c 3.0081,-3.0081 2.3373,-5.6531 0.5607,-10.2439"
         id="path4" />
    </g>
    <g
       id="g12">
      <path
         fill="none"
         stroke="#000"
         stroke-miterlimit="10"
         stroke-width="2"
         d="m 40.1484,23.193 c -0.9565,-3.7911 -0.8576,-7.9453 3.1868,-11.9897 l 4.4401,-4.4401 c 1.0738,-1.0738 2.8153,-1.0738 3.8891,0 1.0738,1.0738 1.0738,2.8153 0,3.8891 l -4.4401,4.4401 c -3.0084,3.0084 -2.337,5.6534 -0.5609,10.2443"
         id="path8" />
      <path
         fill="none"
         stroke="#000"
         stroke-miterlimit="10"
         stroke-width="2"
         d="m 48.8073,31.851 c 0.7937,3.9617 0.3748,8.4283 -4.0766,12.8797 -6.8508,6.8508 -13.7371,4.1498 -18.7649,2.1783 -4.9836,-1.9542 -7.7305,-2.8277 -10.8735,0.3152 l -4.4401,4.4401 c -1.0738,1.0738 -2.8153,1.0738 -3.8891,0 -1.0738,-1.0738 -1.0738,-2.8153 0,-3.8891 l 4.4401,-4.4401 c 5.835,-5.835 11.8982,-3.4572 16.7707,-1.5465 5.4683,2.1448 8.7625,3.1582 12.8678,-0.9471 3.6841,-3.6841 3.2456,-6.7147 1.5671,-11.2501"
         id="path10" />
    </g>
    <line
       x1="50.983799"
       x2="60.667099"
       y1="11.3328"
       y2="21.0161"
       fill="none"
       stroke="#000"
       stroke-linecap="round"
       stroke-linejoin="round"
       stroke-width="2"
       id="line14" />
    <line
       x1="46.712399"
       x2="56.347099"
       y1="15.6527"
       y2="25.2875"
       fill="none"
       stroke="#000"
       stroke-linecap="round"
       stroke-linejoin="round"
       stroke-width="2"
       id="line16" />
    <line
       x1="35.223701"
       x2="43.423"
       y1="28.5769"
       y2="36.776199"
       fill="none"
       stroke="#000"
       stroke-linecap="round"
       stroke-linejoin="round"
       stroke-width="2"
       id="line18" />
    <line
       x1="30.7892"
       x2="40.459"
       y1="31.540899"
       y2="41.210602"
       fill="none"
       stroke="#000"
       stroke-linecap="round"
       stroke-linejoin="round"
       stroke-width="2"
       id="line20" />
    <line
       x1="28.361099"
       x2="35.488701"
       y1="36.5112"
       y2="43.638802"
       fill="none"
       stroke="#000"
       stroke-linecap="round"
       stroke-linejoin="round"
       stroke-width="2"
       id="line22" />
    <line
       x1="17.735001"
       x2="26.546301"
       y1="45.453602"
       y2="54.2649"
       fill="none"
       stroke="#000"
       stroke-linecap="round"
       stroke-linejoin="round"
       stroke-width="2"
       id="line24" />
    <line
       x1="13.0033"
       x2="22.686701"
       y1="49.313202"
       y2="58.996601"
       fill="none"
       stroke="#000"
       stroke-linecap="round"
       stroke-linejoin="round"
       stroke-width="2"
       id="line26" />
  </g>
</g></svg>