<svg xmlns="http://www.w3.org/2000/svg" width="24" height="24" viewBox="0 0 24 24"> <g transform="translate(0.0 0.6752664780961855) scale(0.45136851265668343)">
  
  <g
     id="line"
     transform="translate(-9.3315716,-10.855453)">
    <path
       d="m 42.0105,28.5516 a 2,2 0 1 1 -2,-2 2.0007,2.0007 0 0 1 2,2"
       id="path2" />
    <path
       d="m 34.0105,28.5516 a 2,2 0 1 1 -2,-2 2.0007,2.0007 0 0 1 2,2"
       id="path4" />
    <path
       d="m 36.01,38.554 a 7.6528,7.6528 0 0 1 -3.4473,-0.8579 1.0001261,1.0001261 0 0 1 0.8945,-1.7891 5.3774,5.3774 0 0 0 5.1055,0 1.0001261,1.0001261 0 1 1 0.8945,1.7891 7.6524,7.6524 0 0 1 -3.4472,0.8579 z"
       id="path6" />
    <path
       fill="none"
       stroke="#000"
       stroke-linecap="round"
       stroke-linejoin="round"
       stroke-width="2"
       d="M 50.9578,24.1129 C 46.4844,10.4921 36.01,11.8916 36.01,11.8916 c 0,0 -10.3528,-1.3834 -14.8688,11.9864"
       id="path8" />
    <path
       fill="none"
       stroke="#000"
       stroke-linecap="round"
       stroke-linejoin="round"
       stroke-width="2"
       d="M 25.4555,24.6987 14.138,23.0816 c 0,0 6.1889,9.7351 10.3663,8.6973"
       id="path10" />
    <path
       fill="none"
       stroke="#000"
       stroke-linecap="round"
       stroke-linejoin="round"
       stroke-width="2"
       d="m 46.5652,24.7175 11.45,-1.6359 c 0,0 -6.2678,9.8488 -10.494,8.7989"
       id="path12" />
    <circle
       cx="36.010399"
       cy="22.1129"
       r="1.5"
       id="circle14" />
    <path
       fill="none"
       stroke="#000"
       stroke-linecap="round"
       stroke-linejoin="round"
       stroke-width="2"
       d="m 36.01,15.7392 a 20.4581,20.4581 0 0 1 -3.08,5.0592"
       id="path16" />
    <path
       fill="none"
       stroke="#000"
       stroke-linecap="round"
       stroke-linejoin="round"
       stroke-width="2"
       d="m 36.01,15.7392 a 20.4558,20.4558 0 0 0 3.08,5.0592"
       id="path18" />
    <polyline
       fill="none"
       stroke="#000"
       stroke-linecap="round"
       stroke-linejoin="round"
       stroke-width="2"
       points="18.082 52.072 18.082 42.506 25.167 42.506 25.167 46.071"
       id="polyline20" />
    <line
       x1="20.0159"
       x2="20.0159"
       y1="42.467701"
       y2="37.724499"
       fill="none"
       stroke="#000"
       stroke-linecap="round"
       stroke-linejoin="round"
       stroke-width="2"
       id="line22" />
    <line
       x1="23.3874"
       x2="23.3874"
       y1="42.5065"
       y2="39.065201"
       fill="none"
       stroke="#000"
       stroke-linecap="round"
       stroke-linejoin="round"
       stroke-width="2"
       id="line24" />
    <path
       fill="none"
       stroke="#000"
       stroke-linecap="round"
       stroke-linejoin="round"
       stroke-width="2"
       d="m 54.9479,59.9124 c 0,0 2,-13 -10,-13 -3.1919,2.1279 -5.9264,3.5984 -9,3.5921 h 0.125 c -3.0736,0.0063 -5.8082,-1.4642 -9,-3.5921 -12,0 -10,13 -10,13"
       id="path26" />
    <path
       fill="none"
       stroke="#000"
       stroke-linecap="round"
       stroke-linejoin="round"
       stroke-width="2"
       d="m 26.4333,24.51 -0.9825,0.2293 a 17.29,17.29 0 0 0 -0.779,5.1733 c 0,7.8276 5.0765,14.1732 11.3386,14.1732 6.2621,0 11.3386,-6.3458 11.3386,-14.1734 a 17.29,17.29 0 0 0 -0.7791,-5.1733 l -0.8123,-0.3239"
       id="path28" />
    <path
       fill="none"
       stroke="#000"
       stroke-linecap="round"
       stroke-linejoin="round"
       stroke-width="2"
       d="m 46.5652,24.7175 11.45,-1.6359 c 0,0 -6.2678,9.8488 -10.494,8.7989"
       id="path30" />
    <path
       fill="none"
       stroke="#000"
       stroke-linecap="round"
       stroke-linejoin="round"
       stroke-width="2"
       d="M 47.89,59.9691 C 29.3908,54.8333 27.0729,46.9124 27.0729,46.9124 c 0,0 -4.2,0.2046 -5.6776,1.3537 3.1163,6.4287 5.69,8.6387 13.86,11.7689"
       id="path32" />
    <path
       fill="none"
       stroke="#000"
       stroke-linecap="round"
       stroke-linejoin="round"
       stroke-width="2"
       d="m 19.6347,30.2912 c 0,0 -0.06,3.717 -2.7115,5.1447 -2.5417,1.4408 -2.7524,4.5177 -2.2435,7.0705 0.7479,3.5353 0.4079,5.7108 -2.2435,8.0223 -3.12,2.72 -2.1923,7.7515 -0.9,9.3831"
       id="path34" />
    <path
       fill="none"
       stroke="#000"
       stroke-linecap="round"
       stroke-linejoin="round"
       stroke-width="2"
       d="m 26.8294,21.54 a 6.5528,6.5528 0 0 0 6.0977,1.5354"
       id="path36" />
    <path
       fill="none"
       stroke="#000"
       stroke-linecap="round"
       stroke-linejoin="round"
       stroke-width="2"
       d="m 45.19,21.54 a 6.5525,6.5525 0 0 1 -6.0976,1.5354"
       id="path38" />
    <path
       fill="none"
       stroke="#000"
       stroke-linecap="round"
       stroke-linejoin="round"
       stroke-width="2"
       d="m 52.2,30.2912 c 0,0 0.06,3.717 2.7115,5.1447 2.5417,1.4408 2.7524,4.5177 2.2435,7.0705 -0.7478,3.5353 -0.4079,5.7108 2.2435,8.0223 3.12,2.72 2.1923,7.7515 0.9006,9.3831"
       id="path40" />
  </g>
</g></svg>