<svg xmlns="http://www.w3.org/2000/svg" width="24" height="24" viewBox="0 0 24 24"> <g transform="translate(2.612659713475411 0.0) scale(0.4677742430287166)">
  
  <g
     id="line"
     transform="translate(-15.829801,-8.3682)">
    <path
       d="m 49.361,55.9954 a 2,2 0 1 1 -2,-2 2.0007,2.0007 0 0 1 2,2"
       id="path2" />
    <path
       fill="none"
       stroke="#000"
       stroke-linecap="round"
       stroke-linejoin="round"
       stroke-width="2"
       d="m 16.9579,58.675 c 0,0 -2,-13 10,-13 3.16,2.09 5.86,3.55 8.88,3.59 h 0.12 c 2.96,-0.04 5.63,-1.44 8.7,-3.47 l 0.18,-0.12 c 12,0 10,13 10,13"
       id="path4" />
    <polyline
       fill="none"
       stroke="#000"
       stroke-linecap="round"
       stroke-linejoin="round"
       stroke-width="2"
       points="26.958 45.675 30.708 54.555 33.268 51.915 35.838 49.265"
       id="polyline6" />
    <line
       x1="38.387901"
       x2="35.837898"
       y1="51.884998"
       y2="49.264999"
       fill="none"
       stroke="#000"
       stroke-linecap="round"
       stroke-linejoin="round"
       stroke-width="2"
       id="line8" />
    <polyline
       fill="none"
       stroke="#000"
       stroke-linecap="round"
       stroke-linejoin="round"
       stroke-width="2"
       points="44.708 45.675 44.658 45.795 40.968 54.555 38.388 51.895"
       id="polyline10" />
    <path
       fill="none"
       stroke="#000"
       stroke-linecap="round"
       stroke-linejoin="round"
       stroke-width="2"
       d="m 33.4279,52.065 c 0.14,1.5 0.72,3.01 2.47,3.01 1.83,0 2.38,-1.62 2.49,-3.18 v -0.01"
       id="path12" />
    <line
       x1="35.047901"
       x2="32.637901"
       y1="55.075001"
       y2="58.674999"
       fill="none"
       stroke="#000"
       stroke-linecap="round"
       stroke-linejoin="round"
       stroke-width="2"
       id="line14" />
    <line
       x1="36.747898"
       x2="39.1679"
       y1="55.075001"
       y2="58.674999"
       fill="none"
       stroke="#000"
       stroke-linecap="round"
       stroke-linejoin="round"
       stroke-width="2"
       id="line16" />
    <path
       d="m 26.9629,58.1289 h -5.8447 a 1,1 0 0 1 0,-2 h 5.8447 a 1,1 0 1 1 0,2 z"
       id="path18" />
    <path
       d="m 39.9734,25.815 a 2,2 0 1 1 -2,2 1.9994,1.9994 0 0 1 2,-2 z"
       id="path20" />
    <path
       d="m 31.9734,25.815 a 2,2 0 1 1 -2,2 1.9994,1.9994 0 0 1 2,-2 z"
       id="path22" />
    <path
       d="m 36.0224,37.8208 a 7.6524,7.6524 0 0 1 -3.4472,-0.8579 1.0000814,1.0000814 0 1 1 0.8945,-1.789 5.3779,5.3779 0 0 0 5.1055,0 1.0000814,1.0000814 0 1 1 0.8945,1.789 7.6528,7.6528 0 0 1 -3.4473,0.8579 z"
       id="path24" />
    <path
       d="m 36.0225,44.3525 c -6.4161,0 -11.6983,-5.916 -12.2862,-13.7607 l 1.9942,-0.15 c 0.5009,6.68 5.0215,11.9111 10.292,11.9111 5.2578,0 9.6728,-5.0136 10.2714,-11.663 0.045,-0.5 0.0674,-1.0083 0.0674,-1.51 h 2 c 0,0.561 -0.0254,1.1294 -0.0752,1.689 -0.6923,7.6868 -5.9638,13.4836 -12.2636,13.4836 z"
       id="path26" />
    <path
       d="m 36.0928,18.5562 c -2.9346,0 -3.4756,-4.3345 -3.5274,-4.8287 a 1.0009,1.0009 0 0 1 0.38,-0.894 5.1294,5.1294 0 0 1 6.3184,0.1362 1.002,1.002 0 0 1 0.292,0.7989 c -0.044,0.49 -0.51,4.7827 -3.458,4.7876 z m 0.001,-2 0.0019,1 -0.0019,-1 c 0.7539,-0.001 1.2119,-1.4581 1.3916,-2.42 a 3.4077,3.4077 0 0 0 -2.835,-0.02 c 0.2187,1.0708 0.7324,2.44 1.4424,2.44 z"
       id="path28" />
    <path
       d="m 36.2979,24.459 c -4.6973,0 -9.2071,-1.5288 -11.669,-3.9951 a 1,1 0 0 1 0.708,-1.7066 h 21.0684 a 1,1 0 0 1 0.7617,1.6475 c -2.0313,2.3921 -5.6787,3.8633 -10.0059,4.0371 q -0.4321,0.0168 -0.8632,0.0171 z m -7.8243,-3.7017 a 17.9909,17.9909 0 0 0 8.6075,1.6861 14.34,14.34 0 0 0 6.538,-1.6861 z"
       id="path30" />
    <path
       d="m 47.7324,24.46 a 1,1 0 0 1 -0.77,-1.6372 l 2.248,-2.7207 a 3.63,3.63 0 0 0 0.8086,-1.9424 12.2217,12.2217 0 0 1 -5.64,-3.84 c -1.9815,-2.0317 -3.8535,-3.9511 -8.3125,-3.9511 -4.459,0 -6.332,1.9194 -8.3135,3.9511 a 12.2242,12.2242 0 0 1 -5.64,3.84 3.645,3.645 0 0 0 0.8086,1.9424 l 2.0117,2.434 a 1,1 0 0 1 -1.541,1.2745 L 21.3818,21.376 C 20.71,20.563 19.8027,18.7817 20.2256,17.4609 a 1.7748,1.7748 0 0 1 1.2715,-1.207 c 2.1259,-0.564 3.4365,-1.9077 4.8252,-3.3306 2.082,-2.1352 4.4423,-4.5551 9.7451,-4.5551 5.3028,0 7.6621,2.42 9.7441,4.5547 1.3887,1.4233 2.6992,2.767 4.8252,3.3315 a 1.7719,1.7719 0 0 1 1.2715,1.2075 c 0.4238,1.3218 -0.4844,3.1026 -1.1562,3.9146 l -2.2481,2.72 A 0.9973,0.9973 0 0 1 47.7324,24.46 Z"
       id="path32" />
    <path
       d="m 36.0352,44.38 c -6.8038,0 -12.3389,-6.8067 -12.3389,-15.1734 a 1,1 0 0 1 2,0 c 0,7.2642 4.6377,13.1734 10.3389,13.1734 5.7012,0 10.3378,-5.9093 10.3378,-13.1735 a 1,1 0 0 1 2,0 c 0,8.3667 -5.5351,15.1735 -12.3378,15.1735 z"
       id="path34" />
    <path
       d="m 25.293,43.4375 c -0.0323,0 -0.0655,-0.002 -0.0987,-0.0049 -6.62,-0.6484 -8.74,-3.6064 -8.8281,-3.7324 a 1,1 0 0 1 0.7158,-1.5635 l 3.7676,-0.4023 a 9.4246,9.4246 0 0 1 -1.8828,-6.4483 c 0.5039,-5.8623 6.377,-10.2607 6.627,-10.4453 a 1,1 0 0 1 1.1884,1.6084 c -0.0537,0.04 -5.4023,4.0586 -5.8242,9.0156 a 8.1015,8.1015 0 0 0 2.5781,6.3741 1,1 0 0 1 -0.6162,1.6855 l -3.1992,0.3418 a 14.6665,14.6665 0 0 0 5.6693,1.5762 1,1 0 0 1 -0.0966,1.9951 z"
       id="path36" />
    <path
       d="m 46.499,43.4375 a 1,1 0 0 1 -0.0967,-1.9951 15.7991,15.7991 0 0 0 5.7969,-1.5791 L 48.877,39.5254 A 1,1 0 0 1 48.2559,37.8389 8.0979,8.0979 0 0 0 50.833,31.457 c -0.4277,-4.9707 -5.7685,-8.9673 -5.8223,-9.0068 a 1.0000406,1.0000406 0 0 1 1.1875,-1.6094 c 0.25,0.1846 6.1231,4.583 6.627,10.4453 a 9.429,9.429 0 0 1 -1.876,6.4395 l 4.0391,0.41 a 1,1 0 0 1 0.68,1.6192 c -0.0987,0.123 -2.49,3.0322 -9.07,3.6777 -0.0338,0.003 -0.067,0.005 -0.0993,0.005 z"
       id="path38" />
    <path
       d="m 23.7432,31.3271 a 1.0125,1.0125 0 0 1 -0.208,-0.0214 1,1 0 0 1 -0.7715,-1.1856 c 0.9521,-4.4922 10.2881,-7.3164 11.35,-7.6235 a 1,1 0 0 1 0.5566,1.9209 c -3.5644,1.0337 -9.4179,3.6089 -9.9492,6.1167 a 1.0006,1.0006 0 0 1 -0.9779,0.7929 z"
       id="path40" />
    <path
       d="M 47.3359,29.9634 A 0.9993,0.9993 0 0 1 46.5781,29.6162 L 41.3252,23.521 a 1.000237,1.000237 0 0 1 1.5156,-1.3057 l 5.253,6.0952 a 1.0006,1.0006 0 0 1 -0.7579,1.6529 z"
       id="path42" />
  </g>
</g></svg>