<svg xmlns="http://www.w3.org/2000/svg" width="24" height="24" viewBox="0 0 24 24"> <g transform="translate(0.0 1.326375340759455) scale(0.4380381446901682)">
  
  <g
     id="line"
     transform="translate(-8.7622854,-13.19873)">
    <path
       fill="none"
       stroke="#000"
       stroke-linecap="round"
       stroke-linejoin="round"
       stroke-width="2"
       d="m 14.95,22.16 c 0,0 -5.1877,-1.601 -5.1877,4.0187 0,0 0,3.01 1.9078,3.4435 0,0 0.7179,-2.498 3.0543,-2.498"
       id="path2" />
    <path
       fill="none"
       stroke="#000"
       stroke-linecap="round"
       stroke-linejoin="round"
       stroke-width="2"
       d="m 27.8292,45.0409 c 1.5491,2.5935 4.7957,5.3184 8.1812,5.1076 v 0 c 0,0 1.704,3.7123 5.066,3.95 3.362,0.2377 6.7236,-4.8067 6.7236,-4.8067 0,0 7.9213,-0.3808 7.9213,-7.8531 0,0 -0.945,-11.5778 -11.52,-11.9052 0,0 -4.5725,-0.1 -7.6533,1.8641 -3.0808,1.9641 -5.7419,-1.06 -5.7419,-1.06 a 5.3768,5.3768 0 0 1 -1.154,-3.4131 5.1883,5.1883 0 0 1 1.2335,-3.413 4.6329,4.6329 0 0 0 1.2335,-2.7552 c 0,0 0.2786,-6.9906 -7.202,-6.5383 a 5.34,5.34 0 0 0 -4.7934,2.7541"
       id="path4" />
    <path
       fill="none"
       stroke="#000"
       stroke-linecap="round"
       stroke-linejoin="round"
       stroke-width="2"
       d="m 26.8925,21.306 c 0.16,-5.1415 -7.1895,-6.6156 -8.9648,-1.9174 L 17.9261,19.3863 A 3.9806,3.9806 0 0 1 14.95,22.16 l 0.0035,0.0057 a 1.8071,1.8071 0 0 0 0.0536,3.4006 c -1.5533,2.1642 2.1226,3.9812 3.6,2.2714 a 10.3857,10.3857 0 0 0 0.7574,-0.8153 c 0,0 5.066,-1.2395 4.0851,7.13 -0.9809,8.3695 3.4457,8.3694 3.4457,8.3694"
       id="path6" />
    <path
       fill="none"
       stroke="#000"
       stroke-linecap="round"
       stroke-linejoin="round"
       stroke-width="2"
       d="m 54.1143,35.9694 c 1.0884,-0.0093 8.551,-0.5206 7.0032,6.1239"
       id="path8" />
    <path
       fill="none"
       stroke="#000"
       stroke-linecap="round"
       stroke-linejoin="round"
       stroke-width="2"
       d="m 39.4622,53.6914 a 24.4771,24.4771 0 0 0 0.524,2.8648 1.0148,1.0148 0 0 1 -0.7273,1.26 31.6692,31.6692 0 0 1 -5.5333,0.65 c -2.6063,0 -2.8959,1.6026 -2.8959,2.4663 h 17.9728 c 0,0 0.213,-2.4061 -1.9392,-2.4061 a 8.601,8.601 0 0 1 -3.6219,-0.5026 1.4,1.4 0 0 1 -0.705,-1.2257"
       id="path10" />
    <path
       fill="none"
       stroke="#000"
       stroke-linecap="round"
       stroke-linejoin="round"
       stroke-width="2"
       d="m 38.06,36.7031 c 2.418,1.9988 0.1612,4.7715 0.1612,4.7715 2.8,2.155 1.4943,4.4257 1.4943,4.4257 -2.9392,1.7195 -4.9587,-1.88 -4.9587,-1.88 a 7.6461,7.6461 0 0 0 -1.58,-1.98 3.1488,3.1488 0 0 1 -0.72,-3.0192"
       id="path12" />
    <path
       fill="none"
       stroke="#000"
       stroke-linecap="round"
       stroke-linejoin="round"
       stroke-width="2"
       d="m 59.5316,40.7388 c 0,0 4.4782,2.9654 2.5417,5.656 -2.0167,2.802 -4.4987,-0.0152 -4.4987,-0.0152 0,0 0.2109,2.28 -1.7359,2.4538 -1.3735,0.1222 -1.9687,-1.52 -2.1872,-2.0221"
       id="path14" />
  </g>
</g></svg>