<svg xmlns="http://www.w3.org/2000/svg" width="24" height="24" viewBox="0 0 24 24"> <g transform="translate(1.403973576464848 0.0) scale(0.41004865227259213)">
  
  <g
     id="line"
     transform="translate(-10.3006,-7.4092601)">
    <path
       fill="none"
       stroke="#000"
       stroke-linecap="round"
       stroke-linejoin="round"
       stroke-width="2"
       d="M 60.9824,32.6058 38.6664,59.7729"
       id="path2" />
    <path
       fill="none"
       stroke="#000"
       stroke-linecap="round"
       stroke-linejoin="round"
       stroke-width="2"
       d="M 60.709,28.9912 A 24.6027,24.6027 0 0 0 36.1416,8.417 c -13.7193,0 -24.841,10.88 -24.841,24.3005 0,0 3.0573,-1.8827 5.1108,-0.2893 a 0.7149,0.7149 0 0 0 0.7445,0.0778 11.63,11.63 0 0 1 10.1763,0.0629 0.7128,0.7128 0 0 0 0.5473,0.06 c 1.5773,-0.4857 9.6051,-2.708 16.679,-0.0346 a 0.75,0.75 0 0 0 0.6163,-0.0411 11.6416,11.6416 0 0 1 10.1442,-0.05 0.7254,0.7254 0 0 0 0.7574,-0.0829 c 2.0348,-1.5919 4.906,0.1853 4.906,0.1853"
       id="path4" />
    <path
       fill="none"
       stroke="#000"
       stroke-linecap="round"
       stroke-linejoin="round"
       stroke-width="2"
       d="M 16.7606,32.57 C 21.2242,7.0746 36.1416,8.417 36.1416,8.417 c 0,0 -7.5643,0.7338 -8.5346,24.2376 l 6.78,25.0408"
       id="path6" />
    <path
       fill="none"
       stroke="#000"
       stroke-linecap="round"
       stroke-linejoin="round"
       stroke-width="2"
       d="M 44.8716,32.64 37.2465,58.353"
       id="path8" />
    <path
       fill="none"
       stroke="#000"
       stroke-linecap="round"
       stroke-linejoin="round"
       stroke-width="2"
       d="M 55.72,32.5682 C 51.2562,7.0727 36.1416,8.417 36.1416,8.417 c 0,0 7.76,0.7192 8.73,24.2229"
       id="path10" />
    <line
       x1="16.760599"
       x2="33.500401"
       y1="32.659801"
       y2="58.353001"
       fill="none"
       stroke="#000"
       stroke-linecap="round"
       stroke-linejoin="round"
       stroke-width="2"
       id="line12" />
    <line
       x1="55.719898"
       x2="37.246498"
       y1="32.6898"
       y2="58.353001"
       fill="none"
       stroke="#000"
       stroke-linecap="round"
       stroke-linejoin="round"
       stroke-width="2"
       id="line14" />
    <line
       x1="11.3006"
       x2="32.080502"
       y1="32.717499"
       y2="59.7729"
       fill="none"
       stroke="#000"
       stroke-linecap="round"
       stroke-linejoin="round"
       stroke-width="2"
       id="line16" />
    <rect
       x="32.080502"
       y="58.353001"
       rx="1.4198999"
       width="6.5858998"
       height="6.5858998"
       fill="none"
       stroke="#000"
       stroke-linecap="round"
       stroke-linejoin="round"
       stroke-width="2"
       id="rect18" />
  </g>
</g></svg>