<svg xmlns="http://www.w3.org/2000/svg" width="24" height="24" viewBox="0 0 24 24"> <g transform="translate(2.3276221955794156 0.0) scale(0.48325130511579295)">
  
  <g
     id="line"
     transform="translate(-8.9775995,-8.5327)">
    <circle
       cx="32.697601"
       cy="49.570099"
       r="3"
       fill="none"
       stroke="#000"
       stroke-miterlimit="10"
       stroke-width="2"
       id="circle2" />
    <path
       fill="none"
       stroke="#000"
       stroke-linecap="round"
       stroke-linejoin="round"
       stroke-width="2"
       d="m 26.937,39.63 1.469,-4.3173 c 0.1907,-1.0486 -0.9018,-4.1506 -1.76,-4.7225 L 11.1534,22.8782 A 2.286,2.286 0 0 1 10.01,20.4953 1.5908,1.5908 0 0 1 12.2025,19.828 l 9.7119,3.96 c 0.8685,0.4338 7.2783,1.9962 7.2783,1.9962 1.0486,0.286 4.84,-0.7131 5.6023,-1.38 0,0 4.6711,-4.29 5.1477,-5.1476 l 4.7663,-8.1028 a 3.2328,3.2328 0 0 1 2.383,-1.6211 c 0.7626,0 1.1439,0.7626 0.7626,1.8112 0,0 -3.2563,8.39 -3.7244,9.4031 -0.6234,1.35 -4.4518,5.711 -5.6233,7.6691 a 14.269,14.269 0 0 0 -1.3089,3.5966 26.6874,26.6874 0 0 0 -0.6005,3.6625 12.17,12.17 0 0 0 0.5481,3.5977"
       id="path4" />
    <path
       fill="none"
       stroke="#000"
       stroke-linecap="round"
       stroke-linejoin="round"
       stroke-width="2"
       d="M 23.8322,57.1963 V 49.57 c 0,-3.2411 1.7159,-5.243 3.8131,-5.72 a 16.2448,16.2448 0 0 1 9.5327,0 c 2.0972,0.4766 3.8131,2.5738 3.8131,5.72 v 7.6262"
       id="path6" />
    <path
       fill="none"
       stroke="#000"
       stroke-linecap="round"
       stroke-linejoin="round"
       stroke-width="2"
       d="m 27.3863,54.6458 c 0,0 0.6582,-0.0084 0.8517,-0.43 0.2284,-0.4959 -0.0785,-1.7926 0.1255,-2.5157 a 3.3622,3.3622 0 0 1 1.2049,-1.8068"
       id="path8" />
  </g>
</g></svg>