<svg xmlns="http://www.w3.org/2000/svg" width="24" height="24" viewBox="0 0 24 24"> <g transform="translate(0.0 1.335623357396523) scale(0.43165469178614)">
  
  <g
     id="line"
     transform="translate(-6.2,-11.38839)">
    <g
       id="line-2">
      <g
         id="line-3">
        <path
           fill="none"
           stroke="#000"
           stroke-miterlimit="10"
           stroke-width="2"
           d="m 35.6,13.9 c 0.7302,-0.0832 1.4652,-0.1166 2.2,-0.1 12.7025,0 23,10.2975 23,23 0,12.7025 -10.2975,23 -23,23 -12.7025,0 -23,-10.2975 -23,-23 v 0 c 0.0076,-2.3758 0.3785,-4.7364 1.1,-7"
           id="path2" />
        <path
           fill="none"
           stroke="#000"
           stroke-linecap="round"
           stroke-linejoin="round"
           stroke-width="2"
           d="m 28.9,43.8 5.9,0.5 c 2.0618,0.2 4.1382,0.2 6.2,0 l 6,-0.5"
           id="path4" />
        <path
           d="m 31.9,31.8 c 0,1.6569 -1.3431,3 -3,3 -1.6569,0 -3,-1.3431 -3,-3 0,-1.6569 1.3431,-3 3,-3 v 0 c 1.6549,0.0047 2.9953,1.3451 3,3"
           id="path6" />
        <path
           d="m 49.9,31.8 c 0,1.6569 -1.3431,3 -3,3 -1.6569,0 -3,-1.3431 -3,-3 0,-1.6569 1.3431,-3 3,-3 v 0 c 1.627,-0.0298 2.9702,1.265 3,2.892 7e-4,0.036 7e-4,0.072 0,0.108"
           id="path8" />
      </g>
      <path
         fill="none"
         stroke="#000"
         stroke-linecap="round"
         stroke-linejoin="round"
         stroke-width="2"
         d="m 10.3,34 7.3,-5.9 c 1.7,1.3 1.8,1.1 3.9,1 2.5,0 4.2,-2.7 7.1,-3 2.7,-0.5 2.1,-3.2 0.4,-3.4 l -7.3,0.9 c 0,0 8.6,-5.5 14.4,-9.9 0,0 -1.0156,-0.9766 -2.9004,-1.2451 C 32.0687,12.2938 30.625,12.3875 28.9,13.1 l -10.3,5.6 c -1.9183,1.0122 -3.7278,2.2185 -5.4,3.6 -2.3,1.8 -4.2,3.3 -6,4.7"
         id="path11" />
    </g>
  </g>
</g></svg>