<svg xmlns="http://www.w3.org/2000/svg" width="24" height="24" viewBox="0 0 24 24"> <g transform="translate(0.0 0.5337210005146424) scale(0.521618919952817)">
  
  <g
     id="line"
     transform="translate(-11.3124,-12.3258)">
    <path
       fill="none"
       stroke="#000"
       stroke-linecap="round"
       stroke-linejoin="round"
       stroke-width="2.04"
       d="m 15.9967,29.5514 a 1.0059,1.0059 0 0 1 -0.9161,0.9533 H 13.2485 A 1.0059,1.0059 0 0 1 12.3324,29.5514 V 14.2991 a 1.0058,1.0058 0 0 1 0.9161,-0.9533 h 1.8321 a 1.0058,1.0058 0 0 1 0.9161,0.9533 z"
       id="path2" />
    <path
       fill="none"
       stroke="#000"
       stroke-linecap="round"
       stroke-linejoin="round"
       stroke-width="2.04"
       d="m 56.303,29.5514 a 1.0058,1.0058 0 0 1 -0.916,0.9533 H 53.5549 A 1.0059,1.0059 0 0 1 52.6388,29.5514 V 14.2991 a 1.0058,1.0058 0 0 1 0.9161,-0.9533 h 1.8321 a 1.0057,1.0057 0 0 1 0.916,0.9533 z"
       id="path4" />
    <path
       fill="none"
       stroke="#000"
       stroke-linecap="round"
       stroke-linejoin="round"
       stroke-width="2.05"
       d="m 39.814,20.9714 c 3.6643,0 12.825,0.9533 12.825,0.9533"
       id="path6" />
    <path
       fill="none"
       stroke="#000"
       stroke-linecap="round"
       stroke-linejoin="round"
       stroke-width="2.03"
       d="M 15.9965,21.9248 A 99.9319,99.9319 0 0 1 28.8216,20.9715"
       id="path8" />
    <circle
       cx="34.318001"
       cy="17.114"
       r="3"
       fill="none"
       stroke="#000"
       stroke-miterlimit="10"
       stroke-width="2.04"
       id="circle10" />
    <path
       fill="none"
       stroke="#000"
       stroke-linecap="round"
       stroke-linejoin="round"
       stroke-width="2.04"
       d="m 19.6612,21.9252 1.9237,5.91 c 0.4581,1.5252 1.5573,1.6206 2.4734,0.3813 l 1.3741,-2.0019 a 5.2021,5.2021 0 0 1 4.3054,-2.0018 l 1.8321,0.286 a 26.4843,26.4843 0 0 0 5.4964,0 l 1.8321,-0.286 a 4.8546,4.8546 0 0 1 4.3054,2.0018 l 1.3741,2.0019 c 0.9161,1.2393 2.0153,1.1439 2.4734,-0.3813 l 1.9237,-5.91"
       id="path12" />
    <path
       fill="none"
       stroke="#000"
       stroke-linecap="round"
       stroke-linejoin="round"
       stroke-width="2"
       d="m 28.8212,28.5981 c 0,0 0.183,1.0486 0.4585,2.3832 a 26.307,26.307 0 0 1 0.4576,4.29 2.198,2.198 0 0 1 -0.5157,1.68 14.9356,14.9356 0 0 1 -2.4757,1.5948 2.709,2.709 0 0 0 -1.0959,2.5313 l 1.4308,12.1818 a 1.9846,1.9846 0 0 0 1.7404,2.0308 c 1.0076,0 1.55,-0.69 1.55,-1.7387 0,0 0.0048,-7.8359 0.0915,-8.8245 a 3.8063,3.8063 0 0 1 0.6073,-1.8293 2.1842,2.1842 0 0 1 1.0867,-0.7464 7.34,7.34 0 0 1 1.97,-0.2622 7.7251,7.7251 0 0 1 2.02,0.2622 2.1927,2.1927 0 0 1 1.0867,0.7464 3.8158,3.8158 0 0 1 0.6063,1.8293 c 0.0877,0.9886 0.0915,8.8245 0.0915,8.8245 0,1.0486 0.5424,1.7387 1.55,1.7387 a 1.9862,1.9862 0 0 0 1.7417,-2.0305 l 1.43,-12.1818 a 2.7086,2.7086 0 0 0 -1.0953,-2.5319 14.9759,14.9759 0 0 1 -2.4766,-1.5948 2.1977,2.1977 0 0 1 -0.5158,-1.68 26.2175,26.2175 0 0 1 0.4586,-4.29 c 0.2745,-1.3346 0.4575,-2.3832 0.4575,-2.3832"
       id="path14" />
  </g>
</g></svg>