<svg xmlns="http://www.w3.org/2000/svg" width="24" height="24" viewBox="0 0 24 24"> <g transform="scale(0.48)">
  
  <g
     id="line"
     transform="translate(-11,-11)">
    <path
       fill="none"
       stroke="#000"
       stroke-linejoin="round"
       stroke-miterlimit="10"
       stroke-width="2"
       d="M 59.0349,60 H 12.9651 C 12.4343,60 12,59.5657 12,59.0349 V 12.9651 C 12,12.4343 12.4343,12 12.9651,12 H 59.0349 C 59.5657,12 60,12.4343 60,12.9651 V 59.0349 C 60,59.5657 59.5657,60 59.0349,60 Z"
       id="path2" />
    <polygon
       fill="#000"
       stroke="none"
       points="27.9258,34.2231 29.6763,34.2231 29.6763,27.0479 34.1602,27.0479 34.1602,25.2622 23.4414,25.2622 23.4414,27.0479 27.9258,27.0479 "
       id="polygon4" />
    <rect
       x="23.441401"
       y="21.7764"
       width="10.7188"
       height="1.7690001"
       fill="#000"
       stroke="none"
       id="rect6" />
    <path
       fill="#000"
       stroke="none"
       d="m 33.2461,44.165 0.0146,-0.2642 h -1.665 l -0.0098,0.2397 c -0.0391,0.9561 -0.2207,1.5845 -0.627,2.1655 l -2.5195,-3.0054 0.8701,-0.6021 c 0.8765,-0.6035 1.2847,-1.2803 1.2847,-2.1299 0,-1.5815 -1.1738,-2.6865 -2.8545,-2.6865 -1.7578,0 -2.939,1.0728 -2.939,2.6699 0,1.1372 0.748,2.0034 1.2437,2.5771 -1.1489,0.7559 -2.3726,1.7046 -2.3726,3.3896 0,2.2075 1.4878,3.5791 3.8828,3.5791 1.8452,0 2.8398,-0.8608 3.3198,-1.2788 l 0.9751,1.1772 h 2.2236 l -2.0107,-2.3994 c 0.7228,-0.8444 1.0987,-1.9352 1.1837,-3.4318 z m -5.5064,-4.768 c 0.7007,0 1.1899,0.4893 1.1899,1.1895 0,0.5713 -0.4194,0.9341 -0.8726,1.2412 l -0.5688,0.3857 c -0.6113,-0.7153 -0.9219,-1.1665 -0.9219,-1.6445 1e-4,-0.712 0.4606,-1.1719 1.1734,-1.1719 z m -0.7436,4.8222 2.8418,3.3779 c -0.7246,0.6455 -1.4077,0.9209 -2.2832,0.9209 -1.2563,0 -2.1685,-0.855 -2.1685,-2.0332 0,-1.1498 0.8179,-1.7172 1.6099,-2.2656 z"
       id="path8" />
    <path
       fill="#000"
       stroke="none"
       d="m 46.0811,43.5381 c -1.3115,0 -2.2275,1.0493 -2.2275,2.5513 v 1.6978 c 0,1.5024 0.916,2.5518 2.2275,2.5518 1.3125,0 2.2285,-1.0493 2.2285,-2.5518 v -1.6978 c 0,-1.502 -0.916,-2.5513 -2.2285,-2.5513 z m 0.6406,2.602 v 1.5967 c 0,0.959 -0.4658,0.959 -0.6406,0.959 -0.1748,0 -0.6396,0 -0.6396,-0.959 v -1.5967 c 0,-0.9595 0.4648,-0.9595 0.6396,-0.9595 0.1582,1e-4 0.6406,1e-4 0.6406,0.9595 z"
       id="path10" />
    <polygon
       fill="#000"
       stroke="none"
       points="41.3057,50.2207 46.2373,37.7598 44.5547,37.7598 39.6094,50.2207 "
       id="polygon12" />
    <path
       fill="#000"
       stroke="none"
       d="m 42.0078,41.8896 v -1.6963 c 0,-1.5024 -0.916,-2.5518 -2.2285,-2.5518 -1.3115,0 -2.2275,1.0493 -2.2275,2.5518 v 1.6963 c 0,1.4932 0.916,2.5356 2.2275,2.5356 1.3125,1e-4 2.2285,-1.0424 2.2285,-2.5356 z m -2.8682,-0.0502 v -1.5957 c 0,-0.9595 0.4648,-0.9595 0.6396,-0.9595 0.1582,0 0.6406,0 0.6406,0.9595 v 1.5957 c 0,0.9429 -0.4658,0.9429 -0.6406,0.9429 -0.1913,-10e-5 -0.6396,-10e-5 -0.6396,-0.9429 z"
       id="path14" />
    <path
       fill="#000"
       stroke="none"
       d="m 41.5283,34.3257 c 1.4463,0 2.6357,-1.1763 2.6553,-2.6533 v -8.3828 h 1.1523 v 0.8457 c 0,0.2759 0.2246,0.5 0.5,0.5 h 0.5391 c 0.2754,0 0.5,-0.2241 0.5,-0.5 v -1.1494 c 0,-0.6812 -0.5537,-1.2354 -1.2344,-1.2354 h -1.7607 c -0.6816,0 -1.2354,0.5542 -1.2354,1.2354 V 29.27 c -0.3486,-0.165 -0.7275,-0.251 -1.1162,-0.251 -1.4629,0 -2.6533,1.1904 -2.6533,2.6533 0,1.4629 1.1904,2.6534 2.6533,2.6534 z m 0,-3.7695 c 0.6152,0 1.1162,0.501 1.1162,1.1162 0,0.6157 -0.501,1.1162 -1.1162,1.1162 -0.6152,0 -1.1162,-0.5005 -1.1162,-1.1162 0,-0.6153 0.501,-1.1162 1.1162,-1.1162 z"
       id="path16" />
  </g>
</g></svg>