<svg xmlns="http://www.w3.org/2000/svg" width="24" height="24" viewBox="0 0 24 24"> <g transform="translate(0.0 5.938421110899633) scale(0.387603691053049)">
  
  <g
     id="line"
     transform="translate(-5.5405,-25.4626)">
    <path
       fill="none"
       stroke="#000"
       stroke-linecap="round"
       stroke-linejoin="round"
       stroke-miterlimit="10"
       stroke-width="2"
       d="m 63.1239,49.9898 h 1 c 0.5523,0 1,-0.4477 1,-1 v -2 c 0,-0.0954 -0.0706,-0.1761 -0.1652,-0.1887 l -1.7098,-0.228 c 0,-1.717 0.4975,-13.863 -0.9281,-19.3795 -0.1094,-0.4233 -0.4944,-0.7148 -0.9313,-0.731 l -26.8087,0.0071 c -0.3597,-0.0133 -0.6988,0.1677 -0.8879,0.4739 L 29.2905,36.0731 12.5558,37.69 c -0.3231,0.0313 -0.611,0.2174 -0.7721,0.4993 L 8.7072,44.5731 H 7.5405 c -0.5522,0 -1,0.4478 -1,1 v 1.5834 c 0,0.5523 0.4478,1 1,1 h 1.0834"
       id="path2" />
    <path
       fill="none"
       stroke="#000"
       stroke-linecap="round"
       stroke-linejoin="round"
       stroke-miterlimit="10"
       stroke-width="2"
       d="m 23.6656,48.1565 h 0.7083 l 1.5755,2.1707 c 0.1881,0.2592 0.489,0.4126 0.8093,0.4126 h 19.653"
       id="path4" />
    <circle
       cx="16.373899"
       cy="50.739799"
       r="5"
       fill="none"
       stroke="#000"
       stroke-linecap="round"
       stroke-linejoin="round"
       stroke-width="2"
       id="circle6" />
    <circle
       cx="54.498901"
       cy="50.739799"
       r="5"
       fill="none"
       stroke="#000"
       stroke-linecap="round"
       stroke-linejoin="round"
       stroke-width="2"
       id="circle8" />
    <polyline
       fill="none"
       stroke="#000"
       stroke-linecap="round"
       stroke-linejoin="round"
       stroke-miterlimit="10"
       stroke-width="2"
       points="34.1864,36.5107 45.9989,36.5107 45.9989,30.1565"
       id="polyline10" />
    <polyline
       fill="none"
       stroke="#000"
       stroke-linecap="round"
       stroke-linejoin="round"
       stroke-miterlimit="10"
       stroke-width="2"
       points="47.5674,45.7398 50.7489,42.4689 59.4989,42.4689"
       id="polyline12" />
    <polyline
       fill="none"
       stroke="#000"
       stroke-linecap="round"
       stroke-linejoin="round"
       stroke-miterlimit="10"
       stroke-width="2"
       points="14.3739,41.6565 21.5822,41.6565 23.4919,44.6343"
       id="polyline14" />
    <path
       fill="none"
       stroke="#000"
       stroke-linecap="round"
       stroke-linejoin="round"
       stroke-miterlimit="10"
       stroke-width="2"
       d="m 63.4786,31.969 c 0.0833,0 1.375,0.0833 1.375,0.0833 0,0 1.6666,0.9792 1.6041,5.8125 -0.0625,4.8334 -1.6666,5.6875 -1.6666,5.6875 h -0.7917"
       id="path16" />
  </g>
</g></svg>