<svg xmlns="http://www.w3.org/2000/svg" width="24" height="24" viewBox="0 0 24 24"> <g transform="translate(1.1964199422688733 0.0) scale(0.41202183578389046)">
  
  <g
     id="line"
     transform="translate(-9.5582165,-5.4478079)">
    <path
       fill="none"
       stroke="#000"
       stroke-linecap="round"
       stroke-miterlimit="10"
       stroke-width="2"
       d="m 43.82,57.64 c -4.716,1.696 -9.854,1.813 -14.64,0.3351"
       id="path2" />
    <path
       fill="none"
       stroke="#000"
       stroke-linecap="round"
       stroke-miterlimit="10"
       stroke-width="2"
       d="m 50.91,18.49 c 3.818,3.249 6.469,7.657 7.55,12.55"
       id="path4" />
    <path
       fill="none"
       stroke="#000"
       stroke-linecap="round"
       stroke-miterlimit="10"
       stroke-width="2"
       d="m 13.56,30.92 c 0.1547,-0.6824 0.3382,-1.351 0.549,-2.004"
       id="path6" />
    <path
       fill="none"
       stroke="#000"
       stroke-miterlimit="10"
       stroke-width="2"
       d="m 11.65,36.29 c -0.7568,1.745 -1.128,3.633 -1.089,5.535 0.1645,4.748 1.26,9.418 3.224,13.74 0.2737,0.5758 0.7167,0.5752 0.99,0 1.964,-4.327 3.06,-8.997 3.225,-13.75 v -5e-4 c -9e-4,-4.313 -1.67,-7.822 -3.72,-7.822 -0.9925,-0.0025 -1.926,0.8115 -2.629,2.29 z"
       id="path8" />
    <path
       fill="none"
       stroke="#000"
       stroke-miterlimit="10"
       stroke-width="2"
       d="m 54.65,36.29 c -0.7568,1.745 -1.128,3.633 -1.089,5.535 0.1645,4.748 1.26,9.418 3.224,13.74 0.2737,0.5758 0.7167,0.5752 0.99,0 1.964,-4.327 3.06,-8.997 3.225,-13.75 v -5e-4 c -9e-4,-4.313 -1.67,-7.822 -3.72,-7.822 -0.9925,-0.0025 -1.926,0.8115 -2.629,2.29 z"
       id="path10" />
    <path
       fill="none"
       stroke="#000"
       stroke-miterlimit="10"
       stroke-width="2"
       d="m 21.36,52.22 c -0.5411,0.8848 -0.8175,1.906 -0.7965,2.943 0.1523,2.597 0.9634,5.112 2.357,7.308 0.094,0.1999 0.3323,0.2857 0.5322,0.1917 0.0843,-0.0396 0.152,-0.1074 0.1917,-0.1917 1.394,-2.197 2.205,-4.712 2.358,-7.309 -7e-4,-2.294 -1.221,-4.16 -2.72,-4.16 -0.8076,0.0481 -1.534,0.508 -1.922,1.218 z"
       id="path12" />
    <path
       fill="none"
       stroke="#000"
       stroke-miterlimit="10"
       stroke-width="2"
       d="m 47.36,52.22 c -0.5411,0.8848 -0.8175,1.906 -0.7965,2.943 0.1523,2.597 0.9634,5.112 2.357,7.308 0.094,0.1999 0.3323,0.2857 0.5322,0.1917 0.0843,-0.0396 0.152,-0.1074 0.1917,-0.1917 1.394,-2.197 2.205,-4.712 2.358,-7.309 -7e-4,-2.294 -1.221,-4.16 -2.72,-4.16 -0.8076,0.0481 -1.534,0.508 -1.922,1.218 z"
       id="path14" />
    <path
       fill="none"
       stroke="#000"
       stroke-miterlimit="2"
       stroke-width="2"
       d="m 44.5,49.27 h -17 c -2.206,-0.0065 -3.994,-1.794 -4,-4 0.0065,-2.206 1.794,-3.994 4,-4 h 17 c 2.206,0.0065 3.994,1.794 4,4 -0.0065,2.206 -1.794,3.994 -4,4 z"
       id="path16" />
    <line
       x1="28"
       x2="28"
       y1="41.77"
       y2="48.77"
       fill="none"
       stroke="#000"
       stroke-linecap="round"
       stroke-linejoin="round"
       stroke-width="2"
       id="line18" />
    <line
       x1="33"
       x2="33"
       y1="41.77"
       y2="48.77"
       fill="none"
       stroke="#000"
       stroke-linecap="round"
       stroke-linejoin="round"
       stroke-width="2"
       id="line20" />
    <line
       x1="38"
       x2="38"
       y1="41.77"
       y2="48.77"
       fill="none"
       stroke="#000"
       stroke-linecap="round"
       stroke-linejoin="round"
       stroke-width="2"
       id="line22" />
    <line
       x1="43"
       x2="43"
       y1="41.77"
       y2="48.77"
       fill="none"
       stroke="#000"
       stroke-linecap="round"
       stroke-linejoin="round"
       stroke-width="2"
       id="line24" />
    <path
       fill="none"
       stroke="#000"
       stroke-miterlimit="10"
       stroke-width="2"
       d="m 48.34,16.8 c 0.795,-0.1657 1.522,-0.8843 1.665,-2.799 0.2987,-3.989 -9,-4 -9,-4 0,0 -3,0 -9,-3 -6,-3 -12,7 -12,7 0,0 -3,6 -5,5 -2,-1 -5,2 -3,6 0,0 1,7 6,2 5,-5 3,-8 10,-7 7,1 11,0 11,-2 0,-2 5,-4 7,-2 0.5946,0.6418 1.472,0.942 2.335,0.7993"
       id="path26" />
    <path
       d="m 30,31 c 0,1.657 -1.345,3 -3,3 -1.655,0 -3,-1.343 -3,-3 0,-1.655 1.345,-3 3,-3 1.655,0 3,1.345 3,3"
       id="path28" />
    <path
       d="m 48,31 c 0,1.657 -1.345,3 -3,3 -1.655,0 -3,-1.343 -3,-3 0,-1.655 1.345,-3 3,-3 1.655,0 3,1.345 3,3"
       id="path30" />
  </g>
</g></svg>