<svg xmlns="http://www.w3.org/2000/svg" width="24" height="24" viewBox="0 0 24 24"> <g transform="translate(0.0 2.9734725914508804) scale(0.4427146843867646)">
  
  <g
     id="line"
     transform="translate(-9.9990065,-16.209872)">
    <path
       fill="none"
       stroke="#000"
       stroke-linecap="round"
       stroke-linejoin="round"
       stroke-miterlimit="10"
       stroke-width="2"
       d="m 16.1101,37.4612 c 0,0 -5.1101,-4.8074 -4.0659,-11.0726 1.0442,-6.2652 13.5746,1.0442 14.6188,6.2652 0,0 3.1326,-5.221 8.3536,-6.2652 0,0 -1.0442,-5.221 0,-8.3536 0,0 11.4862,-4.1768 15.663,6.2652 0,0 11.4862,2.0884 12.5304,11.4862 l -3.1326,2.0884 2.741,2.3495 c 0,0 -0.126,6.9813 -11.8755,10.1474 0,0 -2.3517,7.3429 -10.7053,5.2545 l 1.0442,-5.221 c 0,0 -6.2652,1.0442 -14.6188,-8.3536 0,0 -3.1326,9.3978 -15.663,7.3094 10e-5,0 -0.2218,-8.1366 5.1101,-11.8998 z"
       id="path2" />
    <path
       fill="none"
       stroke="#000"
       stroke-linecap="round"
       stroke-linejoin="round"
       stroke-miterlimit="10"
       stroke-width="2"
       d="m 41,31 c 0,0 -6,4 -1,11"
       id="path4" />
  </g>
</g></svg>