<svg xmlns="http://www.w3.org/2000/svg" width="24" height="24" viewBox="0 0 24 24"> <g transform="translate(0.9272170360532712 0.0) scale(0.46786834231634056)">
  
  <g
     id="line"
     fill="none"
     transform="translate(-12.483825,-10.189439)">
    <path
       d="m 38.19,15.22 c 0,0 3.818,-2.736 5.841,-0.8853 0.3971,0.3632 2.139,-1.4 4.223,-1.132 1.409,0.1809 1.989,2.668 3.398,3.356 a 11.01,11.03 0 0 1 3.685,2.301 c 0.3657,0.4793 0.1157,1.591 0.4786,3.068 0.3338,1.36 3.84,1.231 3.063,2.877 a 104.5,104.7 0 0 1 -7.655,14.04 38.81,38.88 0 0 0 -5.472,11.16 c 0,0 -12.36,-21.26 -7.562,-34.79 z"
       id="path2" />
    <path
       d="m 13.18,18.85 c 0,0 0.5791,-2.142 4.455,-2.946 1.064,-0.8281 1.599,-2.757 3.074,-3.214 a 5.088,5.097 0 0 1 3.508,0.4824 c 0.9655,0.3721 2.368,-1.018 3.354,-1.107 1.408,-0.128 2.653,1.232 3.801,1.39 1.193,0.1649 3.266,-1.226 3.862,-0.4086 3.949,5.421 9.073,30.31 7.903,32.51 -1.17,2.2 -16.45,6.759 -16.45,6.759 0,0 -14.97,-33.03 -13.5,-33.47 z"
       id="path4" />
    <path
       stroke="#000"
       stroke-linecap="round"
       stroke-linejoin="round"
       stroke-width="2"
       d="m 26.81,52.84 16.4,-6.333 2.959,6.744 c 0.3185,0.7259 -0.08601,1.57 -0.825,1.854 l -13.7,5.262 c -0.9418,0.3618 -1.998,-0.1096 -2.359,-1.053 z"
       id="path6" />
    <path
       stroke="#000"
       stroke-linecap="round"
       stroke-linejoin="round"
       stroke-width="2"
       d="m 22.4,26.77 c -1.102,-3.313 -2.039,-8.034 -4.299,-9.815 -0.771,-0.6274 -1.788,-0.8635 -2.756,-0.6397 -4.352,2.25 0.1619,9.156 1.219,12.29 0.8956,2.66 2.043,6.165 2.896,8.616 1.291,3.71 7.348,15.61 7.348,15.61"
       id="path8" />
    <path
       stroke="#000"
       stroke-linecap="round"
       stroke-linejoin="round"
       stroke-width="2"
       d="m 18.1,16.96 c -0.2327,-4.612 4.101,-6.323 6.053,-3.535 1.646,2.492 4.171,11 4.171,11"
       id="path10" />
    <path
       stroke="#000"
       stroke-linecap="round"
       stroke-linejoin="round"
       stroke-width="2"
       d="m 24.34,13.43 c 0.7753,-0.8783 1.184,-1.734 2.307,-2.063 1.876,-0.4919 3.014,-0.1346 4.041,2.829 1.027,2.964 3.123,9.961 3.123,9.961"
       id="path12" />
    <path
       stroke="#000"
       stroke-linecap="round"
       stroke-linejoin="round"
       stroke-width="2"
       d="m 30.69,14.2 c 0,0 2.407,-2.769 4.881,-0.605 0.8942,1.681 5.535,19.73 5.535,19.73 0,0 2.617,10.46 2.104,13.18"
       id="path14" />
    <path
       stroke="#000"
       stroke-linecap="round"
       stroke-linejoin="round"
       stroke-width="2"
       d="m 18.79,34.83 c 0,0 2.102,2.661 3.196,2.531 2.798,-0.3336 3.077,-3.89 3.15,-5.871 0.07328,-1.981 0.5905,-4.11 3.189,-3.963 2.598,0.1468 3.99,0.5871 3.624,4.183 -0.3663,3.596 -3.003,13.5 -3.003,13.5 l 5.263,4.562"
       id="path16" />
    <path
       stroke="#000"
       stroke-linecap="round"
       stroke-linejoin="round"
       stroke-width="2"
       d="m 36.99,17.27 c 0,0 2.13,-3.556 3.022,-3.979 0.9583,-0.4541 4.163,0.1159 4.112,2.638 -0.05132,2.522 -3.619,8.345 -3.619,8.345"
       id="path18" />
    <path
       stroke="#000"
       stroke-linecap="round"
       stroke-linejoin="round"
       stroke-width="2"
       d="m 44.12,15.93 c 0,0 1.683,-2.82 3.258,-2.961 2.068,-0.3008 3.843,1.477 3.543,3.549 -0.07685,0.4288 -0.1936,0.8494 -0.3487,1.256 -1.45,3.36 -3.132,6.616 -5.034,9.742"
       id="path20" />
    <path
       stroke="#000"
       stroke-linecap="round"
       stroke-linejoin="round"
       stroke-width="2"
       d="m 50.79,17.62 c 0,0 2.353,-1.24 3.71,-0.1185 a 2.769,2.774 0 0 1 0.7127,4.046 c -0.9842,1.768 -5.122,9.663 -5.122,9.663"
       id="path22" />
    <path
       stroke="#000"
       stroke-linecap="round"
       stroke-linejoin="round"
       stroke-width="2"
       d="m 55.03,22.19 c 0.0095,-0.03558 4.244,-0.8609 3.749,2.792 -0.2663,1.964 -13.84,25.29 -13.84,25.29"
       id="path24" />
  </g>
</g></svg>