<svg xmlns="http://www.w3.org/2000/svg" width="24" height="24" viewBox="0 0 24 24"> <g transform="translate(3.6024900086688536 0.0) scale(0.4198754995665573)">
  
  <g
     id="line"
     transform="translate(-15.9104,-0.6675)">
    <path
       fill="none"
       stroke="#000"
       stroke-linecap="round"
       stroke-linejoin="round"
       stroke-miterlimit="10"
       stroke-width="2"
       d="m 26.1996,20.8672 c -1.0332,2.1368 -1.6278,4.6421 -1.6278,7.321 0,7.8276 5.0765,14.1732 11.3386,14.1732 6.2621,0 11.3386,-6.3456 11.3386,-14.1732 0,-2.6789 -0.5946,-5.1842 -1.6278,-7.321"
       id="path2" />
    <path
       d="m 54.9104,57.8273 c -0.5523,0 -1,-0.4477 -1,-1 v -3 c 0,-4.4516 -4.4961,-7.8105 -8.6519,-7.9921 -6.205,5.0117 -12.4912,5.0117 -18.6963,0 -4.1557,0.1816 -8.6518,3.5405 -8.6518,7.9921 v 3 c 0,0.5523 -0.4478,1 -1,1 -0.5523,0 -1,-0.4477 -1,-1 v -3 c 0,-5.3247 5.1401,-9.9975 10.9995,-10 h 5e-4 c 0.2339,0 0.4604,0.0821 0.6401,0.232 5.625,4.6875 11.0947,4.6875 16.7197,0 0.1797,-0.1499 0.4063,-0.232 0.6402,-0.232 h 5e-4 c 5.8593,0.0025 10.9995,4.6753 10.9995,10 v 3 c 0,0.5523 -0.4478,1 -1,1 z"
       id="path4" />
    <path
       d="m 41.9105,26.8274 c 0,1.1045 -0.8965,2 -2,2 -1.1035,0 -2,-0.8955 -2,-2 0,-1.1035 0.8965,-2 2,-2 1.1035,0 2,0.8965 2,2"
       id="path6" />
    <path
       d="m 33.9105,26.8274 c 0,1.1045 -0.8965,2 -2,2 -1.1035,0 -2,-0.8955 -2,-2 0,-1.1035 0.8965,-2 2,-2 1.1035,0 2,0.8965 2,2"
       id="path8" />
    <path
       d="m 35.9104,36.8298 c -1.1519,0 -2.3037,-0.2862 -3.4473,-0.8579 -0.4941,-0.2471 -0.6943,-0.8477 -0.4472,-1.3418 0.2465,-0.4937 0.8461,-0.6944 1.3418,-0.4473 1.7177,0.8594 3.3876,0.8594 5.1054,0 0.4946,-0.2471 1.0947,-0.0464 1.3418,0.4473 0.2471,0.4941 0.0469,1.0947 -0.4472,1.3418 -1.1436,0.5717 -2.2955,0.8579 -3.4473,0.8579 z"
       id="path10" />
    <path
       fill="none"
       stroke="#000"
       stroke-linecap="round"
       stroke-linejoin="round"
       stroke-miterlimit="10"
       stroke-width="2"
       d="m 26.5622,45.8352 c 0,0 3.6651,10.8583 20.1668,5.0964 v 5.8753"
       id="path12" />
    <circle
       cx="28.4105"
       cy="55.827301"
       r="1.5"
       id="circle14" />
    <circle
       cx="43.4105"
       cy="55.827301"
       r="1.5"
       id="circle16" />
    <path
       fill="none"
       stroke="#000"
       stroke-linecap="round"
       stroke-linejoin="round"
       stroke-miterlimit="10"
       stroke-width="2"
       d="m 26.1925,20.8672 c -0.6529,1.3503 -1.1307,2.8478 -1.3939,4.4432 l 0.0644,-0.361 c 0,0 3.2903,0.6195 8.457,-3.7624"
       id="path18" />
    <path
       fill="none"
       stroke="#000"
       stroke-linecap="round"
       stroke-linejoin="round"
       stroke-miterlimit="10"
       stroke-width="2"
       d="m 45.4255,20.8672 c 0.6529,1.3503 1.1307,2.8478 1.3939,4.4432 l -0.0644,-0.361 c 0,0 -3.2903,0.6195 -8.4569,-3.7624"
       id="path20" />
    <line
       x1="26.274599"
       x2="26.274599"
       y1="14.8468"
       y2="20.9035"
       fill="none"
       stroke="#000"
       stroke-linecap="round"
       stroke-linejoin="round"
       stroke-miterlimit="10"
       stroke-width="2"
       id="line22" />
    <path
       fill="none"
       stroke="#000"
       stroke-linecap="round"
       stroke-linejoin="round"
       stroke-miterlimit="10"
       stroke-width="2"
       d="m 26.2746,20.9035 h 19.2715 v -0.5621 -5.4946 c 2.209,0 4,-1.7908 4,-4 0,-2.2091 -1.791,-4 -4,-4 -0.8757,0 -1.6789,0.2894 -2.3376,0.7666 0.3247,-0.5782 0.5254,-1.2355 0.5254,-1.9459 0,-2.2091 -1.7908,-4 -4,-4 -1.8202,0 -3.339,1.2234 -3.8235,2.8873 -0.4845,-1.6639 -2.0034,-2.8873 -3.8236,-2.8873 -2.2091,0 -4,1.7909 -4,4 0,0.7103 0.2007,1.3677 0.5254,1.9459 -0.6587,-0.4773 -1.4619,-0.7666 -2.3376,-0.7666 -2.2092,0 -4,1.7909 -4,4 0,2.2092 1.7908,4 4,4"
       id="path24" />
  </g>
</g></svg>