<svg xmlns="http://www.w3.org/2000/svg" width="24" height="24" viewBox="0 0 24 24"> <g transform="translate(-1.7763568394002505e-15 0.14414599733806277) scale(0.5432337810651068)">
  
  <g
     id="line"
     transform="translate(-13.663289,-12.411034)">
    <path
       fill="none"
       stroke="#000"
       stroke-linecap="round"
       stroke-linejoin="round"
       stroke-width="2"
       d="m 43.4959,46.9594 a 0.9468,0.9468 0 0 0 0.5491,0.2363 0.8683,0.8683 0 0 0 0.5695,-0.1747"
       id="path2" />
    <path
       fill="none"
       stroke="#000"
       stroke-linecap="round"
       stroke-linejoin="round"
       stroke-width="2"
       d="m 32.3127,38.0187 a 0.9468,0.9468 0 0 0 0.5491,0.2363 0.8683,0.8683 0 0 0 0.5695,-0.1746"
       id="path4" />
    <path
       fill="none"
       stroke="#000"
       stroke-linecap="round"
       stroke-linejoin="round"
       stroke-width="2"
       d="m 30.69,47.0944 a 0.9468,0.9468 0 0 0 0.5491,0.2363 0.8688,0.8688 0 0 0 0.57,-0.1746"
       id="path6" />
    <path
       fill="none"
       stroke="#000"
       stroke-linecap="round"
       stroke-linejoin="round"
       stroke-width="2"
       d="m 44.16,26.86 a 0.8149,0.8149 0 0 0 0.6177,0.29 1.0579,1.0579 0 0 0 0.6919,-0.3335"
       id="path8" />
    <path
       fill="none"
       stroke="#000"
       stroke-linecap="round"
       stroke-linejoin="round"
       stroke-width="2"
       d="m 40.2154,37.8348 a 0.8156,0.8156 0 0 0 0.6177,0.29 1.0572,1.0572 0 0 0 0.6918,-0.3336"
       id="path10" />
    <path
       fill="none"
       stroke="#000"
       stroke-linecap="round"
       stroke-linejoin="round"
       stroke-width="2"
       d="m 49.9978,32.4214 a 0.8149,0.8149 0 0 0 0.6177,0.29 1.057,1.057 0 0 0 0.6918,-0.3335"
       id="path12" />
    <path
       fill="none"
       stroke="#000"
       stroke-linecap="round"
       stroke-linejoin="round"
       stroke-width="2"
       d="m 21.756,44.065 a 0.9464,0.9464 0 0 0 0.5492,0.2362 0.8676,0.8676 0 0 0 0.5694,-0.1746"
       id="path14" />
    <path
       fill="none"
       stroke="#000"
       stroke-linecap="round"
       stroke-linejoin="round"
       stroke-width="2"
       d="M 48.8417,17.2263 A 2.0059,2.0059 0 0 1 51.656,17.509 23.000004,23.000004 0 0 1 16.041,46.6221 2.0059,2.0059 0 0 1 16.3237,43.8078 Z"
       id="path16" />
    <path
       fill="none"
       stroke="#000"
       stroke-linecap="round"
       stroke-linejoin="round"
       stroke-width="2"
       d="m 25,31 c -0.2,-0.6768 -0.7176,-2.4307 0,-3 0.8825,-0.7 2.4466,1.3331 5,1"
       id="path18" />
    <path
       fill="none"
       stroke="#000"
       stroke-linecap="round"
       stroke-linejoin="round"
       stroke-width="2"
       d="m 32.5234,29.5145 c -1.1243,-3.9866 -0.89,-5.118 -0.4245,-5.3684 0.7955,-0.4276 2.2537,1.722 4.0192,1.3586 a 3.6929,3.6929 0 0 0 2.2455,-2.2266"
       id="path20" />
    <path
       fill="none"
       stroke="#000"
       stroke-linecap="round"
       stroke-linejoin="round"
       stroke-width="2"
       d="m 48.8331,41.1249 a 1.0572,1.0572 0 0 0 0.6918,-0.3336"
       id="path22" />
    <path
       fill="none"
       stroke="#000"
       stroke-linecap="round"
       stroke-linejoin="round"
       stroke-width="2"
       d="m 44.2406,16.3377 a 4.9778,4.9778 0 0 0 -9.3658,1.973 3.1019,3.1019 0 0 0 -3.0182,-0.3743 3.44,3.44 0 0 0 -1.6966,2.0327 4.956,4.956 0 0 0 -5.7908,0.3421 4.8455,4.8455 0 0 0 -1.3113,5.98 2.8033,2.8033 0 0 0 -2.7516,1.216 3.0871,3.0871 0 0 0 -0.4726,2.582 4.9736,4.9736 0 0 0 -4.87,3.2063 5.0971,5.0971 0 0 0 1.8263,5.8688"
       id="path24" />
    <path
       fill="none"
       stroke="#000"
       stroke-linecap="round"
       stroke-linejoin="round"
       stroke-width="2"
       d="m 19.3514,22.8631 a 5.2462,5.2462 0 0 0 -2.7448,1.8563 4.8127,4.8127 0 0 0 -0.888,3.18"
       id="path26" />
    <path
       fill="none"
       stroke="#000"
       stroke-linecap="round"
       stroke-linejoin="round"
       stroke-width="2"
       d="m 27.5584,16.1544 a 5.246,5.246 0 0 1 2.3651,-2.3208 4.8124,4.8124 0 0 1 3.2929,-0.2378"
       id="path28" />
  </g>
</g></svg>