<svg xmlns="http://www.w3.org/2000/svg" width="24" height="24" viewBox="0 0 24 24"> <g transform="translate(0.041704240268767734 0.0) scale(0.4767152318322782)">
  
  <g
     id="line"
     transform="translate(-11.175758,-11.277381)">
    <path
       fill="none"
       stroke="#000"
       stroke-linejoin="round"
       stroke-miterlimit="10"
       stroke-width="2"
       d="M 51.5334,37.3844 35.2339,21.0847 c 6.2853,-6.2853 8.5839,1.4216 15.9401,-5.9347 l 1.5737,-1.5734 c 1.738,-1.7383 4.5563,-1.7383 6.2938,0 1.7383,1.7377 1.7383,4.5561 5e-4,6.2938 l -1.5739,1.574 c -7.3561,7.3561 0.3507,9.6545 -5.9347,15.94 z"
       id="path2" />
    <path
       fill="none"
       stroke="#000"
       stroke-miterlimit="10"
       stroke-width="2"
       d="m 57.5208,12.5842 c 0.0079,0.0032 0.0162,0.0042 0.024,0.0072 0.2369,0.0945 0.4637,0.218 0.6847,0.3549 0.034,0.021 0.0715,0.0332 0.105,0.0552 0.2499,0.1643 0.4872,0.3553 0.7069,0.5752 0.4346,0.4343 0.7605,0.9363 0.9778,1.472 0.3259,0.8036 0.4075,1.6832 0.2446,2.5248 -0.1629,0.8417 -0.5703,1.6453 -1.2219,2.2969 l -1.5739,1.5741 c -2.2988,2.2987 -3.1266,4.1036 -3.3701,5.6906 -0.0487,0.3174 -0.074,0.6261 -0.0831,0.9282 -0.0181,0.6044 0.0289,1.1826 0.0843,1.7527 0.0692,0.7124 0.1515,1.4117 0.136,2.1326 -0.0062,0.2883 -0.028,0.5801 -0.0726,0.8774 -0.1337,0.8921 -0.472,1.8351 -1.2065,2.8884 -0.2402,0.3442 -0.524,0.7008 -0.8555,1.0708 -0.0368,1.3615 -0.5595,2.7123 -1.5927,3.7454 L 32.02,59.0186 c -2.1425,2.1426 -5.6482,2.1426 -7.7905,0 L 13.9584,48.7478 v 0 L 13.779,48.5684 c -2.1425,-2.1426 -2.1425,-5.6484 0,-7.7908 l 4.6223,-4.6221 4.6221,-4.6221 4.6221,-4.6219 4.6217,-4.6217 c 0.9285,-0.9285 2.115,-1.4297 3.3335,-1.5535 6.0092,-5.6279 8.3631,1.624 15.5734,-5.5863 l 1.5737,-1.5734 c 1.2906,-1.2909 3.1759,-1.6186 4.773,-0.9924 z"
       id="path4" />
    <line
       x1="34.021301"
       x2="27.021299"
       y1="35.021301"
       y2="28.021299"
       fill="none"
       stroke="#000"
       stroke-linecap="round"
       stroke-linejoin="round"
       stroke-miterlimit="10"
       stroke-width="2"
       id="line6" />
    <line
       x1="29.521299"
       x2="22.521299"
       y1="39.521301"
       y2="32.521301"
       fill="none"
       stroke="#000"
       stroke-linecap="round"
       stroke-linejoin="round"
       stroke-miterlimit="10"
       stroke-width="2"
       id="line8" />
    <line
       x1="24.521299"
       x2="17.521299"
       y1="44.521301"
       y2="37.521301"
       fill="none"
       stroke="#000"
       stroke-linecap="round"
       stroke-linejoin="round"
       stroke-miterlimit="10"
       stroke-width="2"
       id="line10" />
  </g>
</g></svg>