<svg xmlns="http://www.w3.org/2000/svg" width="24" height="24" viewBox="0 0 24 24"> <g transform="translate(2.6412124055218253 0.0) scale(0.46646769746180156)">
  
  <g
     id="line"
     transform="translate(-15.910301,-7.6619917)">
    <path
       d="m 40.0984,25.2525 a 2,2 0 1 1 -2,2 2.0059,2.0059 0 0 1 2,-2 z"
       id="path2" />
    <path
       d="m 39.9884,35.0625 a 0.9935,0.9935 0 0 1 -0.45,1.34 7.33,7.33 0 0 1 -6.89,0 1.0108,1.0108 0 0 1 -0.45,-1.34 0.9935,0.9935 0 0 1 1.34,-0.45 5.383,5.383 0 0 0 5.11,0 0.9935,0.9935 0 0 1 1.34,0.45 z"
       id="path4" />
    <path
       d="m 32.0984,25.2525 a 2,2 0 1 1 -2,2 2.0261,2.0261 0 0 1 0.45,-1.27 2.0009,2.0009 0 0 1 1.55,-0.73 z"
       id="path6" />
    <path
       fill="none"
       stroke="#000"
       stroke-miterlimit="10"
       d="m 26.0184,35.1225 a 18.5724,18.5724 0 0 1 6.73,-3.72 c 3.8,-1.09 8.67,-0.82 13.08,4.48"
       id="path8" />
    <path
       d="m 40.0984,25.2525 a 2,2 0 1 1 -2,2 2.0059,2.0059 0 0 1 2,-2 z"
       id="path10" />
    <path
       d="m 39.9884,35.0625 a 0.9935,0.9935 0 0 1 -0.45,1.34 7.33,7.33 0 0 1 -6.89,0 1.0108,1.0108 0 0 1 -0.45,-1.34 0.9935,0.9935 0 0 1 1.34,-0.45 5.383,5.383 0 0 0 5.11,0 0.9935,0.9935 0 0 1 1.34,0.45 z"
       id="path12" />
    <path
       d="m 32.0984,25.2525 a 2,2 0 1 1 -2,2 2.0261,2.0261 0 0 1 0.45,-1.27 2.0009,2.0009 0 0 1 1.55,-0.73 z"
       id="path14" />
    <path
       fill="none"
       stroke="#000"
       stroke-linecap="round"
       stroke-linejoin="round"
       stroke-width="2"
       d="m 24.8484,26.7725 c -0.06,0.61 -0.09,1.22 -0.09,1.84 a 16.973,16.973 0 0 0 1.26,6.51 17.5972,17.5972 0 0 0 9.52,9.15 1.45,1.45 0 0 0 1.12,-0.01 17.201,17.201 0 0 0 9.17,-8.38 16.804,16.804 0 0 0 1.61,-7.27 17.1416,17.1416 0 0 0 -0.09,-1.76"
       id="path16" />
    <path
       fill="none"
       stroke="#000"
       stroke-linecap="round"
       stroke-linejoin="round"
       stroke-width="2"
       d="m 44.9084,45.1125 c 12,0 10,13 10,13"
       id="path18" />
    <path
       fill="none"
       stroke="#000"
       stroke-linecap="round"
       stroke-linejoin="round"
       stroke-width="2"
       d="m 41.4684,47.1825 a 35.3342,35.3342 0 0 0 3.33,-2"
       id="path20" />
    <path
       fill="none"
       stroke="#000"
       stroke-linecap="round"
       stroke-linejoin="round"
       stroke-width="2"
       d="m 17.0384,58.1125 c 0,0 -2,-13 10,-13 3.14,2.09 5.84,3.55 8.87,3.59 h 0.13 a 12.2021,12.2021 0 0 0 5.42,-1.51"
       id="path22" />
    <path
       fill="none"
       stroke="#000"
       stroke-linecap="round"
       stroke-linejoin="round"
       stroke-width="2"
       d="m 36.1084,8.6925 c 0,-0.01 -0.01,-0.02 -0.01,-0.03 a 13.1031,13.1031 0 0 0 -3.84,0.54 c -15.84,4.84 -7.5,17.63 -7.5,17.63 l 0.09,-0.06 c 0.33,-0.22 1.59,-1.07 3.17,-2.35 a 39.4538,39.4538 0 0 0 4.08,-3.79 18.72,18.72 0 0 0 4.07,-6.24 9.0785,9.0785 0 0 0 0.47,-1.95 6.8919,6.8919 0 0 0 -0.53,-3.75 z"
       id="path24" />
    <path
       fill="none"
       stroke="#000"
       stroke-linecap="round"
       stroke-linejoin="round"
       stroke-width="2"
       d="m 23.4084,22.9625 a 40.62,40.62 0 0 0 9.66,-10.11"
       id="path26" />
    <path
       fill="none"
       stroke="#000"
       stroke-linecap="round"
       stroke-linejoin="round"
       stroke-width="2"
       d="m 36.1684,8.6625 a 13.217,13.217 0 0 1 3.85,0.54 c 10.25,3.13 10.37,9.6 9.18,13.76 a 15.582,15.582 0 0 1 -1.69,3.87 c 0,0 -0.03,-0.02 -0.1,-0.07 a 46.092,46.092 0 0 1 -6.98,-6.13 21.3528,21.3528 0 0 1 -4.13,-6.19"
       id="path28" />
    <path
       fill="none"
       stroke="#000"
       stroke-linecap="round"
       stroke-linejoin="round"
       stroke-width="2"
       d="m 48.8584,22.9625 a 49.7116,49.7116 0 0 1 -9.3,-10.11"
       id="path30" />
    <path
       fill="none"
       stroke="#000"
       stroke-linecap="round"
       stroke-linejoin="round"
       stroke-width="2"
       d="m 32.0984,20.6325 c 0,0 4.59,3.57 8.33,0 h 0.01"
       id="path32" />
    <path
       fill="none"
       stroke="#000"
       stroke-linecap="round"
       stroke-linejoin="round"
       stroke-width="2"
       d="m 26.0184,35.1225 a 18.5724,18.5724 0 0 1 6.73,-3.72 c 3.8,-1.09 8.67,-0.82 13.08,4.48"
       id="path34" />
    <path
       fill="none"
       stroke="#000"
       stroke-linecap="round"
       stroke-linejoin="round"
       stroke-width="2"
       d="m 44.9084,45.1125 a 0.9322,0.9322 0 0 0 -0.11,0.07 c -0.37,0.21 -1.64,0.96 -3.33,2 a 0.01,0.01 0 0 1 -0.01,0.01 c -5.09,3.14 -14.05,8.95 -14.05,10.92"
       id="path36" />
  </g>
</g></svg>