<svg xmlns="http://www.w3.org/2000/svg" width="24" height="24" viewBox="0 0 24 24"> <g transform="translate(0.0 1.3904224916320018) scale(0.43661259286408743)">
  
  <g
     id="line"
     transform="translate(-8.5115831,-19.420499)">
    <path
       fill="none"
       stroke="#000"
       stroke-linecap="round"
       stroke-linejoin="round"
       stroke-miterlimit="10"
       stroke-width="2"
       d="m 30.24,67.02 1.179,-3.453 -3.429,-15.46 c -8.506,1.177 -6.194,-11.73 -9.872,-18.03 -1.055,-1.766 -3.844,-1.47 -3.844,-1.47 l -2.65,0.2126 c -0.8005,0.0642 -1.544,-0.4182 -1.812,-1.175 l -0.2103,-0.595 c -0.2696,-0.7629 0.0713,-1.607 0.795,-1.969 l 9.02,-4.51 c 0,0 2.217,-0.8563 3.168,1.519 0,0 1.118,-2.698 6.476,-0.5542 0,0 -0.4286,4.072 -5.144,4.072"
       id="path2" />
    <path
       fill="none"
       stroke="#000"
       stroke-linecap="round"
       stroke-linejoin="round"
       stroke-miterlimit="10"
       stroke-width="2"
       d="m 34.92,44.6 0.5358,4.18 c 0,0 -2.677,3.045 -2.143,7.364"
       id="path4" />
    <polyline
       transform="translate(2.068)"
       fill="none"
       stroke="#000"
       stroke-linecap="round"
       stroke-linejoin="round"
       stroke-miterlimit="10"
       stroke-width="2"
       points="23.1 51.18 24.06 62.66 22.24 66.84"
       id="polyline6" />
    <path
       fill="none"
       stroke="#000"
       stroke-linecap="round"
       stroke-linejoin="round"
       stroke-miterlimit="10"
       stroke-width="2"
       d="m 25.85,31.85 c 0,0 0.3027,1.456 1.776,1.999 15.26,-1.156 28.85,-1.296 33.28,2.43 2.003,1.773 1.788,4.751 1.03,7.228 -0.0102,0.0336 -0.8683,2.71 0.5438,3.773"
       id="path8" />
    <path
       fill="none"
       stroke="#000"
       stroke-linecap="round"
       stroke-linejoin="round"
       stroke-miterlimit="10"
       stroke-width="2"
       d="m 49.7,40.59 -0.8572,6.537 4.072,6.122 -3.383,10.64 -2.35,3.129"
       id="path10" />
    <path
       fill="none"
       stroke="#000"
       stroke-linecap="round"
       stroke-linejoin="round"
       stroke-miterlimit="10"
       stroke-width="2"
       d="m 58.19,40.59 c 0,0 0.9716,2.495 -2.078,7.229 0,0 0.1072,3.18 1.393,5.538 l -2.036,4.155"
       id="path12" />
    <path
       fill="none"
       stroke="#000"
       stroke-linecap="round"
       stroke-linejoin="round"
       stroke-miterlimit="10"
       stroke-width="2"
       d="m 38.31,48.92 c 4.753,0.5107 8.797,0.815 11.54,-0.2756"
       id="path14" />
  </g>
</g></svg>