<svg xmlns="http://www.w3.org/2000/svg" width="24" height="24" viewBox="0 0 24 24"> <g transform="translate(0.33180165257189387 0.0) scale(0.3701189579294571)">
  
  <g
     id="line"
     transform="translate(-4.8007533,-2.1068333)">
    <path
       fill="none"
       stroke="#000"
       stroke-miterlimit="10"
       stroke-width="2"
       d="m 62.3344,5.3344 1.8375,1.8375 -10e-5,-2e-4 2.3451,2.3452 c 0.8451,0.8451 0.0342,3.0388 -1.8019,4.875 -1.8361,1.8362 -4.0299,2.647 -4.875,1.802 l -0.1383,-0.1384 v 0 L 55.6575,12.0113 C 54.833,11.1868 55.6607,9.0098 57.4968,7.1737 59.3329,5.3376 61.5099,4.5098 62.3344,5.3344 Z"
       id="path2" />
    <path
       fill="none"
       stroke="#000"
       stroke-linecap="round"
       stroke-miterlimit="10"
       stroke-width="2"
       d="m 56.0211,20.5021 c 0.3033,0.9062 -0.1427,2.2344 -1.1827,3.2744 -0.897,0.8971 -2.0029,1.3395 -2.8731,1.2531 l -8.6799,8.6799 c -0.1448,0.1448 -0.2825,0.2952 -0.4126,0.4504 -0.2602,0.3103 -0.4902,0.6399 -0.6874,0.983 -0.2957,0.5146 -0.5176,1.0596 -0.6566,1.6151 -0.0927,0.3704 -0.1484,0.7455 -0.1647,1.1196 l -0.1272,2.9233 c -0.1036,2.382 -1.2137,4.7905 -3.0583,6.6351 l -0.1934,0.1935 -17.0146,17.0147 -2e-4,2e-4 c -1.5429,1.5429 -3.839,1.7482 -5.1284,0.4587 L 6.6452,55.9063 C 5.8392,55.1003 5.6173,53.9012 5.9409,52.7385 6.135,52.0409 6.5255,51.3563 7.1041,50.7777 L 24.3119,33.5698 c 1.8446,-1.8446 4.2531,-2.9548 6.6352,-3.0583 l 2.9232,-0.1273 v -2e-4 c 0.5612,-0.0243 1.1246,-0.1376 1.6709,-0.3309 0.9105,-0.322 1.7731,-0.866 2.4973,-1.5903 l 8.5557,-8.5557 c -0.2427,-0.9022 0.1978,-2.1692 1.2017,-3.1731 1.1668,-1.1668 2.6965,-1.5859 3.5859,-1.0379"
       id="path4" />
    <line
       x1="22"
       x2="35"
       y1="37"
       y2="50"
       fill="none"
       stroke="#000"
       stroke-linecap="round"
       stroke-linejoin="round"
       stroke-miterlimit="10"
       stroke-width="2"
       id="line6" />
    <line
       x1="8.5"
       x2="21.5"
       y1="50.5"
       y2="63.5"
       fill="none"
       stroke="#000"
       stroke-linecap="round"
       stroke-linejoin="round"
       stroke-miterlimit="10"
       stroke-width="2"
       id="line8" />
  </g>
</g></svg>