<svg xmlns="http://www.w3.org/2000/svg" width="24" height="24" viewBox="0 0 24 24"> <g transform="translate(1.5532386923076924 0.0) scale(0.46153846153846156)">
  
  <g
     id="line"
     transform="translate(-13.3491,-9.7708)">
    <path
       fill="none"
       stroke="#000"
       stroke-miterlimit="10"
       stroke-width="2"
       d="m 26.7232,45.3139 c -0.4196,0.0478 -0.8461,0.0723 -1.278,0.0723 -6.125,0 -11.0961,-4.9423 -11.0961,-11.0385 0,-3.6552 1.7871,-6.8941 4.5366,-8.9045 0.8801,-0.6435 1.4456,-1.6121 1.7114,-2.6694 1.7341,-6.898 8.0083,-12.003 15.4732,-12.003 7.5784,0 13.9358,5.2744 15.5442,12.3414 0.2335,1.0259 0.8381,1.9071 1.6744,2.5454 2.634,2.0103 4.3295,5.1681 4.3295,8.7285 0,6.0769 -4.9519,11 -11.0577,11 -0.161,0 -0.3212,-0.0034 -0.4805,-0.0101"
       id="path2" />
    <path
       fill="none"
       stroke="#000"
       stroke-miterlimit="10"
       stroke-width="2"
       d="m 26.7232,45.3139 c -0.4196,0.0478 -0.8461,0.0723 -1.278,0.0723 -6.125,0 -11.0961,-4.9423 -11.0961,-11.0385 0,-3.6552 1.7871,-6.8941 4.5366,-8.9045 0.8801,-0.6435 1.4456,-1.6121 1.7114,-2.6694 1.7341,-6.898 8.0083,-12.003 15.4732,-12.003 7.5784,0 13.9358,5.2744 15.5442,12.3414 0.2335,1.0259 0.8381,1.9071 1.6744,2.5454 2.634,2.0103 4.3295,5.1681 4.3295,8.7285 0,6.0769 -4.9519,11 -11.0577,11 -0.161,0 -0.3212,-0.0034 -0.4805,-0.0101"
       id="path4" />
    <path
       fill="none"
       stroke="#000"
       stroke-linecap="round"
       stroke-linejoin="round"
       stroke-miterlimit="10"
       stroke-width="2"
       d="m 46.0798,45.3862 c 0,0 -0.2019,0 -0.5481,-0.0288 -0.0096,0 -0.0288,0 -0.0385,0"
       id="path6" />
    <path
       fill="none"
       stroke="#000"
       stroke-linecap="round"
       stroke-linejoin="round"
       stroke-miterlimit="10"
       stroke-width="2"
       d="m 27.176,45.2804 c -0.7692,0.1058 -1.2885,0.1058 -1.2885,0.1058"
       id="path8" />
    <path
       fill="none"
       stroke="#000"
       stroke-linecap="round"
       stroke-linejoin="round"
       stroke-miterlimit="10"
       stroke-width="2"
       d="m 25.8875,45.3862 c 0,0 5.7692,0 7.6923,-3.8462"
       id="path10" />
    <path
       fill="none"
       stroke="#000"
       stroke-linecap="round"
       stroke-miterlimit="10"
       stroke-width="2"
       d="m 43.1952,48.2708 c 0,0 -0.9615,1.9231 -0.9615,4.8077 v 2.0979 3.6313 c 0,1.0842 -0.8789,1.9631 -1.9631,1.9631 h -1.883 -3.8462 -1.883 c -1.0842,0 -1.9631,-0.8789 -1.9631,-1.9631 v -3.6313 -2.0979 c 0,-2.8846 -0.9615,-4.8077 -0.9615,-4.8077"
       id="path12" />
    <path
       fill="none"
       stroke="#000"
       stroke-linecap="round"
       stroke-linejoin="round"
       stroke-miterlimit="10"
       stroke-width="2"
       d="m 46.0798,45.3862 c 0,0 -5.7692,0 -7.6923,-3.8462"
       id="path14" />
    <path
       fill="none"
       stroke="#000"
       stroke-miterlimit="10"
       stroke-width="2"
       d="m 26.7232,45.3139 c -0.4196,0.0478 -0.8461,0.0723 -1.278,0.0723 -6.125,0 -11.0961,-4.9423 -11.0961,-11.0385 0,-3.6552 1.7871,-6.8941 4.5366,-8.9045 0.8801,-0.6435 1.4456,-1.6121 1.7114,-2.6694 1.7341,-6.898 8.0083,-12.003 15.4732,-12.003 7.5784,0 13.9358,5.2744 15.5442,12.3414 0.2335,1.0259 0.8381,1.9071 1.6744,2.5454 2.634,2.0103 4.3295,5.1681 4.3295,8.7285 0,6.0769 -4.9519,11 -11.0577,11 -0.161,0 -0.3212,-0.0034 -0.4805,-0.0101"
       id="path16" />
    <path
       fill="none"
       stroke="#000"
       stroke-linecap="round"
       stroke-linejoin="round"
       stroke-miterlimit="10"
       stroke-width="2"
       d="m 46.0798,45.3862 c 0,0 -0.2019,0 -0.5481,-0.0288 -0.0096,0 -0.0288,0 -0.0385,0"
       id="path18" />
    <path
       fill="none"
       stroke="#000"
       stroke-linecap="round"
       stroke-linejoin="round"
       stroke-miterlimit="10"
       stroke-width="2"
       d="m 27.176,45.2804 c -0.7692,0.1058 -1.2885,0.1058 -1.2885,0.1058"
       id="path20" />
  </g>
</g></svg>