<svg xmlns="http://www.w3.org/2000/svg" width="24" height="24" viewBox="0 0 24 24"> <g transform="translate(0.0 6.836516009537833) scale(0.4031262575649582)">
  
  <g
     id="line"
     transform="translate(-5.9993586,-31.084998)">
    <path
       fill="none"
       stroke="#000"
       stroke-linecap="round"
       stroke-linejoin="round"
       stroke-miterlimit="10"
       stroke-width="2"
       d="m 22.8341,52.6719 c 8.2686,-0.0728 17.415,-0.2643 25.3341,-0.4335"
       id="path2" />
    <circle
       cx="17.131901"
       cy="52.702202"
       r="3"
       fill="none"
       stroke="#000"
       stroke-miterlimit="10"
       stroke-width="2"
       id="circle4" />
    <circle
       cx="55.215302"
       cy="52.702202"
       r="3"
       fill="none"
       stroke="#000"
       stroke-miterlimit="10"
       stroke-width="2"
       id="circle6" />
    <polyline
       fill="none"
       stroke="#000"
       stroke-linecap="round"
       stroke-linejoin="round"
       stroke-miterlimit="10"
       stroke-width="2"
       points="33.9167,36.0833 33.9167,41.75 20.5,42.6667"
       id="polyline8" />
    <line
       x1="24.0833"
       x2="49.083302"
       y1="49.083302"
       y2="48.083302"
       fill="none"
       stroke="#000"
       stroke-linecap="round"
       stroke-linejoin="round"
       stroke-miterlimit="10"
       stroke-width="2"
       id="line10" />
    <path
       fill="none"
       stroke="#000"
       stroke-linecap="round"
       stroke-linejoin="round"
       stroke-miterlimit="10"
       stroke-width="2"
       d="m 13.4649,45.6334 c 0,0 -1.9647,1.6588 -3.5765,1.9176"
       id="path12" />
    <path
       fill="none"
       stroke="#000"
       stroke-linecap="round"
       stroke-linejoin="round"
       stroke-miterlimit="10"
       stroke-width="2"
       d="m 61.3365,51.9588 c 0.5526,-0.0137 0.851,-0.0213 0.851,-0.0213 0,0 2,0.125 2.3125,-1.1875 0.0414,-0.1738 0.2878,-13.7904 -1.529,-17.571 -0.148,-0.3081 -0.4411,-0.5118 -0.7806,-0.552 -3.0415,-0.3603 -19.4332,-1.1578 -32.2529,0.3105 0,0 -4.6406,1.2031 -12.75,6.875 0,0 -5.5,2.25 -7.875,3.875 -2.375,1.625 -2.3125,4.75 -2.3125,4.75 0,0 0.25,3 0.75,3.9375 0.0763,0.1431 0.3975,0.2323 2.5817,0.2808"
       id="path14" />
  </g>
</g></svg>