<svg xmlns="http://www.w3.org/2000/svg" width="24" height="24" viewBox="0 0 24 24"> <g transform="translate(0.45669117904312806 0.0) scale(0.3586834398800001)">
  
  <g
     id="line"
     transform="translate(-3.9756183,-2.0513284)">
    <polyline
       fill="none"
       stroke="#000"
       stroke-linecap="round"
       stroke-linejoin="round"
       stroke-miterlimit="10"
       stroke-width="1.9"
       points="14.5238,33.667 11.324,35.463 12.9899,27.4866 4.9255,26.3246 10.9614,20.8516 5.1201,15.1703 13.2238,14.2934 11.8304,6.2625 18.9028,10.3193 22.4979,3.0012 25.8335,10.4384 33.0422,6.634 31.3763,14.6103 39.4406,15.7723 36.5166,18.1549"
       id="polyline2" />
    <path
       fill="none"
       stroke="#000"
       stroke-linecap="round"
       stroke-linejoin="round"
       stroke-miterlimit="10"
       stroke-width="1.9"
       d="m 32.9118,19.9675 c -0.5423,-5.4473 -5.1387,-9.7012 -10.7287,-9.7012 -5.9549,0 -10.7822,4.8274 -10.7822,10.7822 0,4.2822 2.4963,7.9814 6.1131,9.7216"
       id="path4" />
    <path
       fill="none"
       stroke="#000"
       stroke-linecap="round"
       stroke-linejoin="round"
       stroke-miterlimit="10"
       stroke-width="2"
       d="m 25.6193,30.5602 c -0.031,0.3535 -0.3174,0.6396 -0.6721,0.6775 -4.2996,0.4606 -7.6067,4.6942 -7.6067,9.8474 0,5.4608 3.7871,9.8877 8.4588,9.8877 h 32.248 c 5.1325,0 9.2932,-4.6783 9.2932,-10.4492 0,-5.5305 -3.8212,-10.0575 -8.6569,-10.4251 -0.37,-0.0281 -0.67,-0.2871 -0.7406,-0.6494 -1.0803,-5.5472 -6.0636,-9.7159 -11.9553,-9.7159 -3.829,0 -7.2399,1.7335 -9.4549,4.4912 -0.2164,0.2695 -0.5797,0.3929 -0.8992,0.2589 -0.8523,-0.3575 -1.7525,-0.5304 -2.7597,-0.5304 -3.806,10e-5 -6.9302,2.9047 -7.2546,6.6073 z"
       id="path6" />
    <path
       fill="none"
       stroke="#000"
       stroke-linecap="round"
       stroke-linejoin="round"
       stroke-miterlimit="10"
       stroke-width="1.8"
       d="m 28.6934,59.2233 c -0.7516,1.1632 -2.1343,1.6031 -3.0902,0.9854 -0.9559,-0.6177 -1.1216,-2.0613 -0.37,-3.2245 0,0 0.8761,-1.5078 4.0066,-3.0386 0,0 0.6168,-0.3534 0.5724,0.3205 -0.1914,3.5001 -1.1188,4.9572 -1.1188,4.9572"
       id="path8" />
    <path
       fill="none"
       stroke="#000"
       stroke-linecap="round"
       stroke-linejoin="round"
       stroke-miterlimit="10"
       stroke-width="1.8"
       d="m 58.798,59.2233 c -0.7516,1.1632 -2.1343,1.6031 -3.0902,0.9854 -0.9559,-0.6177 -1.1216,-2.0613 -0.37,-3.2245 0,0 0.8761,-1.5078 4.0066,-3.0386 0,0 0.6168,-0.3534 0.5724,0.3205 -0.1914,3.5001 -1.1188,4.9572 -1.1188,4.9572"
       id="path10" />
    <path
       fill="none"
       stroke="#000"
       stroke-linecap="round"
       stroke-linejoin="round"
       stroke-miterlimit="10"
       stroke-width="1.8"
       d="m 43.7457,59.2233 c -0.7516,1.1632 -2.1343,1.6031 -3.0902,0.9854 -0.9559,-0.6177 -1.1216,-2.0613 -0.37,-3.2245 0,0 0.8761,-1.5078 4.0066,-3.0386 0,0 0.6168,-0.3534 0.5724,0.3205 -0.1914,3.5001 -1.1188,4.9572 -1.1188,4.9572"
       id="path12" />
    <path
       fill="none"
       stroke="#000"
       stroke-linecap="round"
       stroke-linejoin="round"
       stroke-miterlimit="10"
       stroke-width="1.8"
       d="m 35.7196,66.7944 c -0.7516,1.1632 -2.1343,1.603 -3.0902,0.9854 -0.9559,-0.6177 -1.1216,-2.0613 -0.37,-3.2245 0,0 0.8761,-1.5078 4.0066,-3.0385 0,0 0.6168,-0.3534 0.5724,0.3205 -0.1915,3.5001 -1.1188,4.9571 -1.1188,4.9571"
       id="path14" />
    <path
       fill="none"
       stroke="#000"
       stroke-linecap="round"
       stroke-linejoin="round"
       stroke-miterlimit="10"
       stroke-width="1.8"
       d="m 50.7719,66.7944 c -0.7516,1.1632 -2.1343,1.603 -3.0902,0.9854 -0.9559,-0.6177 -1.1216,-2.0613 -0.37,-3.2245 0,0 0.8761,-1.5078 4.0066,-3.0385 0,0 0.6168,-0.3534 0.5724,0.3205 -0.1915,3.5001 -1.1188,4.9571 -1.1188,4.9571"
       id="path16" />
  </g>
</g></svg>