<svg xmlns="http://www.w3.org/2000/svg" width="24" height="24" viewBox="0 0 24 24"> <g transform="translate(0.0 0.02937552000000032) scale(0.48)">
  
  <g
     id="line"
     transform="translate(-10.997,-11.2142)">
    <circle
       cx="21.997"
       cy="19.9408"
       transform="matrix(0.0096,-1,1,0.0096,1.8467,41.746)"
       fill="none"
       fill-rule="evenodd"
       stroke="#000"
       stroke-linecap="round"
       stroke-linejoin="round"
       stroke-miterlimit="10"
       stroke-width="2"
       clip-rule="evenodd"
       id="ellipse2"
       r="3" />
    <rect
       x="11.997"
       y="12.2142"
       width="48"
       height="16"
       fill="none"
       stroke="#000"
       stroke-linecap="round"
       stroke-linejoin="round"
       stroke-miterlimit="10"
       stroke-width="2"
       id="rect4" />
    <circle
       cx="49.997601"
       cy="19.9408"
       transform="matrix(0.0096,-1,1,0.0096,29.5794,69.7454)"
       fill="none"
       fill-rule="evenodd"
       stroke="#000"
       stroke-linecap="round"
       stroke-linejoin="round"
       stroke-miterlimit="10"
       stroke-width="2"
       clip-rule="evenodd"
       id="ellipse6"
       r="3" />
    <polyline
       fill="none"
       stroke="#000"
       stroke-linecap="round"
       stroke-linejoin="round"
       stroke-miterlimit="10"
       stroke-width="2"
       points="11.997,28.0918 11.997,60.0918 43.6564,60.0864 59.997,48.0382 59.997,28.0918"
       id="polyline8" />
    <circle
       cx="18.2166"
       cy="33.6726"
       transform="matrix(0.0096,-1,1,0.0096,-15.6284,51.5668)"
       fill="#000"
       stroke="none"
       id="ellipse10"
       r="2" />
    <circle
       cx="24.2166"
       cy="33.6726"
       transform="matrix(0.0096,-1,1,0.0096,-9.6857,57.5665)"
       fill="#000"
       stroke="none"
       id="ellipse12"
       r="2" />
    <circle
       cx="30.2166"
       cy="33.6726"
       transform="matrix(0.0096,-1,1,0.0096,-3.743,63.5662)"
       fill="#000"
       stroke="none"
       id="ellipse14"
       r="2" />
    <circle
       cx="36.216599"
       cy="33.6726"
       transform="matrix(0.0096,-1,1,0.0096,2.1997,69.566)"
       fill="#000"
       stroke="none"
       id="ellipse16"
       r="2" />
    <circle
       cx="18.2166"
       cy="39.6726"
       transform="matrix(0.0096,-1,1,0.0096,-21.6282,57.5095)"
       fill="#000"
       stroke="none"
       id="ellipse18"
       r="2" />
    <circle
       cx="24.2166"
       cy="39.6726"
       transform="matrix(0.0096,-1,1,0.0096,-15.6855,63.5092)"
       fill="#000"
       stroke="none"
       id="ellipse20"
       r="2" />
    <circle
       cx="30.2166"
       cy="39.6726"
       transform="matrix(0.0096,-1,1,0.0096,-9.7428,69.5089)"
       fill="#000"
       stroke="none"
       id="ellipse22"
       r="2" />
    <circle
       cx="36.216599"
       cy="39.6726"
       transform="matrix(0.0096,-1,1,0.0096,-3.8001,75.5087)"
       fill="#000"
       stroke="none"
       id="ellipse24"
       r="2" />
    <circle
       cx="18.2166"
       cy="45.6726"
       transform="matrix(0.0096,-1,1,0.0096,-27.6279,63.4522)"
       fill="#000"
       stroke="none"
       id="ellipse26"
       r="2" />
    <polyline
       fill="none"
       stroke="#000"
       stroke-linecap="round"
       stroke-linejoin="round"
       stroke-miterlimit="10"
       stroke-width="2"
       points="59.8694,48.0382 43.1384,48.0382 43.1384,53.5175"
       id="polyline28" />
  </g>
</g></svg>