<svg xmlns="http://www.w3.org/2000/svg" width="24" height="24" viewBox="0 0 24 24"> <g transform="scale(0.5)">
  
  <g
     id="line-supplement"
     transform="translate(-11.9772,-12)">
    <path
       d="M 34.5271,32.43 A 7.5,7.5 0 1 0 20.68,36.4072 0.849,0.849 0 0 1 21.0848,35.4546 2.2182,2.2182 0 0 1 22.28,35.194 a 5.483,5.483 0 0 1 4.0127,-8.2089 5.38,5.38 0 1 0 5.7986,8.2175 3.1305,3.1305 0 0 1 0.7326,0.0782 h 10e-4 a 0.8779,0.8779 0 0 1 0.586,0.5429 0.8591,0.8591 0 0 1 0.0063,0.513 7.4441,7.4441 0 0 0 1.1099,-3.9067 z m -6.1338,1.014 a 3,3 0 1 1 3,-3 3.0011,3.0011 0 0 1 -3,3 z"
       id="path2" />
    <path
       d="m 51.5671,32.43 a 7.5,7.5 0 1 0 -13.8706,3.9387 0.8854,0.8854 0 0 1 0.0063,-0.3518 0.87,0.87 0 0 1 0.4131,-0.5615 2.2085,2.2085 0 0 1 1.2056,-0.2589 5.4822,5.4822 0 0 1 3.9175,-8.1973 5.3817,5.3817 0 1 0 5.8625,8.2041 3.1979,3.1979 0 0 1 0.7537,0.0782 0.8773,0.8773 0 0 1 0.5869,0.543 0.8611,0.8611 0 0 1 -0.01,0.5532 7.445,7.445 0 0 0 1.135,-3.9477 z m -6.1631,1.014 a 3,3 0 1 1 3,-3 3.0011,3.0011 0 0 1 -3,3 z"
       id="path4" />
  </g>
  <g
     id="line"
     transform="translate(-11.9772,-12)">
    <circle
       cx="35.9772"
       cy="36"
       r="23"
       fill="none"
       stroke="#000"
       stroke-miterlimit="10"
       stroke-width="2"
       id="circle7" />
    <path
       fill="none"
       stroke="#000"
       stroke-linecap="round"
       stroke-linejoin="round"
       stroke-width="2"
       d="m 30.17,19.0455 a 7.1767,7.1767 0 0 1 -3.9359,3.36 7.08,7.08 0 0 1 -4.4062,0.0187"
       id="path9" />
    <path
       fill="none"
       stroke="#000"
       stroke-linecap="round"
       stroke-linejoin="round"
       stroke-width="2"
       d="M 50.2672,21.6975 A 7.1721,7.1721 0 0 1 45.1207,22.2388 7.0853,7.0853 0 0 1 41.4776,19.76"
       id="path11" />
    <path
       fill="none"
       stroke="#000"
       stroke-linecap="round"
       stroke-linejoin="round"
       stroke-width="2"
       d="m 42.4772,46.5 a 8.6968,8.6968 0 0 1 -13,0"
       id="path13" />
  </g>
</g></svg>