<svg xmlns="http://www.w3.org/2000/svg" width="24" height="24" viewBox="0 0 24 24"> <g transform="translate(0.8881507579142909 0.0) scale(0.41026692290799044)">
  
  <g
     id="line"
     transform="translate(-9.7510512,-5.2173)">
    <path
       d="m 41.972,26.9445 c 0,1.1045 -0.8965,2 -2,2 -1.1035,0 -2,-0.8955 -2,-2 0,-1.1035 0.8965,-2 2,-2 1.1035,0 2,0.8965 2,2"
       id="path2" />
    <path
       d="m 33.972,26.9445 c 0,1.1045 -0.8965,2 -2,2 -1.1035,0 -2,-0.8955 -2,-2 0,-1.1035 0.8965,-2 2,-2 1.1035,0 2,0.8965 2,2"
       id="path4" />
    <path
       d="m 35.9719,36.947 c -1.1519,0 -2.3038,-0.2862 -3.4473,-0.8579 -0.4942,-0.2471 -0.6943,-0.8477 -0.4473,-1.3418 0.2466,-0.4937 0.8462,-0.6944 1.3418,-0.4473 1.7178,0.8594 3.3877,0.8594 5.1055,0 0.4946,-0.2471 1.0947,-0.0464 1.3418,0.4473 0.2471,0.4941 0.0469,1.0947 -0.4473,1.3418 -1.1435,0.5717 -2.2954,0.8579 -3.4472,0.8579 z"
       id="path6" />
    <path
       d="m 35.9717,43.4785 c -6.8037,0 -12.3389,-6.8066 -12.3389,-15.1733 0,-0.2222 0.0039,-0.4434 0.0127,-0.6626 l 1.9981,0.0752 c -0.0069,0.1948 -0.0108,0.3906 -0.0108,0.5874 0,7.2641 4.6377,13.1733 10.3389,13.1733 5.7012,0 10.3388,-5.9092 10.3388,-13.1733 0,-0.1983 -0.0039,-0.396 -0.0097,-0.5918 l 1.998,-0.0664 c 0.0078,0.2182 0.0117,0.4375 0.0117,0.6582 0,8.3667 -5.5351,15.1733 -12.3388,15.1733 z"
       id="path8" />
    <path
       d="m 48.5029,19.5947 c -9e-4,0 -9e-4,0 -0.0019,0 L 22.8408,19.5542 c -0.2304,-5e-4 -0.4541,-0.0806 -0.6328,-0.2271 -0.1504,-0.124 -0.9033,-0.7924 -0.8867,-1.7851 0.0029,-0.1841 0.0332,-0.4043 0.124,-0.6406 -0.5224,-0.4561 -1.082,-1.1133 -1.1699,-1.8814 -0.0674,-0.5957 0.1523,-1.1684 0.6201,-1.6123 1.0254,-0.9756 7.9131,-4.3369 14.8135,-5.0991 2.6387,-0.2886 9.1963,-0.585 13.1221,2.9575 0.3349,0.2588 2.2597,1.8677 2.0234,3.6875 -0.0596,0.4585 -0.2744,1.0405 -0.8857,1.564 0.2939,0.5083 0.5078,1.1406 0.3232,1.769 -0.1104,0.376 -0.4619,1.043 -1.5772,1.2852 -0.0693,0.0151 -0.1406,0.0229 -0.2119,0.0229 z m -25.1377,-2.0395 24.9131,0.039 c -0.1123,-0.205 -0.3144,-0.4736 -0.4824,-0.6421 -0.2344,-0.2343 -0.3379,-0.5698 -0.2754,-0.8955 0.0625,-0.3256 0.2832,-0.5996 0.5879,-0.7304 0.2168,-0.0928 0.7246,-0.3404 0.7627,-0.6294 0.0654,-0.4976 -0.7441,-1.4405 -1.3281,-1.9024 -2.3584,-2.125 -6.6768,-3.0434 -11.6153,-2.4975 -6.7529,0.7456 -13.0283,4.0371 -13.6455,4.5527 0.1094,0.2427 0.6114,0.7061 1.0694,0.9771 0.2861,0.1689 0.4697,0.4687 0.4892,0.8003 0.0205,0.3315 -0.126,0.6513 -0.3887,0.8535 -0.038,0.0288 -0.0664,0.0542 -0.0869,0.0747 z"
       id="path10" />
    <path
       d="m 35.8184,10.3027 c -0.5528,0 -1,-0.4477 -1,-1 V 6.2173 c 0,-0.5523 0.4472,-1 1,-1 0.5527,0 1,0.4477 1,1 v 3.0854 c 0,0.5523 -0.4473,1 -1,1 z"
       id="path12" />
    <path
       d="m 47.1621,28.6899 c -0.4355,0 -0.8545,-0.1489 -1.2256,-0.4384 -0.6826,-0.5323 -1.1474,-1.5537 -1.459,-2.5791 -0.1045,0.0566 -0.2138,0.1054 -0.3291,0.146 -1.4677,0.5141 -3.247,-0.6382 -4.4902,-1.7007 -0.0547,0.0508 -0.1103,0.0952 -0.166,0.1347 -1.0518,0.7452 -2.9248,0.0518 -4.6611,-0.9296 -0.0323,0.0346 -0.0655,0.0659 -0.0997,0.0952 -0.3623,0.3134 -1.1757,1.0112 -4.9433,-1.3072 -1.0235,2.1202 -3.0215,5.8184 -4.7813,6.5015 -0.3525,0.1362 -0.749,0.064 -1.0302,-0.1875 -3.9297,-3.5239 -0.3711,-10.0405 -0.2178,-10.3164 0.1767,-0.3169 0.5107,-0.5137 0.874,-0.5137 h 23.0615 c 0.2784,0 0.544,0.1162 0.7334,0.3203 2.3526,2.5371 1.7813,6.7232 0.8233,8.918 -0.5156,1.1816 -1.1446,1.8018 -1.8711,1.8447 -0.0733,0.0083 -0.1455,0.0122 -0.2178,0.0122 z m 0.0234,-2.0004 c 0.004,0.0024 0.0088,0.0043 0.0137,0.0063 0.0459,-0.0063 0.0508,-0.0156 0.0977,-0.0156 -0.0401,0 -0.0781,0.0034 -0.1114,0.0093 z m -2.2841,-5.0088 c 0.5107,0 0.9414,0.3857 0.9941,0.8955 0.1836,1.7466 0.7549,3.6342 1.2051,4.0517 0.2998,-0.4336 0.8418,-1.687 0.956,-3.3457 0.0616,-0.8984 0.0235,-2.5034 -0.833,-3.6875 H 25.252 c -0.5948,1.2803 -1.9141,4.6558 -0.4502,6.7637 1.0117,-1.021 2.5761,-3.7222 3.6513,-6.1157 0.1201,-0.2681 0.3526,-0.4693 0.6348,-0.5508 0.2812,-0.082 0.5859,-0.0347 0.8301,0.1269 1.083,0.7183 2.2715,1.3736 3.0576,1.7081 0.0234,-0.252 0.1416,-0.4927 0.3428,-0.667 0.3398,-0.2945 0.8359,-0.3247 1.207,-0.0757 1.3418,0.8921 2.9101,1.6489 3.6309,1.7778 -0.0079,-0.0366 -0.0167,-0.0766 -0.0284,-0.1216 -0.1133,-0.4433 0.0889,-0.9067 0.4903,-1.1255 0.4013,-0.2197 0.9013,-0.1372 1.2119,0.1978 1.331,1.4351 3.1035,2.604 3.6562,2.4185 0.1143,-0.0406 0.3496,-0.3687 0.418,-1.3223 0.0371,-0.5171 0.4629,-0.9199 0.9805,-0.9282 0.0058,0 0.0117,0 0.0166,0 z"
       id="path14" />
    <path
       fill="none"
       stroke="#000"
       stroke-linecap="round"
       stroke-linejoin="round"
       stroke-miterlimit="10"
       stroke-width="2"
       d="m 42.2303,50.8024 c 0.12,-0.06 0.23,-0.12 0.33,-0.19 0.4,-0.27 0.71,-0.61 0.93,-1.01 0.21,-0.37 0.34,-0.78 0.37,-1.2 0.06,-0.54 -0.04,-1.1 -0.3,-1.62 l -0.3,-0.77"
       id="path16" />
    <path
       fill="none"
       stroke="#000"
       stroke-linecap="round"
       stroke-linejoin="round"
       stroke-miterlimit="10"
       stroke-width="2"
       d="m 42.2303,50.8024 c -0.27,0.14 -0.56,0.23 -0.85,0.27 -0.19,0.04 -0.39,0.06 -0.58,0.04 -1.06,-0.02 -2.08,-0.62 -2.6,-1.64 l -0.48,-1.09"
       id="path18" />
    <path
       fill="none"
       stroke="#000"
       stroke-linecap="round"
       stroke-linejoin="round"
       stroke-miterlimit="10"
       stroke-width="2"
       d="m 50.9303,46.5424 c -1.45,-0.97 -3.4,-1.59 -6.03,-1.59 -0.56,0.37 -1.1,0.72 -1.64,1.05 -1.9,1.17 -3.69,2.03 -5.54,2.37 -0.56,0.11 -1.12,0.16 -1.69,0.17 h -0.13 c -2.7351,-0.0272 -5.2076,-1.2272 -7.9897,-3.0133"
       id="path20" />
    <path
       fill="none"
       stroke="#000"
       stroke-linecap="round"
       stroke-linejoin="round"
       stroke-miterlimit="10"
       stroke-width="2"
       d="m 42.6503,50.7624 0.56,0.44 c 2.87,3.06 0.43,6.44 0.43,6.44 0,0 -3.56,-1.91 -2.45,-5.91 l 0.19,-0.64"
       id="path22" />
    <path
       fill="none"
       stroke="#000"
       stroke-linecap="round"
       stroke-linejoin="round"
       stroke-miterlimit="10"
       stroke-width="2"
       d="m 29.463,50.111 c 0.3957,0.3631 0.8557,0.7006 1.3904,0.9935 0.5347,0.2929 1.144,0.5412 1.8384,0.7257 0.2081,0.0553 0.4237,0.1048 0.6474,0.1481 1.8713,0.3624 4.2969,0.2876 7.4412,-0.526"
       id="path24" />
    <path
       fill="none"
       stroke="#000"
       stroke-linecap="round"
       stroke-linejoin="round"
       stroke-miterlimit="10"
       stroke-width="2"
       d="m 43.4703,49.5624 0.02,0.04 0.34,0.59 c 2.28,3.89 6.18,3.07 6.18,3.07 0,0 -0.61,-3.96 -5.1,-4.71 l -1.04,-0.15"
       id="path26" />
    <path
       d="m 25.6602,63.7158 c -3.4844,0 -7.1836,-1.0976 -10.0147,-3.2539 v 0 C 15.1709,60.0996 14.7158,59.7148 14.293,59.3174 14.0059,59.0459 13.7324,58.7705 13.4746,58.4893 10.2344,54.9629 9.0078,50.2939 10.1953,46.001 c 0.6123,-2.2158 2.0586,-4.0635 4.0723,-5.2022 2.0488,-1.1592 4.4297,-1.4463 6.7109,-0.8134 l 0.3096,0.0839 c 2.1894,0.5791 7.8701,2.083 9.2422,11.2442 2.0898,-0.2569 4.1474,0.4951 5.2636,2.0068 1.1954,1.6182 1.0997,3.7012 -0.2626,5.7158 -0.4766,0.7061 -1.1124,1.4073 -1.8897,2.085 -1.9961,1.7393 -4.9053,2.5947 -7.9814,2.5947 z m -8.8018,-4.8457 c 4.5586,3.4737 11.9326,3.8262 15.4687,0.7432 0.6465,-0.5635 1.167,-1.1348 1.5479,-1.6973 0.8711,-1.289 0.9814,-2.499 0.3096,-3.4072 -0.8135,-1.1006 -2.5869,-1.5352 -4.2178,-1.0391 -0.2861,0.0879 -0.5967,0.042 -0.8438,-0.122 C 28.874,53.1826 28.7119,52.915 28.6807,52.6182 27.7568,43.8496 22.8652,42.5557 20.7764,42.0029 l -0.334,-0.0898 c -1.7647,-0.4912 -3.6074,-0.2686 -5.1895,0.626 -1.5488,0.8759 -2.6601,2.2949 -3.1299,3.9951 -1.0019,3.623 0.0538,7.5869 2.8243,10.6015 0.2265,0.2461 0.4648,0.4883 0.7168,0.7256 0.372,0.3496 0.7734,0.6895 1.1943,1.0088 z"
       id="path28" />
    <path
       fill="none"
       stroke="#000"
       stroke-linecap="round"
       stroke-linejoin="round"
       stroke-miterlimit="10"
       stroke-width="2"
       d="m 58.0847,40.0027 -0.4802,-0.8989 c -1.9641,-5.4658 3.7037,-7.2124 3.7037,-7.2124 0,0 3.9546,4.359 -0.4411,8.0562 l -0.7299,0.5859"
       id="path30" />
    <path
       fill="none"
       stroke="#000"
       stroke-linecap="round"
       stroke-linejoin="round"
       stroke-miterlimit="10"
       stroke-width="2"
       d="m 60.275,44.1946 -3.8708,14.9676 c -0.2929,1.1327 -1.4505,1.8146 -2.5832,1.5217 -0.5615,-0.1452 -1.0243,-0.5128 -1.297,-0.9758 -0.2728,-0.4631 -0.3699,-1.0459 -0.2247,-1.6075 L 56.17,43.133"
       id="path32" />
    <polygon
       fill="none"
       stroke="#000"
       stroke-linecap="round"
       stroke-linejoin="round"
       stroke-miterlimit="10"
       stroke-width="2"
       points="60.1372,40.5335 58.0847,40.0027 57.0488,39.7348 56.17,43.133 60.275,44.1946 61.1538,40.7964 "
       id="polygon34" />
  </g>
</g></svg>