<svg xmlns="http://www.w3.org/2000/svg" width="24" height="24" viewBox="0 0 24 24"> <g transform="translate(2.400287441504176 0.0) scale(0.4789893420680233)">
  
  <g
     id="line"
     transform="translate(-15.9584,-10.8511)">
    <path
       fill="none"
       stroke="#000"
       stroke-linecap="round"
       stroke-linejoin="round"
       stroke-width="2"
       d="m 22.0886,27.8861 a 37.8716,37.8716 0 0 1 -0.1192,-4.0088 c 0,-6.0131 5.0109,-12.0262 14.0306,-12.0262 9.0197,0 14.0306,6.0131 14.0306,12.0262 a 37.3283,37.3283 0 0 1 -0.1191,4.0088"
       id="path2" />
    <path
       d="m 41.9129,29.8905 a 2.0044,2.0044 0 1 1 -2.0044,-2.0044 2.01,2.01 0 0 1 2.0044,2.0044"
       id="path4" />
    <path
       d="m 33.8954,29.8905 a 2.0044,2.0044 0 1 1 -2.0044,-2.0044 2.01,2.01 0 0 1 2.0044,2.0044"
       id="path6" />
    <path
       d="m 41.9129,29.8905 a 2.0044,2.0044 0 1 1 -2.0044,-2.0044 2.01,2.01 0 0 1 2.0044,2.0044"
       id="path8" />
    <path
       d="m 33.8954,29.8905 a 2.0044,2.0044 0 1 1 -2.0044,-2.0044 2.01,2.01 0 0 1 2.0044,2.0044"
       id="path10" />
    <path
       fill="none"
       stroke="#000"
       stroke-linecap="round"
       stroke-linejoin="round"
       stroke-width="2"
       d="M 16.9584,59.9561 V 56.95 c 0,-5.0109 5.011,-9.02 10.0219,-9.02 q 9.02,7.5165 18.0394,0 c 5.0109,0 10.0219,4.0088 10.0219,9.02 v 3.0066"
       id="path12" />
    <path
       fill="none"
       stroke="#000"
       stroke-linecap="round"
       stroke-linejoin="round"
       stroke-width="2"
       d="m 32.6992,44.7333 c -1.3329,0.0108 -3.6242,-1.852 -4.4966,-3.071 a 14.784,14.784 0 0 1 -2.4335,-5.8174 l -0.1394,-0.45 8.9093,-2.2974 a 5.6017,5.6017 0 0 1 2.8794,0.0182 l 8.4081,2.2792 H 46.37 a 14.4865,14.4865 0 0 1 -1.8409,5.7962 c -0.877,1.4159 -3.28,3.4562 -4.7422,3.4681 z"
       id="path14" />
    <line
       x1="46.169201"
       x2="49.477402"
       y1="35.164902"
       y2="32.531898"
       fill="none"
       stroke="#000"
       stroke-linecap="round"
       stroke-linejoin="round"
       stroke-width="2"
       id="line16" />
    <line
       x1="25.6297"
       x2="22.3298"
       y1="35.164902"
       y2="32.117001"
       fill="none"
       stroke="#000"
       stroke-linecap="round"
       stroke-linejoin="round"
       stroke-width="2"
       id="line18" />
    <path
       fill="none"
       stroke="#000"
       stroke-linecap="round"
       stroke-linejoin="round"
       stroke-width="2"
       d="m 46.9745,29.2526 a 11.6583,11.6583 0 0 0 -0.9629,-3.998 c -3,-3 -7,-8 -7,-8 -4,3 -7,6 -13,7 0,0 -0.9287,0.873 -1.05,5.0693"
       id="path20" />
  </g>
</g></svg>