<svg xmlns="http://www.w3.org/2000/svg" width="24" height="24" viewBox="0 0 24 24"> <g transform="translate(0.0 2.219653054315673) scale(0.37900681863271424)">
  
  <g
     id="line"
     transform="translate(-4.4883,-10.0833)">
    <path
       fill="none"
       stroke="#000"
       stroke-linecap="round"
       stroke-linejoin="round"
       stroke-miterlimit="10"
       stroke-width="2"
       d="m 20.2,59.5163 c -1.4043,0.72 -3.0074,1.1774 -4.7117,1.1774 -5.5228,0 -10,-4.2873 -10,-9.576"
       id="path2" />
    <line
       x1="54.9748"
       x2="20.141199"
       y1="39.564301"
       y2="59.550098"
       fill="none"
       stroke="#000"
       stroke-linecap="round"
       stroke-linejoin="round"
       stroke-miterlimit="10"
       stroke-width="2"
       id="line4" />
    <path
       fill="none"
       stroke="#000"
       stroke-linecap="round"
       stroke-linejoin="round"
       stroke-miterlimit="10"
       stroke-width="2"
       d="m 13.2332,51.1177 c 0,2.6758 2.8154,5.8041 5.9541,4.331 l 38.9131,-22.2773 0.052,0.0163 c 1.4248,0.4466 2.2684,2.0549 1.927,3.4478 l -1.6391,0.9404"
       id="path6" />
    <path
       fill="none"
       stroke="#000"
       stroke-linecap="round"
       stroke-linejoin="round"
       stroke-miterlimit="10"
       stroke-width="2"
       d="m 5.4883,51.1177 c 0,-2.1387 1.7338,-3.8724 3.8724,-3.8724 2.1386,0 3.8724,1.7338 3.8724,3.8724"
       id="path8" />
    <line
       x1="48.214298"
       x2="61.616001"
       y1="24.931601"
       y2="17.249701"
       fill="none"
       stroke="#000"
       stroke-linecap="round"
       stroke-linejoin="round"
       stroke-miterlimit="10"
       stroke-width="2"
       id="line10" />
    <line
       x1="46.7005"
       x2="66.811699"
       y1="30.384001"
       y2="18.877399"
       fill="none"
       stroke="#000"
       stroke-linecap="round"
       stroke-linejoin="round"
       stroke-miterlimit="10"
       stroke-width="2"
       id="line12" />
    <line
       x1="39.291"
       x2="64.435097"
       y1="25.5016"
       y2="11.0833"
       fill="none"
       stroke="#000"
       stroke-linecap="round"
       stroke-linejoin="round"
       stroke-miterlimit="10"
       stroke-width="2"
       id="line14" />
    <path
       fill="none"
       stroke="#000"
       stroke-linecap="round"
       stroke-linejoin="round"
       stroke-miterlimit="10"
       stroke-width="2"
       d="m 23.322,48.2532 c -2.2017,1.2619 -5.0958,0.3495 -6.4642,-2.0378 -1.3684,-2.3873 -0.6927,-5.3457 1.509,-6.6076 3.9196,-2.2465 6.1133,-5.9581 4.0787,-9.5079 l -5.4891,-9.6712 c 0,0 1.4071,-2.2402 3.4974,-1.8753 0.3791,0.0662 0.7427,-0.0996 0.8868,-0.4555 0.8072,-1.9941 3.9289,-9.1479 7.1264,-3.569 l 12.7285,22.2079 c 0.3032,0.5289 0.1535,1.1843 -0.3343,1.4639 L 23.322,48.2532"
       id="path16" />
    <line
       x1="20.545401"
       x2="31.7803"
       y1="26.752001"
       y2="20.3097"
       fill="none"
       stroke="#000"
       stroke-linecap="round"
       stroke-linejoin="round"
       stroke-miterlimit="10"
       stroke-width="2"
       id="line18" />
    <line
       x1="19.5776"
       x2="21.3815"
       y1="38.825699"
       y2="41.9716"
       fill="none"
       stroke="#000"
       stroke-linecap="round"
       stroke-linejoin="round"
       stroke-miterlimit="10"
       stroke-width="2"
       id="line20" />
    <line
       x1="22.4891"
       x2="24.933399"
       y1="35.639099"
       y2="39.9016"
       fill="none"
       stroke="#000"
       stroke-linecap="round"
       stroke-linejoin="round"
       stroke-miterlimit="10"
       stroke-width="2"
       id="line22" />
    <line
       x1="22.552799"
       x2="26.809401"
       y1="30.2945"
       y2="27.853701"
       fill="none"
       stroke="#000"
       stroke-linecap="round"
       stroke-linejoin="round"
       stroke-miterlimit="10"
       stroke-width="2"
       id="line24" />
  </g>
</g></svg>