<svg xmlns="http://www.w3.org/2000/svg" width="24" height="24" viewBox="0 0 24 24"> <g transform="translate(2.3106743553259985 0.0) scale(0.49688849459866674)">
  
  <g
     id="line"
     transform="translate(-15.9757,-12.682823)">
    <path
       fill="none"
       stroke="#000"
       stroke-linecap="round"
       stroke-linejoin="round"
       stroke-width="2"
       d="M 32.2654,37.5809 A 1.894,1.894 0 0 1 29.8317,37.8617 2.001,2.001 0 0 1 28.9535,35.568"
       id="path2" />
    <polyline
       fill="none"
       stroke="#000"
       stroke-linecap="round"
       stroke-linejoin="round"
       stroke-width="2"
       points="38.862 31.891 34.876 38.625 27.176 33.966 38.293 15.38 45.993 20.039 45.114 21.492"
       id="polyline4" />
    <rect
       x="26.7026"
       y="35.9538"
       width="2"
       height="21"
       transform="matrix(0.409,-0.9124,0.9124,0.409,-26.0187,52.7271)"
       fill="none"
       stroke="#000"
       stroke-linecap="round"
       stroke-linejoin="round"
       stroke-width="2"
       id="rect6" />
    <rect
       x="16.9757"
       y="54.983398"
       width="37"
       height="5"
       fill="none"
       stroke="#000"
       stroke-linecap="round"
       stroke-linejoin="round"
       stroke-width="2"
       id="rect8" />
    <rect
       x="41.477901"
       y="14.1119"
       width="3.2644"
       height="4"
       transform="matrix(0.5176,-0.8555,0.8555,0.5176,7.008,44.6554)"
       fill="none"
       stroke="#000"
       stroke-linecap="round"
       stroke-linejoin="round"
       stroke-width="2"
       id="rect10" />
    <path
       fill="none"
       stroke="#000"
       stroke-linecap="round"
       stroke-linejoin="round"
       stroke-width="2"
       d="m 41.1821,50.7991 a 7.0812,7.0812 0 0 1 12.7936,4.1843"
       id="path12" />
    <line
       x1="37.261398"
       x2="41.182201"
       y1="50.799099"
       y2="50.799099"
       fill="none"
       stroke="#000"
       stroke-linecap="round"
       stroke-linejoin="round"
       stroke-width="2"
       id="line14" />
    <path
       fill="none"
       stroke="#000"
       stroke-linecap="round"
       stroke-linejoin="round"
       stroke-width="2"
       d="m 48.2379,48.03 0.245,-0.75 c 3.2038,-9.7964 -2.1223,-15.52 -5.572,-18.0572"
       id="path16" />
    <path
       fill="none"
       stroke="#000"
       stroke-linecap="round"
       stroke-linejoin="round"
       stroke-width="2"
       d="m 45.114,25.9524 c 4.3016,3.1934 11.1343,10.4529 7.1716,22.572 l -0.4532,1.3847"
       id="path18" />
    <circle
       cx="42.137798"
       cy="26.325001"
       r="3"
       fill="none"
       stroke="#000"
       stroke-linecap="round"
       stroke-linejoin="round"
       stroke-width="2"
       id="circle20" />
  </g>
</g></svg>