<svg xmlns="http://www.w3.org/2000/svg" width="24" height="24" viewBox="0 0 24 24"> <g transform="translate(0.0 3.4912311046096356) scale(0.3511042866190689)">
  
  <g
     id="line"
     transform="translate(-1.8074,-12)">
    <path
       fill="none"
       stroke="#000"
       stroke-linecap="round"
       stroke-linejoin="round"
       stroke-width="2"
       d="M 8.6106,30.6932 C 8.0869,28.7456 7.8074,26.8198 7.8074,25 h -5 c 0,6.0533 2.3385,13.15 6.1613,18.9211"
       id="path2" />
    <path
       fill="none"
       stroke="#000"
       stroke-linecap="round"
       stroke-linejoin="round"
       stroke-width="2"
       d="M 56.8664,29.4674 C 54.0513,19.9468 45.2406,13 34.8074,13 c -12.7025,0 -23,10.2975 -23,23 0,4.7187 1.421,9.1055 3.8584,12.7559"
       id="path4" />
    <path
       fill="none"
       stroke="#000"
       stroke-linecap="round"
       stroke-linejoin="round"
       stroke-width="2"
       d="M 46.1575,26.1927 C 43.407,23.0123 39.3422,21 34.8074,21 c -8.2843,0 -15,6.7157 -15,15 0,2.3463 0.5387,4.5667 1.4991,6.5444"
       id="path6" />
    <path
       fill="none"
       stroke="#000"
       stroke-linecap="round"
       stroke-linejoin="round"
       stroke-width="2"
       d="m 47.4032,43.44 0.39,-0.59 c 1.82,-2.72 2.28,-6.27 1.26,-9.4 0,-0.01 0,-0.02 -0.01,-0.03 -0.24,-0.75 -0.56,-1.46 -0.98,-2.14 -0.13,-0.23 -0.28,-0.46 -0.44,-0.67 -0.06,-0.1 -0.14,-0.2 -0.21,-0.3 l 0.04,-0.03 0.15,-0.12 3.19,-2.45 7.02,9.12 0.92,1.2 10.43,13.57 -3.38,2.6 c -2.9,-3.76 -7.88,-4.97 -12.06,-3.25"
       id="path8" />
    <path
       fill="none"
       stroke="#000"
       stroke-linecap="round"
       stroke-linejoin="round"
       stroke-width="2.1425"
       d="m 49.8432,54.61 c -14.54,9.47 -27.82,2.42 -31.8,-0.17 -0.61,-0.39 -0.72,-1.22 -0.28,-1.77 0.02,-0.04 0.06,-0.08 0.09,-0.11 l 0.47,-0.57 3.11,-3.74 1.68,-2.02 c 0.39,-0.39 0.99,-0.45 1.47,-0.18 0.38,0.21 0.77,0.41 1.14,0.6 8.25,3.99 15.14,0.76 17.41,-0.57 0.43,-0.26 0.97,-0.22 1.36,0.08 0.04,0.03 0.08,0.06 0.12,0.1 l 0.36,0.43 0.01,0.01 3.09,3.71 1.86,2.23 0.08,0.1 c 0.02,0.02 0.03,0.03 0.04,0.05 0.09,0.1 0.16,0.2 0.21,0.32 0.23,0.52 0.08,1.17 -0.42,1.5 z"
       id="path10" />
  </g>
</g></svg>