<svg xmlns="http://www.w3.org/2000/svg" width="24" height="24" viewBox="0 0 24 24"> <g transform="translate(0.0 0.15071748740725432) scale(0.43817362805281046)">
  
  <g
     id="line"
     transform="translate(-10.207491,-8.3584003)">
    <line
       x1="55.1152"
       x2="56.393398"
       y1="21.4191"
       y2="22.7171"
       fill="none"
       stroke="#000"
       stroke-linecap="round"
       stroke-linejoin="round"
       stroke-miterlimit="10"
       stroke-width="2"
       id="line2" />
    <line
       x1="51.005798"
       x2="52.132"
       y1="17.326099"
       y2="18.4697"
       fill="none"
       stroke="#000"
       stroke-linecap="round"
       stroke-linejoin="round"
       stroke-miterlimit="10"
       stroke-width="2"
       id="line4" />
    <line
       x1="52.986801"
       x2="54.5177"
       y1="23.517599"
       y2="25.0872"
       fill="none"
       stroke="#000"
       stroke-linecap="round"
       stroke-linejoin="round"
       stroke-miterlimit="10"
       stroke-width="2"
       id="line6" />
    <line
       x1="49.000198"
       x2="49.904499"
       y1="19.476801"
       y2="20.403999"
       fill="none"
       stroke="#000"
       stroke-linecap="round"
       stroke-linejoin="round"
       stroke-miterlimit="10"
       stroke-width="2"
       id="line8" />
    <line
       x1="62.609001"
       x2="63.980301"
       y1="17.8319"
       y2="16.494499"
       fill="none"
       stroke="#000"
       stroke-linecap="round"
       stroke-linejoin="round"
       stroke-miterlimit="10"
       stroke-width="2"
       id="line10" />
    <line
       x1="55.460499"
       x2="56.831799"
       y1="10.6958"
       y2="9.3584003"
       fill="none"
       stroke="#000"
       stroke-linecap="round"
       stroke-linejoin="round"
       stroke-miterlimit="10"
       stroke-width="2"
       id="line12" />
    <path
       fill="none"
       stroke="#000"
       stroke-linecap="round"
       stroke-linejoin="round"
       stroke-miterlimit="10"
       stroke-width="2"
       d="m 43.9439,35.0722 c 0.504,0.5663 0.9593,1.183 0.9832,1.2502 0.4488,0.9423 0.5862,2.0227 0.3781,3.0953 -0.0108,0.0656 -0.1071,0.4973 -0.161,0.6489 -0.01,0.0298 -0.2472,0.5995 -0.3817,0.8455 -0.0502,0.0895 -0.0994,0.1783 -0.1545,0.2638 -0.6957,1.1809 -1.7624,2.4803 -2.6674,3.8946 -0.9569,1.4955 -0.8246,2.1554 -1.1615,2.9107 -0.4395,-0.367 -0.9375,-0.6771 -1.5081,-0.8813 -2.6,-0.9304 -5.4619,0.4231 -6.3922,3.0231 -0.5809,1.6232 -0.2712,3.3482 0.6759,4.6418 -0.3025,0.2624 -4.4344,3.1784 -5.3895,4.0143 -4.2168,3.6905 -9.84,3.5837 -13.8775,-0.2608 l -0.3291,-0.286 c -3.7426,-4.1322 -3.7091,-9.7563 0.0855,-13.8797 0.8594,-0.934 3.8775,-4.9919 4.1474,-5.2877 1.2696,0.979 2.9864,1.3317 4.6236,0.7915 2.6223,-0.8652 4.0468,-3.6924 3.1815,-6.3149 -0.1898,-0.5755 -0.4874,-1.081 -0.8434,-1.5296 0.7635,-0.3179 1.4199,-0.1692 2.9388,-1.0885 1.4364,-0.8694 2.762,-1.9034 3.9599,-2.5694 0.0869,-0.0529 0.1769,-0.1 0.2676,-0.1478 0.2493,-0.1284 0.8247,-0.3513 0.8548,-0.3606 0.1528,-0.05 0.5868,-0.1356 0.6527,-0.1447 1.0774,-0.1813 2.154,-0.017 3.0848,0.4551 0.1104,0.0424 2.0447,1.6528 2.4301,2.3302 z"
       id="path14" />
    <line
       x1="29.2127"
       x2="25.7589"
       y1="48.9006"
       y2="53.039501"
       fill="none"
       stroke="#000"
       stroke-linecap="round"
       stroke-linejoin="round"
       stroke-miterlimit="10"
       stroke-width="2"
       id="line16" />
    <line
       x1="19.952999"
       x2="24.266199"
       y1="47.210499"
       y2="43.9772"
       fill="none"
       stroke="#000"
       stroke-linecap="round"
       stroke-linejoin="round"
       stroke-miterlimit="10"
       stroke-width="2"
       id="line18" />
    <polygon
       fill="none"
       stroke="#000"
       stroke-linecap="round"
       stroke-linejoin="round"
       stroke-miterlimit="10"
       stroke-width="2"
       points="60.6872,11.3288 61.7321,12.3737 58.9788,16.5412 56.5197,14.0821 "
       id="polygon20" />
    <polyline
       fill="none"
       stroke="#000"
       stroke-linecap="round"
       stroke-linejoin="round"
       stroke-miterlimit="10"
       stroke-width="2"
       points="32.5021,37.7866 54.5546,16.7036 55.6563,17.8332"
       id="polyline22" />
    <path
       fill="none"
       stroke="#000"
       stroke-linecap="round"
       stroke-linejoin="round"
       stroke-miterlimit="10"
       stroke-width="2"
       d="m 13.2067,56.236 3.6146,-3.4557 c 0,0 1.1839,-0.7649 2.4343,0.4856 1.2505,1.2505 0.4891,2.4411 0.4891,2.4411 l -3.3616,3.7022"
       id="path24" />
    <path
       fill="none"
       stroke="#000"
       stroke-linecap="round"
       stroke-linejoin="round"
       stroke-miterlimit="10"
       stroke-width="2"
       d="m 28.083,44.0587 c 0.3876,0.3232 0.7483,0.674 1.0798,1.0485"
       id="path26" />
  </g>
</g></svg>