<svg xmlns="http://www.w3.org/2000/svg" width="24" height="24" viewBox="0 0 24 24"> <g transform="translate(0.0 6.130251534039418) scale(0.3843265484324473)">
  
  <g
     id="line"
     transform="translate(-5,-26.554366)">
    <path
       fill="none"
       stroke="#000"
       stroke-linecap="round"
       stroke-linejoin="round"
       stroke-miterlimit="10"
       stroke-width="2"
       d="M 42.5,30.1 39,27.7 c -0.5,-0.3 -1.2,-0.2 -1.5,0.4 l -1.1,2"
       id="path2" />
    <line
       x1="47.599998"
       x2="27"
       y1="51.700001"
       y2="52.099998"
       fill="none"
       stroke="#000"
       stroke-linecap="round"
       stroke-linejoin="round"
       stroke-width="2"
       id="line4" />
    <path
       fill="none"
       stroke="#000"
       stroke-linecap="round"
       stroke-linejoin="round"
       stroke-width="2"
       d="M 8.1,52.1 C 7.2,51.9 6.4,51.6 6.3,51.1 6.2,50.1 6,47.3 6,46 c 0,-0.5 0.1,-1.1 0.4,-1.5 1.1,-2 4.8,-6.8 14.9,-6.4 l 10.3,-6.9 c 0.5,-0.3 1.1,-0.5 1.6,-0.5 l 19.6,-0.1 c 0.3,0 0.6,0 0.9,0.1 2.2,0.6 11.7,4 10.4,12.6 l 1.1,0.6 c 0.5,0.2 0.9,0.7 1,1.2 0.4,1.4 0.3,2.9 -0.2,4.3"
       id="path6" />
    <polyline
       fill="none"
       stroke="#000"
       stroke-linecap="round"
       stroke-linejoin="round"
       stroke-width="2"
       points="24.9,40.6 55.1,40.4 55.1,35.9"
       id="polyline8" />
    <circle
       cx="17.299999"
       cy="51.099998"
       r="5"
       fill="none"
       stroke="#000"
       stroke-linecap="round"
       stroke-linejoin="round"
       stroke-width="2"
       id="circle10" />
    <circle
       cx="57.099998"
       cy="51.099998"
       r="5"
       fill="none"
       stroke="#000"
       stroke-linecap="round"
       stroke-linejoin="round"
       stroke-width="2"
       id="circle12" />
    <polyline
       fill="none"
       stroke="#000"
       stroke-linecap="round"
       stroke-linejoin="round"
       stroke-width="2"
       points="12.3,43.6 10.5,45.8 6.8,45.7"
       id="polyline14" />
    <line
       x1="24.1"
       x2="50.099998"
       y1="44.099998"
       y2="44.099998"
       fill="none"
       stroke="#000"
       stroke-linecap="round"
       stroke-linejoin="round"
       stroke-miterlimit="10"
       stroke-width="2"
       id="line16" />
  </g>
</g></svg>