<svg xmlns="http://www.w3.org/2000/svg" width="24" height="24" viewBox="0 0 24 24"> <g transform="translate(1.9328539102384532 0.0) scale(0.38719792652929025)">
  
  <g
     id="line-supplement"
     transform="translate(-10,-4.0770998)">
    <path
       d="m 40.3879,15.3248 v -3.4577 h -9.309 v 3.4577 a 11.0451,11.0451 0 0 1 9.309,0 z"
       id="path2" />
    <ellipse
       cx="36"
       cy="40.097198"
       rx="7.7593999"
       ry="24.963699"
       fill="none"
       stroke="#000"
       stroke-linecap="round"
       stroke-linejoin="round"
       stroke-width="2"
       id="ellipse4" />
    <path
       d="m 61.9174,39.4543 c -0.2886,-5.91 -4.5112,-11.12 -10.8721,-14.3475 -3.3388,-6.6532 -8.8362,-11.01 -15.0454,-11.01 -5.4929,0 -10.4255,3.4134 -13.8027,8.8061 a 2.9933,2.9933 0 0 1 2.3652,2.7744 32.7338,32.7338 0 0 1 11.42,-2.0024 31.9385,31.9385 0 0 1 13.5864,2.9051 29.7156,29.7156 0 0 1 2.1289,6.457 68.85,68.85 0 0 0 -15.6792,-1.7 68.8,68.8 0 0 0 -15.71,1.7069 31.0644,31.0644 0 0 1 1.2015,-4.2128 2.9712,2.9712 0 0 1 -1.8589,-0.7119 33.0236,33.0236 0 0 0 -1.4953,5.5154 20.5059,20.5059 0 0 0 -5.3858,2.3941 16.6479,16.6479 0 0 1 6.8648,-7.9228 2.9831,2.9831 0 0 1 -0.9986,-1.6967 c -5.2854,3.3736 -8.6176,8.2582 -8.6176,13.688 0,6.2054 4.3508,11.7 10.997,15.0391 3.3444,6.585 8.8127,10.8886 14.9844,10.8886 6.1792,0 11.6528,-4.3141 14.9966,-10.9127 C 57.3844,51.887 61.6278,46.6656 61.9171,40.74 a 3.211,3.211 0 0 0 0,-1.2861 z M 35.9823,21.6753 A 34.5626,34.5626 0 0 0 23.9687,23.7737 C 26.97,19.0565 31.2519,16.0972 36,16.0972 c 4.7539,0 9.0405,2.9662 12.042,7.6934 A 34.5458,34.5458 0 0 0 35.9823,21.6753 Z M 59.17,35.9609 A 20.8868,20.8868 0 0 0 53.8424,33.6222 33.0231,33.0231 0 0 0 52.3495,28.1187 16.68,16.68 0 0 1 59.17,35.9609 Z M 17.8336,35.8124 a 35.5239,35.5239 0 0 0 0.0083,8.5725 c -3.6716,-1.2474 -5.7871,-2.8065 -5.7871,-4.2877 0,-1.4812 2.1121,-3.0378 5.7786,-4.2848 z M 12.77,44.1657 a 20.5272,20.5272 0 0 0 5.3989,2.3983 32.9072,32.9072 0 0 0 1.5273,5.5651 A 16.6791,16.6791 0 0 1 12.77,44.1657 Z M 36,64.0249 c -4.7158,0 -8.9712,-2.92 -11.9692,-7.5818 A 35.44,35.44 0 0 0 47.98,56.4262 C 44.9814,61.0977 40.7216,64.0249 36,64.0249 Z M 59.93,40.48 c -0.2817,1.1724 -1.8445,2.3707 -4.4077,3.4088 a 2.627,2.627 0 0 1 0.4446,1.9377 17.4038,17.4038 0 0 0 3.2031,-1.593 16.6973,16.6973 0 0 1 -6.855,7.8648 32.2594,32.2594 0 0 0 1.0823,-3.6363 2.6817,2.6817 0 0 1 -1.9346,-0.3966 29.296,29.296 0 0 1 -1.94,5.5712 31.9609,31.9609 0 0 1 -13.54,2.8824 31.9851,31.9851 0 0 1 -13.494,-2.859 29.6313,29.6313 0 0 1 -2.1714,-6.5076 68.8111,68.8111 0 0 0 15.7012,1.705 70.4105,70.4105 0 0 0 14.6623,-1.4734 2.9727,2.9727 0 0 1 -0.68,-1.8719 67.8119,67.8119 0 0 1 -13.9824,1.3453 63.9611,63.9611 0 0 1 -16.0762,-1.84 33.8857,33.8857 0 0 1 -0.011,-9.8359 63.9358,63.9358 0 0 1 16.0872,-1.8433 64.0157,64.0157 0 0 1 16.0488,1.8331 34.51,34.51 0 0 1 0.3545,4.8905 q 0,1.28 -0.0957,2.5235 a 2.8644,2.8644 0 0 1 1.9761,0.2262 c 0.07,-0.9049 0.12,-1.8185 0.12,-2.75 a 36.2223,36.2223 0 0 0 -0.2566,-4.2621 c 3.3748,1.1423 5.4365,2.5474 5.7651,3.9153 0.0044,0.1278 0.0149,0.2545 0.0149,0.383 0,0.1285 -0.0108,0.2548 -0.0155,0.3823 z"
       id="path6" />
  </g>
  <g
     id="line"
     transform="translate(-10,-4.0770998)">
    <circle
       cx="36"
       cy="40.060902"
       r="25"
       fill="none"
       stroke="#000"
       stroke-linecap="round"
       stroke-linejoin="round"
       stroke-width="2"
       id="circle9" />
    <polyline
       fill="none"
       stroke="#000"
       stroke-linecap="round"
       stroke-linejoin="round"
       stroke-width="2"
       points="31.079 15.061 31.079 11.867 40.668 11.867 40.668 15.061"
       id="polyline11" />
    <line
       x1="35.873699"
       x2="35.873699"
       y1="11.8671"
       y2="5.0770998"
       fill="none"
       stroke="#000"
       stroke-linecap="square"
       stroke-linejoin="round"
       stroke-width="2"
       id="line13" />
  </g>
</g></svg>