<svg xmlns="http://www.w3.org/2000/svg" width="24" height="24" viewBox="0 0 24 24"> <g transform="translate(0.0 4.77281282824254) scale(0.44270633836868134)">
  
  <g
     id="line"
     transform="translate(-8.9015745,-20.549986)">
    <path
       fill="none"
       stroke="#000"
       stroke-miterlimit="10"
       stroke-width="2"
       d="m 52.04,41.4402 c 0,0.31 -0.07,0.61 -0.2,0.88 -0.02,0.05 -0.04,0.09 -0.07,0.14 -0.35,0.61 -1.02,1.03 -1.77,1.03 -0.18,0 -0.35,-0.02 -0.51,-0.08 -0.53,-0.13 -0.99,-0.48 -1.25,-0.95 -0.19,-0.3 -0.29,-0.65 -0.29,-1.02 0,-0.55 0.22,-1.06 0.6,-1.42 0.24,-0.27 0.57,-0.46 0.94,-0.55 0.16,-0.05 0.33,-0.07 0.51,-0.07 1.12,0 2.04,0.92 2.04,2.04 z"
       id="path2" />
    <path
       fill="none"
       stroke="#000"
       stroke-miterlimit="10"
       stroke-width="2"
       d="m 38.195,41.4402 c 0,0.31 -0.07,0.61 -0.2,0.88 -0.02,0.05 -0.04,0.09 -0.07,0.14 -0.35,0.61 -1.02,1.03 -1.77,1.03 -0.18,0 -0.35,-0.02 -0.51,-0.08 -0.53,-0.13 -0.99,-0.48 -1.25,-0.95 -0.19,-0.3 -0.29,-0.65 -0.29,-1.02 0,-0.55 0.22,-1.06 0.6,-1.42 0.24,-0.27 0.57,-0.46 0.94,-0.55 0.16,-0.05 0.33,-0.07 0.51,-0.07 1.12,0 2.04,0.92 2.04,2.04 z"
       id="path4" />
    <path
       fill="none"
       stroke="#000"
       stroke-miterlimit="10"
       stroke-width="2"
       d="m 24.445,41.4402 c 0,0.31 -0.07,0.61 -0.2,0.88 -0.02,0.05 -0.04,0.09 -0.07,0.14 -0.35,0.61 -1.02,1.03 -1.77,1.03 -0.18,0 -0.35,-0.02 -0.51,-0.08 -0.53,-0.13 -0.99,-0.48 -1.25,-0.95 -0.19,-0.3 -0.29,-0.65 -0.29,-1.02 0,-0.55 0.22,-1.06 0.6,-1.42 0.24,-0.27 0.57,-0.46 0.94,-0.55 0.16,-0.05 0.33,-0.07 0.51,-0.07 1.12,0 2.04,0.92 2.04,2.04 z"
       id="path6" />
    <path
       fill="none"
       stroke="#000"
       stroke-linecap="round"
       stroke-linejoin="round"
       stroke-miterlimit="10"
       stroke-width="2"
       d="m 61.66,46.07 c -0.3,0.3 -4.65,0.55 -10.69,0.73 -1.62,0.04 -3.36,0.08 -5.17,0.12 -1.18,0.02 -2.4,0.04 -3.64,0.05 -0.42,0 -0.83,0.01 -1.25,0.01 -0.12,0.01 -0.23,0.01 -0.35,0.01 -0.65,0.01 -1.3,0.01 -1.96,0.02 -1.01,0.01 -2.02,0.02 -3.04,0.02 -3.04,0.02 -6.08,0.01 -8.92,-0.02 C 25.49,47 24.37,46.98 23.3,46.97 23.14,46.96 22.99,46.96 22.83,46.96 22.32,46.95 21.82,46.94 21.33,46.93 15.35,46.78 11.01,46.51 10.57,46.07 9.86,45.35 9.8,44.64 9.96,44.09 10.13,43.44 10.57,43 10.57,43 L 20.79,35.85 H 51.44 L 61.66,43 c 0,0 0.29,0.59 0.4,1.28 0.11,0.6 0.08,1.31 -0.4,1.79 z"
       id="path8" />
    <path
       fill="none"
       stroke="#000"
       stroke-linecap="round"
       stroke-linejoin="round"
       stroke-miterlimit="10"
       stroke-width="2"
       d="m 42.16,46.97 c -0.42,0.01 -0.84,0.01 -1.26,0.02 0.01,0 0.01,-0.01 0.01,-0.01 0.42,0 0.83,-0.01 1.25,-0.01 z"
       id="path10" />
    <path
       fill="none"
       stroke="#000"
       stroke-linecap="round"
       stroke-linejoin="round"
       stroke-miterlimit="10"
       stroke-width="2"
       d="m 50.97,46.8 c -1.63,3.04 -7.43,5.3 -14.38,5.39 -0.15,0.01 -0.31,0.01 -0.47,0.01 -0.87,0 -1.73,-0.03 -2.56,-0.1 -0.88,-0.07 -1.73,-0.17 -2.55,-0.31 -4.63,-0.76 -8.24,-2.53 -9.61,-4.75 -0.03,-0.04 -0.05,-0.07 -0.07,-0.11 0.49,0.01 0.99,0.02 1.5,0.03 0.16,0 0.31,0 0.47,0.01 1.07,0.01 2.19,0.03 3.34,0.04 2.84,0.03 5.88,0.04 8.92,0.02 1.02,0 2.03,-0.01 3.04,-0.02 C 39.26,47 39.91,47 40.56,46.99 h 0.34 c 0.42,-0.01 0.84,-0.01 1.26,-0.02 1.24,-0.01 2.46,-0.03 3.64,-0.05 1.81,-0.04 3.55,-0.08 5.17,-0.12 z"
       id="path12" />
    <path
       fill="none"
       stroke="#000"
       stroke-linecap="round"
       stroke-linejoin="round"
       stroke-miterlimit="10"
       stroke-width="2"
       d="m 40.91,46.98 c 0,0 0,0.01 -0.01,0.01 h -0.34 c 0.12,0 0.23,0 0.35,-0.01 z"
       id="path14" />
    <path
       fill="none"
       stroke="#000"
       stroke-linecap="round"
       stroke-linejoin="round"
       stroke-miterlimit="10"
       stroke-width="2"
       d="m 42.16,46.97 c -0.42,0.01 -0.84,0.01 -1.26,0.02 h -0.34 c 0.12,0 0.23,0 0.35,-0.01 0.42,0 0.83,-0.01 1.25,-0.01 z"
       id="path16" />
    <path
       fill="none"
       stroke="#000"
       stroke-linecap="round"
       stroke-linejoin="round"
       stroke-miterlimit="10"
       stroke-width="2"
       d="m 51.4,35.75 v 0.1 H 20.83 v -0.09 c 0.19,-2.67 1.07,-5.16 2.46,-7.28 2.3,-3.5 5.98,-6 10.27,-6.72 0.83,-0.14 1.69,-0.21 2.56,-0.21 0.15,0 0.31,0 0.46,0.01 7.87,0.23 14.25,6.4 14.82,14.19 z"
       id="path18" />
  </g>
</g></svg>