<svg xmlns="http://www.w3.org/2000/svg" width="24" height="24" viewBox="0 0 24 24"> <g transform="translate(0.9057511698113192 0.0) scale(0.4528301886792453)">
  
  <g
     id="line"
     transform="translate(-11.5002,-8)">
    <rect
       x="17"
       y="50"
       width="38"
       height="10"
       fill="none"
       stroke="#000"
       stroke-linecap="round"
       stroke-linejoin="round"
       stroke-miterlimit="10"
       stroke-width="2"
       id="rect2" />
    <polygon
       fill="none"
       stroke="#000"
       stroke-linecap="round"
       stroke-linejoin="round"
       stroke-miterlimit="10"
       stroke-width="2"
       points="22,42.9998 22,32.9998 34.14,32.9998 24.86,42.9998 "
       id="polygon4" />
    <polygon
       fill="none"
       stroke="#000"
       stroke-linecap="round"
       stroke-linejoin="round"
       stroke-miterlimit="10"
       stroke-width="2"
       points="47.14,42.9998 37.86,32.9998 50,32.9998 50,42.9998 "
       id="polygon6" />
    <rect
       x="27"
       y="16"
       width="18"
       height="10"
       fill="none"
       stroke="#000"
       stroke-linecap="round"
       stroke-linejoin="round"
       stroke-miterlimit="10"
       stroke-width="2"
       id="rect8" />
    <polygon
       fill="none"
       stroke="#000"
       stroke-linecap="round"
       stroke-linejoin="round"
       stroke-miterlimit="10"
       stroke-width="2"
       points="36,30.9998 34.14,32.9998 18,32.9998 22,29.9998 24,25.9998 48,25.9998 50,29.9998 54,32.9998 37.86,32.9998 "
       id="polygon10" />
    <polygon
       fill="none"
       stroke="#000"
       stroke-linecap="round"
       stroke-linejoin="round"
       stroke-miterlimit="10"
       stroke-width="2"
       points="16.5,46.9998 18.5,42.9998 24.86,42.9998 23,44.9998 49,44.9998 47.14,42.9998 53.5,42.9998 55.5,46.9998 59.5,49.9998 12.5,49.9998 "
       id="polygon12" />
    <polygon
       fill="none"
       stroke="#000"
       stroke-linecap="round"
       stroke-linejoin="round"
       stroke-miterlimit="10"
       stroke-width="2"
       points="27,13 29,9 43,9 45,13 49,16 23,16 "
       id="polygon14" />
    <polygon
       fill="none"
       stroke="#000"
       stroke-linecap="round"
       stroke-linejoin="round"
       stroke-miterlimit="10"
       stroke-width="2"
       points="30.5,53 34.1247,53 41.5,53 41.5,60 30.5,60 "
       id="polygon16" />
    <polyline
       fill="none"
       stroke="#000"
       stroke-linecap="round"
       stroke-linejoin="round"
       stroke-miterlimit="10"
       stroke-width="2"
       points="34.0625,60 34.0625,53 38.0625,53 38.0625,60"
       id="polyline18" />
    <polygon
       fill="none"
       stroke="#000"
       stroke-linecap="round"
       stroke-linejoin="round"
       stroke-miterlimit="10"
       stroke-width="2"
       points="24.86,42.9998 34.14,32.9998 36,30.9998 37.86,32.9998 47.14,42.9998 49,44.9998 23,44.9998 "
       id="polygon20" />
    <polyline
       fill="none"
       stroke="#000"
       stroke-linecap="round"
       stroke-linejoin="round"
       stroke-miterlimit="10"
       stroke-width="2"
       points="25,57 23,57 23,53"
       id="polyline22" />
    <polyline
       fill="none"
       stroke="#000"
       stroke-linecap="round"
       stroke-linejoin="round"
       stroke-miterlimit="10"
       stroke-width="2"
       points="33,23 31,23 31,19"
       id="polyline24" />
    <polyline
       fill="none"
       stroke="#000"
       stroke-linecap="round"
       stroke-linejoin="round"
       stroke-miterlimit="10"
       stroke-width="2"
       points="41,23 39,23 39,19"
       id="polyline26" />
    <polyline
       fill="none"
       stroke="#000"
       stroke-linecap="round"
       stroke-linejoin="round"
       stroke-miterlimit="10"
       stroke-width="2"
       points="49,57 47,57 47,53"
       id="polyline28" />
    <polyline
       fill="none"
       stroke="#000"
       stroke-linecap="round"
       stroke-linejoin="round"
       stroke-miterlimit="10"
       stroke-width="2"
       points="34,42 32,42 32,40"
       id="polyline30" />
    <polyline
       fill="none"
       stroke="#000"
       stroke-linecap="round"
       stroke-linejoin="round"
       stroke-miterlimit="10"
       stroke-width="2"
       points="40,42 38,42 38,40"
       id="polyline32" />
  </g>
</g></svg>