<svg xmlns="http://www.w3.org/2000/svg" width="24" height="24" viewBox="0 0 24 24"> <g transform="translate(0.0 6.3563867737478565) scale(0.3659574766561063)">
  
  <g
     id="line"
     transform="translate(-3,-26.157)">
    <path
       fill="none"
       stroke="#000"
       stroke-linecap="round"
       stroke-linejoin="round"
       stroke-width="2"
       d="m 60.6527,43.9981 1.4315,2.686 c 0.1314,0.2466 0.2636,0.27 0.6675,0.2749 h 2.7719 a 2.0051,2.0051 0 0 1 2.033,2.3211 l -0.3039,1.7146 H 60.831"
       id="path2" />
    <path
       fill="none"
       stroke="#000"
       stroke-linecap="round"
       stroke-linejoin="round"
       stroke-width="2"
       d="M 6.0521,46.9781 V 41.8892 A 2.2373,2.2373 0 0 1 7.9479,39.6781 L 20.3928,37.62 26.9895,29.522 a 6.419,6.419 0 0 1 4.9769,-2.365 h 11.2382 a 1.1708,1.1708 0 0 1 1.1708,1.1708 v 9.5273 H 65 v 9.1233"
       id="path4" />
    <path
       fill="none"
       stroke="#000"
       stroke-linecap="round"
       stroke-linejoin="round"
       stroke-width="2"
       d="m 10.3994,43.9981 -1.4315,2.686 c -0.1314,0.2466 -0.2636,0.27 -0.6675,0.2749 H 6.0521 A 2.0522,2.0522 0 0 0 4,49.011 V 51 h 4.0629"
       id="path6" />
    <path
       fill="none"
       stroke="#000"
       stroke-linecap="round"
       stroke-linejoin="round"
       stroke-width="2"
       d="m 41.2234,30.8165 v 6.5121 h -3.9211"
       id="path8" />
    <polyline
       fill="none"
       stroke="#000"
       stroke-linecap="round"
       stroke-linejoin="round"
       stroke-width="2"
       points="34.095 30.817 34.095 37.329 24.65 37.329"
       id="polyline10" />
    <circle
       cx="16"
       cy="51"
       r="5"
       fill="none"
       stroke="#000"
       stroke-linecap="round"
       stroke-linejoin="round"
       stroke-width="2"
       id="circle12" />
    <circle
       cx="52.933102"
       cy="51"
       r="5"
       fill="none"
       stroke="#000"
       stroke-linecap="round"
       stroke-linejoin="round"
       stroke-width="2"
       id="circle14" />
    <line
       x1="23.650499"
       x2="44.8615"
       y1="51"
       y2="51"
       fill="none"
       stroke="#000"
       stroke-linecap="round"
       stroke-linejoin="round"
       stroke-width="2"
       id="line16" />
  </g>
</g></svg>