<svg xmlns="http://www.w3.org/2000/svg" width="24" height="24" viewBox="0 0 24 24"> <g transform="translate(1.5843822759528106 0.0) scale(0.4070818951751908)">
  
  <g
     id="line"
     transform="translate(-8.756,-6.1897737)">
    <g
       id="line-2">
      <path
         fill="none"
         stroke="#000"
         stroke-linecap="round"
         stroke-linejoin="round"
         stroke-width="2"
         d="m 55.3981,8.06 a 50.3163,50.3163 0 0 0 -14.02,-0.65 1.9359,1.9359 0 0 0 -1.65,0.95 c -1.03,2.16 -1.61,4.74 -3.75,9.03 -0.96,1.91 -1.92,2.87 -1.92,4.78 a 7.8233,7.8233 0 0 0 0.96,3.82 c 0.26,0.58 0.54,1.23 0.82,1.95 v 0.01"
         id="path2" />
      <line
         x1="36.898102"
         x2="36.898102"
         y1="30.9995"
         y2="30.9895"
         fill="none"
         stroke="#000"
         stroke-linecap="round"
         stroke-linejoin="round"
         stroke-width="2"
         id="line4" />
      <path
         fill="none"
         stroke="#000"
         stroke-linecap="round"
         stroke-linejoin="round"
         stroke-width="2"
         d="m 36.9281,61 a 0.2769,0.2769 0 0 0 -0.09,0.01"
         id="path6" />
      <path
         fill="none"
         stroke="#000"
         stroke-linecap="round"
         stroke-linejoin="round"
         stroke-width="2"
         d="m 47.5581,27.56 a 39.7673,39.7673 0 0 1 -0.58,-4.91 c -0.04,-2.44 9.08,-7.18 11.95,-13.87"
         id="path8" />
      <path
         fill="none"
         stroke="#000"
         stroke-linecap="round"
         stroke-linejoin="round"
         stroke-width="2"
         d="m 49.3281,60.69 a 0.647,0.647 0 0 1 -0.09,0.08 c 0,0.01 0,0.01 -0.01,0.02"
         id="path10" />
      <path
         id="Leg_Line_2"
         fill="none"
         stroke="#000"
         stroke-linecap="round"
         stroke-linejoin="round"
         stroke-width="2"
         d="m 39.8012,19.2991 c -1.311,1.6165 -1.7026,3.5095 -0.9565,4.7826 a 2.78,2.78 0 0 0 0.9565,0.9566" />
    </g>
    <path
       fill="none"
       stroke="#000"
       stroke-miterlimit="10"
       stroke-width="2"
       d="M 47.0307,27.514 H 37.257 a 2.54,2.54 0 0 0 -2.54,2.54 v 21.4916 c -7.1223,0 -12.8961,0 -12.8961,5.8813 0,5.2772 5.7738,5.8813 12.8961,5.8813 h 10.6924 a 4.1611,4.1611 0 0 0 4.1611,-4.1611 V 30.0537 A 2.54,2.54 0 0 0 47.0307,27.514 Z"
       id="path14" />
    <path
       fill="none"
       stroke="#000"
       stroke-linecap="round"
       stroke-linejoin="round"
       stroke-width="2"
       d="M 26.2252,52.1093 A 14.0876,14.0876 0 0 0 32.4214,63.28 h 6.457 c 0,0 -6.6184,-6.3452 -5.8793,-11.7312 a 19.3456,19.3456 0 0 0 -6.7739,0.5605 z"
       id="path16" />
    <polygon
       fill="none"
       stroke="#000"
       stroke-linecap="round"
       stroke-linejoin="round"
       stroke-width="2"
       points="49.57,48.156 39.351,45.084 34.717,43.691 34.717,51.546 49.57,56.039 "
       id="polygon18" />
    <polygon
       fill="none"
       stroke="#000"
       stroke-linecap="round"
       stroke-linejoin="round"
       stroke-width="2"
       points="34.717,43.691 49.57,31.9 49.57,39.574 42.144,45.923 "
       id="polygon20" />
    <path
       fill="none"
       stroke="#000"
       stroke-linecap="round"
       stroke-linejoin="round"
       stroke-width="2"
       d="m 42.1439,27.514 4.8337,6.4443 -4.8337,3.837 -7.0252,-9.1068 A 2.5464,2.5464 0 0 1 37.257,27.514 Z"
       id="path22" />
    <path
       fill="none"
       stroke="#000"
       stroke-linecap="round"
       stroke-linejoin="round"
       stroke-width="2"
       d="m 35.9456,59.83 13.6249,-3.79 v 3.1076 c 0,0 0.3968,4.1611 -5.1477,4.1611 h -5.5444 z"
       id="path24" />
    <polyline
       fill="none"
       stroke="#000"
       stroke-linecap="round"
       stroke-linejoin="round"
       stroke-width="2"
       points="25.886 48.613 23.572 44.756 26.479 44.222 23.571 39.377"
       id="polyline26" />
    <polyline
       fill="none"
       stroke="#000"
       stroke-linecap="round"
       stroke-linejoin="round"
       stroke-width="2"
       points="9.765 62.244 14.143 61.214 13.766 64.146 19.266 62.852"
       id="polyline28" />
    <polyline
       fill="none"
       stroke="#000"
       stroke-linecap="round"
       stroke-linejoin="round"
       stroke-width="2"
       points="19.275 52.668 14.943 51.459 15.199 54.404 9.756 52.885"
       id="polyline30" />
  </g>
</g></svg>