<svg xmlns="http://www.w3.org/2000/svg" width="24" height="24" viewBox="0 0 24 24"> <g transform="translate(0.4227985496570277 0.0) scale(0.4592114955944397)">
  
  <g
     id="line"
     transform="translate(-15.794692,-6.6563)">
    <path
       d="m 41.884,26.8797 c 0,1.1045 -0.8965,2 -2,2 -1.1035,0 -2,-0.8955 -2,-2 0,-1.1035 0.8965,-2 2,-2 1.1035,0 2,0.8965 2,2"
       id="path2" />
    <path
       d="m 33.884,26.8797 c 0,1.1045 -0.8965,2 -2,2 -1.1035,0 -2,-0.8955 -2,-2 0,-1.1035 0.8965,-2 2,-2 1.1035,0 2,0.8965 2,2"
       id="path4" />
    <path
       d="m 35.8839,36.8821 c -1.1519,0 -2.3037,-0.2861 -3.4473,-0.8579 -0.4941,-0.247 -0.6943,-0.8476 -0.4472,-1.3418 0.2465,-0.4936 0.8461,-0.6943 1.3417,-0.4472 1.7178,0.8594 3.3877,0.8594 5.1055,0 0.4946,-0.2471 1.0947,-0.0464 1.3418,0.4472 0.2471,0.4942 0.0469,1.0948 -0.4473,1.3418 -1.1435,0.5718 -2.2954,0.8579 -3.4472,0.8579 z"
       id="path6" />
    <path
       d="m 35.8838,43.4141 c -6.8037,0 -12.3389,-6.8067 -12.3389,-15.1734 0,-0.9248 0.0684,-1.854 0.2031,-2.7607 l 1.9786,0.2939 c -0.1202,0.8101 -0.1817,1.6402 -0.1817,2.4668 0,7.2642 4.6377,13.1734 10.3389,13.1734 5.7012,0 10.3389,-5.9092 10.3389,-13.1734 0,-1.0727 -0.1016,-2.1391 -0.3028,-3.1699 l 1.9629,-0.3828 c 0.2256,1.1567 0.3399,2.352 0.3399,3.5527 0,8.3667 -5.5352,15.1734 -12.3389,15.1734 z"
       id="path8" />
    <path
       d="m 36.1377,19.9072 c -1.8506,0 -3.708,-0.5205 -5.1377,-1.2817 -0.3262,-0.1738 -0.5303,-0.5132 -0.5303,-0.8828 v -4.6822 c 0,-0.2246 0.0752,-0.4428 0.2149,-0.6191 l 4.1172,-5.2226 c 0.1855,-0.2359 0.4677,-0.3755 0.7685,-0.3809 0.0049,0 0.0108,0 0.0166,0 0.294,0 0.5733,0.1294 0.7637,0.3545 l 4.4795,5.3008 c 0.1523,0.1806 0.2363,0.4091 0.2363,0.6455 v 4.604 c 0,0.3178 -0.1514,0.6167 -0.4072,0.8052 -1.3135,0.9672 -2.9151,1.3593 -4.5215,1.3593 z m -3.668,-2.7905 c 1.9942,0.8755 4.7315,1.1475 6.5967,0.085 v -3.6973 l -3.4521,-4.0855 -3.1446,3.9883 z"
       id="path10" />
    <path
       d="m 36.2383,19.9072 c -1.8506,0 -3.707,-0.5205 -5.1367,-1.2817 -0.3262,-0.1738 -0.5303,-0.5132 -0.5303,-0.8828 v -4.6822 c 0,-0.2246 0.0752,-0.4428 0.2148,-0.6191 l 4.1172,-5.2226 c 0.1856,-0.2359 0.4678,-0.3755 0.7686,-0.3809 0.0049,0 0.0107,0 0.0166,0 0.2939,0 0.5732,0.1294 0.7636,0.3545 l 4.4786,5.3008 c 0.1523,0.1806 0.2363,0.4091 0.2363,0.6455 v 4.604 c 0,0.3178 -0.1514,0.6167 -0.4072,0.8052 -1.3135,0.9672 -2.9151,1.3593 -4.5215,1.3593 z m -3.667,-2.7905 c 1.9902,0.8755 4.7285,1.1484 6.5957,0.085 v -3.6973 l -3.4522,-4.0855 -3.1435,3.9883 c 0,0 0,3.7095 0,3.7095 z"
       id="path12" />
    <path
       d="m 47.5186,20.6094 c -0.5489,0 -0.9952,-0.4424 -1,-0.9917 C 46.457,12.312 42.9229,8.7251 35.7158,8.6572 28.5078,8.7251 24.9736,12.312 24.9121,19.6177 c -0.0049,0.5493 -0.4512,0.9917 -1,0.9917 -0.0029,0 -0.0058,0 -0.0088,0 -0.5517,-0.0049 -0.9961,-0.4561 -0.9912,-1.0083 0.0693,-8.2896 4.3838,-12.7539 12.4834,-12.939 0.0361,-0.0039 0.0733,-0.0058 0.1104,-0.0058 h 0.4189 c 0.0371,0 0.0742,0.0019 0.1104,0.0058 8.0996,0.1851 12.414,4.6494 12.4834,12.939 0.0048,0.5522 -0.4395,1.0034 -0.9913,1.0083 -0.0029,0 -0.0058,0 -0.0087,0 z"
       id="path14" />
    <path
       d="m 47.0146,27.1597 c -1.538,5e-4 -3.4628,-1.6187 -5.4746,-3.3111 -0.3984,-0.334 -0.7929,-0.6665 -1.1767,-0.9785 -0.4287,-0.3486 -0.4932,-0.978 -0.1455,-1.4067 0.3486,-0.4282 0.9785,-0.4932 1.4072,-0.145 0.3926,0.3188 0.7959,0.6582 1.2021,1 1.0313,0.8676 2.8096,2.3628 3.75,2.7485 -0.1289,-1.5469 -0.8476,-3.4194 -1.1181,-3.9082 -0.2686,-0.4829 -0.0938,-1.0918 0.3887,-1.3599 0.4814,-0.2671 1.0918,-0.0937 1.3593,0.3892 0.419,0.7534 1.5664,3.6611 1.3662,5.8721 -0.0253,0.2768 -0.165,0.5307 -0.3847,0.7011 -0.3574,0.2764 -0.751,0.3985 -1.1739,0.3985 z m 0.5625,-1.19 h 0.0098 z"
       id="path16" />
    <path
       d="m 50.5762,29.335 c -0.3076,0 -0.6104,-0.1416 -0.8067,-0.4078 -0.3271,-0.4443 -0.2324,-1.0703 0.2129,-1.3979 1.2989,-0.9565 1.9561,-1.9111 1.9531,-2.8379 -0.0039,-1.3208 -1.3359,-2.3267 -1.3486,-2.3364 -0.8808,-0.689 -2.3701,-0.9912 -4.2148,-0.8692 -1.7051,0.1114 -3.3965,0.6275 -4.8926,1.4913 -1.6904,0.9775 -3.6211,1.5063 -5.584,1.5297 -1.9863,-0.0234 -3.917,-0.5522 -5.6084,-1.5297 -1.4941,-0.8643 -3.1855,-1.3799 -4.8916,-1.4913 -1.8467,-0.1211 -3.333,0.1797 -4.1846,0.8477 -0.0976,0.0728 -1.8007,1.3613 -1.2763,2.999 0.1689,0.5259 -0.1211,1.0889 -0.6465,1.2573 -0.5283,0.169 -1.0899,-0.1215 -1.2578,-0.6469 -0.9688,-3.021 1.8545,-5.1172 1.9756,-5.2051 1.5586,-1.2241 3.8691,-1.355 5.5205,-1.2481 2.0107,0.1319 4.0029,0.7388 5.7627,1.7559 1.3935,0.8062 2.9873,1.2422 4.6064,1.2612 1.5957,-0.019 3.1895,-0.455 4.583,-1.2612 1.7608,-1.0171 3.7529,-1.624 5.7627,-1.7559 1.6543,-0.1093 3.9609,0.024 5.5498,1.2696 0.0606,0.0429 2.1377,1.581 2.1445,3.9267 0.004,1.5996 -0.9267,3.0982 -2.7675,4.4536 -0.1787,0.1319 -0.3858,0.1954 -0.5918,0.1954 z"
       id="path18" />
    <path
       d="m 24.8037,26.6372 c -0.5058,0 -0.9394,-0.3818 -0.9932,-0.8955 -0.0585,-0.5488 0.3399,-1.041 0.8897,-1.0991 1.5332,-0.1612 3.6572,-1.1988 6.1416,-2.9995 0.4482,-0.3238 1.0732,-0.2242 1.3965,0.2226 0.3242,0.4473 0.2246,1.0723 -0.2227,1.3965 -2.8066,2.0352 -5.1982,3.1685 -7.1064,3.3696 -0.0352,0.0035 -0.0703,0.0054 -0.1055,0.0054 z"
       id="path20" />
    <path
       d="m 17.6357,41.9199 c -0.4736,0 -0.8837,-0.332 -0.9794,-0.7978 -2.0792,-10.0879 4.2392,-13.8555 6.7285,-14.9258 -0.2539,-1.2749 -0.3145,-3.5967 1.5048,-6.2515 0.3135,-0.4551 0.9346,-0.5727 1.3907,-0.2593 0.4551,0.3121 0.5713,0.9346 0.2597,1.3902 -2.0302,2.9604 -1.0693,5.2236 -1.0273,5.3188 0.1182,0.2671 0.1152,0.5782 -0.0107,0.8413 -0.127,0.2637 -0.3604,0.4634 -0.6426,0.5386 -0.3321,0.0908 -7.9619,2.2949 -6.4043,12.0713 1.4043,-0.1807 3.6338,-0.7129 4.7002,-1.9736 0.3574,-0.4209 0.9863,-0.4727 1.4101,-0.1172 0.4209,0.3574 0.4737,0.9883 0.1172,1.4101 -2.1767,2.5713 -6.8183,2.7481 -7.0146,2.7539 -0.0108,10e-4 -0.0215,10e-4 -0.0323,10e-4 z"
       id="path22" />
    <path
       d="m 16.9209,58.8711 c -0.4844,0 -0.9102,-0.3525 -0.9863,-0.8467 -0.041,-0.2695 -0.9727,-6.6328 2.581,-10.7754 1.9229,-2.2412 4.751,-3.3769 8.4073,-3.3769 0.1972,0 0.3906,0.0586 0.5546,0.1679 3.1534,2.1016 5.6602,3.4092 8.3829,3.4239 2.7236,-0.0137 5.2304,-1.3213 8.3828,-3.4239 0.164,-0.1093 0.3574,-0.1679 0.5547,-0.1679 1.2753,0 2.4638,0.1406 3.5332,0.4179 0.5341,0.1387 0.8554,0.6836 0.7168,1.2188 -0.1387,0.5342 -0.6846,0.8584 -1.2188,0.7168 -0.8242,-0.2129 -1.7422,-0.3311 -2.7344,-0.3506 -3.3086,2.1846 -6.0254,3.5449 -9.1259,3.5879 -0.0215,0.001 -0.043,0.001 -0.0645,0.001 -0.0078,0 -0.0137,0 -0.0205,0 h -0.0459 c -0.0156,-0.001 -0.0274,-0.001 -0.042,0 -0.0146,0 -0.0293,0 -0.0439,-0.001 -3.0987,-0.043 -5.8165,-1.4033 -9.126,-3.5879 -2.8965,0.0566 -5.1104,0.9541 -6.586,2.6689 -2.956,3.4366 -2.1377,9.1202 -2.1289,9.1778 0.083,0.5449 -0.292,1.0547 -0.8379,1.1387 -0.0507,0.0078 -0.1015,0.0107 -0.1523,0.0107 z"
       id="path24" />
    <path
       d="m 47.5,45.0698 v 6.6 c -1.57,1.72 -2.79,3.76 -2.56,5.84 -0.15,0.04 -0.3,0.04 -0.45,0 -0.45,-0.11 -0.77,-0.51 -0.77,-0.97 v -8.3 l -7.08,10.21 c -0.19,0.27 -0.5,0.43 -0.83,0.43 -0.33,0 -0.64,-0.16 -0.82,-0.44 l -7.07,-10.33 v 9.81 c 0,0.55 -0.44,1 -1,1 h -1.78 c -0.55,0 -1,-0.45 -1,-1 v -12.87 c 0,-0.55 0.45,-1 1,-1 0.36,0 0.67,0.18 0.85,0.46 0.11,-0.28 0.34,-0.5 0.64,-0.59 0.41,-0.13 0.87,0.03 1.12,0.39 l 8.07,11.81 8.08,-11.64 c 0.25,-0.36 0.7,-0.52 1.12,-0.39 0.26,0.09 0.48,0.27 0.59,0.51 0.17,-0.3101 0.5,-0.53 0.89,-0.53 0.55,0 1,0.45 1,1 z"
       id="path26" />
    <path
       d="m 39.7021,53.2217 h -7.7187 c -0.5527,0 -1,-0.4473 -1,-1 0,-0.5528 0.4473,-1 1,-1 h 7.7187 c 0.5528,0 1,0.4472 1,1 0,0.5527 -0.4472,1 -1,1 z"
       id="path28" />
    <path
       d="m 55.8301,50.8848 c -0.2881,0 -0.5733,-0.1231 -0.7705,-0.3623 l -3.0283,-3.6543 c -0.17,-0.2041 -0.251,-0.4668 -0.2266,-0.7315 0.0254,-0.2637 0.1543,-0.5068 0.3584,-0.6758 l 1.5996,-1.3261 -6.0029,-2.8369 c -0.4991,-0.2364 -0.7119,-0.8321 -0.4766,-1.3321 0.2363,-0.498 0.8291,-0.7138 1.332,-0.4765 l 6.958,3.289 c 1.4024,-0.7881 5.7569,-3.2871 7.5479,-4.9219 0.2021,-0.1845 0.4707,-0.2744 0.7432,-0.2597 0.2724,0.0195 0.5263,0.1494 0.7002,0.3603 l 1.4218,1.7159 c 0.1729,0.208 0.2539,0.4775 0.2246,0.746 -0.0293,0.2686 -0.166,0.5147 -0.3798,0.6807 -2.1045,1.6387 -6.1407,6.7383 -6.3936,7.0596 -0.0381,0.0498 -0.082,0.0976 -0.1309,0.1416 v 0 l -9e-4,10e-4 c -0.0108,0.0097 -0.0215,0.0185 -0.0332,0.0283 l -2.8057,2.3242 c -0.1865,0.1553 -0.4121,0.2305 -0.6367,0.2305 z m -1.6211,-4.5225 1.7519,2.1143 1.2696,-1.0518 -1.752,-2.1143 z m 2.9365,-2.1748 1.4805,1.7861 c 1.1758,-1.4482 3.4511,-4.1728 5.1943,-5.7812 L 63.666,40.0059 c -1.915,1.4961 -4.9306,3.2744 -6.5205,4.1816 z"
       id="path30" />
    <path
       d="m 53.29,47.0998 c -0.06,0.03 -3.34,1.91 -5.79,4.5699 -1.57,1.72 -2.79,3.76 -2.56,5.84 0,0.07 0.01,0.15 0.02,0.22 0.09,0.55 -0.28,1.06 -0.83,1.15 -0.05,0.01 -0.1,0.01 -0.16,0.01 -0.48,0 -0.9,-0.35 -0.98,-0.84 -0.24,-1.52 0.08,-3 0.73,-4.36 0.86,-1.83 2.3101,-3.47 3.78,-4.81 2.28,-2.08 4.61,-3.41 4.81,-3.52 0.48,-0.27 1.09,-0.1 1.36,0.38 0.27,0.4801 0.1,1.0901 -0.38,1.3601 z"
       id="path32" />
    <path
       d="m 49.1816,58.9189 c -0.5048,0 -0.9384,-0.3808 -0.9931,-0.8935 -0.374,-3.4951 5.8174,-8.0742 7.0625,-8.9561 0.4511,-0.3203 1.0752,-0.2148 1.3935,0.2373 0.3194,0.4502 0.2139,1.0743 -0.2373,1.3936 -2.6982,1.915 -6.415,5.3867 -6.2304,7.1123 0.0586,0.5498 -0.3389,1.042 -0.8877,1.1006 -0.0362,0.0039 -0.0723,0.0058 -0.1075,0.0058 z"
       id="path34" />
    <path
       d="m 54.8984,58.8711 c -0.0507,0 -0.1015,-0.0029 -0.1523,-0.0107 -0.5459,-0.084 -0.9209,-0.5938 -0.8379,-1.1387 0,-0.0049 0.0723,-0.4854 0.1006,-1.2393 l 0.0088,-0.2998 c 0.0068,-0.2988 0.0049,-0.626 -0.0078,-0.9775 l 0.0117,-0.6953 c 0.0107,-0.5528 0.4707,-0.9571 1.0195,-0.9805 0.5528,0.0107 0.9912,0.4678 0.9805,1.0195 l -0.0127,0.6387 c 0.0137,0.3379 0.0156,0.7041 0.0088,1.0342 l -0.0108,0.3359 c -0.0332,0.8789 -0.1181,1.4434 -0.122,1.4668 -0.0762,0.4942 -0.502,0.8467 -0.9864,0.8467 z"
       id="path36" />
  </g>
</g></svg>