<svg xmlns="http://www.w3.org/2000/svg" width="24" height="24" viewBox="0 0 24 24"> <g transform="translate(1.6540737355102948 0.0) scale(0.3979202103326648)">
  
  <g
     id="line"
     transform="translate(-10,-5.8434)">
    <path
       fill="none"
       stroke="#000"
       stroke-linecap="round"
       stroke-miterlimit="10"
       stroke-width="2"
       d="m 42.84,14.51 a 17.71,17.71 0 0 1 1.31,4.28 19.0845,19.0845 0 0 1 0.28,3.22 13.7547,13.7547 0 0 1 -0.06,1.44"
       id="path2" />
    <path
       fill="none"
       stroke="#000"
       stroke-linecap="round"
       stroke-miterlimit="10"
       stroke-width="2"
       d="M 38.59,11.64 A 2.339,2.339 0 0 1 40.3,11.42"
       id="path4" />
    <line
       x1="11"
       x2="22.9464"
       y1="65.156601"
       y2="43.355598"
       fill="none"
       stroke="#000"
       stroke-linecap="round"
       stroke-miterlimit="10"
       stroke-width="2"
       id="line6" />
    <polyline
       fill="none"
       stroke="#000"
       stroke-linecap="round"
       stroke-miterlimit="10"
       stroke-width="2"
       points="22.008 52.543 21.883 52.764 15.046 65.157"
       id="polyline8" />
    <line
       x1="32.097198"
       x2="42.7831"
       y1="26.533701"
       y2="6.8434"
       fill="none"
       stroke="#000"
       stroke-linecap="round"
       stroke-miterlimit="10"
       stroke-width="2"
       id="line10" />
    <line
       x1="41.1096"
       x2="47.0382"
       y1="17.6838"
       y2="6.8434"
       fill="none"
       stroke="#000"
       stroke-linecap="round"
       stroke-miterlimit="10"
       stroke-width="2"
       id="line12" />
    <path
       fill="none"
       stroke="#000"
       stroke-linecap="round"
       stroke-linejoin="round"
       stroke-width="2"
       d="m 26.0411,47.74 a 18.9883,18.9883 0 0 0 0.2095,-2.8044 c 0,-0.5319 -0.0241,-1.0557 -0.0725,-1.58 -0.0081,-0.1934 -0.0322,-0.3869 -0.0564,-0.58 a 21.6766,21.6766 0 0 0 -0.8381,-3.4975 c -0.0645,-0.2176 -0.129,-0.4271 -0.1854,-0.6124 a 10.7127,10.7127 0 0 0 -0.6286,-1.5473 4.6589,4.6589 0 0 1 -0.3143,-0.7978 3.8271,3.8271 0 0 1 -0.1208,-1.0557 4.0551,4.0551 0 0 1 3.0055,-3.812 3.96,3.96 0 0 1 2.2161,0.0564 c 0.0081,0 0.0242,0.008 0.0323,0.008 a 4.18,4.18 0 0 1 1.2813,0.685 l 0.0081,0.0081 a 7.3116,7.3116 0 0 1 1.0073,1.1927 c 0.25,0.3223 0.5,0.6528 0.7173,0.9912 a 18.1178,18.1178 0 0 1 2.2725,4.5774 16.74,16.74 0 0 1 0.6286,2.4257 c 0.0242,0.0967 0.04,0.2015 0.0564,0.2982 a 18.0676,18.0676 0 0 1 0.2418,4.0293 c -0.0242,0.5077 -0.0645,1.0154 -0.137,1.5231 a 18.6081,18.6081 0 0 1 -0.7413,3.2822"
       id="path14" />
    <path
       fill="none"
       stroke="#000"
       stroke-linecap="round"
       stroke-linejoin="round"
       stroke-width="2"
       d="m 34.39,60.0126 a 11.7572,11.7572 0 0 1 -2.4336,-0.8054 c -0.008,0 -0.0161,-0.008 -0.0241,-0.008 L 31.8355,59.1508 A 10.67,10.67 0 0 1 26.0411,47.74"
       id="path16" />
    <path
       fill="none"
       stroke="#000"
       stroke-linecap="round"
       stroke-linejoin="round"
       stroke-width="2"
       d="m 45.7609,25.4652 a 8.0305,8.0305 0 0 1 1.2733,-1.8213 7.8469,7.8469 0 0 1 1.6762,-1.37 0.0078,0.0078 0 0 1 0.008,-0.008 8.0514,8.0514 0 0 1 12.2816,6.858 10.3971,10.3971 0 0 1 -1.5634,4.65 c -1.8777,2.603 -2.7561,4.5935 -2.7239,7.8089 V 41.744 A 18.5274,18.5274 0 0 1 47.026,58.0353"
       id="path18" />
    <path
       fill="none"
       stroke="#000"
       stroke-linecap="round"
       stroke-linejoin="round"
       stroke-width="2"
       d="m 38.1776,45.9748 a 0.0484,0.0484 0 0 1 -0.0081,-0.0323 18.0661,18.0661 0 0 1 -1.2007,-5.5525 8.6088,8.6088 0 0 1 0.5,-3.2073 c 0.0887,-0.2821 0.1773,-0.5722 0.2579,-0.8623 v -0.0081 c 0.0081,-0.04 0.0242,-0.0725 0.0322,-0.1128 a 18.7894,18.7894 0 0 0 0.5,-2.6352 l 0.0242,-0.1693 a 18.093,18.093 0 0 0 0.1047,-1.9905 c 0,-0.1773 -0.008,-0.3868 -0.0161,-0.6124 a 7.0416,7.0416 0 0 0 -0.822,-2.9657 4.39,4.39 0 0 1 -0.62,-1.8615 3.7031,3.7031 0 0 1 1.12,-2.7 4.7814,4.7814 0 0 1 3.9246,-1.2088 3.8332,3.8332 0 0 1 2.4015,1.3941 l 0.008,0.0081 c 0.1532,0.1612 0.2821,0.33 0.4272,0.5157 a 5.7961,5.7961 0 0 1 0.3626,0.5077 c 0.0886,0.129 0.1773,0.266 0.2579,0.403 0.1128,0.1853 0.2256,0.3787 0.33,0.58 a 30.3734,30.3734 0 0 1 2.9575,12.04 18.4017,18.4017 0 0 1 -2.8286,9.84 v 0.0081"
       id="path20" />
    <path
       fill="none"
       stroke="#000"
       stroke-linecap="round"
       stroke-miterlimit="10"
       stroke-width="2"
       d="m 36,33.2333 a 18.6587,18.6587 0 0 1 1.76,2.9621 v 0.0081 c -0.008,0.04 -0.0241,0.0725 -0.0322,0.1128 -0.0806,0.29 -0.1692,0.58 -0.2579,0.8623 v 0.008 c -0.0161,0.0564 -0.04,0.1209 -0.0644,0.1934"
       id="path22" />
    <path
       fill="none"
       stroke="#000"
       stroke-linecap="round"
       stroke-miterlimit="10"
       stroke-width="2"
       d="M 35.2055,41.3933 A 16.74,16.74 0 0 0 34.5769,38.9676 18.1194,18.1194 0 0 0 32.3044,34.39 C 32.0868,34.0516 31.837,33.7212 31.5871,33.3988 A 7.3116,7.3116 0 0 0 30.58,32.2063 l -0.0081,-0.008 a 4.1762,4.1762 0 0 0 -1.2813,-0.685"
       id="path24" />
  </g>
</g></svg>