<svg xmlns="http://www.w3.org/2000/svg" width="24" height="24" viewBox="0 0 24 24"> <g transform="translate(0.0 0.9207654943461687) scale(0.4535976073633407)">
  
  <g
     id="line"
     transform="translate(-7.7422469,-9.6494999)">
    <path
       fill="none"
       stroke="#000"
       stroke-linecap="round"
       stroke-miterlimit="10"
       stroke-width="2"
       d="m 29.6654,17.6794 a 2.7923,2.7923 0 0 0 0.9,-2.2 3,3 0 0 0 -6,0"
       id="path2" />
    <path
       fill="none"
       stroke="#000"
       stroke-linecap="round"
       stroke-linejoin="round"
       stroke-width="2"
       d="m 38.0514,24.04 6.3869,7.15 a 3.1057,3.1057 0 0 1 0.3813,3.1458 L 40.9112,41.39 a 12.4122,12.4122 0 0 0 -1.0486,3.5271 l -0.8579,10.486 a 1.6146,1.6146 0 0 0 1.43,1.9065 2.5371,2.5371 0 0 0 2.0972,-1.8112 l 1.8112,-7.7215 a 13.9406,13.9406 0 0 1 1.5252,-3.4317 l 2.5739,-3.5271 A 17.6954,17.6954 0 0 1 51.016,38.0536 L 53.78,35.7654 A 4.831,4.831 0 0 0 55.21,32.62 5.9587,5.9587 0 0 0 53.9707,29.2836 l -7.34,-8.1028"
       id="path4" />
    <path
       fill="none"
       stroke="#000"
       stroke-linecap="round"
       stroke-linejoin="round"
       stroke-width="2"
       d="m 55.21,33.5729 0.7626,8.5794 a 25.7345,25.7345 0 0 0 0.7626,3.7178 L 59.5,53.6869 c 0.3813,0.9533 0,1.8112 -0.7626,1.8112 a 3.5213,3.5213 0 0 1 -2.3832,-1.62 L 52.3505,46.6332 A 15.5126,15.5126 0 0 1 51.1112,43.1061 L 50.4439,39.293"
       id="path6" />
    <path
       fill="none"
       stroke="#000"
       stroke-linecap="round"
       stroke-linejoin="round"
       stroke-width="2"
       d="m 46.6308,21.18 c -1.9065,-1.9066 -4.099,-2.4785 -5.72,-1.9066 A 41.9524,41.9524 0 0 1 31.3785,21.18 15.2137,15.2137 0 0 1 23.7523,18.32"
       id="path8" />
    <path
       fill="none"
       stroke="#000"
       stroke-linecap="round"
       stroke-linejoin="round"
       stroke-width="2"
       d="m 24.0383,27.0907 -3.7177,4.1943 a 3.8666,3.8666 0 0 0 -0.6673,3.2412 l 2.5738,7.8168 a 12.0668,12.0668 0 0 1 0.4766,3.7177 l -0.4766,9.5328 A 1.9587,1.9587 0 0 1 20.5112,57.5 1.8844,1.8844 0 0 1 18.7953,55.5935 L 18.2234,47.014 a 11.977,11.977 0 0 0 -0.9533,-3.6224 l -1.1439,-2.3832 a 11.68,11.68 0 0 0 -2.2879,-2.9551 l -2.7645,-2.2879 a 4.831,4.831 0 0 1 -1.43,-3.1458 5.9587,5.9587 0 0 1 1.2393,-3.3364 l 7.34,-8.1028"
       id="path10" />
    <path
       fill="none"
       stroke="#000"
       stroke-linecap="round"
       stroke-linejoin="round"
       stroke-width="2"
       d="m 10.4065,35.4794 v 7.6262 a 25.832,25.832 0 0 1 -0.3813,3.8131 L 8.786,53.5916 c -0.1907,1.0486 0.286,1.9065 1.0486,1.9065 a 2.5458,2.5458 0 0 0 2.0018,-1.8112 l 1.8113,-5.91 c 0.2859,-1.0486 0.6673,-2.6691 0.8579,-3.7177 l 0.6673,-3.8131"
       id="path12" />
    <path
       fill="none"
       stroke="#000"
       stroke-linecap="round"
       stroke-linejoin="round"
       stroke-width="2"
       d="M 20.9879,19.0832 A 7.7543,7.7543 0 0 0 18.2234,21.18"
       id="path14" />
    <path
       fill="none"
       stroke="#000"
       stroke-linecap="round"
       stroke-miterlimit="10"
       stroke-width="2"
       d="m 22.8944,22.1336 c 0,0 4.671,3.8131 6.5776,3.8131 0.9532,0 2.86,0 3.813,-4.7663"
       id="path16" />
    <circle
       cx="37.098099"
       cy="13.6495"
       r="3"
       fill="none"
       stroke="#000"
       stroke-miterlimit="10"
       stroke-width="2"
       id="circle18" />
  </g>
</g></svg>