<svg xmlns="http://www.w3.org/2000/svg" width="24" height="24" viewBox="0 0 24 24"> <g transform="scale(0.41379310344827586)">
  
  <g
     id="line"
     transform="translate(-7,-7)">
    <g
       id="line-2">
      <circle
         cx="36"
         cy="36"
         r="28"
         fill="none"
         stroke="#000"
         stroke-linejoin="round"
         stroke-width="2"
         id="circle2" />
    </g>
    <path
       fill="none"
       stroke="#000"
       stroke-linejoin="round"
       stroke-width="2"
       d="m 36,21.0122 c -6.0654,0 -11,4.9346 -11,11 v 8 c 0,6.0654 4.9346,11 11,11 6.0654,0 11,-4.9346 11,-11 v -8 c 0,-6.0654 -4.9346,-11 -11,-11 z m 9,19 c 0,4.9624 -4.0371,9 -9,9 -4.9629,0 -9,-4.0376 -9,-9 v -8 c 0,-4.9624 4.0371,-9 9,-9 4.9629,0 9,4.0376 9,9 z"
       id="path5" />
  </g>
</g></svg>