<svg xmlns="http://www.w3.org/2000/svg" width="24" height="24" viewBox="0 0 24 24"> <g transform="translate(0.0 3.092107636363636) scale(0.36363636363636365)">
  
  <g
     id="line"
     transform="translate(-3,-15.0066)">
    <path
       fill="none"
       stroke="#000"
       stroke-linecap="round"
       stroke-linejoin="round"
       stroke-miterlimit="10"
       stroke-width="2"
       d="M 59.4442,55.4591 C 64.3882,53.8362 68,48.7016 68,42.6183 68,35.5393 63.1088,29.7447 56.9191,29.2742 56.4456,29.2382 56.0615,28.9068 55.9712,28.4429 54.5885,21.3424 48.2098,16.0066 40.6684,16.0066 c -4.9012,0 -9.2671,2.2189 -12.1023,5.7487 -0.277,0.3449 -0.742,0.503 -1.151,0.3315 -1.091,-0.4575 -2.2432,-0.6789 -3.5324,-0.6789 -4.8718,0 -8.8707,3.718 -9.2859,8.4573 -0.0396,0.4525 -0.4062,0.8186 -0.8602,0.8673 C 8.233,31.322 4,36.741 4,43.3371 4,50.327 8.8475,55.9933 14.8272,55.9933 h 36.2187"
       id="path2" />
    <path
       fill="none"
       stroke="#000"
       stroke-linecap="round"
       stroke-linejoin="round"
       stroke-width="2"
       d="m 31.686,32.062 c -1.2083,0.9992 -2.7458,1.5119 -4.312,1.438 -1.5664,0.0745 -3.1043,-0.4379 -4.313,-1.437"
       id="path4" />
    <path
       fill="none"
       stroke="#000"
       stroke-linecap="round"
       stroke-linejoin="round"
       stroke-width="2"
       d="m 48.939,32.062 c -1.2083,0.9992 -2.7458,1.5119 -4.312,1.438 -1.5664,0.0745 -3.1043,-0.4379 -4.313,-1.437"
       id="path6" />
    <path
       fill="none"
       stroke="#000"
       stroke-linecap="round"
       stroke-linejoin="round"
       stroke-miterlimit="10"
       stroke-width="2"
       d="m 39.6114,45.3333 c 1.6569,0 3,-1.1379 3,-2.5417 0,-1.0528 -0.7555,-1.9561 -1.8323,-2.3419 C 40.4202,40.3211 40.0256,40.25 39.6114,40.25"
       id="path8" />
    <path
       fill="none"
       stroke="#000"
       stroke-linecap="round"
       stroke-linejoin="round"
       stroke-miterlimit="10"
       stroke-width="2"
       d="m 39.1843,50.4062 c 0.9401,0 2.0159,-0.5708 2.3309,-1.472 0.5041,-1.4419 -0.3552,-3.0541 -1.9192,-3.6009"
       id="path10" />
    <path
       fill="none"
       stroke="#000"
       stroke-linecap="round"
       stroke-linejoin="round"
       stroke-miterlimit="10"
       stroke-width="2"
       d="m 62.3636,45.5589 c 2.1545,-3.308 2.0114,-7.9339 -1.9915,-9.7984 -1.7893,-0.8334 -3.8681,-0.6097 -4.9454,1.0444 -0.5386,0.827 -0.3048,1.9341 0.5222,2.4727"
       id="path12" />
    <path
       fill="none"
       stroke="#000"
       stroke-linecap="round"
       stroke-linejoin="round"
       stroke-miterlimit="10"
       stroke-width="2"
       d="m 46.0899,46.5506 c 4.7602,2.7667 12.0053,5.3518 16.2737,-0.9917"
       id="path14" />
    <path
       fill="none"
       stroke="#000"
       stroke-linecap="round"
       stroke-linejoin="round"
       stroke-miterlimit="10"
       stroke-width="2"
       d="m 55.955,59.826 c -0.2166,1.9335 -1.9589,3.369 -3.8924,3.1524 -1.6258,-0.1821 -2.8687,-1.4434 -3.0943,-2.9898"
       id="path16" />
    <path
       fill="none"
       stroke="#000"
       stroke-linecap="round"
       stroke-linejoin="round"
       stroke-miterlimit="10"
       stroke-width="2"
       d="m 46.0899,46.5506 c 0,0 10.7036,5.7177 9.8651,13.2754"
       id="path18" />
  </g>
</g></svg>