<svg xmlns="http://www.w3.org/2000/svg" width="24" height="24" viewBox="0 0 24 24"> <g transform="scale(0.3870967741935484)">
  
  <g
     id="line"
     transform="translate(-5,-5)">
    <circle
       cx="36"
       cy="36"
       r="30"
       fill="none"
       stroke="#000"
       stroke-linecap="round"
       stroke-linejoin="round"
       stroke-width="2"
       id="circle2" />
    <path
       fill="none"
       stroke="#000"
       stroke-linecap="round"
       stroke-linejoin="round"
       stroke-width="2"
       d="m 36.29,27.28 a 6.789,6.751 0 0 1 2.35,-8.026 6.789,6.751 0 0 1 8.398,0.3999 6.789,6.751 0 0 1 1.569,8.212 6.789,6.751 0 0 1 -7.666,3.433"
       paint-order="normal"
       id="path4" />
    <path
       fill="none"
       stroke="#000"
       stroke-linecap="round"
       stroke-linejoin="round"
       stroke-width="2"
       d="m 40.75,31.64 a 11.31,11.25 0 0 1 9.863,3.175 11.31,11.25 0 0 1 3.123,9.831"
       paint-order="normal"
       id="path6" />
    <path
       fill="none"
       stroke="#000"
       stroke-linecap="round"
       stroke-linejoin="round"
       stroke-width="2"
       d="M 45.74,53.55 A 11.31,11.25 0 0 1 34.59,50.706 11.31,11.25 0 0 1 31.716,39.616"
       paint-order="normal"
       id="path8" />
    <path
       fill="none"
       stroke="#000"
       stroke-linecap="round"
       stroke-linejoin="round"
       stroke-miterlimit="10"
       stroke-width="2"
       d="m 26.5,18.09 v 0.04107 m 0,16.13 v 19.72"
       id="path10" />
    <path
       fill="none"
       stroke="#000"
       stroke-linecap="round"
       stroke-linejoin="round"
       stroke-width="2"
       d="M 55.66,51.44 A 24.99,24.99 0 0 0 20.6,16.31 Z"
       id="path12" />
    <path
       fill="none"
       stroke="#000"
       stroke-linecap="round"
       stroke-linejoin="round"
       stroke-width="2"
       d="m 16.99,19.77 a 24.99,24.99 0 0 0 35.2,35.27 z"
       id="path14" />
  </g>
</g></svg>