<svg xmlns="http://www.w3.org/2000/svg" width="24" height="24" viewBox="0 0 24 24"> <g transform="translate(0.7554348368591697 0.0) scale(0.3972970096596312)">
  
  <g
     id="line"
     transform="translate(-7.2931995,-5.1355)">
    <path
       fill="none"
       stroke="#000"
       stroke-linecap="round"
       stroke-linejoin="round"
       stroke-miterlimit="10"
       stroke-width="2"
       d="m 57.855,39.5861 c 5.9803,5.018 6.7603,13.9339 1.7423,19.9141 -5.018,5.9802 -13.9339,6.7603 -19.9141,1.7423"
       id="path2" />
    <line
       x1="57.280102"
       x2="49.3839"
       y1="39.103699"
       y2="32.478001"
       fill="none"
       stroke="#000"
       stroke-linecap="round"
       stroke-linejoin="round"
       stroke-miterlimit="10"
       stroke-width="2"
       id="line4" />
    <path
       fill="none"
       stroke="#000"
       stroke-linecap="round"
       stroke-linejoin="round"
       stroke-miterlimit="10"
       stroke-width="2"
       d="m 45.3302,36.9171 c -1.2261,-1.1197 -1.3124,-3.0213 -0.1927,-4.2474 1.1197,-1.2261 3.0213,-1.3124 4.2474,-0.1927"
       id="path6" />
    <path
       fill="none"
       stroke="#000"
       stroke-linecap="round"
       stroke-linejoin="round"
       stroke-miterlimit="10"
       stroke-width="2"
       d="m 41.3136,41.3926 c -1.2261,-1.1197 -1.3124,-3.0213 -0.1927,-4.2474 1.1197,-1.2261 3.0213,-1.3124 4.2474,-0.1927"
       id="path8" />
    <path
       fill="none"
       stroke="#000"
       stroke-linecap="round"
       stroke-linejoin="round"
       stroke-miterlimit="10"
       stroke-width="2"
       d="m 41.2277,41.316 c -1.1823,-1.1659 -1.1956,-3.0694 -0.0297,-4.2516 1.1658,-1.1823 3.0694,-1.1956 4.2516,-0.0297"
       id="path10" />
    <path
       fill="none"
       stroke="#000"
       stroke-linecap="round"
       stroke-linejoin="round"
       stroke-miterlimit="10"
       stroke-width="2"
       d="m 37.1131,45.7593 c -1.201,-1.1465 -1.2452,-3.0496 -0.0987,-4.2506 1.1465,-1.201 3.0496,-1.2453 4.2506,-0.0988"
       id="path12" />
    <path
       fill="none"
       stroke="#000"
       stroke-linecap="round"
       stroke-linejoin="round"
       stroke-miterlimit="10"
       stroke-width="2"
       d="m 29.2154,58.143 c -1.6564,0.116 -3.0931,-1.1328 -3.2091,-2.7891 -0.116,-1.6563 1.1328,-3.0931 2.7891,-3.2091"
       id="path14" />
    <path
       fill="none"
       stroke="#000"
       stroke-linecap="round"
       stroke-linejoin="round"
       stroke-miterlimit="10"
       stroke-width="2"
       d="m 18.5267,38.0128 c -1.2719,-1.0673 -1.4379,-2.9636 -0.3706,-4.2356 1.0673,-1.272 2.9636,-1.4379 4.2356,-0.3706"
       id="path16" />
    <line
       x1="37.088699"
       x2="22.391701"
       y1="45.738899"
       y2="33.406601"
       fill="none"
       stroke="#000"
       stroke-linecap="round"
       stroke-linejoin="round"
       stroke-miterlimit="10"
       stroke-width="2"
       id="line18" />
    <line
       x1="18.526699"
       x2="36.8134"
       y1="38.012798"
       y2="53.357101"
       fill="none"
       stroke="#000"
       stroke-linecap="round"
       stroke-linejoin="round"
       stroke-miterlimit="10"
       stroke-width="2"
       id="line20" />
    <line
       x1="31.3332"
       x2="28.795401"
       y1="52.078701"
       y2="52.144798"
       fill="none"
       stroke="#000"
       stroke-linecap="round"
       stroke-linejoin="round"
       stroke-miterlimit="10"
       stroke-width="2"
       id="line22" />
    <path
       fill="none"
       stroke="#000"
       stroke-linecap="round"
       stroke-linejoin="round"
       stroke-miterlimit="10"
       stroke-width="2"
       d="m 31.7178,58.2606 c 2.4888,-0.1011 5.263,0.6335 8.0883,3.0851"
       id="path24" />
    <line
       x1="29.215401"
       x2="31.7873"
       y1="58.143002"
       y2="58.258701"
       fill="none"
       stroke="#000"
       stroke-linecap="round"
       stroke-linejoin="round"
       stroke-miterlimit="10"
       stroke-width="2"
       id="line26" />
    <path
       fill="none"
       stroke="#000"
       stroke-linecap="round"
       stroke-linejoin="round"
       stroke-miterlimit="10"
       stroke-width="2"
       d="m 17.0896,30.8171 c -0.165,-0.5297 -0.4788,-1.0198 -0.9353,-1.4029 -1.2692,-1.065 -3.1615,-0.8995 -4.2265,0.3698 -1.065,1.2692 -0.8995,3.1615 0.3698,4.2265 0.6346,0.5325 1.425,0.7574 2.1898,0.6905"
       id="path28" />
    <line
       x1="13.4657"
       x2="13.4657"
       y1="24.5518"
       y2="7.4660001"
       fill="none"
       stroke="#000"
       stroke-linecap="round"
       stroke-linejoin="round"
       stroke-miterlimit="10"
       stroke-width="2"
       id="line30" />
    <line
       x1="8.2931995"
       x2="13.4943"
       y1="11.3372"
       y2="6.1355"
       fill="none"
       stroke="#000"
       stroke-linecap="round"
       stroke-linejoin="round"
       stroke-miterlimit="10"
       stroke-width="2"
       id="line32" />
    <line
       x1="18.6961"
       x2="13.4943"
       y1="11.3367"
       y2="6.1355"
       fill="none"
       stroke="#000"
       stroke-linecap="round"
       stroke-linejoin="round"
       stroke-miterlimit="10"
       stroke-width="2"
       id="line34" />
  </g>
</g></svg>