<svg xmlns="http://www.w3.org/2000/svg" width="24" height="24" viewBox="0 0 24 24"> <g transform="scale(0.41379310344827586)">
  
  <g
     id="line"
     transform="translate(-7.0099983,-7)">
    <path
       fill="none"
       stroke="#000"
       stroke-linecap="round"
       stroke-width="2"
       d="m 51.28,44.49 1.703,0.9851 c -5.471,9.48 -17.57,12.74 -27.02,7.278 l 3.463,-6.007"
       paint-order="normal"
       id="path2" />
    <circle
       cx="36.009998"
       cy="36"
       r="28"
       fill="none"
       stroke="#000"
       stroke-miterlimit="10"
       stroke-width="2"
       id="circle4" />
    <path
       fill="none"
       stroke="#000"
       stroke-linecap="round"
       stroke-width="2"
       d="m 27.02,24.79 c -0.029,-0.9764 0.123,-1.974 0.477,-2.947 1.509,-4.147 6.122,-6.274 10.3,-4.752 3.519,1.281 5.611,4.739 5.286,8.274"
       paint-order="normal"
       id="path6" />
    <ellipse
       cx="20.07"
       cy="40.02"
       rx="8.0570002"
       ry="7.9899998"
       transform="rotate(-10)"
       fill="none"
       stroke="#000"
       stroke-width="2"
       paint-order="normal"
       id="ellipse8" />
    <path
       fill="none"
       stroke-width="2"
       d="m 21.86,41.28 a 8.057,7.99 0 0 0 6.682,3.535 8.057,7.99 0 0 0 8.057,-7.99 8.057,7.99 0 0 0 -8.057,-7.99 8.057,7.99 0 0 0 -0.6387,0.0293 8.057,7.99 0 0 1 0.09765,0.1367 8.057,7.99 0 0 1 0.4004,0.6914 8.057,7.99 0 0 1 0.3281,0.7305 8.057,7.99 0 0 1 0.2539,0.7578 8.057,7.99 0 0 1 0.1777,0.7793 8.057,7.99 0 0 1 0.0957,0.793 8.057,7.99 0 0 1 0.02148,0.5645 8.057,7.99 0 0 1 -0.04102,0.7969 8.057,7.99 0 0 1 -0.1211,0.791 8.057,7.99 0 0 1 -0.1992,0.7734 8.057,7.99 0 0 1 -0.2754,0.75 8.057,7.99 0 0 1 -0.3496,0.7187 8.057,7.99 0 0 1 -0.4219,0.6816 8.057,7.99 0 0 1 -0.4863,0.6367 8.057,7.99 0 0 1 -0.5508,0.584 8.057,7.99 0 0 1 -0.6035,0.5273 8.057,7.99 0 0 1 -0.6562,0.4648 8.057,7.99 0 0 1 -0.6973,0.3965 8.057,7.99 0 0 1 -0.7363,0.3262 8.057,7.99 0 0 1 -0.7637,0.252 8.057,7.99 0 0 1 -0.7852,0.1758 8.057,7.99 0 0 1 -0.7305,0.08789 z"
       paint-order="normal"
       id="path10" />
    <ellipse
       cx="53.200001"
       cy="19.469999"
       rx="8.4110003"
       ry="8.3450003"
       transform="rotate(20)"
       fill="none"
       stroke="#000"
       stroke-width="2"
       paint-order="normal"
       id="ellipse12" />
    <path
       fill="none"
       stroke="#000"
       stroke-linecap="round"
       stroke-linejoin="round"
       stroke-miterlimit="0"
       stroke-width="2"
       d="m 20.02,40.39 a 8.057,7.99 0 0 0 6.682,3.535 8.057,7.99 0 0 0 8.057,-7.99 8.057,7.99 0 0 0 -8.057,-7.99 8.057,7.99 0 0 0 -0.6387,0.0293 8.057,7.99 0 0 1 0.09765,0.1367 8.057,7.99 0 0 1 0.4004,0.6914 8.057,7.99 0 0 1 0.3281,0.7305 8.057,7.99 0 0 1 0.2539,0.7578 8.057,7.99 0 0 1 0.1777,0.7793 8.057,7.99 0 0 1 0.0957,0.793 8.057,7.99 0 0 1 0.02148,0.5645 8.057,7.99 0 0 1 -0.04102,0.7969 8.057,7.99 0 0 1 -0.1211,0.791 8.057,7.99 0 0 1 -0.1992,0.7734 8.057,7.99 0 0 1 -0.2754,0.75 8.057,7.99 0 0 1 -0.3496,0.7187 8.057,7.99 0 0 1 -0.4219,0.6816 8.057,7.99 0 0 1 -0.4863,0.6367 8.057,7.99 0 0 1 -0.5508,0.584 8.057,7.99 0 0 1 -0.6035,0.5273 8.057,7.99 0 0 1 -0.6562,0.4648 8.057,7.99 0 0 1 -0.6973,0.3965 8.057,7.99 0 0 1 -0.7363,0.3262 8.057,7.99 0 0 1 -0.7637,0.252 8.057,7.99 0 0 1 -0.7852,0.1758 8.057,7.99 0 0 1 -0.7305,0.08789 z"
       paint-order="normal"
       id="path14" />
  </g>
</g></svg>