<svg xmlns="http://www.w3.org/2000/svg" width="24" height="24" viewBox="0 0 24 24"> <g transform="translate(2.2641481562709735 0.0) scale(0.4843201258360551)">
  
  <g
     id="line-supplement"
     transform="translate(-15.9,-11.1832)">
    <path
       fill="none"
       stroke="#000"
       stroke-linecap="round"
       stroke-linejoin="round"
       stroke-width="2"
       d="m 18.2987,47.0371 c 0,0 0.17,2.1674 4.5371,2.8755"
       id="path2" />
    <path
       fill="none"
       stroke="#000"
       stroke-linecap="round"
       stroke-linejoin="round"
       stroke-width="2"
       d="M 25.0343,35.4841 A 5.4642,5.4642 0 0 1 29.5569,36"
       id="path4" />
    <path
       fill="none"
       stroke="#000"
       stroke-linecap="round"
       stroke-linejoin="round"
       stroke-width="2"
       d="m 26.8582,28.2336 a 7.5161,7.5161 0 0 1 5.2271,-0.6931"
       id="path6" />
    <path
       fill="none"
       stroke="#000"
       stroke-linecap="round"
       stroke-linejoin="round"
       stroke-width="2"
       d="m 32.27,19.1212 c 0,0 3.0736,0.3742 2.6079,4.286"
       id="path8" />
    <path
       fill="none"
       stroke="#000"
       stroke-linecap="round"
       stroke-linejoin="round"
       stroke-width="2"
       d="m 48.1464,34.9927 c 0,0 4.7358,1.001 5.6255,-3.3181"
       id="path10" />
    <path
       fill="none"
       stroke="#000"
       stroke-linecap="round"
       stroke-linejoin="round"
       stroke-width="2"
       d="m 41.3957,40.6445 a 6,6 0 0 0 6.6792,1.4717"
       id="path12" />
    <path
       fill="none"
       stroke="#000"
       stroke-linecap="round"
       stroke-linejoin="round"
       stroke-width="2"
       d="m 33.5978,45.2113 c 0,0 4.3436,-0.38 5.458,1.5936"
       id="path14" />
    <path
       fill="none"
       stroke="#000"
       stroke-linecap="round"
       stroke-linejoin="round"
       stroke-width="2"
       d="m 23.7889,56.9573 c 0,0 2.5774,-2.8107 6.0761,-1.884"
       id="path16" />
    <path
       fill="none"
       stroke="#000"
       stroke-linecap="round"
       stroke-linejoin="round"
       stroke-width="2"
       d="m 44.0919,14.609 c 0,0 2.3364,2.296 1.1682,7.1425"
       id="path18" />
    <path
       fill="none"
       stroke="#000"
       stroke-linecap="round"
       stroke-linejoin="round"
       stroke-width="2"
       d="m 39.0558,20.6344 c 0,0 0.7182,2.9572 -1.898,6.6866"
       id="path20" />
    <path
       fill="none"
       stroke="#000"
       stroke-linecap="round"
       stroke-linejoin="round"
       stroke-width="2"
       d="m 21.3668,32.03 c 0,0 -0.4284,5.567 3.1854,6.1831"
       id="path22" />
    <path
       fill="none"
       stroke="#000"
       stroke-linecap="round"
       stroke-linejoin="round"
       stroke-width="2"
       d="m 21.9289,45.1819 c 0,0 3.7608,1.0774 4.49,-2.3129"
       id="path24" />
    <path
       fill="none"
       stroke="#000"
       stroke-linecap="round"
       stroke-linejoin="round"
       stroke-width="2"
       d="m 31.0005,52.5446 c 0,0 6.3137,-0.9121 5.5583,-4.2323"
       id="path26" />
    <path
       fill="none"
       stroke="#000"
       stroke-linecap="round"
       stroke-linejoin="round"
       stroke-width="2"
       d="m 44.4663,30.3446 c 0,0 0.7807,4.9488 3.0684,5.6554"
       id="path28" />
    <path
       fill="none"
       stroke="#000"
       stroke-linecap="round"
       stroke-linejoin="round"
       stroke-width="2"
       d="m 48.4925,22.9816 c 0,0 -0.5088,3.9862 1.6566,6.1516"
       id="path30" />
  </g>
  <g
     id="line"
     transform="translate(-15.9,-11.1832)">
    <path
       fill="none"
       stroke="#000"
       stroke-linecap="round"
       stroke-miterlimit="10"
       stroke-width="2"
       d="m 41.9641,17.9355 a 11.1753,11.1753 0 0 0 2.8223,-5.7523 M 35.49,22.9816 a 24.8111,24.8111 0 0 0 6.4745,-5.0461 M 46.4366,43.06 a 17.7364,17.7364 0 0 1 -3.4466,6.5347 10.6515,10.6515 0 0 1 -9.9985,3.52 16.406,16.406 0 0 1 -6.9005,-3.4 21.1658,21.1658 0 0 1 -5.0766,-5.9984 11.2174,11.2174 0 0 1 2.21,-13.87 20.331,20.331 0 0 1 3.9477,-2.7025 m 27.9321,-2.447 c -3.7722,1.1558 -5.47,4.594 -6.4885,8.8732 m -6.5633,6.6843 c 0.36,-1.325 0.6684,-2.7358 0.9833,-4.1753 1.42,-6.488 3.0295,-13.8417 10.6029,-16.1625 M 24.6924,36.8211 a 6.234,6.234 0 0 0 0.6721,4.4312 16.1788,16.1788 0 0 0 3.8847,4.5766 11.38,11.38 0 0 0 4.7415,2.3868 5.2968,5.2968 0 0 0 3.6759,-0.6485 M 49.7122,13.0413 c -1.5262,8.7724 -8.587,12.3075 -14.8169,15.4264 -1.3269,0.6645 -2.6225,1.3133 -3.8432,1.9941"
       id="path33" />
    <path
       fill="none"
       stroke="#000"
       stroke-linecap="round"
       stroke-linejoin="round"
       stroke-width="2"
       d="m 46.5789,20.2442 q 0.3237,0.24 0.6416,0.4957 M 24.6568,36.8132 q 0.3873,-1.3116 0.7587,-2.7671 c 1.2146,-4.7269 2.0418,-9.96 4.9058,-13.1862 A 10.649,10.649 0 0 1 40.32,17.34 13.6481,13.6481 0 0 1 42.0663,17.8212 M 16.9,47.61 a 8.4831,8.4831 0 0 0 4.4667,-3.2954 m 3.0795,3.9176 A 12.2526,12.2526 0 0 1 18.3646,52.39 M 35.8519,22.774 a 6.2737,6.2737 0 0 0 -1.7912,1.4052 c -2.06,2.32 -3.1641,6.6137 -4.2316,10.7662 a 59.69,59.69 0 0 1 -2.7411,8.77 m 18.9162,-17.231 a 15.99,15.99 0 0 0 -1.942,-1.8592 q -0.56,-0.451 -1.1339,-0.8276 m -11.9278,23.24 a 64.0142,64.0142 0 0 1 7.7239,-4.8637 44.08,44.08 0 0 0 7.9874,-5.2542 6.2846,6.2846 0 0 0 1.92,-3.3456 m -25.29,25.3051 a 17.1545,17.1545 0 0 1 3.861,-8.258 m 4.2586,2.0785 a 14.91,14.91 0 0 0 -3.1937,7.0375 m 23.8477,-33.314 q 0.0926,0.1566 0.1821,0.3147 a 11.2172,11.2172 0 0 1 -2.2108,13.8707 c -2.5466,2.3289 -6.4051,3.6411 -9.5366,5.41 -1.0044,0.5089 -1.963,1.03 -2.87,1.5721 m 9.5408,-26.85 v 0 a 20.45,20.45 0 0 1 1.8517,1.6924"
       id="path35" />
  </g>
</g></svg>