<svg xmlns="http://www.w3.org/2000/svg" width="24" height="24" viewBox="0 0 24 24"> <g transform="scale(0.5)">
  
  <g
     id="line"
     transform="translate(-12,-12)">
    <circle
       cx="36"
       cy="36"
       r="23"
       fill="none"
       stroke="#000"
       stroke-linecap="round"
       stroke-linejoin="round"
       stroke-miterlimit="10"
       stroke-width="2"
       id="circle2" />
    <path
       fill="none"
       stroke="#000"
       stroke-linecap="round"
       stroke-linejoin="round"
       stroke-miterlimit="10"
       stroke-width="2"
       d="m 48.5859,42.6735 c 0,5.6296 -4.1784,10.1046 -12.5541,10.1046 -8.3738,0 -12.6069,-4.4888 -12.6069,-10.1047 0,0 13.0254,3.0311 25.161,10e-5 z"
       id="path4" />
    <path
       fill="none"
       stroke="#000"
       stroke-linecap="round"
       stroke-linejoin="round"
       stroke-miterlimit="10"
       stroke-width="2"
       d="m 26.4992,27.4384 c -1.2653,-3.3541 -6.441,-3.5687 -6.1168,1.3178 0.0431,0.6485 0.281,1.2724 0.6414,1.8135 l 5.3179,6.4224 v 0 l 5.2212,-6.266 c 0.5796,-0.6964 0.9224,-1.5779 0.905,-2.4853 -0.0863,-4.3523 -5.0509,-4.0351 -6.1274,-0.8036"
       id="path6" />
    <path
       fill="none"
       stroke="#000"
       stroke-linecap="round"
       stroke-linejoin="round"
       stroke-miterlimit="10"
       stroke-width="2"
       d="m 45.8012,27.4384 c -1.2547,-3.3541 -6.3873,-3.5687 -6.0658,1.3178 0.0428,0.6485 0.2787,1.2724 0.6361,1.8135 l 5.2737,6.4224 v 0 l 5.1777,-6.266 c 0.5747,-0.6964 0.9147,-1.5779 0.8974,-2.4853 -0.0856,-4.3523 -5.0089,-4.0351 -6.0763,-0.8036"
       id="path8" />
  </g>
</g></svg>