<svg xmlns="http://www.w3.org/2000/svg" width="24" height="24" viewBox="0 0 24 24"> <g transform="scale(0.5)">
  
  <g
     id="line"
     transform="translate(-12,-12)">
    <circle
       cx="36"
       cy="36"
       r="23"
       fill="none"
       stroke="#000"
       stroke-miterlimit="10"
       stroke-width="2"
       id="circle2" />
    <path
       fill="none"
       stroke="#000"
       stroke-linecap="round"
       stroke-linejoin="round"
       stroke-miterlimit="10"
       stroke-width="2"
       d="m 40,31.7253 c 0.4132,-0.344 2.2456,-1.7915 4.9091,-1.6364 2.1608,0.1259 3.61,1.2333 4.0909,1.6364"
       id="path4" />
    <path
       fill="none"
       stroke="#000"
       stroke-linecap="round"
       stroke-linejoin="round"
       stroke-miterlimit="10"
       stroke-width="2"
       d="m 30.7517,45.7908 c -2.199,-1.0742 -3.9778,-2.8081 -4.9168,-4.9729 m 20.3301,10e-5 c -0.8692,2.0234 -2.4789,3.6854 -4.4969,4.7746 M 26.0734,40.818 c 1.8055,0.9018 5.4625,1.4962 9.5171,1.5426 4.4161,0.0505 8.5899,-0.5572 10.5745,-1.5426"
       id="path6" />
    <path
       fill="none"
       stroke="#000"
       stroke-miterlimit="10"
       stroke-width="2"
       d="m 41.6597,41.818 c 0,6.0751 -2.5324,11 -5.6562,11 -3.1238,0 -5.6563,-4.9249 -5.6563,-11"
       id="path8" />
    <path
       d="m 30,31 c 0,1.6568 -1.3448,3 -3,3 -1.6553,0 -3,-1.3433 -3,-3 0,-1.6552 1.3447,-3 3,-3 1.6552,0 3,1.3448 3,3"
       id="path10" />
  </g>
</g></svg>