<svg xmlns="http://www.w3.org/2000/svg" width="24" height="24" viewBox="0 0 24 24"> <g transform="translate(-1.7763568394002505e-15 0.8551238295574457) scale(0.5647065467135844)">
  
  <g
     id="line"
     transform="translate(-14.75,-16.263126)">
    <path
       fill="none"
       stroke="#000"
       stroke-linecap="round"
       stroke-linejoin="round"
       stroke-width="2"
       d="m 15.75,31.83 h 27.84 v 8.433 l 12.66,-11.5 -12.66,-11.5 v 8.433 H 15.75 Z"
       id="path2" />
    <path
       fill="none"
       stroke="#000"
       stroke-linecap="round"
       stroke-linejoin="round"
       stroke-width="2"
       d="m 23.65,46.72 a 3.049,3.049 0 0 0 -3.073,-1.994 v 0 c -1.732,0 -3.137,1.118 -3.137,2.498 0,1.38 1.404,2.498 3.137,2.498 l -0.0638,0.0093 c 1.733,0 3.137,1.118 3.137,2.498 0,1.38 -1.404,2.498 -3.137,2.498 v 0 a 3.049,3.049 0 0 1 -3.073,-1.994"
       id="path4" />
    <polyline
       transform="translate(-0.75,1.263)"
       fill="none"
       stroke="#000"
       stroke-linecap="round"
       stroke-linejoin="round"
       stroke-width="2"
       points="47.39 53.38 47.39 43.38 54.53 53.38 54.53 43.38"
       id="polyline6" />
    <path
       fill="none"
       stroke="#000"
       stroke-linecap="round"
       stroke-linejoin="round"
       stroke-width="2"
       d="m 40.21,54.61 v 0 a 3.572,3.572 0 0 1 -3.572,-3.571 v -2.857 a 3.572,3.572 0 0 1 3.572,-3.571 v 0 a 3.571,3.571 0 0 1 3.571,3.571 v 2.857 A 3.571,3.571 0 0 1 40.21,54.61 Z"
       id="path8" />
    <path
       fill="none"
       stroke="#000"
       stroke-linecap="round"
       stroke-linejoin="round"
       stroke-width="2"
       d="m 30.21,54.61 v 0 a 3.572,3.572 0 0 1 -3.572,-3.571 v -2.857 a 3.572,3.572 0 0 1 3.572,-3.571 v 0 a 3.571,3.571 0 0 1 3.571,3.571 v 2.857 A 3.571,3.571 0 0 1 30.21,54.61 Z"
       id="path10" />
  </g>
</g></svg>