<svg xmlns="http://www.w3.org/2000/svg" width="24" height="24" viewBox="0 0 24 24"> <g transform="translate(0.0 3.4119114486420408) scale(0.49359456167383836)">
  
  <g
     id="line"
     transform="translate(-9.6159997,-18.355851)">
    <path
       fill="none"
       stroke="#000"
       stroke-miterlimit="10"
       stroke-width="2"
       d="m 21.2364,27.2573 a 11.3923,11.3923 0 0 0 -3.9031,3.8094"
       id="path2" />
    <path
       fill="none"
       stroke="#000"
       stroke-miterlimit="10"
       stroke-width="2"
       d="m 31.499,25.6752 h 14.3219 a 11.4406,11.4406 0 0 1 11.418,11.4075 v 3.6638 A 11.4406,11.4406 0 0 1 45.8209,52.154 H 27.0234 A 11.4406,11.4406 0 0 1 15.6055,40.7465 v -2.3107"
       id="path4" />
    <line
       x1="24.9484"
       x2="47.895901"
       y1="35.896198"
       y2="35.896198"
       fill="none"
       stroke="#000"
       stroke-linecap="round"
       stroke-linejoin="round"
       stroke-width="2"
       id="line6" />
    <line
       x1="24.9484"
       x2="47.895901"
       y1="41.935001"
       y2="41.935001"
       fill="none"
       stroke="#000"
       stroke-linecap="round"
       stroke-linejoin="round"
       stroke-width="2"
       id="line8" />
    <circle
       cx="14.7793"
       cy="34.352699"
       r="4.1633"
       fill="none"
       stroke="#000"
       stroke-miterlimit="10"
       stroke-width="2"
       id="circle10" />
    <path
       fill="none"
       stroke="#000"
       stroke-linecap="round"
       stroke-linejoin="round"
       stroke-width="2"
       d="m 23.6752,21.87 a 5.1348,5.1348 0 0 0 -0.4909,0.3643 4.1077,4.1077 0 0 0 -0.1777,-0.4986 4.1633,4.1633 0 1 0 -1.9787,5.5454 c 0.0665,-0.0315 0.1208,-0.0771 0.1848,-0.1116 A 5.1985,5.1985 0 1 0 23.6752,21.87 Z"
       id="path12" />
  </g>
</g></svg>