<svg xmlns="http://www.w3.org/2000/svg" width="24" height="24" viewBox="0 0 24 24"> <g transform="translate(0.0 1.807663389381851) scale(0.42725288801144595)">
  
  <g
     id="line"
     transform="translate(-8.9271776,-9.9381274)">
    <path
       fill="none"
       stroke="#000"
       stroke-linecap="round"
       stroke-miterlimit="10"
       stroke-width="2"
       d="m 49.2188,55.98 h 2.9939 a 1.7319,1.7319 0 0 0 1.7319,-1.7319 v 0 a 2.1331,2.1331 0 0 0 -1.9834,-2.1278 l -0.7553,-0.0531 a 1.6331,1.6331 0 0 1 -1.5186,-1.6291 v 0 a 2.94,2.94 0 0 1 3.2664,-2.922 l 1.3671,0.1526 a 21.143,21.143 0 0 0 4.3192,0.0381 l 2.5928,-0.2432 A 3.1628,3.1628 0 0 0 64.1,44.315 v 0 a 2.8164,2.8164 0 0 0 -2.8164,-2.8165 h -4.8051"
       id="path2" />
    <path
       fill="none"
       stroke="#000"
       stroke-linecap="round"
       stroke-miterlimit="10"
       stroke-width="2"
       d="m 57.9,41.4938 h 1.3038 a 1.3519,1.3519 0 0 0 1.3518,-1.3518 v 0 a 1.9888,1.9888 0 0 0 -1.6817,-1.9649 l -2.733,-0.427 a 1.6993,1.6993 0 0 1 -1.3568,-2.1949 l 0.5287,-1.659 a 15.5812,15.5812 0 0 0 0.9087,-4.2088 C 56.9315,20.1606 48.8569,11.7928 38.1861,10.9974 27.5153,10.202 19.4645,17.4416 17.5785,26.8068 a 13.5114,13.5114 0 0 0 0.84,7.29 l 0.1437,0.3276 a 2.8276,2.8276 0 0 1 -2.4582,3.96 l -2.119,0.0986 a 1.9716,1.9716 0 0 0 -1.88,1.97 v 0 a 1.3451,1.3451 0 0 0 1.345,1.3446 h 4.9072 a 1.4314,1.4314 0 0 1 1.5628,1.2639 v 0 A 1.3453,1.3453 0 0 1 18.6618,44.559 L 12.39,44.36 a 2.4141,2.4141 0 0 0 -2.4628,2.4135 v 0.05 a 1.5977,1.5977 0 0 0 1.5964,1.6062 h 13.82 a 1.4349,1.4349 0 0 1 1.5194,1.3218 v 0 a 1.3423,1.3423 0 0 1 -1.3776,1.56 l -6.8788,0.2628 a 1.7455,1.7455 0 0 0 -1.6844,1.7445 v 0 a 1.6083,1.6083 0 0 0 1.717,1.6046 l 0.4068,-0.0276 a 15.3472,15.3472 0 0 1 6.1558,0.8434 l 0.66,0.2333 a 11.8211,11.8211 0 0 0 6.0076,0.4948 L 38.3859,55.31 a 18.5884,18.5884 0 0 1 7.0715,0.1113"
       id="path4" />
    <path
       d="m 34.103,24.4012 a 3,3 0 1 1 -3,-3 3.0011,3.0011 0 0 1 3,3"
       id="path6" />
    <path
       d="m 46.103,29.5966 a 3,3 0 1 1 -3,-3 3.0011,3.0011 0 0 1 3,3"
       id="path8" />
    <path
       fill="none"
       stroke="#000"
       stroke-linecap="round"
       stroke-miterlimit="10"
       stroke-width="1.928"
       d="m 32.9891,36.805 a 10.8681,10.8681 0 0 0 10.8831,3.2472"
       id="path10" />
  </g>
</g></svg>