<svg xmlns="http://www.w3.org/2000/svg" width="24" height="24" viewBox="0 0 24 24"> <g transform="translate(2.3084144039262053 0.0) scale(0.483685694667077)">
  
  <g
     id="line"
     transform="translate(-15.9632,-11.149)">
    <rect
       x="16.9632"
       y="16.118999"
       width="38.073898"
       height="24.75"
       fill="none"
       stroke="#000"
       stroke-linecap="round"
       stroke-linejoin="round"
       stroke-width="2"
       id="rect2" />
    <polyline
       fill="none"
       stroke="#000"
       stroke-linecap="round"
       stroke-linejoin="round"
       stroke-width="2"
       points="39.151 44.202 39.151 59.768 32.85 59.768 32.85 44.202"
       id="polyline4" />
    <polyline
       fill="none"
       stroke="#000"
       stroke-linecap="round"
       stroke-linejoin="round"
       stroke-width="2"
       points="32.85 16.119 32.85 12.149 39.151 12.149 39.151 16.119"
       id="polyline6" />
    <path
       fill="none"
       stroke="#000"
       stroke-linecap="round"
       stroke-linejoin="round"
       stroke-width="2"
       d="m 23.5862,35.1753 a 10.0216,10.0216 0 0 1 1.85,-3.6652 c 0.1528,-0.1911 0.36,-0.3952 0.6011,-0.3555 a 0.6826,0.6826 0 0 1 0.38,0.2738 c 0.93,1.1124 1.41,2.5781 2.4781,3.5583 a 1.0167,1.0167 0 0 0 0.4386,0.2689 c 0.4569,0.1057 0.8339,-0.34 1.1121,-0.7171 a 12.0069,12.0069 0 0 1 2.4219,-2.4517 2.0944,2.0944 0 0 1 0.9546,-0.4729 2.012,2.012 0 0 1 1.7374,1.0751 4.4635,4.4635 0 0 0 1.3923,1.6084 0.6244,0.6244 0 0 0 0.4891,0.0766 0.7134,0.7134 0 0 0 0.291,-0.2457 c 1.0448,-1.2986 1.7306,-3.1732 3.3578,-3.534 a 18.9793,18.9793 0 0 0 1.0763,3.0115 c 0.1085,0.2379 0.3,0.5156 0.5559,0.4623 a 0.5971,0.5971 0 0 0 0.282,-0.1916 l 3.1854,-3.2242 2.2245,3.8963"
       id="path8" />
    <path
       fill="none"
       stroke="#000"
       stroke-linecap="round"
       stroke-linejoin="round"
       stroke-width="2"
       d="m 23.5561,27.1047 a 14.5927,14.5927 0 0 1 3.5364,-5.0428 38.6124,38.6124 0 0 0 3.0545,3.12 2.194,2.194 0 0 0 1.8763,0.7965 2.3016,2.3016 0 0 0 1.0807,-0.8641 33.7344,33.7344 0 0 1 2.616,-2.782 2.0613,2.0613 0 0 1 0.9065,-0.589 1.8094,1.8094 0 0 1 1.7454,1.0267 5.379,5.379 0 0 0 1.262,1.7335 0.723,0.723 0 0 0 0.567,0.1521 0.93,0.93 0 0 0 0.4094,-0.2963 13.7677,13.7677 0 0 1 2.6606,-2.1535 1.7758,1.7758 0 0 1 1.4349,-0.36 1.8846,1.8846 0 0 1 0.8813,0.86 l 2.0915,3.2414"
       id="path10" />
  </g>
</g></svg>