<svg xmlns="http://www.w3.org/2000/svg" width="24" height="24" viewBox="0 0 24 24"> <g transform="translate(2.294568698861859 0.0) scale(0.3733009092459138)">
  
  <g
     id="line"
     transform="translate(-10.002125,-3.853275)">
    <circle
       cx="52.245899"
       cy="60.868698"
       r="5"
       fill="none"
       stroke="#000"
       stroke-linecap="round"
       stroke-linejoin="round"
       stroke-miterlimit="10"
       stroke-width="2"
       id="circle2" />
    <path
       fill="none"
       stroke="#000"
       stroke-linecap="round"
       stroke-linejoin="round"
       stroke-miterlimit="10"
       stroke-width="2"
       d="M 58.208,12.5205 28.0173,62.7147 v 0 C 25.4025,67.0506 19.7679,68.4458 15.432,65.831 11.0961,63.2162 9.7009,57.5816 12.3157,53.2457 l -0.0479,0.0795 c 1.3431,-2.2271 4.2373,-2.9438 6.4644,-1.6007 2.2271,1.3431 2.9438,4.2373 1.6007,6.4644 -0.5394,0.8945 -0.2516,2.057 0.6429,2.5964 0.8945,0.5394 2.057,0.2516 2.5964,-0.6429 L 23.5826,60.1256 56.3124,5.842 c 0.5834,-0.9674 1.8521,-1.2815 2.8195,-0.6981 l 0.4397,0.2652 0.4397,0.2652 c 0.9674,0.5834 1.2815,1.8521 0.6981,2.8195 l -0.385,0.6385"
       id="path4" />
  </g>
</g></svg>