<svg xmlns="http://www.w3.org/2000/svg" width="24" height="24" viewBox="0 0 24 24"> <g transform="scale(0.41379310344827586)">
  
  <g
     id="line"
     transform="translate(-7,-7)">
    <circle
       cx="36"
       cy="36"
       r="28"
       fill="none"
       stroke="#000"
       stroke-linejoin="round"
       stroke-miterlimit="10"
       stroke-width="2"
       id="circle2" />
    <path
       fill="#000"
       stroke="none"
       d="m 35.3341,33.4407 -0.6632,-0.0353 v -2e-4 l -1e-4,2e-4 -0.6768,-0.036 c -0.3212,-0.0171 -0.5928,0.2257 -0.6167,0.5465 -0.0815,1.0914 -0.238,2.3781 -0.4571,3.5486 C 32.0387,36.1409 30.88,34.8566 30.225,34.1677 h 2.3179 c 0.1716,0 0.3107,-0.1391 0.3107,-0.3107 v -1.8953 c 0,-0.1716 -0.1391,-0.3107 -0.3107,-0.3107 H 30.051 l -0.0297,-3.772 c 0.8814,-0.2435 1.7432,-0.5234 2.4752,-0.8512 0.1605,-0.0719 0.2223,-0.2648 0.1456,-0.423 l -0.8218,-1.6944 c -0.0756,-0.1558 -0.254,-0.2212 -0.4126,-0.1517 -2.204,0.9664 -5.9578,1.5451 -7.0423,1.6978 -0.1692,0.0238 -0.2841,0.1781 -0.263,0.3476 l 0.2,1.5999 c 0.0408,0.3264 0.3353,0.557 0.6609,0.5096 0.5661,-0.0826 1.493,-0.2319 2.5458,-0.4429 l 0.0251,3.1803 H 24.159 c -0.1716,0 -0.3107,0.1391 -0.3107,0.3107 v 1.8953 c 0,0.1716 0.1391,0.3107 0.3107,0.3107 h 2.8901 c -0.6784,1.8816 -1.928,4.9747 -3.4249,6.939 -0.1916,0.2515 -0.1661,0.6026 0.073,0.8094 l 0.523,0.4526 v 0 0 l 0.4923,0.4259 c 0.2512,0.2174 0.6391,0.1913 0.8424,-0.0714 0.7562,-0.9772 1.4426,-2.1705 2.0399,-3.3755 l 0.0653,8.2967 c 0.0014,0.1716 0.1415,0.3095 0.3131,0.3082 l 1.8954,-0.0148 c 0.1715,-0.0013 0.3095,-0.1415 0.3082,-0.313 l -0.0769,-9.7653 c 0.2673,0.3413 0.5283,0.6945 0.76,1.0466 0.1689,0.2568 0.5142,0.329 0.7797,0.1741 l 0.5941,-0.3466 1e-4,10e-5 c 0,-10e-5 -1e-4,-10e-5 -1e-4,-2e-4 l 0.4748,-0.2769 c -0.1692,0.7107 -0.3626,1.3369 -0.5813,1.7705 -0.1252,0.2482 -0.0666,0.5427 0.1485,0.7187 l 0.5777,0.4728 v 1e-4 l 10e-5,-1e-4 0.4723,0.3865 c 0.282,0.2306 0.706,0.1582 0.886,-0.1585 1.1607,-2.0416 1.5578,-5.9253 1.6779,-7.583 0.0237,-0.3281 -0.2271,-0.6054 -0.5556,-0.6229 z"
       id="path4" />
    <path
       fill="#000"
       stroke="none"
       d="m 38.8566,26.4589 c 1.0233,0.6545 3.0896,2.1028 3.969,3.2564 0.0995,0.1306 0.2721,0.1664 0.4106,0.0783 0.3997,-0.2542 1.1874,-0.7553 1.6041,-1.0203 0.1499,-0.0953 0.1964,-0.2961 0.0921,-0.4399 -1.2244,-1.6886 -3.8566,-3.4452 -4.748,-4.0129 -0.1468,-0.0935 -0.338,-0.0487 -0.429,0.0996 -0.2541,0.4139 -0.741,1.2071 -0.9932,1.618 -0.0882,0.1435 -0.0477,0.3299 0.0944,0.4208 z"
       id="path6" />
    <path
       fill="#000"
       stroke="none"
       d="m 47.6392,32.1353 c -0.046,-0.094 -0.1175,-0.1617 -0.1975,-0.2159 0.9863,-2.7267 1.4288,-4.8836 1.5634,-5.666 0.0296,-0.1719 -0.0897,-0.3268 -0.2623,-0.3524 l -1.877,-0.2788 c -0.166,-0.0247 -0.3205,0.0863 -0.3511,0.2514 -0.2414,1.3012 -1.4128,6.6694 -4.7567,11.8837 v -7.6765 c 0,-0.1716 -0.1391,-0.3107 -0.3107,-0.3107 H 39.552 c -0.1716,0 -0.3107,0.1391 -0.3107,0.3107 v 11.0364 c -1.2019,1.362 -2.5877,2.6437 -4.1908,3.7533 -0.1382,0.0957 -0.1765,0.2823 -0.0827,0.4218 l 1.0572,1.5732 c 0.0975,0.1451 0.2983,0.1837 0.4424,0.0848 1.0215,-0.7016 1.9406,-1.4732 2.8055,-2.274 0.1597,1.657 1.5398,2.9573 3.2387,2.9573 h 2.5845 c 1.4989,0 2.7667,-1.1086 2.9666,-2.5941 l 0.3342,-2.484 c 0.0229,-0.1701 -0.0964,-0.3265 -0.2665,-0.3493 l -1.8782,-0.2525 c -0.17,-0.0229 -0.3264,0.0964 -0.3493,0.2664 l -0.3342,2.4833 c -0.0319,0.2369 -0.2341,0.4137 -0.4731,0.4137 h -2.8608 c -0.2622,0 -0.4768,-0.2146 -0.4768,-0.4768 v -2.591 c 1.8926,-2.2852 3.3249,-4.7137 4.3851,-6.9827 0.4209,1.165 0.8224,2.6361 0.843,4.0805 0.0024,0.1663 0.13,0.3003 0.2964,0.3041 l 1.8972,0.0438 c 0.1753,0.004 0.3247,-0.1384 0.3233,-0.3138 -0.0239,-2.9499 -1.2868,-5.8654 -1.8638,-7.0459 z"
       id="path8" />
  </g>
</g></svg>