<svg xmlns="http://www.w3.org/2000/svg" width="24" height="24" viewBox="0 0 24 24"> <g transform="translate(0.0 0.23269892307692253) scale(0.46153846153846156)">
  
  <g
     id="line"
     transform="translate(-10,-13.52613)">
    <line
       x1="11"
       x2="61"
       y1="23.8445"
       y2="23.8445"
       fill="none"
       stroke="#000"
       stroke-linecap="round"
       stroke-linejoin="round"
       stroke-width="2"
       id="line2" />
    <path
       fill="none"
       stroke="#000"
       stroke-linecap="round"
       stroke-linejoin="round"
       stroke-width="2"
       d="m 22.4615,37.146 -1.2307,3.83 c 0,0 4.923,0.7018 6.3015,3.45 0.094,0.1827 0.1667,0.3756 0.2166,0.5749 0.9256,3.2259 0.8665,11.1492 0.8665,11.1492 l 3.2,5.1067 5.3717,2.261 4.8387,-11.8214 1.4179,2.0757 c 0,0 0.9846,0.6627 2.1563,-6.3347 0.7199,0.4804 1.7114,1.1294 2.1231,1.8907 0.9846,1.5203 0.2794,-7.1338 0.2794,-7.1338 l -1.1717,-3.1771 5.576,-0.7436 -1.9231,-6.0785 C 48.8911,29.0372 46.8918,26.1015 44.5366,23.4629 40.7554,18.7561 31.8154,14.5261 31.8154,14.5261 l -5.6537,9.9559 -3.9533,3.7736 0.0855,3.9396 -4.7557,1.1207 z"
       id="path4" />
  </g>
</g></svg>