<svg xmlns="http://www.w3.org/2000/svg" width="24" height="24" viewBox="0 0 24 24"> <g transform="translate(0.35041125584128174 0.0) scale(0.4554107608667127)">
  
  <g
     id="line"
     transform="translate(-10.205301,-6.8399645)">
    <g
       id="line_1_">
      <path
         fill="none"
         stroke="#000"
         stroke-linecap="round"
         stroke-linejoin="round"
         stroke-miterlimit="10"
         stroke-width="2"
         d="M 29.1505,50.0504 36,58.5397 56.7339,32.8422 56.7296,32.8388 C 58.4597,30.6942 59.5,27.9699 59.5,25"
         id="path2" />
      <path
         fill="none"
         stroke="#000"
         stroke-linecap="round"
         stroke-linejoin="round"
         stroke-miterlimit="10"
         stroke-width="2"
         d="M 45.2493,12.6217 C 41.245,13.183 37.8497,15.6419 36,19.0598 33.8861,15.1536 29.7533,12.5 25,12.5 c -6.9036,0 -12.5,5.5964 -12.5,12.5 0,2.9699 1.0403,5.6942 2.7703,7.8387 l -0.0043,0.0034 2.1605,2.6777"
         id="path4" />
    </g>
    <path
       fill="none"
       stroke="#000"
       stroke-linecap="round"
       stroke-linejoin="round"
       stroke-miterlimit="10"
       stroke-width="2"
       d="m 22.5556,32.4499 1.5469,-8.0604 0.5052,3.0162 c 0.081,0.4824 1.6827,10.0429 1.6827,10.0429 0.1889,1.1269 1.1869,2.0334 2.5426,2.3092 l 8.167,1.662 -8.1728,1.663 C 27.4749,43.358 26.479,44.264 26.2903,45.3912 L 24.1027,58.4499 21.9151,45.3917 c -0.1889,-1.1272 -1.1848,-2.0333 -2.5372,-2.3085 l -8.173,-1.6629 8.1735,-1.6634 c 1.352,-0.2753 2.2663,-1.8467 2.455,-2.9736"
       id="path7" />
    <path
       fill="none"
       stroke="#000"
       stroke-linecap="round"
       stroke-linejoin="round"
       stroke-miterlimit="10"
       stroke-width="2"
       d="m 48.8482,14.267 1.2335,-6.4275 0.4029,2.4052 c 0.0646,0.3847 1.3418,8.0084 1.3418,8.0084 0.1506,0.8986 0.9465,1.6215 2.0275,1.8414 l 6.5126,1.3253 -6.5171,1.3261 c -1.0783,0.2194 -1.8725,0.9419 -2.023,1.8408 L 50.0819,35 48.3374,24.5871 c -0.1506,-0.8988 -0.9448,-1.6214 -2.0232,-1.8409 l -6.5174,-1.326 6.5177,-1.3264 c 1.0781,-0.2195 1.8072,-1.4726 1.9577,-2.3712"
       id="path9" />
  </g>
</g></svg>