<svg xmlns="http://www.w3.org/2000/svg" width="24" height="24" viewBox="0 0 24 24"> <g transform="translate(0.0 4.732966214676466) scale(0.42555162306452915)">
  
  <g
     id="line"
     transform="translate(-7.8017,-18.930107)">
    <path
       fill="none"
       stroke="#000"
       stroke-linecap="round"
       stroke-linejoin="round"
       stroke-width="2"
       d="m 63.01,35.0836 c 0,0 -2.9,-0.2151 -6.2787,-3.6229 -3.09,-2.9178 -11.2329,-10.2266 -11.2329,-10.2266 -1.0579,-0.7171 -3.132,-2.0775 -4.7284,-0.7754 -1.1982,0.9492 -1.5253,2.6302 -0.7706,3.9595 l 5.1754,7.6332 -5.1648,2.0322 5.1648,-2.0322 -5.1648,2.0322 -12,6.3874 -11,2 h -5.0294 c 0,0 -3.1789,0 -3.1789,2.5619 0,2.477 2.3028,2.766 3.3028,2.766 1,0 12.6528,0.0372 12.9632,0 l 13.9954,0.867 23.9469,3.4177 c 0,-3 0.4247,-8.6919 0,-17"
       id="path2" />
    <path
       fill="none"
       stroke="#000"
       stroke-linecap="round"
       stroke-linejoin="round"
       stroke-width="2"
       d="M 38.4083,34.81 26.7329,30.336 c 0,0 -3.7287,-1.191 -4.5138,0.8808 -0.5025,1.2219 0.0807,2.6199 1.3026,3.1224 0.0738,0.0303 0.149,0.057 0.2254,0.0798 l 8.9582,3.2106 -12.3853,-4.349 c 0,0 -3.7981,-1.5138 -4.7064,1.0734 -0.9989,2.8454 2.347,3.5526 2.347,3.5526 l 10.305,2.428 -14.2249,-3.3516 c 0,0 -2.32,-0.6416 -2.9424,1.4994 -0.61,2.101 1.3126,2.8085 2.2142,3.0519 1.3654,0.3686 3.697,0.9367 3.697,0.9367"
       id="path4" />
  </g>
</g></svg>