<svg xmlns="http://www.w3.org/2000/svg" width="24" height="24" viewBox="0 0 24 24"> <g transform="translate(4.462593071697038 0.0) scale(0.4074274015298899)">
  
  <g
     id="line"
     transform="translate(-18,-9.0937996)">
    <circle
       cx="35.9688"
       cy="13.0938"
       r="3"
       fill="none"
       stroke="#000"
       stroke-miterlimit="10"
       stroke-width="2"
       id="circle2" />
    <path
       fill="none"
       stroke="#000"
       stroke-linecap="round"
       stroke-linejoin="round"
       stroke-miterlimit="10"
       stroke-width="2"
       d="m 41,26 2.5684,39.0039 C 43.6406,66.1016 42.958,67 42.0508,67 41.1426,67 40.2793,66.1084 40.1309,65.0186 L 37.2695,43.9814 C 37.1211,42.8916 36.5498,42 36,42 c -0.5498,0 -1.1211,0.8916 -1.2695,1.9814 L 31.8691,65.0186 C 31.7207,66.1084 30.8574,67 29.9492,67 29.042,67 28.3594,66.1016 28.4316,65.0039 L 31,26"
       id="path4" />
    <path
       fill="none"
       stroke="#000"
       stroke-linecap="round"
       stroke-linejoin="round"
       stroke-miterlimit="10"
       stroke-width="2"
       d="m 19,25 3.707,4.2373 c 1.8116,2.0693 3.6631,1.543 4.1153,-1.1694 l 0.3554,-2.1358 C 27.6299,23.2192 29.7998,20.7749 32,20.5 c 2.2002,-0.2749 5.7998,-0.2749 8,0 2.2002,0.2749 4.3701,2.7192 4.8223,5.4321 l 0.3554,2.1358 C 45.6299,30.7803 47.7998,32.5498 50,32 c 2.2002,-0.5498 4,-1 4,-1"
       id="path6" />
  </g>
</g></svg>