<svg xmlns="http://www.w3.org/2000/svg" width="24" height="24" viewBox="0 0 24 24"> <g transform="translate(0.0 0.25) scale(0.5)">
  
  <g
     id="line"
     transform="translate(-12,-12)">
    <rect
       x="13"
       y="32"
       width="46"
       height="26"
       fill="none"
       stroke="#000"
       stroke-linecap="round"
       stroke-linejoin="round"
       stroke-miterlimit="10"
       stroke-width="2"
       id="rect2" />
    <path
       fill="none"
       stroke="#000"
       stroke-linecap="round"
       stroke-linejoin="round"
       stroke-miterlimit="10"
       stroke-width="2"
       d="m 21,55 h -1 c -1.6569,0 -3,-1.3431 -3,-3 V 38 c 0,-1.6569 1.3431,-3 3,-3 h 1 c 1.6569,0 3,1.3431 3,3 v 14 c 0,1.6569 -1.3431,3 -3,3 z"
       id="path4" />
    <rect
       x="17"
       y="13"
       width="38"
       height="19"
       fill="none"
       stroke="#000"
       stroke-linecap="round"
       stroke-linejoin="round"
       stroke-miterlimit="10"
       stroke-width="2"
       id="rect6" />
    <rect
       x="29"
       y="17"
       width="22"
       height="15"
       fill="none"
       stroke="#000"
       stroke-linecap="round"
       stroke-linejoin="round"
       stroke-miterlimit="10"
       stroke-width="2"
       id="rect8" />
    <circle
       cx="29"
       cy="39"
       r="2"
       fill="#000"
       stroke="none"
       id="circle10" />
    <circle
       cx="35"
       cy="39"
       r="2"
       fill="#000"
       stroke="none"
       id="circle12" />
    <circle
       cx="41"
       cy="39"
       r="2"
       fill="#000"
       stroke="none"
       id="circle14" />
    <circle
       cx="29"
       cy="45"
       r="2"
       fill="#000"
       stroke="none"
       id="circle16" />
    <circle
       cx="35"
       cy="45"
       r="2"
       fill="#000"
       stroke="none"
       id="circle18" />
    <circle
       cx="41"
       cy="45"
       r="2"
       fill="#000"
       stroke="none"
       id="circle20" />
    <circle
       cx="29"
       cy="51"
       r="2"
       fill="#000"
       stroke="none"
       id="circle22" />
    <circle
       cx="35"
       cy="51"
       r="2"
       fill="#000"
       stroke="none"
       id="circle24" />
    <circle
       cx="41"
       cy="51"
       r="2"
       fill="#000"
       stroke="none"
       id="circle26" />
    <rect
       x="46"
       y="37"
       width="9"
       height="8"
       fill="none"
       stroke="#000"
       stroke-linecap="round"
       stroke-linejoin="round"
       stroke-miterlimit="10"
       stroke-width="2"
       id="rect28" />
  </g>
</g></svg>