<svg xmlns="http://www.w3.org/2000/svg" width="24" height="24" viewBox="0 0 24 24"> <g transform="translate(0.37241983777308896 0.0) scale(0.4280195813964927)">
  
  <g
     id="line"
     transform="translate(-8.9179993,-7.0938001)">
    <circle
       cx="34.3857"
       cy="11.0625"
       r="2.9686999"
       fill="none"
       stroke="#000"
       stroke-miterlimit="10"
       stroke-width="2"
       id="circle2" />
    <path
       fill="none"
       stroke="#000"
       stroke-linecap="round"
       stroke-linejoin="round"
       stroke-miterlimit="10"
       stroke-width="2"
       d="m 26.333,28.083 4.2705,-2.9473 c 0.9053,-0.6245 2.1602,-1.875 2.7871,-2.7783 l 1.8858,-2.7148 c 0.6269,-0.9033 2.0029,-1.6236 3.0576,-1.6006 1.0537,0.0229 2.2773,0.8662 2.7197,1.8735 l 4.5996,10.4868 c 0.4424,1.0079 0.375,2.6231 -0.1494,3.5909 l -0.1338,0.248 c -0.5244,0.9678 -1.7803,2.1143 -2.79,2.5498 l -5.4922,2.3633 c -1.0098,0.4355 -1.4922,1.6221 -1.0713,2.6387 l 2.6348,6.3593 c 0.4209,1.0166 0.0908,2.2979 -0.7344,2.8477 -0.8252,0.5498 -1.9277,0.208 -2.4512,-0.7598 l -4.4062,-8.1543 c -0.5235,-0.9677 -0.9297,-2.5078 -0.9033,-3.4228 0.0273,-0.9151 0.8134,-2.1377 1.747,-2.7188 l 4.6485,-2.8886 c 0.9336,-0.5811 1.4795,-1.9287 1.2128,-2.9961 L 36.25,24"
       id="path4" />
    <circle
       cx="20.084"
       cy="52"
       r="10.166"
       fill="none"
       stroke="#000"
       stroke-miterlimit="10"
       stroke-width="2"
       id="circle6" />
    <circle
       cx="52.084"
       cy="52"
       r="10.166"
       fill="none"
       stroke="#000"
       stroke-miterlimit="10"
       stroke-width="2"
       id="circle8" />
    <polyline
       fill="none"
       stroke="#000"
       stroke-linecap="round"
       stroke-linejoin="round"
       stroke-miterlimit="10"
       stroke-width="2"
       points="20.25,52 22.25,28 26,28"
       id="polyline10" />
    <path
       fill="none"
       stroke="#000"
       stroke-miterlimit="10"
       stroke-width="2"
       d="m 37.9785,50.959 -0.9844,3.1328 C 36.6641,55.1416 35.5742,56 34.5723,56 c -1.002,0 -1.7071,-0.8926 -1.5655,-1.9834 l 0.8692,-6.7178"
       id="path12" />
    <line
       x1="42.4072"
       x2="38.7705"
       y1="36.8652"
       y2="48.439499"
       fill="none"
       stroke="#000"
       stroke-miterlimit="10"
       stroke-width="2"
       id="line14" />
  </g>
</g></svg>