<svg xmlns="http://www.w3.org/2000/svg" width="24" height="24" viewBox="0 0 24 24"> <g transform="translate(0.3971342829049469 0.0) scale(0.36381434602430957)">
  
  <g
     id="line"
     transform="translate(-4.2061272,-2.7282323)">
    <path
       fill="none"
       stroke="#000"
       stroke-linecap="round"
       stroke-linejoin="round"
       stroke-width="2"
       d="M 47.9476,40.8241 C 49,41 53.97,38.2016 56.0954,36.7986 c 0.1078,-0.0712 0.2223,-0.1421 0.3474,-0.213 4.0767,-2.3119 7.0259,-3.05 9.5563,0.3959 0.9708,1.3945 1.6556,4.3672 -0.0631,4.7371 C 58,44 52,52 52,52 c -2.0073,2.3086 -4.9867,6.8747 -7.027,9.1543 -7.2576,8.1088 -22.24,9.3151 -27.8661,0 -2.5855,-4.28 -4.28,-14.3835 -5.9365,-19.1019 C 9.9,38.4336 5.5662,27.7712 5.5662,27.7712 3.6287,21.9587 9.5975,19.615 12.3787,25.48 l 3.1633,7.2935 c 0.9192,2.1543 3.5826,3.0451 3.0183,-0.641 L 15.1438,16.1967 c -1.2651,-6.863 5.7662,-8.8 7.5405,-1.2692 l 3.677,17.8734 c 0,0.6266 1.9235,5.0953 1.512,-2.8356 L 26.9467,9.8858 c 0,-8.4583 7.82,-7.9583 7.82,0 l 1.0147,21.9877 c 0,0 0.6756,5.0852 2.515,0 l 3.6565,-20.4127 c 1.4572,-6.127 8.77,-3.94 7.5747,2.0134 l -4.199,23.441 c -0.3555,1.9131 0.05,3.8665 1.8836,3.8665 z"
       id="path2" />
  </g>
</g></svg>