<svg xmlns="http://www.w3.org/2000/svg" width="24" height="24" viewBox="0 0 24 24"> <g transform="scale(0.5078840642042486)">
  
  <g
     id="line"
     transform="translate(-12.6707,-11.824522)">
    <path
       fill="none"
       stroke="#000"
       stroke-linecap="round"
       stroke-linejoin="round"
       stroke-miterlimit="10"
       stroke-width="2"
       d="m 13.6707,21.3098 c 1.4142,9.8995 26.8701,35.3553 36.7696,36.7696 0,0 5.6569,0 8.4853,-5.6569 l -9.1924,-9.1924 -3.5355,3.5355 C 39.1266,45.3514 26.3987,32.6235 24.9845,25.5524 L 28.52,22.0169 19.3276,12.8245 c -5.6569,2.8284 -5.6569,8.4853 -5.6569,8.4853 z"
       id="path2" />
    <path
       fill="none"
       stroke="#000"
       stroke-linecap="round"
       stroke-linejoin="round"
       stroke-miterlimit="10"
       stroke-width="2"
       d="m 13.6707,21.3098 c 1.4142,9.8995 26.8701,35.3553 36.7696,36.7696 0,0 5.6569,0 8.4853,-5.6569 l -9.1924,-9.1924 -3.5355,3.5355 C 39.1266,45.3514 26.3987,32.6235 24.9845,25.5524 L 28.52,22.0169 19.3276,12.8245 c -5.6569,2.8284 -5.6569,8.4853 -5.6569,8.4853 z"
       id="path4" />
  </g>
</g></svg>