<svg xmlns="http://www.w3.org/2000/svg" width="24" height="24" viewBox="0 0 24 24"> <g transform="translate(1.5492618539847953 0.0) scale(0.4510895447705809)">
  
  <g
     id="line"
     transform="translate(-15.703501,-7.5751849)">
    <line
       x1="33.026001"
       x2="33.026001"
       y1="54.891701"
       y2="56.660999"
       fill="none"
       stroke="#000"
       stroke-linecap="round"
       stroke-linejoin="round"
       stroke-miterlimit="10"
       stroke-width="2"
       id="line2" />
    <path
       d="m 41.8917,27.0725 c 0,1.1045 -0.8965,2 -2,2 -1.1035,0 -2,-0.8955 -2,-2 0,-1.1035 0.8965,-2 2,-2 1.1035,0 2,0.8965 2,2"
       id="path4" />
    <path
       d="m 33.8917,27.0725 c 0,1.1045 -0.8965,2 -2,2 -1.1035,0 -2,-0.8955 -2,-2 0,-1.1035 0.8965,-2 2,-2 1.1035,0 2,0.8965 2,2"
       id="path6" />
    <path
       d="m 35.8915,37.0749 c -1.1518,0 -2.3037,-0.2861 -3.4472,-0.8579 -0.4942,-0.2471 -0.6944,-0.8477 -0.4473,-1.3418 0.2466,-0.4937 0.8462,-0.6944 1.3418,-0.4473 1.7178,0.8594 3.3877,0.8594 5.1055,0 0.4946,-0.2471 1.0947,-0.0464 1.3418,0.4473 0.247,0.4941 0.0468,1.0947 -0.4473,1.3418 -1.1436,0.5718 -2.2954,0.8579 -3.4473,0.8579 z"
       id="path8" />
    <path
       fill="none"
       stroke="#000"
       stroke-linecap="round"
       stroke-linejoin="round"
       stroke-miterlimit="10"
       stroke-width="2"
       d="m 47.1732,29.8627 c -0.5734,7.1564 -5.4055,12.7438 -11.2817,12.7438 -6.2621,0 -11.3386,-6.3456 -11.3386,-14.1732 v -1.2531"
       id="path10" />
    <path
       fill="none"
       stroke="#000"
       stroke-linecap="round"
       stroke-linejoin="round"
       stroke-miterlimit="10"
       stroke-width="2"
       d="m 16.8316,57.9252 c 0,0 -2,-13 10,-13 3.1919,2.128 5.9264,3.5985 9,3.5922 h -0.125 c 3.0736,0.0063 5.8081,-1.4642 9,-3.5922 1.8775,0 3.4123,0.3183 4.6656,0.8551"
       id="path12" />
    <path
       fill="none"
       stroke="#000"
       stroke-linecap="round"
       stroke-linejoin="round"
       stroke-miterlimit="10"
       stroke-width="2"
       d="m 58.3099,43.0707 h -1.1793 v 6.4784 l 3.8661,8.8385 c 0,0 0.3081,1.3805 -0.7928,1.3805 -0.5364,0 -9.8482,0.0116 -10.3846,0.0116 -1.1009,0 -0.7928,-1.3804 -0.7928,-1.3804 l 3.8661,-8.8286 v -6.5 h -1.0854"
       id="path14" />
    <line
       x1="52.892601"
       x2="57.1306"
       y1="43.070702"
       y2="43.070702"
       fill="none"
       stroke="#000"
       stroke-linecap="round"
       stroke-linejoin="round"
       stroke-miterlimit="10"
       stroke-width="2"
       id="line16" />
    <path
       fill="none"
       stroke="#000"
       stroke-linecap="round"
       stroke-linejoin="round"
       stroke-miterlimit="10"
       stroke-width="2"
       d="m 32.2796,22.3852 c 4.2811,-1.6427 6.6482,-3.9688 6.6482,-3.9688 0,0 3.8316,3.9334 7.8297,6.0854"
       id="path18" />
    <path
       fill="none"
       stroke="#000"
       stroke-linecap="round"
       stroke-linejoin="round"
       stroke-miterlimit="10"
       stroke-width="2"
       d="M 20.7138,42.7252 C 19.3296,33.863 20.3183,24.6743 20.3183,24.6743 c 0,0 0.7556,-9.7405 7.8405,-14.3982 7.0849,-4.6577 12.0875,1.6059 12.0875,1.6059 0,0 3.3103,-1.9898 6.05,0.4966 2.2111,2.0066 4.1143,6.5052 4.8177,12.2957 0.4325,3.5614 0.5575,9.7039 0.2505,14.8494"
       id="path20" />
    <path
       fill="none"
       stroke="#000"
       stroke-linecap="round"
       stroke-linejoin="round"
       stroke-miterlimit="10"
       stroke-width="2"
       d="m 26.3376,44.9252 c 0,0 4.831,7.1009 11.0601,7.7101 v 5.2899"
       id="path22" />
    <line
       x1="33.026001"
       x2="33.026001"
       y1="56.134201"
       y2="57.903599"
       fill="none"
       stroke="#000"
       stroke-linecap="round"
       stroke-linejoin="round"
       stroke-miterlimit="10"
       stroke-width="2"
       id="line24" />
    <path
       fill="none"
       stroke="#000"
       stroke-linecap="round"
       stroke-linejoin="round"
       stroke-miterlimit="10"
       stroke-width="2"
       d="m 23.1223,25.0725 c 0,0 12.7029,-7.0231 26.2497,0.8022 l -3.8831,6.0255 c 0,0 -6.7095,0.9322 -9.2418,-1.6 -2.5912,2.5912 -8.4903,1.6 -8.4903,1.6 z"
       id="path26" />
  </g>
</g></svg>