<svg xmlns="http://www.w3.org/2000/svg" width="24" height="24" viewBox="0 0 24 24"> <g transform="translate(4.665851829260703 0.0) scale(0.4059190575750179)">
  
  <g
     id="line"
     transform="translate(-17.933087,-6.279913)">
    <path
       id="Leg_Line_1"
       fill="none"
       stroke="#000"
       stroke-linecap="round"
       stroke-linejoin="round"
       stroke-width="2"
       d="m 53.0691,8.9416 c -3,7 -12.5379,11.949 -12.5,14.5 0.042,2.8237 1.2939,8.5391 1.5,11.5 a 121.39,121.39 0 0 1 0,20 c -0.1448,1.9947 4.4567,6.3415 0,9 -1.6764,1 -6,-2 -14,0 a 24.1339,24.1339 0 0 1 -7.5895,0.2906 1.8,1.8 0 0 1 -0.5166,-3.41 c 2.2278,-1.0376 5.1861,-1.9593 7.1061,-2.8809 2.9511,-1.4165 4.7874,-2.833 5.8248,-4.6706 a 1.794,1.794 0 0 0 0.2176,-0.6956 c 0.8519,-8.01 -2.58,-20.217 -5.0424,-25.6338 a 8.0774,8.0774 0 0 1 -1,-4 c 0,-2 1,-3 2,-5 2.2429,-4.4858 2.8473,-7.1758 3.9283,-9.4321 A 2.0073,2.0073 0 0 1 34.7192,7.5083 52.7188,52.7188 0 0 1 49.3745,8.19" />
    <path
       id="Leg_Line_2"
       fill="none"
       stroke="#000"
       stroke-linecap="round"
       stroke-linejoin="round"
       stroke-width="2"
       d="m 33.0691,19.9416 c -1.3706,1.69 -1.78,3.669 -1,5 a 2.9063,2.9063 0 0 0 1,1" />
  </g>
</g></svg>