<svg xmlns="http://www.w3.org/2000/svg" width="24" height="24" viewBox="0 0 24 24"> <g transform="scale(0.5)">
  
  <g
     id="line"
     transform="translate(-12,-12)">
    <circle
       cx="36"
       cy="36"
       r="23"
       fill="none"
       stroke="#000"
       stroke-miterlimit="10"
       stroke-width="2"
       id="circle2" />
    <path
       fill="none"
       stroke="#000"
       stroke-miterlimit="10"
       stroke-width="2"
       d="m 31.7799,31.4626 c 0,2.4645 -2.0004,4.4626 -4.4626,4.4626 -2.4622,0 -4.4626,-1.9981 -4.4626,-4.4626 0,-2.4622 2.0004,-4.4626 4.4626,-4.4626 2.4622,0 4.4626,2.0004 4.4626,4.4626"
       id="path4" />
    <path
       d="m 29.3173,31.9252 c 0,1.1045 -0.8965,2 -2,2 -1.1035,0 -2,-0.8955 -2,-2 0,-1.1035 0.8965,-2 2,-2 1.1035,0 2,0.8965 2,2"
       id="path6" />
    <path
       fill="none"
       stroke="#000"
       stroke-miterlimit="10"
       stroke-width="2"
       d="m 49.7799,31.4626 c 0,2.4645 -2.0004,4.4626 -4.4626,4.4626 -2.4622,0 -4.4626,-1.9981 -4.4626,-4.4626 0,-2.4622 2.0004,-4.4626 4.4626,-4.4626 2.4622,0 4.4626,2.0004 4.4626,4.4626"
       id="path8" />
    <path
       d="m 47.3173,31.9252 c 0,1.1045 -0.8965,2 -2,2 -1.1035,0 -2,-0.8955 -2,-2 0,-1.1035 0.8965,-2 2,-2 1.1035,0 2,0.8965 2,2"
       id="path10" />
    <path
       d="m 22.8547,31 c 0,-2.4622 2.0004,-4.4626 4.4626,-4.4626 2.4622,0 4.4626,2.0004 4.4626,4.4626"
       id="path12" />
    <path
       d="m 40.8547,31 c 0,-2.4622 2.0004,-4.4626 4.4626,-4.4626 2.4622,0 4.4626,2.0004 4.4626,4.4626"
       id="path14" />
    <path
       fill="none"
       stroke="#000"
       stroke-linecap="round"
       stroke-linejoin="round"
       stroke-miterlimit="10"
       stroke-width="2"
       d="m 29,43 c 1.2841,-0.6376 3.9847,-1.0308 6.8421,-0.9981 2.6235,0.03 4.9897,0.4146 6.1579,0.9981"
       id="path16" />
  </g>
</g></svg>