<svg xmlns="http://www.w3.org/2000/svg" width="24" height="24" viewBox="0 0 24 24"> <g transform="translate(0.0 4.06406823348485) scale(0.3797697538265996)">
  
  <g
     id="line"
     transform="translate(-4.5462153,-21.544814)">
    <path
       fill="none"
       stroke="#000"
       stroke-linecap="round"
       stroke-linejoin="round"
       stroke-miterlimit="10"
       stroke-width="2"
       d="m 19.927,36.0341 c -6.75,2.4057 -9.6365,-1.2167 -9.6365,-1.2167 -3.0683,0 -4.2715,-2.4868 -4.6998,-3.8443 -0.1516,-0.4805 0.0785,-0.9949 0.5357,-1.2065 l 6.2553,-2.895 c 0.9073,-0.4199 1.8704,-0.7067 2.8596,-0.8514 l 4.1816,-0.6119 c 0,0 5.1722,-6.4608 5.5874,0.0426 0,0 0.3333,5.6667 -2.8199,4.4545"
       id="path2" />
    <path
       fill="none"
       stroke="#000"
       stroke-linecap="round"
       stroke-linejoin="round"
       stroke-miterlimit="10"
       stroke-width="2"
       d="m 32.499,35.6476 c 2.4907,3.5284 0,11.0005 0,11.0005 l -7.9635,7.0895 c -0.4845,0.4893 -1.1866,0.6949 -1.8585,0.5443 l -0.0865,-0.0194 c -1.2654,-0.2836 -1.9277,-1.6753 -1.3501,-2.8363 1.4782,-2.9711 2.818,-6.6461 2.818,-6.6461 -1.4108,-0.7054 -2.209,-2.6946 -2.9129,-4.8293"
       id="path4" />
    <path
       fill="none"
       stroke="#000"
       stroke-linecap="round"
       stroke-linejoin="round"
       stroke-miterlimit="10"
       stroke-width="2"
       d="M 10.3333,62.3382 C 23.8333,54.9434 40.5,58.375 52.6769,60.1174 60.8957,61.2934 71.0351,53.7741 64.8545,39.8448 56.0822,20.0743 38.5872,26.2384 35.8198,27.2762 33.0524,28.314 25.0103,25.4508 25.0103,25.4508"
       id="path6" />
    <path
       fill="none"
       stroke="#000"
       stroke-linecap="round"
       stroke-linejoin="round"
       stroke-miterlimit="10"
       stroke-width="2"
       d="m 60.677,50.375 c -5.302,6.375 -14.5356,1.7219 -14.5356,1.7219 0,0 -4.7982,2.4447 -5.4176,2.4447 h -0.1645 c -1.5297,0 -2.4931,-1.6473 -1.7431,-2.9805 l 2.3608,-4.777 c -5.6878,-8.5793 6.2429,-12.9353 6.2429,-12.9353"
       id="path8" />
  </g>
</g></svg>