<svg xmlns="http://www.w3.org/2000/svg" width="24" height="24" viewBox="0 0 24 24"> <g transform="translate(0.0 6.8) scale(0.4)">
  
  <g
     id="line"
     transform="translate(-6,-23)">
    <path
       fill="none"
       stroke="#000"
       stroke-linecap="round"
       stroke-linejoin="round"
       stroke-miterlimit="10"
       stroke-width="2"
       d="m 7,24 c 0,4.5035 1.4885,8.6593 4.0003,12.0024 l -0.0056,0.0027 C 8.4863,39.3469 7,43.4999 7,48 12.7457,47.0402 17.2971,43.4039 18.6138,38.7566 l 0.0066,-0.0057 C 21.0555,44.0525 30.375,48 41.5,48 54.4787,48 65,42.6274 65,36 65,29.3726 54.4787,24 41.5,24 30.373,24 21.0522,27.9489 18.6191,33.252 l 0.0089,0.0042 C 17.3466,28.6438 12.8817,25.0183 7.2187,24"
       id="path2" />
    <circle
       cx="53"
       cy="34"
       r="2"
       fill="#000"
       stroke="none"
       id="circle4" />
  </g>
</g></svg>