<svg xmlns="http://www.w3.org/2000/svg" width="24" height="24" viewBox="0 0 24 24"> <g transform="translate(0.0022680387756093268 0.0) scale(0.47753211403466883)">
  
  <g
     id="line"
     transform="translate(-10.7511,-10.6067)">
    <path
       fill="#000"
       stroke="none"
       d="m 58.8737,25.607 c -1.2565,-2.8512 -3.0253,-5.4318 -5.2483,-7.6548 -2.2132,-2.2133 -4.7745,-3.9627 -7.616,-5.2094 -0.0871,-0.0483 -0.1547,-0.0677 -0.174,-0.0677 -2.2906,-1.0052 -4.6972,-1.6431 -7.1812,-1.9137 -0.9181,-0.1064 -1.8363,-0.1547 -2.7738,-0.1547 -0.058,0 -0.1064,0 -0.1547,0.0097 -0.2513,0 -0.4929,0.0097 -0.6863,0.0193 -0.0579,0 -0.1159,0 -0.1739,0.0096 -0.5992,0.0193 -1.1888,0.0677 -1.7784,0.145 -12.1683,1.3338 -21.7948,11.4821 -22.307,23.8728 -0.0193,0.0966 -0.0193,0.1836 -0.0097,0.2803 -0.0193,0.2706 -0.0193,0.5316 -0.0193,0.8022 0,3.4214 0.6862,6.7365 2.0297,9.8584 0.029,0.087 0.0676,0.1836 0.116,0.2609 0.9181,2.0877 2.107,4.0207 3.5471,5.7701 0,0.0097 0.0097,0.0097 0.0097,0.0097 0.1063,0.1449 0.2126,0.2803 0.3383,0.4059 0.4059,0.4929 0.8505,0.9665 1.3048,1.4207 0.4639,0.4833 0.9472,0.9279 1.4111,1.3242 1.9137,1.643 4.011,2.9575 6.2437,3.924 3.1895,1.4207 6.6013,2.1456 10.1291,2.1456 0.0483,0 0.0966,-0.0097 0.1449,-0.0097 0.1837,0 0.3577,-0.0097 0.5123,-0.0193 5.741,-0.145 11.3178,-2.2907 15.7058,-6.0504 1.0342,-0.8892 1.9814,-1.8461 2.8415,-2.8706 0.0097,-0.0097 0.0193,-0.0097 0.0193,-0.0193 0.029,-0.0387 0.058,-0.0677 0.0871,-0.116 0.0097,-0.0193 0.029,-0.0386 0.0387,-0.058 3.5567,-4.2913 5.6154,-9.694 5.7604,-15.2998 C 61,36.1903 61,35.9583 61,35.7263 61,32.2082 60.2848,28.7965 58.8737,25.607 Z M 54.998,50.5043 54.9883,50.4946 c 0.0097,-0.0097 0.0194,-0.0193 0.0289,-0.029 z m 4.0593,-14.1691 c -0.1161,4.2913 -1.4207,8.428 -3.7115,11.9654 -0.3381,0.5412 -0.7152,1.0728 -1.1114,1.5754 -0.3866,0.5123 -0.8023,1.0051 -1.2468,1.4884 -0.4349,0.4833 -0.8891,0.9472 -1.3724,1.3821 -0.203,0.1933 -0.4156,0.3866 -0.6284,0.5703 -3.5954,3.0832 -8.0605,4.9968 -12.7579,5.4801 -0.5896,0.058 -1.1791,0.0967 -1.7783,0.116 -0.1643,0.0097 -0.3479,0.0097 -0.5219,0.0097 -0.0676,0 -0.1353,0 -0.2029,0.0097 -0.7346,0 -1.4594,-0.0386 -2.1843,-0.116 -2.4259,-0.2416 -4.7746,-0.8699 -7.0169,-1.8654 -2.0587,-0.8892 -3.9917,-2.107 -5.7604,-3.6244 -0.2223,-0.1836 -0.4446,-0.377 -0.6669,-0.5896 -0.2029,-0.203 -0.4156,-0.406 -0.6282,-0.6283 -0.2513,-0.2513 -0.4929,-0.5026 -0.7249,-0.7635 -0.4446,-0.4736 -0.8602,-0.9762 -1.2468,-1.4788 -0.3963,-0.5122 -0.7733,-1.0438 -1.1115,-1.5851 -0.6766,-1.0245 -1.2564,-2.107 -1.7494,-3.2378 0,-0.0194 -0.0097,-0.029 -0.0097,-0.0386 -0.0097,-0.029 -0.0193,-0.058 -0.0386,-0.087 -1.2661,-2.8995 -1.9041,-5.9924 -1.9041,-9.1722 0,-0.2513 0,-0.4929 0.0193,-0.8022 0,-0.0193 0.0097,-0.0483 0.0097,-0.0677 0,-0.0097 0,-0.0097 0,-0.0097 v -0.0096 c 0.4059,-11.3758 9.1528,-20.7316 20.2677,-22.1137 0.6379,-0.087 1.2758,-0.1353 1.9331,-0.1547 0.029,-0.0097 0.0579,-0.0097 0.087,-0.0097 0.0192,0 0.0483,0 0.0773,-0.0096 0.2416,-0.0193 0.4833,-0.0193 0.7249,-0.0193 0.0774,0 0.1547,0 0.2223,-0.0097 0.2803,0 0.551,0.0097 0.8216,0.029 0.6475,0.0193 1.2951,0.0676 1.933,0.1546 2.165,0.261 4.2719,0.8409 6.2823,1.7204 0.0194,0.0096 0.0579,0.0193 0.087,0.029 0.0097,0.0097 0.0289,0.0193 0.0386,0.0193 2.6385,1.1501 5.0162,2.7739 7.0749,4.8325 2.049,2.049 3.6825,4.4266 4.8422,7.0652 1.3048,2.9382 1.962,6.089 1.962,9.3364 0,0.1935 0,0.3868 -0.0097,0.6091 z"
       id="path2" />
    <path
       fill="#000"
       stroke="none"
       d="m 54.9883,50.4946 0.0097,0.0097 0.0192,-0.0387 c -0.0095,0.0097 -0.0192,0.0193 -0.0289,0.029 z"
       id="path4" />
    <path
       fill="#000"
       stroke="none"
       d="m 32.9809,14.6855 c -10.071,1.3724 -17.9481,9.8777 -18.3346,20.2097 0,0.0677 -0.0097,0.145 -0.0097,0.2126 -0.0193,0.1643 -0.0193,0.3963 -0.0193,0.6379 0,2.9189 0.5896,5.7411 1.7494,8.399 0.0194,0.0483 0.0387,0.0966 0.058,0.1449 0.4156,0.9569 0.9085,1.8847 1.4594,2.7643 0.3479,0.5509 0.7152,1.0825 1.1115,1.5947 l 1.4981,-1.2371 12.4873,-10.187 1.9331,-1.585 V 14.5211 c -0.6574,0.0194 -1.305,0.087 -1.9332,0.1644 z m 0,20.0454 -13.5795,11.0858 c -0.4446,-0.7249 -0.8409,-1.4787 -1.1888,-2.2616 -0.029,-0.0677 -0.0484,-0.1257 -0.0773,-0.1836 -1.0535,-2.4066 -1.5851,-4.9775 -1.5851,-7.6258 0,-0.1836 0,-0.3866 0.0097,-0.4833 0.0097,-0.1063 0.0097,-0.203 0.0194,-0.3093 0.3576,-9.2978 7.3841,-16.9622 16.4016,-18.3057 z"
       id="path6" />
    <path
       fill="#000"
       stroke="none"
       d="m 16.7918,52.0507 c -0.0773,-0.0483 -0.1546,-0.1063 -0.2126,-0.1836 -0.058,-0.0677 -0.0967,-0.145 -0.1257,-0.2223 0.1064,0.1449 0.2127,0.2802 0.3383,0.4059 z"
       id="path8" />
    <path
       fill="#000"
       stroke="none"
       d="m 55.1913,51.78 c -0.0193,0.029 -0.0387,0.058 -0.058,0.087 -0.0097,0.0097 -0.0193,0.0193 -0.029,0.029 0.0289,-0.0386 0.058,-0.0676 0.087,-0.116 z"
       id="path10" />
    <path
       fill="#000"
       stroke="none"
       d="m 55.0173,50.4656 -0.0192,0.0387 -0.0097,-0.0097 c 0.0096,-0.0097 0.0193,-0.0193 0.0289,-0.029 z"
       id="path12" />
    <path
       fill="#000"
       stroke="none"
       d="m 34.334,38.6259 -1.3531,1.0922 -11.2405,9.1818 -1.4981,1.2275 c 0.1933,0.2126 0.3866,0.4156 0.5896,0.6186 0.2707,0.2803 0.5316,0.5219 0.7829,0.7538 0.1353,0.1257 0.261,0.2416 0.3963,0.3479 1.6334,1.4014 3.4021,2.513 5.2868,3.3345 1.8267,0.8119 3.7308,1.3531 5.6831,1.6141 0.6379,0.0967 1.2855,0.1547 1.9331,0.174 V 38.1426 Z m -1.3531,16.2083 c -1.6817,-0.2416 -3.3248,-0.7249 -4.9195,-1.4304 -1.7011,-0.7346 -3.3055,-1.7494 -4.8036,-3.0349 -0.0386,-0.0387 -0.087,-0.0677 -0.1257,-0.116 l 9.8487,-8.0414 v 12.6227 z"
       id="path14" />
    <path
       fill="#000"
       stroke="none"
       d="M 49.9915,48.9192 38.78,39.7663 37.3785,38.6258 36.847,38.1812 v 18.7793 c 0.6475,-0.0193 1.2951,-0.087 1.933,-0.174 4.0109,-0.5606 7.8287,-2.2713 10.9505,-4.9389 0.1256,-0.1063 0.2513,-0.2223 0.3769,-0.3383 0.4929,-0.4349 0.9568,-0.8988 1.382,-1.3724 z m -1.5174,1.4594 c -2.7643,2.3679 -6.1374,3.9047 -9.6941,4.4556 V 42.2599 l 9.81,8.0123 c -0.0388,0.0388 -0.0773,0.0677 -0.1159,0.1064 z"
       id="path16" />
    <path
       fill="#000"
       stroke="none"
       d="m 55.3362,27.1727 c -1.063,-2.4259 -2.5612,-4.6006 -4.4458,-6.4853 -1.8751,-1.875 -4.0497,-3.3634 -6.4563,-4.417 -0.0484,-0.0193 -0.0966,-0.0386 -0.145,-0.058 C 42.5203,15.4489 40.6744,14.927 38.78,14.6757 38.1421,14.579 37.4945,14.521 36.847,14.5017 v 21.1859 l 1.933,1.5754 12.4679,10.1773 1.4981,1.2178 c 0.3866,-0.5122 0.7636,-1.0438 1.0922,-1.5947 2.0393,-3.2088 3.1894,-6.9299 3.2862,-10.7766 v -0.0966 c 0.0097,-0.145 0.0097,-0.3093 0.0097,-0.464 -10e-5,-2.9767 -0.6092,-5.8569 -1.7979,-8.5535 z m -0.1353,8.9112 c -0.0097,0.0484 -0.0097,0.0967 -0.0097,0.1547 C 55.1041,39.66 54.099,42.9751 52.34,45.836 L 38.78,34.7695 V 16.6281 c 1.6333,0.2416 3.2184,0.6959 4.7455,1.3628 0.058,0.0193 0.1161,0.0483 0.174,0.0677 2.1746,0.9568 4.1366,2.3003 5.828,3.9917 1.7107,1.7204 3.0736,3.7017 4.0401,5.9054 1.0825,2.4452 1.6335,5.0645 1.6335,7.7707 v 0.3575 z"
       id="path18" />
  </g>
</g></svg>