<svg xmlns="http://www.w3.org/2000/svg" width="24" height="24" viewBox="0 0 24 24"> <g transform="scale(0.4)">
  
  <g
     id="line"
     transform="translate(-6,-6)">
    <circle
       cx="14"
       cy="31"
       r="2"
       fill="none"
       stroke="#000"
       stroke-linecap="round"
       stroke-linejoin="round"
       stroke-miterlimit="10"
       stroke-width="2"
       id="circle2" />
    <circle
       cx="20"
       cy="39"
       r="2"
       fill="none"
       stroke="#000"
       stroke-linecap="round"
       stroke-linejoin="round"
       stroke-miterlimit="10"
       stroke-width="2"
       id="circle4" />
    <circle
       cx="52"
       cy="40"
       r="2"
       fill="none"
       stroke="#000"
       stroke-linecap="round"
       stroke-linejoin="round"
       stroke-miterlimit="10"
       stroke-width="2"
       id="circle6" />
    <circle
       cx="58"
       cy="32"
       r="2"
       fill="none"
       stroke="#000"
       stroke-linecap="round"
       stroke-linejoin="round"
       stroke-miterlimit="10"
       stroke-width="2"
       id="circle8" />
    <circle
       cx="50"
       cy="25"
       r="2"
       fill="none"
       stroke="#000"
       stroke-linecap="round"
       stroke-linejoin="round"
       stroke-miterlimit="10"
       stroke-width="2"
       id="circle10" />
    <circle
       cx="42"
       cy="14"
       r="2"
       fill="none"
       stroke="#000"
       stroke-linecap="round"
       stroke-linejoin="round"
       stroke-miterlimit="10"
       stroke-width="2"
       id="circle12" />
    <circle
       cx="33"
       cy="20"
       r="2"
       fill="none"
       stroke="#000"
       stroke-linecap="round"
       stroke-linejoin="round"
       stroke-miterlimit="10"
       stroke-width="2"
       id="circle14" />
    <circle
       cx="21"
       cy="20"
       r="2"
       fill="none"
       stroke="#000"
       stroke-linecap="round"
       stroke-linejoin="round"
       stroke-miterlimit="10"
       stroke-width="2"
       id="circle16" />
    <circle
       cx="36"
       cy="36"
       r="29"
       fill="none"
       stroke="#000"
       stroke-linecap="round"
       stroke-linejoin="round"
       stroke-miterlimit="10"
       stroke-width="2"
       id="circle18" />
    <circle
       cx="36"
       cy="36"
       r="10"
       fill="none"
       stroke="#000"
       stroke-linecap="round"
       stroke-linejoin="round"
       stroke-miterlimit="10"
       stroke-width="2"
       id="circle20" />
    <path
       fill="none"
       stroke="#000"
       stroke-linecap="round"
       stroke-linejoin="round"
       stroke-miterlimit="10"
       stroke-width="2"
       d="m 8,41 h 2 c 2.7607,0 5,2.2383 5,5 0,2.7617 2.2393,5 5,5 2.7607,0 5,-2.2383 5,-5 0,-1.6562 1.3428,-3 3,-3 h 0.667"
       id="path22" />
    <path
       fill="none"
       stroke="#000"
       stroke-linecap="round"
       stroke-linejoin="round"
       stroke-miterlimit="10"
       stroke-width="2"
       d="M 58.8252,53.7607 C 57.752,53.3047 57,52.2393 57,51 c 0,-1.6562 -1.3428,-3 -3,-3 -1.6572,0 -3,1.3438 -3,3 0,2.7617 -2.2393,5 -5,5 -2.7607,0 -5,-2.2383 -5,-5 0,-2.7617 -2.2393,-5 -5,-5"
       id="path24" />
  </g>
</g></svg>