<svg xmlns="http://www.w3.org/2000/svg" width="24" height="24" viewBox="0 0 24 24"> <g transform="translate(7.157886326855199 0.0) scale(0.42105336288215656)">
  
  <g
     id="line"
     transform="translate(-25,-7.0001009)">
    <polygon
       fill="none"
       stroke="#000"
       stroke-linecap="round"
       stroke-linejoin="round"
       stroke-width="2"
       points="41.207,18.386 42.685,15.873 44.163,13.359 45.556,15.921 46.949,18.484 44.078,18.435 "
       id="polygon2" />
    <polyline
       fill="none"
       stroke="#000"
       stroke-linecap="round"
       stroke-linejoin="round"
       stroke-width="2"
       points="40.7 19.691 40.7 15.202 39.65 13.353 35.45 13.353 34.4 15.202 34.4 19.691"
       id="polyline4" />
    <polygon
       fill="none"
       stroke="#000"
       stroke-linecap="round"
       stroke-linejoin="round"
       stroke-width="2"
       points="33.857,14.161 35.695,11.081 37.532,8 39.265,11.141 40.998,14.283 37.428,14.222 "
       id="polygon6" />
    <rect
       x="26"
       y="22.860201"
       width="10.5"
       height="40.139801"
       fill="none"
       stroke="#000"
       stroke-linecap="round"
       stroke-linejoin="round"
       stroke-width="2"
       id="rect8" />
    <rect
       x="36.5"
       y="22.860201"
       width="10.5"
       height="40.139801"
       fill="none"
       stroke="#000"
       stroke-linecap="round"
       stroke-linejoin="round"
       stroke-width="2"
       id="rect10" />
    <line
       x1="39.650002"
       x2="39.650002"
       y1="27.0854"
       y2="29.198"
       fill="none"
       stroke="#000"
       stroke-linecap="round"
       stroke-linejoin="round"
       stroke-width="2"
       id="line12" />
    <line
       x1="42.799999"
       x2="42.799999"
       y1="37.648499"
       y2="39.7612"
       fill="none"
       stroke="#000"
       stroke-linecap="round"
       stroke-linejoin="round"
       stroke-width="2"
       id="line14" />
    <line
       x1="39.650002"
       x2="39.650002"
       y1="50.324299"
       y2="52.436901"
       fill="none"
       stroke="#000"
       stroke-linecap="round"
       stroke-linejoin="round"
       stroke-width="2"
       id="line16" />
    <line
       x1="27.049999"
       x2="27.049999"
       y1="17.5786"
       y2="21.8039"
       fill="none"
       stroke="#000"
       stroke-linecap="round"
       stroke-linejoin="round"
       stroke-width="2"
       id="line18" />
    <polygon
       fill="none"
       stroke="#000"
       stroke-linejoin="round"
       stroke-width="2"
       points="26.507,17.33 28.302,14.32 30.098,11.311 31.791,14.38 33.484,17.449 29.995,17.389 "
       id="polygon20" />
    <line
       x1="45.950001"
       x2="45.950001"
       y1="22.860201"
       y2="18.634899"
       fill="none"
       stroke="#000"
       stroke-linecap="round"
       stroke-linejoin="round"
       stroke-width="2"
       id="line22" />
    <line
       x1="30.200001"
       x2="30.200001"
       y1="37.648499"
       y2="39.7612"
       fill="none"
       stroke="#000"
       stroke-linecap="round"
       stroke-linejoin="round"
       stroke-width="2"
       id="line24" />
    <line
       x1="33.349998"
       x2="33.349998"
       y1="50.324299"
       y2="52.436901"
       fill="none"
       stroke="#000"
       stroke-linecap="round"
       stroke-linejoin="round"
       stroke-width="2"
       id="line26" />
    <line
       x1="37.549999"
       x2="37.560501"
       y1="17.5786"
       y2="17.5786"
       fill="none"
       stroke="#000"
       stroke-linecap="round"
       stroke-linejoin="round"
       stroke-width="2"
       id="line28" />
  </g>
</g></svg>