<svg xmlns="http://www.w3.org/2000/svg" width="24" height="24" viewBox="0 0 24 24"> <g transform="translate(2.540904700146797 0.0) scale(0.4189234714093458)">
  
  <g
     id="line"
     transform="translate(-11.39944,-5.9112)">
    <circle
       cx="33.9193"
       cy="9.8663998"
       r="2.8598001"
       fill="none"
       stroke="#000"
       stroke-miterlimit="10"
       stroke-width="2"
       id="circle2" />
    <path
       fill="none"
       stroke="#000"
       stroke-linecap="round"
       stroke-linejoin="round"
       stroke-width="2"
       d="M 42.4987,33.8888 32.68,37.6065 c -0.9532,0.3813 -2.5738,0.858 -3.6224,1.144 l -14.2991,3.8131 a 1.8051,1.8051 0 0 1 -2.2878,-0.9533 c -0.286,-0.7626 0.286,-1.7159 1.3346,-2.1925 l 10.7719,-4.3851 a 22.5882,22.5882 0 0 0 3.3365,-1.8112 l 6.3869,-4.3851 c 0.8579,-0.5719 2.1925,-1.62 2.86,-2.1925 a 3.2033,3.2033 0 0 0 0.6673,-2.9551 l -0.286,-0.858 a 6.0828,6.0828 0 0 0 -1.62,-2.3831 6.8574,6.8574 0 0 1 -0.9533,-0.572"
       id="path4" />
    <path
       fill="none"
       stroke="#000"
       stroke-linecap="round"
       stroke-linejoin="round"
       stroke-width="2"
       d="m 38.6856,35.5093 2.0972,10.2 c 0.1907,1.0486 0.4767,2.7645 0.572,3.8131 l 0.7626,10.772 c 0.0953,1.0486 0.7626,1.9065 1.5253,1.9065 a 1.81,1.81 0 0 0 1.5252,-1.9065 l 0.9533,-12.3925 c 0.0953,-1.0486 0.0953,-2.7645 0.0953,-3.8131 v -10.486 c 0,-1.0486 -0.0953,-2.7645 -0.0953,-3.8131 L 45.4539,20.257 a 6.6691,6.6691 0 0 0 -1.43,-3.2411 l -2.4785,-2.5738"
       id="path6" />
    <path
       fill="none"
       stroke="#000"
       stroke-linecap="round"
       stroke-linejoin="round"
       stroke-width="2"
       d="m 55.5585,6.9112 -5.72,3.7178 a 22.0593,22.0593 0 0 1 -3.3364,1.7159 l -3.5271,1.3345 c -0.9533,0.3813 -2.5739,0.9533 -3.6225,1.2393 l -2.5738,0.7626 a 14.1834,14.1834 0 0 0 -3.4318,1.6206 l -2.6691,1.9065 a 22.0512,22.0512 0 0 1 -3.3365,1.7159 L 18.667,24.07"
       id="path8" />
    <path
       fill="none"
       stroke="#000"
       stroke-linecap="round"
       stroke-linejoin="round"
       stroke-width="2"
       d="m 29.9217,9.5206 c 0,0 -0.6578,-0.0243 -0.8721,0.3876 -0.2526,0.4839 -0.0105,1.7943 -0.25,2.5063 a 3.3636,3.3636 0 0 1 -1.2931,1.7449"
       id="path10" />
  </g>
</g></svg>