<svg xmlns="http://www.w3.org/2000/svg" width="24" height="24" viewBox="0 0 24 24"> <g transform="translate(2.9482063936169407 0.0) scale(0.43491009565684463)">
  
  <g
     id="line"
     transform="translate(-15.3804,-6.000399)">
    <path
       fill="none"
       stroke="#000"
       stroke-linecap="round"
       stroke-linejoin="round"
       stroke-width="2"
       d="m 30.6145,13.7375 c 0.284,-1.9293 -1.0499,-3.7236 -2.9792,-4.0075 -1.9293,-0.2839 -3.7236,1.0498 -4.0075,2.9792 -0.0455,0.3093 -0.0498,0.6232 -0.0126,0.9336 l -0.2572,18.9982 0.0048,0.9513 0.1928,-9.6253 c 0.284,-1.9293 -1.0499,-3.7236 -2.9792,-4.0075 -1.9293,-0.2839 -3.7236,1.0498 -4.0075,2.9792 -0.0455,0.3093 -0.0498,0.6232 -0.0126,0.9336 l -0.1759,12.9988 0.0526,10.0853 c 0.4248,8.3102 7.7518,13.6293 16.06,13.2046 4.7918,-0.2654 9.32,-2.2781 12.7278,-5.6572 2.9178,-3.0904 10.0855,-11.5349 10.0855,-11.5349 1.4629,-2.1582 0.3282,-5.4939 -0.8007,-4.6726 L 44.63,42.9472 44.5911,37.5476 44.63,42.9472 44.5911,37.5476 44.6306,15.6971 c 0.284,-1.9293 -1.0499,-3.7236 -2.9792,-4.0075 -1.9293,-0.2839 -3.7236,1.0498 -4.0075,2.9792 -0.0455,0.3093 -0.0498,0.6232 -0.0126,0.9336 l -0.0947,6.9994 -0.1861,10.6365 0.3671,-22.1928 c 0.284,-1.9293 -1.0499,-3.7236 -2.9792,-4.0075 -1.9293,-0.284 -3.7236,1.0498 -4.0075,2.9792 -0.0455,0.3093 -0.0498,0.6232 -0.0126,0.9336 l -0.1758,20.4538"
       id="path2" />
  </g>
</g></svg>