<svg xmlns="http://www.w3.org/2000/svg" width="24" height="24" viewBox="0 0 24 24"> <g transform="translate(0.0 3.136996533818108) scale(0.3714645225610603)">
  
  <g
     id="line"
     transform="translate(-3.408387,-15.074854)">
    <path
       fill="none"
       stroke="#000"
       stroke-linecap="round"
       stroke-linejoin="round"
       stroke-miterlimit="10"
       stroke-width="2"
       d="m 23.0574,22.9291 c 0,0 3.6604,-3.4572 6.1926,-0.8662 0,0 4.3429,-1.8549 6.5,0.4371 0,0 3.8325,-1.7757 6.0833,0.4167 0,0 3.5093,-2.5403 6.4167,0.25 0,0 4.25,-2.5 7.4167,0.4167 0,0 4.5833,-1 4.6237,3.8016 0,0 3.7514,2.1213 1.7819,5.8085 0,0 1.761,3.9732 -1.313,7.5491 0,0 -0.0759,4.7775 1.6838,7.043 0.4358,0.5611 0.5798,1.2965 0.4908,2.0014 l -1.301,10.2965 c -0.1235,0.9776 -0.955,1.7106 -1.9403,1.7106 v 0 c -1.2088,0 -2.1281,-1.0856 -1.9291,-2.2779 L 57.75,49.4167 c 0,0 -1.489,-3.3059 -3.0833,-5 0,0 -1.7853,-0.5603 -3.3797,-2.5534"
       id="path2" />
    <path
       fill="none"
       stroke="#000"
       stroke-linecap="round"
       stroke-linejoin="round"
       stroke-miterlimit="10"
       stroke-width="2"
       d="m 31.5833,40.1194 c 0.9911,1.8333 0.7589,6.2567 0.7589,6.2567 v 13.0923 c 0,1.0092 -0.8181,1.8274 -1.8274,1.8274 v 0 c -0.9342,0 -1.7179,-0.7046 -1.817,-1.6334 l -0.8573,-8.033 -0.5627,-4.0858 C 25.6834,44.1554 22.6823,43.9561 22.6823,43.9561 19.2122,43.7568 19.7749,40.1693 19.7749,40.1693 16.8675,39.3721 17.8054,35.5852 17.8054,35.5852 14,34.9167 14.6667,30.5 14.6667,30.5 l -2.3661,-3.8276 c -0.967,-0.1323 -1.955,-0.0498 -2.8468,0.3467 -0.4923,0.2189 -1.1527,0.3952 -1.9906,0.38 C 6.1865,27.376 5.4102,26.96 4.9383,26.4601 4.2603,25.742 4.2523,24.6164 4.8179,23.8068 l 2.747,-3.9321 2.5328,-1.9197 c 1.13,-0.8565 2.5091,-1.32 3.927,-1.32 h 0.5971 c 0,0 5.6119,-2.26 5.5628,2.2991 -0.051,4.742 -3.562,3.2397 -3.562,3.2397"
       id="path4" />
    <path
       fill="none"
       stroke="#000"
       stroke-linecap="round"
       stroke-linejoin="round"
       stroke-miterlimit="10"
       stroke-width="2"
       d="m 35.3333,45.5546 c 0,0 0.9167,0.8215 2.9492,-0.0979 0.2007,0.0096 4.6708,2.1931 6.3774,-0.1599 0,0 2.2509,1.7544 4.6893,-0.3384"
       id="path6" />
    <path
       fill="none"
       stroke="#000"
       stroke-linecap="round"
       stroke-linejoin="round"
       stroke-miterlimit="10"
       stroke-width="2"
       d="m 24.2766,45.5546 c -0.0857,0.8158 0.5325,5.0353 -0.7205,12.9143 -0.1937,1.2178 0.7374,2.3286 1.9705,2.3286"
       id="path8" />
    <path
       fill="none"
       stroke="#000"
       stroke-linecap="round"
       stroke-linejoin="round"
       stroke-miterlimit="10"
       stroke-width="2"
       d="m 64.7288,27.3849 c 0.3751,0.3276 3.939,-2.1638 1.313,17.468"
       id="path10" />
  </g>
</g></svg>