<svg xmlns="http://www.w3.org/2000/svg" width="24" height="24" viewBox="0 0 24 24"> <g transform="translate(0.0 0.03767679689675418) scale(0.37676608513711013)">
  
  <g
     id="line"
     transform="translate(-4.1,-3.9)">
    <path
       fill="none"
       stroke="#000"
       stroke-linecap="round"
       stroke-linejoin="round"
       stroke-width="2"
       d="m 66.4,13.9 a 10.8892,10.8892 0 0 0 -3.1,-0.8 v 0 A 7.3951,7.3951 0 0 0 49.1,10.2 8.6841,8.6841 0 0 0 44.4,9"
       id="path2" />
    <path
       fill="none"
       stroke="#000"
       stroke-linecap="round"
       stroke-linejoin="round"
       stroke-width="2"
       d="m 6.2,4.9 a 8.1876,8.1876 0 0 1 7.5,5 10.4574,10.4574 0 0 1 13.2,2.4"
       id="path4" />
    <path
       fill="none"
       stroke="#000"
       stroke-linecap="round"
       stroke-linejoin="round"
       stroke-width="2"
       d="m 53.3,22.7 a 7.0982,7.0982 0 0 1 10,-0.4 6.8219,6.8219 0 0 1 2.3,5.2 v 0"
       id="path6" />
    <polyline
       fill="none"
       stroke="#000"
       stroke-linecap="round"
       stroke-linejoin="round"
       stroke-width="2"
       points="33.4 38 33.4 9.3 38.7 9.3 38.7 39.4"
       id="polyline8" />
    <line
       x1="45.799999"
       x2="45.799999"
       y1="24.700001"
       y2="43.200001"
       fill="none"
       stroke="#000"
       stroke-linecap="round"
       stroke-linejoin="round"
       stroke-width="2"
       id="line10" />
    <path
       fill="none"
       stroke="#000"
       stroke-linecap="round"
       stroke-linejoin="round"
       stroke-width="2"
       d="M 60.2,38.6 C 56.9,35.9 53.3,32.8 51.4,30.9 48.6,28.1 42.5,20.8 38.9,16.5"
       id="path12" />
    <path
       fill="none"
       stroke="#000"
       stroke-linecap="round"
       stroke-linejoin="round"
       stroke-width="2"
       d="m 38.7,10.9 c 0,0 10.8,13.2 14.8,17.2 4.1,4.1 13.3,11.5 13.3,11.5"
       id="path14" />
    <line
       x1="24.1"
       x2="24.1"
       y1="36"
       y2="27"
       fill="none"
       stroke="#000"
       stroke-linecap="round"
       stroke-linejoin="round"
       stroke-width="2"
       id="line16" />
    <line
       x1="56"
       x2="56"
       y1="41.400002"
       y2="35.200001"
       fill="none"
       stroke="#000"
       stroke-linecap="round"
       stroke-linejoin="round"
       stroke-width="2"
       id="line18" />
    <line
       x1="14.2"
       x2="14.2"
       y1="44.700001"
       y2="37.099998"
       fill="none"
       stroke="#000"
       stroke-linecap="round"
       stroke-linejoin="round"
       stroke-width="2"
       id="line20" />
    <path
       fill="none"
       stroke="#000"
       stroke-linecap="round"
       stroke-linejoin="round"
       stroke-width="2"
       d="m 9.7,40.5 c 3.1,-2.6 8.2,-7 10.9,-9.7 2.8,-2.8 9,-10.1 12.6,-14.4"
       id="path22" />
    <path
       fill="none"
       stroke="#000"
       stroke-linecap="round"
       stroke-linejoin="round"
       stroke-width="2"
       d="m 33.3,11 c 0,0 -10.8,13.1 -14.8,17.2 -4.1,4 -13.2,11.7 -13.2,11.7"
       id="path24" />
    <path
       fill="none"
       stroke="#000"
       stroke-linecap="round"
       stroke-linejoin="round"
       stroke-width="2"
       d="m 18.3,45.3 a 4.1956,4.1956 0 0 1 2.4,-0.7 v 0 a 5.1215,5.1215 0 0 1 5.1,-5.1 5.022,5.022 0 0 1 4.7,3.1 6.5748,6.5748 0 0 1 9,2.5 7.5019,7.5019 0 0 1 0.9,3"
       id="path26" />
    <path
       fill="none"
       stroke="#000"
       stroke-linecap="round"
       stroke-linejoin="round"
       stroke-width="2"
       d="m 33.1,66.4 a 6.4522,6.4522 0 0 0 -0.2,-8.7 1.7556,1.7556 0 0 0 -0.5,-0.4 6.2582,6.2582 0 0 0 -6.8,-0.9 8.7923,8.7923 0 0 0 -1,-3.6 8.16,8.16 0 0 0 -7.2,-4.2 8.6862,8.6862 0 0 0 -4.1,1.1 6.3213,6.3213 0 0 0 -5.9,-3.9 5.867,5.867 0 0 0 -2.3,0.4"
       id="path28" />
    <path
       fill="none"
       stroke="#000"
       stroke-linecap="round"
       stroke-linejoin="round"
       stroke-width="2"
       d="m 36.3,54.7 h 0.2 c 0.1,0 0.3,-0.1 0.4,-0.1 a 0.6012,0.6012 0 0 0 0.4,-0.1 h 0.9 a 7.1732,7.1732 0 0 1 2.9,0.6 10.0387,10.0387 0 0 1 0.4,-2.4 4.1792,4.1792 0 0 1 0.4,-1 9.2017,9.2017 0 0 1 5.5,-4.9 9.54,9.54 0 0 1 7.4,0.7 7.134,7.134 0 0 1 9.3,-3.8 6.3419,6.3419 0 0 1 2.3,1.6"
       id="path30" />
    <path
       fill="none"
       stroke="#000"
       stroke-linecap="round"
       stroke-linejoin="round"
       stroke-width="2"
       d="M 21.6,19.9 A 7.36,7.36 0 0 0 15.1,15.5 6.9629,6.9629 0 0 0 12.6,16 v 0 A 7.1086,7.1086 0 0 0 8,22.6 v 0 a 4.5292,4.5292 0 0 0 -1.6,0.3 4.15,4.15 0 0 0 -1.3,0.7"
       id="path32" />
  </g>
</g></svg>