<svg xmlns="http://www.w3.org/2000/svg" width="24" height="24" viewBox="0 0 24 24"> <g transform="translate(3.3150177212958205 0.0) scale(0.45674178565598994)">
  
  <g
     id="line-supplement"
     transform="translate(-16.984918,-9.958)">
    <circle
       cx="31.591999"
       cy="45.623299"
       r="1"
       id="circle2" />
    <circle
       cx="30.158899"
       cy="41.738998"
       r="1"
       id="circle4" />
    <circle
       cx="32.813999"
       cy="39.749199"
       r="1"
       id="circle6" />
    <circle
       cx="40.427799"
       cy="45.623299"
       r="1"
       id="circle8" />
    <circle
       cx="41.860802"
       cy="41.738998"
       r="1"
       id="circle10" />
    <circle
       cx="39.205799"
       cy="39.749199"
       r="1"
       id="circle12" />
  </g>
  <g
     id="line"
     transform="translate(-16.984918,-9.958)">
    <path
       fill="none"
       stroke="#000"
       stroke-linecap="round"
       stroke-linejoin="round"
       stroke-width="2"
       d="M 31.746,51.6805 C 27.3014,49.2278 26.4342,43.3874 26.4342,38.0166 26.4342,30.8477 36,32.9631 36,32.9631 V 50.2488 L 34.7119,52.69"
       id="path15" />
    <line
       x1="36"
       x2="37.287998"
       y1="50.248798"
       y2="52.6898"
       fill="none"
       stroke="#000"
       stroke-linecap="round"
       stroke-linejoin="round"
       stroke-width="2"
       id="line17" />
    <path
       fill="none"
       stroke="#000"
       stroke-linecap="round"
       stroke-linejoin="round"
       stroke-width="2"
       d="M 40.2539,51.6805 C 44.6985,49.2278 45.5657,43.3874 45.5657,38.0166 45.5657,30.8477 36,32.9631 36,32.9631"
       id="path19" />
    <polyline
       fill="none"
       stroke="#000"
       stroke-linecap="round"
       stroke-linejoin="round"
       stroke-width="2"
       points="26.817 43.343 23.045 46.301 26.092 52.145"
       id="polyline21" />
    <path
       fill="none"
       stroke="#000"
       stroke-linecap="round"
       stroke-linejoin="round"
       stroke-width="2"
       d="m 25.1274,50.2952 c 0,0 -3.0066,6.004 -0.8821,11.2089"
       id="path23" />
    <polyline
       fill="none"
       stroke="#000"
       stroke-linecap="round"
       stroke-linejoin="round"
       stroke-width="2"
       points="27.12 35.201 20.879 34.117 21.124 38.691"
       id="polyline25" />
    <path
       fill="none"
       stroke="#000"
       stroke-linecap="round"
       stroke-linejoin="round"
       stroke-width="2"
       d="M 18.3507,46.24 A 9.7065,9.7065 0 0 1 21.01,36.559"
       id="path27" />
    <path
       fill="none"
       stroke="#000"
       stroke-linecap="round"
       stroke-linejoin="round"
       stroke-width="2"
       d="m 26.8806,31.4565 a 6.0714,6.0714 0 0 1 -0.7723,-3.7131 2.2123,2.2123 0 0 1 0.4085,-1.1252 c 0.5429,-0.6693 1.5368,-0.6726 2.3623,-0.92 a 10.4722,10.4722 0 0 0 2.8685,-1.7764 3.9325,3.9325 0 0 1 3.1539,-0.9056 3.1056,3.1056 0 0 0 2.197,0 c 1.0423,-0.4384 2.2315,0.2515 3.1539,0.9056 a 10.4722,10.4722 0 0 0 2.8685,1.7764 c 0.8255,0.2474 1.8194,0.2507 2.3623,0.92 a 2.2123,2.2123 0 0 1 0.4085,1.1252 6.0714,6.0714 0 0 1 -0.7723,3.7131"
       id="path29" />
    <polyline
       fill="none"
       stroke="#000"
       stroke-linecap="round"
       stroke-linejoin="round"
       stroke-width="2"
       points="45.183 43.343 48.955 46.301 45.908 52.145"
       id="polyline31" />
    <path
       fill="none"
       stroke="#000"
       stroke-linecap="round"
       stroke-linejoin="round"
       stroke-width="2"
       d="m 46.8726,50.2952 c 0,0 3.0066,6.004 0.8821,11.2089"
       id="path33" />
    <polyline
       fill="none"
       stroke="#000"
       stroke-linecap="round"
       stroke-linejoin="round"
       stroke-width="2"
       points="44.88 35.201 51.121 34.117 50.876 38.691"
       id="polyline35" />
    <path
       fill="none"
       stroke="#000"
       stroke-linecap="round"
       stroke-linejoin="round"
       stroke-width="2"
       d="M 53.6493,46.24 A 9.7065,9.7065 0 0 0 50.99,36.559"
       id="path37" />
    <polyline
       fill="none"
       stroke="#000"
       stroke-linecap="round"
       stroke-linejoin="round"
       stroke-width="2"
       points="31.57 10.958 36 15.106 40.43 10.958"
       id="polyline39" />
    <line
       x1="36"
       x2="36"
       y1="15.1064"
       y2="23.2178"
       fill="none"
       stroke="#000"
       stroke-linecap="round"
       stroke-linejoin="round"
       stroke-width="2"
       id="line41" />
    <line
       x1="26.108299"
       x2="23.5215"
       y1="27.743401"
       y2="23.840799"
       fill="none"
       stroke="#000"
       stroke-linecap="round"
       stroke-linejoin="round"
       stroke-width="2"
       id="line43" />
    <path
       fill="none"
       stroke="#000"
       stroke-linecap="round"
       stroke-linejoin="round"
       stroke-width="2"
       d="m 20.3839,15.1064 c 0,0 -3.0817,8.29 4.2655,10.4359"
       id="path45" />
    <line
       x1="45.893799"
       x2="48.480598"
       y1="27.743401"
       y2="23.840799"
       fill="none"
       stroke="#000"
       stroke-linecap="round"
       stroke-linejoin="round"
       stroke-width="2"
       id="line47" />
    <path
       fill="none"
       stroke="#000"
       stroke-linecap="round"
       stroke-linejoin="round"
       stroke-width="2"
       d="m 51.6182,15.1064 c 0,0 3.0817,8.29 -4.2654,10.4359"
       id="path49" />
  </g>
</g></svg>