<svg xmlns="http://www.w3.org/2000/svg" width="24" height="24" viewBox="0 0 24 24"> <g transform="translate(6.957843528059969 0.0) scale(0.3792479204019295)">
  
  <g
     id="line"
     transform="translate(-22.565224,-4.6924592)">
    <path
       d="m 41.9521,67.9756 c -0.0468,0 -0.0947,-0.0029 -0.1425,-0.0098 -0.5469,-0.0791 -0.9268,-0.5849 -0.8487,-1.1318 l 0.462,-3.2227 c 0.0156,-0.1045 0.0468,-0.206 0.0937,-0.3008 l 4.6064,-9.3291 c 0.4874,-1.2597 0.4327,-2.7724 -0.1865,-4.0693 l -2.8633,-5.998 c -0.6347,-1.3321 -0.7656,-2.8448 -0.3681,-4.2618 0.956,-3.415 2.3681,-9.0878 2.4179,-10.4121 0.0391,-1.0483 -1.6132,-2.6753 -2.7998,-3.4951 -0.0527,-0.0371 -0.1035,-0.0796 -0.1484,-0.126 -0.0244,-0.0234 -0.8535,-0.7978 -2.2314,-0.5073 -1.6631,0.3545 -5.0713,2.4873 -9.209,12.7945 -0.0557,0.1386 -0.1416,0.2636 -0.251,0.3642 l -2.2627,2.0791 c -1.2207,1.1221 -2.1348,2.3233 -2.7168,3.5703 -0.3301,0.709 -0.5762,1.4336 -0.7314,2.1514 -0.2784,1.2803 -0.2764,2.4521 0.0039,3.4834 0.3994,1.4687 1.3799,2.709 2.914,3.6865 2.1817,1.3906 4.7119,1.749 4.7373,1.752 0.5469,0.0752 0.9307,0.5781 0.8565,1.125 -0.0733,0.5468 -0.5733,0.9297 -1.1231,0.8574 -0.1201,-0.0166 -2.9804,-0.4131 -5.5449,-2.0469 -1.9668,-1.2539 -3.2353,-2.8848 -3.7695,-4.8486 -0.3653,-1.3447 -0.375,-2.835 -0.0293,-4.4317 0.1865,-0.8623 0.4805,-1.7285 0.874,-2.5732 0.6924,-1.4863 1.7607,-2.8984 3.1758,-4.1982 l 2.0967,-1.9258 c 3.4179,-8.4458 6.997,-13.0918 10.6396,-13.8111 2.1485,-0.4233 3.5576,0.6787 3.917,1.001 0.5928,0.4185 3.6914,2.7246 3.6006,5.1743 -0.0645,1.7325 -1.7061,8.0762 -2.4902,10.877 -0.2666,0.9512 -0.1788,1.9668 0.247,2.8603 l 2.8633,5.9981 c 0.8565,1.7939 0.9326,3.8847 0.21,5.7363 l -4.5713,9.2656 -0.4385,3.0645 c -0.0723,0.499 -0.5,0.8584 -0.9893,0.8584 z"
       id="path2" />
    <path
       d="m 32.9375,67.9756 c -0.5332,0 -0.9766,-0.4219 -0.998,-0.96 L 31.627,59.2832 c -0.0225,-0.5518 0.4072,-1.0166 0.9589,-1.0391 0.5469,-0.0527 1.0166,0.4073 1.0391,0.959 l 0.3125,7.7324 c 0.0225,0.5518 -0.4072,1.0166 -0.959,1.0391 -0.0137,0.001 -0.0273,0.001 -0.041,0.001 z"
       id="path4" />
    <path
       fill="none"
       stroke="#000"
       stroke-linecap="round"
       stroke-linejoin="round"
       stroke-miterlimit="10"
       stroke-width="2"
       d="m 38.5577,20.7847 c -3.07,0.59 -6.36,-1.6 -7.59,-5.2 -0.9,-2.66 -0.45,-5.4 0.98,-7.22 0.65,-0.84 1.51,-1.48 2.54,-1.83"
       id="path6" />
    <path
       fill="none"
       stroke="#000"
       stroke-linecap="round"
       stroke-linejoin="round"
       stroke-miterlimit="10"
       stroke-width="2"
       d="m 31.9477,8.3547 c 0,0 0,0 0,0.01 0.03,0.35 0.63,6.87 9.99,5.05"
       id="path8" />
    <path
       fill="none"
       stroke="#000"
       stroke-linecap="round"
       stroke-linejoin="round"
       stroke-miterlimit="10"
       stroke-width="2"
       d="m 34.4877,6.5347 c 0,0 8.1,-3.57 11.32,3.99 2.71,6.38 2.41,11.13 2.25,12.46 -0.03,0.19 -0.23,0.32 -0.41,0.25 -1.24,-0.45 -5.29,-2.03 -5.81,-3.57 l 0.11,-6.25 v -0.01"
       id="path10" />
    <path
       d="m 30.918,50.71 c -0.71,0 -1.4825,-0.0537 -2.3262,-0.168 -0.5479,-0.0742 -0.9316,-0.5781 -0.8574,-1.125 0.0742,-0.5469 0.5781,-0.9326 1.125,-0.8574 5.6728,0.7705 7.1758,-1.4756 8.6924,-4.7285 2.3144,-5.7413 1.9228,-13.4053 1.9189,-13.4825 -0.0312,-0.5507 0.3916,-1.0224 0.9434,-1.0527 0.5371,-0.0557 1.0224,0.3906 1.0527,0.9434 0.0186,0.331 0.4199,8.1894 -2.0811,14.3886 -1.5068,3.2334 -3.3105,6.0821 -8.4677,6.0821 z"
       id="path12" />
  </g>
</g></svg>