<svg xmlns="http://www.w3.org/2000/svg" width="24" height="24" viewBox="0 0 24 24"> <g transform="translate(3.5718503803388337 0.0) scale(0.42702213887382695)">
  
  <g
     id="line"
     transform="translate(-18.369935,-8.793024)">
    <path
       fill="none"
       stroke="#000"
       stroke-linecap="round"
       stroke-linejoin="round"
       stroke-width="2"
       d="m 35.611,19.0521 v 0 a 9.14,9.14 0 0 1 9.14,9.14 v 34.9132 a 0.8909,0.8909 0 0 1 -0.8909,0.8909 H 27.3624 A 0.8909,0.8909 0 0 1 26.4715,63.1053 V 28.1916 a 9.14,9.14 0 0 1 9.1395,-9.1395 z"
       id="path2" />
    <rect
       x="33.518002"
       y="9.9768"
       width="4.1859999"
       height="8.7040005"
       fill="none"
       stroke="#000"
       stroke-linecap="round"
       stroke-linejoin="round"
       stroke-width="2"
       id="rect4" />
    <rect
       x="39.6339"
       y="10.7868"
       width="3.1867001"
       height="7.0465002"
       transform="rotate(90,41.2273,14.3101)"
       fill="none"
       stroke="#000"
       stroke-linecap="round"
       stroke-linejoin="round"
       stroke-width="2"
       id="rect6" />
    <path
       fill="none"
       stroke="#000"
       stroke-linecap="round"
       stroke-linejoin="round"
       stroke-width="2"
       d="M 33.52,12.7167 H 28.8791 A 4.5108,4.5108 0 0 0 25.1336,14.714 L 19.63,22.9146 a 1.5943,1.5943 0 0 0 0.6751,2.34 1.6527,1.6527 0 0 0 2.0226,-0.6418 l 4.475,-6.7034 a 4.5109,4.5109 0 0 1 3.7516,-2.0062 H 33.52 Z"
       id="path8" />
    <polygon
       fill="none"
       stroke="#000"
       stroke-linecap="round"
       stroke-linejoin="round"
       stroke-width="2"
       points="44.751,14.415 44.751,16.245 56.844,18.864 56.844,14.415 56.844,14.243 56.844,9.793 44.751,12.412 44.751,14.243 "
       id="polygon10" />
    <rect
       x="30.9133"
       y="29.283899"
       width="9.3952999"
       height="5.6743999"
       fill="none"
       stroke="#000"
       stroke-linecap="round"
       stroke-linejoin="round"
       stroke-width="2"
       id="rect12" />
  </g>
</g></svg>