<svg xmlns="http://www.w3.org/2000/svg" width="24" height="24" viewBox="0 0 24 24"> <g transform="scale(0.5)">
  
  <g
     id="line"
     transform="translate(-12,-12.000599)">
    <circle
       cx="36"
       cy="36.000599"
       r="23"
       fill="none"
       stroke="#000"
       stroke-linecap="round"
       stroke-linejoin="round"
       stroke-width="2"
       id="circle2" />
    <path
       d="m 22.5907,41.1451 a 6.0024,6.0024 0 0 1 10.9607,-3.3825 l 0.7513,-0.4278 a 1.83,1.83 0 0 1 1.2793,-2.3489 l 0.0263,-0.6637 A 6.0029,6.0029 0 0 1 35.34,22.3669 l -0.2169,-1.02 a 7.9866,7.9866 0 0 0 -6.342,11.3411 7.9956,7.9956 0 0 0 -7.3549,7.97 8.73,8.73 0 0 0 0.6394,3.1379 l 0.9623,-0.3974 a 5.9839,5.9839 0 0 1 -0.4372,-2.2534 z"
       id="path4" />
    <path
       d="M 46.403,46.3242 A 6.0025,6.0025 0 0 1 38.01,38.5056 l -0.6394,-0.4984 a 1.8278,1.8278 0 0 1 -2.6252,0.0421 l -0.775,0.4267 a 6.0029,6.0029 0 0 1 -10.1972,6.2465 l -0.7719,0.7 a 7.9617,7.9617 0 0 0 12.9852,-0.253 7.9957,7.9957 0 0 0 10.5744,2.4068 8.7313,8.7313 0 0 0 2.4023,-2.1177 l -0.824,-0.6364 a 5.9848,5.9848 0 0 1 -1.7362,1.502 z"
       id="path6" />
    <path
       d="M 49.51,36.6616 A 7.9855,7.9855 0 0 0 43.2758,32.6795 7.9314,7.9314 0 0 0 40.033,22.3837 8.7274,8.7274 0 0 0 36.9994,21.3577 l -0.1406,1.0316 a 6.0032,6.0032 0 0 1 -0.4233,11.93 l 0.0547,0.666 a 1.83,1.83 0 0 1 1.2814,2.35 l 0.6481,0.4522 a 6.0029,6.0029 0 0 1 10.4962,5.73 l 0.9919,0.32 A 7.9834,7.9834 0 0 0 49.51,36.6616 Z"
       id="path8" />
    <path
       d="m 29.0425,36.8469 a 7.04,7.04 0 0 1 0.05,-0.8377 l -1.56,-0.0632 q -0.0423,0.4216 -0.0426,0.8549 a 8.4721,8.4721 0 0 0 4.9161,7.6911 l 0.8945,-1.221 a 6.9739,6.9739 0 0 1 -4.258,-6.4241 z"
       id="path10" />
    <path
       d="m 40.9458,29.9513 a 8.4742,8.4742 0 0 0 -9.9093,-0.0437 l 0.8148,1.3462 a 6.9741,6.9741 0 0 1 8.3346,0.0062 z"
       id="path12" />
    <path
       d="m 44.3944,36.0006 h -1.4588 a 7.0563,7.0563 0 0 1 0.0508,0.8463 6.974,6.974 0 0 1 -4.25,6.4208 l 0.8291,1.2011 a 8.4718,8.4718 0 0 0 4.8664,-7.6679 q -2e-4,-0.4048 -0.0375,-0.8003 z"
       id="path14" />
  </g>
</g></svg>