<svg xmlns="http://www.w3.org/2000/svg" width="24" height="24" viewBox="0 0 24 24"> <g transform="translate(2.4725888623025227 0.0) scale(0.4053085832097339)">
  
  <g
     id="line"
     transform="translate(-8.986879,-6.8231367)">
    <g
       id="Pinching_Hand-2">
      <path
         fill="none"
         stroke="#000"
         stroke-linecap="round"
         stroke-linejoin="round"
         stroke-width="2"
         d="m 31.7356,42.1428 c -0.869,2.5155 -1.12,4.3475 -1.7985,5.5912 a 2.1933,2.1933 0 0 1 -2.582,1.0226 47.1968,47.1968 0 0 0 -6.2064,-1.455 2.15,2.15 0 0 1 -0.6908,-0.2417 C 16.3628,44.8164 11.9489,43.6516 11,44.6005 a 2.3467,2.3467 0 0 0 -0.7764,2.9644 c 0.7646,2.2938 7.2284,5.2139 8.5651,6.728 l 5.849,5.8491 c 0,0 6.9723,4.9163 10.7973,4.8952 C 47.4984,64.9708 54.9871,49.2418 55,45.4723 A 21.652,21.652 0 0 0 54.7207,42.1851 19.0358,19.0358 0 0 0 53.943,39.1788"
         id="path2" />
      <path
         fill="none"
         stroke="#000"
         stroke-linecap="round"
         stroke-linejoin="round"
         stroke-width="2"
         d="m 24.5042,35.6935 -8.5093,2.0318 a 3.4311,3.4311 0 0 1 -4.429,-2.0319 c -0.1935,-1.8834 0.4621,-2.4049 1.8585,-3.39 a 6.0112,6.0112 0 0 1 1.1023,-0.4777 l 9.6243,-3.05 a 3.6991,3.6991 0 0 1 1.8252,-0.0553"
         id="path4" />
      <line
         x1="31.7356"
         x2="24.637699"
         y1="42.142799"
         y2="35.770901"
         fill="none"
         stroke="#000"
         stroke-linecap="round"
         stroke-linejoin="round"
         stroke-width="2"
         id="line6" />
      <path
         fill="none"
         stroke="#000"
         stroke-linecap="round"
         stroke-linejoin="round"
         stroke-width="2"
         d="m 25.01,28.6125 a 4.3334,4.3334 0 0 1 2.349,0.6306 3.4038,3.4038 0 0 1 0.787,0.6513 l 8.3294,6.694"
         id="path8" />
      <path
         fill="none"
         stroke="#000"
         stroke-linecap="round"
         stroke-linejoin="round"
         stroke-width="2"
         d="M 32.4365,29.9218 25.01,15.2084 c -0.875,-2.0782 -1.511,-3.5464 0,-4.687 1.511,-1.15 2.9907,-0.3613 4.141,1.15 0.156,0.2047 8.5493,13.0158 11.0839,17.2661 v 0.01"
         id="path10" />
      <path
         fill="none"
         stroke="#000"
         stroke-linecap="round"
         stroke-linejoin="round"
         stroke-width="2"
         d="M 48.0929,31.395 C 46.7086,25.8774 42.0178,10.1967 41.93,9.9724 A 2.7784,2.7784 0 0 0 38.4958,7.9192 c -1.7839,0.6727 -2.02,2.6907 -1.7391,4.4594 l 0.9758,6.6879"
         id="path12" />
      <path
         fill="none"
         stroke="#000"
         stroke-linecap="round"
         stroke-linejoin="round"
         stroke-width="2"
         d="m 47.4,18.5064 c 0.1188,-1.9068 0.6442,-3.596 2.2763,-3.7827 a 2.4638,2.4638 0 0 1 2.5623,1.4977 5.272,5.272 0 0 1 0.5568,2.1762 c 0.2324,3.92 1.1653,20.2393 1.1653,20.2393 a 3.2433,3.2433 0 0 1 -0.0292,0.5362"
         id="path14" />
      <line
         x1="39.675098"
         x2="43.165699"
         y1="28.0814"
         y2="33.5938"
         fill="none"
         stroke="#000"
         stroke-linecap="round"
         stroke-linejoin="round"
         stroke-width="2"
         id="line16" />
    </g>
  </g>
</g></svg>