<svg xmlns="http://www.w3.org/2000/svg" width="24" height="24" viewBox="0 0 24 24"> <g transform="translate(0.0 0.10288952911862737) scale(0.4101529325276722)">
  
  <g
     id="line"
     transform="translate(-7,-7)">
    <path
       fill="none"
       stroke="#000"
       stroke-linecap="round"
       stroke-linejoin="round"
       stroke-width="2"
       d="m 28,36 c 0,12 12,17.5 20,17.5 6.4,0 10.6667,-1.6667 12,-2.5 C 57,55.5 48,64.4 36,64 31.5,62.3333 22.5,56.4 22.5,46 22.5,33 32,28 36,28"
       id="path2" />
    <path
       fill="none"
       stroke="#000"
       stroke-linecap="round"
       stroke-linejoin="round"
       stroke-width="2"
       d="M 12,21.5 C 15,16.3333 23,8 36,8 52.5076,8 65,19 64.5,30.5 64,42 55,45 48.5,45 c -5.2,0 -7.3169,-3 -7.7253,-4.5 1.0227,-1.4316 1.7253,-3.1126 1.7253,-5 0,-6.5 -8,-14 -18.5,-14 -7.5,0 -16,2 -16,14"
       id="path4" />
    <path
       fill="none"
       stroke="#000"
       stroke-linecap="round"
       stroke-linejoin="round"
       stroke-width="2"
       d="M 8,36 C 8,52 21,62 29,63"
       id="path6" />
  </g>
</g></svg>