<svg xmlns="http://www.w3.org/2000/svg" width="24" height="24" viewBox="0 0 24 24"> <g transform="scale(0.48)">
  
  <g
     id="line-supplement"
     transform="translate(-11,-11)">
    <g
       id="CL_Button">
      <path
         fill="none"
         stroke="#000"
         stroke-linejoin="round"
         stroke-width="2"
         d="m 59.0349,60 h -46.07 A 0.9679,0.9679 0 0 1 12,59.0349 v -46.07 A 0.9679,0.9679 0 0 1 12.9651,12 h 46.07 A 0.9679,0.9679 0 0 1 60,12.9651 v 46.07 A 0.9679,0.9679 0 0 1 59.0349,60 Z"
         id="path2" />
      <path
         fill="none"
         stroke="#000"
         stroke-linecap="round"
         stroke-linejoin="round"
         stroke-width="2"
         d="m 32.07,42.5784 a 5.3144,5.3144 0 0 1 -3.5383,1.3423 v 0 a 5.3343,5.3343 0 0 1 -5.3342,-5.3342 v -4.2673 a 5.3343,5.3343 0 0 1 5.3342,-5.3342 v 0 a 5.3131,5.3131 0 0 1 3.5383,1.3425"
         id="path4" />
      <polyline
         fill="none"
         stroke="#000"
         stroke-linecap="round"
         stroke-linejoin="round"
         stroke-width="2"
         points="42.401 29.049 42.401 43.985 48.802 43.985"
         id="polyline6" />
    </g>
  </g>
  <g
     id="line"
     transform="translate(-11,-11)" />
</g></svg>