<svg xmlns="http://www.w3.org/2000/svg" width="24" height="24" viewBox="0 0 24 24"> <g transform="translate(7.093712400517052 0.0) scale(0.37848851683187323)">
  
  <g
     id="line"
     transform="translate(-21.209626,-4.5918358)">
    <path
       fill="none"
       stroke="#000"
       stroke-linecap="round"
       stroke-linejoin="round"
       stroke-width="2"
       d="m 40.6353,67 c 0.2,-1.1 0.3,-2.1 0.5,-3.2 1.4,-2.8 2.8,-5.6 4.1,-8.4 0.5781,-0.9315 0.8894,-2.0038 0.9,-3.1 0.0018,-0.8907 -0.1679,-1.7735 -0.5,-2.6 -0.5638,-1.746 -0.8671,-3.5655 -0.9,-5.4 0,-1.3 0.2,-2.8 0.5,-5.7 0.3,-2.4 0.5,-4.1 0.5,-4.1 0.2708,-1.2135 0.3717,-2.4587 0.3,-3.7 0.0293,-0.9904 -0.1407,-1.9766 -0.5,-2.9 -0.7124,-1.9229 -2.3169,-3.3781 -4.3,-3.9 -1.8535,-0.2929 -3.7441,0.2161 -5.2,1.4 -1.4385,1.1737 -1.6496,2.4069 -3.0353,5.6 -0.8923,2.0521 -1.8937,4.0549 -3,6 -1.4642,0.713 -2.8031,1.6586 -3.9647,2.8 -1.3444,1.2601 -2.4017,2.7949 -3.1,4.5 -0.9317,2.0594 -0.9679,4.4129 -0.1,6.5 0.5091,1.0896 1.2618,2.0476 2.2,2.8 1.0868,0.8853 2.3473,1.5325 3.7,1.9 0.7209,0.243 1.4555,0.4434 2.2,0.6"
       id="path2" />
    <path
       d="m 31.6353,68 c -0.5518,-0.0012 -0.9988,-0.4482 -1,-1 l -0.3,-7.7 c 0,-0.5523 0.4477,-1 1,-1 0.5523,0 1,0.4477 1,1 l 0.3,7.7 c 0.0332,0.5191 -0.3607,0.9668 -0.8798,1 -0.04,0.0026 -0.0802,0.0026 -0.1202,0 z"
       id="path4" />
    <path
       fill="none"
       stroke="#000"
       stroke-linecap="round"
       stroke-linejoin="round"
       stroke-width="2"
       d="m 37.3353,20.8 c -3.1,0.6 -6.4,-1.6 -7.6,-5.2 -0.0075,-0.0228 -0.0227,-0.0665 -0.043,-0.1291 C 28.9239,13.0798 29.3092,10.4674 30.7353,8.4 31.0968,7.8824 31.5217,7.4121 32,7"
       id="path6" />
    <path
       fill="none"
       stroke="#000"
       stroke-linecap="round"
       stroke-linejoin="round"
       stroke-width="2"
       d="m 32.0353,7.9 c 1.682,3.2201 4.9689,5.284 8.6,5.4"
       id="path8" />
    <path
       fill="none"
       stroke="#000"
       stroke-linecap="round"
       stroke-linejoin="round"
       stroke-width="2"
       d="m 32,7 c 0.264,-0.1469 5.3761,-2.8916 9.5353,-0.3 1.4139,0.9017 2.5006,2.2338 3.1,3.8 0.6974,1.8451 0.5133,3.9077 -0.5,5.6 C 43.5941,16.9023 42.8598,17.5557 42,18 l -1.2647,-4.5"
       id="path10" />
    <path
       d="m 29.6353,50.7 c -0.7699,-0.0212 -1.5379,-0.088 -2.3,-0.2 -0.5135,-0.1221 -0.882,-0.5725 -0.9,-1.1 0,-0.5 0.6,-0.9 1.1,-0.9 5.7,0.8 7.2,-1.5 8.7,-4.7 2.3,-5.7 1.9,-13.4 1.9,-13.5 -0.0141,-0.539 0.3688,-1.0071 0.9,-1.1 0.5,-0.1 1,0.4 1.1,0.9 0,0.3 0.4,8.2 -2.1,14.4 -1.4,3.4 -3.2,6.2 -8.4,6.2 z"
       id="path12" />
  </g>
</g></svg>