<svg xmlns="http://www.w3.org/2000/svg" width="24" height="24" viewBox="0 0 24 24"> <g transform="scale(0.41379310344827586)">
  
  <g
     id="line"
     transform="translate(-7,-7)">
    <g
       id="line-2">
      <circle
         cx="36"
         cy="36"
         r="28"
         fill="none"
         stroke="#000"
         stroke-linejoin="round"
         stroke-width="2"
         id="circle2" />
    </g>
    <path
       fill="none"
       stroke="#000"
       stroke-linejoin="round"
       stroke-width="2"
       d="m 46.8259,29.022 c 0,-4.3979 -3.5781,-7.9761 -7.9761,-7.9761 H 28.174 c -0.5522,0 -1,0.4478 -1,1 v 27.9082 c 0,0.5522 0.4478,1 1,1 h 10.6758 c 4.3979,0 7.9761,-3.5781 7.9761,-7.9761 0,-2.9995 -1.666,-5.6177 -4.1216,-6.978 2.4556,-1.3604 4.1216,-3.9785 4.1216,-6.978 z m -2,13.9561 c 0,3.2954 -2.6807,5.9761 -5.9761,5.9761 H 29.174 V 37.006 h 9.6758 c 3.2954,0 5.9761,2.6792 5.9761,5.9722 z m -5.9761,-7.9839 c -0.0206,0 -0.0378,0.0105 -0.058,0.0117 h -9.6177 v -11.96 h 9.6758 c 3.2954,0 5.9761,2.6807 5.9761,5.9761 0,3.293 -2.6807,5.9722 -5.9761,5.9722 z"
       id="path5" />
  </g>
</g></svg>