<svg xmlns="http://www.w3.org/2000/svg" width="24" height="24" viewBox="0 0 24 24"> <g transform="scale(0.41379310344827586)">
  
  <g
     id="line"
     transform="translate(-7,-7)">
    <g
       id="line-2">
      <circle
         cx="36"
         cy="36"
         r="28"
         fill="none"
         stroke="#000"
         stroke-linejoin="round"
         stroke-width="2"
         id="circle2" />
    </g>
    <path
       fill="none"
       stroke="#000"
       stroke-linejoin="round"
       stroke-width="2"
       d="m 44.4475,21.1054 c -0.4932,-0.2471 -1.0938,-0.0469 -1.3418,0.4473 L 36.0002,35.7641 28.8947,21.5527 c -0.2471,-0.4941 -0.8477,-0.6943 -1.3418,-0.4473 -0.4941,0.247 -0.6943,0.8477 -0.4473,1.3418 l 7.8945,15.7886 V 50 c 0,0.5522 0.4473,1 1,1 0.5527,0 1,-0.4478 1,-1 V 38.2358 l 7.8945,-15.7886 c 0.0713,-0.144 0.1055,-0.2964 0.1055,-0.4473 0,-0.3662 -0.2021,-0.7192 -0.5527,-0.8945 z"
       id="path5" />
  </g>
</g></svg>