<svg xmlns="http://www.w3.org/2000/svg" width="24" height="24" viewBox="0 0 24 24"> <g transform="scale(0.48)">
  
  <g
     id="line"
     transform="translate(-11,-11)">
    <path
       fill="none"
       stroke="#000"
       stroke-miterlimit="10"
       stroke-width="2"
       d="M 59.0349,60 H 12.9651 C 12.4343,60 12,59.5657 12,59.0349 V 12.9651 C 12,12.4343 12.4343,12 12.9651,12 H 59.0349 C 59.5657,12 60,12.4343 60,12.9651 V 59.0349 C 60,59.5657 59.5657,60 59.0349,60 Z"
       id="path2" />
    <path
       fill="#000"
       stroke="none"
       d="m 49.1406,29.8502 h -5.4819 v -4.7826 c 0,-0.2754 -0.2232,-0.4986 -0.4986,-0.4986 h -1.7307 c -0.2753,0 -0.4985,0.2232 -0.4985,0.4986 v 4.7826 h -9.1624 v -4.7826 c 0,-0.2754 -0.2232,-0.4986 -0.4985,-0.4986 h -1.7308 c -0.2753,0 -0.4985,0.2232 -0.4985,0.4986 v 4.7826 h -6.1812 c -0.2753,0 -0.4985,0.2232 -0.4985,0.4985 v 1.7307 c 0,0.2753 0.2232,0.4985 0.4985,0.4985 h 6.1812 v 7.5797 c 0,0.2753 0.2232,0.4985 0.4985,0.4985 H 31.27 c 0.2753,0 0.4985,-0.2232 0.4985,-0.4985 V 32.578 h 9.1624 v 4.9091 c 0,2.9573 -1.1118,5.7651 -3.0502,7.7035 -1.2888,1.2892 -2.7015,2.003 -4.2061,2.1261 -0.264,0.0216 -0.4726,0.2267 -0.4726,0.4916 v 1.736 c 0,0.2834 0.2374,0.5209 0.5203,0.5042 2.2291,-0.1318 4.2745,-1.1155 6.0875,-2.9292 2.4459,-2.4459 3.8489,-5.9564 3.8489,-9.6321 V 32.578 h 5.4819 c 0.2753,0 0.4985,-0.2232 0.4985,-0.4985 v -1.7307 c 0,-0.2754 -0.2232,-0.4986 -0.4985,-0.4986 z"
       id="path4" />
  </g>
</g></svg>