<svg xmlns="http://www.w3.org/2000/svg" width="24" height="24" viewBox="0 0 24 24"> <g transform="translate(0.0 0.34018631865630233) scale(0.505168186275717)">
  
  <g
     id="line"
     transform="translate(-14.000077,-16.577257)">
    <path
       fill="none"
       stroke="#000"
       stroke-linecap="round"
       stroke-linejoin="round"
       stroke-miterlimit="10"
       stroke-width="2"
       d="m 43,41 c 0,0 2,-3.8333 4.5,-1.4167 C 50,42 47,43 46,42 c -1,-1 -2,2 -2,2"
       id="path2" />
    <path
       fill="none"
       stroke="#000"
       stroke-linecap="round"
       stroke-linejoin="round"
       stroke-miterlimit="10"
       stroke-width="2"
       d="m 39,48 c 0,0 6.125,-2.6797 6.6514,0.8374 0.1505,1.0055 -0.2436,2.0174 -0.9153,2.7807 L 40,57 c 0,0 6.4305,1.9098 5.1667,3.4167 C 43,63 34,61 34,61 l 1,-5 C 19,60 15,45 15,45 c 0,0 14.1667,11.6667 20.0833,1.8333 5.9166,-9.8334 3.0833,-29.6667 15.5,-29.25 8.358,0.2805 9.844,4.7143 9.9224,7.583 0.0381,1.393 -0.2557,2.417 -0.2557,2.417 -0.0778,0.5793 -0.1852,1.086 -0.3188,1.53 -1.1539,3.8354 -4.2597,2.9991 -7.0978,3.97 C 49.6667,34.1667 50.75,37.5 50.75,37.5 56.5,36 56,43 54,41 52,39 50.8333,42.3333 50.8333,42.3333 50.8333,42.3333 51,49 49,51"
       id="path4" />
    <path
       fill="none"
       stroke="#000"
       stroke-linecap="round"
       stroke-linejoin="round"
       stroke-miterlimit="10"
       stroke-width="2"
       d="m 54.5,44.8333 c 3.5,2.8333 -3.9167,9.5 -3.9167,9.5 0,0 11.4167,2.6667 2.0834,3 C 43.3333,57.6667 46,55 46,55"
       id="path6" />
  </g>
</g></svg>