<svg xmlns="http://www.w3.org/2000/svg" width="24" height="24" viewBox="0 0 24 24"> <g transform="translate(0.0 0.8112083088171751) scale(0.4733451739313745)">
  
  <g
     id="line"
     transform="translate(-11.53,-13.4334)">
    <path
       fill="none"
       stroke="#000"
       stroke-linecap="round"
       stroke-linejoin="round"
       stroke-width="2"
       d="m 58.4243,38.5883 c -0.468,-2.7025 -2.34,-6.2155 -8.8182,-6.6811 C 33.9172,30.78 34.3869,14.4334 34.3869,14.4334 H 17.6646 c 0,0 -0.47,13.2463 -2.3486,17.6617 a 20.2037,20.2037 0 0 0 -1.4092,6.494"
       id="path2" />
    <line
       x1="34.7952"
       x2="32.373501"
       y1="18.453199"
       y2="18.453199"
       fill="none"
       stroke="#000"
       stroke-linecap="round"
       stroke-linejoin="round"
       stroke-width="2"
       id="line4" />
    <line
       x1="35.798801"
       x2="33.377102"
       y1="22.128599"
       y2="22.128599"
       fill="none"
       stroke="#000"
       stroke-linecap="round"
       stroke-linejoin="round"
       stroke-width="2"
       id="line6" />
    <line
       x1="37.662498"
       x2="35.240799"
       y1="25.6329"
       y2="25.6329"
       fill="none"
       stroke="#000"
       stroke-linecap="round"
       stroke-linejoin="round"
       stroke-width="2"
       id="line8" />
    <line
       x1="40.135101"
       x2="37.713501"
       y1="28.565701"
       y2="28.565701"
       fill="none"
       stroke="#000"
       stroke-linecap="round"
       stroke-linejoin="round"
       stroke-width="2"
       id="line10" />
    <line
       x1="24.096701"
       x2="29.655701"
       y1="41.7715"
       y2="33.980202"
       fill="none"
       stroke="#000"
       stroke-linecap="round"
       stroke-linejoin="round"
       stroke-width="2"
       id="line12" />
    <line
       x1="28.601601"
       x2="34.160599"
       y1="41.7715"
       y2="33.980202"
       fill="none"
       stroke="#000"
       stroke-linecap="round"
       stroke-linejoin="round"
       stroke-width="2"
       id="line14" />
    <line
       x1="32.8894"
       x2="38.448399"
       y1="41.7715"
       y2="33.980202"
       fill="none"
       stroke="#000"
       stroke-linecap="round"
       stroke-linejoin="round"
       stroke-width="2"
       id="line16" />
    <line
       x1="37.355598"
       x2="42.9146"
       y1="41.7715"
       y2="33.980202"
       fill="none"
       stroke="#000"
       stroke-linecap="round"
       stroke-linejoin="round"
       stroke-width="2"
       id="line18" />
    <path
       fill="none"
       stroke="#000"
       stroke-linecap="round"
       stroke-linejoin="round"
       stroke-width="2"
       d="m 21.2191,41.7715 h 37.2247 a 1.8324,1.8324 0 0 1 1.827,1.8271 v 0 a 1.8324,1.8324 0 0 1 -1.827,1.8271 H 14.3572 A 1.8325,1.8325 0 0 1 12.53,43.5986 v 0 a 1.8325,1.8325 0 0 1 1.8271,-1.8271 h 2.0589"
       id="path20" />
    <line
       x1="29.089199"
       x2="40.3396"
       y1="49.187801"
       y2="49.187801"
       fill="none"
       stroke="#000"
       stroke-linecap="round"
       stroke-linejoin="round"
       stroke-width="2"
       id="line22" />
    <polyline
       fill="none"
       stroke="#000"
       stroke-linecap="round"
       stroke-linejoin="round"
       stroke-width="2"
       points="56.869 45.426 61.233 48.528 57.117 54.091 54.275 51.748"
       id="polyline24" />
    <circle
       cx="22.4163"
       cy="54.708801"
       r="5"
       fill="none"
       stroke="#000"
       stroke-linecap="round"
       stroke-linejoin="round"
       stroke-width="2"
       id="circle26" />
    <circle
       cx="46.6688"
       cy="54.708801"
       r="5"
       fill="none"
       stroke="#000"
       stroke-linecap="round"
       stroke-linejoin="round"
       stroke-width="2"
       id="circle28" />
    <line
       x1="16.4865"
       x2="17.199499"
       y1="47.8204"
       y2="48.868999"
       fill="none"
       stroke="#000"
       stroke-linecap="round"
       stroke-linejoin="round"
       stroke-width="2"
       id="line30" />
    <line
       x1="52.917301"
       x2="52.204201"
       y1="47.8204"
       y2="48.868999"
       fill="none"
       stroke="#000"
       stroke-linecap="round"
       stroke-linejoin="round"
       stroke-width="2"
       id="line32" />
  </g>
</g></svg>