<svg xmlns="http://www.w3.org/2000/svg" width="24" height="24" viewBox="0 0 24 24"> <g transform="translate(1.7763568394002505e-15 3.651124388319605) scale(0.7044303975805164)">
  
  <g
     id="line"
     transform="translate(-20.695302,-24.155987)">
    <path
       fill="none"
       stroke="#000"
       stroke-linecap="round"
       stroke-linejoin="round"
       stroke-width="2"
       d="m 22.5593,44.7178 c -0.5773,-2.5154 -2.0374,-10.5013 1.2395,-15.72 a 6.6807,6.6807 0 0 1 2.559,-2.33 c 2.4455,-1.2931 7.5647,-2.9953 13.6578,0.7518 v 13.5525 a 70.9621,70.9621 0 0 1 -7.6985,0.6768 3.0564,3.0564 0 0 0 -2.4926,1.32 c -1.3449,1.9631 -4.0426,5.1737 -6.3169,3.3551 a 2.8422,2.8422 0 0 1 -0.9483,-1.6062 z"
       id="path2" />
    <path
       fill="none"
       stroke="#000"
       stroke-linecap="round"
       stroke-linejoin="round"
       stroke-width="2"
       d="M 40.0156,27.4084 V 40.9721 A 14.93,14.93 0 0 0 47.7761,36 c 0,0 2.644,-2.8227 4.6357,-3.3378 0,0 3.5712,-1.7856 -0.79,-3.7429 A 32.7714,32.7714 0 0 0 40.0156,27.4084 Z"
       id="path4" />
  </g>
</g></svg>