<svg xmlns="http://www.w3.org/2000/svg" width="24" height="24" viewBox="0 0 24 24"><path transform="scale(0.48)" d="M46.476 20.662l-.013-.101c-.028-.141-.08-.283-.127-.362l-6.336-10.199s-.808-1-1-1h-27l-8.12 10.853-.096 .1 -.013 .047 c-.064 .101 -.119 .215 -.168 .35 l-.033 .097 c-.048 .166 -.07 .31 -.064 .526 .007 .14 .032 .279 .077 .424 l.038 .109 c.051 .129 .114 .247 .188 .352 l19.631 24.867 .04 .057c.101 .13 .224 .245 .374 .35 l.114 .071 c.112 .07 .229 .126 .399 .188 l.111 .037 c.192 .049 .359 .072 .522 .072 .165 0 .326-.022 .543 -.078l.133-.047c.13-.046 .247 -.103 .388 -.19l.088-.055c.151-.107 .272 -.223 .339 -.314l19.656-24.893c.088-.114 .162 -.242 .25 -.469 .048 -.126 .069 -.248 .08 -.321l.015-.129 .008 -.102-.024-.24zm-10.54-.662l2.798-5.063 2.796 5.063h-5.594zm-1.678 3h6.638l-11.064 14.015 4.426-14.015zm-1.642-4.518l-4.041-5.482h7.07l-3.029 5.482zm-12.944 4.518h10.659l-5.331 16.877-5.328-16.877zm1.057-3l4.271-5.796 4.271 5.796h-8.542zm-3.008-1.972l-1.852-5.028h5.557l-3.705 5.028zm2.449 18.988l-11.065-14.016h6.639l4.426 14.016zm-7.505-22.044l1.853 5.028h-5.558l3.705-5.028z" style="fill:#000;fill-opacity:1"/></svg>