<svg xmlns="http://www.w3.org/2000/svg" width="24" height="24" viewBox="0 0 24 24"><path transform="scale(0.48)" d="M 22.875 0.5 C 25.1531745931 0.5 27 2.34682540695 27 4.625 C 27 6.90317459305 25.1531745931 8.75 22.875 8.75 C 20.5968254069 8.75 18.75 6.90317459305 18.75 4.625 C 18.75 2.34682540695 20.5968254069 0.5 22.875 0.5 Z" style="fill:#000;fill-opacity:1"/><path transform="scale(0.48)" d="M22 10h-3c-2.82 0-5 1.719-5 4.587v12.413c0 2 3 2 3 0v-12h1v32c0 1.233 .768 2 2 2 1.235 0 2-.767 2-2v-37zm13 15l-4.017-10.357c-.349-2.321-2.693-4.643-5.368-4.643h-2.615v23.783c.5 .002 1 .075 1 .217v13c0 1.04 .917 2 2 2 1.086 0 2-.961 2-2v-13h3.869c.362 0 1.044-.654 1.044-1 0-.08 .029 -.931 0-1l-5.909-16.237-.034-.167c0-.237 .199 -.429 .447 -.429 .211 0 .388 .141 .435 .329 l4.017 10.504c.267 .601 1.365 1 2.087 1 .965 0 1.065-1.895 1.044-2z" style="fill:#000;fill-opacity:1"/></svg>