<svg xmlns="http://www.w3.org/2000/svg" width="48" height="24">
  <path
     style="fill:#000;fill-opacity:1"
     d="m 42.067796,5.9999997 -8,0 -2,-2 -6,0 c -1.1,0 -1.99,0.9 -1.99,2 L 24.067796,18 c 0,1.1 0.9,2 2,2 l 16,0 c 1.1,0 2,-0.9 2,-2 l 0,-10.0000003 c 0,-1.1 -0.9,-2 -2,-2 z m 0,12.0000003 -16,0 0,-10.0000003 16,0 0,10.0000003 z" />
  <path
     d="m 11.70339,4 c 2.65,0 5.05,0.99 6.9,2.6 l 3.6,-3.6 v 9 h -9 l 3.62,-3.62 c -1.39,-1.16 -3.16,-1.88 -5.12,-1.88 -3.54,0 -6.55,2.31 -7.6,5.5 l -2.37,-0.78 c 1.39,-4.19 5.32,-7.22 9.97,-7.22 z"
     style="fill:#000;fill-opacity:1" />
  <path
     d="m 21.398305,18.5 h -3 v 3 h -1 v -3 h -3 v -1 h 3 v -3 h 1 v 3 h 3 z"
     style="fill:#000;stroke-width:0.5;fill-opacity:1" />
</svg>
