<?xml version="1.0" encoding="UTF-8" standalone="no"?>
<svg
   xmlns:dc="http://purl.org/dc/elements/1.1/"
   xmlns:cc="http://creativecommons.org/ns#"
   xmlns:rdf="http://www.w3.org/1999/02/22-rdf-syntax-ns#"
   xmlns:svg="http://www.w3.org/2000/svg"
   xmlns="http://www.w3.org/2000/svg"
   version="1.1"
   id="svg2"
   viewBox="0 0 48 24"
   height="24"
   width="48">
  <metadata
     id="metadata12">
    <rdf:RDF>
      <cc:Work
         rdf:about="">
        <dc:format>image/svg+xml</dc:format>
        <dc:type
           rdf:resource="http://purl.org/dc/dcmitype/StillImage" />
        <dc:title></dc:title>
      </cc:Work>
    </rdf:RDF>
  </metadata>
  <defs
     id="defs10" />
  <path
     style="fill:none"
     id="path4"
     d="M 0,0 24,0 24,24 0,24 Z" />
  <path
     style="fill:#000;fill-opacity:1"
     id="path6"
     d="m 42.067796,5.9999997 -8,0 -2,-2 -6,0 c -1.1,0 -1.99,0.9 -1.99,2 L 24.067796,18 c 0,1.1 0.9,2 2,2 l 16,0 c 1.1,0 2,-0.9 2,-2 l 0,-10.0000003 c 0,-1.1 -0.9,-2 -2,-2 z m 0,12.0000003 -16,0 0,-10.0000003 16,0 0,10.0000003 z" />
  <path
     id="path4139"
     d="m 24.20339,-4 h -24 v 24 h 24 z"
     style="fill:none" />
  <path
     id="path4141"
     d="m 11.70339,4 c 2.65,0 5.05,0.99 6.9,2.6 l 3.6,-3.6 v 9 h -9 l 3.62,-3.62 c -1.39,-1.16 -3.16,-1.88 -5.12,-1.88 -3.54,0 -6.55,2.31 -7.6,5.5 l -2.37,-0.78 c 1.39,-4.19 5.32,-7.22 9.97,-7.22 z"
     style="fill:#000;fill-opacity:1" />
</svg>
