<?xml version="1.0" encoding="UTF-8" standalone="no"?>
<svg
   height="48"
   width="48"
   version="1.1"
   id="svg4"
   xmlns="http://www.w3.org/2000/svg"
   xmlns:svg="http://www.w3.org/2000/svg">
  <path
     d="M 9,42 C 8.2,42 7.5,41.7 6.9,41.1 6.3,40.5 6,39.8 6,39 V 9 C 6,8.2 6.3,7.5 6.9,6.9 7.5,6.3 8.2,6 9,6 h 30 c 0.8,0 1.5,0.3 2.1,0.9 C 41.7,7.5 42,8.2 42,9 v 30 c 0,0.8 -0.3,1.5 -0.9,2.1 C 40.5,41.7 39.8,42 39,42 Z M 9,39 H 39 V 39 39 9 9 9 H 9 V 9 9 Z M 9,9 v 0 0 30 0 0 0 0 z" />
  <g
     aria-label="Lat"
     id="text26125"
     style="font-size:40px;line-height:1.25;font-family:FreeSans;-inkscape-font-specification:FreeSans"
     transform="matrix(0.39415717,0,0,0.39415717,12.774526,42.110307)">
    <path
       d="m 2.00002,-81.465744 v 25.88 h 14.4 v 3.28 h -18.12 v -29.16 z"
       id="path14" />
    <path
       d="m 19.720009,-67.065744 q 0.24,-6.8 8.4,-6.8 3.88,0 5.88,1.48 2,1.44 2,4.24 v 12.32 q 0,1.64 1.8,1.64 0.36,0 0.72,-0.08 v 2.52 q -1.4,0.36 -2.28,0.36 -1.6,0 -2.44,-0.76 -0.8,-0.72 -1,-2.32 -3.36,3.08 -7.12,3.08 -3.16,0 -5.04,-1.68 -1.84,-1.68 -1.84,-4.52 0,-0.92 0.16,-1.68 0.2,-0.76 0.4,-1.32 0.24,-0.6 0.8,-1.08 0.56,-0.52 0.92,-0.84 0.4,-0.32 1.28,-0.6 0.92,-0.32 1.4,-0.44 0.48,-0.16 1.68,-0.36 1.2,-0.2 1.76,-0.28 0.56,-0.08 2,-0.28 1.96,-0.24 2.72,-0.76 0.76,-0.52 0.76,-1.56 v -0.88 q 0,-1.52 -1.24,-2.32 -1.2,-0.8 -3.44,-0.8 -2.32,0 -3.52,0.92 -1.2,0.88 -1.4,2.8 z m 6.68,12.76 q 2.76,0 4.52,-1.44 1.76,-1.48 1.76,-3.16 v -3.76 q -1,0.48 -3.04,0.8 -2,0.32 -3.48,0.56 -1.48,0.24 -2.68,1.16 -1.2,0.88 -1.2,2.48 0,1.6 1.08,2.48 1.08,0.88 3.04,0.88 z"
       id="path16" />
    <path
       d="m 49.71998,-73.265744 v 2.72 h -3.44 v 14.36 q 0,1.12 0.36,1.52 0.4,0.36 1.48,0.36 1,0 1.6,-0.16 v 2.8 q -1.56,0.28 -2.72,0.28 -1.96,0 -3,-0.88 -1.04,-0.84 -1.04,-2.44 v -15.84 h -2.84 v -2.72 h 2.84 v -5.76 h 3.32 v 5.76 z"
       id="path18" />
  </g>
  <g
     style="font-size:40px;line-height:1.25;font-family:FreeSans;-inkscape-font-specification:FreeSans"
     transform="matrix(0.39415717,0,0,0.39415717,12.774526,42.110307)">
    <path
       d="m 1.9997186,-48.308092 v 25.88 H 16.399719 v 3.28 H -1.7202814 v -29.16 z" />
    <path
       d="m 19.999708,-40.108092 h 3.08 v 3.52 q 1.4,-2.2 3,-3.16 1.64,-0.96 3.96,-0.96 3.04,0 4.84,1.56 1.8,1.56 1.8,4.16 v 15.84 h -3.32 v -14.52 q 0,-1.88 -1.16,-3 -1.16,-1.12 -3.16,-1.12 -2.56,0 -4.12,1.96 -1.56,1.92 -1.56,5.12 v 11.56 h -3.36 z" />
    <path
       d="m 48.919658,-18.228092 q -3.68,0 -6.16,-3 -2.48,-3.04 -2.48,-8.04 0,-5.12 2.44,-8.28 2.48,-3.16 6.48,-3.16 3.92,0 6.4,3.64 l -0.4,-3.04 h 3.48 v 17.52 q 0,3 -0.36,5 -0.36,2.04 -1.32,3.76 -0.96,1.72 -2.88,2.56 -1.88,0.84 -4.8,0.84 -3.68,0 -5.88,-1.68 -2.2,-1.68 -2.48,-4.64 h 3.4 q 0.56,3.52 5.08,3.52 3.36,0 4.6,-1.92 1.24,-1.88 1.24,-5.76 v -1.08 q -1.4,2 -2.92,2.88 -1.48,0.88 -3.44,0.88 z m 0.64,-19.4 q -2.68,0 -4.24,2.2 -1.56,2.2 -1.56,5.96 0,3.8 1.56,6 1.56,2.16 4.28,2.16 2.64,0 4.16,-2.12 1.52,-2.16 1.52,-5.92 0,-3.92 -1.52,-6.08 -1.48,-2.2 -4.2,-2.2 z" />
  </g>
</svg>
