<?xml version="1.0" encoding="UTF-8" standalone="no"?>
<svg
   xmlns:dc="http://purl.org/dc/elements/1.1/"
   xmlns:cc="http://creativecommons.org/ns#"
   xmlns:rdf="http://www.w3.org/1999/02/22-rdf-syntax-ns#"
   xmlns:svg="http://www.w3.org/2000/svg"
   xmlns="http://www.w3.org/2000/svg"
   id="svg6"
   version="1.1"
   viewBox="0 0 24 24"
   height="24"
   fill="#000"
   width="24">
  <path
     id="path2"
     fill="none"
     d="M0 0h24v24h-24z" />
  <path
     id="path4"
     d="M20 6h-8l-2-2h-6c-1.1 0-1.99.9-1.99 2l-.01 12c0 1.1.9 2 2 2h16c1.1 0 2-.9 2-2v-10c0-1.1-.9-2-2-2zm0 12h-16v-10h16v10z" />
  <g
     transform="matrix(0.5,0,0,0.5,6,6)"
     id="g4540">
    <path
       style="opacity:0.87000002;fill:none"
       d="M 24,24 H 0 V 0 h 24 z"
       id="path4526" />
    <path
       d="M 19,15 13,21 11.58,19.58 15.17,16 H 4 V 4 h 2 v 10 h 9.17 L 11.58,10.42 13,9 Z"
       id="path4528" />
  </g>
</svg>
