<?xml version="1.0" encoding="UTF-8" standalone="no"?>
<svg
   xmlns:dc="http://purl.org/dc/elements/1.1/"
   xmlns:cc="http://creativecommons.org/ns#"
   xmlns:rdf="http://www.w3.org/1999/02/22-rdf-syntax-ns#"
   xmlns:svg="http://www.w3.org/2000/svg"
   xmlns="http://www.w3.org/2000/svg"
   xmlns:sodipodi="http://sodipodi.sourceforge.net/DTD/sodipodi-0.dtd"
   xmlns:inkscape="http://www.inkscape.org/namespaces/inkscape"
   width="24"
   height="24"
   viewBox="0 0 24 24"
   id="svg2"
   version="1.1"
   inkscape:version="0.91 r13725"
   sodipodi:docname="ic_new_marker_target_c.svg">
  <path
     d="M0 0h24v24h-24z"
     fill="none"
     id="path4" />
  <path
     d="M20.94 11c-.46-4.17-3.77-7.48-7.94-7.94v-2.06h-2v2.06c-4.17.46-7.48 3.77-7.94 7.94h-2.06v2h2.06c.46 4.17 3.77 7.48 7.94 7.94v2.06h2v-2.06c4.17-.46 7.48-3.77 7.94-7.94h2.06v-2h-2.06zm-8.94 8c-3.87 0-7-3.13-7-7s3.13-7 7-7 7 3.13 7 7-3.13 7-7 7z"
     id="path6" />
  <g
     id="g4152"
     transform="matrix(0.5,0,0,0.5,6,6)">
    <path
       id="path4142"
       d="M 22.8,2.61 21.39,1.2 17.86875,4.72125 12,11.99 6.13125,4.72125 2.61,1.2 1.2,2.61 4.72125,6.13125 11.99,12 4.72125,17.86875 1.2,21.39 2.61,22.8 6.13125,19.27875 12,12.01 17.86875,19.27875 21.39,22.8 22.8,21.39 19.27875,17.86875 12.01,12 19.27875,6.13125 Z"
       inkscape:connector-curvature="0"
       sodipodi:nodetypes="ccccccccccccccccccccc" />
    <path
       id="path4144"
       d="M 0,0 24,0 24,24 0,24 Z"
       inkscape:connector-curvature="0"
       style="fill:none" />
  </g>
</svg>
