<?xml version="1.0" encoding="UTF-8" standalone="no"?>
<svg
   xmlns="http://www.w3.org/2000/svg"
   version="1.1"
   fill="#000000"
   width="24px"
   viewBox="0 0 24 24"
   height="24px">
  <path
     fill="none"
     d="M0 0h24v24H0V0z" />
  <path
     d="M 12,2 C 6.49,2 2,6.49 2,12 2,17.51 6.49,22 12,22 17.51,22 22,17.51 22,12 22,6.49 17.51,2 12,2 Z m 0,18 C 7.59,20 4,16.41 4,12 4,7.59 7.59,4 12,4 c 4.41,0 8,3.59 8,8 0,4.41 -3.59,8 -8,8 z" />
  <circle
     r="1"
     cy="12"
     cx="12"
     style="opacity:1;fill:#000000;fill-opacity:0.98654713;stroke:none;stroke-width:2.32813096;stroke-linecap:butt;stroke-linejoin:round;stroke-miterlimit:4;stroke-dasharray:none;stroke-dashoffset:0;stroke-opacity:1;paint-order:markers fill stroke" />
  <circle
     r="9"
     cy="12"
     cx="12"
     style="opacity:0.25;fill:#000000;fill-opacity:0.52017939;stroke:none;stroke-width:2.64829493;stroke-linecap:butt;stroke-linejoin:round;stroke-miterlimit:4;stroke-dasharray:none;stroke-dashoffset:0;stroke-opacity:1;paint-order:markers fill stroke" />
</svg>
