<?xml version="1.0" encoding="UTF-8" standalone="no"?>
<svg
   height="48"
   viewBox="0 96 960 960"
   width="48"
   version="1.1"
   id="svg4"
   xmlns="http://www.w3.org/2000/svg"
   xmlns:svg="http://www.w3.org/2000/svg">
  <defs
     id="defs8" />
  <path
     id="path2"
     style="stroke-width:0.05"
     d="m 21.017578,4.2949219 6.042969,0.00586 z m 6.042969,0.00586 C 27.215869,4.6818379 27.298668,5.088548 27.304688,5.5 27.293399,6.1224603 27.10654,6.7290765 26.765625,7.25 30.309529,7.7827378 33.418709,9.3171468 36.050781,11.949219 39.350781,15.249219 41,19.266667 41,24 41,28.7 39.350781,32.708724 36.050781,36.025391 32.750781,39.342057 28.733333,41 24,41 19.3,41 15.291276,39.342057 11.974609,36.025391 8.6579427,32.708724 7,28.7 7,24 7,19.266667 8.6579427,15.249219 11.974609,11.949219 14.616191,9.3209115 17.717238,7.7869274 21.236328,7.2519531 20.894372,6.7306786 20.706816,6.1233206 20.695312,5.5 20.725271,5.0814936 20.834641,4.6725185 21.017578,4.2949219 19.376459,4.5407248 17.773518,4.9168104 16.25,5.5742188 13.816667,6.6242187 11.691667,8.0496094 9.875,9.8496094 8.0583333,11.649609 6.6242187,13.765885 5.5742188,16.199219 4.5242187,18.632552 4,21.233333 4,24 c 0,2.733333 0.5242188,5.316667 1.5742188,7.75 1.05,2.433333 2.4841145,4.558333 4.3007812,6.375 1.816667,1.816667 3.941667,3.250781 6.375,4.300781 C 18.683333,43.475781 21.266667,44 24,44 c 2.766667,0 5.367448,-0.524219 7.800781,-1.574219 2.433334,-1.05 4.54961,-2.484114 6.34961,-4.300781 1.8,-1.816667 3.22539,-3.941667 4.27539,-6.375 C 43.475781,29.316667 44,26.733333 44,24 c 0,-2.766667 -0.524219,-5.367448 -1.574219,-7.800781 -1.05,-2.433334 -2.47539,-4.54961 -4.27539,-6.3496096 -1.8,-1.8 -3.916276,-3.2253906 -6.34961,-4.2753906 C 30.292516,4.9233921 28.696877,4.5482028 27.060547,4.3007819 Z M 21.236328,7.2519531 26.765625,7.25 Z"
     transform="matrix(20,0,0,20,0,96)" />
  <path
     style="fill:none;stroke:#000000;stroke-width:60;stroke-linecap:round;stroke-linejoin:miter;stroke-miterlimit:4;stroke-dasharray:none;stroke-opacity:1"
     d="M 480,576 V 296"
     id="path5251" />
  <circle
     style="fill:none;fill-opacity:1;stroke:#000000;stroke-width:47.7916;stroke-linecap:round;stroke-miterlimit:4;stroke-dasharray:none;stroke-opacity:1"
     id="path5810-3"
     cx="480.00003"
     cy="206.00002"
     r="66.104218" />
</svg>
