<?xml version="1.0" encoding="UTF-8" standalone="no"?>
<svg
   height="24"
   viewBox="0 -960 960 960"
   width="24"
   version="1.1"
   id="svg4"
   xmlns="http://www.w3.org/2000/svg"
   xmlns:svg="http://www.w3.org/2000/svg">
  <path
     d="m 397.5,-360 q -38.5,0 -58.5,-28.5 -20,-28.5 -19,-64 l -9,-13.5 q -5.5,-8.5 -18.25,-38.5 -12.75,-30 -12.75,-75.5 0,-51.5 25.5,-85.75 Q 331,-700 370,-700 q 42.5,0 66.25,37.75 23.75,37.75 23.75,82.25 0,29 -8,53.5 -8,24.5 -14,39.5 l 4,6.5 q 4,7 11,22.25 7,15.25 7,31.75 0,28.5 -17.75,47.5 -17.75,19 -44.75,19 z m -52.5,-128 55,-11 q 6.5,-16 13.25,-36.5 6.75,-20.5 6.75,-44.5 0,-30 -13.75,-55 -13.75,-25 -36.25,-25 -22.5,0 -36.25,25 -13.75,25 -13.75,55 0,31.5 8.75,55.75 Q 337.5,-500 345,-488 Z m 52.5,88 q 9.5,0 16,-7 6.5,-7 6.5,-19.5 0,-8.5 -4,-17.5 -4,-9 -8,-16 l -48,10 q 0,20 8.75,35 8.75,15 28.75,15 z m 165,140 q -27,0 -44.75,-19 -17.75,-19 -17.75,-47.5 0,-16.5 7,-31.75 7,-15.25 11,-22.25 l 4,-6.5 q -6,-15 -14,-39.5 -8,-24.5 -8,-53.5 0,-44.5 23.75,-82.25 Q 547.5,-600 590,-600 q 39,0 64.5,34.25 25.5,34.25 25.5,85.75 0,45.5 -12.75,75.25 Q 654.5,-375 649,-366.5 l -9,14 q 0.5,35.5 -19.25,64 Q 601,-260 562.5,-260 Z M 615,-388 q 7.5,-12 16.25,-36 8.75,-24 8.75,-56 0,-30 -13.75,-55 -13.75,-25 -36.25,-25 -22.5,0 -36.25,25 -13.75,25 -13.75,55 0,24 6.75,44.25 6.75,20.25 13.25,36.75 z m -52.5,88 q 20,0 28.75,-15 8.75,-15 8.75,-35 l -48,-10 q -4,7 -8,16 -4,9 -4,17.5 0,10 6.25,18.25 6.25,8.25 16.25,8.25 z"
     style="stroke-width:0.5" />
  <path
     d="m 199.99997,-760 v 560 z M 59.999969,-60 V -900 H 900.00002 V -60 Z M 199.99997,-200 H 760.00002 V -760 H 199.99997 Z"
     style="stroke-width:1.75" />
</svg>
