<?xml version="1.0" encoding="UTF-8" standalone="no"?>
<svg
   height="24"
   viewBox="0 -960 960 960"
   width="24"
   version="1.1"
   id="svg4"
   xmlns="http://www.w3.org/2000/svg"
   xmlns:svg="http://www.w3.org/2000/svg">
   <path
      d="m 315,-240 q -77,0 -117,-57 -40,-57 -38,-128 l -18,-27 Q 131,-469 105.5,-529 80,-589 80,-680 q 0,-103 51,-171.5 51,-68.5 129,-68.5 85,0 132.5,75.5 47.5,75.5 47.5,164.5 0,58 -16,107 -16,49 -28,79 l 8,13 q 8,14 22,44.5 14,30.5 14,63.5 0,57 -35.5,95 -35.5,38 -89.5,38 z m -105,-256 110,-22 q 13,-32 26.5,-73 13.5,-41 13.5,-89 0,-60 -27.5,-110 -27.5,-50 -72.5,-50 -45,0 -72.5,50 -27.5,50 -27.5,110 0,63 17.5,111.5 17.5,48.5 32.5,72.5 z m 105,176 q 19,0 32,-14 13,-14 13,-39 0,-17 -8,-35 -8,-18 -16,-32 l -96,20 q 0,40 17.5,70 17.5,30 57.5,30 z m 330,280 q -54,0 -89.5,-38 -35.5,-38 -35.5,-95 0,-33 14,-63.5 14,-30.5 22,-44.5 l 8,-13 q -12,-30 -28,-79 -16,-49 -16,-107 0,-89 47.5,-164.5 Q 615,-720 700,-720 q 78,0 129,68.5 51,68.5 51,171.5 0,91 -25.5,150.5 Q 829,-270 818,-253 l -18,28 q 1,71 -38.5,128 Q 722,-40 645,-40 Z m 105,-256 q 15,-24 32.5,-72 17.5,-48 17.5,-112 0,-60 -27.5,-110 -27.5,-50 -72.5,-50 -45,0 -72.5,50 -27.5,50 -27.5,110 0,48 13.5,88.5 13.5,40.5 26.5,73.5 z m -105,176 q 40,0 57.5,-30 17.5,-30 17.5,-70 l -96,-20 q -8,14 -16,32 -8,18 -8,35 0,20 12.5,36.5 12.5,16.5 32.5,16.5 z"
      id="path2-9-68" />
</svg>
