<?xml version="1.0" encoding="UTF-8" standalone="no"?>
<svg
   xmlns:dc="http://purl.org/dc/elements/1.1/"
   xmlns:cc="http://creativecommons.org/ns#"
   xmlns:rdf="http://www.w3.org/1999/02/22-rdf-syntax-ns#"
   xmlns:svg="http://www.w3.org/2000/svg"
   xmlns="http://www.w3.org/2000/svg"
   width="48"
   height="48"
   viewBox="0 0 48 48"
   id="svg2"
   version="1.1">
  <path
     d="M -7.2,-7.2 H 55.2 V 55.2 H -7.2 Z"
     fill="none"
     style="stroke-width:2.6" />
  <path
     d="M 24,5.9999998 C 14.054998,5.9999998 5.9999998,14.054998 5.9999998,24 5.9999998,33.945002 14.054998,42 24,42 33.945002,42 42,33.945002 42,24 42,14.054998 33.945002,5.9999998 24,5.9999998 Z"
     style="fill:#0975f0;fill-opacity:1;stroke:#ffffff;stroke-width:2;stroke-miterlimit:4;stroke-dasharray:none;stroke-opacity:1" />
  <path
     style="fill:#FFFFFF"
     d="M 19.875,30 Q 17.95,30 16.95,28.574999 15.95,27.149999 16,25.375 l -0.45,-0.675001 q -0.274999,-0.425 -0.9125,-1.925 Q 14,21.274999 14,19 14,16.424999 15.275,14.7125 16.55,13 18.5,13 20.625,13 21.8125,14.8875 23,16.775 23,19 q 0,1.45 -0.4,2.675 -0.399999,1.225 -0.7,1.975 l 0.2,0.325 q 0.200001,0.35 0.55,1.1125 0.349999,0.7625 0.349999,1.5875 0,1.425 -0.887499,2.375 Q 21.225,30 19.875,30 Z M 17.25,23.6 20,23.05 q 0.325001,-0.8 0.6625,-1.825 Q 21,20.2 21,19 21,17.5 20.3125,16.25 19.625,15 18.5,15 17.375,15 16.6875,16.25 16,17.5 16,19 16,20.575 16.4375,21.7875 16.875,23 17.25,23.6 Z m 2.625,4.4 q 0.475,0 0.8,-0.350001 0.325,-0.35 0.325,-0.975 0,-0.425 -0.2,-0.875 -0.2,-0.45 -0.4,-0.8 l -2.4,0.5 q 0,1 0.4375,1.75 0.4375,0.75 1.4375,0.750001 z m 8.25,7 Q 26.774999,35 25.8875,34.049999 25,33.1 25,31.675 25,30.85 25.35,30.0875 25.7,29.325 25.899999,28.975 L 26.1,28.65 Q 25.8,27.9 25.399999,26.675 25,25.449999 25,24 25,21.774999 26.1875,19.8875 27.375,18 29.5,18 31.45,18 32.725,19.712499 34,21.424999 34,24 q 0,2.274999 -0.637501,3.762499 -0.6375,1.487501 -0.9125,1.912501 l -0.45,0.7 q 0.025,1.774999 -0.9625,3.2 Q 30.049999,35 28.125,35 Z M 30.75,28.6 Q 31.125,28 31.5625,26.8 32,25.6 32,24 32,22.5 31.3125,21.25 30.625,20 29.5,20 28.375,20 27.6875,21.25 27,22.5 27,24 q 0,1.199999 0.337499,2.212499 0.3375,1.0125 0.662501,1.8375 z M 28.125,33 q 1,0 1.4375,-0.75 Q 30,31.5 30,30.5 L 27.6,30 q -0.200001,0.35 -0.4,0.8 -0.2,0.45 -0.2,0.875 0,0.499999 0.3125,0.9125 Q 27.625,33 28.125,33 Z" />
</svg>
