<?xml version="1.0" encoding="UTF-8" standalone="no"?>
<svg
   xmlns:dc="http://purl.org/dc/elements/1.1/"
   xmlns:cc="http://creativecommons.org/ns#"
   xmlns:rdf="http://www.w3.org/1999/02/22-rdf-syntax-ns#"
   xmlns:svg="http://www.w3.org/2000/svg"
   xmlns="http://www.w3.org/2000/svg"
   version="1.1"
   id="svg2"
   viewBox="0 0 24 24"
   height="24"
   width="24">
  <metadata
     id="metadata12">
    <rdf:RDF>
      <cc:Work
         rdf:about="">
        <dc:format>image/svg+xml</dc:format>
        <dc:type
           rdf:resource="http://purl.org/dc/dcmitype/StillImage" />
        <dc:title></dc:title>
      </cc:Work>
    </rdf:RDF>
  </metadata>
  <defs
     id="defs10" />
  <circle
     style="opacity:1;fill:#ffffff;fill-opacity:1;stroke:none;stroke-width:3.25392842;stroke-linecap:butt;stroke-linejoin:round;stroke-miterlimit:4;stroke-dasharray:none;stroke-dashoffset:0;stroke-opacity:1;paint-order:markers fill stroke"
     id="path814"
     cx="12"
     cy="12"
     r="3.5" />
  <path
     style="opacity:1;fill:#ffffff;fill-opacity:0.98897058;stroke:none;stroke-width:2;stroke-linecap:butt;stroke-linejoin:round;stroke-miterlimit:4;stroke-dasharray:none;stroke-dashoffset:0;stroke-opacity:1;paint-order:markers fill stroke"
     d="m 12,3.081 v 0 0 l 4.232,6.838 H 7.768 Z"
     id="rect816" />
  <path
     fill="none"
     id="path4"
     d="M0 0h24v24h-24z" />
  <path
     style="fill:#0975f0;fill-opacity:1"
     id="path6"
     d="m 12,9.2 c -1.547,0 -2.8,1.253 -2.8,2.8 0,1.547 1.253,2.8 2.8,2.8 1.547,0 2.8,-1.253 2.8,-2.8 0,-1.547 -1.253,-2.8 -2.8,-2.8 z m 3.465875,0.334125 v 0 c -4.684245,-6.8866637 -2.249259,-7.0714449 -6.93175,0 z m -6.93175,0 C 8.534125,9.534125 10.6455,8.1 12,8.1 c 1.3545,0 3.465875,1.434125 3.465875,1.434125 v 0 z" />
</svg>
