<?xml version="1.0" encoding="UTF-8" standalone="no"?>
<svg
   version="1.1"
   id="svg2"
   viewBox="0 0 48 48"
   height="48"
   width="48"
   xmlns="http://www.w3.org/2000/svg"
   xmlns:svg="http://www.w3.org/2000/svg"
   xmlns:rdf="http://www.w3.org/1999/02/22-rdf-syntax-ns#"
   xmlns:cc="http://creativecommons.org/ns#"
   xmlns:dc="http://purl.org/dc/elements/1.1/">
  <circle
     style="opacity:1;fill:#ffffff;fill-opacity:1;stroke:none;stroke-width:8.46022;stroke-linecap:butt;stroke-linejoin:round;stroke-miterlimit:4;stroke-dasharray:none;stroke-dashoffset:0;stroke-opacity:1;paint-order:markers fill stroke"
     id="path814"
     cx="24"
     cy="24"
     r="9.1000004" />
  <path
     style="opacity:1;fill:#ffffff;fill-opacity:0.988971;stroke:none;stroke-width:5.2;stroke-linecap:butt;stroke-linejoin:round;stroke-miterlimit:4;stroke-dasharray:none;stroke-dashoffset:0;stroke-opacity:1;paint-order:markers fill stroke"
     d="m 24,0.8106 v 0 0 L 35.0032,18.5894 H 12.9968 Z"
     id="rect816" />
  <path
     fill="none"
     id="path4"
     d="M -7.2,-7.2 H 55.2 V 55.2 H -7.2 Z"
     style="stroke-width:2.6" />
  <path
     style="fill:#0975f0;fill-opacity:1;stroke-width:2.6"
     id="path6"
     d="m 24,16.72 c -4.0222,0 -7.28,3.2578 -7.28,7.28 0,4.0222 3.2578,7.28 7.28,7.28 4.0222,0 7.28,-3.2578 7.28,-7.28 0,-4.0222 -3.2578,-7.28 -7.28,-7.28 z m 9.011275,0.868725 v 0 c -12.179037,-17.90532562 -5.848073,-18.38575674 -18.02255,0 z m -18.02255,0 c 0,0 5.489575,-3.728725 9.011275,-3.728725 3.5217,0 9.011275,3.728725 9.011275,3.728725 v 0 z" />
</svg>
