<?xml version="1.0" encoding="UTF-8" standalone="no"?>
<svg
   xmlns:dc="http://purl.org/dc/elements/1.1/"
   xmlns:cc="http://creativecommons.org/ns#"
   xmlns:rdf="http://www.w3.org/1999/02/22-rdf-syntax-ns#"
   xmlns:svg="http://www.w3.org/2000/svg"
   xmlns="http://www.w3.org/2000/svg"
   height="24"
   viewBox="0 0 64 24"
   width="64"
   version="1.1"
   id="svg18">
  <path
     d="m 73.863347,18.915254 h 24 v 24 h -24 z"
     id="path14"
     style="fill:none" />
  <path
     d="m 7.9967731,18.92118 c -0.38766,-1.903 -1.0711605,-3.4867 -1.89903,-4.954401 -0.61407,-1.0887 -1.32544,-2.093599 -1.98364,-3.149399 -0.21972,-0.35243 -0.40934,-0.72476 -0.62047,-1.0905295 -0.42216,-0.73137 -0.76444,-1.57935 -0.74269,-2.67932 0.02125,-1.07473 0.33208,-1.93684 0.7803,-2.64172 0.73719,-1.1593501 1.97201,-2.1098901 3.62884,-2.3596906 1.35466,-0.2042395 2.6247495,0.14082 3.5254309,0.66748 0.735959,0.4303805 1.305959,1.0052705 1.739159,1.6828006 0.4522,0.70716 0.7636,1.5426 0.7897,2.6323195 0.0134,0.5583005 -0.078,1.0753205 -0.2068,1.5041805 -0.1303,0.43409 -0.3399,0.79695 -0.5264,1.18454 -0.3641,0.7565895 -0.8205,1.4498395 -1.2786,2.1434395 -1.3643699,2.0661 -2.6449599,4.1731 -3.2057999,7.0603 z"
     stroke-miterlimit="10"
     id="svg_2"
     style="clip-rule:evenodd;fill:#000;fill-opacity:0;fill-rule:evenodd;stroke:#000;stroke-width:1.5;stroke-miterlimit:10;stroke-dasharray:none;stroke-opacity:1" />
  <path
     style="fill:none;fill-opacity:1;fill-rule:nonzero;stroke:#000;stroke-width:2.5;stroke-miterlimit:10;stroke-dasharray:none;stroke-opacity:1"
     id="path4148"
     d="M 7.2570959,10.535295 A 3.5607281,3.5576541 0 0 1 4.4966601,6.328246 3.5607281,3.5576541 0 0 1 8.7065056,3.5689155 3.5607281,3.5576541 0 0 1 11.469499,7.7742885 3.5607281,3.5576541 0 0 1 7.2613316,10.536174" />
  <path
     style="fill:#000;fill-opacity:1;fill-rule:evenodd;stroke:none;stroke-width:0.05px;stroke-linecap:butt;stroke-linejoin:miter;stroke-opacity:1"
     d="m 4.3442981,10.281427 7.4533849,-0.07764 -3.6490529,6.832269 z"
     id="path4150" />
  <path
     d="m 48.813559,4 h -6 c -1.1,0 -1.99,0.9 -1.99,2 l -0.01,12 c 0,1.1 0.9,2 2,2 h 16 c 1.1,0 2,-0.9 2,-2 V 8 c 0,-1.1 -0.9,-2 -2,-2 h -8 z"
     id="path1410"
     style="fill:#000;fill-opacity:1" />
  <path
     style="fill:none"
     d="m 38.813559,0 h 24 v 24 h -24 z"
     id="path1412" />
  <path
     style="fill:none"
     d="m 14.813559,0 h 24 v 24 h -24 z"
     id="path1506" />
  <path
     d="m 31.813559,6 h -10 c -3.31,0 -6,2.69 -6,6 0,3.31 2.69,6 6,6 h 10 c 3.31,0 6,-2.69 6,-6 0,-3.31 -2.69,-6 -6,-6 z m 0,10 h -10 c -2.21,0 -4,-1.79 -4,-4 0,-2.21 1.79,-4 4,-4 h 10 c 2.21,0 4,1.79 4,4 0,2.21 -1.79,4 -4,4 z m 0,-7 c -1.66,0 -3,1.34 -3,3 0,1.66 1.34,3 3,3 1.66,0 3,-1.34 3,-3 0,-1.66 -1.34,-3 -3,-3 z"
     id="path1508"
     style="fill:#000;fill-opacity:1" />
</svg>
