<?xml version="1.0" encoding="UTF-8" standalone="no"?>
<svg
   xmlns:dc="http://purl.org/dc/elements/1.1/"
   xmlns:cc="http://creativecommons.org/ns#"
   xmlns:rdf="http://www.w3.org/1999/02/22-rdf-syntax-ns#"
   xmlns:svg="http://www.w3.org/2000/svg"
   xmlns="http://www.w3.org/2000/svg"
   height="24"
   viewBox="0 0 64 24"
   width="64"
   version="1.1"
   id="svg18">
  <metadata
     id="metadata24">
    <rdf:RDF>
      <cc:Work
         rdf:about="">
        <dc:format>image/svg+xml</dc:format>
        <dc:type
           rdf:resource="http://purl.org/dc/dcmitype/StillImage" />
        <dc:title></dc:title>
      </cc:Work>
    </rdf:RDF>
  </metadata>
  <defs
     id="defs22" />
  <path
     d="m 73.863347,18.915254 h 24 v 24 h -24 z"
     id="path14"
     style="fill:none" />
  <path
     d="m 31.813559,6 h -10 c -3.31,0 -6,2.69 -6,6 0,3.31 2.69,6 6,6 h 10 c 3.31,0 6,-2.69 6,-6 0,-3.31 -2.69,-6 -6,-6 z m 0,10 h -10 c -2.21,0 -4,-1.79 -4,-4 0,-2.21 1.79,-4 4,-4 h 10 c 2.21,0 4,1.79 4,4 0,2.21 -1.79,4 -4,4 z m -10,-7 c -1.66,0 -3,1.34 -3,3 0,1.66 1.34,3 3,3 1.66,0 3,-1.34 3,-3 0,-1.66 -1.34,-3 -3,-3 z"
     id="path16"
     style="fill:#000;fill-opacity:1" />
  <path
     style="fill:none"
     d="m 38.813559,0 h 24 v 24 h -24 z"
     id="path1412" />
  <path
     d="m 73.863343,18.915254 h 24 v 24.000001 h -24 z"
     id="path14-3"
     style="fill:none" />
  <path
     d="m 7.996773,18.92118 c -0.38766,-1.903 -1.07116,-3.4867 -1.89903,-4.954401 -0.61407,-1.088699 -1.32544,-2.093598 -1.98364,-3.149398 -0.21972,-0.35243 -0.40934,-0.72476 -0.62047,-1.0905305 -0.42216,-0.73137 -0.76444,-1.57935 -0.74269,-2.67932 0.02125,-1.07473 0.33208,-1.93684 0.7803,-2.64172 0.73719,-1.15935 1.97201,-2.10989 3.62884,-2.359691 1.35466,-0.204239 2.62475,0.14082 3.525431,0.66748 0.735959,0.430381 1.305959,1.005271 1.739159,1.682801 0.4522,0.70716 0.7636,1.5426 0.7897,2.63232 0.0134,0.5583 -0.078,1.07532 -0.2068,1.50418 -0.1303,0.43409 -0.3399,0.79695 -0.5264,1.18454 -0.3641,0.7565905 -0.8205,1.4498405 -1.2786,2.1434405 -1.36437,2.066099 -2.64496,4.173099 -3.2058,7.060299 z"
     stroke-miterlimit="10"
     id="svg_2"
     style="clip-rule:evenodd;fill:#000000;fill-opacity:0;fill-rule:evenodd;stroke:#000000;stroke-width:1.5;stroke-miterlimit:10;stroke-dasharray:none;stroke-opacity:1" />
  <path
     style="fill:none;fill-opacity:1;fill-rule:nonzero;stroke:#000000;stroke-width:2.5;stroke-miterlimit:10;stroke-dasharray:none;stroke-opacity:1"
     id="path4148"
     d="M 7.257096,10.535296 A 3.5607281,3.5576541 0 0 1 4.49666,6.3282465 3.5607281,3.5576541 0 0 1 8.706506,3.5689155 3.5607281,3.5576541 0 0 1 11.469499,7.7742885 3.5607281,3.5576541 0 0 1 7.261332,10.536175" />
  <path
     style="fill:#000000;fill-opacity:1;fill-rule:evenodd;stroke:none;stroke-width:0.05px;stroke-linecap:butt;stroke-linejoin:miter;stroke-opacity:1"
     d="m 4.344298,10.281428 7.453385,-0.07764 -3.649053,6.832268 z"
     id="path4150" />
  <path
     d="m 48.813559,4.0000005 h -6 c -1.1,0 -1.99,0.9 -1.99,2 L 40.813559,18 c 0,1.1 0.9,2 2,2 h 16 c 1.1,0 2,-0.9 2,-2 V 8.0000005 c 0,-1.1 -0.9,-2 -2,-2 h -8 z"
     id="path1410"
     style="fill:#000000;fill-opacity:1" />
  <path
     style="fill:none"
     d="m 38.813559,5e-7 h 24 V 24 h -24 z"
     id="path1412-6" />
  <path
     style="fill:none"
     d="m 14.813559,5e-7 h 24 V 24 h -24 z"
     id="path1506" />
</svg>
