<?xml version="1.0" encoding="UTF-8" standalone="no"?>
<svg
   fill="#000000"
   height="24"
   viewBox="0 0 24 24"
   width="24"
   id="svg2"
   version="1.1"
   xmlns="http://www.w3.org/2000/svg"
   xmlns:svg="http://www.w3.org/2000/svg"
   xmlns:rdf="http://www.w3.org/1999/02/22-rdf-syntax-ns#"
   xmlns:cc="http://creativecommons.org/ns#"
   xmlns:dc="http://purl.org/dc/elements/1.1/">
  <path
     d="M 16.144444,1.9999999 H 7.8555556 L 2.0000001,7.8555555 V 16.144444 L 7.8555556,22 H 16.144444 L 22,16.144444 V 7.8555555 Z"
     id="path4-3"
     style="fill:#ffffff;fill-opacity:1;stroke-width:1.11111" />
  <path
     d="M15.73 3H8.27L3 8.27v7.46L8.27 21h7.46L21 15.73V8.27L15.73 3zM12 17.3c-.72 0-1.3-.58-1.3-1.3 0-.72.58-1.3 1.3-1.3.72 0 1.3.58 1.3 1.3 0 .72-.58 1.3-1.3 1.3zm1-4.3h-2V7h2v6z"
     id="path4"
     style="fill:#ffb380" />
  <path
     d="M0 0h24v24H0z"
     fill="none"
     id="path6" />
</svg>
