<svg xmlns="http://www.w3.org/2000/svg" width="24" height="24" viewBox="0 0 24 24"><path d="M 12 10.8 C 13.7673111995 10.8 15.2 12.2326888005 15.2 14 C 15.2 15.7673111995 13.7673111995 17.2 12 17.2 C 10.2326888005 17.2 8.8 15.7673111995 8.8 14 C 8.8 12.2326888005 10.2326888005 10.8 12 10.8 Z" style="fill:#000;fill-opacity:1"/><path d="M16 3.33c2.58 0 4.67 2.09 4.67 4.67H22c0-3.31-2.69-6-6-6v1.33M16 6c1.11 0 2 .89 2 2h1.33c0-1.84-1.49-3.33-3.33-3.33V6" style="fill:#000;fill-opacity:1"/><path d="M17 9c0-1.11-.89-2-2-2V4H9L7.17 6H4c-1.1 0-2 .9-2 2v12c0 1.1 .9 2 2 2h16c1.1 0 2-.9 2-2V9h-5zm-5 10c-2.76 0-5-2.24-5-5s2.24-5 5-5 5 2.24 5 5-2.24 5-5 5z" style="fill:#000;fill-opacity:1"/></svg>