<svg xmlns="http://www.w3.org/2000/svg" width="24" height="24" viewBox="0 0 24 24"><path transform="scale(0.48)" d="M12.551 49.485c-.34 .596 -1.308 .69 -2.162 .2 l-5.346-3.043c-.85-.485-1.265-1.362-.924-1.957l22.737-36.043c3.27-5.286-8.16-4.82-10.966-3.264 2.122-3.805 8.885-5.061 13.271-5.378l1.276 .083 c2.479 1.235 6.034 3.088 8.377 4.642 1.721 2.703 3.536 4.126 6.106 4.119 3.354 2.57-1.885 9.581-5.181 6.334 .018 -1.604-4.636-5.754-7.896-2.335l-19.292 36.642z" style="fill:#000;fill-opacity:1"/></svg>