<?xml version="1.0" encoding="UTF-8" standalone="no"?>
<svg
   xmlns:dc="http://purl.org/dc/elements/1.1/"
   xmlns:cc="http://creativecommons.org/ns#"
   xmlns:rdf="http://www.w3.org/1999/02/22-rdf-syntax-ns#"
   xmlns:svg="http://www.w3.org/2000/svg"
   xmlns="http://www.w3.org/2000/svg"
   xmlns:xlink="http://www.w3.org/1999/xlink"
   version="1.1"
   id="svg2"
   width="24"
   viewBox="0 0 24 24"
   height="24"
   fill="#000000">
  <metadata
     id="metadata14">
    <rdf:RDF>
      <cc:Work
         rdf:about="">
        <dc:format>image/svg+xml</dc:format>
        <dc:type
           rdf:resource="http://purl.org/dc/dcmitype/StillImage" />
        <dc:title></dc:title>
      </cc:Work>
    </rdf:RDF>
  </metadata>
  <defs
     id="defs4">
    <path
       id="a"
       d="M0 0h24v24H0V0z" />
    <clipPath
       id="b-5">
      <use
         id="use8-1"
         xlink:href="#a"
         overflow="visible" />
    </clipPath>
    <clipPath
       id="b-5-2">
      <use
         id="use8-1-8"
         xlink:href="#a"
         overflow="visible" />
    </clipPath>
    <clipPath
       id="b-5-8">
      <use
         id="use8-1-4"
         xlink:href="#a"
         overflow="visible" />
    </clipPath>
    <clipPath
       id="b-5-3">
      <use
         id="use8-1-1"
         xlink:href="#a"
         overflow="visible" />
    </clipPath>
    <clipPath
       id="b-5-39">
      <use
         id="use8-1-2"
         xlink:href="#a"
         overflow="visible" />
    </clipPath>
    <clipPath
       id="b-5-1">
      <use
         id="use8-1-6"
         xlink:href="#a"
         overflow="visible" />
    </clipPath>
    <clipPath
       id="b-5-36">
      <use
         id="use8-1-24"
         xlink:href="#a"
         overflow="visible" />
    </clipPath>
    <clipPath
       id="b-5-7">
      <use
         id="use8-1-7"
         xlink:href="#a"
         overflow="visible" />
    </clipPath>
    <clipPath
       id="b-5-29">
      <use
         id="use8-1-5"
         xlink:href="#a"
         overflow="visible" />
    </clipPath>
    <clipPath
       id="b-5-86">
      <use
         id="use8-1-29"
         xlink:href="#a"
         overflow="visible" />
    </clipPath>
    <clipPath
       id="b-5-30">
      <use
         id="use8-1-82"
         xlink:href="#a"
         overflow="visible" />
    </clipPath>
  </defs>
  <clipPath
     id="b">
    <use
       id="use8"
       xlink:href="#a"
       overflow="visible" />
  </clipPath>
  <g
     transform="translate(1.4144543,1.0837822)"
     id="g4306">
    <path
       style="fill:#000000;fill-opacity:1;fill-rule:evenodd;stroke:none;stroke-width:1;stroke-linecap:round;stroke-miterlimit:4;stroke-dasharray:1, 1;stroke-dashoffset:0;stroke-opacity:1"
       id="path4304"
       d="m 16.925533,17.70117 a 2,2 0 0 1 -1.550477,-2.365074 2,2 0 0 1 2.3646,-1.5512 2,2 0 0 1 1.551922,2.364127 2,2 0 0 1 -2.363652,1.552644" />
    <path
       clip-path="url(#b-5-2)"
       d="m 23,8 c 0,1.1 -0.9,2 -2,2 -0.18,0 -0.35,-0.02 -0.51,-0.07 l -3.56,3.55 c 0.05,0.16 -0.694435,0.248085 -0.872318,0.22056 -1.123326,-0.173825 -0.162197,-0.617435 -0.396513,0.39687 0,0 -0.538424,1.148947 -0.538424,0.04895 -0.555989,-0.424458 -0.378946,-1.071367 0.07555,-1.131325 0.16,-0.05 0.229358,-0.256063 0.409358,-0.256063 C 15.787657,12.758989 15.36,12.02 15.52,12.07 L 19.07,8.51 C 19.02,8.35 19,8.18 19,8 c 0,-1.1 0.9,-2 2,-2 1.1,0 2,0.9 2,2 z"
       id="path10-3-3"
       transform="matrix(-0.98684661,0.16165942,-0.16165942,-0.98684661,25.850621,23.092176)" />
    <path
       clip-path="url(#b-5-8)"
       d="m 23,8 c 0,1.1 -0.9,2 -2,2 -0.18,0 -0.35,-0.02 -0.51,-0.07 l -3.56,3.55 c 0.147035,-1.079229 0.133334,-1.422335 -1.41,-1.41 L 19.07,8.51 C 19.02,8.35 19,8.18 19,8 c 0,-1.1 0.9,-2 2,-2 1.1,0 2,0.9 2,2 z"
       id="path10-3-9"
       transform="matrix(0.71307802,-0.70108469,0.70108469,0.71307802,-3.2433652,17.073051)" />
    <path
       clip-path="url(#b-5-39)"
       d="m 23,8 c 0,1.1 -0.9,2 -2,2 -0.18,0 -0.35,-0.02 -0.51,-0.07 l -3.56,3.55 c 0.05,0.16 -0.694435,0.248085 -0.872318,0.22056 -1.123326,-0.173825 -0.162197,-0.617435 -0.396513,0.39687 0,0 -0.538424,1.148947 -0.538424,0.04895 -0.555989,-0.424458 -0.378946,-1.071367 0.07555,-1.131325 0.16,-0.05 0.229358,-0.256063 0.409358,-0.256063 C 15.787657,12.758989 15.36,12.02 15.52,12.07 L 19.07,8.51 C 19.02,8.35 19,8.18 19,8 c 0,-1.1 0.9,-2 2,-2 1.1,0 2,0.9 2,2 z"
       id="path10-3-85"
       transform="matrix(-0.08768255,-0.99614847,0.99614847,-0.08768255,5.6204908,24.860785)" />
    <path
       clip-path="url(#b-5-1)"
       d="m 23,8 c 0,1.1 -0.9,2 -2,2 -0.18,0 -0.35,-0.02 -0.51,-0.07 l -3.56,3.55 c 0.05,0.16 -0.694435,0.248085 -0.872318,0.22056 -1.123326,-0.173825 -0.162197,-0.617435 -0.396513,0.39687 0,0 -0.538424,1.148947 -0.538424,0.04895 -0.555989,-0.424458 -0.378946,-1.071367 0.07555,-1.131325 0.16,-0.05 0.229358,-0.256063 0.409358,-0.256063 C 15.787657,12.758989 15.36,12.02 15.52,12.07 L 19.07,8.51 C 19.02,8.35 19,8.18 19,8 c 0,-1.1 0.9,-2 2,-2 1.1,0 2,0.9 2,2 z"
       id="path10-3-5"
       transform="matrix(-0.8643744,-0.50284877,0.50284877,-0.8643744,18.596689,22.813983)" />
    <path
       clip-path="url(#b-5-36)"
       d="m 23,8 c 0,1.1 -0.9,2 -2,2 -0.18,0 -0.35,-0.02 -0.51,-0.07 l -3.56,3.55 c 0.05,0.16 -0.694435,0.248085 -0.872318,0.22056 -1.123326,-0.173825 -0.162197,-0.617435 -0.396513,0.39687 0,0 -0.538424,1.148947 -0.538424,0.04895 -0.555989,-0.424458 -0.378946,-1.071367 0.07555,-1.131325 0.16,-0.05 0.229358,-0.256063 0.409358,-0.256063 C 15.787657,12.758989 15.36,12.02 15.52,12.07 L 19.07,8.51 C 19.02,8.35 19,8.18 19,8 c 0,-1.1 0.9,-2 2,-2 1.1,0 2,0.9 2,2 z"
       id="path10-3-82"
       transform="matrix(-0.26248759,0.96493537,-0.96493537,-0.26248759,21.627193,-5.8713314)" />
    <path
       clip-path="url(#b-5-30)"
       d="m 21,6 c -10.439633,8.733978 -5.219816,4.366989 0,0 z"
       id="path10-3-0"
       transform="matrix(0.9852369,0.17119652,-0.17119652,0.9852369,-1.9916887,4.2667381)" />
    <path
       style="fill:none;fill-rule:evenodd;stroke:#000000;stroke-width:2;stroke-linecap:butt;stroke-linejoin:miter;stroke-miterlimit:4;stroke-dasharray:none;stroke-opacity:1"
       d="M 17.43681,15.552873 3.7949004,18.928204"
       id="path4302" />
  </g>
  <path
     id="rect850"
     d="M 5.421772,6.0916734 13.562905,3.837108 18.667247,9.6636157 18.851264,16.636655 5.2093547,20.011986 9.5309214,12.795733 Z"
     style="opacity:0.25;fill:#000000;fill-opacity:1;stroke:none;stroke-width:2;stroke-linecap:butt;stroke-linejoin:round;stroke-miterlimit:4;stroke-dasharray:none;stroke-dashoffset:0;stroke-opacity:1;paint-order:markers fill stroke" />
</svg>
