<svg xmlns="http://www.w3.org/2000/svg" width="24" height="24" viewBox="0 0 24 24"><path transform="scale(0.48)" d="M4 40h4.894c1.838 0 3.087 .654 3.087 2.464 0 .948-.471 1.644-1.308 2.05 1.178 .336 1.779 1.358 1.779 2.567 0 1.967-1.673 2.919-3.429 2.919h-5.023v-10zm2 4h2.623c.742 0 1.295-.207 1.295-1.021 0-.924-.707-.979-1.46-.979h-2.458v2zm0 4h2.741c.848 0 1.579-.439 1.579-1.447 0-.988-.625-1.553-1.532-1.553h-2.788v3zm8-5h2v1h.022c.354-1 1.459-1.448 2.402-1.448 .13 0 .576 .077 .576 .118 v1.792c-1-.042-.663-.065-.887-.065-1.414 0-2.113 1.014-2.113 2.251v3.352h-2v-7zm5.829 2c.106-2 1.625-2.376 3.192-2.376 1.402 0 2.979 .288 2.979 1.973v3.653c0 .636 .273 1.75 .451 1.75h-1.944c-.071 0-.13-.542-.142-.772-.613 .637 -1.508 .819 -2.356 .819 -1.332 0-2.392-.689-2.392-2.127 0-1.592 1.189-1.968 2.392-2.145 1.179-.165 2.274-.141 2.274-.926 0-.83-.565-.933-1.249-.933-.73 0-1.202 .083 -1.272 1.083h-1.933zm4.171 1.377c0 .282-.859 .294 -1.461 .405 -.601 .124 -1.073 .324 -1.073 1.032 0 .718 .46 .895 1.084 .895 1.508 0 1.449-1.195 1.449-1.614v-.718zm6.164-4.673h-1.934v-1.585h1.934v1.585zm-2.164 1.296h2v7h-2v-7zm4-3h2v10h-2v-10zm4 0h2v10h-2v-10zm5.699 7c.06 1 .647 1.84 1.721 1.84 .778 0 1.402-.84 1.52-.84h1.696c-.541 1-1.696 2.182-3.275 2.182-2.214 0-3.582-1.61-3.582-3.786 0-2.102 1.45-3.636 3.582-3.636 2.381 0 3.536 2.24 3.405 4.24h-5.067zm3.135-1c-.177-1-.589-1.49-1.532-1.49-1.226 0-1.579 .49 -1.603 1.49h3.135z" style="fill:#000;fill-opacity:1"/><path transform="scale(0.48)" d="M 14.5 29 C 16.4329966244 29 18 30.5670033756 18 32.5 C 18 34.4329966244 16.4329966244 36 14.5 36 C 12.5670033756 36 11 34.4329966244 11 32.5 C 11 30.5670033756 12.5670033756 29 14.5 29 Z" style="fill:#000;fill-opacity:1"/><path transform="scale(0.48)" d="M 14.5 15 C 16.4329966244 15 18 16.5670033756 18 18.5 C 18 20.4329966244 16.4329966244 22 14.5 22 C 12.5670033756 22 11 20.4329966244 11 18.5 C 11 16.5670033756 12.5670033756 15 14.5 15 Z" style="fill:#000;fill-opacity:1"/><path transform="scale(0.48)" d="M 14.5 1 C 16.4329966244 1 18 2.56700337559 18 4.5 C 18 6.43299662441 16.4329966244 8 14.5 8 C 12.5670033756 8 11 6.43299662441 11 4.5 C 11 2.56700337559 12.5670033756 1 14.5 1 Z" style="fill:#000;fill-opacity:1"/><path transform="scale(0.48)" d="M 35.5 29 C 37.4329966244 29 39 30.5670033756 39 32.5 C 39 34.4329966244 37.4329966244 36 35.5 36 C 33.5670033756 36 32 34.4329966244 32 32.5 C 32 30.5670033756 33.5670033756 29 35.5 29 Z" style="fill:#000;fill-opacity:1"/><path transform="scale(0.48)" d="M 35.5 15 C 37.4329966244 15 39 16.5670033756 39 18.5 C 39 20.4329966244 37.4329966244 22 35.5 22 C 33.5670033756 22 32 20.4329966244 32 18.5 C 32 16.5670033756 33.5670033756 15 35.5 15 Z" style="fill:#000;fill-opacity:1"/><path transform="scale(0.48)" d="M 35.5 1 C 37.4329966244 1 39 2.56700337559 39 4.5 C 39 6.43299662441 37.4329966244 8 35.5 8 C 33.5670033756 8 32 6.43299662441 32 4.5 C 32 2.56700337559 33.5670033756 1 35.5 1 Z" style="fill:#000;fill-opacity:1"/></svg>