<svg xmlns="http://www.w3.org/2000/svg" width="24" height="24" viewBox="0 0 24 24"><path transform="scale(0.48)" d="M41 1h-32c-2.2 0-4 1.8-4 4v40c0 2.2 1.8 4 4 4h32c2.2 0 4-1.8 4-4v-40c0-2.2-1.8-4-4-4zm-24 40c0 1.1-.9 2-2 2h-4c-1.1 0-2-.9-2-2v-1c0-1.1 .9 -2 2-2h4c1.1 0 2 .9 2 2v1zm0-8c0 1.1-.9 2-2 2h-4c-1.1 0-2-.9-2-2v-1c0-1.1 .9 -2 2-2h4c1.1 0 2 .9 2 2v1zm0-8c0 1.1-.9 2-2 2h-4c-1.1 0-2-.9-2-2v-1c0-1.1 .9 -2 2-2h4c1.1 0 2 .9 2 2v1zm12 16c0 1.1-.9 2-2 2h-4c-1.1 0-2-.9-2-2v-1c0-1.1 .9 -2 2-2h4c1.1 0 2 .9 2 2v1zm0-8c0 1.1-.9 2-2 2h-4c-1.1 0-2-.9-2-2v-1c0-1.1 .9 -2 2-2h4c1.1 0 2 .9 2 2v1zm0-8c0 1.1-.9 2-2 2h-4c-1.1 0-2-.9-2-2v-1c0-1.1 .9 -2 2-2h4c1.1 0 2 .9 2 2v1zm12 16c0 1.1-.9 2-2 2h-4c-1.1 0-2-.9-2-2v-1c0-1.1 .9 -2 2-2h4c1.1 0 2 .9 2 2v1zm0-8c0 1.1-.9 2-2 2h-4c-1.1 0-2-.9-2-2v-1c0-1.1 .9 -2 2-2h4c1.1 0 2 .9 2 2v1zm0-8c0 1.1-.9 2-2 2h-4c-1.1 0-2-.9-2-2v-1c0-1.1 .9 -2 2-2h4c1.1 0 2 .9 2 2v1zm0-9c0 1.1-.9 2-2 2h-28c-1.1 0-2-.9-2-2v-8c0-1.1 .9 -2 2-2h28c1.1 0 2 .9 2 2v8z" style="fill:#000;fill-opacity:1"/></svg>