<svg xmlns="http://www.w3.org/2000/svg" width="24" height="24" viewBox="0 0 24 24"><path d="M 15.5 15 C 16.0522847498 15 16.5 15.4477152502 16.5 16 C 16.5 16.5522847498 16.0522847498 17 15.5 17 C 14.9477152502 17 14.5 16.5522847498 14.5 16 C 14.5 15.4477152502 14.9477152502 15 15.5 15 Z" style="fill:#000;fill-opacity:1"/><path d="M 8.5 15 C 9.05228474983 15 9.5 15.4477152502 9.5 16 C 9.5 16.5522847498 9.05228474983 17 8.5 17 C 7.94771525017 17 7.5 16.5522847498 7.5 16 C 7.5 15.4477152502 7.94771525017 15 8.5 15 Z" style="fill:#000;fill-opacity:1"/><path d="M7.01 9h10v5h-10zM17.8 2.8C16 2.09 13.86 2 12 2c-1.86 0-4 .09-5.8 .8 C3.53 3.84 2 6.05 2 8.86V22h20V8.86c0-2.81-1.53-5.02-4.2-6.06zm.2 13.08c0 1.45-1.18 2.62-2.63 2.62l1.13 1.12V20H15l-1.5-1.5h-2.83L9.17 20H7.5v-.38l1.12-1.12C7.18 18.5 6 17.32 6 15.88V9c0-2.63 3-3 6-3 3.32 0 6 .38 6 3v6.88z" style="fill:#000;fill-opacity:1"/></svg>