<svg xmlns="http://www.w3.org/2000/svg" width="24" height="24" viewBox="0 0 24 24"><path d="M22 21c-1.11 0-1.73-.37-2.18-.64-.37-.22-.6-.36-1.15-.36-.56 0-.78 .13 -1.15 .36 -.46 .27 -1.07 .64 -2.18 .64 s-1.73-.37-2.18-.64c-.37-.22-.6-.36-1.15-.36-.56 0-.78 .13 -1.15 .36 -.46 .27 -1.08 .64 -2.19 .64 -1.11 0-1.73-.37-2.18-.64-.37-.23-.6-.36-1.15-.36s-.78 .13 -1.15 .36 c-.46 .27 -1.08 .64 -2.19 .64 v-2c.56 0 .78-.13 1.15-.36 .46 -.27 1.08-.64 2.19-.64s1.73 .37 2.18 .64 c.37 .23 .59 .36 1.15 .36 .56 0 .78-.13 1.15-.36 .46 -.27 1.08-.64 2.19-.64 1.11 0 1.73 .37 2.18 .64 .37 .22 .6 .36 1.15 .36 s.78-.13 1.15-.36c.45-.27 1.07-.64 2.18-.64s1.73 .37 2.18 .64 c.37 .23 .59 .36 1.15 .36 v2zm0-4.5c-1.11 0-1.73-.37-2.18-.64-.37-.22-.6-.36-1.15-.36-.56 0-.78 .13 -1.15 .36 -.45 .27 -1.07 .64 -2.18 .64 s-1.73-.37-2.18-.64c-.37-.22-.6-.36-1.15-.36-.56 0-.78 .13 -1.15 .36 -.45 .27 -1.07 .64 -2.18 .64 s-1.73-.37-2.18-.64c-.37-.22-.6-.36-1.15-.36s-.78 .13 -1.15 .36 c-.47 .27 -1.09 .64 -2.2 .64 v-2c.56 0 .78-.13 1.15-.36 .45 -.27 1.07-.64 2.18-.64s1.73 .37 2.18 .64 c.37 .22 .6 .36 1.15 .36 .56 0 .78-.13 1.15-.36 .45 -.27 1.07-.64 2.18-.64s1.73 .37 2.18 .64 c.37 .22 .6 .36 1.15 .36 s.78-.13 1.15-.36c.45-.27 1.07-.64 2.18-.64s1.73 .37 2.18 .64 c.37 .22 .6 .36 1.15 .36 v2zM8.67 12c.56 0 .78-.13 1.15-.36 .46 -.27 1.08-.64 2.19-.64 1.11 0 1.73 .37 2.18 .64 .37 .22 .6 .36 1.15 .36 s.78-.13 1.15-.36c.12-.07 .26 -.15 .41 -.23L10.48 5C8.93 3.45 7.5 2.99 5 3v2.5c1.82-.01 2.89 .39 4 1.5l1 1-3.25 3.25c.31 .12 .56 .27 .77 .39 .37 .23 .59 .36 1.15 .36 z" style="fill:#000;fill-opacity:1"/><path d="M 16.5 3 C 17.8807118746 3 19 4.11928812542 19 5.5 C 19 6.88071187458 17.8807118746 8 16.5 8 C 15.1192881254 8 14 6.88071187458 14 5.5 C 14 4.11928812542 15.1192881254 3 16.5 3 Z" style="fill:#000;fill-opacity:1"/></svg>