<svg xmlns="http://www.w3.org/2000/svg" width="24" height="24" viewBox="0 0 24 24"><path d="M 14.5 9.25 C 15.1903559373 9.25 15.75 9.80964406271 15.75 10.5 C 15.75 11.1903559373 15.1903559373 11.75 14.5 11.75 C 13.8096440627 11.75 13.25 11.1903559373 13.25 10.5 C 13.25 9.80964406271 13.8096440627 9.25 14.5 9.25 Z" style="fill:#000;fill-opacity:1"/><path d="M 9.5 9.25 C 10.1903559373 9.25 10.75 9.80964406271 10.75 10.5 C 10.75 11.1903559373 10.1903559373 11.75 9.5 11.75 C 8.80964406271 11.75 8.25 11.1903559373 8.25 10.5 C 8.25 9.80964406271 8.80964406271 9.25 9.5 9.25 Z" style="fill:#000;fill-opacity:1"/><path d="M22.94 12.66c.04-.21 .06 -.43 .06 -.66s-.02-.45-.06-.66c-.25-1.51-1.36-2.74-2.81-3.17-.53-1.12-1.28-2.1-2.19-2.91C16.36 3.85 14.28 3 12 3s-4.36 .85 -5.94 2.26c-.92 .81 -1.67 1.8-2.19 2.91-1.45 .43 -2.56 1.65-2.81 3.17-.04 .21 -.06 .43 -.06 .66 s.02 .45 .06 .66 c.25 1.51 1.36 2.74 2.81 3.17 .52 1.11 1.27 2.09 2.17 2.89C7.62 20.14 9.71 21 12 21s4.38-.86 5.97-2.28c.9-.8 1.65-1.79 2.17-2.89 1.44-.43 2.55-1.65 2.8-3.17zM19 14c-.1 0-.19-.02-.29-.03-.2 .67 -.49 1.29-.86 1.86C16.6 17.74 14.45 19 12 19s-4.6-1.26-5.85-3.17c-.37-.57-.66-1.19-.86-1.86-.1 .01 -.19 .03 -.29 .03 -1.1 0-2-.9-2-2s.9-2 2-2c.1 0 .19 .02 .29 .03 .2-.67 .49 -1.29 .86 -1.86C7.4 6.26 9.55 5 12 5s4.6 1.26 5.85 3.17c.37 .57 .66 1.19 .86 1.86 .1 -.01 .19 -.03 .29 -.03 1.1 0 2 .9 2 2s-.9 2-2 2zM7.5 14c.76 1.77 2.49 3 4.5 3s3.74-1.23 4.5-3h-9z" style="fill:#000;fill-opacity:1"/></svg>