<svg xmlns="http://www.w3.org/2000/svg" width="24" height="24" viewBox="0 0 24 24"><path d="M12.56 14.33c-.34 .27 -.56 .7 -.56 1.17V21h7c1.1 0 2-.9 2-2v-5.98c-.94-.33-1.95-.52-3-.52-2.03 0-3.93 .7 -5.44 1.83z" style="fill:#000;fill-opacity:1"/><path d="M 18 1 C 20.7614237492 1 23 3.23857625085 23 6 C 23 8.76142374915 20.7614237492 11 18 11 C 15.2385762508 11 13 8.76142374915 13 6 C 13 3.23857625085 15.2385762508 1 18 1 Z" style="fill:#000;fill-opacity:1"/><path d="M11.5 6c0-1.08 .27 -2.1 .74 -3H5c-1.1 0-2 .9-2 2v14c0 .55 .23 1.05 .59 1.41l9.82-9.82C12.23 9.42 11.5 7.8 11.5 6z" style="fill:#000;fill-opacity:1"/></svg>