<svg xmlns="http://www.w3.org/2000/svg" width="24" height="24" viewBox="0 0 24 24"><path d="M 12 8.8 C 13.7673111995 8.8 15.2 10.2326888005 15.2 12 C 15.2 13.7673111995 13.7673111995 15.2 12 15.2 C 10.2326888005 15.2 8.8 13.7673111995 8.8 12 C 8.8 10.2326888005 10.2326888005 8.8 12 8.8 Z" style="fill:#000;fill-opacity:1"/><path d="M9 2L7.17 4H4c-1.1 0-2 .9-2 2v12c0 1.1 .9 2 2 2h16c1.1 0 2-.9 2-2V6c0-1.1-.9-2-2-2h-3.17L15 2H9zm3 15c-2.76 0-5-2.24-5-5s2.24-5 5-5 5 2.24 5 5-2.24 5-5 5z" style="fill:#000;fill-opacity:1"/></svg>