<svg xmlns="http://www.w3.org/2000/svg" width="24" height="24" viewBox="0 0 24 24"> <g transform="translate(2.8445741963443805 0.0) scale(0.49036312840315843)">
  
  <g
     id="line"
     transform="translate(-16.568587,-12.056479)">
    <path
       fill="none"
       stroke="#000"
       stroke-linecap="round"
       stroke-linejoin="round"
       stroke-miterlimit="10"
       stroke-width="2"
       d="m 50.24,53.5698 c 0,0.01 0,0.01 0,0.02 v 5.41 c 0,0.55 -0.44,1 -1,1 H 31.41 c -1.3799,0 -2.5,-1.12 -2.5,-2.5 v -3.91 c 0,-0.01 0,-0.01 0,-0.02 0.48,0.31 1.05,0.5 1.67,0.5 h 18 c 0.61,0 1.18,-0.19 1.66,-0.5 z"
       id="path2" />
    <path
       fill="none"
       stroke="#000"
       stroke-linecap="round"
       stroke-linejoin="round"
       stroke-miterlimit="10"
       stroke-width="2"
       d="m 51.58,48.1498 v 2.92 c 0,1.05 -0.54,1.96 -1.34,2.5 -0.48,0.31 -1.05,0.5 -1.66,0.5 h -18 c -0.62,0 -1.19,-0.19 -1.67,-0.5 -0.8,-0.54 -1.33,-1.46 -1.33,-2.5 v -2.92 z"
       id="path4" />
    <path
       fill="none"
       stroke="#000"
       stroke-linecap="round"
       stroke-linejoin="round"
       stroke-miterlimit="10"
       stroke-width="2"
       d="m 28.84,25.6398 -0.39,0.12 -0.68,0.21 c -0.52,0.17 -1.09,-0.13 -1.25,-0.65 l -3.34,-10.63 c -0.16,-0.52 0.13,-1.09 0.66,-1.25 l 0.49,-0.16 h 0.01 l 0.5699,-0.18 c 0.52,-0.16 1.09,0.1299 1.25,0.66 l 3.34,10.62 c 0.1601,0.53 -0.1299,1.09 -0.6599,1.26 z"
       id="path6" />
    <path
       fill="none"
       stroke="#000"
       stroke-linecap="round"
       stroke-linejoin="round"
       stroke-miterlimit="10"
       stroke-width="2"
       d="m 52.91,43.2198 v 3.93 c 0,0.55 -0.45,1 -1,1 H 27.25 c -0.56,0 -1,-0.45 -1,-1 v -3.66 l -8.64,-27.51 c -0.16,-0.53 0.13,-1.09 0.66,-1.2599 l 5.16,-1.62 c 0.15,-0.05 0.3,-0.05 0.45,-0.03 0.06,0.01 0.11,0.03 0.16,0.05 0.11,0.03 0.2,0.09 0.29,0.16 l -0.49,0.16 c -0.53,0.16 -0.82,0.73 -0.66,1.25 l 3.34,10.63 c 0.16,0.52 0.73,0.82 1.25,0.65 l 0.68,-0.21 2.38,7.58 h -1.87 c -0.53,0 -0.96,0.42 -0.96,0.95 v 2.53 c 0,0.53 0.43,0.96 0.96,0.96 h 3.27 l 1.39,4.44 h 18.29 c 0.55,-1e-4 1,0.4498 1,0.9999 z"
       id="path8" />
    <path
       fill="none"
       stroke="#000"
       stroke-linecap="round"
       stroke-linejoin="round"
       stroke-miterlimit="10"
       stroke-width="1.9136"
       d="m 46.99,34.2897 v 2.53 c 0,0.53 -0.43,0.96 -0.96,0.96 H 28.96 c -0.53,0 -0.96,-0.43 -0.96,-0.96 v -2.53 c 0,-0.53 0.43,-0.95 0.96,-0.95 h 17.07 c 0.53,10e-5 0.96,0.4201 0.96,0.95 z"
       id="path10" />
  </g>
</g></svg>