<svg xmlns="http://www.w3.org/2000/svg" width="24" height="24" viewBox="0 0 24 24"> <g transform="translate(0.0 0.48753857643793097) scale(0.4271661206860694)">
  
  <g
     id="line"
     transform="translate(-5.9383053,-9.3253936)">
    <line
       x1="41.7188"
       x2="46.781101"
       y1="38.509201"
       y2="32.033199"
       fill="#000"
       stroke="none"
       id="line2" />
    <line
       x1="43.3629"
       x2="38.703201"
       y1="29.3197"
       y2="35.080002"
       fill="#000"
       stroke="none"
       id="line4" />
    <polygon
       fill="none"
       stroke="#000"
       stroke-linecap="round"
       stroke-linejoin="round"
       stroke-miterlimit="10"
       stroke-width="2"
       points="37.8076,40.9408 27.2299,26.2257 24.2936,28.3506 34.8713,43.0658 36.0081,46.7171 47.4967,62.227 52,58.9064 40.9019,43.1756 "
       id="polygon6" />
    <path
       fill="none"
       stroke="#000"
       stroke-linecap="round"
       stroke-linejoin="round"
       stroke-miterlimit="10"
       stroke-width="2"
       d="m 12.5106,19.7899 5.7909,8.029 10.323,-7.4455 -3.3091,-4.588 c 0,0 6.882,-4.9637 10.8306,-4.3242 0,0 -6.5903,-3.0933 -13.3124,0.8832 -6.7221,3.9765 -10.323,7.4455 -10.323,7.4455 z"
       id="path8" />
    <path
       fill="none"
       stroke="#000"
       stroke-linecap="round"
       stroke-linejoin="round"
       stroke-miterlimit="10"
       stroke-width="2"
       d="m 9.9316,22.7333 4.6653,6.5229 v 0 c -0.4717,1.2669 -1.6524,2.1256 -2.9933,2.1771 v 0 L 6.9383,24.9104 v 0 c 0.2319,-1.4325 1.5721,-2.4073 2.9933,-2.1771 z"
       id="path10" />
    <line
       x1="41.289299"
       x2="46.351601"
       y1="38.509201"
       y2="32.033199"
       fill="none"
       stroke="#000"
       stroke-linecap="round"
       stroke-linejoin="round"
       stroke-miterlimit="10"
       stroke-width="2"
       id="line12" />
    <line
       x1="42.933399"
       x2="38.273701"
       y1="29.3197"
       y2="35.080002"
       fill="none"
       stroke="#000"
       stroke-linecap="round"
       stroke-linejoin="round"
       stroke-miterlimit="10"
       stroke-width="2"
       id="line14" />
    <path
       fill="none"
       stroke="#000"
       stroke-linecap="round"
       stroke-linejoin="round"
       stroke-miterlimit="10"
       stroke-width="2"
       d="m 46.3516,32.0332 c 3.2442,2.5754 8.6578,1.1565 12.0916,-3.169 3.4338,-4.3255 3.5876,-9.9199 0.3434,-12.4953 l -5.1471,6.4838 -2.8327,-0.0507 -0.6772,-2.7661 5.1323,-6.4651 c -3.2442,-2.5754 -8.6578,-1.1565 -12.0916,3.169 -3.4338,4.3256 -3.5876,9.9199 -0.3434,12.4953"
       id="path16" />
    <polyline
       fill="none"
       stroke="#000"
       stroke-linecap="round"
       stroke-linejoin="round"
       stroke-miterlimit="10"
       stroke-width="2"
       points="30.818,44.3856 19,58.9064 23,61.9064 32.9587,49.1665"
       id="polyline18" />
  </g>
</g></svg>