<svg xmlns="http://www.w3.org/2000/svg" width="24" height="24" viewBox="0 0 24 24"> <g transform="translate(0.3512601315291999 0.0) scale(0.4707025514078772)">
  
  <g
     id="line"
     transform="translate(-11.327063,-11.012286)">
    <path
       fill="none"
       stroke="#000"
       stroke-linecap="round"
       stroke-linejoin="round"
       stroke-miterlimit="10"
       stroke-width="2"
       d="m 55.311,42 c 0,0 0,10 -4.6773,10 0,0 2.8064,-6 -0.9355,-9"
       id="path2" />
    <path
       fill="none"
       stroke="#000"
       stroke-linecap="round"
       stroke-linejoin="round"
       stroke-miterlimit="10"
       stroke-width="2"
       d="m 32.2365,54.0833 -0.7016,5.3333 c 0,0 -2.4166,0.5833 -2.4166,1.5833"
       id="path4" />
    <path
       fill="none"
       stroke="#000"
       stroke-linecap="round"
       stroke-linejoin="round"
       stroke-miterlimit="10"
       stroke-width="2"
       d="m 33.7956,60 c 0,0 0,-1 -1.8709,-1"
       id="path6" />
    <path
       fill="none"
       stroke="#000"
       stroke-linecap="round"
       stroke-linejoin="round"
       stroke-miterlimit="10"
       stroke-width="2"
       d="m 40.6556,54.0833 -0.7016,5.3333 c 0,0 -2.4166,0.5833 -2.4166,1.5833"
       id="path8" />
    <path
       fill="none"
       stroke="#000"
       stroke-linecap="round"
       stroke-linejoin="round"
       stroke-miterlimit="10"
       stroke-width="2"
       d="m 42.2147,60 c 0,0 0,-1 -1.8709,-1"
       id="path10" />
    <path
       fill="none"
       stroke="#000"
       stroke-linecap="round"
       stroke-linejoin="round"
       stroke-miterlimit="10"
       stroke-width="2"
       d="m 26.3119,36 c 0,0 -3.7418,9 3.7418,13 7.4836,4 14.9673,1 15.9028,-3 0.9355,-4 -2.0268,-3.6667 -5.223,-5.8333"
       id="path12" />
    <path
       fill="none"
       stroke="#000"
       stroke-linecap="round"
       stroke-linejoin="round"
       stroke-miterlimit="10"
       stroke-width="2"
       d="m 25.1667,19.1667 c 0,0 6.2472,-4.0011 0.8333,-6.1667 -5,-2 -5.4189,-0.5811 -7,1 -1,1 -1,3 -2,5 -0.1581,0.3162 -0.3125,0.5 -0.2656,0.7344 0.1942,0.9709 -0.1036,1.9696 -0.9677,2.4528 C 13.6579,23.3665 11.0829,25 13,25 c 1.4283,0 2.5863,0.612 3.4269,1.2831 0.8661,0.6915 1.0707,1.9483 0.4585,2.8722 C 16.3029,30.0345 15.913,31.3696 17,33 c 1.7811,2.6716 3.7301,0.1538 4.5727,-1.2287 0.2878,-0.4722 0.7431,-0.8216 1.2736,-0.9777 C 26.7612,29.6418 25,27 25,27"
       id="path14" />
    <path
       fill="none"
       stroke="#000"
       stroke-linecap="round"
       stroke-linejoin="round"
       stroke-miterlimit="10"
       stroke-width="2"
       d="m 28,22 c 0,0 3,0 3,7 0,9.0554 8.4083,7 8.4083,6 0,-1 0.9355,-12 10.29,-10 9.3545,2 13.0964,9.6667 7.4837,22.3333"
       id="path16" />
    <path
       fill="none"
       stroke="#000"
       stroke-linecap="round"
       stroke-linejoin="round"
       stroke-miterlimit="10"
       stroke-width="2"
       d="m 48.2951,49.1667 c 0,0 -8.8868,10.8333 -23.8541,0.8333 0,0 -6.5482,-3 -3.7418,-13"
       id="path18" />
  </g>
</g></svg>