<svg xmlns="http://www.w3.org/2000/svg" width="24" height="24" viewBox="0 0 24 24"> <g transform="translate(0.5018969878377835 0.0) scale(0.5113289618684097)">
  
  <g
     id="line"
     transform="translate(-13.521609,-13.533947)">
    <path
       fill="none"
       stroke="#000"
       stroke-miterlimit="10"
       stroke-width="2"
       d="M 57.3105,54.3405 46.9273,18.729 c -2.33,-4.3386 -6.2667,-1.5266 -6.2667,-1.5266 l -6.91,5.7044 -3.1329,-5.8978 c -3.9368,-5.5765 -7.63,0 -7.63,0 l -7.5987,8.7282 c 0,0 -2.3361,2.3875 0.6161,5.34 2.9522,2.9525 6.6232,-1.54 6.6232,-1.54 l 3.286,-3.748 3.9534,6.5206 c 0,0 2.3617,3.3372 6.1611,-0.77 l 4.0262,-3.6184 9.0614,28.34 a 4.2285,4.2285 0 0 0 2.1411,2.5146 c 1.4508,0.7158 3.5588,1.2629 5.1377,-0.3873 a 4.167,4.167 0 0 0 0.9153,-4.0482 z"
       id="path2" />
  </g>
</g></svg>