<svg xmlns="http://www.w3.org/2000/svg" width="24" height="24" viewBox="0 0 24 24"> <g transform="translate(0.6594242817542089 0.0) scale(0.472589717613466)">
  
  <g
     id="line"
     transform="translate(-12.00738,-12.015991)">
    <path
       fill="none"
       stroke="#000"
       stroke-linecap="round"
       stroke-linejoin="round"
       stroke-width="2"
       d="M 22.0624,54.2975 A 22.9962,22.9962 0 1 1 44.51,57.3743"
       id="path2" />
    <path
       fill="none"
       stroke="#000"
       stroke-linecap="round"
       stroke-linejoin="round"
       stroke-width="2"
       d="m 22.0708,28.7432 a 7.1738,7.1738 0 0 1 4.9092,-1.6364 7.0776,7.0776 0 0 1 4.0909,1.6364"
       id="path4" />
    <path
       fill="none"
       stroke="#000"
       stroke-linecap="round"
       stroke-linejoin="round"
       stroke-width="2"
       d="m 40.9292,28.7432 a 7.1738,7.1738 0 0 1 4.9091,-1.6364 7.0776,7.0776 0 0 1 4.0909,1.6364"
       id="path6" />
    <path
       d="m 30,35 a 3,3 0 1 1 -3,-3 3.0011,3.0011 0 0 1 3,3"
       id="path8" />
    <path
       d="m 48,35 a 3,3 0 1 1 -3,-3 3.001,3.001 0 0 1 3,3"
       id="path10" />
    <path
       fill="none"
       stroke="#000"
       stroke-linecap="round"
       stroke-linejoin="round"
       stroke-width="2"
       d="M 29.6,61.8 31.4,60 c 2.5,-0.6 9.9,-2.8 11.5,-5.5 a 1.5418,1.5418 0 0 0 -0.1,-2.1 c -0.1,-0.1 -0.1,-0.2 -0.2,-0.2 0.5,-0.3 0.8,-0.6 0.9,-0.6 a 2.1081,2.1081 0 0 0 0.7,-2.9 1.205,1.205 0 0 0 -0.5,-0.5 1.8071,1.8071 0 0 0 -0.1,-2.1 C 43.1,45.5 42,45 40.5,46.1 a 0.7786,0.7786 0 0 0 -0.3,-0.7 1.9047,1.9047 0 0 0 -2.7,-0.4 0.0979,0.0979 0 0 0 -0.1,0.1 31.9553,31.9553 0 0 1 -6.3,4 c 0.5026,-1.286 1.69,-5.814 -0.6,-5.1 -0.6,0.2 -1.2,1.7 -1.5,2.2 -1.738,2.511 -2.258,5.218 -2.8,8.1 0.031,1.077 -1.076,1.676 -1.8,2.4"
       id="path12" />
  </g>
</g></svg>