<svg xmlns="http://www.w3.org/2000/svg" width="24" height="24" viewBox="0 0 24 24"> <g transform="translate(0.0 2.9310227107259514) scale(0.431069329077769)">
  
  <g
     id="line"
     transform="translate(-9.1623,-14.93837)">
    <path
       fill="none"
       stroke="#000"
       stroke-linecap="round"
       stroke-linejoin="round"
       stroke-miterlimit="10"
       stroke-width="2"
       d="M 50.4051,55.3768 38.6629,50.9647 c -1.072,-0.4028 -2.2537,-0.4028 -3.3257,0 L 23.595,55.3768 C 17.0975,57.8182 10.1623,53.0155 10.1623,46.0745 v -7.2737 c 0,-6.2312 3.2237,-12.0188 8.5216,-15.2991 l 7.0307,-4.3532 c 6.9146,-4.2813 15.6563,-4.2813 22.5709,0 l 7.0307,4.3532 c 5.2979,3.2803 8.5216,9.0679 8.5216,15.2991 v 7.2737 c 0,6.9411 -6.9352,11.7437 -13.4327,9.3023 z"
       id="path2" />
    <ellipse
       cx="22.327801"
       cy="41.020802"
       rx="7.9643998"
       ry="4.9004002"
       transform="matrix(0.3327,-0.943,0.943,0.3327,-23.7844,48.4305)"
       fill="none"
       stroke="#000"
       stroke-linecap="round"
       stroke-linejoin="round"
       stroke-miterlimit="10"
       stroke-width="2"
       id="ellipse4" />
    <ellipse
       cx="51.672199"
       cy="41.020802"
       rx="4.9004002"
       ry="7.9643998"
       transform="matrix(0.943,-0.3327,0.3327,0.943,-10.7034,19.5263)"
       fill="none"
       stroke="#000"
       stroke-linecap="round"
       stroke-linejoin="round"
       stroke-miterlimit="10"
       stroke-width="2"
       id="ellipse6" />
  </g>
</g></svg>