<svg xmlns="http://www.w3.org/2000/svg" width="24" height="24" viewBox="0 0 24 24"> <g transform="translate(0.0 0.8935349153480221) scale(0.4626517975005468)">
  
  <g
     id="line"
     transform="translate(-8.1312319,-11.9939)">
    <path
       d="m 30,31 c 0,1.6568 -1.3448,3 -3,3 -1.6553,0 -3,-1.3433 -3,-3 0,-1.6552 1.3447,-3 3,-3 1.6552,0 3,1.3448 3,3"
       id="path2" />
    <path
       d="m 48,31 c 0,1.6568 -1.3447,3 -3,3 -1.6553,0 -3,-1.3433 -3,-3 0,-1.6552 1.3447,-3 3,-3 1.6553,0 3,1.3448 3,3"
       id="path4" />
    <path
       fill="none"
       stroke="#000"
       stroke-linecap="round"
       stroke-linejoin="round"
       stroke-miterlimit="10"
       stroke-width="2"
       d="m 26.5,48 c 1.8768,-3.8326 5.8239,-6.1965 10,-6 3.8343,0.1804 7.2926,2.4926 9,6"
       id="path6" />
    <path
       fill="none"
       stroke="#000"
       stroke-linecap="round"
       stroke-linejoin="round"
       stroke-miterlimit="10"
       stroke-width="2"
       d="m 23.1483,24.2501 c 0.4872,0.2275 2.6277,1.1608 5.1639,0.3327 2.0576,-0.6718 3.1771,-2.1117 3.5396,-2.6239"
       id="path8" />
    <path
       fill="none"
       stroke="#000"
       stroke-linecap="round"
       stroke-linejoin="round"
       stroke-miterlimit="10"
       stroke-width="2"
       d="m 48.8517,24.2501 c -0.4872,0.2275 -2.6277,1.1608 -5.1639,0.3327 -2.0576,-0.6718 -3.1771,-2.1117 -3.5396,-2.6239"
       id="path10" />
    <path
       fill="none"
       stroke="#000"
       stroke-miterlimit="10"
       stroke-width="2"
       d="m 9.2458,27.724 c -0.2538,-1.041 -0.087,-2.1185 0.4698,-3.0339 1.8322,-3.0136 6.4342,-4.1651 6.629,-4.2126 0.4053,-0.0988 0.8134,0.1495 0.9122,0.5546 0.0476,0.1952 1.1432,4.8107 -0.6888,7.8253 l 10e-5,4e-4 C 15.419,30.7458 12.9473,31.348 11.0587,30.1994 10.1434,29.6445 9.4996,28.765 9.2458,27.724 Z"
       id="path12" />
    <path
       fill="none"
       stroke="#000"
       stroke-linecap="round"
       stroke-miterlimit="10"
       stroke-width="2"
       d="M 21.9967,17.7451 C 25.8754,14.7653 30.7308,12.9939 36,12.9939 48.7059,12.9939 59.0061,23.2941 59.0061,36 59.0061,48.7059 48.7059,59.0061 36,59.0061 23.2941,59.0061 12.9939,48.7059 12.9939,36 c 0,-0.396 0.01,-0.7896 0.0298,-1.1807"
       id="path14" />
  </g>
</g></svg>