<svg xmlns="http://www.w3.org/2000/svg" width="24" height="24" viewBox="0 0 24 24"> <g transform="translate(2.592847012529269 0.0) scale(0.4703576493735365)">
  
  <g
     id="line"
     transform="translate(-16.0082,-9.9333)">
    <path
       fill="none"
       stroke="#000"
       stroke-linecap="round"
       stroke-linejoin="round"
       stroke-width="2"
       d="m 17.0082,59.9583 v -3 c 0,-4.9941 5.0078,-9 10,-9 q 9,7.5 18,0 c 4.9941,0 10,4.0059 10,9 v 3"
       id="path2" />
    <path
       d="m 42.0082,30.9583 c 0,1.1045 -0.8955,1 -2,1 -1.1045,0 -2,0.1045 -2,-1 a 3.1184,3.1184 0 0 1 1,-2 c 1.1045,0 3,0.8955 3,2"
       id="path4" />
    <path
       d="m 34.0082,30.9583 c 0,1.1045 -0.8955,1 -2,1 -1.1045,0 -2,0.1045 -2,-1 0,-1 2.0225,-2 3.127,-2 a 3.2627,3.2627 0 0 1 0.873,2"
       id="path6" />
    <path
       fill="none"
       stroke="#000"
       stroke-linecap="round"
       stroke-linejoin="round"
       stroke-width="2"
       d="m 38.0082,38.7083 a 3.0417,3.0417 0 0 0 -4,0"
       id="path8" />
    <path
       fill="none"
       stroke="#000"
       stroke-linecap="round"
       stroke-linejoin="round"
       stroke-width="2"
       d="m 18.8545,46.6579 c -3.7227,-5.8565 -0.628,-10.08 1.18,-14.7246 1.6357,-4.2 -0.209,-6.4512 1.291,-12.0342 1.48,-5.5 7.2773,-8.9658 13.709,-8.9658 5.4,0 8,3 8,3 a 8.1321,8.1321 0 0 1 7.4049,8.0367 c 0.3867,7.18 1.0244,7.1523 3.4287,12.8222 a 11.5986,11.5986 0 0 1 -1.4463,11.6631"
       id="path10" />
    <path
       fill="none"
       stroke="#000"
       stroke-linejoin="round"
       stroke-width="2"
       d="m 25.0342,30.9333 c 0,8 5,14 11,14 6,0 11,-6 11,-14 0,-5 -2,-8 -6,-12 -4,4 -16,9 -16,11 z"
       id="path12" />
  </g>
</g></svg>