<svg xmlns="http://www.w3.org/2000/svg" width="24" height="24" viewBox="0 0 24 24"> <g transform="translate(0.0 5.299796282767285) scale(0.4076348859166682)">
  
  <g
     id="line"
     fill="none"
     stroke="#000"
     stroke-linecap="round"
     stroke-linejoin="round"
     stroke-width="2"
     transform="translate(-7.7655117,-26.330062)">
    <path
       d="m 9.5749,32.081 c 4.7119,1.5933 4.0971,5.3457 9.4696,5.4394"
       id="path2" />
    <path
       stroke-miterlimit="10"
       d="M 21.39,48.322 C 18.615,46.982 16.364,45.056 14.531,42.18 9.8169,39.888 9.7672,35.732 8.7655,31.025 c 0.81988,-0.56729 2.1438,-0.99955 3.9648,-1.2383 2.185,-1.6533 5.0324,-2.9503 7.7129,-2.2637 2.3505,0.6749 4.1384,3.5761 6.6612,5.4019 13.747,2.7251 12.211,10.811 21.843,9.1025 3.9363,-0.69814 0.85426,-4.6415 3.0901,-6.6835 0.81827,-0.74732 3.4747,-2.5759 4.0777,-2.1759 0.0402,0.0266 0.072,0.0635 0.0928,0.11082 0.0768,0.17521 0.0132,0.49928 -0.24849,1.0206 -0.69049,2.4736 2.2739,4.4802 1.9027,6.7544 -0.1494,0.91522 -0.70981,1.5619 -1.1357,2.0359 0.85589,0.1648 2.5031,0.18754 3.2106,1.0387 1.1743,1.5149 2,4.1472 5.7048,4.1214 -2.9652,2.4194 -6.159,3.1053 -10.613,0.0607 -1.4945,-0.88589 -2.9636,-1.3599 -4.2574,-0.93508 -4.8275,1.8746 -13.601,4.1664 -21.807,3.0792"
       id="path4" />
    <path
       d="m 22.114,47.287 c -3.5057,5.0051 -0.48733,6.5736 2.4521,9.9594 1.7815,2.052 3.0762,0.28324 4.0269,-0.39377 2.0174,-2.2137 1.3539,-5.4 -0.89321,-8.1346"
       id="path6" />
    <path
       d="m 15.6,43.667 c -2.0954,3.3619 -0.99341,5.8859 -0.7817,8.2851 0.23887,2.7069 3.7445,1.5681 5.7063,1.0804 0.18502,-0.04768 0.18104,-0.09852 0.33264,-0.15286"
       id="path8" />
  </g>
</g></svg>