<svg xmlns="http://www.w3.org/2000/svg" width="24" height="24" viewBox="0 0 24 24"> <g transform="translate(3.9861884256804476 0.0) scale(0.3804369794254926)">
  
  <g
     id="line"
     transform="translate(-14.935099,-4.4570515)">
    <path
       fill="none"
       stroke="#000"
       stroke-linecap="round"
       stroke-linejoin="round"
       stroke-miterlimit="10"
       stroke-width="2"
       d="m 45.6055,50.9252 c 0,1.8644 -5.3061,3.3324 -11.7785,3.3324 -6.4724,0 -11.7536,-1.5175 -11.7536,-3.3819"
       id="path2" />
    <path
       fill="none"
       stroke="#000"
       stroke-linecap="round"
       stroke-linejoin="round"
       stroke-miterlimit="10"
       stroke-width="2"
       d="M 45.6055,60.1059 V 46.364 c 0,0 1.2674,-1.1629 2.4125,-2.3333 3.7692,-3.8524 5.6146,-9.8857 5.6146,-9.8857 5.0219,-13.3527 0.71,-17.7289 0.71,-17.7289 C 53.3459,15.0913 51.1985,15.8385 51.1985,15.8385 50.8628,12.7728 49.9815,10.802 49.9815,10.802 47.6733,3.7071 28.0748,5.7217 28.0748,5.7217 15.1069,7.5175 15.9463,21.532 15.9463,21.532 c -0.011,18.5937 6.1272,24.8196 6.1272,24.8196 v 16.7736 l 5e-4,0.0376 c 0,1.8644 5.4131,3.3795 12.0327,3.3795"
       id="path4" />
    <path
       fill="none"
       stroke="#000"
       stroke-linecap="round"
       stroke-linejoin="round"
       stroke-miterlimit="10"
       stroke-width="2"
       d="m 33.5724,66.5424 c 5.3784,0 9.9603,-1.0002 11.4895,-2.3752 0.0209,-0.0188 0.0413,-0.0377 0.0611,-0.0567"
       id="path6" />
    <path
       fill="none"
       stroke="#000"
       stroke-linecap="round"
       stroke-linejoin="round"
       stroke-miterlimit="10"
       stroke-width="2"
       d="m 41.3212,13.5613 c 4.9387,-4.4356 9.8773,2.2774 9.8773,2.2774 0,0 -6.0223,1.8613 -4.9836,10.927"
       id="path8" />
  </g>
</g></svg>