<svg xmlns="http://www.w3.org/2000/svg" width="24" height="24" viewBox="0 0 24 24"> <g transform="translate(0.4839899756980728 0.0) scale(0.5822215166559991)">
  
  <g
     id="line"
     transform="translate(-15.455225,-16.114576)">
    <g
       id="g6">
      <path
         d="m 54.9823,41.1279 c -0.0167,-0.2171 -0.05,-0.4343 -0.0835,-0.6516 A 5.01,5.01 0 0 1 54.8068,39.6325 4.41,4.41 0 0 0 52.9856,35.94 c -0.1,-0.0752 -0.1169,-0.1 -0.0835,-0.259 l 0.0418,-0.2172 a 10.2463,10.2463 0 0 0 0.2422,-1.838 3.3784,3.3784 0 0 1 0.4011,-1.9215 1.7557,1.7557 0 0 0 0.2255,-0.6349 13.7288,13.7288 0 0 0 0.259,-5.2966 5.9868,5.9868 0 0 0 -1.42,-3.1329 5.357,5.357 0 0 0 -4.9875,-1.57 9.1475,9.1475 0 0 0 -1.2782,0.284 c -0.3008,0.0836 -0.61,0.1671 -0.9107,0.2256 a 8.8915,8.8915 0 0 1 -3.5088,-0.1254 l -0.1336,-0.025 a 6.7872,6.7872 0 0 1 -2.2473,-0.7435 9.5723,9.5723 0 0 0 -7.2517,-1.1956 9.2294,9.2294 0 0 1 -2.13,0.2423 2.1187,2.1187 0 0 1 -1.5622,-0.6266 2.0777,2.0777 0 0 1 -0.518,-1.5706 c 0.0083,-0.1086 0.0083,-0.2172 0.0251,-0.3342 a 1.4922,1.4922 0 0 1 0.0167,-0.1838 1.03,1.03 0 0 0 -0.0167,-0.1587 0.9091,0.9091 0 0 0 -1.7879,0 c 0,0.117 0.0084,0.2339 0.0084,0.3508 v 0.0168 a 7.3783,7.3783 0 0 0 0.0919,1.3534 3.5273,3.5273 0 0 0 3.1913,2.8655 9.1207,9.1207 0 0 0 2.9658,-0.2256 7.4894,7.4894 0 0 1 5.7311,0.7937 9.503,9.503 0 0 0 3.1245,1.1445 11.0493,11.0493 0 0 0 4.62,0.0919 l 0.4011,-0.0919 a 17.3324,17.3324 0 0 1 1.9632,-0.3843 4.373,4.373 0 0 1 1.3868,0.142 2.943,2.943 0 0 1 1.9382,1.5456 5.3124,5.3124 0 0 1 0.6517,2.5564 A 26.0474,26.0474 0 0 1 52.2,30.1 a 4.2008,4.2008 0 0 1 -0.4093,1.22 4.41,4.41 0 0 0 -0.3843,1.7879 9.6419,9.6419 0 0 1 -0.2256,2.0885 2.2,2.2 0 0 1 -2.1721,1.7294 3.1142,3.1142 0 0 1 -2.5731,-0.71 3.5492,3.5492 0 0 1 -0.3676,-0.4177 c -0.0084,-0.0083 -0.0084,-0.0167 -0.0167,-0.0167 0.05,-0.025 0.1086,-0.05 0.1587,-0.0752 a 5.3944,5.3944 0 0 0 0.7519,-0.4093 3.36,3.36 0 0 0 0.5765,-0.5013 0.8415,0.8415 0 0 0 0.0585,0.777 0.8146,0.8146 0 0 0 0.9189,0.3842 0.9528,0.9528 0 0 0 0.4846,-0.2756 10.796,10.796 0 0 0 2.4561,-4.3275 4.6082,4.6082 0 0 0 -0.0251,-1.8547 C 51.398,29.2818 51.3646,29.0729 51.3479,28.8557 a 7.9955,7.9955 0 0 1 -0.05,-1.0526 4.0189,4.0189 0 0 0 -0.802,-2.7736 3.0678,3.0678 0 0 0 -2.1387,-1.0527 7.7161,7.7161 0 0 0 -2.6066,0.3008 1.0656,1.0656 0 0 1 -0.6015,-0.0334 9.4918,9.4918 0 0 0 -3.9182,-0.6683 3.4309,3.4309 0 0 0 -1.9716,0.7268 c -0.1,0.0835 -0.1169,0.0751 -0.3007,-0.0168 l -0.3676,-0.2 c -0.9524,-0.4929 -1.93,-1.0108 -2.9156,-1.4787 a 2.9944,2.9944 0 0 0 -3.0326,0.2674 3.7608,3.7608 0 0 1 -3.3083,0.426 10.727,10.727 0 0 1 -2.8071,-1.203 3.36,3.36 0 0 1 -1.37,-1.888 13.4955,13.4955 0 0 1 -0.61,-3.35 H 24.539 a 0.88,0.88 0 0 0 -1.7293,0 0.2313,0.2313 0 0 0 -0.0084,0.1086 c 0.0084,0.1 0.0167,0.2088 0.0335,0.3091 a 26.1655,26.1655 0 0 0 0.51,3.0242 5.1746,5.1746 0 0 0 2.8906,3.6676 22.0522,22.0522 0 0 0 2.5229,0.9774 6.7028,6.7028 0 0 0 1.5706,0.3175 4.8474,4.8474 0 0 0 3.0995,-0.8271 1.5513,1.5513 0 0 1 1.6457,-0.1921 c 0.7937,0.401 1.579,0.81 2.3643,1.228 a 5.8347,5.8347 0 0 0 -4.929,1.42 8.9028,8.9028 0 0 0 -3.4921,-1.8213 c -0.2089,-0.0668 -0.4177,-0.1086 -0.6349,-0.1587 a 4.3128,4.3128 0 0 1 -0.8438,-0.2422 6.9962,6.9962 0 0 0 -4.1354,-0.3927 2.4152,2.4152 0 0 1 -2.08,-0.4846 2.1969,2.1969 0 0 0 -2.2807,-0.3759 c -0.3258,0.1253 -0.66,0.259 -0.9858,0.3843 l -0.0919,0.0417 a 2.9662,2.9662 0 0 0 -1.9382,3.6091 8.764,8.764 0 0 0 0.6517,1.7628 2.0651,2.0651 0 0 1 0.2339,1.3367 7.9349,7.9349 0 0 0 0.1086,3.2665 0.7688,0.7688 0 0 1 -0.0669,0.4511 11.5653,11.5653 0 0 0 -1.37,3.5171 3.79,3.79 0 0 0 0.8771,3.5506 1.249,1.249 0 0 1 0.3425,1.5622 2.4437,2.4437 0 0 0 0.8021,3.0745 0.8921,0.8921 0 0 1 0.2757,0.3508 6.3349,6.3349 0 0 0 2.4561,2.8823 l -0.8521,0.5513 c -0.7436,0.4846 -0.8354,0.7937 -0.4679,1.5874 0.117,0.2589 0.2423,0.5263 0.3593,0.7853 l 0.2088,0.4511 a 0.9935,0.9935 0 0 0 0.61,0.61 1.0471,1.0471 0 0 0 0.8521,-0.1754 2.3854,2.3854 0 0 1 1.7377,-0.3342 6.33,6.33 0 0 1 3.45,1.9048 8.53,8.53 0 0 0 3.1411,2.1053 9.3684,9.3684 0 0 0 3.2833,0.6433 6.9486,6.9486 0 0 0 4.5781,-1.721 c 0.284,-0.234 0.5514,-0.4846 0.8271,-0.7352 0.0835,-0.0835 0.1671,-0.1671 0.259,-0.2506 a 3.9472,3.9472 0 0 0 3.4419,0.0585 8.835,8.835 0 0 0 2.6567,-1.7628 1.9473,1.9473 0 0 1 0.9106,-0.4511 7.9732,7.9732 0 0 0 1.9215,-0.6934 6.664,6.664 0 0 0 3.1746,-4.2691 1.8149,1.8149 0 0 1 1.3451,-1.4787 c 1.98,-0.6015 2.7151,-2.2807 3.1662,-3.8429 a 2.8177,2.8177 0 0 0 0.0418,-1.0618 z m -5.99,-15.1212 a 1.5558,1.5558 0 0 1 0.518,1.3117 15.0226,15.0226 0 0 0 0.142,2.0468 c 0.0417,0.3592 0.0752,0.7184 0.1086,1.0776 a 2.4357,2.4357 0 0 1 -0.2924,1.2615 c -0.4093,0.7352 -0.8772,1.4453 -1.3367,2.1387 a 4.4728,4.4728 0 0 0 0.2088,-2.1888 7.0088,7.0088 0 0 0 -0.1837,-0.8521 c -0.0585,-0.2256 -0.117,-0.4511 -0.1588,-0.6767 l -0.025,-0.15 a 2.2517,2.2517 0 0 1 -0.0418,-0.9357 3.3342,3.3342 0 0 0 -0.5012,-3.2832 1.95,1.95 0 0 1 1.5622,0.2502 z m -16.9258,6.3409 a 9.1132,9.1132 0 0 0 0.5347,1.2532 5.8312,5.8312 0 0 0 1.0108,1.2531 0.7949,0.7949 0 0 0 0.5431,0.2256 h 0.025 a 0.8732,0.8732 0 0 0 0.6266,-0.3091 0.802,0.802 0 0 0 -0.0167,-1.1947 4.4786,4.4786 0 0 1 -1.2364,-2.69 10.7141,10.7141 0 0 1 -0.1337,-1.5288 1.7337,1.7337 0 0 1 1.0861,-1.7544 3.9377,3.9377 0 0 1 3.7093,-0.0418 1.7391,1.7391 0 0 1 0.9356,1.37 6.4344,6.4344 0 0 0 0.351,1.203 c 0.0584,0.1671 0.1169,0.3342 0.167,0.5013 0.0668,0.2 0.1337,0.401 0.2089,0.6015 a 10.99,10.99 0 0 1 0.3843,1.2615 3.6717,3.6717 0 0 0 1.6879,2.4394 0.88,0.88 0 0 0 1.1779,-0.2506 0.9057,0.9057 0 0 0 0.15,-0.685 0.7325,0.7325 0 0 0 -0.3175,-0.4762 2.5947,2.5947 0 0 1 -1.0777,-1.9549 5.97,5.97 0 0 0 -0.3342,-1.0109 c -0.0751,-0.1754 -0.142,-0.3425 -0.2,-0.5179 -0.0417,-0.117 -0.0835,-0.2424 -0.1336,-0.3676 a 8.0478,8.0478 0 0 1 -0.3426,-1.1613 3.51,3.51 0 0 0 -0.9357,-1.863 0.372,0.372 0 0 1 -0.05,-0.2673 1.3668,1.3668 0 0 1 0.61,-0.8271 1.3184,1.3184 0 0 1 0.3843,-0.15 1.6988,1.6988 0 0 1 0.2172,-0.0334 7.1387,7.1387 0 0 1 1.462,-0.0084 7.4369,7.4369 0 0 1 0.8605,0.15 4.808,4.808 0 0 1 0.4929,0.15 6.8614,6.8614 0 0 1 1.9131,0.9942 1.2973,1.2973 0 0 1 0.4762,1.5539 4.3065,4.3065 0 0 0 0.0251,2.5564 8.112,8.112 0 0 1 0.259,1.888 1.2792,1.2792 0 0 1 -0.3091,0.9023 5.986,5.986 0 0 0 -1.2783,-3.2 0.91,0.91 0 0 1 -0.0835,-0.8521 3.269,3.269 0 0 0 -0.56,-3.0577 1.028,1.028 0 0 0 -0.6767,-0.4679 0.82,0.82 0 0 0 -0.6517,0.1671 0.8777,0.8777 0 0 0 -0.1176,1.312 1.7748,1.7748 0 0 1 0.2757,1.7043 2.7746,2.7746 0 0 0 0.4344,2.3392 8.3006,8.3006 0 0 1 0.8271,1.7877 1.84,1.84 0 0 1 -0.3509,1.6792 5.3226,5.3226 0 0 1 -3.1162,2.0636 1.3161,1.3161 0 0 1 -1.2615,-0.3258 c -0.259,-0.2507 -0.3676,-0.4261 -0.259,-0.76 A 2.24,2.24 0 0 0 39.1004,34.0518 7.4352,7.4352 0 0 0 38.04,32.64 1.7907,1.7907 0 0 1 37.4885,31.2449 3.3139,3.3139 0 0 0 36.8369,29.2983 1.7705,1.7705 0 0 1 36.5863,28.4462 C 36.5278,27.6107 36.0349,27.452 35.7508,27.4353 a 0.8879,0.8879 0 0 0 -0.9523,0.919 3.0056,3.0056 0 0 0 0.5681,1.98 2.0493,2.0493 0 0 1 0.3341,0.919 3.691,3.691 0 0 0 1.1446,2.6817 3.5109,3.5109 0 0 1 0.6683,0.9942 c 0.0668,0.1337 0.1337,0.259 0.2089,0.3927 0.0585,0.0835 0.0835,0.2088 -0.1,0.401 -0.3592,0.3843 -0.71,0.7685 -1.061,1.1445 -0.2589,0.2757 -0.51,0.56 -0.7685,0.8354 -0.092,0.0919 -0.1254,0.117 -0.1505,0.117 a 7.9242,7.9242 0 0 1 -3.6257,0.2422 2.6511,2.6511 0 0 1 -2.2227,-2.682 8.2939,8.2939 0 0 1 0.0335,-1.2865 l 0.0167,-0.1588 a 0.2238,0.2238 0 0 1 0.0835,-0.1253 3.753,3.753 0 0 0 2.0886,-1.5957 c 0.0167,0.0504 0.0336,0.0921 0.0501,0.1339 z M 18.5076,25.5222 a 7.5727,7.5727 0 0 1 1.1862,-0.46 0.82,0.82 0 0 1 0.1421,-0.0167 0.5758,0.5758 0 0 1 0.3425,0.0919 4.1641,4.1641 0 0 0 3.6675,0.8605 5.1845,5.1845 0 0 1 3.0577,0.3174 7.5791,7.5791 0 0 0 1.1946,0.3676 6.6454,6.6454 0 0 1 1.0276,0.3008 11.0784,11.0784 0 0 1 2.0051,1.0693 1.5872,1.5872 0 0 1 0.5263,1.7628 0.483,0.483 0 0 1 -0.0669,0.0752 l -0.1,0.1 c -0.0835,0.1 -0.1671,0.1922 -0.259,0.284 a 3.0817,3.0817 0 0 0 -0.5681,0.7436 2.237,2.237 0 0 1 -1.8379,1.2448 l -0.4261,0.05 a 4.1805,4.1805 0 0 0 -1.8546,0.5514 3.6774,3.6774 0 0 1 -2.3309,0.5765 l -0.0083,-0.0084 a 6.6606,6.6606 0 0 0 -2.44,0.401 7.0917,7.0917 0 0 1 -1.8463,0.4093 c -0.685,0.0418 -1.0526,-0.259 -1.203,-0.9858 a 6.3164,6.3164 0 0 1 -0.0585,-2.4645 3.5236,3.5236 0 0 0 -0.3174,-2.2306 6.8624,6.8624 0 0 1 -0.61,-1.7042 1.1047,1.1047 0 0 1 0.7774,-1.3359 z m 9.8664,11.5456 a 5.9985,5.9985 0 0 1 -2.6317,-1.93 l 2.2724,-0.969 a 7.0108,7.0108 0 0 0 0.3593,2.899 z m -8.764,8.7971 a 7.2624,7.2624 0 0 0 -1.0276,-1.3618 0.6865,0.6865 0 0 1 -0.2088,-0.6182 4.4571,4.4571 0 0 1 0.2088,-0.7352 2.4687,2.4687 0 0 0 -0.5848,-2.74 2.168,2.168 0 0 1 -0.66,-2.3058 c 0.1671,-0.6432 0.401,-1.2782 0.6266,-1.8881 0.0669,-0.2005 0.142,-0.401 0.2089,-0.5931 l 1.8212,0.4428 v 0.0083 a 4.045,4.045 0 0 0 -0.919,3.183 3.9925,3.9925 0 0 0 0.919,1.83 1.114,1.114 0 0 1 0.2256,1.0777 5.3932,5.3932 0 0 0 0.86,4.6951 c 0.2256,0.3592 0.4762,0.6934 0.7268,1.0276 l 0.0753,0.1 c -0.1086,-0.0334 -0.2,-0.0752 -0.3008,-0.1169 A 4.3516,4.3516 0 0 1 19.61,45.8649 Z m 9.2148,7.6357 A 3.4951,3.4951 0 0 1 26.778,52.7237 7.52,7.52 0 0 0 22.91,50.9192 4.9258,4.9258 0 0 0 22.3253,50.8774 4.8267,4.8267 0 0 0 20.8716,51.128 l -0.0585,-0.1253 c 0.2924,-0.1754 0.5764,-0.3676 0.8521,-0.5513 a 5.4284,5.4284 0 0 1 2.4646,-1.12 2.7676,2.7676 0 0 1 2.3559,0.81 3.7951,3.7951 0 0 0 3.9432,1.061 3.4418,3.4418 0 0 0 2.1811,-2.0209 l 0.0751,-0.1838 a 3.1407,3.1407 0 0 1 0.3426,-0.6684 1.8663,1.8663 0 0 1 0.6182,-0.5179 0.9226,0.9226 0 0 0 0.5012,-1.061 0.8749,0.8749 0 0 0 -1.0192,-0.6182 2.3044,2.3044 0 0 0 -0.4595,0.1587 c -0.0584,0.0251 -0.1085,0.05 -0.167,0.0752 a 2.5507,2.5507 0 0 1 0.0166,-1.7962 1.6366,1.6366 0 0 1 1.0109,-0.9273 0.8591,0.8591 0 0 0 0.635,-1.0025 0.8119,0.8119 0 0 0 -0.8021,-0.7185 1.6148,1.6148 0 0 0 -0.71,0.1922 c -0.142,0.0752 -0.1921,0.0668 -0.3342,-0.0418 a 6.4763,6.4763 0 0 0 -2.6566,-1.3868 3.887,3.887 0 0 0 -2.7736,0.3258 4.9587,4.9587 0 0 0 -1.9131,-3.0075 0.882,0.882 0 1 0 -1.1112,1.3533 3.0284,3.0284 0 0 1 1.22,3.3334 4.1387,4.1387 0 0 1 -0.3593,0.8271 c -0.0919,0.1838 -0.1921,0.3676 -0.2673,0.56 a 0.9418,0.9418 0 0 0 0.0418,0.8605 0.7335,0.7335 0 0 0 0.5764,0.3593 1.1162,1.1162 0 0 0 0.2339,-0.0084 1.182,1.182 0 0 0 0.4762,-0.1838 0.78,0.78 0 0 0 0.15,-0.1337 3.6477,3.6477 0 0 0 0.5931,-1.0276 2.5965,2.5965 0 0 1 1.3952,-1.4786 2.4829,2.4829 0 0 1 1.9633,0.15 9.7441,9.7441 0 0 1 0.9774,0.56 c 0.0919,0.0584 0.1921,0.1169 0.2841,0.1754 a 4.9274,4.9274 0 0 0 -0.117,4.3359 1.0258,1.0258 0 0 1 -0.0752,0.86 1.7031,1.7031 0 0 1 -1.579,1.0693 C 29.335,49.6407 29.218,49.5739 29.193,49.5571 a 7.6916,7.6916 0 0 1 -0.9608,-3.5088 1.9071,1.9071 0 0 1 1.1445,-1.8713 1.0571,1.0571 0 0 0 0.5514,-0.5765 0.8387,0.8387 0 0 0 -0.0668,-0.66 0.9,0.9 0 0 0 -1.2364,-0.351 3.4617,3.4617 0 0 0 -2.1387,3.2582 12.33,12.33 0 0 0 0.1587,1.8547 c 0.0167,0.1337 0.0334,0.259 0.05,0.3926 a 4.2282,4.2282 0 0 0 -2.4561,-0.5179 0.6209,0.6209 0 0 1 -0.5848,-0.2506 7.8749,7.8749 0 0 1 -1.6458,-2.54 3.153,3.153 0 0 1 -0.0919,-2.1387 2.7255,2.7255 0 0 0 -0.4762,-2.573 c -0.8939,-1.1864 -0.8939,-1.88 0.0167,-2.9825 a 14.488,14.488 0 0 1 1.6291,-1.5706 l 0.259,-0.2173 a 0.4182,0.4182 0 0 1 0.2589,-0.142 c 0.0418,0.0083 0.1254,0.05 0.2507,0.284 a 7.3046,7.3046 0 0 0 4.0184,3.3084 0.8718,0.8718 0 0 0 0.8187,-0.0753 0.9288,0.9288 0 0 0 0.3258,-0.4594 4.6209,4.6209 0 0 0 3.4836,1.6799 2.9059,2.9059 0 0 1 2.13,1.0777 2.868,2.868 0 0 1 0.5848,2.2473 0.2831,0.2831 0 0 1 -0.0084,0.0836 v 0.0584 a 4.8229,4.8229 0 0 0 -0.2757,2.665 c 0.0334,0.2924 0.0585,0.5932 0.0669,0.8856 0.025,1.0693 -0.0084,2.1637 -0.0335,3.2247 l -0.0083,0.2089 A 1.9529,1.9529 0 0 1 34.5474,51.337 5.0673,5.0673 0 0 1 30.27,53.5257 8.24,8.24 0 0 1 28.8251,53.5006 Z m 5.0627,1.8631 a 5.1591,5.1591 0 0 1 -3.442,-0.0752 c 0.1,-0.0167 0.1921,-0.0334 0.2924,-0.05 0.7352,-0.1336 1.4871,-0.2673 2.239,-0.4678 a 3.803,3.803 0 0 0 1.4954,-0.8271 15.57,15.57 0 0 0 1.7042,-1.8379 2.3627,2.3627 0 0 0 0.3426,-0.66 0.89,0.89 0 0 0 0.0334,-0.0836 l 1.37,0.9023 a 6.5128,6.5128 0 0 1 -4.0347,3.0993 z m 5.5639,-2.1722 0.0083,-0.0083 a 4.736,4.736 0 0 1 0.3175,-0.4762 0.6252,0.6252 0 0 1 0.2,-0.0752 c 0.4261,-0.1253 0.8605,-0.2506 1.2866,-0.3676 a 0.9345,0.9345 0 0 1 0.3592,-0.025 c 0.2089,0.0417 0.4177,0.0919 0.635,0.15 a 3.34,3.34 0 0 1 -2.8063,0.8023 z m 7.4019,-3.25 A 4.4363,4.4363 0 0 1 43.7205,50.827 23.4193,23.4193 0 0 0 48.14,47.0261 h 0.6015 a 5.7754,5.7754 0 0 1 -1.8879,2.9157 z m 4.57,-5.6643 c -0.6851,0.2924 -1.3868,0.56 -2.0719,0.8271 l -0.2673,0.1 a 0.9726,0.9726 0 0 1 -0.2423,0.0419 l -0.15,0.025 a 0.3942,0.3942 0 0 1 -0.2006,0 c -0.0668,-0.025 -0.0919,-0.0835 -0.1169,-0.2089 a 0.8742,0.8742 0 0 0 -1.036,-0.7184 0.8866,0.8866 0 0 0 -0.5764,0.3676 0.9463,0.9463 0 0 0 -0.1253,0.7268 0.9629,0.9629 0 0 1 -0.2172,0.8438 3.75,3.75 0 0 1 -0.4929,0.5681 l -0.3593,0.3007 c -0.6015,0.5263 -1.228,1.0694 -1.88,1.5539 a 7.031,7.031 0 0 1 -0.9774,0.5848 c -0.2,0.1086 -0.3927,0.2089 -0.5848,0.3258 l -0.259,0.15 a 7.2376,7.2376 0 0 0 -1.0109,0.66 1.9549,1.9549 0 0 1 -2.2807,0.1671 L 38.023,50.2165 C 37.6888,49.991 37.3463,49.757 37.0038,49.5398 a 0.3482,0.3482 0 0 1 -0.1921,-0.3425 c -0.0251,-0.7435 -0.0669,-1.4871 -0.1,-2.2306 -0.0334,-0.6433 -0.0668,-1.2949 -0.0919,-1.9382 a 1.3289,1.3289 0 0 1 0.1086,-0.5013 4.5939,4.5939 0 0 0 -0.66,-4.5948 c -0.0835,-0.1 -0.1754,-0.2005 -0.284,-0.3091 a 2.8479,2.8479 0 0 0 1.721,-1.17 l 0.1587,-0.1754 c 0.15,-0.1671 0.3007,-0.3342 0.4678,-0.51 l 0.0836,-0.0836 a 3.1768,3.1768 0 0 0 2.523,1.1445 4.7326,4.7326 0 0 1 -1.4453,4.3777 0.3421,0.3421 0 0 1 -0.2089,0.0083 0.8968,0.8968 0 0 0 -1.22,0.3593 0.8228,0.8228 0 0 0 -0.0752,0.6516 1.0128,1.0128 0 0 0 0.5514,0.5848 c 0.3592,0.1838 0.7352,0.3509 1.1111,0.518 l 0.4177,0.1921 a 0.6436,0.6436 0 0 1 0.3843,0.3509 0.3388,0.3388 0 0 1 -0.0668,0.284 0.5946,0.5946 0 0 1 -0.3676,0.1839 4.0431,4.0431 0 0 0 -2.2723,1.0206 0.871,0.871 0 0 0 -0.15,1.2782 0.8909,0.8909 0 0 0 1.32,0.0334 2.4143,2.4143 0 0 1 2.9907,-0.15 c 0.0669,0.0418 0.1337,0.0835 0.1922,0.1253 0.0836,0.0585 0.1588,0.117 0.2423,0.1671 a 0.8823,0.8823 0 0 0 1.203,-0.2423 0.8983,0.8983 0 0 0 0.15,-0.66 0.8659,0.8659 0 0 0 -0.376,-0.5513 10.3539,10.3539 0 0 0 -0.9189,-0.56 c -0.0919,-0.0585 -0.1838,-0.1086 -0.2757,-0.1671 l 0.1086,-0.5012 a 2.2029,2.2029 0 0 1 0.2339,0.0083 c 0.3008,0 0.61,0.0084 0.919,-0.0167 a 4.1524,4.1524 0 0 0 3.6675,-2.9657 2.6708,2.6708 0 0 1 2.3058,-1.437 1.4349,1.4349 0 0 1 1.061,0.7937 c 0.1587,0.2506 0.6433,0.9941 1.37,0.543 a 0.85,0.85 0 0 0 0.3926,-0.518 1.3683,1.3683 0 0 0 -0.284,-0.9941 3.1155,3.1155 0 0 0 -4.1855,-1.2448 c -0.0752,0.0251 -0.142,0.0585 -0.2172,0.0919 a 0.8662,0.8662 0 0 0 -0.9608,-0.6934 c -0.2673,0.025 -0.71,0.1754 -0.7936,0.9022 l -0.0084,0.1421 a 10.3366,10.3366 0 0 1 -0.2088,1.3366 2.6548,2.6548 0 0 1 -3.5924,2.1805 c -0.2339,-0.05 -0.4678,-0.1169 -0.6767,-0.1838 a 0.0633,0.0633 0 0 0 -0.0334,-0.0083 c 0.0752,-0.1254 0.1587,-0.2423 0.2339,-0.3593 a 13.1325,13.1325 0 0 0 0.777,-1.3283 6.288,6.288 0 0 0 0.51,-3.5673 c -0.05,-0.3425 0.0167,-0.4594 0.3509,-0.6349 0.4761,-0.259 0.9273,-0.56 1.3951,-0.8772 0.15,-0.1 0.2924,-0.2 0.4512,-0.3008 a 5.0929,5.0929 0 0 0 7.2264,0.3843 2.6073,2.6073 0 0 1 1.0527,1.98 c 0.0334,0.4177 0.0835,0.8354 0.1253,1.2531 0.025,0.1922 0.05,0.3927 0.0668,0.5849 0.0084,0.0417 0.0167,0.0918 0.0251,0.1336 a 0.8952,0.8952 0 0 1 0.0167,0.1922 3.438,3.438 0 0 1 -1.8298,2.7486 z"
         id="path2" />
      <path
         d="m 18.85,27.6442 a 3.9277,3.9277 0 0 1 1.6624,1.7293 0.4038,0.4038 0 0 1 -0.0166,0.4595 14.8234,14.8234 0 0 0 -0.8271,1.7544 1.0349,1.0349 0 0 0 -0.0167,0.8187 0.8531,0.8531 0 0 0 0.5263,0.4428 0.936,0.936 0 0 0 0.2924,0.05 c 0.3509,0 0.6349,-0.2423 0.86,-0.7185 a 12.5036,12.5036 0 0 1 1.0526,-1.9131 c 0.3509,-0.4845 0.7268,-0.56 1.3367,-0.259 a 2.9457,2.9457 0 0 0 3.2,-0.2673 c 0.3676,-0.259 0.56,-0.2757 0.8271,-0.0585 a 0.7625,0.7625 0 0 0 0.5681,0.1588 0.941,0.941 0 0 0 0.6182,-0.3676 0.8489,0.8489 0 0 0 -0.15,-1.1864 2.5433,2.5433 0 0 0 -0.71,-0.4177 2.2422,2.2422 0 0 0 -2.18,0.4428 1.2232,1.2232 0 0 1 -1.3951,0.117 2.7087,2.7087 0 0 0 -2.5147,-0.0669 c -0.05,-0.0752 -0.0919,-0.15 -0.142,-0.2255 A 5.2426,5.2426 0 0 0 19.61,26.0736 0.8733,0.8733 0 1 0 18.85,27.6442 Z"
         id="path4" />
    </g>
  </g>
</g></svg>