<svg xmlns="http://www.w3.org/2000/svg" width="24" height="24" viewBox="0 0 24 24"> <g transform="translate(2.7131792231458824 0.0) scale(0.4574888058207826)">
  
  <g
     id="line"
     transform="translate(-15.9584,-8.4963)">
    <path
       d="m 42.0354,28.8323 a 2,2 0 1 1 -2,-2 2,2 0 0 1 2,2"
       id="path2" />
    <path
       d="m 34.0354,28.8323 a 2,2 0 1 1 -2,-2 2,2 0 0 1 2,2"
       id="path4" />
    <path
       fill="none"
       stroke="#000"
       stroke-linecap="round"
       stroke-linejoin="round"
       stroke-width="2"
       d="m 18.5813,35.7722 c 0.6148,-1.774 1.4978,-3.4939 2.1913,-5.2759 1.6357,-4.2 -0.209,-6.4512 1.291,-12.0342 1.48,-5.5 7.2773,-8.9658 13.709,-8.9658 5.4,0 8,3 8,3 a 8.1323,8.1323 0 0 1 7.4052,8.0371 c 0.3867,7.18 1.0244,7.1523 3.4287,12.8222 A 11.5987,11.5987 0 0 1 53.16,45.0187"
       id="path6" />
    <path
       fill="none"
       stroke="#000"
       stroke-linejoin="round"
       stroke-width="2"
       d="m 46.2908,34.8314 a 17.717,17.717 0 0 0 0.7446,-5.1532 c 0,-5 -2,-8 -6,-12 -4,4 -16,9 -16,11 v 1 a 17.8993,17.8993 0 0 0 0.5738,4.55"
       id="path8" />
    <path
       fill="none"
       stroke="#000"
       stroke-linecap="round"
       stroke-linejoin="round"
       stroke-width="2"
       d="M 16.9584,59.9561 V 56.95 c 0,-5.0109 5.011,-9.02 10.0219,-9.02 q 9.02,7.5165 18.0394,0 c 5.0109,0 10.0219,4.0088 10.0219,9.02 v 3.0066"
       id="path10" />
    <line
       x1="46.169201"
       x2="49.477402"
       y1="35.164902"
       y2="32.531898"
       fill="none"
       stroke="#000"
       stroke-linecap="round"
       stroke-linejoin="round"
       stroke-width="2"
       id="line12" />
    <line
       x1="25.6297"
       x2="22.3298"
       y1="35.164902"
       y2="32.117001"
       fill="none"
       stroke="#000"
       stroke-linecap="round"
       stroke-linejoin="round"
       stroke-width="2"
       id="line14" />
    <path
       fill="none"
       stroke="#000"
       stroke-linecap="round"
       stroke-linejoin="round"
       stroke-width="2"
       d="m 32.576,44.2883 c -1.333,0.0108 -3.6243,-1.8519 -4.4967,-3.071 A 14.7835,14.7835 0 0 1 25.6459,35.4 l -0.1394,-0.45 8.9093,-2.2974 a 5.6024,5.6024 0 0 1 2.8793,0.0181 l 8.4081,2.2793 h 0.5438 a 14.4865,14.4865 0 0 1 -1.8409,5.7961 c -0.8769,1.416 -3.2795,3.4563 -4.7421,3.4681 z"
       id="path16" />
  </g>
</g></svg>