<svg xmlns="http://www.w3.org/2000/svg" width="24" height="24" viewBox="0 0 24 24"> <g transform="translate(2.453319449962436 0.0) scale(0.4518999568812125)">
  
  <g
     id="line"
     transform="translate(-14.8479,-9.2468)">
    <path
       fill="none"
       stroke="#000"
       stroke-linecap="round"
       stroke-miterlimit="10"
       stroke-width="2"
       d="m 32.1769,46.2743 c 4.1108,1.2157 6.9831,3.9874 6.9831,7.2116 0,4.3462 -5.2186,7.87 -11.6561,7.87 -6.4375,0 -11.656,-3.5234 -11.656,-7.87 0,-3.1536 2.7474,-5.8739 6.7144,-7.1295"
       id="path2" />
    <path
       fill="none"
       stroke="#000"
       stroke-linecap="round"
       stroke-linejoin="round"
       stroke-width="2"
       d="m 30.6547,12.48 a 13.9517,13.9517 0 0 1 7.21,-2.2332 c 4.7236,0 8.7752,4.1079 14.9073,4.1079 0.9039,0 1.3564,-0.4069 2.2686,-0.4069 0.7566,0 1.0586,0.5411 1.0586,1.496 v 15.8654 c 0,0.7455 -0.8143,1.5923 -3.2048,1.5923 -7.1861,0 -11.2378,-4.0647 -15.4069,-4.0647 a 12.2077,12.2077 0 0 0 -6.9151,2.3078 v -4.438"
       id="path4" />
    <line
       x1="27.1824"
       x2="27.1824"
       y1="10.421"
       y2="52.340099"
       fill="none"
       stroke="#000"
       stroke-linecap="round"
       stroke-miterlimit="10"
       stroke-width="2"
       id="line6" />
  </g>
</g></svg>