<svg xmlns="http://www.w3.org/2000/svg" width="24" height="24" viewBox="0 0 24 24"> <g transform="translate(0.8400220967562486 0.0) scale(0.4799990496018818)">
  
  <g
     id="line"
     transform="translate(-12.6,-11)">
    <path
       fill="none"
       stroke="#000"
       stroke-linecap="round"
       stroke-linejoin="round"
       stroke-width="2"
       d="m 58.1,60 v -3 c 0,-5 -5,-9 -10,-9 q -9,7.5 -18,0"
       id="path2" />
    <path
       fill="none"
       stroke="#000"
       stroke-linecap="round"
       stroke-miterlimit="10"
       stroke-width="2"
       d="m 19.9,29.3 a 4.3585,4.3585 0 0 1 -0.1,5.4"
       id="path4" />
    <path
       fill="none"
       stroke="#000"
       stroke-linecap="round"
       stroke-miterlimit="10"
       stroke-width="2"
       d="m 15.7,27.5 c 0,0 2.6,4.9 -0.7,9.4"
       id="path6" />
    <g
       id="g14">
      <path
         fill="none"
         stroke="#000"
         stroke-linecap="round"
         stroke-linejoin="round"
         stroke-width="2"
         d="m 26.1,45.1 c 3,-3 -2.9,-5.1 -2.9,-5.1 l 3.2,-3.3 a 2.8138,2.8138 0 0 0 0.9,-2.3 C 27.2,33 25.2,34 25.2,34 l -5.6,5.7 a 1.6118,1.6118 0 0 0 -0.4,0.7 l -1.3,5 a 5.643,5.643 0 0 0 0.1,3.4 l 0.2,0.7 -4.6,10.5"
         id="path8" />
      <path
         fill="none"
         stroke="#000"
         stroke-linecap="round"
         stroke-linejoin="round"
         stroke-width="2"
         d="m 27.1,46 v 0.8 a 3.0339,3.0339 0 0 1 -1.2,2.5 7.61,7.61 0 0 1 -3.4,1.6"
         id="path10" />
      <line
         x1="22.4"
         x2="19.200001"
         y1="50.900101"
         y2="60.000099"
         fill="none"
         stroke="#000"
         stroke-linecap="round"
         stroke-linejoin="round"
         stroke-width="2"
         id="line12" />
    </g>
    <path
       fill="none"
       stroke="#000"
       stroke-linecap="round"
       stroke-linejoin="round"
       stroke-width="2"
       d="M 25.8,33.1 A 49.69,49.69 0 0 1 25,24 c 0,-6 5,-12 14,-12 9,0 14,6 14,12 0,7 -1,14 -4,14"
       id="path16" />
    <path
       fill="none"
       stroke="#000"
       stroke-linecap="round"
       stroke-linejoin="round"
       stroke-width="2"
       d="M 29.1,38 C 28.2,38 27.6,37.6 27,36.5"
       id="path18" />
    <path
       fill="none"
       stroke="#000"
       stroke-linejoin="round"
       stroke-width="2"
       d="m 28,31 c -0.1,8 4.9,14 11,14 5.9,0 11.1,-6 11.1,-14 0,-5 -3,-11 -3,-11 -8,0 -10,3 -16,1 0,0 -3,5 -3.1,10 z"
       id="path20" />
    <path
       fill="none"
       stroke="#000"
       stroke-linecap="round"
       stroke-linejoin="round"
       stroke-width="2"
       d="m 36.1,37.7 a 6.375,6.375 0 0 1 6,0 V 38 a 6.375,6.375 0 0 1 -6,0 z"
       id="path22" />
    <path
       d="m 37,30 a 2,2 0 1 1 -2,-2 2.0059,2.0059 0 0 1 2,2"
       id="path24" />
    <path
       d="m 45,30 a 2,2 0 1 1 -2,-2 2.0059,2.0059 0 0 1 2,2"
       id="path26" />
  </g>
</g></svg>