<svg xmlns="http://www.w3.org/2000/svg" width="24" height="24" viewBox="0 0 24 24"> <g transform="translate(0.0 1.7695474443541421) scale(0.3723090779657094)">
  
  <g
     id="line"
     transform="translate(-3.768729,-8.521629)">
    <path
       fill="none"
       stroke="#000"
       stroke-linecap="round"
       stroke-linejoin="round"
       stroke-miterlimit="10"
       stroke-width="2"
       d="m 24.4645,53.5202 c -6.1162,-2.9451 -10.3373,-9.202 -10.3373,-16.4446 0,-10.0744 8.1669,-18.2414 18.2414,-18.2414 9.0895,0 16.6262,6.648 18.013,15.347"
       id="path2" />
    <polyline
       fill="none"
       stroke="#000"
       stroke-linecap="round"
       stroke-linejoin="round"
       stroke-miterlimit="10"
       stroke-width="2"
       points="24.5472,56.9821 18.5628,61.0249 19.3576,50.132 8.4649,50.9267 14.5909,41.8884 4.7686,37.1215 14.591,32.3545 8.4653,23.3157 19.3582,24.1105 18.5635,13.2178 27.6018,19.3438 32.3686,9.5215 37.1357,19.3439 46.1745,13.2182 45.3797,24.111 56.2724,23.3164 50.1464,32.3547"
       id="polyline4" />
    <path
       fill="none"
       stroke="#000"
       stroke-linecap="round"
       stroke-linejoin="round"
       stroke-miterlimit="10"
       stroke-width="2"
       d="m 34.791,46.6066 c -0.0241,0.2749 -0.2468,0.4973 -0.5226,0.5268 -3.3432,0.3581 -5.9145,3.65 -5.9145,7.6568 0,4.2461 2.9447,7.6882 6.5771,7.6882 h 25.0744 c 3.9908,0 7.2259,-3.6376 7.2259,-8.1248 0,-4.3002 -2.9712,-7.8202 -6.7312,-8.106 -0.2877,-0.0219 -0.521,-0.2232 -0.5758,-0.505 -0.84,-4.3132 -4.7148,-7.5546 -9.2958,-7.5546 -2.9773,0 -5.6294,1.3479 -7.3517,3.4921 -0.1683,0.2095 -0.4507,0.3055 -0.6992,0.2013 -0.6627,-0.2779 -1.3626,-0.4124 -2.1458,-0.4124 -2.9594,2e-4 -5.3886,2.2587 -5.6408,5.1376 z"
       id="path6" />
  </g>
</g></svg>