<svg xmlns="http://www.w3.org/2000/svg" width="24" height="24" viewBox="0 0 24 24"> <g transform="translate(0.0 4.205821381851201) scale(0.3976693263564459)">
  
  <g
     id="line"
     transform="translate(-5.8233668,-16.571788)">
    <path
       fill="none"
       stroke="#000"
       stroke-linecap="round"
       stroke-linejoin="round"
       stroke-width="2"
       d="m 13.596,54.7557 h 0.0094 c 0.6641,0.1684 1.3751,-0.9167 1.8522,-1.6557"
       id="path2" />
    <line
       x1="12.2677"
       x2="12.2677"
       y1="24.793501"
       y2="24.7841"
       fill="none"
       stroke="#000"
       stroke-linecap="round"
       stroke-linejoin="round"
       stroke-width="2"
       id="line4" />
    <path
       fill="none"
       stroke="#000"
       stroke-miterlimit="10"
       stroke-width="2"
       d="m 61.1077,33.1937 c 0,-0.0187 -0.0093,-0.028 -0.0093,-0.0467 a 1.0855,1.0855 0 0 1 -0.0375,-0.1684"
       id="path6" />
    <path
       fill="none"
       stroke="#000"
       stroke-miterlimit="10"
       stroke-width="2"
       d="m 57.0292,29.9571 c 0.2713,0.0374 0.4209,0.0468 0.4209,0.0468 a 4.6586,4.6586 0 0 1 3.6483,3.1431 v 0.0093 a 3.1286,3.1286 0 0 1 0.1777,0.72 v 0.0094"
       id="path8" />
    <polyline
       fill="none"
       stroke="#000"
       stroke-linecap="round"
       stroke-linejoin="round"
       stroke-width="2"
       points="57.347 29.995 61.922 27.179 60.986 32.829 60.986 32.838 60.986 32.857"
       id="polyline10" />
    <polyline
       fill="none"
       stroke="#000"
       stroke-linecap="round"
       stroke-linejoin="round"
       stroke-width="2"
       points="50.723 32.88 52.117 27.876 52.632 26.052 53.614 28.4 54.737 31.094"
       id="polyline12" />
    <path
       fill="none"
       stroke="#000"
       stroke-linecap="round"
       stroke-linejoin="round"
       stroke-width="2"
       d="m 49.58,42.2854 1.3474,2.36 a 13.0639,13.0639 0 0 0 4.65,4.7408 l 2.2717,1.3557 -1.2491,0.6457"
       id="path14" />
    <path
       fill="none"
       stroke="#000"
       stroke-linecap="round"
       stroke-linejoin="round"
       stroke-width="2"
       d="m 16.01,34.614 c -0.75,5.4076 4.0452,9.122 7.4156,10.1819 a 1.2874,1.2874 0 0 1 0.8676,0.9112 l 0.2443,0.9561 1.531,5.904 A 1.2929,1.2929 0 0 0 27.2,53.53 l 8.1384,0.7632 a 1.293,1.293 0 0 0 1.3553,-1.6712 v 0 A 1.293,1.293 0 0 0 35.62,51.723 l -2.4835,-0.3123 a 1.2929,1.2929 0 0 1 -1.1189,-1.4634 l 1.1731,-8.3168"
       id="path16" />
    <path
       fill="none"
       stroke="#000"
       stroke-linecap="round"
       stroke-miterlimit="10"
       stroke-width="2"
       d="m 21.7961,53.1561 c 0.7825,6e-4 1.3666,-0.057 1.3666,-0.057 0,0 2.32,-1.768 -1.4312,-2.5257 l 2.8063,-3.91 0.0094,-0.0093"
       id="path18" />
    <path
       fill="none"
       stroke="#000"
       stroke-linecap="round"
       stroke-miterlimit="10"
       stroke-width="2"
       d="m 31.0051,38.9561 2.1889,2.6753 1.1881,1.45 0.0654,0.0748 c 0.0187,0.0281 0.0468,0.0655 0.0655,0.0936 l 1.0945,1.8334 4.7146,7.8952 0.0655,0.0935 0.2339,0.4023 a 0.7974,0.7974 0 0 0 0.6735,0.3835 h 5.3694 a 0.8152,0.8152 0 0 0 0.6549,-0.3368 l 0.3835,-0.5612 0.0187,-0.0281 0.131,-0.1871 a 0.63,0.63 0 0 0 0.0935,-0.2151 0.7393,0.7393 0 0 0 -0.0655,-0.6268 c 0,0 0.0094,0 0,-0.0093 A 0.3213,0.3213 0 0 0 47.7963,51.781 0.7512,0.7512 0 0 0 47.3005,51.5097 l -3.4424,-0.4209 a 0.984,0.984 0 0 1 -0.159,-0.0374 0.5786,0.5786 0 0 1 -0.1123,-0.0468 0.8641,0.8641 0 0 1 -0.318,-0.3181 0.7417,0.7417 0 0 1 -0.0936,-0.2525 1.0815,1.0815 0 0 1 -0.0093,-0.1778 l 0.29,-4.9578 0.0935,-1.6651 a 0.7251,0.7251 0 0 1 0.0187,-0.14 0.8643,0.8643 0 0 1 0.1965,-0.3649 0.5806,0.5806 0 0 1 0.1777,-0.1309 0.6067,0.6067 0 0 1 0.3087,-0.1029 c 0.3274,-0.0281 0.6548,-0.0468 0.9729,-0.0561 0.0842,0 0.1683,-0.0094 0.2525,-0.0094 0.15,-0.0093 0.2994,-0.0093 0.449,-0.0187 0.2433,0 0.5052,-0.0187 0.7671,-0.0281 0.2058,-0.0187 0.4116,-0.0374 0.6268,-0.0561 0.2152,-0.0187 0.43,-0.0468 0.6548,-0.0842 0.2338,-0.028 0.477,-0.0748 0.73,-0.1309 a 3.05,3.05 0 0 0 0.3742,-0.0842 c 0.131,-0.0281 0.2713,-0.0655 0.4116,-0.1029 a 0.3875,0.3875 0 0 0 0.0935,-0.0375 0.3429,0.3429 0 0 0 0.1029,-0.0467 2.4357,2.4357 0 0 1 0.2245,-0.1216 1.9646,1.9646 0 0 1 0.2433,-0.1216 1.58,1.58 0 0 1 0.2525,-0.1216 11.3809,11.3809 0 0 1 3.1338,-0.6642 c 0.1777,-0.0187 0.3461,-0.0374 0.5238,-0.0468 1.9644,-0.15 4.1627,-0.1029 6.09,-0.0748 1.0851,0.0093 2.086,0.0187 2.9,-0.0187 h 0.0375 c 0.2619,-0.0094 0.5051,-0.0281 0.72,-0.0562 a 3.0477,3.0477 0 0 0 0.3275,-0.0467 1.75,1.75 0 0 0 0.2525,-0.0468 1.0155,1.0155 0 0 0 0.1965,-0.0468 0.8862,0.8862 0 0 0 0.5145,-0.2806 0.3766,0.3766 0 0 0 0,-0.449 0.56,0.56 0 0 0 -0.0842,-0.14 L 65.0091,39.995 a 0.5678,0.5678 0 0 0 -0.1216,-0.14 1.21,1.21 0 0 0 -0.2151,-0.2245 H 64.663 a 10.9145,10.9145 0 0 1 -1.188,-1.3 c -0.131,-0.159 -0.2526,-0.3274 -0.3742,-0.4958 Q 62.8482,37.456 62.6237,37.077 c -0.1029,-0.1777 -0.2058,-0.3554 -0.2993,-0.5332 a 2.4059,2.4059 0 0 1 -0.1029,-0.2245 c -0.0842,-0.1684 -0.159,-0.3367 -0.2339,-0.4958 a 13.8156,13.8156 0 0 1 -0.5612,-1.45 c -0.0468,-0.15 -0.0936,-0.2994 -0.131,-0.44 -0.0094,-0.0187 -0.0094,-0.0374 -0.0187,-0.0561 0,-0.0187 -0.0094,-0.0374 -0.0094,-0.0561"
       id="path20" />
    <path
       fill="none"
       stroke="#000"
       stroke-linecap="round"
       stroke-linejoin="round"
       stroke-width="2"
       d="M 57.45,30.0039 A 0.8064,0.8064 0 0 1 57.3471,29.9945 C 57.2723,29.9852 57.1694,29.9758 57.0291,29.9571 56.9449,29.9477 56.8513,29.9384 56.7484,29.9197 56.6455,29.901 56.5426,29.8916 56.421,29.8729 H 56.4117 C 56.2901,29.8542 56.1498,29.8261 56.0094,29.8074 55.7007,29.7513 55.3453,29.6858 54.9617,29.5923 A 4.572,4.572 0 0 1 54.5034,29.4894 C 54.3443,29.4519 54.176,29.4145 54.0169,29.3678"
       id="path22" />
    <path
       fill="none"
       stroke="#000"
       stroke-linecap="round"
       stroke-linejoin="round"
       stroke-width="2"
       d="m 51.8936,28.6849 a 13.2108,13.2108 0 0 1 -3.246,-1.768 0.0709,0.0709 0 0 1 -0.0374,-0.0187 0.029,0.029 0 0 0 -0.0187,-0.0094 c -0.2526,-0.2245 -0.5052,-0.43 -0.7484,-0.6267 a 14.2266,14.2266 0 0 0 -4.3592,-2.4509 h -0.0093 c -0.3368,-0.3367 -0.6922,-0.6641 -1.0571,-0.9822 -0.2151,-0.1871 -0.43,-0.3648 -0.6548,-0.5332 a 21.14,21.14 0 0 0 -10.187,-4.4714 c -0.0187,0 -0.028,-0.0094 -0.0467,-0.0094 a 21.0762,21.0762 0 0 0 -3.19,-0.2432 21.46,21.46 0 0 0 -16.071,7.2123 v 0.0093 a 21.2212,21.2212 0 0 0 -2.984,4.3124 0.2059,0.2059 0 0 0 -0.0281,0.0468 20.6933,20.6933 0 0 0 -1.2722,2.956 C 7.9463,32.2115 7.9182,32.3051 7.8808,32.408 l -0.1964,0.6454 c -0.0468,0.1684 -0.0936,0.3274 -0.131,0.4958 a 21.1508,21.1508 0 0 0 -0.73,5.5378 21.3724,21.3724 0 0 0 0.3367,3.8166 c 0.0468,0.262 0.0936,0.5239 0.15,0.7765 a 21.0726,21.0726 0 0 0 1.6,4.6585 2.3941,2.3941 0 0 1 0.1029,0.2245 c 0,0.0093 0.0094,0.0093 0.0094,0.0187 0.159,0.3087 0.318,0.6267 0.4864,0.9261 0.0093,0.0093 0.0093,0.0093 0.0093,0.0187 0.15,0.2526 0.29,0.5051 0.4491,0.7483 0.1964,0.3368 0.4022,0.6549 0.6267,0.9729 a 20.2921,20.2921 0 0 0 2.3106,2.825 c 0.2151,0.2246 0.43,0.43 0.6548,0.6455 l 0.0374,0.0374 h 0.0093"
       id="path24" />
  </g>
</g></svg>