<svg xmlns="http://www.w3.org/2000/svg" width="24" height="24" viewBox="0 0 24 24"> <g transform="translate(0.0 2.4729078285347956) scale(0.403383791659398)">
  
  <g
     id="line"
     transform="translate(-6.1314101,-12.38483)">
    <line
       x1="34.048901"
       x2="34.048901"
       y1="32.7943"
       y2="32.803398"
       fill="none"
       stroke="#000"
       stroke-miterlimit="10"
       stroke-width="2"
       id="line2" />
    <line
       x1="14.725"
       x2="14.3664"
       y1="35.105"
       y2="37.332199"
       fill="none"
       stroke="#000"
       stroke-linecap="round"
       stroke-linejoin="round"
       stroke-width="2"
       id="line4" />
    <path
       fill="none"
       stroke="#000"
       stroke-linecap="round"
       stroke-miterlimit="10"
       stroke-width="2"
       d="m 22.4963,41.5007 c -0.34,-0.2 -0.68,-0.41 -1,-0.62 a 18.3131,18.3131 0 0 1 -3.97,-3.18"
       id="path6" />
    <path
       fill="none"
       stroke="#000"
       stroke-linecap="round"
       stroke-miterlimit="10"
       stroke-width="2"
       d="m 12.2763,23.5207 c 0,0.29 0,0.58 0.02,0.86 0,0.38 0.03,0.75 0.06,1.12 0.02,0.24 0.04,0.48 0.07,0.72 a 26.0614,26.0614 0 0 0 0.69,4.09 26.7476,26.7476 0 0 0 1.61,4.61 v 0.01 c 0.09,0.2 0.18,0.41 0.28,0.61"
       id="path8" />
    <polyline
       fill="none"
       stroke="#000"
       stroke-linecap="round"
       stroke-linejoin="round"
       stroke-width="2"
       points="18.836 30.821 19.426 34.881 17.656 37.511 17.526 37.701 15.856 40.171 15.336 44.901 13.336 44.901 13.336 40.171 14.366 37.331 14.366 37.321 15.006 35.541 15.756 33.491 16.036 30.731"
       id="polyline10" />
    <polyline
       fill="none"
       stroke="#000"
       stroke-linecap="round"
       stroke-linejoin="round"
       stroke-width="2"
       points="13.359 40.081 11.259 39.991 11.519 33.951 13.119 30.311"
       id="polyline12" />
    <path
       fill="none"
       stroke="#000"
       stroke-linecap="round"
       stroke-miterlimit="10"
       stroke-width="2"
       d="m 26.6563,33.9107 a 9.0823,9.0823 0 0 0 -4.16,7.59 v 0.05 a 9.0307,9.0307 0 0 0 1.02,4.18 9.1243,9.1243 0 0 0 0.6,1 l 0.27,6.46 0.04,0.94 a 1.483,1.483 0 0 1 -0.27,0.94 1.57,1.57 0 0 1 -1.21,0.73 l -3.26,0.26 -5.6,0.46 a 1.8069,1.8069 0 0 0 -1.2,0.6 0.9034,0.9034 0 0 0 0.68,1.5 h 13.06 a 2.6417,2.6417 0 0 0 0.29,-0.02 1.9781,1.9781 0 0 0 1.53,-1.18 l 0.15,-0.37 a 2.0609,2.0609 0 0 0 0.15,-1.15 l -0.67,-4.43 a 2.1282,2.1282 0 0 1 1.17,-2.22 8.5511,8.5511 0 0 0 2.6,-2.18 c 0.01,-0.02 0.02,-0.03 0.03,-0.05 a 3.2588,3.2588 0 0 0 0.72,-2.07"
       id="path14" />
    <path
       fill="none"
       stroke="#000"
       stroke-linecap="round"
       stroke-linejoin="round"
       stroke-width="2"
       d="m 8.2281,22.2784 a 1.5987,1.5987 0 0 1 -1.08,-1.4 1.4665,1.4665 0 0 1 0.49,-1.33 l 1.58,-0.9777 v -0.7 a 1.0654,1.0654 0 0 1 0.38,-0.82 l 0.66,-0.56 -1.88,-2.5 a 0.3811,0.3811 0 0 1 0.43,-0.59 l 2.25,0.76 2.31,1.46 2.5,-1.31 a 3.7236,3.7236 0 0 1 1.76,-0.43 h 0.66 a 0.48,0.48 0 0 1 0.28,0.87 l -2.91,2.14 a 1.7813,1.7813 0 0 0 -0.68,1.91 c 0.08,0.29 0.16,0.58 0.26,0.86 a 8.01,8.01 0 0 0 6.1,5.14 20.78,20.78 0 0 1 6.01,2.18 21.034,21.034 0 0 1 6.7,5.81 v 0.01 c 0.1,0.12 0.19,0.27 0.29,0.41 0,0.01 0.01,0.01 0.01,0.02 a 11.3212,11.3212 0 0 1 1.13,2.22 12.21,12.21 0 0 1 0.75,4.8 c -0.01,0.14 -0.01,0.27 -0.01,0.39 a 20.3073,20.3073 0 0 0 0.3,3.52 19.4649,19.4649 0 0 0 1.03,3.81 3.4226,3.4226 0 0 0 0.13,0.34 4.4066,4.4066 0 0 0 0.23,0.56 l 0.01,0.02 a 5.546,5.546 0 0 0 1.04,1.87 5.3634,5.3634 0 0 0 2.65,1.76 36.5639,36.5639 0 0 0 4.51,0.81 l 18.51,2.78"
       id="path16" />
    <path
       fill="none"
       stroke="#000"
       stroke-linecap="round"
       stroke-miterlimit="10"
       stroke-width="2"
       d="m 31.0585,48.0307 c -0.47,0.47 0.59,3.74 0.7,4.42 l 0.76,3.43 a 2.0609,2.0609 0 0 1 -0.15,1.15 l -0.15,0.37 a 1.977,1.977 0 0 1 -1.82,1.2 h -3.48"
       id="path18" />
  </g>
</g></svg>