<svg xmlns="http://www.w3.org/2000/svg" width="24" height="24" viewBox="0 0 24 24"> <g transform="translate(4.884037149881633 0.0) scale(0.3715935726884174)">
  
  <g
     id="line"
     transform="translate(-17.08649,-3.9444939)">
    <path
       fill="none"
       stroke="#000"
       stroke-linecap="round"
       stroke-linejoin="round"
       stroke-width="2"
       d="m 21.6616,43.9634 c -2.0638,-0.1527 -3.6226,-1.9342 -3.5,-4 v -7 c -0.2578,-1.933 1.1001,-3.709 3.0331,-3.9669 1.933,-0.2578 3.709,1.1001 3.9669,3.0331 0.0413,0.3099 0.0413,0.6239 0,0.9337 v 7 c 0.1226,2.0659 -1.4362,3.8474 -3.5,4.0001 z"
       id="path2" />
    <path
       fill="none"
       stroke="#000"
       stroke-linecap="round"
       stroke-linejoin="round"
       stroke-width="2"
       d="m 28.724,50.1933 c -2.0638,-0.1527 -3.6226,-1.9342 -3.5,-4 v -15 c -0.2578,-1.933 1.1001,-3.709 3.0331,-3.9669 1.933,-0.2578 3.709,1.1001 3.9669,3.0331 0.0413,0.3099 0.0413,0.6239 0,0.9337 v 15 c 0.1226,2.0659 -1.4362,3.8474 -3.5,4.0001 z"
       id="path4" />
    <line
       x1="37.9375"
       x2="34.966499"
       y1="19.4375"
       y2="27.195"
       fill="none"
       stroke="#000"
       stroke-linecap="round"
       stroke-linejoin="round"
       stroke-width="2"
       id="line6" />
    <path
       fill="none"
       stroke="#000"
       stroke-linecap="round"
       stroke-linejoin="round"
       stroke-width="2"
       d="M 51.5391,32.0863 42.2667,7.68 C 40.25,3.0625 33.0625,5.9375 34.7519,10.3928 l 3.1856,9.0447 4.4316,12.533"
       id="path8" />
    <path
       fill="none"
       stroke="#000"
       stroke-linecap="round"
       stroke-linejoin="round"
       stroke-width="2"
       d="M 46.6991,19.3468 49.9957,9.6819 C 50.9506,4.7345 43.3993,3.0305 42.2667,7.6587"
       id="path10" />
    <path
       fill="none"
       stroke="#000"
       stroke-linecap="round"
       stroke-linejoin="round"
       stroke-width="2"
       d="m 18.1302,47.0806 c 0,0 -0.0905,4.1182 0,5.487 0.5722,8.6567 9.6883,15.0894 18.363,14.9617 9.667,0 17.893,-6.833 17.893,-16.878 l -0.001,-10e-4 -0.657,-11.129 c -0.1631,-2.228 -2.0023,-3.9616 -4.236,-3.993 h -10 c -2.0658,-0.1226 -3.8473,1.4362 -4,3.5 0.1821,2.1099 1.8646,3.7781 3.976,3.942 l 1.049,0.117 c 2.187,0.242 3.976,1.342 3.976,2.442 v 2 0.44 c -2.1534,0.4577 -4.1469,1.4784 -5.777,2.958"
       id="path12" />
  </g>
</g></svg>