<svg xmlns="http://www.w3.org/2000/svg" width="24" height="24" viewBox="0 0 24 24"> <g transform="translate(0.0 3.454545454545455) scale(0.36363636363636365)">
  
  <g
     id="line"
     transform="translate(-3,-15)">
    <path
       fill="none"
       stroke="#000"
       stroke-linecap="round"
       stroke-linejoin="round"
       stroke-miterlimit="10"
       stroke-width="2"
       d="m 41,56 c 0,2.7614 -2.2386,5 -5,5 -2.7614,0 -5,-2.2386 -5,-5"
       id="path2" />
    <path
       fill="none"
       stroke="#000"
       stroke-linecap="round"
       stroke-linejoin="round"
       stroke-miterlimit="10"
       stroke-width="2"
       d="M 67.0015,56 H 4.9985 C 4.447,56 4,55.553 4,55.0015 V 16.9985 C 4,16.447 4.447,16 4.9985,16 h 62.003 C 67.553,16 68,16.447 68,16.9985 v 38.003 C 68,55.553 67.553,56 67.0015,56 Z"
       id="path4" />
    <path
       fill="none"
       stroke="#000"
       stroke-linecap="round"
       stroke-linejoin="round"
       stroke-miterlimit="10"
       stroke-width="2"
       d="M 64.0015,51.625 H 7.9985 C 7.447,51.625 7,51.178 7,50.6265 V 21.3735 C 7,20.8221 7.447,20.375 7.9985,20.375 h 56.003 C 64.553,20.375 65,20.822 65,21.3735 v 29.253 c 0,0.5515 -0.447,0.9985 -0.9985,0.9985 z"
       id="path6" />
    <line
       x1="36"
       x2="36"
       y1="17"
       y2="55"
       fill="none"
       stroke="#000"
       stroke-linecap="round"
       stroke-linejoin="round"
       stroke-miterlimit="10"
       stroke-width="2"
       id="line8" />
    <line
       x1="11"
       x2="31"
       y1="27"
       y2="27"
       fill="none"
       stroke="#000"
       stroke-linecap="round"
       stroke-linejoin="round"
       stroke-miterlimit="10"
       stroke-width="2"
       id="line10" />
    <line
       x1="11"
       x2="31"
       y1="33"
       y2="33"
       fill="none"
       stroke="#000"
       stroke-linecap="round"
       stroke-linejoin="round"
       stroke-miterlimit="10"
       stroke-width="2"
       id="line12" />
    <line
       x1="11"
       x2="31"
       y1="39"
       y2="39"
       fill="none"
       stroke="#000"
       stroke-linecap="round"
       stroke-linejoin="round"
       stroke-miterlimit="10"
       stroke-width="2"
       id="line14" />
    <line
       x1="11"
       x2="31"
       y1="45"
       y2="45"
       fill="none"
       stroke="#000"
       stroke-linecap="round"
       stroke-linejoin="round"
       stroke-miterlimit="10"
       stroke-width="2"
       id="line16" />
    <line
       x1="41"
       x2="61"
       y1="27"
       y2="27"
       fill="none"
       stroke="#000"
       stroke-linecap="round"
       stroke-linejoin="round"
       stroke-miterlimit="10"
       stroke-width="2"
       id="line18" />
    <line
       x1="41"
       x2="61"
       y1="33"
       y2="33"
       fill="none"
       stroke="#000"
       stroke-linecap="round"
       stroke-linejoin="round"
       stroke-miterlimit="10"
       stroke-width="2"
       id="line20" />
    <line
       x1="41"
       x2="61"
       y1="39"
       y2="39"
       fill="none"
       stroke="#000"
       stroke-linecap="round"
       stroke-linejoin="round"
       stroke-miterlimit="10"
       stroke-width="2"
       id="line22" />
    <line
       x1="41"
       x2="61"
       y1="45"
       y2="45"
       fill="none"
       stroke="#000"
       stroke-linecap="round"
       stroke-linejoin="round"
       stroke-miterlimit="10"
       stroke-width="2"
       id="line24" />
  </g>
</g></svg>