<svg xmlns="http://www.w3.org/2000/svg" width="24" height="24" viewBox="0 0 24 24"> <g transform="scale(0.4130809092282585)">
  
  <g
     id="line"
     transform="translate(-6.9499998,-6.9499998)">
    <circle
       cx="36"
       cy="36"
       r="26.68"
       fill="none"
       stroke="#000"
       stroke-linecap="round"
       stroke-linejoin="round"
       stroke-width="4.74"
       paint-order="normal"
       id="circle2" />
    <path
       fill="none"
       stroke="#000"
       stroke-linejoin="round"
       stroke-width="4.74"
       d="M 54.49,54.46 18.03,18 18.4881,17.5419"
       id="path4" />
    <g
       transform="matrix(3.164,0,0,3.164,42.88,42.66)"
       fill-rule="evenodd"
       stroke-linecap="round"
       stroke-linejoin="round"
       stroke-miterlimit="10"
       clip-rule="evenodd"
       id="g8">
      <path
         fill="none"
         stroke="#000"
         stroke-width="2"
         d="m 0,-4.844 c -0.205,-0.798 -1.091,-1.397 -2.153,-1.397 -1.214,0 -2.198,0.783 -2.198,1.75 0,0.966 0.956,1.963 2.176,2.385 1.22,0.4217 2.201,1.33 2.176,2.385 -0.02336,0.9667 -0.984,1.75 -2.198,1.75 -1.062,0 -1.948,-0.6 -2.153,-1.398"
         id="path6" />
    </g>
    <g
       transform="matrix(0,-3.164,-3.164,0,38.64,20.28)"
       fill-rule="evenodd"
       stroke-linecap="round"
       stroke-linejoin="round"
       stroke-miterlimit="10"
       clip-rule="evenodd"
       id="g12">
      <path
         fill="none"
         stroke="#000"
         stroke-width="2"
         d="M -0.834,0.834 H 0.834"
         id="path10" />
    </g>
    <g
       transform="matrix(0,-3.164,-3.164,0,38.64,51.72)"
       fill-rule="evenodd"
       stroke-linecap="round"
       stroke-linejoin="round"
       stroke-miterlimit="10"
       clip-rule="evenodd"
       id="g16">
      <path
         fill="none"
         stroke="#000"
         stroke-width="2"
         d="M -0.834,0.834 H 0.834"
         id="path14" />
    </g>
  </g>
</g></svg>