<svg xmlns="http://www.w3.org/2000/svg" width="24" height="24" viewBox="0 0 24 24"> <g transform="translate(3.1103189636192425 0.0) scale(0.4430309214723815)">
  
  <g
     id="line"
     transform="translate(-15.691001,-5.0007609)">
    <path
       d="m 41.8791,27.0302 c 0,1.1045 -0.8965,2 -2,2 -1.1035,0 -2,-0.8955 -2,-2 0,-1.1035 0.8965,-2 2,-2 1.1035,0 2,0.8965 2,2"
       id="path2" />
    <path
       d="m 33.8791,27.0302 c 0,1.1045 -0.8965,2 -2,2 -1.1035,0 -2,-0.8955 -2,-2 0,-1.1035 0.8965,-2 2,-2 1.1035,0 2,0.8965 2,2"
       id="path4" />
    <path
       d="m 35.879,37.0326 c -1.1519,0 -2.3037,-0.2861 -3.4473,-0.8579 -0.4941,-0.2471 -0.6943,-0.8476 -0.4472,-1.3418 0.2466,-0.4936 0.8462,-0.6943 1.3418,-0.4473 1.7177,0.8594 3.3877,0.8594 5.1054,0 0.4947,-0.247 1.0948,-0.0463 1.3418,0.4473 0.2471,0.4942 0.0469,1.0947 -0.4472,1.3418 -1.1436,0.5718 -2.2954,0.8579 -3.4473,0.8579 z"
       id="path6" />
    <path
       fill="none"
       stroke="#000"
       stroke-miterlimit="10"
       stroke-width="2"
       d="m 24.9194,24.7438 c -0.2472,1.1637 -0.379,2.3862 -0.379,3.6472 0,7.8277 5.0765,14.1732 11.3386,14.1732 6.2621,0 11.3386,-6.3455 11.3386,-14.1732 0,-1.1581 -0.1111,-2.2838 -0.3208,-3.3613"
       id="path8" />
    <path
       fill="none"
       stroke="#000"
       stroke-linecap="round"
       stroke-linejoin="round"
       stroke-miterlimit="10"
       stroke-width="2"
       d="m 16.8191,57.883 c 0,0 -2,-13 10,-13 3.1918,2.1279 5.9264,3.5984 9,3.5921 h -0.125 c 3.0736,0.0063 5.8081,-1.4642 9,-3.5921 12,0 10,13 10,13"
       id="path10" />
    <polygon
       fill="none"
       stroke="#000"
       stroke-linecap="round"
       stroke-linejoin="round"
       stroke-miterlimit="10"
       stroke-width="2"
       points="34.5866,9.5465 36.0017,6.0006 37.4702,9.4101 40.3145,6.8949 40.3145,16.6382 31.4697,16.6382 31.4713,6.8949 "
       id="polygon12" />
    <path
       fill="none"
       stroke="#000"
       stroke-linecap="round"
       stroke-linejoin="round"
       stroke-miterlimit="10"
       stroke-width="2"
       d="m 26.7074,45.5127 c 0,0 8.353,8.1081 9.1847,12.6615 l -9e-4,-0.0399 -1.1954,0.0321 c -7.9884,0 -5.061,-4.7397 -5.061,-4.7397 -8.7662,0 -2.8498,-8.2603 -2.8498,-8.2603"
       id="path14" />
    <path
       fill="none"
       stroke="#000"
       stroke-linecap="round"
       stroke-linejoin="round"
       stroke-miterlimit="10"
       stroke-width="2"
       d="m 44.9413,45.5127 c 0,0 -8.353,8.1081 -9.1847,12.6615 l 9e-4,-0.0399 1.1954,0.0321 c 7.9884,0 5.0609,-4.7397 5.0609,-4.7397 8.7663,0 2.8499,-8.2603 2.8499,-8.2603"
       id="path16" />
    <path
       fill="none"
       stroke="#000"
       stroke-linecap="round"
       stroke-linejoin="round"
       stroke-miterlimit="10"
       stroke-width="2"
       d="m 44.1837,15.8194 c 2.6323,2.029 4.1215,5.5213 4.1007,8.3759 l -0.0026,5e-4 c -2.7022,2.0473 -6.7361,-4.9161 -6.7361,-4.9161 z"
       id="path18" />
    <path
       fill="none"
       stroke="#000"
       stroke-linecap="round"
       stroke-linejoin="round"
       stroke-miterlimit="10"
       stroke-width="2"
       d="m 28.6729,12.3492 c -1.1387,0.7329 -2.1947,1.5972 -3.1667,2.5476 0,0 -2.8375,2.382 -3.9208,4.0348 0,0 -1.687,-0.2843 -3.2671,-1.7638 0,0 -0.435,6.6434 7.5762,7.5773 0,0 2.8585,0.3058 6.1913,-2.5357"
       id="path20" />
    <path
       fill="none"
       stroke="#000"
       stroke-linecap="round"
       stroke-linejoin="round"
       stroke-miterlimit="10"
       stroke-width="2"
       d="m 41.8009,18.9963 c -0.0034,-0.463 -4.7091,5.3323 -15.3343,1.9899"
       id="path22" />
    <path
       fill="none"
       stroke="#000"
       stroke-linecap="round"
       stroke-linejoin="round"
       stroke-miterlimit="10"
       stroke-width="2"
       d="m 44.1837,15.8194 c 0,0 0.7576,-1.7372 -1.1344,-3.4702"
       id="path24" />
  </g>
</g></svg>