<svg xmlns="http://www.w3.org/2000/svg" width="24" height="24" viewBox="0 0 24 24"> <g transform="translate(2.444224371675732 0.0) scale(0.40506261432575835)">
  
  <g
     id="line"
     transform="translate(-12.007078,-8.0208)">
    <path
       fill="none"
       stroke="#000"
       stroke-linecap="round"
       stroke-linejoin="round"
       stroke-miterlimit="10"
       stroke-width="2"
       d="m 29.8763,66.2708 1.9375,-2.3125 2.75,-10.1875 -0.625,-11.5 c -3.5,-4 -1.4344,-8.6627 -1.4344,-8.6627 -9.875,-5.25 -12.0656,-16.3998 -12.0656,-16.3998 l -6.4404,0.9828 c -0.8827,0 -1.3296,-1.0629 -0.712,-1.6936 l 2.7773,-2.2892 1.1875,-1.6875 2.625,-0.625 -0.0625,-2.875"
       id="path2" />
    <path
       fill="none"
       stroke="#000"
       stroke-linecap="round"
       stroke-linejoin="round"
       stroke-miterlimit="10"
       stroke-width="2"
       d="m 37.0638,40.2708 c 0,0 -0.125,3 2.375,3.9375 l 3.3125,9.4375 1.75,10.1875 -1.3125,2.4375"
       id="path4" />
    <path
       fill="none"
       stroke="#000"
       stroke-linecap="round"
       stroke-linejoin="round"
       stroke-miterlimit="10"
       stroke-width="2"
       d="m 43.2557,43.3333 h 3.2456 c 0,0 3.0625,-0.5625 3.375,-3.9375"
       id="path6" />
    <path
       fill="none"
       stroke="#000"
       stroke-linecap="round"
       stroke-linejoin="round"
       stroke-miterlimit="10"
       stroke-width="2"
       d="m 49.1262,41.5646 c 0,0 0.9376,4.7688 6.3751,8.2063 l 0.8125,13.7895 -0.5,2.7105"
       id="path8" />
    <path
       fill="none"
       stroke="#000"
       stroke-linecap="round"
       stroke-linejoin="round"
       stroke-miterlimit="10"
       stroke-width="2"
       d="m 58.1888,47.4583 c -2.5713,-1.8248 -3.1337,-5.2183 -3.221,-7.2951 -0.0597,-1.419 -0.2781,-2.8221 -0.6805,-4.1841 l -0.0985,-0.3333 c -1.8959,-5.3999 -8.6641,-4.2096 -12,-5.5625 -2.549,-1.0338 -4.8135,-3.9259 -5.126,-3.9259 -8.0867,0 -14.1746,-12.301 -14.1746,-12.301"
       id="path10" />
  </g>
</g></svg>