<svg xmlns="http://www.w3.org/2000/svg" width="24" height="24" viewBox="0 0 24 24"> <g transform="translate(0.0 0.375) scale(0.375)">
  
  <g
     id="line"
     transform="translate(-4,-5)">
    <path
       fill="none"
       stroke="#000"
       stroke-linecap="round"
       stroke-linejoin="round"
       stroke-miterlimit="10"
       stroke-width="2"
       d="M 44,10 C 44,8.8955 43.1045,8 42,8 41.6221,8 41.2725,8.1113 40.9697,8.2935 40.9854,8.1968 41,8.1006 41,8 41,6.8955 40.1045,6 39,6 38.3994,6 37.8662,6.2705 37.5,6.6899 37.1338,6.2705 36.6006,6 36,6 35.3994,6 34.8662,6.2705 34.5,6.6899 34.1338,6.2705 33.6006,6 33,6 31.8955,6 31,6.8955 31,8 31,8.1006 31.0146,8.1968 31.0303,8.2935 30.7275,8.1113 30.3779,8 30,8 c -1.1045,0 -2,0.8955 -2,2 0,0.1006 0.0146,0.1968 0.0303,0.2935 C 27.7275,10.1113 27.3779,10 27,10 c -1.1045,0 -2,0.8955 -2,2 0,0.3779 0.1113,0.728 0.2939,1.0298 C 25.1963,13.0151 25.1006,13 25,13 c -1.1045,0 -2,0.8955 -2,2 0,0.3779 0.1113,0.728 0.2939,1.0298 C 23.1963,16.0151 23.1006,16 23,16 22.127,16 21.3926,16.563 21.1201,17.3428 20.7998,17.1265 20.415,17 20,17 c -1.1045,0 -2,0.8955 -2,2 0,0.3779 0.1113,0.728 0.2939,1.0298 C 18.1963,20.0151 18.1006,20 18,20 c -1.1045,0 -2,0.8955 -2,2 0,0.1006 0.0146,0.1968 0.0303,0.2935 C 15.7275,22.1113 15.3779,22 15,22 c -1.1045,0 -2,0.8955 -2,2 0,0.415 0.126,0.7998 0.3428,1.1191 C 12.5635,25.3926 12,26.127 12,27 c 0,0.1006 0.0146,0.1973 0.0303,0.293 C 11.7275,27.1113 11.3779,27 11,27 9.8955,27 9,27.8955 9,29 9,29.6006 9.2705,30.1328 9.6904,30.5 9.2705,30.8672 9,31.3994 9,32 9,32.3779 9.1113,32.7285 9.2939,33.0293 9.1963,33.0156 9.1006,33 9,33 c -1.1045,0 -2,0.8955 -2,2 0,0.4805 0.1807,0.9082 0.4639,1.25 -0.875,0.2139 -1.5264,0.9971 -1.5264,1.9375 0,0.5664 0.2373,1.0742 0.6152,1.4385 C 6.2119,39.9844 6,40.4668 6,41 c 0,0.5293 0.21,1.0078 0.5449,1.3652 -0.7871,0.2686 -1.3574,1.0059 -1.3574,1.8848 0,0.7715 0.4414,1.4326 1.0811,1.7666 C 6.1025,46.3086 6,46.6406 6,47 6,47.4902 6.1846,47.9326 6.4775,48.2803 5.7568,48.582 5.25,49.2949 5.25,50.125 c 0,0.9043 0.6045,1.6602 1.4287,1.9072 C 5.7285,52.1865 5,53.0059 5,54 5,54.6445 5.3096,55.2109 5.7842,55.5771 5.416,55.9395 5.1875,56.4434 5.1875,57 c 0,0.8184 0.4932,1.5195 1.1963,1.8301 C 6.1436,59.1572 6,59.5605 6,60 6,61.0723 6.8467,61.9414 7.9072,61.9902 7.7324,62.2881 7.625,62.6299 7.625,63 c 0,1.1045 0.8955,2 2,2 0.5537,0 1.0557,-0.2266 1.418,-0.5898 C 11.2314,65.3184 12.0361,66 13,66 13.417,66 13.8037,65.8711 14.125,65.6523 14.4463,65.8711 14.833,66 15.25,66 c 0.7393,0 1.3779,-0.4062 1.7236,-1.002 0.0098,0 0.0176,0.002 0.0264,0.002 0.415,0 0.7998,-0.127 1.1201,-0.3428"
       id="path2" />
    <path
       fill="none"
       stroke="#000"
       stroke-linecap="round"
       stroke-linejoin="round"
       stroke-miterlimit="10"
       stroke-width="2"
       d="m 28,10 c 0,-1.1045 0.8955,-2 2,-2 0.3779,0 0.7275,0.1113 1.0303,0.2935 C 31.0146,8.1968 31,8.1006 31,8 31,6.8955 31.8955,6 33,6 33.6006,6 34.1338,6.2705 34.5,6.6899 34.8662,6.2705 35.3994,6 36,6 36.6006,6 37.1338,6.2705 37.5,6.6899 37.8662,6.2705 38.3994,6 39,6 40.1045,6 41,6.8955 41,8 41,8.1006 40.9854,8.1968 40.9697,8.2935 41.2725,8.1113 41.6221,8 42,8 c 1.1045,0 2,0.8955 2,2 0,0.1006 -0.0146,0.1968 -0.0303,0.2935 C 44.2725,10.1113 44.6221,10 45,10 c 1.1045,0 2,0.8955 2,2 0,0.3779 -0.1113,0.728 -0.2939,1.0298 C 46.8037,13.0151 46.8994,13 47,13 c 1.1045,0 2,0.8955 2,2 0,0.3779 -0.1113,0.728 -0.2939,1.0298 C 48.8037,16.0151 48.8994,16 49,16 c 0.873,0 1.6074,0.563 1.8799,1.3428 C 51.2002,17.1265 51.585,17 52,17 c 1.1045,0 2,0.8955 2,2 0,0.3779 -0.1113,0.728 -0.2939,1.0298 C 53.8037,20.0151 53.8994,20 54,20 c 1.1045,0 2,0.8955 2,2 0,0.1006 -0.0146,0.1968 -0.0303,0.2935 C 56.2725,22.1113 56.6221,22 57,22 c 1.1045,0 2,0.8955 2,2 0,0.415 -0.126,0.7998 -0.3428,1.1191 C 59.4365,25.3926 60,26.127 60,27 60,27.1006 59.9854,27.1973 59.9697,27.293 60.2725,27.1113 60.6221,27 61,27 c 1.1045,0 2,0.8955 2,2 0,0.6006 -0.2705,1.1328 -0.6904,1.5 C 62.7295,30.8672 63,31.3994 63,32 63,32.3779 62.8887,32.7285 62.7061,33.0293 62.8037,33.0156 62.8994,33 63,33 c 1.1045,0 2,0.8955 2,2 0,0.4805 -0.1807,0.9082 -0.4639,1.25 0.875,0.2139 1.5264,0.9971 1.5264,1.9375 0,0.5664 -0.2373,1.0742 -0.6152,1.4385 C 65.7881,39.9844 66,40.4668 66,41 c 0,0.5293 -0.21,1.0078 -0.5449,1.3652 0.7871,0.2686 1.3574,1.0059 1.3574,1.8848 0,0.7715 -0.4414,1.4326 -1.0811,1.7666 C 65.8975,46.3086 66,46.6406 66,47 c 0,0.4902 -0.1846,0.9326 -0.4775,1.2803 0.7207,0.3017 1.2275,1.0146 1.2275,1.8447 0,0.9043 -0.6045,1.6602 -1.4287,1.9072 C 66.2715,52.1865 67,53.0059 67,54 c 0,0.6445 -0.3096,1.2109 -0.7842,1.5771 0.3682,0.3624 0.5967,0.8663 0.5967,1.4229 0,0.8184 -0.4932,1.5195 -1.1963,1.8301 C 65.8564,59.1572 66,59.5605 66,60 c 0,1.0723 -0.8467,1.9414 -1.9072,1.9902 0.1748,0.2979 0.2822,0.6397 0.2822,1.0098 0,1.1045 -0.8955,2 -2,2 -0.5537,0 -1.0557,-0.2266 -1.418,-0.5898 C 60.7686,65.3184 59.9639,66 59,66 58.583,66 58.1963,65.8711 57.875,65.6523 57.5537,65.8711 57.167,66 56.75,66 56.0107,66 55.3721,65.5938 55.0264,64.998 55.0166,64.998 55.0088,65 55,65 54.585,65 54.2002,64.873 53.8799,64.6572"
       id="path4" />
    <rect
       x="22"
       y="44"
       width="28"
       height="22"
       fill="none"
       stroke="#000"
       stroke-linecap="round"
       stroke-linejoin="round"
       stroke-miterlimit="10"
       stroke-width="2"
       id="rect6" />
  </g>
</g></svg>