<svg xmlns="http://www.w3.org/2000/svg" width="24" height="24" viewBox="0 0 24 24"> <g transform="translate(0.0 1.4231588295416753) scale(0.41556602274018833)">
  
  <g
     id="line"
     transform="translate(-6.9308,-10.08)">
    <circle
       cx="58.680801"
       cy="31.733299"
       r="2"
       id="circle2" />
    <path
       fill="none"
       stroke="#000"
       stroke-linecap="round"
       stroke-linejoin="round"
       stroke-width="2"
       d="m 7.9308,59.9833 v -3 c 0,-4.9941 5.0078,-9 10,-9 q 9,7.5 18,0 c 4.9941,0 10,4.0059 10,9 v 3"
       id="path4" />
    <path
       d="m 32.8038,29.9833 a 2,2 0 1 1 -2,-2 2,2 0 0 1 2,2"
       id="path6" />
    <path
       d="m 24.8038,29.9833 a 2,2 0 1 1 -2,-2 2,2 0 0 1 2,2"
       id="path8" />
    <path
       fill="none"
       stroke="#000"
       stroke-linecap="round"
       stroke-linejoin="round"
       stroke-width="2"
       d="m 23.9308,37.9833 a 6.5535,6.5535 0 0 0 6,0"
       id="path10" />
    <path
       fill="none"
       stroke="#000"
       stroke-linecap="round"
       stroke-linejoin="round"
       stroke-width="2"
       d="m 53.6808,31.7333 a 5.0351,5.0351 0 0 0 0.1006,1 l -15.8506,0.25 c 0,0 0.75,3.75 3.75,3.75 h 17 a 5,5 0 1 0 -5,-5 z"
       id="path12" />
    <path
       fill="none"
       stroke="#000"
       stroke-linecap="round"
       stroke-linejoin="round"
       stroke-width="2"
       d="M 57.8244,39.9335 A 5.0006,5.0006 0 1 1 49.6798,39.7323"
       id="path14" />
    <path
       fill="none"
       stroke="#000"
       stroke-linecap="round"
       stroke-linejoin="round"
       stroke-width="2"
       d="m 44.4093,26.7235 a 3.0643,3.0643 0 0 1 0.749,0.4434 3.2181,3.2181 0 0 1 0.2657,0.2378 l 2.5732,2.5747"
       id="path16" />
    <circle
       cx="53.680901"
       cy="42.7327"
       r="1.9995"
       id="circle18" />
    <path
       fill="none"
       stroke="#000"
       stroke-linecap="round"
       stroke-linejoin="round"
       stroke-width="2"
       d="m 9.6823,46.8046 c -3.7227,-5.8565 -0.628,-10.08 1.18,-14.7246 1.6357,-4.2 -0.209,-6.4512 1.291,-12.0342 1.4795,-5.5 7.2773,-8.9658 13.709,-8.9658 5.4,0 8,3 8,3 4.1689,0.374 9.0277,3.7029 9.9921,8.6858 0.4,2.2352 0.1331,6.1765 1.57,9.5969"
       id="path20" />
    <path
       fill="none"
       stroke="#000"
       stroke-linejoin="round"
       stroke-width="2"
       d="m 15.862,31.08 c 0,8 5,14 11,14 6,0 11,-6 11,-14 0,-5 -2,-8 -6,-12 -4,4 -16,9 -16,11 z"
       id="path22" />
    <path
       fill="none"
       stroke="#000"
       stroke-linecap="round"
       stroke-linejoin="round"
       stroke-width="2"
       d="m 53.3035,47.9833 a 11.5815,11.5815 0 0 1 -2.0211,4.1294"
       id="path24" />
  </g>
</g></svg>