<svg xmlns="http://www.w3.org/2000/svg" width="24" height="24" viewBox="0 0 24 24"> <g transform="translate(0.0 0.31416345508691634) scale(0.40483337994258756)">
  
  <g
     id="line"
     transform="translate(-4.7237,-4.7501001)">
    <path
       fill="none"
       stroke="#000"
       stroke-linecap="round"
       stroke-linejoin="round"
       stroke-width="2"
       d="m 5.7237,52.6959 c 0,0 2.2879,1.2392 8.77,2.6691 a 210.2877,210.2877 0 0 0 21.7346,3.05"
       id="path2" />
    <path
       fill="none"
       stroke="#000"
       stroke-linecap="round"
       stroke-linejoin="round"
       stroke-width="2"
       d="m 51.6711,47.7389 c 0,0 0.9536,-3.6755 2.86,-3.6755 a 2.1691,2.1691 0 0 1 1.2741,0.49 2.516,2.516 0 0 1 0.5977,2.6681"
       id="path4" />
    <path
       fill="none"
       stroke="#000"
       stroke-linecap="round"
       stroke-linejoin="round"
       stroke-width="2"
       d="m 50.5013,57.49 a 4.6978,4.6978 0 0 1 5.044,-0.7656"
       id="path6" />
    <path
       fill="none"
       stroke="#000"
       stroke-linecap="round"
       stroke-linejoin="round"
       stroke-width="2"
       d="m 58.4333,58.6594 c 0,0 3.1458,2.1926 4.1944,0.6673 0.572,-0.8579 0.858,-2.86 -2.0018,-3.7177"
       id="path8" />
    <path
       fill="none"
       stroke="#000"
       stroke-linecap="round"
       stroke-linejoin="round"
       stroke-width="2"
       d="m 32.6933,61.1256 a 13.6291,13.6291 0 0 0 9.1922,-1.0837 c 3.5271,-2.3832 5.9728,-8.49 14.5522,-9.4432"
       id="path10" />
    <circle
       cx="33.558899"
       cy="8.7501001"
       r="3"
       fill="none"
       stroke="#000"
       stroke-miterlimit="10"
       stroke-width="2"
       id="circle12" />
    <path
       fill="none"
       stroke="#000"
       stroke-linecap="round"
       stroke-linejoin="round"
       stroke-width="2"
       d="m 10.5851,21.0473 h 4.8617 a 18.6309,18.6309 0 0 0 8.5794,-2.3832 22.68,22.68 0 0 1 7.6262,-2.86 77.4464,77.4464 0 0 1 8.5794,-0.4766 13.6688,13.6688 0 0 1 7.6262,2.3831 30.1609,30.1609 0 0 0 6.1963,3.8131 c 1.8112,0.7626 3.3364,1.43 3.3364,1.43"
       id="path14" />
    <path
       fill="none"
       stroke="#000"
       stroke-linecap="round"
       stroke-linejoin="round"
       stroke-width="2"
       d="m 40.7661,20.0435 c 0,0 -1.052,7.93 -0.9934,10.03 a 21.2083,21.2083 0 0 0 0.5105,3.8426 92.3713,92.3713 0 0 1 0.5368,10.963 l -1.0976,8.5794 c -0.1722,1.0486 -0.8609,1.9065 -1.55,1.9065 -0.6891,0 -1.2914,-0.8579 -1.2914,-1.9065 v -8.5794 a 17.5053,17.5053 0 0 0 -0.43,-3.7178 L 35.59,37.2529 c -0.2583,-1.0486 -0.6027,-1.8112 -0.8609,-1.8112 -0.2582,0 -5.7956,5.4126 -6.3508,7.3163 -0.4,1.3737 -1.8725,7.8655 -1.8725,7.8655 -0.2574,0.9637 -0.9452,1.6186 -1.6916,1.469 -0.7637,-0.1526 -1.0038,-1.1935 -0.96,-2.1354 a 77.0643,77.0643 0 0 1 0.9909,-8.3344 c 0.65,-1.9294 4.6359,-8.0838 4.6359,-8.0838 a 15.2485,15.2485 0 0 0 1.6741,-3.7889 21.3952,21.3952 0 0 0 0.6465,-5.652 5.3294,5.3294 0 0 0 -0.8609,-2.86 5.107,5.107 0 0 0 -0.8609,-0.9532"
       id="path16" />
    <path
       fill="none"
       stroke="#000"
       stroke-linecap="round"
       stroke-linejoin="round"
       stroke-width="2"
       d="m 37.5121,7.7205 c 0,0 0.5967,-0.278 0.9542,0.0183 0.4208,0.3477 0.7069,1.6491 1.2044,2.2121 a 3.3631,3.3631 0 0 0 1.87,1.1052"
       id="path18" />
  </g>
</g></svg>