<svg xmlns="http://www.w3.org/2000/svg" width="24" height="24" viewBox="0 0 24 24"> <g transform="translate(4.724902 0.0) scale(0.36363636363636365)">
  
  <g
     id="line"
     transform="translate(-15.99026,-3)">
    <path
       fill="none"
       stroke="#000"
       stroke-linecap="round"
       stroke-linejoin="round"
       stroke-miterlimit="10"
       stroke-width="2"
       d="m 17.0033,68 c 0,-5.6246 -0.5417,-10.3318 8.1621,-11.6317 0.1915,2.5172 2.2717,3.5067 4.8379,3.5067 2.5662,0 4.6464,-0.9896 4.8379,-3.5067 8.7037,1.2999 8.4122,6.0071 8.4122,11.6317 z"
       id="path2" />
    <path
       fill="none"
       stroke="#000"
       stroke-linecap="round"
       stroke-linejoin="round"
       stroke-miterlimit="10"
       stroke-width="2"
       d="M 32.0033,6.8824 V 6 c 0,-1.1 -0.9,-2 -2,-2 v 0 c -1.1,0 -2,0.9 -2,2 v 0.8824"
       id="path4" />
    <path
       fill="none"
       stroke="#000"
       stroke-linecap="round"
       stroke-linejoin="round"
       stroke-miterlimit="10"
       stroke-width="2"
       d="m 28.0033,28.75 v 30.8832 c 0,0 1.8471,0.5469 4,0 V 28.75"
       id="path6" />
    <path
       fill="none"
       stroke="#000"
       stroke-linecap="round"
       stroke-linejoin="round"
       stroke-miterlimit="10"
       stroke-width="2"
       d="m 28.0045,24.7409 3.9988,-0.0017 21.0638,-4.9902 h -0.0013 c 1.0825,-0.3304 1.9375,-0.8674 1.9375,-1.9375 0,-1.0701 -0.9144,-1.6427 -1.9375,-1.9375 L 32.0033,10.8841 h -4 z"
       id="path8" />
  </g>
</g></svg>