<svg xmlns="http://www.w3.org/2000/svg" width="24" height="24" viewBox="0 0 24 24"> <g transform="translate(0.0 2.2472677112236052) scale(0.46003452022367336)">
  
  <g
     id="line"
     transform="translate(-9.8299999,-14.6)">
    <path
       fill="none"
       stroke="#000"
       stroke-linecap="round"
       stroke-linejoin="round"
       stroke-miterlimit="10"
       stroke-width="2"
       d="m 45.5,25.1 h -3.75 c 0,-3.18 -2.57,-5.75 -5.75,-5.75 -3.18,0 -5.75,2.57 -5.75,5.75 H 26.5 c 0,-5.25 4.25,-9.5 9.5,-9.5 5.25,0 9.5,4.25 9.5,9.5 z"
       id="path2" />
    <path
       fill="none"
       stroke="#000"
       stroke-linecap="round"
       stroke-linejoin="round"
       stroke-miterlimit="10"
       stroke-width="2"
       d="m 30.25,25.1 c 0,-3.18 2.57,-5.75 5.75,-5.75 3.18,0 5.75,2.57 5.75,5.75"
       id="path4" />
    <rect
       x="10.83"
       y="25.1"
       width="50.169998"
       height="30.9"
       fill="none"
       stroke="#000"
       stroke-linecap="round"
       stroke-linejoin="round"
       stroke-miterlimit="10"
       stroke-width="2"
       id="rect6" />
    <polyline
       fill="none"
       stroke="#000"
       stroke-linecap="round"
       stroke-linejoin="round"
       stroke-miterlimit="10"
       stroke-width="2"
       points="38.9194,36.7604 43.7943,36.7604 43.7943,43.3437 38.9188,43.3437 38.961,43.3021 38.961,48.1771 32.3776,48.1771 32.3776,43.3015"
       id="polyline8" />
    <polyline
       fill="none"
       stroke="#000"
       stroke-linecap="round"
       stroke-linejoin="round"
       stroke-miterlimit="10"
       stroke-width="2"
       points="32.3362,43.3437 27.5443,43.3437 27.5443,36.7604 32.336,36.7604 32.3776,36.7189 32.3776,31.9271 38.961,31.9271 38.961,36.7188"
       id="polyline10" />
  </g>
</g></svg>