<svg xmlns="http://www.w3.org/2000/svg" width="24" height="24" viewBox="0 0 24 24"> <g transform="translate(2.6180942400000013 0.0) scale(0.48)">
  
  <g
     id="line"
     transform="translate(-16.762661,-11)">
    <path
       fill="none"
       stroke="#000"
       stroke-linecap="round"
       stroke-linejoin="round"
       stroke-width="2"
       d="m 18,60 v -3.1 c 0,-5 3.8,-9 8.8,-9 6,5 12,5 18,0 5,0 9.2,4 9.2,9 V 60"
       id="path2" />
    <path
       d="m 42,31 c 0,1.1 -0.9,2 -2,2 -1.1,0 -2,-0.9 -2,-2 0,-1.1 0.9,-2 2,-2 1.1,0 2,0.9 2,2"
       id="path4" />
    <path
       d="m 34,31 c 0,1.1 -0.9,2 -2,2 -1.1,0 -2,-0.9 -2,-2 0,-1.1 0.9,-2 2,-2 1.1,0 2,0.9 2,2"
       id="path6" />
    <path
       fill="none"
       stroke="#000"
       stroke-linejoin="round"
       stroke-width="2"
       d="m 25,32 c 0,8 4.8,12.9 10.8,12.9 6,0 11.2,-4.9 11.2,-12.9 0,-4 -1,-6 -1,-6 -2,-2 -4,-4 -4,-4 0,0 -12,2 -16,4 0,0 -1,2 -1,6 z"
       id="path8" />
    <path
       fill="none"
       stroke="#000"
       stroke-linecap="round"
       stroke-linejoin="round"
       stroke-width="2"
       d="m 32.8,38.2 c 1.9,1 4.1,1 6,0"
       id="path10" />
    <path
       fill="none"
       stroke="#000"
       stroke-linecap="round"
       stroke-linejoin="round"
       stroke-width="2"
       d="m 20,46 c -4,-6 -1.8,-8.3 0.1,-13 1.6,-4.2 -0.2,-6.5 1.3,-12 1.5,-5.5 7.3,-9 13.7,-9 5.4,0 8,3 8,3 4.2,0.4 7.4,3.9 7.4,8 0.4,7.2 1,7.2 3.4,12.8 1.8,4.1 1,6.8 -1.9,10.1"
       id="path12" />
  </g>
</g></svg>