<svg xmlns="http://www.w3.org/2000/svg" width="24" height="24" viewBox="0 0 24 24"> <g transform="translate(3.107469616674395 0.0) scale(0.4152269752619706)">
  
  <g
     id="line"
     transform="translate(-14.4888,-6.46)">
    <polyline
       fill="none"
       stroke="#000"
       stroke-linecap="round"
       stroke-linejoin="round"
       stroke-width="2"
       points="39.632 55.881 47.057 56.419 41.501 47.603 45.013 47.757 40.217 40.501 43.237 40.332 36.397 30.97 29.826 40.547 32.907 40.171 27.566 47.757 31.293 47.603 25.737 56.419 32.34 55.605"
       id="polyline2" />
    <line
       x1="36.3969"
       x2="36.3969"
       y1="57.226398"
       y2="63.2201"
       fill="none"
       stroke="#000"
       stroke-linecap="round"
       stroke-miterlimit="10"
       stroke-width="2"
       id="line4" />
    <path
       fill="none"
       stroke="#000"
       stroke-linecap="round"
       stroke-linejoin="round"
       stroke-width="2"
       d="m 20.3488,55.8877 a 20.1948,20.1948 0 0 1 -4.86,-13.019 33.5825,33.5825 0 0 1 3.8988,-15.0907 c 0.4651,7.3054 3.9113,10.2468 5.6219,10.2468 1.2778,0 2.4529,-1.3022 2.4529,-3.4259 0.0885,-2.7421 0.1766,-7.1072 3.8443,-13.8946"
       id="path6" />
    <path
       fill="none"
       stroke="#000"
       stroke-linecap="round"
       stroke-linejoin="round"
       stroke-width="2"
       d="M 46.871,60.436 A 20.6379,20.6379 0 0 1 36.0595,63.256 20.288,20.288 0 0 1 25.7352,60.4307"
       id="path8" />
    <path
       fill="none"
       stroke="#000"
       stroke-linecap="round"
       stroke-linejoin="round"
       stroke-width="2"
       d="m 34.845,7.46 c 0,0 13.7792,9.5092 13.2485,25.2544 a 1.9324,1.9324 0 0 0 2.08,2.0345 5.14,5.14 0 0 0 3.9807,-2.6742 20.7208,20.7208 0 0 1 2.1614,9.6953 23.4673,23.4673 0 0 1 -3.7862,13.28"
       id="path10" />
  </g>
</g></svg>