<svg xmlns="http://www.w3.org/2000/svg" width="24" height="24" viewBox="0 0 24 24"> <g transform="translate(0.8584007829653615 0.0) scale(0.41136533869936565)">
  
  <g
     id="line"
     transform="translate(-9.7510512,-5.2837)">
    <path
       d="m 41.9642,27.0109 c 0,1.1045 -0.8965,2 -2,2 -1.1035,0 -2,-0.8955 -2,-2 0,-1.1035 0.8965,-2 2,-2 1.1035,0 2,0.8965 2,2"
       id="path2" />
    <path
       d="m 33.9642,27.0109 c 0,1.1045 -0.8965,2 -2,2 -1.1035,0 -2,-0.8955 -2,-2 0,-1.1035 0.8965,-2 2,-2 1.1035,0 2,0.8965 2,2"
       id="path4" />
    <path
       d="m 35.9641,37.0133 c -1.1519,0 -2.3037,-0.2861 -3.4473,-0.8579 -0.4941,-0.247 -0.6943,-0.8476 -0.4473,-1.3418 0.2466,-0.4936 0.8462,-0.6943 1.3418,-0.4472 1.7178,0.8593 3.3877,0.8593 5.1055,0 0.4946,-0.2471 1.0947,-0.0464 1.3418,0.4472 0.2471,0.4942 0.0469,1.0948 -0.4473,1.3418 -1.1435,0.5718 -2.2954,0.8579 -3.4472,0.8579 z"
       id="path6" />
    <path
       d="m 35.9639,43.5449 c -6.8028,0 -12.3379,-6.8066 -12.3379,-15.1733 0,-1.1133 0.0986,-2.2251 0.292,-3.3047 l 1.9687,0.3535 c -0.1728,0.9634 -0.2607,1.9561 -0.2607,2.9512 0,7.2641 4.6377,13.1733 10.3379,13.1733 5.7011,0 10.3388,-5.9092 10.3388,-13.1733 0,-0.8936 -0.0713,-1.7881 -0.2109,-2.6582 l 1.9746,-0.3174 c 0.1572,0.9746 0.2363,1.9761 0.2363,2.9756 0,8.3667 -5.5351,15.1733 -12.3388,15.1733 z"
       id="path8" />
    <path
       d="m 48.4951,19.6611 c -10e-4,0 -10e-4,0 -0.0019,0 L 22.833,19.6206 c -0.2305,-5e-4 -0.4541,-0.0806 -0.6328,-0.227 -0.1504,-0.1241 -0.9033,-0.7925 -0.8867,-1.7852 0.0029,-0.1841 0.0332,-0.4043 0.124,-0.6406 -0.5225,-0.4561 -1.082,-1.1133 -1.1699,-1.8814 -0.0674,-0.5957 0.1523,-1.1684 0.6201,-1.6123 1.0244,-0.9751 7.9111,-4.3369 14.8135,-5.0991 2.6396,-0.2896 9.1963,-0.5854 13.122,2.9575 0.335,0.2588 2.2598,1.8677 2.0235,3.6875 -0.0596,0.4585 -0.2744,1.0405 -0.8858,1.564 0.294,0.5083 0.5079,1.1406 0.3233,1.769 -0.1104,0.376 -0.4619,1.043 -1.5772,1.2852 -0.0693,0.0151 -0.1406,0.0229 -0.2119,0.0229 z m -25.1377,-2.0395 24.9131,0.039 c -0.1123,-0.205 -0.3144,-0.4736 -0.4824,-0.642 -0.2344,-0.2344 -0.3379,-0.5699 -0.2754,-0.8956 0.0625,-0.3256 0.2832,-0.5996 0.5879,-0.7304 0.2168,-0.0928 0.7246,-0.3404 0.7627,-0.6294 0.0654,-0.4976 -0.7442,-1.4404 -1.3281,-1.9024 -2.3594,-2.1254 -6.6788,-3.0429 -11.6153,-2.4975 -6.7558,0.7461 -13.0303,4.0381 -13.6455,4.5527 0.1094,0.2427 0.6113,0.7061 1.0694,0.9771 0.2861,0.1689 0.4697,0.4687 0.4892,0.8003 0.0205,0.3315 -0.126,0.6513 -0.3887,0.8535 -0.038,0.0288 -0.0664,0.0542 -0.0869,0.0747 z"
       id="path10" />
    <path
       d="m 35.8105,10.3691 c -0.5527,0 -1,-0.4477 -1,-1 V 6.2837 c 0,-0.5523 0.4473,-1 1,-1 0.5528,0 1,0.4477 1,1 v 3.0854 c 0,0.5523 -0.4472,1 -1,1 z"
       id="path12" />
    <path
       d="m 47.1563,26.5425 c -0.0821,5e-4 -0.1651,-0.0098 -0.2481,-0.0313 -7.4531,-1.9033 -11.5,-4.9697 -13.0898,-6.4218 -1.4082,1.4848 -4.71,4.6176 -8.834,6.1997 -0.5166,0.1997 -1.0948,-0.0606 -1.292,-0.5752 -0.1983,-0.5161 0.0596,-1.0943 0.5752,-1.292 4.9092,-1.8833 8.708,-6.3794 8.7461,-6.4248 0.1894,-0.2266 0.4697,-0.3579 0.7656,-0.3584 0,0 10e-4,0 0.002,0 0.2949,0 0.5742,0.1294 0.7646,0.355 0.0332,0.0395 3.7148,4.2446 12.8564,6.58 0.5352,0.1367 0.8584,0.6812 0.7217,1.2163 -0.1152,0.4522 -0.5224,0.7525 -0.9677,0.7525 z"
       id="path14" />
    <path
       fill="none"
       stroke="#000"
       stroke-linecap="round"
       stroke-linejoin="round"
       stroke-miterlimit="10"
       stroke-width="2"
       d="m 42.2303,50.7124 c 0.12,-0.06 0.23,-0.12 0.33,-0.19 0.4,-0.27 0.71,-0.61 0.93,-1.01 0.21,-0.37 0.34,-0.78 0.37,-1.2 0.06,-0.54 -0.04,-1.1 -0.3,-1.62 l -0.3,-0.77"
       id="path16" />
    <path
       fill="none"
       stroke="#000"
       stroke-linecap="round"
       stroke-linejoin="round"
       stroke-miterlimit="10"
       stroke-width="2"
       d="m 42.2303,50.7124 c -0.27,0.14 -0.56,0.23 -0.85,0.27 -0.19,0.04 -0.39,0.06 -0.58,0.04 -1.06,-0.02 -2.08,-0.62 -2.6,-1.64 l -0.48,-1.09"
       id="path18" />
    <path
       fill="none"
       stroke="#000"
       stroke-linecap="round"
       stroke-linejoin="round"
       stroke-miterlimit="10"
       stroke-width="2"
       d="m 50.9303,46.4524 c -1.45,-0.97 -3.4,-1.59 -6.03,-1.59 -0.56,0.37 -1.1,0.72 -1.64,1.05 -1.9,1.17 -3.69,2.03 -5.54,2.37 -0.56,0.11 -1.12,0.16 -1.69,0.17 h -0.13 c -3.02,-0.03 -5.72,-1.49 -8.87,-3.59"
       id="path20" />
    <path
       fill="none"
       stroke="#000"
       stroke-linecap="round"
       stroke-linejoin="round"
       stroke-miterlimit="10"
       stroke-width="2"
       d="m 42.6503,50.6724 0.56,0.44 c 2.87,3.06 0.43,6.44 0.43,6.44 0,0 -3.56,-1.91 -2.45,-5.91 l 0.19,-0.64"
       id="path22" />
    <path
       fill="none"
       stroke="#000"
       stroke-linecap="round"
       stroke-linejoin="round"
       stroke-miterlimit="10"
       stroke-width="2"
       d="m 27.0303,44.8624 c 0,0 0.34,9.97 13.75,6.5"
       id="path24" />
    <path
       fill="none"
       stroke="#000"
       stroke-linecap="round"
       stroke-linejoin="round"
       stroke-miterlimit="10"
       stroke-width="2"
       d="m 43.4703,49.4724 0.02,0.04 0.34,0.59 c 2.28,3.89 6.18,3.07 6.18,3.07 0,0 -0.61,-3.96 -5.1,-4.71 l -1.04,-0.15"
       id="path26" />
    <path
       d="m 25.6602,63.626 c -3.4844,0 -7.1836,-1.0977 -10.0147,-3.2539 0,-0.001 0,-0.001 -10e-4,-0.001 C 15.165,60.0039 14.71,59.6191 14.293,59.2275 14.0059,58.9561 13.7324,58.6807 13.4746,58.3994 10.2344,54.873 9.0078,50.2041 10.1953,45.9111 c 0.6123,-2.2158 2.0586,-4.0634 4.0723,-5.2021 2.0488,-1.1592 4.4297,-1.4463 6.7109,-0.8135 l 0.3106,0.084 c 2.1884,0.5791 7.8691,2.082 9.2412,11.2441 2.0898,-0.2578 4.1474,0.4961 5.2636,2.0069 1.1954,1.6181 1.0997,3.7011 -0.2626,5.7158 -0.4776,0.706 -1.1133,1.4082 -1.8907,2.084 -1.9951,1.7402 -4.9043,2.5957 -7.9804,2.5957 z m -8.8018,-4.8457 c 4.5566,3.4717 11.9297,3.8271 15.4687,0.7422 0.6465,-0.5625 1.167,-1.1329 1.5479,-1.6963 0.8711,-1.2891 0.9814,-2.4991 0.3096,-3.4073 -0.8135,-1.1005 -2.5869,-1.5351 -4.2178,-1.039 -0.2861,0.0879 -0.5967,0.043 -0.8438,-0.1221 -0.249,-0.165 -0.4111,-0.4326 -0.4423,-0.7295 -0.9239,-8.7685 -5.8145,-10.0625 -7.9034,-10.6152 l -0.3349,-0.0899 c -1.7647,-0.4912 -3.6074,-0.2685 -5.1895,0.626 -1.5488,0.876 -2.6601,2.2949 -3.1299,3.9951 -1.0019,3.6231 0.0538,7.587 2.8243,10.6016 0.2265,0.2461 0.4648,0.4883 0.7168,0.7256 0.3662,0.3447 0.7685,0.6846 1.1943,1.0088 z"
       id="path28" />
    <path
       fill="none"
       stroke="#000"
       stroke-linecap="round"
       stroke-linejoin="round"
       stroke-miterlimit="10"
       stroke-width="2"
       d="m 58.0847,39.9127 -0.4802,-0.8989 c -1.9641,-5.4658 3.7037,-7.2124 3.7037,-7.2124 0,0 3.9546,4.359 -0.4411,8.0562 l -0.7299,0.5859"
       id="path30" />
    <path
       fill="none"
       stroke="#000"
       stroke-linecap="round"
       stroke-linejoin="round"
       stroke-miterlimit="10"
       stroke-width="2"
       d="m 60.275,44.1046 -3.8708,14.9676 c -0.2929,1.1327 -1.4505,1.8146 -2.5832,1.5217 -0.5615,-0.1452 -1.0243,-0.5128 -1.297,-0.9758 -0.2728,-0.4631 -0.3699,-1.0459 -0.2247,-1.6075 L 56.17,43.043"
       id="path32" />
    <polygon
       fill="none"
       stroke="#000"
       stroke-linecap="round"
       stroke-linejoin="round"
       stroke-miterlimit="10"
       stroke-width="2"
       points="60.1372,40.4435 58.0847,39.9127 57.0488,39.6448 56.17,43.043 60.275,44.1046 61.1538,40.7064 "
       id="polygon34" />
    <path
       d="m 23.0615,37.9814 h -2.1806 c -1.3116,0 -1.9864,-0.6748 -2.3213,-1.2402 -2.2168,-3.7441 4.3486,-16.1182 5.6875,-18.5605 0.1748,-0.3199 0.5097,-0.5186 0.874,-0.5196 l 8.6572,-0.0229 c 10e-4,0 0.002,0 0.003,0 0.5507,0 0.998,0.4458 1,0.9975 9e-4,0.5523 -0.4454,1.001 -0.9971,1.0025 l -8.0645,0.0215 c -3.0449,5.6684 -6.6084,14.0883 -5.4394,16.062 0.0576,0.0976 0.1543,0.2597 0.6006,0.2597 h 2.1806 c 0.5518,0 1,0.4473 1,1 0,0.5528 -0.4482,1 -1,1 z"
       id="path36" />
    <path
       d="m 50.374,37.9814 h -1.789 c -0.5528,0 -1,-0.4472 -1,-1 0,-0.5527 0.4472,-1 1,-1 h 1.789 c 0.4356,0 0.5664,-0.1523 0.6543,-0.2949 1.2324,-2.0068 -1.957,-10.3828 -4.75,-16.0268 l -8.042,-0.0215 c -0.5517,-0.0015 -0.998,-0.4502 -0.997,-1.0025 0.0019,-0.5517 0.4492,-0.9975 1,-0.9975 9e-4,0 0.0019,0 0.0029,0 l 8.6572,0.0229 c 0.376,10e-4 0.7197,0.2129 0.8897,0.5484 1.2314,2.4326 7.2578,14.7573 4.9423,18.5239 -0.3496,0.5693 -1.0429,1.248 -2.3574,1.248 z"
       id="path38" />
  </g>
</g></svg>