<svg xmlns="http://www.w3.org/2000/svg" width="24" height="24" viewBox="0 0 24 24"> <g transform="translate(0.0 2.965099392000001) scale(0.384)">
  
  <g
     id="line"
     transform="translate(-4.5,-8.9985558)">
    <polygon
       fill="none"
       stroke="#000"
       stroke-linecap="round"
       stroke-linejoin="round"
       stroke-miterlimit="10"
       stroke-width="2"
       points="31.7431,27.5176 35.6068,26.4824 36.2569,31.4845 33.6811,32.1747 "
       id="polygon2" />
    <polygon
       fill="none"
       stroke="#000"
       stroke-linecap="round"
       stroke-linejoin="round"
       stroke-miterlimit="10"
       stroke-width="2"
       points="32.5142,31.8682 37.4382,31 37.4858,36.0687 34.2031,36.6476 "
       id="polygon4" />
    <path
       fill="none"
       stroke="#000"
       stroke-linecap="round"
       stroke-linejoin="round"
       stroke-miterlimit="10"
       stroke-width="2"
       d="m 5.5,55 c 1.7419,-2.0295 4.3382,-4.4262 7,-4 2.888,0.4624 3.3025,3.4841 6,4 3.091,0.5912 4.9469,-3.523 9,-4 3.6107,-0.4249 4.0565,2.411 6.6667,3.5456 1.0297,0.4476 1.9472,0.4525 2.3333,0.4544 3.6617,0.0176 4.9951,-3.5954 8,-4 2.4333,-0.3277 2.9312,2.3143 6,3 2.8949,0.6469 5.0464,-2.5774 8.5,-3 1.7847,-0.2184 5,1 7,4"
       id="path6" />
    <path
       fill="none"
       stroke="#000"
       stroke-linecap="round"
       stroke-linejoin="round"
       stroke-miterlimit="10"
       stroke-width="2"
       d="M 41.5261,44.2521 C 42.3521,44.1075 43,44 44,44 c 5,0 9.4682,3.7024 11,6"
       id="path8" />
    <path
       fill="none"
       stroke="#000"
       stroke-linecap="round"
       stroke-linejoin="round"
       stroke-miterlimit="10"
       stroke-width="2"
       d="m 18,51 c 1.4819,-2.9639 4.8769,-6 9,-6 0.8491,0 2.2262,0 3.6883,0"
       id="path10" />
    <path
       fill="none"
       stroke="#000"
       stroke-linecap="round"
       stroke-linejoin="round"
       stroke-miterlimit="10"
       stroke-width="2"
       d="m 14,33 c -0.0579,-1.3706 0.0318,-4.3499 2,-7 3.0097,-4.0524 8.4449,-4.686 12,-4 1.2881,0.2486 2.3112,0.6668 3,1"
       id="path12" />
    <polygon
       fill="none"
       stroke="#000"
       stroke-linecap="round"
       stroke-linejoin="round"
       stroke-miterlimit="10"
       stroke-width="2"
       points="33.0114,36.5229 38.9886,36 38.4282,41.0681 34.4434,41.4168 "
       id="polygon14" />
    <path
       fill="none"
       stroke="#000"
       stroke-linecap="round"
       stroke-linejoin="round"
       stroke-miterlimit="10"
       stroke-width="2"
       d="m 35,20 c 0.426,-1.0177 1.5345,-3.27 4,-5 3.1271,-2.1943 6.4318,-2.0601 8,-2 3.3939,0.13 5.8763,1.4067 7,2 1.3118,0.6926 2.3149,1.4347 3,2"
       id="path16" />
    <path
       fill="none"
       stroke="#000"
       stroke-linecap="round"
       stroke-linejoin="round"
       stroke-miterlimit="10"
       stroke-width="2"
       d="m 32.1196,20.097 c -1.2964,-0.8621 -3.4264,-2.0067 -6.256,-2.4212 -1.2909,-0.1891 -5.6496,-0.6543 -9.8613,1.9381 -1.2756,0.7852 -2.1981,1.6419 -2.7981,2.2738"
       id="path18" />
    <path
       fill="none"
       stroke="#000"
       stroke-linecap="round"
       stroke-linejoin="round"
       stroke-miterlimit="10"
       stroke-width="2"
       d="m 44,11 c -0.7129,-0.3879 -2.1404,-1.036 -4,-1 -0.7209,0.0139 -4.1718,0.1831 -6,3 -1.0579,1.63 -1.0448,3.3162 -1,4"
       id="path20" />
    <path
       fill="none"
       stroke="#000"
       stroke-linecap="round"
       stroke-linejoin="round"
       stroke-miterlimit="10"
       stroke-width="2"
       d="m 35,23 c 0.9188,-0.4244 2.7032,-1.0984 5,-1 3.876,0.1661 6.3812,2.4109 7,3 1.9421,1.8488 2.7013,3.9494 3,5"
       id="path22" />
    <path
       fill="none"
       stroke="#000"
       stroke-linecap="round"
       stroke-linejoin="round"
       stroke-miterlimit="10"
       stroke-width="2"
       d="M 28.955,28.0291 C 28.832,27.5268 28.5771,26.7699 28.0149,26.0002 27.687,25.5514 27.3398,25.2148 27.045,24.9709"
       id="path24" />
    <path
       fill="none"
       stroke="#000"
       stroke-linecap="round"
       stroke-linejoin="round"
       stroke-miterlimit="10"
       stroke-width="2"
       d="M 25.1464,28.8913 C 24.9589,28.4095 24.6074,27.6922 23.9495,27.0026 23.5659,26.6004 23.1777,26.312 22.8536,26.1087"
       id="path26" />
    <path
       fill="none"
       stroke="#000"
       stroke-linecap="round"
       stroke-linejoin="round"
       stroke-miterlimit="10"
       stroke-width="2"
       d="m 22.2254,30.8223 c -0.2152,-0.4702 -0.6079,-1.1657 -1.3048,-1.816 -0.4064,-0.3791 -0.8107,-0.6444 -1.146,-0.8286"
       id="path28" />
    <path
       fill="none"
       stroke="#000"
       stroke-linecap="round"
       stroke-linejoin="round"
       stroke-miterlimit="10"
       stroke-width="2"
       d="M 20.1829,33.8604 C 19.9827,33.3837 19.6123,32.676 18.9363,32.0041 18.5421,31.6122 18.1464,31.3343 17.8171,31.1396"
       id="path30" />
    <path
       fill="none"
       stroke="#000"
       stroke-linecap="round"
       stroke-linejoin="round"
       stroke-miterlimit="10"
       stroke-width="2"
       d="m 42.8452,19.4397 c 9e-4,-0.5171 0.0699,-1.3128 0.4345,-2.1935 0.2126,-0.5135 0.4705,-0.9226 0.6993,-1.2292"
       id="path32" />
    <path
       fill="none"
       stroke="#000"
       stroke-linecap="round"
       stroke-linejoin="round"
       stroke-miterlimit="10"
       stroke-width="2"
       d="m 46.7497,19.3783 c 0.0684,-0.5125 0.2406,-1.2925 0.717,-2.118 0.2779,-0.4814 0.587,-0.8533 0.8539,-1.1274"
       id="path34" />
    <path
       fill="none"
       stroke="#000"
       stroke-linecap="round"
       stroke-linejoin="round"
       stroke-miterlimit="10"
       stroke-width="2"
       d="m 50.044,20.5649 c 0.0981,-0.5077 0.3154,-1.2763 0.8391,-2.0726 0.3054,-0.4644 0.6356,-0.8177 0.918,-1.0758"
       id="path36" />
    <path
       fill="none"
       stroke="#000"
       stroke-linecap="round"
       stroke-linejoin="round"
       stroke-miterlimit="10"
       stroke-width="2"
       d="m 52.7461,23.0349 c 0.082,-0.5105 0.2749,-1.2856 0.773,-2.0982 0.2906,-0.4738 0.6094,-0.8374 0.8835,-1.1043"
       id="path38" />
    <polygon
       fill="none"
       stroke="#000"
       stroke-linecap="round"
       stroke-linejoin="round"
       stroke-miterlimit="10"
       stroke-width="2"
       points="32.9945,41.157 38.9945,41.157 37.9945,46.157 33.9945,46.157 "
       id="polygon40" />
    <path
       fill="none"
       stroke="#000"
       stroke-linecap="round"
       stroke-linejoin="round"
       stroke-miterlimit="10"
       stroke-width="2"
       d="m 39.0087,27.0625 c 0.3036,-0.4185 0.8256,-1.0231 1.637,-1.5233 0.4731,-0.2917 0.9217,-0.4722 1.2868,-0.5866"
       id="path42" />
    <path
       fill="none"
       stroke="#000"
       stroke-linecap="round"
       stroke-linejoin="round"
       stroke-miterlimit="10"
       stroke-width="2"
       d="m 42.2092,29.2998 c 0.3557,-0.3753 0.9521,-0.9066 1.8218,-1.2966 0.5071,-0.2274 0.9755,-0.3478 1.3524,-0.4136"
       id="path44" />
    <path
       fill="none"
       stroke="#000"
       stroke-linecap="round"
       stroke-linejoin="round"
       stroke-miterlimit="10"
       stroke-width="2"
       d="m 44.1841,32.1912 c 0.3769,-0.354 1.0033,-0.8496 1.8942,-1.1884 0.5195,-0.1975 0.9941,-0.2904 1.3741,-0.3341"
       id="path46" />
  </g>
</g></svg>