<svg xmlns="http://www.w3.org/2000/svg" width="24" height="24" viewBox="0 0 24 24"> <g transform="translate(2.5930261261172447 0.0) scale(0.4165007027061023)">
  
  <g
     id="line"
     transform="translate(-8.9974984,-7.1877471)">
    <path
       fill="none"
       stroke="#000"
       stroke-linecap="round"
       stroke-linejoin="round"
       stroke-width="2"
       d="m 20.64,60.0652 c 1.2884,-1.3774 3.5553,-3.5778 4.8055,-4.9144 -1.4427,0.8793 -4.1755,3.3446 -5.5714,4.23 A 45.6473,45.6473 0 0 1 14.4241,54.646 23.46,23.46 0 0 0 23.4049,50.5272 29.5494,29.5494 0 0 1 13.398,53.4086 47.5786,47.5786 0 0 1 9.9974,48 c 7.0976,1.93 14.8154,-0.9125 19.5793,-5.8747 1.2319,0.7119 2.8134,1.5783 4.1044,2.23 a 3.1808,3.1808 0 0 1 1.605,1.8949 c 1.7331,4.63 0.7225,8.7115 -2.4132,12.38 -1.3121,1.5349 -3.2687,3.8825 -4.9969,4.923 a 33.7009,33.7009 0 0 1 -7.236,-3.488 z"
       id="path2" />
    <path
       fill="none"
       stroke="#000"
       stroke-miterlimit="10"
       stroke-width="2"
       d="m 36.2569,39.36 -2.5721,-1.4886 c 0.6788,-1.1846 1.3362,-2.3389 2,-3.4893 q 7.2,-12.4714 14.4018,-24.9414 c 0.0981,-0.17 0.1933,-0.3422 0.301,-0.5062 a 1.4859,1.4859 0 0 1 2.5647,1.5012 c -0.8034,1.44 -1.6407,2.8612 -2.4651,4.2894 Q 44.1716,25.667 37.8549,36.6079 c -0.5189,0.8986 -1.0419,1.7948 -1.598,2.7521 z"
       id="path4" />
    <path
       fill="none"
       stroke="#000"
       stroke-miterlimit="10"
       stroke-width="2"
       d="m 35.0265,44.4193 -5.0817,-2.935 c 0.5308,-0.9114 1.0138,-1.8065 1.5637,-2.6585 a 0.9245,0.9245 0 0 1 1.3,-0.3156 q 1.7,0.9372 3.3618,1.9418 a 0.9313,0.9313 0 0 1 0.3741,1.2874 c -0.4628,0.9021 -0.9962,1.768 -1.5179,2.6799 z"
       id="path6" />
    <circle
       cx="32.929798"
       cy="63.4133"
       r="1.3974"
       id="circle8" />
    <circle
       cx="36.1469"
       cy="59.380699"
       r="1.1756001"
       id="circle10" />
    <circle
       cx="36.1469"
       cy="62.357101"
       r="0.93409997"
       id="circle12" />
    <rect
       x="10"
       y="18.4632"
       width="18.226801"
       height="8.3318996"
       fill="none"
       stroke="#000"
       stroke-linecap="round"
       stroke-linejoin="round"
       stroke-width="2"
       id="rect14" />
    <polyline
       fill="none"
       stroke="#000"
       stroke-linecap="round"
       stroke-linejoin="round"
       stroke-width="2"
       points="11.785 18.463 19.094 10.823 26.372 18.463"
       id="polyline16" />
    <circle
       cx="19.1134"
       cy="13.9693"
       r="1.0474"
       id="circle18" />
  </g>
</g></svg>