<svg xmlns="http://www.w3.org/2000/svg" width="24" height="24" viewBox="0 0 24 24"> <g transform="translate(0.0 5.146755199999999) scale(0.4)">
  
  <g
     id="line"
     transform="translate(-6,-21.9999)">
    <path
       fill="none"
       stroke="#000"
       stroke-linecap="round"
       stroke-linejoin="round"
       stroke-miterlimit="10"
       stroke-width="2"
       d="M 48,49 V 26 c 0,-1.6569 -1.3431,-3 -3,-3 v 0 c -1.6569,0 -3,1.3431 -3,3 v 23"
       id="path2" />
    <path
       fill="none"
       stroke="#000"
       stroke-linecap="round"
       stroke-linejoin="round"
       stroke-miterlimit="10"
       stroke-width="2"
       d="m 41,35 c -1.1046,0 -2,-0.8954 -2,-2 v -2 c 0,-1.1046 -0.8954,-2 -2,-2 v 0 c -1.1046,0 -2,0.8954 -2,2 v 2 c 0,3.3137 2.6863,6 6,6"
       id="path4" />
    <path
       fill="none"
       stroke="#000"
       stroke-linecap="round"
       stroke-linejoin="round"
       stroke-miterlimit="10"
       stroke-width="2"
       d="m 49,39 c 1.1046,0 2,-0.8954 2,-2 v -5 c 0,-1.1046 0.8954,-2 2,-2 v 0 c 1.1046,0 2,0.8954 2,2 v 5 c 0,3.3137 -2.6863,6 -6,6"
       id="path6" />
    <path
       fill="none"
       stroke="#000"
       stroke-linecap="round"
       stroke-linejoin="round"
       stroke-miterlimit="10"
       stroke-width="2"
       d="m 65,53 c -1,0 -5.1773,-0.8355 -6,-1 -5,-1 -9.1501,-1.1937 -15,1 -8,3 -8.9429,2.2591 -10,2 -2.1584,-0.5291 -5.1975,-3.8697 -9,-5 -4.706,-1.3989 -6.1016,-1.111 -9,-1 -1.8477,0.0708 -5.1262,0.5229 -9,3"
       id="path8" />
    <path
       fill="none"
       stroke="#000"
       stroke-linecap="round"
       stroke-linejoin="round"
       stroke-miterlimit="10"
       stroke-width="2"
       d="m 7,40 c 0.5259,-1.0198 1.7275,-2.9672 4,-4 2.6096,-1.1859 3,-2 6,-4 4.7461,-3.164 6.792,-9.0278 11,-9 1.7205,0.0114 4,3 5,6"
       id="path10" />
    <path
       fill="none"
       stroke="#000"
       stroke-linecap="round"
       stroke-linejoin="round"
       stroke-miterlimit="10"
       stroke-width="2"
       d="m 65,39 c 0,0 -3,0 -6,1 -0.8645,0.2882 -2,0 -2,0"
       id="path12" />
  </g>
</g></svg>