<svg xmlns="http://www.w3.org/2000/svg" width="24" height="24" viewBox="0 0 24 24"> <g transform="translate(0.00014131224854452284 0.0) scale(0.4694759087850562)">
  
  <g
     id="line"
     transform="translate(-10.439867,-10.439298)">
    <path
       fill="none"
       stroke="#000"
       stroke-linecap="round"
       stroke-linejoin="round"
       stroke-miterlimit="10"
       stroke-width="2"
       d="m 20.3223,48.1426 -3.7676,3.7676 c -1.1719,-1.1719 -3.0723,-1.1719 -4.2432,0 -1.1709,1.1718 -1.1709,3.0703 10e-4,4.2421 0.7383,0.7393 1.7656,1.0098 2.7188,0.8165 -0.1934,0.9531 0.0771,1.9804 0.8164,2.7187 1.1718,1.1719 3.0703,1.1719 4.2421,10e-4 1.1719,-1.1709 1.1719,-3.0713 0,-4.2432 l 3.7676,-3.7666"
       id="path2" />
    <path
       fill="none"
       stroke="#000"
       stroke-linecap="round"
       stroke-linejoin="round"
       stroke-miterlimit="10"
       stroke-width="2"
       d="m 20.3223,48.1426 c 0.789,0.4629 1.625,0.8164 2.4882,1.0469 0.2305,0.8632 0.584,1.6992 1.0469,2.4892"
       id="path4" />
    <path
       fill="none"
       stroke="#000"
       stroke-linecap="round"
       stroke-linejoin="round"
       stroke-miterlimit="10"
       stroke-width="2"
       d="m 51.6777,23.8569 3.7676,-3.7675 c 1.1719,1.1718 3.0703,1.1718 4.2422,0 1.1719,-1.1709 1.1719,-3.0704 0,-4.2422 -0.7383,-0.7383 -1.7656,-1.0098 -2.7187,-0.8164 0.1933,-0.9532 -0.0782,-1.9805 -0.8165,-2.7188 -1.1718,-1.1719 -3.0722,-1.1719 -4.2441,0 -1.1699,1.1709 -1.1719,3.0703 0,4.2422 l -3.7656,3.7676"
       id="path6" />
    <path
       fill="none"
       stroke="#000"
       stroke-linecap="round"
       stroke-linejoin="round"
       stroke-miterlimit="10"
       stroke-width="2"
       d="m 48.1426,20.3218 c -0.418,-0.7129 -0.9258,-1.3887 -1.5371,-2 -3.9043,-3.9053 -10.2354,-3.9043 -14.1407,0 -0.9316,0.9316 -1.6347,2.0039 -2.121,3.1445 -0.4073,0.9541 -0.5098,1.9844 -0.7637,2.9746 -0.6133,2.3965 -2.6319,4.5059 -5.0196,5.1343 -1.1074,0.291 -2.2646,0.3906 -3.3251,0.876 -1.0538,0.4824 -2.045,1.1455 -2.9131,2.0136 -3.9053,3.9053 -3.9063,10.2364 0,14.1426 0.6113,0.6114 1.2871,1.1182 2,1.5352"
       id="path8" />
    <path
       fill="none"
       stroke="#000"
       stroke-linecap="round"
       stroke-linejoin="round"
       stroke-miterlimit="10"
       stroke-width="2"
       d="M 51.6777,23.8569 C 50.8887,23.394 50.0508,23.0415 49.1875,22.811 48.957,21.9468 48.6055,21.1108 48.1426,20.3218"
       id="path10" />
    <path
       fill="none"
       stroke="#000"
       stroke-linecap="round"
       stroke-linejoin="round"
       stroke-miterlimit="10"
       stroke-width="2"
       d="m 51.6777,23.8569 c 0.7129,0.418 1.3868,0.9239 2,1.5362 3.9043,3.9057 3.9043,10.2378 -0.0019,14.1421 -0.9317,0.9316 -2.002,1.6347 -3.1445,2.1211 -0.9532,0.4082 -1.9825,0.5097 -2.9727,0.7636 -2.3955,0.6133 -4.5059,2.6309 -5.1338,5.0196 -0.291,1.1074 -0.3906,2.2656 -0.876,3.3261 -0.4824,1.0537 -1.1455,2.0449 -2.0136,2.9121 -3.9053,3.9053 -10.2364,3.9063 -14.1426,0 -0.6113,-0.6113 -1.1172,-1.2871 -1.5352,-1.999"
       id="path12" />
  </g>
</g></svg>