<svg xmlns="http://www.w3.org/2000/svg" width="24" height="24" viewBox="0 0 24 24"> <g transform="translate(1.6851731268314527 0.0) scale(0.3863442876856074)">
  
  <g
     id="line"
     transform="translate(-10.00011,-4.8792405)">
    <path
       fill="none"
       stroke="#000"
       stroke-linecap="round"
       stroke-linejoin="round"
       stroke-width="2"
       d="m 22.87,30 c -0.01,0 -0.02,-0.02 -0.02,-0.02 A 4.3973,4.3973 0 0 1 22.33,29.62 C 22.32,29.61 22.31,29.61 22.3,29.6 a 6.0978,6.0978 0 0 1 -1.83,-2.6 5.9978,5.9978 0 0 1 3.16,-7.51 3.9769,3.9769 0 0 1 6.76,-2.13 5.015,5.015 0 0 1 2.72,-2.41 4.9237,4.9237 0 0 1 3.28,-0.02 4.9749,4.9749 0 0 1 7.3,-5.21 7.9429,7.9429 0 0 1 2.83,-1.77 7.846,7.846 0 0 1 2.67,-0.48 5.88,5.88 0 0 1 2.03,-1.23 6.0027,6.0027 0 0 1 7.69,3.58 c 0.06,0.17 0.11,0.34 0.16,0.52 a 3.5285,3.5285 0 0 1 0.56,0.14 3.9477,3.9477 0 0 1 2.53,2.42 4.0017,4.0017 0 0 1 -2.39,5.12 3.9424,3.9424 0 0 1 -2.91,-0.08 7.9818,7.9818 0 0 1 -9.79,5.21 4.96,4.96 0 0 1 -8.71,2.36 4.9417,4.9417 0 0 1 -6.82,1.99 5.9139,5.9139 0 0 1 -2.06,2.41"
       id="path2" />
    <path
       fill="none"
       stroke="#000"
       stroke-linecap="round"
       stroke-linejoin="round"
       stroke-width="2"
       d="m 44.1969,66 c -5,-6.1714 -8,-26.7429 -5,-36 H 16 c 3,9.2571 0,29.8286 -5,36 z"
       id="path4" />
    <polyline
       fill="none"
       stroke="#000"
       stroke-linecap="round"
       stroke-linejoin="round"
       stroke-width="2"
       points="53 66 57 66 57 27 51 27 51 49.721"
       id="polyline6" />
    <path
       fill="none"
       stroke="#000"
       stroke-linecap="round"
       stroke-linejoin="round"
       stroke-width="2"
       d="M 44.197,66 H 53 V 55 A 7.9993,7.9993 0 0 0 38.8134,49.9292"
       id="path8" />
  </g>
</g></svg>