<svg xmlns="http://www.w3.org/2000/svg" width="24" height="24" viewBox="0 0 24 24"> <g transform="translate(1.0013620319481245 0.0) scale(0.4073569617796991)">
  
  <g
     id="line"
     transform="translate(-9,-5.0836146)">
    <path
       fill="none"
       stroke="#000"
       stroke-linecap="round"
       stroke-linejoin="round"
       stroke-miterlimit="10"
       stroke-width="2"
       d="m 55.1059,33.4851 c 0,0 -9.2757,-9.2767 -13.2519,6.6249 10.6021,7.9513 13.2519,-6.6249 13.2519,-6.6249 z"
       id="path2" />
    <line
       x1="62"
       x2="52.639999"
       y1="53.9235"
       y2="48.723499"
       fill="none"
       stroke="#000"
       stroke-linecap="round"
       stroke-linejoin="round"
       stroke-miterlimit="10"
       stroke-width="2"
       id="line4" />
    <line
       x1="57.84"
       x2="48.48"
       y1="59.123501"
       y2="53.9235"
       fill="none"
       stroke="#000"
       stroke-linecap="round"
       stroke-linejoin="round"
       stroke-miterlimit="10"
       stroke-width="2"
       id="line6" />
    <path
       fill="none"
       stroke="#000"
       stroke-linecap="round"
       stroke-linejoin="round"
       stroke-miterlimit="10"
       stroke-width="2"
       d="M 13.2916,47.7952 C 12.1744,45.0297 11.56,42.0082 11.56,38.8435 l 3.64,-32.76 10.9799,10.7149 c 2.858,-1.2066 6.0013,-1.8749 9.3001,-1.8749 h 1.04 c 3.2988,0 6.4421,0.6683 9.3001,1.8749 L 56.8,6.0835 l 3.64,32.76 c 0,3.1647 -0.6144,6.1862 -1.7316,8.9517"
       id="path8" />
    <path
       fill="none"
       stroke="#000"
       stroke-linecap="round"
       stroke-linejoin="round"
       stroke-miterlimit="10"
       stroke-width="2"
       d="M 27.004,61.4549 C 29.6388,62.4535 32.4956,63 35.4802,63 h 1.04 c 4.6465,0 8.9852,-1.3243 12.6547,-3.6176"
       id="path10" />
    <path
       fill="none"
       stroke="#000"
       stroke-linecap="round"
       stroke-linejoin="round"
       stroke-miterlimit="10"
       stroke-width="2"
       d="m 16.8941,33.4851 c 0,0 9.2757,-9.2767 13.2519,6.6249 -10.6021,7.9513 -13.2519,-6.6249 -13.2519,-6.6249 z"
       id="path12" />
    <line
       x1="10"
       x2="18.7195"
       y1="53.9235"
       y2="49.0793"
       fill="none"
       stroke="#000"
       stroke-linecap="round"
       stroke-linejoin="round"
       stroke-miterlimit="10"
       stroke-width="2"
       id="line14" />
    <line
       x1="16.01"
       x2="14.16"
       y1="58.0909"
       y2="59.120899"
       fill="none"
       stroke="#000"
       stroke-linecap="round"
       stroke-linejoin="round"
       stroke-miterlimit="10"
       stroke-width="2"
       id="line16" />
    <circle
       cx="23.52"
       cy="36.2435"
       r="2.0799999"
       id="circle18" />
    <circle
       cx="48.48"
       cy="36.2435"
       r="2.0799999"
       id="circle20" />
    <path
       d="m 24.8268,59.473 c -1.0428,1.0428 -2.4302,1.6172 -3.9068,1.6173 -1.4765,0 -2.864,-0.5746 -3.9082,-1.6187 -1.0428,-1.0428 -1.6173,-2.4302 -1.6159,-3.9053 0,-4.8605 4.5933,-9.5084 4.7887,-9.7038 0.4065,-0.4064 1.0643,-0.4064 1.4708,0 0.1953,0.1953 4.7887,4.8432 4.7886,9.7037 v 0 c 0.0015,1.4751 -0.573,2.8627 -1.6172,3.9068 z M 20.92,48.152 c -1.1993,1.4205 -3.4442,4.4727 -3.4442,7.4143 -0.0014,0.9206 0.3576,1.7853 1.0068,2.4345 0.6507,0.6507 1.5153,1.0097 2.4375,1.0098 1.8413,-10e-5 3.4457,-1.6044 3.4443,-3.4443 v 0 C 24.3643,52.6247 22.1193,49.5726 20.92,48.152 Z"
       id="path22" />
    <line
       x1="40.16"
       x2="36"
       y1="52.080002"
       y2="46.880001"
       fill="none"
       stroke="#000"
       stroke-linecap="round"
       stroke-linejoin="round"
       stroke-miterlimit="10"
       stroke-width="2"
       id="line24" />
    <line
       x1="31.84"
       x2="36"
       y1="52.080002"
       y2="46.880001"
       fill="none"
       stroke="#000"
       stroke-linecap="round"
       stroke-linejoin="round"
       stroke-miterlimit="10"
       stroke-width="2"
       id="line26" />
    <line
       x1="31.84"
       x2="40.16"
       y1="46.880001"
       y2="46.880001"
       fill="none"
       stroke="#000"
       stroke-linecap="round"
       stroke-linejoin="round"
       stroke-miterlimit="10"
       stroke-width="2"
       id="line28" />
  </g>
</g></svg>