<svg xmlns="http://www.w3.org/2000/svg" width="24" height="24" viewBox="0 0 24 24"> <g transform="translate(3.555258306321795 0.0) scale(0.41232650782349173)">
  
  <g
     id="line"
     transform="translate(-15.516203,-6.9274)">
    <path
       fill="none"
       stroke="#000"
       stroke-linecap="round"
       stroke-linejoin="round"
       stroke-miterlimit="10"
       stroke-width="2"
       d="m 16.5208,37.2567 v -12 -0.8735 c 0,-9.0883 7.3675,-16.4558 16.4558,-16.4558 9.0883,0 16.4558,7.3675 16.4558,16.4558"
       id="path2" />
    <path
       fill="none"
       stroke="#000"
       stroke-linecap="round"
       stroke-linejoin="round"
       stroke-miterlimit="10"
       stroke-width="2"
       d="m 23.5131,37.5501 c -0.081,1.9313 -1.7123,3.4313 -3.6436,3.3502 -1.9313,-0.0811 -3.4313,-1.7123 -3.3502,-3.6436"
       id="path4" />
    <path
       fill="none"
       stroke="#000"
       stroke-linecap="round"
       stroke-linejoin="round"
       stroke-miterlimit="10"
       stroke-width="2"
       d="m 30.51,37.7831 c -0.081,1.9313 -1.7123,3.4313 -3.6436,3.3502 -1.9313,-0.0811 -3.4313,-1.7123 -3.3502,-3.6436"
       id="path6" />
    <path
       fill="none"
       stroke="#000"
       stroke-linecap="round"
       stroke-linejoin="round"
       stroke-miterlimit="10"
       stroke-width="2"
       d="M 30.506,37.9169 C 30.351,39.8437 28.6634,41.28 26.7366,41.125 24.8098,40.97 23.3735,39.2824 23.5285,37.3556"
       id="path8" />
    <path
       fill="none"
       stroke="#000"
       stroke-linecap="round"
       stroke-linejoin="round"
       stroke-miterlimit="10"
       stroke-width="2"
       d="m 37.5476,38.2613 c -0.1237,1.929 -1.7878,3.3925 -3.7168,3.2688 -1.929,-0.1237 -3.3925,-1.7878 -3.2688,-3.7168"
       id="path10" />
    <path
       fill="none"
       stroke="#000"
       stroke-linecap="round"
       stroke-linejoin="round"
       stroke-miterlimit="10"
       stroke-width="2"
       d="m 54.5014,36.0377 c 1.3429,1.3904 1.3044,3.6061 -0.086,4.949 -1.3904,1.3429 -3.6061,1.3044 -4.949,-0.086"
       id="path12" />
    <path
       fill="none"
       stroke="#000"
       stroke-linecap="round"
       stroke-linejoin="round"
       stroke-miterlimit="10"
       stroke-width="2"
       d="m 44.5476,60.6337 c 0,1.933 -1.567,3.5 -3.5,3.5 -1.933,0 -3.5,-1.567 -3.5,-3.5"
       id="path14" />
    <line
       x1="37.5476"
       x2="37.5476"
       y1="38.298401"
       y2="60.633701"
       fill="none"
       stroke="#000"
       stroke-linecap="round"
       stroke-linejoin="round"
       stroke-miterlimit="10"
       stroke-width="2"
       id="line16" />
    <line
       x1="44.5476"
       x2="44.5476"
       y1="60.633701"
       y2="32.842999"
       fill="none"
       stroke="#000"
       stroke-linecap="round"
       stroke-linejoin="round"
       stroke-miterlimit="10"
       stroke-width="2"
       id="line18" />
    <line
       x1="47.5084"
       x2="49.4664"
       y1="38.687"
       y2="40.900799"
       fill="none"
       stroke="#000"
       stroke-linecap="round"
       stroke-linejoin="round"
       stroke-miterlimit="10"
       stroke-width="2"
       id="line20" />
    <path
       fill="none"
       stroke="#000"
       stroke-linecap="round"
       stroke-linejoin="round"
       stroke-miterlimit="10"
       stroke-width="2"
       d="M 52.7337,33.718 C 50.7811,31.5741 49.3603,28.5503 49.4324,24.1962"
       id="path22" />
    <line
       x1="54.5014"
       x2="52.68"
       y1="36.037701"
       y2="33.657501"
       fill="none"
       stroke="#000"
       stroke-linecap="round"
       stroke-linejoin="round"
       stroke-miterlimit="10"
       stroke-width="2"
       id="line24" />
  </g>
</g></svg>