<svg xmlns="http://www.w3.org/2000/svg" width="24" height="24" viewBox="0 0 24 24"> <g transform="translate(2.393996491555029 0.0) scale(0.43526393806716474)">
  
  <g
     id="line"
     transform="translate(-14.731558,-7.5939427)">
    <path
       fill="none"
       stroke="#000"
       stroke-linecap="round"
       stroke-linejoin="round"
       stroke-width="1.6"
       d="m 29.2905,42.6607 c 0,0 7.5113,-10.0817 16.2839,0.0268"
       id="path2" />
    <g
       id="g8">
      <path
         fill="none"
         stroke="#000"
         stroke-linecap="round"
         stroke-linejoin="round"
         stroke-width="2"
         d="m 26.1405,35.3177 c 1.046,6.5885 5.7366,11.56 11.37,11.56 5.6334,0 10.3239,-4.972 11.37,-11.5606"
         id="path4" />
      <path
         fill="none"
         stroke="#000"
         stroke-linecap="round"
         stroke-linejoin="round"
         stroke-width="2"
         d="m 48.4772,27.9284 c -1.554,-5.6522 -5.8715,-9.7244 -10.9669,-9.7244 -5.0954,0 -9.4129,4.0722 -10.9669,9.7244"
         id="path6" />
    </g>
    <path
       fill="none"
       stroke="#000"
       stroke-linecap="round"
       stroke-linejoin="round"
       stroke-width="1.6438"
       d="m 27.4429,48.9029 a 9.459,9.459 0 0 0 -9.458,9.6571 v 3.351"
       id="path10" />
    <path
       fill="none"
       stroke="#000"
       stroke-linecap="round"
       stroke-linejoin="round"
       stroke-width="1.6438"
       d="M 56.6131,61.911 V 58.56 A 9.796,9.796 0 0 0 46.757,48.9029"
       id="path12" />
    <path
       fill="none"
       stroke="#000"
       stroke-linecap="round"
       stroke-linejoin="round"
       stroke-width="2"
       d="m 57.3717,32.654 c -1.1146,-1.227 -0.1538,-1.991 0.3925,-2.7954 a 0.6286,0.6286 0 0 0 -0.0141,-0.7235 4.0621,4.0621 0 0 1 -0.8484,-1.4712 c -0.15,-0.75 -0.31,-1.11 -1.14,-1.21 -1.04,-0.12 -1.2,-0.68 -0.6,-1.52 0.17,-0.23 0.36,-0.44 0.63,-0.76 -1.47,-1.45 -3.2,-2.72 -2.52,-5.08 a 10.307,10.307 0 0 1 -1.52,-0.1 1.3375,1.3375 0 0 1 -0.35,-0.1 0.5607,0.5607 0 0 1 -0.15,-0.1 C 51.06,18.619 51.1253,18.319 51.3433,17.8245 a 0.6321,0.6321 0 0 0 -0.0879,-0.6291 c -0.3852,-0.5056 -0.6945,-0.9235 -1.0037,-1.3415 -0.14,-0.19 -0.32,-0.56 -0.43,-0.54 -1.38,0.24 -1.28,-0.69 -1.39,-1.58 -0.1,-0.77 -0.35,-1.39 -1.44,-0.91 -1.5,0.66 -2.28,0.36 -2.98,-1.16 a 1.66,1.66 0 0 0 -1.93,-0.89 c -1.43,0.59 -1.57,-0.16 -1.68,-1.2 a 7.2571,7.2571 0 0 0 -0.26,-0.98 c -0.21,0.11 -0.43,0.21 -0.64,0.3 -0.21,0.09 -0.42,0.18 -0.62,0.27 a 3.941,3.941 0 0 0 -0.54,0.29 1.83,1.83 0 0 0 -0.41,0.37 1.9072,1.9072 0 0 1 -0.72,0.63 c -0.56,0.25 -1.07,-0.08 -1.6,-0.48 -0.06,-0.04 -0.11,-0.09 -0.17,-0.13 a 5.0742,5.0742 0 0 1 -0.72,-0.9 c -0.14,0.13 -0.27,0.19 -0.32,0.3 -0.83,1.77 -0.82,1.75 -2.89,1.52 -0.36,-0.04 -1.02,0.16 -1.11,0.4 -0.51,1.45 -1.63,1.55 -2.78,1.42 a 1.9613,1.9613 0 0 0 -0.34,0.8 c -0.02,0.11 -0.05,0.23 -0.07,0.34 -0.02,0.05 -0.03,0.11 -0.05,0.16 a 1.0113,1.0113 0 0 1 -0.13,0.3 1.0475,1.0475 0 0 1 -1.05,0.47 6.3732,6.3732 0 0 0 -2.23,0.91 3.8579,3.8579 0 0 0 -1.21,0.91 c -0.34,0.39 -0.95,0.94 -0.86,1.27 0.5394,2.0463 -0.9974,3.0112 -1.9872,4.2706 a 0.619,0.619 0 0 0 -0.073,0.6157 c 0.2118,0.5088 0.2586,0.7493 -0.06,0.9338 a 1.5349,1.5349 0 0 1 -0.18,0.09 10.78,10.78 0 0 1 -1.47,0.37 c 0.44,1.02 0.65,1.5 0.4,1.82 a 0.6368,0.6368 0 0 1 -0.15,0.13 1.9444,1.9444 0 0 1 -0.21,0.12 1.4844,1.4844 0 0 1 -0.28,0.11 2.5947,2.5947 0 0 1 -0.36,0.11 c -0.13,0.04 -0.27,0.08 -0.43,0.12 -0.16,0.05 -0.6212,0.0065 -0.51,0.14 a 9.4863,9.4863 0 0 1 0.74,0.67 c 0.6,0.65 0.95,1.39 0.29,2.1 -1.13,1.2 0.46,2.48 -0.48,3.5 0.87,0.89 -0.05,1.48 -0.38,2.15 a 10.0308,10.0308 0 0 1 -0.81,1.19 2.0512,2.0512 0 0 1 0.65,0.46 c 0.6724,0.7037 0.1832,1.5786 -0.01,2.424 a 0.6237,0.6237 0 0 0 0.5331,0.7629 c 0.79,0.0951 1.4765,0.295 0.8765,1.583 a 1.0489,1.0489 0 0 1 0.4462,1.6551 0.6213,0.6213 0 0 0 0.4967,0.915 2.2276,2.2276 0 0 1 2.296,1.726 0.6364,0.6364 0 0 0 0.52,0.3992 c 0.5434,0.0554 1.0726,0.0465 1.2825,0.3048 a 25.4277,25.4277 0 0 1 1.85,2.95 c 0.22,-0.16 0.51,-0.57 0.82,-0.58 0.7,-0.02 1.63,-0.08 2.06,0.31 a 3.2251,3.2251 0 0 0 0.99,0.63 2.999,2.999 0 0 0 0.58,0.18 2.0456,2.0456 0 0 0 1.63,-0.23 3.5955,3.5955 0 0 1 0.4,-0.23 c 0.57,-0.23 0.9,0.1 1.08,0.82 0.04,0.16 0.07,0.33 0.11,0.5 l 0.09,0.48 h 0.01 a 2.4631,2.4631 0 0 0 0.27,0.04 c 0.17,0.02 0.32,0.05 0.46,0.07 h 0.01 a 3.575,3.575 0 0 0 2.48,-0.35 c 0.24,-0.1 0.5,-0.22 0.82,-0.37 a 8.4562,8.4562 0 0 1 0.99,-0.39 7.9382,7.9382 0 0 1 0.8426,-0.2127 c 0.0624,-0.0116 0.1255,-0.0282 0.1874,-0.0373 0.02,0 0.04,-0.01 0.06,-0.01 a 1.4623,1.4623 0 0 1 0.86,0.49 4.2337,4.2337 0 0 1 0.54,0.98 c 0.82,-0.04 1.71,0.24 2.04,-0.87 0.04,-0.13 0.45,-0.21 0.69,-0.22 0.75,-0.03 1.5,-0.01 2.24,-0.01 -0.04,-0.1 -0.09,-0.19 -0.14,-0.29 0.45,-0.35 0.89,-0.99 1.35,-1.01 0.36,-0.01 0.72,-0.02 1.06,-0.03 a 5.0235,5.0235 0 0 0 1.25,-0.18 2.7268,2.7268 0 0 0 0.47,-0.19 3.5711,3.5711 0 0 0 0.44,-0.28 1.7712,1.7712 0 0 0 0.2,-0.19 2.55,2.55 0 0 0 0.39,-0.46 0.5289,0.5289 0 0 1 0.1,-0.11 1.5257,1.5257 0 0 1 0.28,-0.19 3.7478,3.7478 0 0 1 0.5,-0.21 3.3154,3.3154 0 0 0 0.33,-0.14 c 0.16,-0.08 0.43,-0.1 0.47,-0.22 0.6,-1.56 1.45,-2.72 3.38,-2.52 0.24,0.02 0.5,-0.19 0.73,-0.28 -0.36,-0.78 -1.07,-1.6 -0.89,-2.1 a 16.6424,16.6424 0 0 1 1.9208,-3.2272 0.6025,0.6025 0 0 0 0.0827,-0.1908 c 0.0621,-0.26 0.1536,-0.6547 0.2065,-1.0421 a 1.1813,1.1813 0 0 0 -0.01,-0.46 0.2981,0.2981 0 0 0 -0.04,-0.1 l -0.02,-0.02 c -0.49,-0.56 -0.31,-0.96 0.16,-1.43 0.2,-0.2 0.29,-0.86 0.15,-0.98 -0.8109,-0.71 -0.6508,-1.2999 0.0692,-1.8499 z m -29.61,-8.34"
       id="path14" />
    <g
       id="g20">
      <path
         fill="none"
         stroke="#000"
         stroke-linecap="round"
         stroke-linejoin="round"
         stroke-width="2"
         d="m 37.5729,32.31 c -3.498,0.1944 -1.0649,4.6633 -5.7,4.6965 -5.0527,0.0361 -6.3806,-1.0689 -6.8341,-5.409 -0.5385,-5.1543 6.8625,-5.4738 6.8625,-5.4738 h 5.6721"
         id="path16" />
      <path
         fill="none"
         stroke="#000"
         stroke-linecap="round"
         stroke-linejoin="round"
         stroke-width="2"
         d="m 37.4477,32.31 c 3.498,0.1944 1.0649,4.6633 5.7005,4.6965 5.0527,0.0361 6.3806,-1.0689 6.8341,-5.409 0.5385,-5.1543 -6.8625,-5.4738 -6.8625,-5.4738 h -5.6721"
         id="path18" />
    </g>
  </g>
</g></svg>