<svg xmlns="http://www.w3.org/2000/svg" width="24" height="24" viewBox="0 0 24 24"> <g transform="translate(0.0 0.37584356509967876) scale(0.4166364388250373)">
  
  <g
     id="line"
     transform="translate(-6.8979111,-12)">
    <path
       fill="none"
       stroke="#000"
       stroke-linecap="round"
       stroke-linejoin="round"
       stroke-width="2"
       d="M 56.2,47 C 58,43.6 59,39.8 59,36 59,23.3 48.7,13 36,13 23.3,13 13,23.3 13,36 c 0,3.7 0.9,7.4 2.7,10.7 0,0.1 0,0.1 0.1,0.2"
       id="path2" />
    <path
       fill="none"
       stroke="#000"
       stroke-linecap="round"
       stroke-linejoin="round"
       stroke-width="2"
       d="m 29.6,58.1 c 2.1,0.6 4.2,0.9 6.4,0.9 2.1,0 4.2,-0.3 6.2,-0.8"
       id="path4" />
    <path
       fill="none"
       stroke="#000"
       stroke-linecap="round"
       stroke-linejoin="round"
       stroke-width="2"
       d="m 45.8,45.2 c -5.7,4.7 -13.9,4.7 -19.6,0"
       id="path6" />
    <path
       fill="none"
       stroke="#000"
       stroke-linecap="round"
       stroke-miterlimit="10"
       stroke-width="2"
       d="m 31.7,33.4 c -1,-2.4 -3.8,-3.5 -6.2,-2.4 -1.1,0.5 -1.9,1.3 -2.4,2.4"
       id="path8" />
    <path
       fill="none"
       stroke="#000"
       stroke-linecap="round"
       stroke-miterlimit="10"
       stroke-width="2"
       d="m 48.9,33.4 c -1,-2.4 -3.8,-3.5 -6.2,-2.4 -1.1,0.5 -1.9,1.3 -2.4,2.4"
       id="path10" />
    <path
       fill="none"
       stroke="#000"
       stroke-linecap="round"
       stroke-linejoin="round"
       stroke-width="2"
       d="m 28.3,61.7 c -0.8965,-0.7643 -1.554,-1.366 -1.8,-2.4 -0.2426,-2.983 -1.549,-5.769 -2.8,-8.1 -0.3,-0.5 -0.9,-2 -1.5,-2.2 -0.9,-0.3 -1.5,0 -1.7,1.1 -0.2,1.1 0.6,3.3 0.8,3.9 -2.357,-1.253 -4.571,-2.707 -6.4,-4.1 -1.2,-0.7 -2.2,-0.4 -2.7,0.4 -0.2,0.3 -0.2,0.5 -0.3,0.7 -1.5,-1.1 -2.6,-0.7 -3.1,0 -0.5,0.6 -0.5,1.5 -0.1,2.1 -0.2,0.1 -0.4,0.3 -0.5,0.5 -0.6,1 -0.3,2.3 0.7,2.9 0.2,0.1 0.5,0.4 0.9,0.6 -0.1,0.1 -0.2,0.1 -0.2,0.2 -0.5,0.6 -0.5,1.6 0,2.2 1.6,2.8 9,4.9 11.5,5.5 l 1.8,1.8"
       id="path12" />
    <path
       fill="none"
       stroke="#000"
       stroke-linecap="round"
       stroke-linejoin="round"
       stroke-width="2"
       d="M 48.6,66.8 50.4,65 c 2.5,-0.6 9.9,-2.8 11.5,-5.5 0.5,-0.6 0.5,-1.6 -0.1,-2.1 -0.1,-0.1 -0.1,-0.2 -0.2,-0.2 0.5,-0.3 0.8,-0.6 0.9,-0.6 1,-0.6 1.3,-1.9 0.7,-2.9 -0.1,-0.2 -0.3,-0.4 -0.5,-0.5 0.4,-0.6 0.4,-1.5 -0.1,-2.1 -0.5,-0.6 -1.6,-1.1 -3.1,0 0,-0.3 -0.1,-0.6 -0.3,-0.7 -0.5,-0.7 -1.4,-1.1 -2.7,-0.4 0,0 -0.1,0 -0.1,0.1 -1.9,1.6 -4.1,2.9 -6.3,4 0.5026,-1.286 1.69,-5.814 -0.6,-5.1 -0.6,0.2 -1.2,1.7 -1.5,2.2 -1.738,2.511 -2.258,5.218 -2.8,8.1 0.03102,1.077 -1.076,1.676 -1.8,2.4"
       id="path14" />
  </g>
</g></svg>