<svg xmlns="http://www.w3.org/2000/svg" width="24" height="24" viewBox="0 0 24 24"> <g transform="translate(3.3103448275862064 0.0) scale(0.41379310344827586)">
  
  <g
     id="line-supplement"
     transform="translate(-15,-7)">
    <path
       fill="#000"
       d="M 55.9999,35.9585 C 56.0349,51.4217 47.1089,63.9768 36.063,64 25.0171,64.0231 16.0341,51.5057 16.0001,36.0415 15.9651,20.5783 24.8911,8.0232 35.937,8.00003 46.9829,7.97686 55.9659,20.4943 55.9999,35.9585 Z"
       id="path2" />
  </g>
  <g
     id="line"
     transform="translate(-15,-7)">
    <path
       fill="none"
       stroke="#000"
       stroke-width="2"
       d="M 56,36 C 56,51.4637 47.046,64 36,64 24.954,64 16,51.4637 16,36 16,20.5363 24.954,8 36,8 47.046,8 56,20.5363 56,36 Z"
       id="path5" />
  </g>
</g></svg>