<svg xmlns="http://www.w3.org/2000/svg" width="24" height="24" viewBox="0 0 24 24"> <g transform="translate(0.969743794266499 0.0) scale(0.41781274297878307)">
  
  <g
     id="line"
     transform="translate(-9.6,-7.278)">
    <path
       fill="none"
       stroke="#000"
       stroke-linecap="round"
       stroke-linejoin="round"
       stroke-miterlimit="10"
       stroke-width="2"
       d="m 25.98,8.278 c 0,0 -14.61,29.22 9.296,33.2"
       id="path2" />
    <path
       fill="none"
       stroke="#000"
       stroke-linecap="round"
       stroke-linejoin="round"
       stroke-miterlimit="10"
       stroke-width="2"
       d="M 36.61,41.48 C 63.17,37.496 47.23,8.28 47.23,8.28"
       id="path4" />
    <path
       fill="none"
       stroke="#000"
       stroke-linecap="round"
       stroke-linejoin="round"
       stroke-miterlimit="10"
       stroke-width="2"
       d="m 61.4,21.34 c 0,0 -3.541,22.13 -23.46,19.81"
       id="path6" />
    <path
       fill="none"
       stroke="#000"
       stroke-linecap="round"
       stroke-linejoin="round"
       stroke-miterlimit="10"
       stroke-width="2"
       d="m 10.6,21.45 c 0,0 5.201,21.36 23.57,20.03"
       id="path8" />
    <path
       fill="none"
       stroke="#000"
       stroke-linecap="round"
       stroke-linejoin="round"
       stroke-miterlimit="10"
       stroke-width="2"
       d="m 33.29,41.48 c 0,0 -12.62,9.668 -5.976,18.59"
       id="path10" />
    <path
       fill="none"
       stroke="#000"
       stroke-linecap="round"
       stroke-linejoin="round"
       stroke-miterlimit="10"
       stroke-width="2"
       d="m 31.3,40.7 c 0,0 -18.59,7.415 -13.28,22.02"
       id="path12" />
    <path
       fill="none"
       stroke="#000"
       stroke-linecap="round"
       stroke-linejoin="round"
       stroke-miterlimit="10"
       stroke-width="2"
       d="m 38.93,41.04 c 0,0 13.61,8.411 6.972,19.03"
       id="path14" />
    <path
       fill="none"
       stroke="#000"
       stroke-linecap="round"
       stroke-linejoin="round"
       stroke-miterlimit="10"
       stroke-width="2"
       d="m 42.03,40.92 c 0,0 18.7,7.857 12.62,22.8"
       id="path16" />
    <ellipse
       cx="35.939999"
       cy="30.190001"
       rx="8.632"
       ry="11.29"
       fill="none"
       stroke="#000"
       stroke-linecap="round"
       stroke-linejoin="round"
       stroke-miterlimit="10"
       stroke-width="2"
       id="ellipse18" />
    <circle
       cx="35.939999"
       cy="46.130001"
       r="4.6479998"
       fill="none"
       stroke="#000"
       stroke-linecap="round"
       stroke-linejoin="round"
       stroke-miterlimit="10"
       stroke-width="2"
       id="circle20" />
  </g>
</g></svg>