<svg xmlns="http://www.w3.org/2000/svg" width="24" height="24" viewBox="0 0 24 24"> <g transform="translate(0.0 0.15123335237630897) scale(0.4733297519363575)">
  
  <g
     id="line"
     transform="translate(-10.623942,-10.92711)">
    <path
       fill="none"
       stroke="#000"
       stroke-linecap="round"
       stroke-linejoin="round"
       stroke-width="2"
       d="m 59.3817,20.1784 a 14.0723,14.0723 0 0 0 0.2861,-3.153 c -0.2129,-3.6418 -2.8083,-5.6666 -6.3528,-4.9621 -5.0126,1.1263 -8.5724,5.3478 -11.8889,8.9653 -1.7863,2.3186 -3.6149,4.4943 -5.37,6.4761 a 1.774,1.774 0 0 0 -0.8312,-0.213 1.7918,1.7918 0 0 0 -1.4982,2.7783 c -3.8474,4.1362 -6.983,7.0326 -7.9256,7.8849 a 1.7781,1.7781 0 0 0 -2.4172,2.1169 c -3.0591,2.6638 -6.0539,5.2525 -8.971,7.918 a 8.9163,8.9163 0 0 0 -2.5578,4.6512 5.7534,5.7534 0 0 0 3.8075,7.1076 6.2525,6.2525 0 0 0 3.2625,0.0534 c 4.9681,-1.1362 10.5263,-4.7363 15.7778,-9.0908 A 1.7886,1.7886 0 0 0 37.28,48.4974 c 0.9511,-0.8459 1.8851,-1.7076 2.7989,-2.5752 a 1.7742,1.7742 0 0 0 0.8587,0.228 1.7947,1.7947 0 0 0 1.7947,-1.7945 1.7727,1.7727 0 0 0 -0.2053,-0.8165 c 3.2693,-3.2648 6.1616,-6.4663 8.3707,-9.0259 1.3274,-1.6954 2.763,-3.4441 4.0835,-5.2739 a 1.7865,1.7865 0 0 0 1.951,-2.957 23.9246,23.9246 0 0 0 1.3989,-2.7547 1.784,1.784 0 0 0 1.05,-3.3493 z"
       id="path2" />
  </g>
</g></svg>