<svg xmlns="http://www.w3.org/2000/svg" width="24" height="24" viewBox="0 0 24 24"> <g transform="translate(1.5282040675093018 0.0) scale(0.4147081426647849)">
  
  <g
     id="line"
     transform="translate(-10.39644,-7.1278643)">
    <path
       fill="none"
       stroke="#000"
       stroke-linecap="round"
       stroke-linejoin="round"
       stroke-miterlimit="10"
       stroke-width="2"
       d="m 47.9472,46.2123 c 6.9757,5.7074 0,6.3416 0,6.3416 C 30.825,54.4564 26.3859,36.0659 26.3859,36.0659"
       id="path2" />
    <path
       fill="none"
       stroke="#000"
       stroke-linecap="round"
       stroke-linejoin="round"
       stroke-miterlimit="10"
       stroke-width="2"
       d="M 34.0168,54.4596 C 44.8125,57.3684 63.3074,57.7676 59.362,53.8222 54.9229,49.3831 54.2888,47.4806 53.6546,43.6757 53.0204,39.8708 47.9472,32.2609 39.069,30.3584 30.1908,28.4559 39.069,16.407 32.7274,10.6996 26.3858,4.9922 18.776,10.0654 18.776,13.2362 c 0,3.1708 -3.1708,5.0732 -3.1708,5.0732 -1.2683,0.6342 -9.5123,3.8049 1.2683,3.8049 10.7806,0 10.1465,2.5366 6.9757,4.4391 0,0 -10.8078,4.5851 -7.8493,14.4465 3,10 17.9958,13.4564 17.9958,13.4564 0,0 -0.6342,1.2683 0,2.5366 0.6342,1.2683 -0.3658,1.6342 -1.6342,3.5366 -1.2683,1.9025 -4.0732,0.2683 -6.6099,0.9025 -1.9455,0.4864 -3.1708,2.5366 0.6342,2.5366 3.805,0 10.7806,0 10.7806,0 0,0 3.8049,0.6342 -0.6342,-3.8049 0,0 0.6342,-1.2683 0.6342,-1.9025 0,-0.6342 1.374,-1.2683 1.0041,-2.5366"
       id="path4" />
    <path
       fill="none"
       stroke="#000"
       stroke-linecap="round"
       stroke-linejoin="round"
       stroke-miterlimit="10"
       stroke-width="2"
       d="m 34.6024,63.9305 c 1.1633,0 2.6989,0 4.1493,0 2.3257,0 4.432,0 4.432,0 0,0 3.0287,0.5048 -0.5048,-3.0287 0,0 0.5048,-1.0096 0.5048,-1.5143 0,-0.5047 1.0937,-1.0096 0.7992,-2.0191"
       id="path6" />
    <path
       fill="none"
       stroke="#000"
       stroke-linecap="round"
       stroke-linejoin="round"
       stroke-miterlimit="10"
       stroke-width="2"
       d="m 40.6597,56.3588 c 0,0 -0.5048,1.0096 0,2.0191 0.5048,1.0096 0.5048,0.5048 -0.5048,2.0191 -0.408,0.612 -1.2252,0.8826 -2.3542,1.035"
       id="path8" />
  </g>
</g></svg>