<svg xmlns="http://www.w3.org/2000/svg" width="24" height="24" viewBox="0 0 24 24"> <g transform="scale(0.4615092444532165)">
  
  <g
     id="line-supplement"
     transform="translate(-9.9983542,-9.9566542)">
    <path
       fill="none"
       stroke="#000"
       stroke-miterlimit="10"
       stroke-width="2"
       d="m 42.976,39.0753 5.8858,9.2947 a 0.4945,0.4945 0 0 1 -0.6956,0.6737 L 39.2586,42.9958 A 0.4946,0.4946 0 0 0 38.495,43.3123 L 36.4868,53.841 a 0.4946,0.4946 0 0 1 -0.9716,0 l -2.01,-10.5287 a 0.4946,0.4946 0 0 0 -0.7637,-0.3164 l -8.9056,6.0479 A 0.4946,0.4946 0 0 1 23.14,48.37 l 5.884,-9.2948 A 0.4946,0.4946 0 0 0 28.694,38.324 L 18.5486,36.4877 a 0.4946,0.4946 0 0 1 0,-0.9733 l 10.146,-1.8384 a 0.4946,0.4946 0 0 0 0.33,-0.7511 L 23.14,23.63 a 0.4946,0.4946 0 0 1 0.6957,-0.6737 l 8.9056,6.0479 a 0.4946,0.4946 0 0 0 0.7637,-0.3164 l 2.01,-10.5287 a 0.4946,0.4946 0 0 1 0.9716,0 l 2.0084,10.5285 a 0.4946,0.4946 0 0 0 0.7636,0.3165 l 8.9076,-6.0479 a 0.4945,0.4945 0 0 1 0.6956,0.6737 l -5.8859,9.2949 a 0.4945,0.4945 0 0 0 0.33,0.7512 l 10.1459,1.8384 a 0.4946,0.4946 0 0 1 0,0.9733 l -10.1461,1.8364 a 0.4945,0.4945 0 0 0 -0.3297,0.7512 z"
       id="path2" />
  </g>
  <g
     id="line"
     transform="translate(-9.9983542,-9.9566542)">
    <path
       fill="none"
       stroke="#000"
       stroke-linecap="round"
       stroke-linejoin="round"
       stroke-width="2"
       d="M 60,60.9583 H 12 a 0.9448,0.9448 0 0 1 -1,-1 v -48 a 0.9448,0.9448 0 0 1 1,-1 h 48 a 0.9448,0.9448 0 0 1 1,1 v 48 a 0.9448,0.9448 0 0 1 -1,1 z"
       id="path5" />
  </g>
</g></svg>