<svg xmlns="http://www.w3.org/2000/svg" width="24" height="24" viewBox="0 0 24 24"> <g transform="translate(0.0 3.665073137251415) scale(0.4246533567918925)">
  
  <g
     id="line"
     transform="translate(-8.3837806,-16.4143)">
    <g
       id="g48">
      <g
         id="g10">
        <path
           fill="none"
           stroke="#000"
           stroke-linecap="round"
           stroke-miterlimit="10"
           stroke-width="2.0787"
           d="m 50.4313,27.4141 2.3576,2.9895 A 3.1084,3.1084 0 0 1 53.1581,33.3 c -0.1462,0.3259 0.2927,1.1534 0.5005,1.444 l 1.5433,2.9341"
           id="path2" />
        <path
           fill="none"
           stroke="#000"
           stroke-linecap="round"
           stroke-miterlimit="10"
           stroke-width="2.0787"
           d="m 49.2508,32.717 c -4.3719,1.7329 -4.591,4.5765 -4.2757,6.234"
           id="path4" />
        <path
           fill="none"
           stroke="#000"
           stroke-linecap="round"
           stroke-miterlimit="10"
           stroke-width="2.0787"
           d="m 50.4313,27.4141 a 2.3717,2.3717 0 1 0 -3.7046,2.9249 29.163,29.163 0 0 0 2.5241,2.378"
           id="path6" />
        <path
           fill="none"
           stroke="#000"
           stroke-linecap="round"
           stroke-miterlimit="10"
           stroke-width="2.0787"
           d="M 51.4922,28.7451 C 51.2329,28.4167 50.715,27.7734 50.4313,27.4141"
           id="path8" />
      </g>
      <path
         fill="none"
         stroke="#000"
         stroke-miterlimit="10"
         stroke-width="2.0787"
         d="m 17.8515,37.7311 q -0.3114,-0.0795 -0.6129,-0.1785 a 8.9761,8.9761 0 0 1 -1.03,-0.4092 7.4746,7.4746 0 0 1 -3.6354,-3.5429 c -2.0178,-4.247 0.5215,-9.6735 5.6716,-12.12 5.1501,-2.4465 10.9609,-0.9875 12.9787,3.2595 a 7.6817,7.6817 0 0 1 0.1171,6.1127"
         id="path12" />
      <path
         fill="none"
         stroke="#000"
         stroke-miterlimit="10"
         stroke-width="2.0787"
         d="M 28.2255,35.1428 A 12.3479,12.3479 0 0 1 25.5523,36.86 12.4971,12.4971 0 0 1 23.5437,37.6121"
         id="path14" />
      <path
         fill="none"
         stroke="#000"
         stroke-miterlimit="10"
         stroke-width="2.0787"
         d="m 23.0873,19.5839 a 2.5318,2.5318 0 0 1 2.8527,-2.1057 2.5318,2.5318 0 0 1 1.51,3.2079"
         id="path16" />
      <path
         fill="none"
         stroke="#000"
         stroke-miterlimit="10"
         stroke-width="2.0787"
         d="M 11.3274,29.8272 A 2.4637,2.4637 0 0 1 9.48,26.8987 a 2.4637,2.4637 0 0 1 3.18,-1.37"
         id="path18" />
      <path
         fill="none"
         stroke="#000"
         stroke-miterlimit="10"
         stroke-width="2.0787"
         d="m 48.0967,38.7479 c -2.3193,0.7787 -8.2338,-0.3219 -11.4588,-1.67 0,0 -1.5714,-0.57 -3.6671,-3.2193"
         id="path20" />
      <path
         fill="none"
         stroke="#000"
         stroke-miterlimit="10"
         stroke-width="2.0787"
         d="m 54.3953,48.5912 a 18.0605,18.0605 0 0 1 -10.277,5.4875 C 31.9121,55.8034 26.5164,53.3797 22.4926,49.6623 A 16.5206,16.5206 0 0 1 20.1567,46.9842 28.2524,28.2524 0 0 1 16.818,36.9384"
         id="path22" />
      <path
         fill="none"
         stroke="#000"
         stroke-linecap="round"
         stroke-miterlimit="10"
         stroke-width="2.0787"
         d="m 53.3181,31.6115 c -0.3679,-1.4325 -1.8094,-6.3545 -1.98,-7.1624 a 4.3551,4.3551 0 0 1 1.6869,-4.3914 4.0876,4.0876 0 0 1 3.0907,-0.91 4.2885,4.2885 0 0 1 3.57,2.1529 v 0 a 24.4578,24.4578 0 0 1 1.705,12.5578"
         id="path24" />
      <path
         fill="none"
         stroke="#000"
         stroke-linecap="round"
         stroke-miterlimit="10"
         stroke-width="2.0787"
         d="m 54.3953,48.5912 c 0.695,-0.8544 2.1121,-2.6545 3.2123,-4.3146"
         id="path26" />
      <g
         id="g36">
        <path
           fill="none"
           stroke="#000"
           stroke-linecap="round"
           stroke-miterlimit="10"
           stroke-width="2.0787"
           d="m 63.3409,38.4068 -2.0439,3.6768 a 3.4343,3.4343 0 0 1 -2.7957,1.61 c -0.3946,-0.01 -1.0513,0.79 -1.2591,1.1252 l -1.81,2.463"
           id="path28" />
        <path
           fill="none"
           stroke="#000"
           stroke-linecap="round"
           stroke-miterlimit="10"
           stroke-width="2.0787"
           d="m 57.4317,39.4616 c -5.3622,-5.4962 -9.335,-0.7137 -9.335,-0.7137 a 4.53,4.53 0 0 0 -0.7979,2.75"
           id="path30" />
        <path
           fill="none"
           stroke="#000"
           stroke-linecap="round"
           stroke-miterlimit="10"
           stroke-width="2.0787"
           d="m 57.4317,39.4616 a 32.24,32.24 0 0 1 1.3495,-3.5862 2.62,2.62 0 1 1 4.56,2.5314"
           id="path32" />
        <path
           fill="none"
           stroke="#000"
           stroke-linecap="round"
           stroke-miterlimit="10"
           stroke-width="2.0787"
           d="m 62.4357,40.0552 c 0.2244,-0.4042 0.66,-1.2061 0.9052,-1.6484"
           id="path34" />
      </g>
      <path
         fill="none"
         stroke="#000"
         stroke-linecap="round"
         stroke-miterlimit="10"
         stroke-width="2.0787"
         d="M 32.9708,33.8585 C 31.5786,32.344 31.3696,30.9078 30.514,30.5135 a 2.2086,2.2086 0 0 0 -2.4655,0.6538 c -0.6709,0.8 -0.1837,2.6906 0.1736,3.39 v 0 a 9.7692,9.7692 0 0 0 2.2671,3.6693 c 0.03,0.0213 0.1434,0.1145 0.2836,0.2311 a 3.33,3.33 0 0 0 2.1582,0.8086"
         id="path38" />
      <path
         fill="none"
         stroke="#000"
         stroke-linecap="round"
         stroke-miterlimit="10"
         stroke-width="2.0787"
         d="m 19.3862,39.9753 c -1.4108,-1.6743 -1.603,-2.7637 -1.5175,-3.7019 a 1.9669,1.9669 0 0 1 1.5433,-1.8275 c 1.0284,-0.1818 2.5225,1.1049 2.9506,1.7638 v 0 a 9.77,9.77 0 0 1 2.0474,3.7961 c 0.0034,0.0366 0.0275,0.1814 0.0586,0.3611 a 3.3294,3.3294 0 0 1 -0.3767,2.2737 22.219,22.219 0 0 1 -1.3,1.94"
         id="path40" />
      <path
         d="m 24.7733,29.0777 v 0 a 1.0411,1.0411 0 0 1 0.1694,1.0933 l -0.677,1.3941 A 0.8315,0.8315 0 0 1 23.38,32.042 l -1.2983,-0.1762 a 1.4475,1.4475 0 0 1 -1.1577,-1.1782 0.7255,0.7255 0 0 1 0.4259,-0.7625 l 2.2389,-1.1635 a 0.9762,0.9762 0 0 1 1.1845,0.3161 z"
         id="path42" />
      <circle
         cx="17.8515"
         cy="28.7451"
         r="1"
         id="circle44" />
      <circle
         cx="23.912901"
         cy="25.391399"
         r="1"
         id="circle46" />
    </g>
  </g>
</g></svg>