<svg xmlns="http://www.w3.org/2000/svg" width="24" height="24" viewBox="0 0 24 24"> <g transform="translate(1.5415605999663953 0.0) scale(0.4357133539879618)">
  
  <g
     id="line-supplement"
     transform="translate(-11.948044,-11.336314)">
    <path
       d="m 35.9772,30.4187 a 10.9345,10.9345 0 0 0 -10.8786,12.6553 2.5,2.5 0 0 1 1.3786,-0.4414 2.5356,2.5356 0 0 1 2.3448,1.4746 39.3435,39.3435 0 0 1 2.6435,-5.2178 3.39,3.39 0 0 1 2.6651,-1.9629 2.4872,2.4872 0 0 1 1.4521,0.4073 c 1.2295,-1.5811 2.6338,-1.69 3.6338,-1.1846 a 3.3452,3.3452 0 0 1 1.7051,2.76 2.554,2.554 0 0 1 0.83,0.2011 2.3206,2.3206 0 0 1 1.4755,2.2735 5.8368,5.8368 0 0 1 -0.6005,2.5029 2.6279,2.6279 0 0 1 0.6005,0.77 4.0262,4.0262 0 0 1 -0.12,3.6875 l -0.8525,1.6123 c -0.0711,0.2164 -0.1292,0.4324 -0.19,0.6486 A 11.01,11.01 0 0 0 35.9772,30.4184 Z"
       id="path2" />
  </g>
  <g
     id="line"
     transform="translate(-11.948044,-11.336314)">
    <path
       fill="none"
       stroke="#000"
       stroke-linecap="round"
       stroke-linejoin="round"
       stroke-width="2"
       d="m 42.8042,57.3184 a 22.9792,22.9792 0 1 0 -28.8,-15.2 23.7912,23.7912 0 0 0 7.1,10.8"
       id="path5" />
    <path
       fill="none"
       stroke="#000"
       stroke-linecap="round"
       stroke-linejoin="round"
       stroke-width="2"
       d="m 23.1042,26.0684 c 4.4,-0.1 7.9,-1.4 8.8,-3.1"
       id="path7" />
    <path
       fill="none"
       stroke="#000"
       stroke-linecap="round"
       stroke-linejoin="round"
       stroke-width="2"
       d="m 48.9042,26.0684 c -4.4,-0.1 -7.9,-1.4 -8.8,-3.1"
       id="path9" />
    <path
       fill="none"
       stroke="#000"
       stroke-linecap="round"
       stroke-linejoin="round"
       stroke-width="2"
       d="m 25.9042,64.7184 c 0.6,-3 1.1,-5.2 1.3,-6.1 -0.4,-0.8 -0.8,-1.7 -1.2,-2.5 -0.2,-0.4 -0.6,-1.6 -1.2,-8.3 -0.2,-2 -0.1,-3.1 0.5,-3.8 a 1.5628,1.5628 0 0 1 1.2,-0.6 c 1.3,0 1.7,1.2 2,2.4 l 0.1,0.3 0.2,0.6 a 39.4783,39.4783 0 0 1 3.5,-7.5 c 1.8,-3 3.5,-0.6 3.5,-0.6 2.2,-4.1 5,-0.8 4,1.3 a 1.9811,1.9811 0 0 1 1.6,-0.1 1.4158,1.4158 0 0 1 0.9,1.4 5.2848,5.2848 0 0 1 -0.9,2.8 2.1889,2.1889 0 0 1 1,0.9 3.0777,3.0777 0 0 1 -0.1,2.8 l -0.9,1.7 c -0.3,0.9 -0.5,1.8 -0.7,2.6 a 20.7835,20.7835 0 0 1 -2.3,6.3 4.7436,4.7436 0 0 1 -1.4,1.7 c -0.4,0.4 -0.7,0.6 -0.8,1 a 42.7765,42.7765 0 0 0 -0.6,4.4"
       id="path11" />
    <path
       fill="none"
       stroke="#000"
       stroke-linecap="round"
       stroke-linejoin="round"
       stroke-width="2"
       d="m 26.2418,43.4453 a 10.001,10.001 0 1 1 15.0545,6.31"
       id="path13" />
  </g>
</g></svg>