<svg xmlns="http://www.w3.org/2000/svg" width="24" height="24" viewBox="0 0 24 24"> <g transform="scale(0.46153846153846156)">
  
  <g
     id="line"
     transform="translate(-10,-10)">
    <path
       fill="none"
       stroke="#000"
       stroke-linecap="round"
       stroke-linejoin="round"
       stroke-miterlimit="10"
       stroke-width="2"
       d="M 58,61 H 14 c -1.6569,0 -3,-1.3431 -3,-3 V 14 c 0,-1.6569 1.3431,-3 3,-3 h 44 c 1.6569,0 3,1.3431 3,3 v 44 c 0,1.6569 -1.3431,3 -3,3 z"
       id="path2" />
    <path
       fill="none"
       stroke="#000"
       stroke-linecap="round"
       stroke-linejoin="round"
       stroke-miterlimit="10"
       stroke-width="2"
       d="M 46.6046,25.3914 C 49.3203,28.106 51,31.8568 51,36 v 0 c 0,8.2843 -6.7157,15 -15,15 v 0 c -4.1381,0 -7.8848,-1.6757 -10.5986,-4.3854"
       id="path4" />
    <circle
       cx="29.75"
       cy="36"
       r="3.75"
       fill="#000"
       stroke="none"
       id="circle6" />
    <circle
       cx="42.25"
       cy="36"
       r="3.75"
       fill="#000"
       stroke="none"
       id="circle8" />
    <circle
       cx="36"
       cy="36"
       r="15"
       fill="none"
       stroke="#000"
       stroke-linecap="round"
       stroke-linejoin="round"
       stroke-miterlimit="10"
       stroke-width="2"
       id="circle10" />
  </g>
</g></svg>