<svg xmlns="http://www.w3.org/2000/svg" width="24" height="24" viewBox="0 0 24 24"> <g transform="translate(0.0 0.4922693802493967) scale(0.5663812113228005)">
  
  <g
     id="line"
     transform="translate(-11.084012,-15.86401)">
    <path
       fill="none"
       stroke="#000"
       stroke-linecap="round"
       stroke-linejoin="round"
       d="m 42.0983,48.4187 c 6.232,0.1236 10.86,1.7661 10.86,3.7833 C 52.9584,54.3 47.6225,56 41.04,56 34.4575,56 29.122,54.3 29.122,52.202 c 0,-1.905 3.4734,-3.5825 9.5011,-3.7689"
       id="path2" />
    <path
       fill="none"
       stroke="#000"
       stroke-linecap="round"
       stroke-linejoin="round"
       d="M 42.7128,51.2052 C 41.7254,48.7887 41.5963,42.7871 40.612,40.6924 a 8.6657,8.6657 0 0 0 -3.78,-3.9774 c -1.58,-0.8286 -5.15,-2.017 -6.6482,-2.5942 -1.4982,-0.5772 -6.071,-2.3283 -8.1463,-2.9481 a 2.7957,2.7957 0 0 0 -2.6039,0.69 c 0,0 11.85,5.0355 15.78,6.7595 a 4.5773,4.5773 0 0 1 2.2761,3.274 c 0.65,2.797 1.5582,7.4932 1.1065,9.31"
       id="path4" />
    <polyline
       fill="none"
       stroke="#000"
       stroke-linecap="round"
       stroke-linejoin="round"
       points="36.724 34.169 40.612 22.707 15.7 16.364 11.584 28.5 35.214 38.622"
       id="polyline6" />
    <path
       fill="none"
       stroke="#000"
       stroke-linecap="round"
       stroke-linejoin="round"
       d="m 47.6461,41.1991 a 1.5121,1.5121 0 1 1 -1.2575,2.7436 6.2216,6.2216 0 0 1 -2.2343,-2.4045 c 0,0 -0.269,-0.3858 0.1753,-0.447 a 6.526,6.526 0 0 1 3.3165,0.1079"
       id="path8" />
    <path
       fill="none"
       stroke="#000"
       stroke-linecap="round"
       stroke-linejoin="round"
       d="m 32.3044,43.3712 a 6.5262,6.5262 0 0 1 2.9828,-1.4538 c 0.4305,-0.1258 0.3427,0.3363 0.3427,0.3363 a 6.2222,6.2222 0 0 1 -1.0566,3.1076 1.512,1.512 0 1 1 -2.2689,-1.99"
       id="path10" />
  </g>
</g></svg>