<svg xmlns="http://www.w3.org/2000/svg" width="24" height="24" viewBox="0 0 24 24"> <g transform="translate(4.498080306917551 0.0) scale(0.4242591449809993)">
  
  <g
     id="line"
     transform="translate(-17.1126,-8.3000002)">
    <circle
       cx="34.5"
       cy="12.3"
       r="3"
       fill="none"
       stroke="#000"
       stroke-miterlimit="10"
       stroke-width="2"
       id="circle2" />
    <path
       fill="none"
       stroke="#000"
       stroke-linecap="round"
       stroke-linejoin="round"
       stroke-width="2"
       d="m 39.0845,24.785 2.4786,37.1776 a 1.6148,1.6148 0 0 1 -1.43,1.9066 2.0408,2.0408 0 0 1 -1.8112,-1.9066 L 35.5574,41.9439 c -0.0953,-1.0486 -0.6672,-1.9065 -1.2392,-1.9065 -0.4766,0 -1.0486,0.8579 -1.2393,1.9065 l -2.7644,20.0187 a 2.0408,2.0408 0 0 1 -1.8113,1.9066 1.6148,1.6148 0 0 1 -1.43,-1.9066 L 29.5518,24.785"
       id="path4" />
    <path
       fill="none"
       stroke="#000"
       stroke-linecap="round"
       stroke-linejoin="round"
       stroke-width="2"
       d="m 18.1126,23.8318 3.5274,4.0037 c 1.7159,2.0019 3.5271,1.43 3.9084,-1.1439 l 0.3813,-2.0019 c 0.4766,-2.5738 2.4785,-4.957 4.5757,-5.1476 a 33.9994,33.9994 0 0 1 7.6262,0 c 2.0972,0.2859 4.1944,2.5738 4.5757,5.1476 l 0.3813,2.0019 c 0.4766,2.5738 2.4785,4.29 4.5757,3.7177 2.0972,-0.4766 3.8131,-0.9532 3.8131,-0.9532"
       id="path6" />
  </g>
</g></svg>