<svg xmlns="http://www.w3.org/2000/svg" width="24" height="24" viewBox="0 0 24 24"> <g transform="translate(0.8825122198274098 0.0) scale(0.4086841847326078)">
  
  <g
     id="line"
     transform="translate(-8.7968735,-6.9238484)">
    <circle
       cx="28.7782"
       cy="31.565599"
       transform="matrix(0.5156,-0.8568,0.8568,0.5156,-13.1061,39.9485)"
       fill="#000"
       stroke="none"
       id="ellipse2"
       r="2" />
    <circle
       cx="43.462898"
       cy="31.565599"
       transform="matrix(0.8568,-0.5156,0.5156,0.8568,-10.0526,26.9285)"
       fill="#000"
       stroke="none"
       id="ellipse4"
       r="2" />
    <path
       fill="none"
       stroke="#000"
       stroke-linecap="round"
       stroke-linejoin="round"
       stroke-miterlimit="10"
       stroke-width="2"
       d="m 40.3928,43.0656 c 0,0 -1.8705,-1.3333 -2.9394,2.0833 l -1.4252,1.0833 -1.4252,-1.0833 c -1.0689,-3.4167 -2.9394,-2.0833 -2.9394,-2.0833"
       id="path6" />
    <path
       fill="none"
       stroke="#000"
       stroke-linecap="round"
       stroke-linejoin="round"
       stroke-miterlimit="10"
       stroke-width="2"
       d="m 42.9467,39.9822 2.1482,3.519 c 0.1941,0.3179 0.3227,0.6662 0.3793,1.0272 l 0.326,2.0779 c 0.0856,0.5453 0.0042,1.1018 -0.235,1.6067 l -1.1399,2.407 c -0.4169,0.8804 -1.2717,1.5195 -2.2925,1.7141 v 0 c -0.6475,0.1234 -1.3206,0.0597 -1.9273,-0.1826 L 38.9039,51.6318 C 38.5865,51.5051 38.2934,51.3319 38.0359,51.119 L 36.6611,49.9821 H 35.395 l -1.3748,1.1369 c -0.2575,0.2129 -0.5505,0.3861 -0.868,0.5128 l -1.3016,0.5197 c -0.6067,0.2423 -1.2798,0.306 -1.9273,0.1826 v 0 C 28.9025,52.1395 28.0477,51.5004 27.6308,50.62 l -1.1399,-2.407 c -0.2391,-0.505 -0.3205,-1.0614 -0.235,-1.6067 l 0.326,-2.0779 c 0.0566,-0.361 0.1853,-0.7093 0.3793,-1.0272 l 2.1482,-3.519"
       id="path8" />
    <line
       x1="36.028198"
       x2="36.028198"
       y1="46.232201"
       y2="48.982201"
       fill="none"
       stroke="#000"
       stroke-linecap="round"
       stroke-linejoin="round"
       stroke-miterlimit="10"
       stroke-width="2"
       id="line10" />
    <path
       fill="none"
       stroke="#000"
       stroke-linecap="round"
       stroke-linejoin="round"
       stroke-miterlimit="10"
       stroke-width="2"
       d="m 30.5366,55.5239 0.7708,0.7941 c 0.8297,0.8549 1.9545,1.3607 3.1446,1.4142 l 3.0167,0.1356 c 1.1576,0.052 2.2933,-0.3278 3.1868,-1.0657 l 0.8644,-0.714"
       id="path12" />
    <path
       fill="none"
       stroke="#000"
       stroke-linecap="round"
       stroke-linejoin="round"
       stroke-miterlimit="10"
       stroke-width="2"
       d="M 17.7391,26.8288 C 7.7408,22.7892 12.9449,12.6489 12.9449,12.6489 c 7.5833,-4.5833 13.833,4.75 13.833,4.75 0,0 4.8857,-4.6468 12.3055,-1.3781"
       id="path14" />
    <path
       fill="none"
       stroke="#000"
       stroke-linecap="round"
       stroke-linejoin="round"
       stroke-miterlimit="10"
       stroke-width="2"
       d="m 24.0282,23.1489 c 0,0 -17.3333,6.0833 -13.75,25"
       id="path16" />
    <path
       fill="none"
       stroke="#000"
       stroke-linecap="round"
       stroke-linejoin="round"
       stroke-miterlimit="10"
       stroke-width="2"
       d="m 19.456,45.1873 c -2.6014,3.7405 -3.5847,9.9899 4.4889,19.4616"
       id="path18" />
    <path
       fill="none"
       stroke="#000"
       stroke-linecap="round"
       stroke-linejoin="round"
       stroke-miterlimit="10"
       stroke-width="2"
       d="m 24.0282,27.7322 c 0,0 -5.6115,8.4105 2.1526,17.7886"
       id="path20" />
    <path
       fill="none"
       stroke="#000"
       stroke-linecap="round"
       stroke-linejoin="round"
       stroke-miterlimit="10"
       stroke-width="2"
       d="m 25.3605,10.9187 c 0,0 12.7053,-9.5 19.8616,5.3333"
       id="path22" />
    <path
       fill="none"
       stroke="#000"
       stroke-linecap="round"
       stroke-linejoin="round"
       stroke-miterlimit="10"
       stroke-width="2"
       d="m 45.2221,16.4903 c 0,0 6.2497,-9.3333 13.833,-4.75 0,0 5.2041,10.1403 -4.7942,14.1799"
       id="path24" />
    <path
       fill="none"
       stroke="#000"
       stroke-linecap="round"
       stroke-linejoin="round"
       stroke-miterlimit="10"
       stroke-width="2"
       d="m 47.9718,22.2403 c 0,0 17.3333,6.0833 13.75,25"
       id="path26" />
    <path
       fill="none"
       stroke="#000"
       stroke-linecap="round"
       stroke-linejoin="round"
       stroke-miterlimit="10"
       stroke-width="2"
       d="m 53.6231,46.2342 c 1.6075,3.8321 1.2349,9.5252 -5.5679,17.5062"
       id="path28" />
    <path
       fill="none"
       stroke="#000"
       stroke-linecap="round"
       stroke-linejoin="round"
       stroke-miterlimit="10"
       stroke-width="2"
       d="m 47.9718,26.8237 c 0,0 5.6115,8.4105 -2.1526,17.7886"
       id="path30" />
  </g>
</g></svg>