<svg xmlns="http://www.w3.org/2000/svg" width="24" height="24" viewBox="0 0 24 24"> <g transform="translate(2.547279124119722 0.0) scale(0.47112796318386235)">
  
  <g
     id="line"
     transform="translate(-15.733582,-7.993925)">
    <path
       d="m 42.0234,26.8773 c 0,1.1045 -0.8965,2 -2,2 -1.1035,0 -2,-0.8955 -2,-2 0,-1.1035 0.8965,-2 2,-2 1.1035,0 2,0.8965 2,2"
       id="path2" />
    <path
       d="m 34.0234,26.8773 c 0,1.1045 -0.8965,2 -2,2 -1.1035,0 -2,-0.8955 -2,-2 0,-1.1035 0.8965,-2 2,-2 1.1035,0 2,0.8965 2,2"
       id="path4" />
    <path
       d="m 36.0232,36.8798 c -1.1518,0 -2.3037,-0.2862 -3.4472,-0.858 -0.4942,-0.247 -0.6944,-0.8476 -0.4473,-1.3418 0.2466,-0.4936 0.8462,-0.6943 1.3418,-0.4472 1.7178,0.8594 3.3877,0.8594 5.1055,0 0.4946,-0.2471 1.0947,-0.0464 1.3418,0.4472 0.247,0.4942 0.0468,1.0948 -0.4473,1.3418 -1.1436,0.5718 -2.2954,0.858 -3.4473,0.858 z"
       id="path6" />
    <path
       d="m 47.6016,23.5176 c -0.2237,0 -0.4493,-0.0752 -0.6358,-0.229 C 46.54,22.9365 46.4795,22.3062 46.832,21.8804 l 2.2481,-2.7198 c 0.5771,-0.6987 0.6885,-1.6464 0.2832,-2.414 -1.2051,-2.2847 -4.5391,-6.1944 -13.3399,-6.7505 -8.7998,0.5561 -12.1357,4.4658 -13.3408,6.7505 -0.4053,0.7671 -0.2939,1.7148 0.2842,2.414 l 1.8457,2.2344 c 0.3525,0.4253 0.292,1.0557 -0.1338,1.4077 -0.4267,0.3521 -1.0566,0.2925 -1.4072,-0.1342 l -1.8457,-2.2339 c -1.0947,-1.3238 -1.2949,-3.1377 -0.5127,-4.6216 1.4053,-2.6611 5.2275,-7.2153 15.0488,-7.8169 0.041,-0.0029 0.082,-0.0029 0.1231,0 9.8232,0.6016 13.6445,5.1558 15.0478,7.8174 0.7832,1.4839 0.582,3.2978 -0.5117,4.6216 l -2.2481,2.7197 c -0.1972,0.2392 -0.4834,0.3628 -0.7714,0.3628 z"
       id="path8" />
    <path
       d="m 35.9395,43.4111 c -6.417,0 -11.6993,-5.916 -12.2862,-13.7607 l 1.9942,-0.1484 c 0.5,6.6777 5.0205,11.9091 10.292,11.9091 5.2578,0 9.6728,-5.0136 10.2705,-11.6631 0.0449,-0.4892 0.0673,-0.997 0.0673,-1.5097 h 2 c 0,0.5732 -0.0253,1.1416 -0.0752,1.6904 -0.6914,7.6856 -5.9628,13.4824 -12.2626,13.4824 z"
       id="path10" />
    <path
       d="m 24.5498,31.0781 c -0.3027,0 -0.5928,-0.1377 -0.7842,-0.3799 -1.4687,-1.8569 -2.0664,-3.7729 -1.7773,-5.6948 0.4814,-3.2016 3.2871,-5.167 3.4062,-5.2495 0.458,-0.3125 1.0782,-0.1968 1.3907,0.2564 0.3134,0.4541 0.1992,1.0751 -0.2539,1.3891 v 0 c -0.0215,0.0156 -2.2227,1.5762 -2.5674,3.9151 -0.1299,0.8847 0.0234,1.789 0.458,2.7026 1.248,-2.2017 4.0664,-5.7915 9.4287,-6.5454 0.5596,-0.085 1.0527,0.3042 1.1299,0.8511 0.0771,0.5468 -0.3037,1.0527 -0.8506,1.1293 -6.4873,0.9122 -8.6133,6.8907 -8.6348,6.9512 -0.1181,0.3457 -0.417,0.5987 -0.7773,0.6602 -0.0557,0.0097 -0.1123,0.0146 -0.168,0.0146 z"
       id="path12" />
    <path
       d="m 47.0908,31.0781 c -0.0566,0 -0.1133,-0.0049 -0.1699,-0.0146 -0.3613,-0.0625 -0.6592,-0.3174 -0.7773,-0.6641 -1.004,-2.9599 -3.2598,-7.4038 -4.9131,-7.5415 -0.5508,-0.0459 -0.959,-0.5293 -0.9131,-1.0796 0.0449,-0.5498 0.5205,-0.9668 1.0791,-0.9136 2.6748,0.2227 4.8086,4.3306 5.9082,6.9629 0.3682,-0.8491 0.4932,-1.6894 0.3721,-2.5131 -0.3448,-2.3389 -2.5459,-3.8995 -2.5674,-3.9151 -0.4522,-0.3154 -0.5655,-0.938 -0.251,-1.3906 0.3145,-0.4536 0.9355,-0.5659 1.3877,-0.2549 0.1191,0.0825 2.9248,2.0479 3.4062,5.2495 0.2891,1.9219 -0.3085,3.8379 -1.7773,5.6948 -0.1914,0.2422 -0.4814,0.3799 -0.7842,0.3799 z"
       id="path14" />
    <path
       d="m 39.0234,19.1162 c -0.5527,0 -1,-0.4477 -1,-1 0,-1.103 -0.8974,-2 -2,-2 -1.1025,0 -2,0.897 -2,2 0,0.5523 -0.4472,1 -1,1 -0.5527,0 -1,-0.4477 -1,-1 0,-2.2056 1.794,-4 4,-4 2.2061,0 4,1.7944 4,4 0,0.5523 -0.4472,1 -1,1 z"
       id="path16" />
    <path
       d="m 35.6572,54.7969 c -1.4111,0 -2.2158,-0.6455 -2.6426,-1.1865 -1.3828,-1.753 -0.7167,-4.7471 -0.6367,-5.0831 0.1289,-0.5351 0.6612,-0.8671 1.2041,-0.7382 0.5362,0.1269 0.8682,0.666 0.7412,1.2031 -0.1435,0.6094 -0.4043,2.5391 0.2627,3.3818 0.1436,0.1817 0.4112,0.4229 1.0713,0.4229 0.6612,0 0.9287,-0.2422 1.0733,-0.4248 0.6201,-0.7871 0.4443,-2.6162 0.2617,-3.3789 -0.1289,-0.5371 0.2031,-1.0762 0.7402,-1.2051 0.5362,-0.127 1.0762,0.2031 1.2051,0.7402 0.0801,0.335 0.7451,3.3291 -0.6367,5.0821 -0.4278,0.541 -1.2324,1.1865 -2.6436,1.1865 z"
       id="path18" />
    <path
       d="m 54.7373,58.9355 c -0.0508,0 -0.1016,-0.0029 -0.1523,-0.0107 -0.5459,-0.083 -0.9209,-0.5937 -0.8379,-1.1387 0.0049,-0.0371 0.5361,-3.6923 -0.7725,-6.9131 -0.208,-0.5117 0.0391,-1.0947 0.5508,-1.3027 0.5078,-0.206 1.0937,0.0381 1.3027,0.5508 1.5205,3.7432 0.9219,7.7969 0.8955,7.9678 -0.0761,0.4941 -0.5019,0.8466 -0.9863,0.8466 z"
       id="path20" />
    <path
       d="m 30.082,54.7314 c -0.0283,0 -0.0576,-9e-4 -0.0869,-0.0039 -0.3662,-0.0322 -0.6855,-0.2627 -0.831,-0.5996 l -3.7745,-8.748 c -0.1279,-0.2959 -0.1054,-0.6338 0.0596,-0.9102 0.166,-0.2763 0.4531,-0.456 0.7735,-0.4824 l 0.5527,-0.0469 c 0.2285,-0.0224 0.4512,0.0391 0.6396,0.1641 3.1534,2.1025 5.6602,3.4111 8.3829,3.4238 2.7207,-0.0127 5.2275,-1.3213 8.3828,-3.4238 0.1845,-0.1221 0.3994,-0.1768 0.624,-0.166 l 0.6777,0.0469 c 0.3281,0.0234 0.625,0.206 0.792,0.4902 0.167,0.2832 0.1846,0.6318 0.0449,0.9297 l -4.0752,8.748 c -0.1562,0.336 -0.4853,0.5576 -0.8554,0.5772 -0.3682,0.0234 -0.7198,-0.17 -0.9092,-0.4864 L 37.5723,49.375 c -0.5469,0.0928 -1.1006,0.1445 -1.668,0.1523 -0.0147,0.001 -0.0293,0.004 -0.0439,0.001 h -0.003 c -0.0117,0 -0.0263,-0.001 -0.0381,0 h -0.0429 c -0.0127,-0.001 -0.0274,0 -0.0381,0 h -0.0029 c -0.0166,0.003 -0.0293,0 -0.044,-0.001 -0.5293,-0.0068 -1.0478,-0.0527 -1.5596,-0.1337 l -3.2138,4.8877 c -0.1866,0.2822 -0.501,0.4501 -0.836,0.4501 z m -1.8047,-7.708 1.9883,4.6094 1.8155,-2.7607 c -1.2422,-0.4297 -2.4864,-1.0586 -3.8038,-1.8487 z m 11.3086,1.8233 1.6426,2.751 2.1475,-4.6084 c -1.3145,0.791 -2.5537,1.4218 -3.7901,1.8574 z"
       id="path22" />
    <path
       d="m 16.8584,58.9355 c -0.4844,0 -0.9102,-0.3525 -0.9863,-0.8466 -0.0264,-0.169 -0.6172,-4.1651 0.8613,-7.8858 0.2051,-0.5136 0.7861,-0.7627 1.2988,-0.5605 0.5137,0.2041 0.7637,0.7861 0.5606,1.2988 -1.2735,3.2031 -0.749,6.8086 -0.7442,6.8447 0.083,0.545 -0.292,1.0547 -0.8379,1.1387 -0.0507,0.0078 -0.1015,0.0107 -0.1523,0.0107 z"
       id="path24" />
    <path
       d="m 31.8779,58.8936 c -0.1767,0 -0.3554,-0.0469 -0.5175,-0.1456 -0.4727,-0.2861 -0.6231,-0.9013 -0.336,-1.373 l 2.2393,-3.6895 c 0.2861,-0.4736 0.9004,-0.624 1.373,-0.3359 0.4727,0.2861 0.6231,0.9014 0.336,1.3731 l -2.2393,3.6894 c -0.1875,0.3106 -0.5176,0.4815 -0.8555,0.4815 z"
       id="path26" />
    <path
       d="m 39.4375,58.8936 c -0.3379,0 -0.668,-0.1709 -0.8555,-0.4815 l -2.2392,-3.6894 c -0.2871,-0.4717 -0.1367,-1.087 0.3359,-1.3731 0.4736,-0.2871 1.0879,-0.1367 1.3731,0.3359 l 2.2392,3.6895 c 0.2871,0.4717 0.1367,1.0869 -0.3359,1.373 -0.1621,0.0987 -0.3408,0.1456 -0.5176,0.1456 z"
       id="path28" />
    <path
       d="m 23.6992,48.2715 c -0.5527,0 -1,-0.4473 -1,-1 v -1.9522 c 0,-0.5527 0.4473,-1 1,-1 0.5528,0 1,0.4473 1,1 v 1.9522 c 0,0.5527 -0.4472,1 -1,1 z"
       id="path30" />
    <path
       d="m 20.3037,48.2715 c -0.5527,0 -1,-0.4473 -1,-1 v -1.9522 c 0,-0.5527 0.4473,-1 1,-1 0.5527,0 1,0.4473 1,1 v 1.9522 c 0,0.5527 -0.4473,1 -1,1 z"
       id="path32" />
    <path
       d="m 16.9072,48.2715 c -0.5527,0 -1,-0.4473 -1,-1 v -1.9522 c 0,-0.5527 0.4473,-1 1,-1 0.5528,0 1,0.4473 1,1 v 1.9522 c 0,0.5527 -0.4472,1 -1,1 z"
       id="path34" />
    <path
       d="m 47.7715,48.2715 c -0.5527,0 -1,-0.4473 -1,-1 v -1.9522 c 0,-0.5527 0.4473,-1 1,-1 0.5527,0 1,0.4473 1,1 v 1.9522 c 0,0.5527 -0.4473,1 -1,1 z"
       id="path36" />
    <path
       d="m 51.167,48.2715 c -0.5527,0 -1,-0.4473 -1,-1 v -1.9522 c 0,-0.5527 0.4473,-1 1,-1 0.5527,0 1,0.4473 1,1 v 1.9522 c 0,0.5527 -0.4473,1 -1,1 z"
       id="path38" />
    <path
       d="m 54.5625,48.2715 c -0.5527,0 -1,-0.4473 -1,-1 v -1.9522 c 0,-0.5527 0.4473,-1 1,-1 0.5527,0 1,0.4473 1,1 v 1.9522 c 0,0.5527 -0.4473,1 -1,1 z"
       id="path40" />
    <path
       d="m 36.3428,23.5176 c -4.6983,0 -9.208,-1.5288 -11.6699,-3.9951 -0.2852,-0.2862 -0.3702,-0.7163 -0.2159,-1.0899 0.1553,-0.373 0.5196,-0.6167 0.9239,-0.6167 h 21.0683 c 0.3897,0 0.7442,0.2266 0.9072,0.5801 0.1641,0.3535 0.1075,0.77 -0.1455,1.0674 -2.0312,2.3921 -5.6777,3.8633 -10.0048,4.0371 -0.2881,0.0117 -0.5762,0.0171 -0.8633,0.0171 z m -7.8252,-3.7017 c 2.333,1.1797 5.4336,1.8174 8.6084,1.6861 2.5635,-0.1031 4.8261,-0.6978 6.5381,-1.6861 z"
       id="path42" />
  </g>
</g></svg>