<svg xmlns="http://www.w3.org/2000/svg" width="24" height="24" viewBox="0 0 24 24"> <g transform="scale(0.5)">
  
  <g
     id="line"
     transform="translate(-11.8871,-12.056499)">
    <circle
       cx="35.8871"
       cy="36.056499"
       r="23"
       fill="none"
       stroke="#000"
       stroke-linecap="round"
       stroke-linejoin="round"
       stroke-miterlimit="10"
       stroke-width="2"
       id="circle2" />
    <path
       fill="none"
       stroke="#000"
       stroke-linecap="round"
       stroke-linejoin="round"
       stroke-miterlimit="10"
       stroke-width="2"
       d="m 45.7019,44.862 c -6.574,3.5248 -14.0454,3.6576 -19.6295,0"
       id="path4" />
    <path
       fill="none"
       stroke="#000"
       stroke-linecap="round"
       stroke-linejoin="round"
       stroke-miterlimit="10"
       stroke-width="2"
       d="m 18.8826,30.4638 c 0,0 -0.953,8.5508 6.8608,7.9185 2.6197,-0.212 7.8164,-0.6507 7.867,-8.3427 0.0046,-0.6979 -0.0078,-1.5989 -0.8108,-2.6298 -1.0647,-1.3669 -3.5716,-1.9711 -9.9446,-1.422 10e-5,10e-5 -3.4462,-0.099 -3.9724,4.476 z"
       id="path6" />
    <polyline
       fill="none"
       stroke="#000"
       stroke-linecap="round"
       stroke-linejoin="round"
       stroke-miterlimit="10"
       stroke-width="2"
       points="18.9534,29.9307 18.5203,26.5594 22.3532,26.0317"
       id="polyline8" />
    <path
       fill="none"
       stroke="#000"
       stroke-linecap="round"
       stroke-linejoin="round"
       stroke-miterlimit="10"
       stroke-width="2"
       d="m 52.7412,30.4638 c 0,0 0.953,8.5508 -6.8608,7.9185 -2.6197,-0.212 -7.8164,-0.6507 -7.867,-8.3427 -0.0046,-0.6979 0.0078,-1.5989 0.8108,-2.6298 1.0647,-1.3669 3.5716,-1.9711 9.9446,-1.422 0,10e-5 3.4463,-0.099 3.9724,4.476 z"
       id="path10" />
    <path
       fill="none"
       stroke="#000"
       stroke-linecap="round"
       stroke-linejoin="round"
       stroke-miterlimit="10"
       stroke-width="2"
       d="m 31.5048,26.4158 c 0,0 4.1241,2.5339 8.6569,0"
       id="path12" />
    <path
       fill="none"
       stroke="#000"
       stroke-linecap="round"
       stroke-linejoin="round"
       stroke-miterlimit="10"
       stroke-width="2"
       d="m 33.5361,31.3179 c 0,0 2.2019,-3.7509 4.5362,0"
       id="path14" />
    <polyline
       fill="none"
       stroke="#000"
       stroke-linecap="round"
       stroke-linejoin="round"
       stroke-miterlimit="10"
       stroke-width="2"
       points="52.6639,29.9332 53.097,26.5619 49.2641,26.0342"
       id="polyline16" />
    <path
       fill="none"
       stroke="#000"
       stroke-linecap="round"
       stroke-linejoin="round"
       stroke-miterlimit="10"
       stroke-width="2"
       d="m 33.9549,30.0271 c 0,0 1.7954,-3.7509 3.6988,0"
       id="path18" />
  </g>
</g></svg>