<svg xmlns="http://www.w3.org/2000/svg" width="24" height="24" viewBox="0 0 24 24"> <g transform="translate(0.0 6.447760833146542) scale(0.35821009935763076)">
  
  <g
     id="line"
     transform="translate(-3.0002119,-21)">
    <path
       fill="none"
       stroke="#000"
       stroke-linecap="round"
       stroke-linejoin="round"
       stroke-miterlimit="10"
       stroke-width="2"
       d="m 40,44 c 7,1 9,1 9,1 3,0 1,6 1,6 4,-2 5,-7 5,-7 14,-2 14,-6 14,-6 0,0 -9.2393,-2.8429 -12.3191,-3.7905 C 56.2284,34.0703 55.7883,33.8802 55.3792,33.642 49.1164,29.9962 50.8462,29.877 46,26 41,22 36,22 36,22 c 4,4 3,9 3,9 -4,7 -21,6 -21,6 -4,-5 -14,-5 -14,-5 0,0 7,5 8,9 1,4 -1,8 -1,8 4,-3 7.25,-8.6667 7.25,-8.6667 L 27,42"
       id="path2" />
    <path
       fill="none"
       stroke="#000"
       stroke-linecap="round"
       stroke-linejoin="round"
       stroke-miterlimit="10"
       stroke-width="2"
       d="m 37,43 c 0,0 -2.9279,1.6684 -3.4781,3.8358 0,0 -2.594,-2.5042 -4.548,-2.0775 l 4.4581,-3.0208"
       id="path4" />
    <path
       fill="none"
       stroke="#000"
       stroke-linecap="round"
       stroke-linejoin="round"
       stroke-miterlimit="10"
       d="m 45,37 c 0,0 2,2 0,5"
       id="path6" />
    <path
       fill="none"
       stroke="#000"
       stroke-linecap="round"
       stroke-linejoin="round"
       stroke-miterlimit="10"
       d="m 47,37 c 0,0 2,2 0,5"
       id="path8" />
    <path
       fill="none"
       stroke="#000"
       stroke-linecap="round"
       stroke-linejoin="round"
       stroke-miterlimit="10"
       d="m 49,37 c 0,0 2,2 0,5"
       id="path10" />
  </g>
</g></svg>