<svg xmlns="http://www.w3.org/2000/svg" width="24" height="24" viewBox="0 0 24 24"> <g transform="translate(0.9570151302696441 0.0) scale(0.4089994396196428)">
  
  <g
     id="line"
     transform="translate(-9,-5.3202146)">
    <line
       x1="34"
       x2="40.16"
       y1="46.8801"
       y2="46.8801"
       fill="none"
       stroke="#000"
       stroke-linecap="round"
       stroke-linejoin="round"
       stroke-miterlimit="10"
       stroke-width="2"
       id="line2" />
    <path
       fill="none"
       stroke="#000"
       stroke-linecap="round"
       stroke-linejoin="round"
       stroke-miterlimit="10"
       stroke-width="2"
       d="M 33.4302,53.7609 C 37.7056,56.5623 43,53.2271 43.7606,50.0779 l 1.0825,-0.96 c 0,0 -4.7131,3.6039 -7.9674,-1.0495 0.2153,4.0063 -1.5621,5.151 -3.3756,5.7404"
       id="path4" />
    <path
       fill="none"
       stroke="#000"
       stroke-linecap="round"
       stroke-linejoin="round"
       stroke-miterlimit="10"
       stroke-width="2"
       d="m 55.1059,33.7217 c 0,0 -13.9059,5.8784 -13.2519,6.6249 13.3058,12.1032 14.3499,-4.939 13.2519,-6.6249 z"
       id="path6" />
    <line
       x1="62"
       x2="52.639999"
       y1="54.160099"
       y2="48.960098"
       fill="none"
       stroke="#000"
       stroke-linecap="round"
       stroke-linejoin="round"
       stroke-miterlimit="10"
       stroke-width="2"
       id="line8" />
    <line
       x1="57.84"
       x2="48.48"
       y1="59.3601"
       y2="54.160099"
       fill="none"
       stroke="#000"
       stroke-linecap="round"
       stroke-linejoin="round"
       stroke-miterlimit="10"
       stroke-width="2"
       id="line10" />
    <path
       fill="none"
       stroke="#000"
       stroke-linecap="round"
       stroke-linejoin="round"
       stroke-miterlimit="10"
       stroke-width="2"
       d="M 13.2916,48.0318 C 12.1744,45.2663 11.56,42.2448 11.56,39.0801 L 15.2,6.3201 26.1799,17.035 c 2.858,-1.2066 6.0013,-1.8749 9.3001,-1.8749 h 1.04 c 3.2988,0 6.4411,0.6683 9.3011,1.8749 L 56.8,6.3201 l 3.64,32.76 c 0,3.1647 -0.6144,6.1862 -1.7316,8.9517"
       id="path12" />
    <path
       fill="none"
       stroke="#000"
       stroke-linecap="round"
       stroke-linejoin="round"
       stroke-miterlimit="10"
       stroke-width="2"
       d="M 22.8253,59.3824 C 26.4968,61.6757 30.8335,63 35.48,63 h 1.04 c 4.6465,0 8.9842,-1.3243 12.6547,-3.6176"
       id="path14" />
    <path
       fill="none"
       stroke="#000"
       stroke-linecap="round"
       stroke-linejoin="round"
       stroke-miterlimit="10"
       stroke-width="2"
       d="m 16.8941,33.7217 c 0,0 12.8659,6.9184 13.2519,6.6249 C 17.3013,53.0845 15.5971,36.4872 16.8941,33.7217 Z"
       id="path16" />
    <line
       x1="10"
       x2="19.360001"
       y1="54.160099"
       y2="48.960098"
       fill="none"
       stroke="#000"
       stroke-linecap="round"
       stroke-linejoin="round"
       stroke-miterlimit="10"
       stroke-width="2"
       id="line18" />
    <line
       x1="14.16"
       x2="23.52"
       y1="59.3601"
       y2="54.160099"
       fill="none"
       stroke="#000"
       stroke-linecap="round"
       stroke-linejoin="round"
       stroke-miterlimit="10"
       stroke-width="2"
       id="line20" />
    <circle
       cx="23.52"
       cy="38.560101"
       r="2.0799999"
       id="circle22" />
    <circle
       cx="48.48"
       cy="38.560101"
       r="2.0799999"
       id="circle24" />
  </g>
</g></svg>