<svg xmlns="http://www.w3.org/2000/svg" width="24" height="24" viewBox="0 0 24 24"> <g transform="scale(0.5)">
  
  <g
     id="line"
     transform="translate(-12,-12)">
    <circle
       cx="36"
       cy="36"
       r="23"
       fill="none"
       stroke="#000"
       stroke-miterlimit="10"
       stroke-width="2"
       id="circle2" />
    <path
       fill="none"
       stroke="#000"
       stroke-miterlimit="10"
       stroke-width="2"
       d="m 31.96,31.29 c 0,2.464 -2,4.463 -4.463,4.463 -2.463,0 -4.463,-1.998 -4.463,-4.463 0,-2.462 2,-4.463 4.463,-4.463 2.463,0 4.463,2 4.463,4.463"
       id="path4" />
    <path
       d="m 28.52,32.3 c 0,1.104 -0.8965,2 -2,2 -1.1035,0 -2,-0.8955 -2,-2 0,-1.104 0.8965,-2 2,-2 1.1035,0 2,0.8965 2,2"
       id="path6" />
    <path
       fill="none"
       stroke="#000"
       stroke-miterlimit="10"
       stroke-width="2"
       d="m 51.04,32.83 c 0,3.364 -2.73,6.091 -6.091,6.091 -3.361,0 -6.091,-2.727 -6.091,-6.091 0,-3.361 2.73,-6.091 6.091,-6.091 3.361,0 6.091,2.73 6.091,6.091"
       id="path8" />
    <path
       d="m 49.04,32.1 c 0,1.508 -1.224,2.73 -2.73,2.73 -1.506,0 -2.73,-1.222 -2.73,-2.73 0,-1.506 1.224,-2.73 2.73,-2.73 1.506,0 2.73,1.224 2.73,2.73"
       id="path10" />
    <path
       fill="none"
       stroke="#000"
       stroke-linecap="round"
       stroke-linejoin="round"
       stroke-miterlimit="10"
       stroke-width="2"
       d="m 39.08,23.94 c 0.4132,-0.344 2.246,-1.792 4.909,-1.636 2.161,0.1259 3.61,1.233 4.091,1.636"
       id="path12" />
    <path
       fill="none"
       stroke="#000"
       stroke-linecap="round"
       stroke-linejoin="round"
       stroke-miterlimit="10"
       stroke-width="2"
       d="m 23,23.57 c 0.4132,-0.344 2.246,-1.792 4.909,-1.636 2.161,0.1259 3.61,1.233 4.091,1.636"
       id="path14" />
    <path
       fill="none"
       stroke="#000"
       stroke-linecap="round"
       stroke-linejoin="round"
       stroke-miterlimit="10"
       stroke-width="2"
       d="m 40.46,49.13 c 0.01,-0.01 0.01,-0.02 0.01,-0.02 1.4,-1.62 2.02,-3.37 2.18,-3.512 L 27,42.249 c 0.2275,0.472 -0.5225,6.682 4.108,8.862"
       id="path16" />
    <path
       fill="none"
       stroke="#000"
       stroke-linecap="round"
       stroke-linejoin="round"
       stroke-miterlimit="10"
       stroke-width="2"
       d="M 41.5,45.68 C 40.207,51.616 36.882,55.93 34.074,55.32 31.266,54.71 30.037,49.4 31.33,43.46"
       id="path18" />
  </g>
</g></svg>