<svg xmlns="http://www.w3.org/2000/svg" width="24" height="24" viewBox="0 0 24 24"> <g transform="translate(5.301573592322922 0.0) scale(0.45695533137877037)">
  
  <g
     id="line"
     transform="translate(-21.841179,-12.384854)">
    <path
       fill="none"
       stroke="#000"
       stroke-linecap="round"
       stroke-linejoin="round"
       stroke-miterlimit="10"
       stroke-width="2"
       d="m 41,63.9064 v -28 l 1.3665,-0.5157 C 46.4456,33.8515 49.3682,30.2202 50,25.9064 v 0 c 0.601,-4.2073 -0.4505,-7.4505 -3,-10 0,0 -1.3928,-1.3928 -3.5973,-2.435 C 42.75,13.1629 42,13.6653 42,14.3871 v 7.5193 l -2,3 h -3 -1 -3 l -2,-3 V 14.3871 C 31,13.6652 30.25,13.1629 29.5974,13.4714 27.3928,14.5136 26,15.9064 26,15.9064 c -2.5495,2.5495 -3.601,5.7927 -3,10 0.005,0.0351 0.0102,0.0702 0.0154,0.1052 0.6494,4.3283 3.72,7.9082 7.815,9.4534 L 32,35.9064 v 28"
       id="path2" />
  </g>
</g></svg>