<svg xmlns="http://www.w3.org/2000/svg" width="24" height="24" viewBox="0 0 24 24"> <g transform="translate(2.4772667886743953 0.0) scale(0.4742973709341006)">
  
  <g
     id="line"
     transform="translate(-15.825191,-10.374454)">
    <g
       id="g10">
      <path
         d="m 54.8545,60.9756 a 0.9889,0.9889 0 0 1 -0.1524,-0.0108 1,1 0 0 1 -0.8378,-1.1386 c 0.0087,-0.0576 0.8271,-5.7412 -2.1289,-9.1778 -1.4825,-1.7226 -3.711,-2.62 -6.627,-2.67 l -0.0156,0.0069 c -3.29,2.22 -5.9795,3.5908 -9.1407,3.5908 -0.0107,0 -0.122,0 -0.1328,-10e-4 -3.1338,-0.1035 -5.9423,-1.5059 -9.1591,-3.5947 a 13.8012,13.8012 0 0 0 -3.8125,0.6972 c -2.9668,0.9043 -4.335,4.7686 -4.3477,4.8077 a 15.343,15.343 0 0 0 -0.56,6.3408 1,1 0 0 1 -1.9765,0.3027 17.1466,17.1466 0 0 1 0.6435,-7.292 c 0.0713,-0.2041 1.7276,-4.875 5.6572,-6.0723 a 15.4926,15.4926 0 0 1 4.6875,-0.788 0.9965,0.9965 0 0 1 0.5489,0.164 c 3.13,2.0537 5.624,3.3448 8.3847,3.4365 2.7549,-9e-4 5.1739,-1.2744 8.2061,-3.3291 a 1.05,1.05 0 0 1 0.123,-0.0712 1.1069,1.1069 0 0 1 0.6377,-0.2 c 3.6563,0 6.4844,1.1357 8.4073,3.3769 3.5537,4.1426 2.622,10.5059 2.581,10.7754 a 0.9991,0.9991 0 0 1 -0.9859,0.8466 z M 44.6523,46.0762 Z"
         id="path2" />
      <path
         d="m 30.6523,56.877 a 1.0029,1.0029 0 0 1 -0.9238,-0.6163 l -3.7,-8.9 a 1.0004006,1.0004006 0 1 1 1.8477,-0.7676 l 3.1138,7.4909 4.041,-4.2012 a 1.0003528,1.0003528 0 0 1 1.4417,1.3872 l -5.1,5.3008 a 0.9979,0.9979 0 0 1 -0.7204,0.3062 z"
         id="path4" />
      <path
         d="m 38.3525,54.1768 a 0.9969,0.9969 0 0 1 -0.707,-0.293 L 35.0449,51.2832 A 1,1 0 1 1 36.459,49.8691 L 39.06,52.47 a 1,1 0 0 1 -0.7071,1.7071 z"
         id="path6" />
      <path
         d="m 40.9521,56.877 a 0.9982,0.9982 0 0 1 -0.7207,-0.3067 l -2.6,-2.7 a 1.0000714,1.0000714 0 0 1 1.4414,-1.3867 l 1.5459,1.6055 3.087,-7.3418 a 1.0228,1.0228 0 0 1 0.9462,-0.7207 0.9581,0.9581 0 0 1 1,0.95 v 0.1 a 0.9993,0.9993 0 0 1 -0.0781,0.3877 l -3.7,8.8007 a 1.0027,1.0027 0 0 1 -0.7383,0.5958 1.0731,1.0731 0 0 1 -0.1834,0.0162 z"
         id="path8" />
    </g>
    <path
       fill="#000"
       d="m 50.8593,59.3765 h -5.8 a 1,1 0 0 1 0,-2 h 5.8 a 0.9448,0.9448 0 0 1 1,1 1.0021,1.0021 0 0 1 -1,1 z"
       id="path12" />
    <path
       d="m 48.1345,42.6223 a 1,1 0 0 1 -0.3261,-1.9453 4.4658,4.4658 0 0 0 3.1045,-2.8877 c 0.5957,-1.9932 0.1142,-5.9087 -5.5577,-13.2491 a 1,1 0 0 1 0.18,-1.4028 0.8264,0.8264 0 0 1 1.2505,0.1717 c 4.9707,6.4316 7.104,11.5016 6.0435,15.0524 a 6.4352,6.4352 0 0 1 -4.3682,4.2061 1.0033,1.0033 0 0 1 -0.3265,0.0547 z"
       id="path14" />
    <path
       d="m 28.1808,23.065 a 0.841,0.841 0 0 1 -0.0335,0.2407 0.6824,0.6824 0 0 1 -0.0779,0.2093 c -0.0223,0.0523 -0.3552,-0.2571 -0.3886,-0.1943 -0.0111,0.0105 0.4065,-0.08 0.3953,-0.07 a 52.6931,52.6931 0 0 0 -3.5134,5.0364 c -3.0615,4.7411 -3.3064,7.5772 -2.8278,9.1994 a 4.6947,4.6947 0 0 0 3.1617,2.9935 1.0281,1.0281 0 0 1 0.6346,1.3605 1.1225,1.1225 0 0 1 -1.0354,0.6594 1.1425,1.1425 0 0 1 -0.4119,-0.0733 6.7591,6.7591 0 0 1 -4.4864,-4.3851 c -1.091,-3.7049 1.1244,-8.9693 6.59,-15.615 a 1.1316,1.1316 0 0 1 0.8238,-0.4082 h 0.0111 a 1.2774,1.2774 0 0 1 0.4008,0.0523 0.8962,0.8962 0 0 1 0.1782,0.0733 0.47,0.47 0 0 1 0.1558,0.0942 0.9147,0.9147 0 0 1 0.1781,0.1779 0.5569,0.5569 0 0 1 0.1113,0.1674 0.5225,0.5225 0 0 1 0.0891,0.1989 0.833,0.833 0 0 1 0.0451,0.2827 z"
       id="path16" />
    <path
       d="M 48.56,31.21 A 16.572,16.572 0 0 1 43.94,43.02 10.5423,10.5423 0 0 1 28.6,43.12 16.5692,16.5692 0 0 1 23.88,31.21 c 0,-0.26 0.01,-0.52 0.02,-0.78 a 15.1192,15.1192 0 0 1 0.13,-1.51 16.0793,16.0793 0 0 1 0.52,-2.61 16.2982,16.2982 0 0 1 1.06,-2.86 1,1 0 0 1 0.62,-0.52 h 0.01 a 0.1268,0.1268 0 0 1 0.06,-0.01 0.8025,0.8025 0 0 1 0.3,0.06 0.2843,0.2843 0 0 1 0.12,0.04 c 0.01,0.01 0.03,0.02 0.04,0.03 a 0.42,0.42 0 0 1 0.14,0.09 0.8519,0.8519 0 0 1 0.16,0.17 0.5372,0.5372 0 0 1 0.1,0.16 0.5167,0.5167 0 0 1 0.08,0.19 0.8423,0.8423 0 0 1 0.04,0.27 0.8524,0.8524 0 0 1 -0.03,0.23 0.6789,0.6789 0 0 1 -0.07,0.2 c -0.02,0.05 -0.05,0.1 -0.08,0.16 l -0.02,0.02 c -0.32,0.6 -2.3129,1.0664 -2.3091,2.1964 0.0017,0.5016 0.4862,1.0156 -0.0909,1.2336 0.5,-0.19 1.06,-0.41 1.67,-0.63 a 14.483,14.483 0 0 0 -0.39,2.28 c -0.05,0.53 -0.08,1.06 -0.08,1.59 0,5.23 2.41,9.76 5.89,11.89 a 8.368,8.368 0 0 0 8.99,-0.06 c 3.43,-2.14 5.8,-6.64 5.8,-11.83 a 15.9119,15.9119 0 0 0 -1.53,-6.89 7.9907,7.9907 0 0 1 -0.3725,-1.0342 1.0183,1.0183 0 0 1 0.6163,-0.9069 c 0.5,-0.24 0.8391,-0.7107 1.1162,-0.0582 0.3952,0.93 1.24,3.0093 1.51,4.0093 a 18.0156,18.0156 0 0 1 0.66,4.88 z"
       id="path18" />
    <path
       d="m 42.2233,29.8527 a 2,2 0 1 1 -2,-2 2.0007,2.0007 0 0 1 2,2 z"
       id="path20" />
    <path
       d="m 34.2233,29.8527 a 2,2 0 1 1 -2,-2 2.0007,2.0007 0 0 1 2,2 z"
       id="path22" />
    <path
       d="m 36.2232,39.8551 a 7.6528,7.6528 0 0 1 -3.4473,-0.8579 1.0001485,1.0001485 0 0 1 0.8946,-1.7891 5.3772,5.3772 0 0 0 5.1054,0 1.0001485,1.0001485 0 0 1 0.8946,1.7891 7.6528,7.6528 0 0 1 -3.4473,0.8579 z"
       id="path24" />
    <path
       d="m 45.4834,23.6934 a 1.01,1.01 0 0 1 -0.3,-0.0464 29.9057,29.9057 0 0 0 -17.794,0.0039 1,1 0 1 1 -0.5722,-1.916 31.8625,31.8625 0 0 1 18.9658,0.0039 1,1 0 0 1 -0.3,1.9546 z"
       id="path26" />
    <path
       fill="#000"
       d="m 35.4936,10.7755 c 0.02,-0.01 0.03,-0.03 0.04,-0.04 a 0.9078,0.9078 0 0 1 0.47,-0.31 0.2663,0.2663 0 0 1 0.12,-0.03 0.4954,0.4954 0 0 1 0.17,-0.02 0.4678,0.4678 0 0 1 0.17,0.02 0.2663,0.2663 0 0 1 0.12,0.03 0.8966,0.8966 0 0 1 0.36,0.19 0.7518,0.7518 0 0 1 0.15,0.16 c 1.65,1.86 5.85,2.25 7.85,2.26 0.19,0 0.36,-0.01 0.5,-0.01 a 0.9781,0.9781 0 0 1 0.73,0.27 0.9916,0.9916 0 0 1 0.31,0.72 v 8.47 a 1,1 0 0 1 -2,0 v -7.47 c -0.22,0 -0.48,-0.01 -0.76,-0.03 -2.04,-0.12 -5.36,-0.57 -7.43,-2.24 a 4.7017,4.7017 0 0 1 -0.76,-0.72 0.9943,0.9943 0 0 1 -0.04,-1.25 z"
       id="path28" />
    <path
       fill="#000"
       d="m 26.1036,22.4855 v -8.47 a 1.0224,1.0224 0 0 1 0.3,-0.72 1.0616,1.0616 0 0 1 0.74,-0.28 c 0.14,0.01 0.31,0.01 0.49,0.01 2.01,0 6.22,-0.38 7.86,-2.25 0.02,-0.01 0.03,-0.03 0.04,-0.04 a 0.9078,0.9078 0 0 1 0.47,-0.31 0.2663,0.2663 0 0 1 0.12,-0.03 0.4954,0.4954 0 0 1 0.17,-0.02 0.4678,0.4678 0 0 1 0.17,0.02 0.2663,0.2663 0 0 1 0.12,0.03 0.8966,0.8966 0 0 1 0.36,0.19 0.7518,0.7518 0 0 1 0.15,0.16 0.9943,0.9943 0 0 1 -0.04,1.25 4.7017,4.7017 0 0 1 -0.76,0.72 c -2.07,1.67 -5.39,2.12 -7.43,2.24 -0.28,0.02 -0.54,0.03 -0.76,0.03 v 7.47 a 1,1 0 0 1 -2,0 z"
       id="path30" />
    <path
       d="m 36.7693,14.9273 v 1.4419 h 1.4419 v 1.0151 h -1.4419 v 1.4419 h -1.0151 v -1.4419 h -1.4419 v -1.0151 h 1.4419 v -1.4419 h 1.0151 m 0,-1 h -1.0151 a 1,1 0 0 0 -1,1 v 0.4419 h -0.4419 a 1,1 0 0 0 -1,1 v 1.0151 a 1,1 0 0 0 1,1 h 0.4419 v 0.4419 a 1,1 0 0 0 1,1 h 1.0151 a 1,1 0 0 0 1,-1 v -0.4419 h 0.4419 a 1,1 0 0 0 1,-1 v -1.0151 a 1,1 0 0 0 -1,-1 h -0.4419 v -0.4419 a 1,1 0 0 0 -1,-1 z"
       id="path32" />
    <path
       d="m 25.2158,30.3091 a 0.9989,0.9989 0 0 1 -0.9746,-1.2222 c 0.001,-0.0493 0.001,-0.1128 0.002,-0.189 a 11.5742,11.5742 0 0 1 1.9961,-6.642 1.0021,1.0021 0 0 1 0.5039,-0.3824 c 0.2607,-0.0883 6.4521,-2.1626 11.6093,-1.51 a 1,1 0 0 1 0.542,1.7378 c -0.3095,0.2763 -7.6367,6.7856 -13.4453,8.18 a 0.9741,0.9741 0 0 1 -0.2334,0.0278 z m 0,-1 z m 2.4893,-5.6431 a 9.4243,9.4243 0 0 0 -1.419,4.2735 37.8381,37.8381 0 0 0 9.3028,-5.691 32.7557,32.7557 0 0 0 -7.8838,1.4175 z"
       id="path34" />
  </g>
</g></svg>