<svg xmlns="http://www.w3.org/2000/svg" width="24" height="24" viewBox="0 0 24 24"> <g transform="translate(0.0 6.3089060625) scale(0.375)">
  
  <g
     id="line"
     transform="translate(-4,-22)">
    <circle
       cx="19.3857"
       cy="33.0625"
       r="2.9686999"
       fill="none"
       stroke="#000"
       stroke-miterlimit="10"
       stroke-width="2"
       id="circle2" />
    <path
       fill="none"
       stroke="#000"
       stroke-linecap="round"
       stroke-linejoin="round"
       stroke-miterlimit="10"
       stroke-width="2"
       d="m 5,36 c 3,0 9,3 15,3 6,0 10,-3 16,-3 6,0 11,3 16,3 5,0 7,-3 15,-3"
       id="path4" />
    <path
       fill="none"
       stroke="#000"
       stroke-linecap="round"
       stroke-linejoin="round"
       stroke-miterlimit="10"
       stroke-width="2"
       d="M 46.0059,43.9639 C 48.0449,44.5313 50.0225,45 52,45 c 2.7441,0 4.585,-0.9043 7.0088,-1.7197"
       id="path6" />
    <path
       fill="none"
       stroke="#000"
       stroke-linecap="round"
       stroke-linejoin="round"
       stroke-miterlimit="10"
       stroke-width="2"
       d="M 12.7773,43.8867 C 15.0439,44.4883 17.5225,45 20,45 c 6,0 10,-3 16,-3"
       id="path8" />
    <path
       fill="none"
       stroke="#000"
       stroke-linecap="round"
       stroke-linejoin="round"
       stroke-miterlimit="10"
       stroke-width="2"
       d="m 26.001,50.959 c 3.208,-0.8828 6.2031,-2.084 9.999,-2.084 4.4063,0 8.2734,1.6182 11.9971,2.4775"
       id="path10" />
    <path
       fill="none"
       stroke="#000"
       stroke-linecap="round"
       stroke-linejoin="round"
       stroke-miterlimit="10"
       stroke-width="2"
       d="m 26,38 c 1,-3 0.9912,-5.9912 4,-9 2,-2 5,-6 7,-6 2,0 7,3 7,3"
       id="path12" />
    <path
       fill="none"
       stroke="#000"
       stroke-linecap="round"
       stroke-linejoin="round"
       stroke-miterlimit="10"
       stroke-width="2"
       d="m 43,37 c 0,0 -5.1572,-3.8906 -7,-5 -1.916,-1.1533 -2,-2 -2,-2"
       id="path14" />
  </g>
</g></svg>