<svg xmlns="http://www.w3.org/2000/svg" width="24" height="24" viewBox="0 0 24 24"> <g transform="translate(0.7451444346769467 0.0) scale(0.4641366269706081)">
  
  <g
     id="line"
     transform="translate(-10.964336,-10.249836)">
    <path
       fill="none"
       stroke="#000"
       stroke-linecap="round"
       stroke-linejoin="round"
       stroke-width="2"
       d="M 24.4257,43.4114 C 12.2162,40.3751 14.36,26.1412 14.36,26.1412 16.54,14.0465 24.8121,11.6049 24.8121,11.6049 a 7.7849,7.7849 0 0 1 7.0791,1.2651 v 0 A 5.8408,5.8408 0 0 0 36,14.0607 v 0 L 36.7427,14 a 1.4609,1.4609 0 0 1 1.5352,1.0947 v 0 a 3.7674,3.7674 0 0 1 -1.5918,4.0873 l -1.0747,0.7011 a 6.11,6.11 0 0 0 -1.7405,8.5144 v 0 a 3.5238,3.5238 0 0 0 2.2666,1.5019 c 0,0 14.8625,1.5365 19.8625,7.8706 a 11.1522,11.1522 0 0 1 0.9113,12.6673 c 0,0 1.1019,8.2819 -5.83,10.5215 a 5.348,5.348 0 0 0 -0.4483,-3.7531 2.0476,2.0476 0 0 1 0.235,-2.5383 4.4309,4.4309 0 0 0 1.493,-2.4527 28.0687,28.0687 0 0 0 -2.9733,0.9315 3.708,3.708 0 0 1 -3.7451,-0.7226 6.7174,6.7174 0 0 0 -5.1541,-1.9863 c 0,0 1.7062,-2.9147 7.4647,-2.1327 5.7585,0.782 4.4078,-2.63 4.4078,-2.63 0,0 -0.3665,-2.1033 -4.733,-1.8956"
       id="path2" />
    <path
       fill="none"
       stroke="#000"
       stroke-linecap="round"
       stroke-linejoin="round"
       stroke-width="2"
       d="m 23.9048,38.8321 c 0,0 7.5419,13.2884 19.8829,6.5353 0,0 2.5506,-1.4714 -1.4755,-2.6759 a 11.048,11.048 0 0 1 -5.5226,-4.516 c 0,0 -1.4144,-3.4348 -4.7145,-3.7042"
       id="path4" />
    <path
       fill="none"
       stroke="#000"
       stroke-linecap="round"
       stroke-linejoin="round"
       stroke-width="2"
       d="m 16.8894,38.3665 a 7.1455,7.1455 0 0 1 -4.5766,7.2521 0.529,0.529 0 0 0 0.0094,0.9978 c 1.5113,0.5365 4.9456,0.6609 12.1037,-3.2055"
       id="path6" />
  </g>
</g></svg>