<svg xmlns="http://www.w3.org/2000/svg" width="24" height="24" viewBox="0 0 24 24"> <g transform="translate(0.0 0.003741923650562029) scale(0.4633674262352845)">
  
  <g
     id="line"
     transform="translate(-9.880525,-10.2742)">
    <path
       fill="#000"
       stroke="none"
       d="m 47.5877,12.2742 c 3.1001,0 6.2001,1.1759 8.5519,3.5276 v 0 c 4.7035,4.7035 4.7035,12.4002 0,17.1038 L 32.52,56.5251 c -2.3518,2.3518 -5.4518,3.5277 -8.5519,3.5277 -3.1001,0 -6.2001,-1.1759 -8.5519,-3.5277 v 0 c -4.7035,-4.7035 -4.7035,-12.4002 0,-17.1038 L 39.0357,15.8018 c 2.3518,-2.3518 5.4519,-3.5276 8.552,-3.5276 m 0,-2 c -3.7741,0 -7.3135,1.4608 -9.9661,4.1134 L 14.002,38.0071 c -5.4953,5.4953 -5.4953,14.4369 0,19.9322 2.6526,2.6526 6.192,4.1135 9.9661,4.1135 3.7741,0 7.3135,-1.4608 9.9661,-4.1134 L 57.5538,34.3199 c 5.4953,-5.4953 5.4953,-14.4369 0,-19.9322 -2.6526,-2.6527 -6.192,-4.1135 -9.9661,-4.1135 z"
       id="path2" />
    <line
       x1="28.5625"
       x2="41.421902"
       y1="30.4062"
       y2="43.265598"
       fill="none"
       stroke="#000"
       stroke-linecap="round"
       stroke-miterlimit="10"
       stroke-width="2"
       id="line4" />
  </g>
</g></svg>