<svg xmlns="http://www.w3.org/2000/svg" width="24" height="24" viewBox="0 0 24 24"> <g transform="translate(0.0 0.7896423760197457) scale(0.4603852231152438)">
  
  <g
     id="line"
     transform="translate(-10.0003,-12.3001)">
    <path
       fill="none"
       stroke="#000"
       stroke-miterlimit="10"
       stroke-width="2"
       d="m 31.5,25.5689 c 0,0.1839 0,0.3678 0,0.6437 0,5.7012 -3.5862,10.3908 -8,10.3908 -4.4138,0 -8,-4.6897 -8,-10.3908 0,-0.1839 0,-0.3678 0,-0.6437"
       id="path2" />
    <path
       fill="none"
       stroke="#000"
       stroke-linecap="round"
       stroke-linejoin="round"
       stroke-width="2"
       d="m 13.9286,21.3903 c 0.5334,-7.7347 6.4011,-7.8236 9.335,-7.3791 0.2667,0.0889 1.0669,0 1.3336,0 5.3343,-0.7112 8.0014,5.3343 8.0014,8.0014 0,0.978 0.2255,3.3655 -1.1081,4.6991 0,0 -3.2483,-3.7211 -3.4261,-5.8549 0,0 -10.1352,3.8229 -10.8464,0.5334 0,0 -0.7112,2.6671 -1.3336,3.3784 0,0 -0.3288,2.0448 -0.3288,2.6671 2e-4,2e-4 -1.8937,-2.667 -1.627,-6.0454 z"
       id="path4" />
    <path
       fill="none"
       stroke="#000"
       stroke-linecap="round"
       stroke-linejoin="round"
       stroke-width="2"
       d="m 36.7244,36.7461 c -2.0402,-3.6662 -0.0693,-6.3738 1.1072,-9.3991 1.0669,-2.845 -0.1778,-4.3563 0.889,-8.0903 0.978,-3.6451 4.8898,-5.9566 9.1572,-5.9566 3.6451,0 5.3343,2.0448 5.3343,2.0448 2.7561,0.2667 4.8898,2.5782 4.9787,5.3343 0.2667,4.8009 0.7112,4.8009 2.3115,8.5349 1.0621,2.5328 0.7728,5.3659 -0.7991,7.5333"
       id="path6" />
    <path
       fill="none"
       stroke="#000"
       stroke-linejoin="round"
       stroke-miterlimit="10"
       stroke-width="2"
       d="m 41.1209,26.8135 c 0,5.3343 3.3784,9.335 7.3791,9.335 4.0007,0 7.3791,-4.0007 7.3791,-9.335 0,-3.3784 -1.3336,-5.3343 -4.0007,-8.0014 -2.6671,2.6671 -10.6686,6.0455 -10.6686,7.3791 z"
       id="path8" />
    <path
       fill="none"
       stroke="#000"
       stroke-linecap="round"
       stroke-linejoin="round"
       stroke-width="2"
       d="M 11.0003,60 V 44.9552 c 0,-3.2895 3.2918,-5.9566 6.5836,-5.9566 0.541,0.4546 1.082,0.8464 1.6232,1.1754"
       id="path10" />
    <path
       fill="none"
       stroke="#000"
       stroke-linecap="round"
       stroke-linejoin="round"
       stroke-width="2"
       d="m 52.6455,40.2424 c 0.5886,-0.3426 1.1789,-0.7573 1.7711,-1.2439 3.2918,0 6.5836,2.6671 6.5836,5.9566 V 60"
       id="path12" />
    <path
       d="m 47.25,26.5 c 0,0.7143 -0.5357,1.25 -1.25,1.25 -0.7143,0 -1.25,-0.5357 -1.25,-1.25 0,-0.7143 0.5357,-1.25 1.25,-1.25 0.7143,0 1.25,0.5357 1.25,1.25"
       id="path14" />
    <path
       d="m 52.25,26.5 c 0,0.7143 -0.5357,1.25 -1.25,1.25 -0.7143,0 -1.25,-0.5357 -1.25,-1.25 0,-0.7143 0.5357,-1.25 1.25,-1.25 0.7143,0 1.25,0.5357 1.25,1.25"
       id="path16" />
    <path
       fill="none"
       stroke="#000"
       stroke-linecap="round"
       stroke-linejoin="round"
       stroke-width="2"
       d="m 46.633,31.5332 c 1.1558,0.6223 2.5782,0.6223 3.734,0"
       id="path18" />
    <path
       d="m 22.25,26.5 c 0,0.7143 -0.5357,1.25 -1.25,1.25 -0.7143,0 -1.25,-0.5357 -1.25,-1.25 0,-0.7143 0.5357,-1.25 1.25,-1.25 0.7143,0 1.25,0.5357 1.25,1.25"
       id="path20" />
    <path
       d="m 27.25,26.5 c 0,0.7143 -0.5357,1.25 -1.25,1.25 -0.7143,0 -1.25,-0.5357 -1.25,-1.25 0,-0.7143 0.5357,-1.25 1.25,-1.25 0.7143,0 1.25,0.5357 1.25,1.25"
       id="path22" />
    <path
       fill="none"
       stroke="#000"
       stroke-linecap="round"
       stroke-linejoin="round"
       stroke-width="2"
       d="m 21.633,31.5332 c 1.1558,0.6223 2.5782,0.6223 3.734,0"
       id="path24" />
    <path
       d="m 48.0979,45.7015 c 0.0333,0.4958 -0.3417,0.9247 -0.8377,0.958 -0.4959,0.0333 -0.9249,-0.3417 -0.9582,-0.8375 -0.0333,-0.4958 0.3417,-0.9247 0.8377,-0.958 0.0201,-0.0014 0.0402,-0.002 0.0604,-0.002 0.4796,-0.0155 0.8813,0.3601 0.8978,0.8395 z"
       id="path26" />
    <path
       fill="none"
       stroke="#000"
       stroke-linecap="round"
       stroke-linejoin="round"
       stroke-width="1.6"
       d="m 44.1639,49.1857 c 0.7749,0.6425 1.8974,0.6425 2.6723,0"
       id="path28" />
    <path
       fill="none"
       stroke="#000"
       stroke-miterlimit="10"
       stroke-width="1.6"
       d="m 51.0438,48.407 c -0.8139,2.8267 -3.0002,4.4219 -5.5441,4.4219 h 6e-4 c -2.5439,0 -4.7302,-1.5952 -5.5441,-4.4219"
       id="path30" />
    <path
       d="m 43.7999,44.862 c 0.0201,0 0.0403,7e-4 0.0604,0.002 0.4959,0.0333 0.871,0.4622 0.8377,0.958 -0.0333,0.4958 -0.4623,0.8707 -0.9582,0.8375 -0.4959,-0.0333 -0.871,-0.4622 -0.8377,-0.958 0.0165,-0.4794 0.4182,-0.855 0.8978,-0.8395 z"
       id="path32" />
    <path
       fill="none"
       stroke="#000"
       stroke-linecap="round"
       stroke-linejoin="round"
       stroke-width="1.6"
       d="M 17,60.2 V 58.4667 C 17,56 19.5018,54 22.0036,54 c 2.9751,2.4667 5.9502,2.4667 8.9929,0 C 33.4982,54 36,56 36,58.4667 V 60.2"
       id="path34" />
    <path
       fill="none"
       stroke="#000"
       stroke-linecap="round"
       stroke-linejoin="round"
       stroke-width="1.6"
       d="M 36.0003,60.2 V 58.4667 C 36.0003,56 38.5021,54 41.0039,54 c 2.9751,2.4667 5.9502,2.4667 8.9929,0 2.5018,0 5.0036,2 5.0036,4.4667 V 60.2"
       id="path36" />
    <path
       d="m 29.0979,45.7015 c 0.0333,0.4958 -0.3417,0.9247 -0.8377,0.958 -0.4959,0.0333 -0.9249,-0.3417 -0.9582,-0.8375 -0.0333,-0.4958 0.3417,-0.9247 0.8377,-0.958 0.0201,-0.0014 0.0402,-0.002 0.0604,-0.002 0.4796,-0.0155 0.8813,0.3601 0.8978,0.8395 z"
       id="path38" />
    <path
       fill="none"
       stroke="#000"
       stroke-linecap="round"
       stroke-linejoin="round"
       stroke-width="1.6"
       d="m 25.1639,49.1857 c 0.7749,0.6425 1.8974,0.6425 2.6723,0"
       id="path40" />
    <path
       fill="none"
       stroke="#000"
       stroke-miterlimit="10"
       stroke-width="1.6"
       d="m 32.0438,48.407 c -0.8139,2.8267 -3.0002,4.4219 -5.5441,4.4219 h 6e-4 c -2.5439,0 -4.7302,-1.5952 -5.5441,-4.4219"
       id="path42" />
    <path
       d="m 24.7999,44.862 c 0.0201,0 0.0403,7e-4 0.0604,0.002 0.4959,0.0333 0.871,0.4622 0.8377,0.958 -0.0333,0.4958 -0.4623,0.8707 -0.9582,0.8375 -0.4959,-0.0333 -0.871,-0.4622 -0.8377,-0.958 0.0165,-0.4794 0.4182,-0.855 0.8978,-0.8395 z"
       id="path44" />
    <path
       fill="none"
       stroke="#000"
       stroke-linecap="round"
       stroke-linejoin="round"
       stroke-width="1.6"
       d="m 26.5,40.7038 c 3.864,1.3703 5.567,5.8271 5.6943,9.6307 1.4225,0.308 2.8826,-0.3898 3.8057,-1.461 -0.9845,-0.8337 -1.7269,-1.9167 -2.1494,-3.1356 0.7369,-5.7252 -2.03,-9.5793 -7.3506,-8.4862 -5.3206,-1.0931 -8.0875,2.761 -7.3506,8.4862 -0.4225,1.2189 -1.1649,2.3019 -2.1494,3.1356 0.923,1.0712 2.3833,1.769 3.8057,1.461 0.1273,-3.8034 1.8302,-8.2605 5.6943,-9.6307 z"
       id="path46" />
    <path
       fill="none"
       stroke="#000"
       stroke-linecap="round"
       stroke-linejoin="round"
       stroke-width="1.6"
       d="m 45.5003,40.7038 c 3.864,1.3703 5.567,5.8271 5.6943,9.6307 1.4225,0.308 2.8826,-0.3898 3.8057,-1.461 -0.9845,-0.8337 -1.7269,-1.9167 -2.1494,-3.1356 0.7369,-5.7252 -2.03,-9.5793 -7.3506,-8.4862 -5.3206,-1.0931 -8.0875,2.761 -7.3506,8.4862 -0.4225,1.2189 -1.1649,2.3019 -2.1494,3.1356 0.923,1.0712 2.3833,1.769 3.8057,1.461 0.1273,-3.8034 1.8302,-8.2605 5.6943,-9.6307 z"
       id="path48" />
  </g>
</g></svg>