<svg xmlns="http://www.w3.org/2000/svg" width="24" height="24" viewBox="0 0 24 24"> <g transform="translate(0.09634032519412905 0.0) scale(0.46225014007623777)">
  
  <g
     id="line"
     transform="translate(-11.546956,-11.503059)">
    <path
       fill="none"
       stroke="#000"
       stroke-linecap="round"
       stroke-linejoin="round"
       stroke-miterlimit="10"
       stroke-width="2"
       d="m 31.1681,30.7313 c -0.6667,6.9167 -6.75,12.6667 -6.75,12.6667 2.209,4.8259 -1.5972,14.1425 -3.0756,17.4135 -0.3234,0.7155 -1.0347,1.1698 -1.8199,1.1698 h -3.3263 c -0.8043,0 -1.5271,-0.4876 -1.8479,-1.2252 -4.9797,-11.4476 1.903,-17.9415 1.903,-17.9415 -2.4167,-8.8333 2.4375,-11.875 2.4375,-11.875 l 2.8958,-6.3333 c 2.25,-7.1667 10.0417,-2.75 10.0417,-2.75 0,0 2.625,0.8333 5.1875,3.7708 0,0 3.4361,4.2083 13.4972,-0.6286 1.4052,-0.6755 3.1173,0.0775 4.4333,0.9135 l 1.6141,1.0253 c 3.0781,1.9552 5.2543,5.1534 5.6318,8.7804 0.2435,2.3401 -0.1842,5.0032 -2.1764,7.5344 l -0.4375,5 c 0,0 1.6601,6.8547 -0.522,11.9388 -0.3128,0.7288 -1.0548,1.1812 -1.8479,1.1724 L 54.1826,61.3319 C 53.2573,61.3216 52.4578,60.681 52.255,59.7781 51.4716,56.2889 49.9106,47.7786 52.3138,44.0021 l -2.5,-1 c 0,0 -4.125,6.875 -13.125,5.375 0,0 -6.2708,-0.9375 -7.2292,-5.0625"
       id="path2" />
    <path
       fill="none"
       stroke="#000"
       stroke-linecap="round"
       stroke-linejoin="round"
       stroke-miterlimit="10"
       stroke-width="2"
       d="M 28.7351,17.6895 27.2098,16.0229 C 20.2931,8.4812 15.9181,15.3146 15.9181,15.3146 l -0.5,2.3333 c -3.2083,3 -0.8333,5.75 -0.8333,5.75 0,0 -4.4167,4.1667 0.8333,8.1667 h 2.0833"
       id="path4" />
    <path
       fill="none"
       stroke="#000"
       stroke-linecap="round"
       stroke-linejoin="round"
       stroke-miterlimit="10"
       stroke-width="2"
       d="m 27.8139,48.5435 c 0,0 2.25,3.375 0,7.375 l 1.5088,3.0176 c 0.5453,1.0906 0.0936,2.4164 -1.0041,2.9472 L 24.991,62.423"
       id="path6" />
  </g>
</g></svg>