<svg xmlns="http://www.w3.org/2000/svg" width="24" height="24" viewBox="0 0 24 24"> <g transform="translate(0.0 0.05851479927137149) scale(0.4669994634565331)">
  
  <g
     id="line"
     transform="translate(-10.623214,-9.7583)">
    <polyline
       fill="none"
       stroke="#000"
       stroke-linecap="round"
       stroke-linejoin="round"
       stroke-miterlimit="10"
       stroke-width="2"
       points="35.4541,20.5625 35.4541,15.1018 31.1106,10.7583"
       id="polyline2" />
    <path
       fill="none"
       stroke="#000"
       stroke-linecap="round"
       stroke-linejoin="round"
       stroke-miterlimit="10"
       stroke-width="2"
       d="m 57.7417,25.5951 c 3.6482,4.9493 4.3968,13.296 1.4093,21.1329 -3.8569,10.1286 -12.4875,15.573 -19.2735,12.1633 -0.4877,-0.2459 -0.953,-0.5297 -1.3942,-0.849 -1.2846,-0.9296 -3.0462,-0.93 -4.3311,-9e-4 -0.4421,0.3197 -0.9078,0.6038 -1.396,0.8499 C 25.9591,62.301 17.3286,56.8566 13.4716,46.728 9.6147,36.6106 11.996,25.6435 18.7818,22.2338 c 3.1079,-1.5539 6.5959,-1.2633 9.838,0.4919 0,0 0.0559,0.0336 0.1677,0.0895 0.7379,0.3913 3.9128,1.9564 7.0878,1.9564 0.7267,0 1.4911,-0.0826 2.2487,-0.2145 0,0 1.1885,-0.182 2.126,-0.4632"
       id="path4" />
    <path
       fill="none"
       stroke="#000"
       stroke-linecap="round"
       stroke-linejoin="round"
       stroke-miterlimit="10"
       stroke-width="2"
       d="m 48.4527,17.2241 c 3.9562,1.3292 6.8444,5.8193 6.8444,5.8193 0,0 -5.0134,1.8354 -8.9696,0.5062 -3.9508,-1.3274 -6.8444,-5.8193 -6.8444,-5.8193 0,0 5.0188,-1.8336 8.9696,-0.5062 z"
       id="path6" />
  </g>
</g></svg>