<svg xmlns="http://www.w3.org/2000/svg" width="24" height="24" viewBox="0 0 24 24"> <g transform="translate(0.0 1.7142857142857153) scale(0.42857142857142855)">
  
  <g
     id="line"
     transform="translate(-8,-12)">
    <circle
       cx="36"
       cy="36"
       r="23"
       fill="none"
       stroke="#000"
       stroke-miterlimit="10"
       stroke-width="2"
       id="circle2" />
    <path
       fill="none"
       stroke="#000"
       stroke-linecap="round"
       stroke-linejoin="round"
       stroke-width="2"
       d="m 60,33 c 1.6569,0 3,1.7909 3,4 0,2.2091 -1.3431,4 -3,4"
       id="path4" />
    <path
       fill="none"
       stroke="#000"
       stroke-linecap="round"
       stroke-linejoin="round"
       stroke-width="2"
       d="m 12,33 c -1.6569,0 -3,1.7909 -3,4 0,2.2091 1.3431,4 3,4"
       id="path6" />
    <path
       fill="none"
       stroke="#000"
       stroke-linecap="round"
       stroke-linejoin="round"
       stroke-width="1.6"
       d="m 30.1909,45.2984 a 4.6637,4.6637 0 1 0 8.732,2.338 4.6953,4.6953 0 0 1 -0.3334,0.522"
       id="path8" />
    <path
       fill="none"
       stroke="#000"
       stroke-linecap="round"
       stroke-linejoin="round"
       stroke-width="1.6"
       d="m 30.0307,35.2045 a 3.6692,3.6692 0 1 0 -5.4566,-4.5612 3.6908,3.6908 0 0 1 0.4109,-0.262"
       id="path10" />
    <path
       fill="none"
       stroke="#000"
       stroke-linecap="round"
       stroke-linejoin="round"
       stroke-width="1.6"
       d="m 46.0094,41.45 a 0.9212,0.9212 0 0 0 1.1346,-0.6873 l 0.3727,-1.5183 a 7.5664,7.5664 0 0 0 1.7679,-8.6451 1.6806,1.6806 0 0 0 -1.242,-1.3673"
       id="path12" />
    <path
       stroke="#000"
       stroke-linecap="round"
       stroke-linejoin="round"
       stroke-width="1.6"
       d="m 45.5815,45.6005 a 0.9316,0.9316 0 0 0 0.4694,-0.612 0.9212,0.9212 0 0 0 -0.6874,-1.1345 l 0.4473,-1.822"
       id="path14" />
    <path
       fill="none"
       stroke="#000"
       stroke-linecap="round"
       stroke-linejoin="round"
       stroke-width="1.6"
       d="m 38,21 a 3,3 0 0 1 0,6"
       id="path16" />
    <path
       fill="none"
       stroke="#000"
       stroke-linecap="round"
       stroke-linejoin="round"
       stroke-width="1.6"
       d="m 38.5,37.5 a 2,2 0 0 1 0,-4"
       id="path18" />
    <path
       fill="none"
       stroke="#000"
       stroke-linecap="round"
       stroke-linejoin="round"
       stroke-width="1.6"
       d="m 25,42 a 2,2 0 0 1 0,-4"
       id="path20" />
  </g>
</g></svg>