<svg xmlns="http://www.w3.org/2000/svg" width="24" height="24" viewBox="0 0 24 24"> <g transform="scale(0.48)">
  
  <g
     id="line-supplement"
     transform="translate(-11,-11)">
    <g
       id="g14">
      <g
         id="g6">
        <path
           fill="none"
           stroke="#000"
           stroke-linecap="round"
           stroke-miterlimit="10"
           stroke-width="2"
           d="m 41.7734,19.4732 a 7.2185,7.2185 0 0 1 -5.695,9.864"
           id="path2" />
        <path
           fill="none"
           stroke="#000"
           stroke-linecap="round"
           stroke-miterlimit="10"
           stroke-width="2"
           d="m 41.7734,19.4732 a 6.0541,6.0541 0 0 1 -5.695,9.864"
           id="path4" />
      </g>
      <polygon
         stroke="#000"
         stroke-linejoin="round"
         stroke-width="2"
         points="23.166,21.533 25,20.18 22.721,20.073 22,18 21.279,20.162 19,20.18 20.834,21.533 20.146,23.706 22,22.381 23.854,23.706 "
         id="polygon8" />
      <polygon
         stroke="#000"
         stroke-linejoin="round"
         stroke-width="0.75"
         points="27.389,32.178 28,31.727 27.24,31.721 27,31 26.76,31.721 26,31.727 26.611,32.088 26.382,32.902 27,32.46 27.618,32.902 "
         id="polygon10" />
      <polygon
         stroke="#000"
         stroke-linejoin="round"
         points="52.083,25.913 53,25.237 51.86,25.138 51.5,24.147 51.14,25.228 50,25.237 50.917,25.913 50.573,27 51.5,26.337 52.427,27 "
         id="polygon12" />
    </g>
  </g>
  <g
     id="line"
     transform="translate(-11,-11)">
    <g
       id="g57">
      <line
         x1="12.9231"
         x2="59.0769"
         y1="48.038502"
         y2="48.038502"
         fill="none"
         stroke="#000"
         stroke-linecap="round"
         stroke-miterlimit="10"
         stroke-width="2"
         id="line17" />
      <line
         x1="24"
         x2="12"
         y1="36.961498"
         y2="48.038502"
         fill="none"
         stroke="#000"
         stroke-linecap="round"
         stroke-miterlimit="10"
         stroke-width="2"
         id="line19" />
      <line
         x1="24"
         x2="24"
         y1="36.961498"
         y2="60.038502"
         fill="none"
         stroke="#000"
         stroke-miterlimit="10"
         stroke-width="2"
         id="line21" />
      <line
         x1="48"
         x2="48"
         y1="60.038502"
         y2="36.961498"
         fill="none"
         stroke="#000"
         stroke-miterlimit="10"
         stroke-width="2"
         id="line23" />
      <g
         id="g29">
        <line
           x1="24"
           x2="16.6154"
           y1="41.221901"
           y2="48.038502"
           fill="none"
           stroke="#000"
           stroke-miterlimit="10"
           stroke-width="2"
           id="line25" />
        <line
           x1="24"
           x2="21.230801"
           y1="45.4823"
           y2="48.038502"
           fill="none"
           stroke="#000"
           stroke-miterlimit="10"
           stroke-width="2"
           id="line27" />
      </g>
      <line
         x1="48"
         x2="36"
         y1="36.961498"
         y2="48.038502"
         fill="none"
         stroke="#000"
         stroke-linecap="round"
         stroke-miterlimit="10"
         stroke-width="2"
         id="line31" />
      <g
         id="g37">
        <line
           x1="48"
           x2="40.615398"
           y1="41.221901"
           y2="48.038502"
           fill="none"
           stroke="#000"
           stroke-miterlimit="10"
           stroke-width="2"
           id="line33" />
        <line
           x1="48"
           x2="45.230801"
           y1="45.4823"
           y2="48.038502"
           fill="none"
           stroke="#000"
           stroke-miterlimit="10"
           stroke-width="2"
           id="line35" />
      </g>
      <line
         x1="24"
         x2="36"
         y1="36.961498"
         y2="48.038502"
         fill="none"
         stroke="#000"
         stroke-linecap="round"
         stroke-miterlimit="10"
         stroke-width="2"
         id="line39" />
      <g
         id="g45">
        <line
           x1="24"
           x2="31.3846"
           y1="41.221901"
           y2="48.038502"
           fill="none"
           stroke="#000"
           stroke-miterlimit="10"
           stroke-width="2"
           id="line41" />
        <line
           x1="24"
           x2="26.769199"
           y1="45.4823"
           y2="48.038502"
           fill="none"
           stroke="#000"
           stroke-miterlimit="10"
           stroke-width="2"
           id="line43" />
      </g>
      <line
         x1="48"
         x2="60"
         y1="36.961498"
         y2="48.038502"
         fill="none"
         stroke="#000"
         stroke-linecap="round"
         stroke-miterlimit="10"
         stroke-width="2"
         id="line47" />
      <g
         id="g53">
        <line
           x1="48"
           x2="55.384602"
           y1="41.221901"
           y2="48.038502"
           fill="none"
           stroke="#000"
           stroke-miterlimit="10"
           stroke-width="2"
           id="line49" />
        <line
           x1="48"
           x2="50.769199"
           y1="45.4823"
           y2="48.038502"
           fill="none"
           stroke="#000"
           stroke-miterlimit="10"
           stroke-width="2"
           id="line51" />
      </g>
      <rect
         x="12"
         y="12"
         rx="1"
         width="48"
         height="48"
         fill="none"
         stroke="#000"
         stroke-linejoin="round"
         stroke-width="2"
         id="rect55" />
    </g>
  </g>
</g></svg>