<svg xmlns="http://www.w3.org/2000/svg" width="24" height="24" viewBox="0 0 24 24"> <g transform="translate(1.0589384236065733 0.0) scale(0.45542438047245765)">
  
  <g
     id="line"
     transform="translate(-11.6,-8.3)">
    <path
       fill="none"
       stroke="#000"
       stroke-linecap="round"
       stroke-linejoin="round"
       stroke-miterlimit="10"
       stroke-width="2"
       d="m 46.9415,35.7854 c 0.5998,0.5178 0.9795,1.2837 0.9795,2.1382 0,1.5594 -1.2643,2.8236 -2.8235,2.8236 0,1.5593 -1.2643,2.8235 -2.8236,2.8235 -0.533,0 -1.026,-0.1564 -1.4514,-0.4131 0.1258,0.8535 -0.1304,1.7527 -0.7874,2.4096 -1.1026,1.1027 -2.8904,1.1027 -3.9929,0 -0.0461,-0.046 -0.0785,-0.0994 -0.1205,-0.1475 -0.5177,0.5924 -1.2698,0.9745 -2.1183,0.9745 -1.5593,0 -2.8236,-1.2642 -2.8236,-2.8235 0,-0.1419 0.0216,-0.278 0.0417,-0.4143 -0.4256,0.2575 -0.9195,0.4143 -1.4534,0.4143 -1.5593,0 -2.8236,-1.2642 -2.8236,-2.8235 -0.7225,0 -1.4451,-0.2758 -1.9964,-0.8271 -1.1028,-1.1026 -1.1028,-2.8904 0,-3.993"
       id="path2" />
    <path
       fill="none"
       stroke="#000"
       stroke-linecap="round"
       stroke-linejoin="round"
       stroke-miterlimit="10"
       stroke-width="2"
       d="M 16.0537,58.5598 C 13.9381,56.7262 12.6,54.0194 12.6,51.0001 c 0,-4.503 3.9885,-7.646 7.6297,-8.6534 1.3738,-0.38 2.8394,0.0319 3.7804,1.1026 C 26.2083,45.9505 30.0567,51.4447 28.6,58"
       id="path4" />
    <path
       fill="none"
       stroke="#000"
       stroke-linecap="round"
       stroke-linejoin="round"
       stroke-miterlimit="10"
       stroke-width="2"
       d="m 46.5401,25.3207 c 0.4651,1.5491 0.7195,3.2271 0.7195,4.9793 0,1.7891 -0.3386,5 -0.7492,5.077 C 40.921,32.3 33.7952,30.6251 25.3581,35.4625 24.921,34.3 24.5824,32.1215 24.5824,30.3 c 0,-1.4757 0.1804,-2.8987 0.5152,-4.2364"
       id="path6" />
    <path
       d="m 29.9208,28.9392 c 0,1.1045 0.8965,2 2,2 1.1035,0 2,-0.8955 2,-2 0,-1.1035 -0.8965,-2 -2,-2 -1.1035,0 -2,0.8965 -2,2"
       id="path8" />
    <path
       d="m 37.9208,28.9392 c 0,1.1045 0.8965,2 2,2 1.1035,0 2,-0.8955 2,-2 0,-1.1035 -0.8965,-2 -2,-2 -1.1035,0 -2,0.8965 -2,2"
       id="path10" />
    <path
       d="m 35.921,38.9416 c 1.1518,0 2.3037,-0.2861 3.4472,-0.8579 0.4942,-0.2471 0.6944,-0.8477 0.4473,-1.3418 -0.2466,-0.4937 -0.8462,-0.6943 -1.3418,-0.4473 -1.7178,0.8594 -3.3877,0.8594 -5.1055,0 -0.4946,-0.247 -1.0947,-0.0464 -1.3417,0.4473 -0.2471,0.4941 -0.0469,1.0947 0.4472,1.3418 1.1436,0.5718 2.2954,0.8579 3.4473,0.8579 z"
       id="path12" />
    <path
       fill="none"
       stroke="#000"
       stroke-linecap="round"
       stroke-linejoin="round"
       stroke-miterlimit="10"
       stroke-width="2"
       d="m 46.8175,20.3199 c -0.0737,-0.9671 -0.1899,-1.8861 -0.359,-2.7506"
       id="path14" />
    <path
       fill="none"
       stroke="#000"
       stroke-linecap="round"
       stroke-linejoin="round"
       stroke-miterlimit="10"
       stroke-width="2"
       d="M 46.7431,20.3 H 25.0989 c -0.6506,0 -1.1779,0.4175 -1.1779,0.9325 v 3.135 c 0,0.515 0.5273,0.9325 1.1779,0.9325 h 0.2961 21.3481 c 0.6505,0 1.1779,-0.4175 1.1779,-0.9325 v -3.135 c 0,-0.515 -0.5274,-0.9325 -1.1779,-0.9325 z"
       id="path16" />
    <path
       fill="none"
       stroke="#000"
       stroke-linecap="round"
       stroke-linejoin="round"
       stroke-miterlimit="10"
       stroke-width="2"
       d="M 25.0245,20.3199 C 25.5304,13.6761 30.921,9.3 35.921,9.3 c 6,0 9.0025,1.39 10.8816,2.3793 10.4928,5.524 8.7806,17.3451 7.9726,22.6407 0.0496,-0.0038 0.0952,-0.02 0.1458,-0.02 0.7418,0 1.3818,0.4086 1.7272,1.0084 0.6921,-9e-4 1.366,0.3491 1.7369,0.9916 0.3708,0.6424 0.3372,1.4011 -0.0098,2 0.347,0.5989 0.3806,1.3575 0.0098,2 -0.3709,0.6424 -1.0447,0.9924 -1.7368,0.9915 -0.3454,0.5999 -0.9855,1.0085 -1.7273,1.0085 -0.7418,0 -1.382,-0.4086 -1.7273,-1.0085 -0.6922,9e-4 -1.366,-0.3491 -1.7368,-0.9915 -0.3709,-0.6425 -0.3372,-1.4011 0.0097,-2 -0.3469,-0.5989 -0.3806,-1.3576 -0.0097,-2 0.0542,-0.094 0.127,-0.1681 0.1933,-0.2494 l -1.0313,-0.4833"
       id="path18" />
    <path
       fill="none"
       stroke="#000"
       stroke-linecap="round"
       stroke-linejoin="round"
       stroke-miterlimit="10"
       stroke-width="2"
       d="M 16.0537,58.5598 C 13.9381,56.7262 12.6,54.0194 12.6,51.0001 c 0,-4.503 3.9885,-7.646 7.6297,-8.6534 1.3738,-0.38 2.8394,0.0319 3.7804,1.1026 2.1982,2.5012 6.0466,7.9954 4.5899,14.5507 0,0 -9,-9 -11,-9"
       id="path20" />
    <path
       fill="none"
       stroke="#000"
       stroke-linecap="round"
       stroke-linejoin="round"
       stroke-miterlimit="10"
       stroke-width="2"
       d="M 25.0245,20.3199 C 25.5304,13.6761 30.921,9.3 35.921,9.3 c 6,0 9.0025,1.39 10.8816,2.3793 10.4928,5.524 8.7806,17.3451 7.9726,22.6407 0.0496,-0.0038 0.0952,-0.02 0.1458,-0.02 0.7418,0 1.3818,0.4086 1.7272,1.0084 0.6921,-9e-4 1.366,0.3491 1.7369,0.9916 0.3708,0.6424 0.3372,1.4011 -0.0098,2 0.347,0.5989 0.3806,1.3575 0.0098,2 -0.3709,0.6424 -1.0447,0.9924 -1.7368,0.9915 -0.3454,0.5999 -0.9855,1.0085 -1.7273,1.0085 -0.7418,0 -1.382,-0.4086 -1.7273,-1.0085 -0.6922,9e-4 -1.366,-0.3491 -1.7368,-0.9915 -0.3709,-0.6425 -0.3372,-1.4011 0.0097,-2 -0.3469,-0.5989 -0.3806,-1.3576 -0.0097,-2 0.0542,-0.094 0.127,-0.1681 0.1933,-0.2494 l -1.0313,-0.4833"
       id="path22" />
    <path
       fill="none"
       stroke="#000"
       stroke-linecap="round"
       stroke-linejoin="round"
       stroke-miterlimit="10"
       stroke-width="2"
       d="m 16.92,59.9981 c 0,0 -0.97,-6.3 2.49,-10.13"
       id="path24" />
    <path
       fill="none"
       stroke="#000"
       stroke-linecap="round"
       stroke-linejoin="round"
       stroke-miterlimit="10"
       stroke-width="2"
       d="m 54.8,59.9981 c 0,0 1.36,-8.85 -4.9,-11.93 -0.17,-0.08 -0.34,-0.16 -0.51,-0.24 -0.18,-0.07 -0.36,-0.14 -0.55,-0.21 -0.19,-0.06 -0.38,-0.12 -0.58,-0.18 -0.4,-0.11 -0.82,-0.2 -1.26,-0.28 -0.68,-0.1 -1.41,-0.16 -2.2,-0.16 -0.6,0.4 -1.18,0.78 -1.75,1.12 -0.2,0.12 -0.39,0.24 -0.59,0.35 -0.18,0.1 -0.36,0.2 -0.54,0.3 -0.18,0.11 -0.36,0.21 -0.54,0.3 -0.37,0.19 -0.74,0.36 -1.11,0.52 -0.37,0.16 -0.73,0.3 -1.1,0.42 -0.18,0.06 -0.36,0.12 -0.55,0.17 -0.14,0.04 -0.28,0.08 -0.42,0.11 -0.2,0.05 -0.39,0.09 -0.58,0.13 -0.06,0.01 -0.13,0.02 -0.19,0.03 -0.32,0.06 -0.65,0.1 -0.98,0.12 -0.19,0.01 -0.39,0.02 -0.59,0.02 -0.05,0 -0.09,0 -0.14,0 -0.18,0 -0.35,-0.01 -0.53,-0.03 -0.12,0 -0.24,-0.02 -0.36,-0.03 -0.18,-0.02 -0.36,-0.04 -0.54,-0.08 -0.09,-0.01 -0.19,-0.03 -0.28,-0.05 -0.18,-0.03 -0.35,-0.07 -0.53,-0.11 -0.03,-0.01 -0.07,-0.02 -0.1,-0.03 -0.1,-0.02 -0.2,-0.05 -0.3,-0.08 -0.18,-0.05 -0.36,-0.11 -0.53,-0.17 -0.37,-0.12 -0.73,-0.26 -1.1,-0.42 -1.47,-0.63 -2.94,-1.53 -4.53,-2.59 -0.12,0 -0.24,0 -0.35,0.01"
       id="path26" />
    <path
       fill="none"
       stroke="#000"
       stroke-linecap="round"
       stroke-linejoin="round"
       stroke-miterlimit="10"
       stroke-width="2"
       d="m 28.88,53.9881 c 1.24,0.48 2.59,0.81 4.04,0.98 v 5.03"
       id="path28" />
    <path
       fill="none"
       stroke="#000"
       stroke-linecap="round"
       stroke-linejoin="round"
       stroke-miterlimit="10"
       stroke-width="2"
       d="m 38.92,59.9981 v -4.91 c 5.51,-0.34 9.52,-2.79 10.98,-7.02 -0.17,-0.08 -0.34,-0.16 -0.51,-0.24 -0.18,-0.07 -0.36,-0.14 -0.55,-0.21 -0.19,-0.06 -0.38,-0.12 -0.58,-0.18 -0.4,-0.11 -0.82,-0.2 -1.26,-0.28 -0.68,-0.1 -1.41,-0.16 -2.2,-0.16 -0.6,0.4 -1.18,0.78 -1.75,1.12 -0.2,0.12 -0.39,0.24 -0.59,0.35 -0.18,0.11 -0.36,0.22 -0.54,0.3 -0.18,0.11 -0.36,0.21 -0.54,0.3 -0.37,0.19 -0.74,0.36 -1.11,0.52 -0.37,0.16 -0.73,0.3 -1.1,0.42 -0.18,0.07 -0.36,0.13 -0.55,0.17 -0.14,0.04 -0.28,0.08 -0.42,0.11 -0.2,0.05 -0.39,0.09 -0.58,0.13 -0.06,0.01 -0.13,0.02 -0.19,0.03 -0.32,0.06 -0.65,0.1 -0.98,0.12 -0.19,0.01 -0.39,0.02 -0.59,0.02 -0.05,0 -0.09,0 -0.14,0 -0.18,0 -0.35,-0.01 -0.53,-0.03 -0.12,0 -0.24,-0.02 -0.36,-0.03 -0.18,-0.02 -0.36,-0.04 -0.54,-0.08 -0.09,-0.01 -0.19,-0.03 -0.28,-0.05 -0.21,-0.04 -0.42,-0.09 -0.63,-0.14 -0.1,-0.02 -0.2,-0.05 -0.3,-0.08 -0.18,-0.05 -0.36,-0.11 -0.53,-0.17 -0.37,-0.12 -0.73,-0.26 -1.1,-0.42 -1.47,-0.63 -2.94,-1.53 -4.53,-2.59 -0.12,0 -0.24,0 -0.35,0.01"
       id="path30" />
    <path
       fill="none"
       stroke="#000"
       stroke-linecap="round"
       stroke-linejoin="round"
       stroke-miterlimit="10"
       stroke-width="2"
       d="m 12.6,51.0001 c 0,-4.503 3.9885,-7.646 7.6297,-8.6534 1.3738,-0.38 2.8394,0.0319 3.7804,1.1026 2.1982,2.5012 6.0466,7.9954 4.5899,14.5507 0,0 -9,-9 -11,-9"
       id="path32" />
  </g>
</g></svg>