<svg xmlns="http://www.w3.org/2000/svg" width="24" height="24" viewBox="0 0 24 24"> <g transform="translate(0.0 1.0927769314421774) scale(0.38645461129235836)">
  
  <g
     id="line"
     transform="translate(-3.9336,-4)">
    <path
       fill="none"
       stroke="#000"
       stroke-linecap="round"
       stroke-linejoin="round"
       stroke-width="2"
       d="m 32.823,42.7361 a 4.1445,4.1445 0 0 1 2.5225,0.8313 c 2.423,1.8508 7.6443,1.8431 10.6744,1.5713 5.5412,-0.4972 10.517,-1.1755 10.941,-8.15 l -0.4014,-7.026 1.5272,0.04 v -3.3261 c 0,0 -8.39,-7.1786 -24.0823,-1.8519 h -4.79 C 14.4422,19.7747 4.9336,26.6766 4.9336,26.6766 v 3.3261 l 1.5271,-0.04 -0.4014,7.026 c 0.424,6.9749 5.4,7.6532 10.941,8.15 3.03,0.2718 8.2514,0.2795 10.6744,-1.5713 a 4.1445,4.1445 0 0 1 2.5225,-0.8313 z"
       id="path2" />
    <path
       fill="none"
       stroke="#000"
       stroke-linecap="round"
       stroke-linejoin="round"
       stroke-width="2"
       d="m 33.9546,27.8015 a 14.5976,14.5976 0 0 1 6.4447,-1.5183 h 8.9545 a 4.0118,4.0118 0 0 1 4,4 V 37.85 a 4.0118,4.0118 0 0 1 -4,4 h -7.7713 a 8.1306,8.1306 0 0 1 -6.1448,-3.3763 l -1.7829,-2.8064 c -1.18,-1.8569 -3.1338,-1.8723 -4.3424,-0.034 l -1.89,2.8745 A 8.305,8.305 0 0 1 21.2248,41.85 h -7.5587 a 4.0118,4.0118 0 0 1 -4,-4 v -7.5668 a 4.0118,4.0118 0 0 1 4,-4 h 8.6975 a 15.4435,15.4435 0 0 1 6.5732,1.5183 5.3377,5.3377 0 0 0 5.0178,0 z"
       id="path4" />
    <path
       fill="none"
       stroke="#000"
       stroke-linecap="round"
       stroke-linejoin="round"
       stroke-width="2"
       d="m 63.0361,5 a 2,2 0 0 1 2,2 V 45.0742 A 13.4992,13.4992 0 0 1 64.543,48.81 14.708,14.708 0 0 1 57.9756,57.642 13.6886,13.6886 0 0 1 50.99,59.4463 q -0.4584,0 -0.9238,-0.0264 C 45.2889,59.1514 41.8738,57.8232 39.9139,55.4717 A 7.1491,7.1491 0 0 1 38.5,52.8037 L 36.9775,52.7871 A 2.0007,2.0007 0 0 1 35,50.7764"
       id="path6" />
  </g>
</g></svg>