<svg xmlns="http://www.w3.org/2000/svg" width="24" height="24" viewBox="0 0 24 24"> <g transform="translate(0.0 0.19560327835378288) scale(0.47376423928031425)">
  
  <g
     id="line"
     transform="translate(-10.746091,-11.078602)">
    <path
       fill="none"
       stroke="#000"
       stroke-linecap="round"
       stroke-linejoin="round"
       stroke-width="2"
       d="m 54.7167,43.9549 5.1127,10.1522 a 4.4616,4.4616 0 0 1 0.5748,1.9161 3.8914,3.8914 0 0 1 -3.8322,3.8877 H 15.5783 a 3.8091,3.8091 0 0 1 -3.8322,-3.7919 3.4544,3.4544 0 0 1 0.5748,-1.9161 l 12.1164,-23.954 a 27.5724,27.5724 0 0 1 5.8238,-1.0549 c 6.27,0 11.27,3.4679 11.27,9.0242 a 7.2344,7.2344 0 0 1 -0.2708,1.8079 c -1.1433,4.3752 -5.8742,6.3523 -7.8749,4.3843 a 5.4847,5.4847 0 0 0 0.3443,-1.6817 1.6184,1.6184 0 0 0 -1.8053,-1.8579 c -2.0769,0 -3.0454,1.8026 -3.0454,3.4662 0,2.2466 0.9875,5.0339 5.9373,5.0339 4.9498,0 12.75,-5.8 17.72,-5.7925 a 9.32,9.32 0 0 1 2.1804,0.3765 z"
       id="path2" />
    <path
       fill="none"
       stroke="#000"
       stroke-linecap="round"
       stroke-linejoin="round"
       stroke-width="2"
       d="m 32.6741,13.9649 a 3.892,3.892 0 0 1 6.7063,0 l 20.449,40.1422 a 4.4616,4.4616 0 0 1 0.5748,1.9161 3.8914,3.8914 0 0 1 -3.8322,3.8877 H 15.5783 a 3.8091,3.8091 0 0 1 -3.8322,-3.7919 3.4544,3.4544 0 0 1 0.5748,-1.9161 l 20.3532,-40.238"
       id="path4" />
  </g>
</g></svg>