<svg xmlns="http://www.w3.org/2000/svg" width="24" height="24" viewBox="0 0 24 24"> <g transform="translate(1.9150183423679934 0.0) scale(0.42382946557453116)">
  
  <g
     id="line"
     transform="translate(-12.610191,-7.7734523)">
    <path
       fill="none"
       stroke="#000"
       stroke-linecap="round"
       stroke-linejoin="round"
       stroke-miterlimit="10"
       stroke-width="2"
       d="m 55.4,33.8 c 1.2,2.7 2.2,5.2 2.2,5.2 l -4.1,1.4 c 0,0 2,9.5 -0.8,10.9 -2.8,1.4 -8.7,0.8 -13.2,-0.5"
       id="path2" />
    <path
       fill="none"
       stroke="#000"
       stroke-linecap="round"
       stroke-linejoin="round"
       stroke-miterlimit="10"
       stroke-width="2"
       d="m 15.9,22 c 1.4,-5 4.6,-9.3 9.4,-11.1 11.2,-4.5 22.3,-1.2 25.7,3.8 0.7,1 1.1,2 1.4,2.9"
       id="path4" />
    <path
       fill="none"
       stroke="#000"
       stroke-linecap="round"
       stroke-linejoin="round"
       stroke-miterlimit="10"
       stroke-width="2"
       d="m 15.3,30.1 c 0.5,4.5 2.6,8.9 6.3,12 5.1,4.3 5.3,15.5 5.3,15.5 v 5.8 h 17.2 c 0,0 1,-6.8 1.1,-10.8"
       id="path6" />
    <path
       fill="none"
       stroke="#000"
       stroke-linecap="round"
       stroke-linejoin="round"
       stroke-miterlimit="10"
       stroke-width="2"
       d="M 59.2,18 V 33.7 H 44.7 c 0,0 -8.7,-7.5 0,-16.2 h 14.5 z"
       id="path8" />
    <path
       fill="none"
       stroke="#000"
       stroke-linecap="round"
       stroke-linejoin="round"
       stroke-miterlimit="10"
       stroke-width="2"
       d="M 41.6,22 H 14.5 c 0,0 -2,6.1 0,8.1 H 42"
       id="path10" />
    <line
       x1="54.799999"
       x2="54.799999"
       y1="17.6"
       y2="33.599998"
       fill="none"
       stroke="#000"
       stroke-miterlimit="10"
       stroke-width="2"
       id="line12" />
  </g>
</g></svg>