<svg xmlns="http://www.w3.org/2000/svg" width="24" height="24" viewBox="0 0 24 24"> <g transform="translate(9.600442378854268e-7 0.0) scale(0.48002211941926287)">
  
  <g
     id="line"
     transform="translate(-11.001151,-11.001154)">
    <path
       fill="none"
       stroke="#000"
       stroke-linecap="round"
       stroke-miterlimit="10"
       stroke-width="2"
       d="m 36,16.54 c -8.293,0 -16.662,-4.3137 -16.662,-4.3137 -0.9777,-0.504 -1.3268,-0.1374 -0.7757,0.8146 0,0 5.9136,10.2144 17.4377,10.1261 11.5242,0.0883 17.4377,-10.1261 17.4377,-10.1261 0.5512,-0.952 0.2021,-1.3186 -0.7757,-0.8146 0,0 -8.3689,4.3137 -16.662,4.3137 z"
       id="path2" />
    <path
       fill="none"
       stroke="#000"
       stroke-linecap="round"
       stroke-miterlimit="10"
       stroke-width="2"
       d="m 36,55.46 c 8.2931,0 16.662,4.3137 16.662,4.3137 0.9778,0.504 1.3269,0.1374 0.7757,-0.8145 0,0 -5.9135,-10.2145 -17.4377,-10.1262 -11.5241,-0.0883 -17.4377,10.1262 -17.4377,10.1262 -0.5511,0.9519 -0.202,1.3185 0.7757,0.8145 0,0 8.369,-4.3137 16.662,-4.3137 z"
       id="path4" />
    <path
       fill="none"
       stroke="#000"
       stroke-linecap="round"
       stroke-miterlimit="10"
       stroke-width="2"
       d="m 55.46,36 c 0,-8.293 4.3137,-16.662 4.3137,-16.662 0.504,-0.9777 0.1374,-1.3268 -0.8146,-0.7756 0,0 -10.2144,5.9135 -10.1261,17.4376 -0.0883,11.5242 10.1261,17.4377 10.1261,17.4377 0.952,0.5512 1.3186,0.2021 0.8146,-0.7756 0,-2e-4 -4.3137,-8.369 -4.3137,-16.6621 z"
       id="path6" />
    <path
       fill="none"
       stroke="#000"
       stroke-linecap="round"
       stroke-miterlimit="10"
       stroke-width="2"
       d="m 16.54,36 c 0,8.2931 -4.3137,16.6621 -4.3137,16.6621 -0.504,0.9777 -0.1374,1.3268 0.8145,0.7756 0,0 10.2145,-5.9135 10.1262,-17.4377 C 23.2553,24.4759 13.0408,18.5624 13.0408,18.5624 12.0889,18.0112 11.7223,18.3603 12.2263,19.338 12.2266,19.3379 16.54,27.7069 16.54,36 Z"
       id="path8" />
  </g>
</g></svg>