<svg xmlns="http://www.w3.org/2000/svg" width="24" height="24" viewBox="0 0 24 24"> <g transform="translate(1.3540310598013097 0.0) scale(0.45953419431277037)">
  
  <g
     id="line"
     transform="translate(-15.86692,-8.5808)">
    <path
       d="m 37.5615,58.9531 c -0.5527,0 -1,-0.4472 -1,-1 v -4.4248 c -6.1631,-1.165 -10.6885,-7.7207 -10.8877,-8.0127 -0.3105,-0.456 -0.1924,-1.0781 0.2647,-1.3886 0.4541,-0.3116 1.0781,-0.1924 1.3886,0.2626 0.0459,0.0674 4.6504,6.7227 10.3321,7.2784 0.5117,0.0498 0.9023,0.4804 0.9023,0.9951 v 5.29 c 0,0.5528 -0.4472,1 -1,1 z"
       id="path2" />
    <path
       d="m 16.9932,58.9521 c -0.4844,0 -0.9102,-0.3525 -0.9864,-0.8466 -0.041,-0.2696 -0.9726,-6.6328 2.5811,-10.7754 1.9228,-2.2412 4.751,-3.377 8.4072,-3.377 0.1973,0 0.3906,0.0586 0.5547,0.168 3.1533,2.1025 5.6611,3.4102 8.3828,3.4238 2.7227,-0.0127 5.2295,-1.3213 8.3828,-3.4238 0.1641,-0.1094 0.3575,-0.168 0.5547,-0.168 1.9072,0 3.6094,0.3155 5.0596,0.9365 0.5078,0.2168 0.7432,0.8047 0.5254,1.3125 -0.2168,0.5088 -0.8086,0.7452 -1.3125,0.5254 -1.127,-0.4824 -2.4629,-0.7412 -3.9756,-0.7714 -3.3096,2.1855 -6.0274,3.5459 -9.1279,3.5878 -0.0147,10e-4 -0.0313,0.003 -0.044,10e-4 h -0.0029 c -0.0108,0 -0.0254,0 -0.0381,0 h -0.043 c -0.0136,0 -0.0283,0 -0.0381,0 h -0.0029 c -0.0185,0.002 -0.0293,0 -0.0439,-10e-4 -3.1006,-0.0419 -5.8174,-1.4023 -9.128,-3.5878 -2.8964,0.0566 -5.1103,0.9541 -6.5859,2.6689 -2.956,3.4365 -2.1377,9.1201 -2.1289,9.1777 0.083,0.545 -0.292,1.0547 -0.8379,1.1387 -0.0508,0.0078 -0.1016,0.0107 -0.1523,0.0107 z"
       id="path4" />
    <path
       d="m 49.9824,60.8076 c -0.5801,0 -1.081,-0.2265 -1.4111,-0.6387 -0.5918,-0.7382 -0.4014,-1.7626 -0.3565,-1.9599 0.0137,-0.0635 0.0342,-0.124 0.0596,-0.1836 l 3.7822,-8.6358 v -5.291 h -0.0859 c -0.5527,0 -1,-0.4472 -1,-1 0,-0.5527 0.4473,-1 1,-1 h 1.0859 c 0.5528,0 1,0.4473 1,1 v 6.5 c 0,0.1377 -0.0283,0.2744 -0.0839,0.4014 l -3.8164,8.7139 c -0.003,0.0302 -0.0049,0.0615 -0.0059,0.0927 l 10.0498,-0.0107 c -0.001,-0.0313 -0.0029,-0.0635 -0.0068,-0.0947 l -3.8155,-8.7237 c -0.0556,-0.1259 -0.084,-0.2627 -0.084,-0.4004 v -6.4785 c 0,-0.5527 0.4473,-1 1,-1 h 1.1797 c 0.5528,0 1,0.4473 1,1 0,0.5528 -0.4472,1 -1,1 h -0.1797 v 5.2696 l 3.7823,8.6464 c 0.0263,0.0586 0.0459,0.1192 0.0595,0.1827 0.045,0.1972 0.2354,1.2207 -0.3564,1.959 -0.3301,0.413 -0.832,0.6396 -1.4121,0.6396 z"
       id="path6" />
    <path
       d="m 57.2939,44.0986 h -4.2373 c -0.5527,0 -1,-0.4472 -1,-1 0,-0.5527 0.4473,-1 1,-1 h 4.2373 c 0.5528,0 1,0.4473 1,1 0,0.5528 -0.4472,1 -1,1 z"
       id="path8" />
    <path
       d="m 41.9529,27.0468 c 0,1.1046 -0.8954,2 -2,2 -1.1046,0 -2,-0.8954 -2,-2 0,-1.1046 0.8954,-2 2,-2 1.1044,4e-4 1.9996,0.8956 2,2"
       id="path10" />
    <path
       d="m 33.9529,27.0468 c 0,1.1046 -0.8954,2 -2,2 -1.1046,0 -2,-0.8954 -2,-2 0,-1.1046 0.8954,-2 2,-2 1.1044,4e-4 1.9996,0.8956 2,2"
       id="path12" />
    <path
       d="m 35.9527,37.0492 c -1.2005,-0.0116 -2.3813,-0.3055 -3.4472,-0.8579 -0.494,-0.247 -0.6943,-0.8477 -0.4473,-1.3418 0.247,-0.4941 0.8477,-0.6943 1.3418,-0.4473 1.5934,0.8593 3.5121,0.8593 5.1055,0 0.494,-0.247 1.0947,-0.0468 1.3418,0.4473 0.2471,0.4941 0.0468,1.0947 -0.4473,1.3418 -1.0659,0.5524 -2.2468,0.8463 -3.4473,0.8579 z"
       id="path14" />
    <path
       fill="none"
       stroke="#000"
       stroke-linecap="round"
       stroke-linejoin="round"
       stroke-width="2"
       d="m 26,36.5808 c -4,0 -4,-6 -4,-13 0,-7 4,-14 14,-14 10,0 14,7 14,14 0,7 0,13 -4,13"
       id="path16" />
    <path
       d="m 30.0567,33.0156 c -1.4844,0 -2.6045,-0.1816 -2.7129,-0.1992 -0.2686,-0.0449 -0.5078,-0.1992 -0.6611,-0.4248 l -4.6348,-6.8271 c -0.1582,-0.2325 -0.2109,-0.5206 -0.1455,-0.794 0.0654,-0.2734 0.2431,-0.5068 0.4892,-0.6426 0.5381,-0.2978 13.3555,-7.2046 27.2334,0.8111 0.2373,0.1367 0.4073,0.3647 0.4717,0.6308 0.0645,0.2656 0.0176,0.5464 -0.1308,0.7764 l -3.8829,6.0259 c -0.1582,0.2441 -0.415,0.4082 -0.7031,0.4482 -0.6806,0.0947 -6.3066,0.7959 -9.373,-1.2949 -1.7188,1.2119 -4.1133,1.4902 -5.9502,1.4902 z m -1.9678,-2.1123 c 1.7627,0.2149 5.5313,0.293 7.2041,-1.3799 0.3906,-0.3906 1.0234,-0.3906 1.4141,0 1.6513,1.6524 5.9384,1.5811 7.9492,1.3702 l 3.0488,-4.7315 C 37.2901,20.6631 27.4522,24.0635 24.3575,25.4063 Z"
       id="path18" />
    <path
       fill="none"
       stroke="#000"
       stroke-linejoin="round"
       stroke-width="2"
       d="m 24.9484,27.6893 c -0.0078,0.282 -0.0119,0.5789 -0.0119,0.8915 0,9 4.9365,14 11,14 5.7258,0 10.6986,-4.6514 11.0443,-13.057"
       id="path20" />
    <path
       fill="none"
       stroke="#000"
       stroke-linecap="round"
       stroke-linejoin="round"
       stroke-width="2"
       d="m 46,23.5808 c -3,-3 -7,-8 -7,-8 -4,3 -7,6 -13,7.0005 0,-2e-4 -0.2659,0.2494 -0.5317,1.1243"
       id="path22" />
  </g>
</g></svg>