<svg xmlns="http://www.w3.org/2000/svg" width="24" height="24" viewBox="0 0 24 24"> <g transform="translate(0.0 2.2963770206495067) scale(0.49484789118096933)">
  
  <g
     id="line"
     transform="translate(-10.451936,-16.959711)">
    <g
       id="line-2">
      <path
         fill="none"
         stroke="#000"
         stroke-linecap="round"
         stroke-linejoin="round"
         stroke-width="2"
         d="m 31.7786,33.8967 c 0.7345,-1.0522 1.2688,-2.2308 1.5759,-3.4767 1.0033,-3.399 2.3861,-6.4832 5.59,-8.2272 5.2732,-2.889 11.8901,-0.9562 14.7791,4.317 2.889,5.2732 0.9562,11.8901 -4.317,14.7791 -0.017,0.0093 -0.034,0.0186 -0.051,0.0278 l -18.487,10.0642 c -3.5147,1.9276 -7.9265,0.641 -9.854,-2.8737 -1.9276,-3.5147 -0.641,-7.9265 2.8737,-9.854 0.0132,-0.0072 0.0264,-0.0144 0.0397,-0.0216"
         id="path2" />
      <path
         fill="none"
         stroke="#000"
         stroke-linecap="round"
         stroke-linejoin="round"
         stroke-width="2"
         d="m 22.54,36.0818 c -4.9361,2.6699 -6.7732,8.8359 -4.1033,13.772 2.6699,4.9361 8.8359,6.7732 13.772,4.1033 0.0161,-0.0087 0.0322,-0.0174 0.0482,-0.0262 l 18.4865,-10.064 c 6.6931,-3.634 9.173,-12.0058 5.539,-18.6989 -3.634,-6.6931 -12.0058,-9.173 -18.6989,-5.539 -3.4968,1.8986 -6.0031,5.215 -6.8749,9.0973 -0.3104,1.4627 -1.0652,2.7937 -2.1611,3.811"
         id="path4" />
      <circle
         cx="44.149601"
         cy="31.754999"
         r="3.6289999"
         fill="none"
         stroke="#000"
         stroke-linecap="round"
         stroke-linejoin="round"
         stroke-width="2"
         id="circle6" />
    </g>
    <path
       fill="none"
       stroke="#000"
       stroke-linecap="round"
       stroke-linejoin="round"
       stroke-width="1.8"
       d="m 11.7766,22.34 c -0.5738,-0.5738 -0.5738,-1.504 0,-2.0778 0.5738,-0.5738 1.504,-0.5738 2.0778,0 v 0 l 14.3377,15.18 v 0 c 1.0533,-0.2837 2.49,0.2136 4.0319,1.7557 2.0507,2.0507 4.1526,4.2685 4.1526,4.2685"
       id="path9" />
    <path
       fill="none"
       stroke="#000"
       stroke-linecap="round"
       stroke-linejoin="round"
       stroke-width="1.8"
       d="M 26.5537,37.0875 11.7766,22.34"
       id="path11" />
    <path
       fill="none"
       stroke="#000"
       stroke-linecap="round"
       stroke-linejoin="round"
       stroke-width="1.8"
       d="m 32.58,45.2638 c 0,0 -2.2178,-2.102 -4.2685,-4.1527 -1.538,-1.538 -2.0367,-2.971 -1.7578,-4.0236"
       id="path13" />
    <line
       x1="34.478199"
       x2="29.4993"
       y1="43.3652"
       y2="38.386299"
       fill="none"
       stroke="#000"
       stroke-linecap="round"
       stroke-linejoin="round"
       stroke-width="1.8"
       id="line15" />
  </g>
</g></svg>