<svg xmlns="http://www.w3.org/2000/svg" width="24" height="24" viewBox="0 0 24 24"> <g transform="translate(2.7115980724565887 0.0) scale(0.3909097520500162)">
  
  <g
     id="line"
     transform="translate(-12.074512,-5.2979622)">
    <path
       fill="none"
       stroke="#000"
       stroke-linecap="round"
       stroke-linejoin="round"
       stroke-width="2.219"
       d="m 43.65,9.517 1.757,7.74 H 42.23 l 1.88,2.941 -7.828,8.286"
       id="path2" />
    <path
       fill="none"
       stroke="#000"
       stroke-linecap="round"
       stroke-linejoin="round"
       stroke-width="2.219"
       d="m 40.7,7.462 c -3.702,-1.423 -5.686,-1.496 -9.358,0"
       id="path4" />
    <line
       x1="40.349998"
       x2="45.139999"
       y1="30.370001"
       y2="30.370001"
       fill="none"
       stroke="#000"
       stroke-linecap="round"
       stroke-linejoin="round"
       stroke-width="2.219"
       id="line6" />
    <path
       fill="none"
       stroke="#000"
       stroke-linecap="round"
       stroke-linejoin="round"
       stroke-width="2.219"
       d="m 26.88,47.16 h 4.793 v 3.837 a 2.837,2.837 0 0 1 -2.837,2.837 h -1.957 v -2.87"
       id="path8" />
    <path
       fill="none"
       stroke="#000"
       stroke-linecap="round"
       stroke-linejoin="round"
       stroke-width="2.219"
       d="m 44.98,47.16 h -4.793 v 3.837 a 2.837,2.837 0 0 0 2.837,2.837 h 1.957 v -2.87"
       id="path10" />
    <path
       fill="none"
       stroke="#000"
       stroke-linecap="round"
       stroke-linejoin="round"
       stroke-width="2.219"
       d="m 31.34,7.462 c 0,0 -7.092,4.17 -8.444,6.574 -3.771,6.708 -9.712,30.98 -9.712,30.98 0,0 2.3,2.141 6.213,2.344 l 3.89,-15.82 -0.8865,31.34 c 4.346,4.067 24.16,3.111 26.87,0 l -0.8865,-31.34 3.89,15.82 c 3.72,1.048 6.213,-1.767 6.213,-1.767 0,0 -6,-25.53 -9.771,-32.24 -1.352,-2.405 -8.02,-5.901 -8.02,-5.901 0,0 -3.628,15.96 -4.679,21.02 -1.051,-5.066 -4.679,-21.02 -4.679,-21.02 z"
       id="path12" />
    <path
       fill="none"
       stroke="#000"
       stroke-linecap="round"
       stroke-linejoin="round"
       stroke-width="2.219"
       d="m 28.38,9.504 -1.748,7.753 h 3.177 l -1.88,2.941 7.828,8.286"
       id="path14" />
    <path
       fill="none"
       stroke="#000"
       stroke-linejoin="round"
       stroke-width="2.219"
       d="M 36,28.48 V 65.52"
       id="path16" />
  </g>
</g></svg>