<svg xmlns="http://www.w3.org/2000/svg" width="24" height="24" viewBox="0 0 24 24"> <g transform="translate(3.1870626884728104 0.0) scale(0.3758006020795396)">
  
  <g
     id="line"
     transform="translate(-11.2978,-4.1375256)">
    <path
       id="Bone_Line_1"
       fill="none"
       stroke="#000"
       stroke-linecap="round"
       stroke-linejoin="round"
       stroke-width="2"
       d="m 50.2264,10.0821 c 0.6267,1.0969 4.6661,-1.1327 5.8507,-0.0661 0.681,0.558 1.0898,1.3813 1.1229,2.2611 -0.0489,1.4169 -1.3473,2.2707 -2.014,2.7091 -1.0375,0.6612 -2.2559,0.9811 -3.4844,0.915 -4.1585,3.5428 -7.9978,9.8859 -9.45,12.52 -0.3905,0.7734 -0.4682,1.6674 -0.2171,2.4966 0.2935,0.9748 0.2903,2.015 -0.0092,2.988 -0.1007,0.3158 -0.8595,2.695 -2.778,2.9822 -1.0259,0.1187 -2.0459,-0.2652 -2.7389,-1.0309 -0.9009,-1.0156 -1.3047,-3.8681 -3.04,-3.6491" />
    <path
       id="Bone_Line_1-2"
       fill="none"
       stroke="#000"
       stroke-linecap="round"
       stroke-linejoin="round"
       stroke-width="2"
       d="m 37.2119,31.9643 c -0.6267,-1.0969 -4.6661,1.1327 -5.8507,0.066 -0.6811,-0.5579 -1.0902,-1.3812 -1.1233,-2.261 0.0489,-1.4169 1.3473,-2.2707 2.014,-2.7091 1.0212,-0.6646 2.2247,-0.9932 3.442,-0.94 4.1123,-3.247 7.3859,-7.433 9.5461,-12.2066 0.3745,-0.8815 0.4325,-1.8654 0.164,-2.7848 -0.2934,-0.9748 -0.2902,-2.0149 0.0093,-2.9879 0.1007,-0.3158 0.8594,-2.6951 2.778,-2.9823 1.0259,-0.1184 2.0458,0.2657 2.7387,1.0314 0.9008,1.0156 1.3046,3.8681 3.04,3.6491" />
    <path
       id="Bone_Line_1-2-2"
       fill="none"
       stroke="#000"
       stroke-linecap="round"
       stroke-linejoin="round"
       stroke-width="2"
       d="m 32.2863,40.1741 c 0.6267,1.0969 4.6661,-1.1327 5.8507,-0.066 0.681,0.558 1.0899,1.3813 1.123,2.2611 -0.0489,1.4168 -1.3473,2.2706 -2.014,2.7091 -1.0375,0.6611 -2.2559,0.9811 -3.4844,0.9149 -4.1585,3.5429 -7.9978,9.886 -9.45,12.52 -0.3905,0.7734 -0.4682,1.6675 -0.2171,2.4967 0.2935,0.9748 0.2903,2.0149 -0.0092,2.9879 -0.1007,0.3158 -0.86,2.695 -2.778,2.9822 -1.0258,0.1187 -2.0459,-0.2652 -2.7389,-1.0308 -0.9009,-1.0156 -1.3047,-3.8681 -3.04,-3.6492" />
    <path
       id="Bone_Line_1-2-3"
       fill="none"
       stroke="#000"
       stroke-linecap="round"
       stroke-linejoin="round"
       stroke-width="2"
       d="m 19.2719,62.0564 c -0.6268,-1.097 -4.6662,1.1326 -5.8508,0.066 -0.6811,-0.5579 -1.0901,-1.3813 -1.1233,-2.2611 0.0489,-1.4168 1.3473,-2.2707 2.014,-2.7091 1.0213,-0.6645 2.2247,-0.9931 3.442,-0.94 4.1121,-3.2471 7.3855,-7.4331 9.5456,-12.2067 0.3746,-0.8815 0.4325,-1.8654 0.164,-2.7848 -0.2934,-0.9749 -0.2902,-2.015 0.0093,-2.988 0.1007,-0.3158 0.86,-2.695 2.778,-2.9822 1.026,-0.1188 2.0463,0.2652 2.7393,1.0311 0.9008,1.0156 1.3046,3.8681 3.04,3.6491" />
    <polyline
       fill="none"
       stroke="#000"
       stroke-linecap="round"
       stroke-linejoin="round"
       stroke-width="2"
       points="28.005,26.658 25.061,23.258 27.832,22.231 24.133,17.96"
       id="polyline6" />
    <polyline
       fill="none"
       stroke="#000"
       stroke-linecap="round"
       stroke-linejoin="round"
       stroke-width="2"
       points="24.521,35.066 20.027,35.245 21.174,37.969 15.528,38.194"
       id="polyline8" />
    <polyline
       fill="none"
       stroke="#000"
       stroke-linecap="round"
       stroke-linejoin="round"
       stroke-width="2"
       points="25.661,30.553 21.806,28.237 21.27,31.143 16.427,28.233"
       id="polyline10" />
  </g>
</g></svg>