<svg xmlns="http://www.w3.org/2000/svg" width="24" height="24" viewBox="0 0 24 24"> <g transform="translate(3.087503265936151 0.0) scale(0.4439046728032295)">
  
  <g
     id="line"
     transform="translate(-15.802176,-7.1189541)">
    <g
       id="g10">
      <path
         d="m 16.9268,61.1846 a 0.9992,0.9992 0 0 1 -0.9864,-0.8467 17.1448,17.1448 0 0 1 0.6436,-7.291 c 0.0713,-0.2041 1.7275,-4.876 5.6582,-6.0733 a 15.4524,15.4524 0 0 1 4.6865,-0.7881 0.9962,0.9962 0 0 1 0.5488,0.1641 c 3.0411,1.9961 5.6309,3.3447 8.3848,3.4375 2.7529,-0.001 5.1729,-1.2744 8.2061,-3.3291 a 0.9028,0.9028 0 0 1 0.12,-0.0693 1.1071,1.1071 0 0 1 0.6406,-0.2032 c 3.6563,0 6.4844,1.1358 8.4072,3.377 3.5537,4.1426 2.6221,10.5059 2.5811,10.7754 a 1,1 0 0 1 -1.9766,-0.3027 c 0.0088,-0.0577 0.8272,-5.7413 -2.1289,-9.1778 -1.4814,-1.7226 -3.71,-2.62 -6.625,-2.67 l -0.0176,0.0078 c -3.292,2.22 -5.9814,3.5908 -9.1406,3.5908 -0.0107,0 -0.1221,0 -0.1328,-9e-4 -3.1367,-0.1045 -5.9443,-1.5069 -9.1592,-3.5957 a 13.9286,13.9286 0 0 0 -3.8115,0.6972 c -2.9678,0.9043 -4.335,4.77 -4.3486,4.8086 a 15.3388,15.3388 0 0 0 -0.56,6.34 0.9962,0.9962 0 0 1 -0.99,1.1494 z M 44.6289,46.2861 Z"
         id="path2" />
      <path
         d="m 30.6289,57.0859 a 1.002,1.002 0 0 1 -0.9238,-0.6162 l -3.7,-8.9 a 1.0003352,1.0003352 0 1 1 1.8476,-0.7675 l 3.1143,7.4912 4.041,-4.2 a 1,1 0 1 1 1.4412,1.3866 l -5.1,5.3 a 0.9984,0.9984 0 0 1 -0.7203,0.3059 z"
         id="path4" />
      <path
         d="m 38.3291,54.3857 a 0.9966,0.9966 0 0 1 -0.707,-0.2929 l -2.6006,-2.6 a 1,1 0 1 1 1.414,-1.4141 l 2.6006,2.6 a 1,1 0 0 1 -0.707,1.707 z"
         id="path6" />
      <path
         d="M 40.9287,57.0859 A 0.9984,0.9984 0 0 1 40.208,56.7793 l -2.6,-2.7 a 1.0003569,1.0003569 0 1 1 1.442,-1.3869 l 1.5459,1.6055 3.04,-7.23 a 1,1 0 0 1 1.9932,0.1171 v 0.1006 a 1.0007,1.0007 0 0 1 -0.0781,0.3877 l -3.7,8.8 a 1.0025,1.0025 0 0 1 -0.7383,0.5957 1.0631,1.0631 0 0 1 -0.184,0.0169 z"
         id="path8" />
    </g>
    <path
       fill="#000"
       d="m 50.8358,59.5858 h -5.8 a 1,1 0 0 1 0,-2 h 5.8 a 0.9448,0.9448 0 0 1 1,1 1.0021,1.0021 0 0 1 -1,1 z"
       id="path12" />
    <path
       fill="#000"
       d="M 46.22,10.04 A 0.9781,0.9781 0 0 0 45.49,9.77 c -0.14,0 -0.31,0.01 -0.5,0.01 -2,-0.01 -6.2,-0.4 -7.85,-2.26 A 0.7518,0.7518 0 0 0 36.99,7.36 0.8966,0.8966 0 0 0 36.63,7.17 0.2663,0.2663 0 0 0 36.51,7.14 0.4678,0.4678 0 0 0 36.34,7.12 0.4954,0.4954 0 0 0 36.17,7.14 0.2663,0.2663 0 0 0 36.05,7.17 0.9072,0.9072 0 0 0 35.58,7.48 c -0.01,0.01 -0.02,0.03 -0.04,0.04 a 7.156,7.156 0 0 1 -3.79,1.83 20.8275,20.8275 0 0 1 -4.07,0.42 c -0.18,0 -0.35,0 -0.49,-0.01 a 1.0616,1.0616 0 0 0 -0.74,0.28 1.0224,1.0224 0 0 0 -0.3,0.72 v 8.47 c 0,0.02 0.01,0.05 0.01,0.07 a 1.1943,1.1943 0 0 0 0.03,0.42 0.898,0.898 0 0 0 0.13,0.28 1.0243,1.0243 0 0 0 0.83,0.44 0.9818,0.9818 0 0 0 0.29,-0.05 29.9746,29.9746 0 0 1 17.79,0 0.9976,0.9976 0 0 0 1.18,-0.49 0.7741,0.7741 0 0 0 0.07,-0.16 0.5663,0.5663 0 0 0 0.03,-0.18 0.7561,0.7561 0 0 0 0,-0.26 0.1445,0.1445 0 0 0 0.02,-0.07 v -8.47 a 0.9916,0.9916 0 0 0 -0.31,-0.72 z m -1.69,8.09 a 31.6982,31.6982 0 0 0 -16.38,0.01 v -6.38 c 0.22,0 0.48,-0.01 0.76,-0.03 2.04,-0.12 5.36,-0.57 7.43,-2.24 2.07,1.67 5.39,2.12 7.43,2.24 0.28,0.02 0.54,0.03 0.76,0.03 z"
       id="path14" />
    <path
       d="m 36.8156,11.7122 v 1.4419 h 1.4419 v 1.0151 h -1.4419 v 1.4419 h -1.0151 v -1.4419 h -1.4419 v -1.0151 h 1.4419 v -1.4419 h 1.0151 m 0,-1 h -1.0151 a 1,1 0 0 0 -1,1 v 0.4419 h -0.4419 a 1,1 0 0 0 -1,1 v 1.0151 a 1,1 0 0 0 1,1 h 0.4419 v 0.4419 a 1,1 0 0 0 1,1 h 1.0151 a 1,1 0 0 0 1,-1 v -0.4419 h 0.4419 a 1,1 0 0 0 1,-1 v -1.0151 a 1,1 0 0 0 -1,-1 h -0.4419 v -0.4419 a 1,1 0 0 0 -1,-1 z"
       id="path16" />
    <path
       d="m 42.4412,29.07 a 2,2 0 1 1 -2,-2 2.0007,2.0007 0 0 1 2,2 z"
       id="path18" />
    <path
       d="m 34.4412,29.07 a 2,2 0 1 1 -2,-2 2.0007,2.0007 0 0 1 2,2 z"
       id="path20" />
    <path
       d="m 36.441,39.0725 a 7.6524,7.6524 0 0 1 -3.4472,-0.8579 1.0000814,1.0000814 0 1 1 0.8945,-1.789 5.3779,5.3779 0 0 0 5.1055,0 1.0000814,1.0000814 0 1 1 0.8945,1.789 7.6528,7.6528 0 0 1 -3.4473,0.8579 z"
       id="path22" />
    <path
       d="m 36.4414,45.6045 c -6.8037,0 -12.3389,-6.8066 -12.3389,-15.1733 l -0.12,-1.3726 a 1,1 0 1 1 1.9922,-0.17 l 0.124,1.4575 c 0.0039,7.3491 4.6416,13.2583 10.3428,13.2583 5.7012,0 10.3379,-5.9092 10.3379,-13.1733 q 0,-0.701 -0.0566,-1.3848 a 1.0002985,1.0002985 0 0 1 1.9941,-0.1611 q 0.0615,0.7624 0.0625,1.5459 c -1e-4,8.3668 -5.5353,15.1734 -12.338,15.1734 z"
       id="path24" />
    <path
       d="m 47.4922,30.28 a 1.9722,1.9722 0 0 1 -1.2227,-0.4365 5.2536,5.2536 0 0 1 -1.4619,-2.58 2.22,2.22 0 0 1 -0.3281,0.1455 c -1.46,0.5136 -3.2441,-0.6338 -4.4863,-1.6949 a 1.6162,1.6162 0 0 1 -0.1661,0.1343 c -1.0478,0.7451 -2.9238,0.0513 -4.6591,-0.9331 a 1.2656,1.2656 0 0 1 -0.1026,0.0977 c -0.3613,0.3134 -1.1777,1.0132 -4.9424,-1.3057 -1.01,2.0884 -2.9668,5.7114 -4.7031,6.46 A 1.0263,1.0263 0 0 1 24.0605,29.6614 C 23.9062,29.2991 23.7744,28.9373 23.665,28.5867 a 9.21,9.21 0 0 1 1.9366,-9.2832 7.1873,7.1873 0 0 1 0.7627,-0.6919 1.0000081,1.0000081 0 1 1 1.2324,1.5752 5.1257,5.1257 0 0 0 -0.5528,0.5024 7.1583,7.1583 0 0 0 -1.582,6.9043 28.9214,28.9214 0 0 0 3.3262,-5.7535 1,1 0 0 1 1.4648,-0.4228 21.1939,21.1939 0 0 0 3.0606,1.7075 1,1 0 0 1 1.5508,-0.7466 12.9951,12.9951 0 0 0 3.624,1.7793 c -0.0069,-0.0356 -0.0156,-0.0747 -0.0274,-0.1181 a 1,1 0 0 1 1.7022,-0.9292 c 1.33,1.4316 3.1074,2.6069 3.6523,2.413 0.1153,-0.0405 0.35,-0.3691 0.418,-1.3237 a 0.9989,0.9989 0 0 1 0.98,-0.9287 H 45.23 a 1,1 0 0 1 0.9941,0.895 11.2338,11.2338 0 0 0 1.0171,3.8043 5.972,5.972 0 0 0 -0.0254,-5.4331 5.8891,5.8891 0 0 0 -1.4482,-1.8711 4.3344,4.3344 0 0 0 -0.4326,-0.3213 1,1 0 1 1 1.07,-1.6894 6.5992,6.5992 0 0 1 0.6416,0.4731 8.11,8.11 0 0 1 1.5156,10.5474 c -0.0049,0.0063 -0.06,0.0879 -0.0645,0.0942 a 1.2113,1.2113 0 0 1 -0.7236,0.49 1.98,1.98 0 0 1 -0.2819,0.0202 z"
       id="path26" />
  </g>
</g></svg>