<svg xmlns="http://www.w3.org/2000/svg" width="24" height="24" viewBox="0 0 24 24"> <g transform="translate(2.4000000000000004 0.0) scale(0.48)">
  
  <g
     id="line"
     transform="translate(-16,-11)">
    <path
       d="m 41.9,30 c 0,1.1 -0.9,2 -2,2 -1.1,0 -2,-0.9 -2,-2 0,-1.1 0.9,-2 2,-2 1.1,0 2,0.9 2,2"
       id="path2" />
    <path
       d="m 33.9,30 c 0,1.1 -0.9,2 -2,2 -1.1,0 -2,-0.9 -2,-2 0,-1.1 0.9,-2 2,-2 1.1,0 2,0.9 2,2"
       id="path4" />
    <path
       fill="none"
       stroke="#000"
       stroke-linecap="round"
       stroke-linejoin="round"
       stroke-width="2"
       d="m 32.9,38.2 c 2.1,0.8 4.1,0.8 6,0"
       id="path6" />
    <path
       fill="none"
       stroke="#000"
       stroke-linecap="round"
       stroke-linejoin="round"
       stroke-width="2"
       d="m 26,38 c -3,0 -4,-7 -4,-14 0,-6 5,-12 14,-12 9,0 14,6 14,12 0,7 -1,14 -4,14"
       id="path8" />
    <path
       fill="none"
       stroke="#000"
       stroke-linecap="round"
       stroke-linejoin="round"
       stroke-width="2"
       d="m 17,60 v -3 c 0,-5 5,-9 10,-9 6,5 12,5 18,0 5,0 10,4 10,9 v 3"
       id="path10" />
    <path
       d="m 41.9,30 c 0,1.1 -0.9,2 -2,2 -1.1,0 -2,-0.9 -2,-2 0,-1.1 0.9,-2 2,-2 1.1,0 2,0.9 2,2"
       id="path12" />
    <path
       d="m 33.9,30 c 0,1.1 -0.9,2 -2,2 -1.1,0 -2,-0.9 -2,-2 0,-1.1 0.9,-2 2,-2 1.1,0 2,0.9 2,2"
       id="path14" />
    <path
       fill="none"
       stroke="#000"
       stroke-linejoin="round"
       stroke-width="2"
       d="m 24.9,31 c -0.1,8 4.9,14 11,14 6,0 11.1,-6 11.1,-14 0,-5 -3,-11 -3,-11 -8,0 -10,3 -16,1 0,0 -3,5 -3.1,10 z"
       id="path16" />
    <path
       fill="none"
       stroke="#000"
       stroke-linecap="round"
       stroke-linejoin="round"
       stroke-width="2"
       d="m 32.9,38.2 c 2.1,0.8 4.1,0.8 6,0"
       id="path18" />
  </g>
</g></svg>