<svg xmlns="http://www.w3.org/2000/svg" width="24" height="24" viewBox="0 0 24 24"> <g transform="translate(0.0 7.328072021421918) scale(0.3735990153673417)">
  
  <g
     id="line"
     transform="translate(-3.88,-32)">
    <path
       fill="none"
       stroke="#000"
       stroke-linecap="round"
       stroke-linejoin="round"
       stroke-width="2"
       d="m 19,33 a 3.416,3.416 0 0 0 -3.3141,2.9835 l -1.3718,13.033 A 2.65,2.65 0 0 0 17,52 h 38 a 2.65,2.65 0 0 0 2.6859,-2.9835 L 56.3141,35.9835 A 3.416,3.416 0 0 0 53,33 Z"
       id="path2" />
    <polyline
       fill="none"
       stroke="#000"
       stroke-linecap="round"
       stroke-linejoin="round"
       stroke-width="2"
       points="11.38 52 14.448 52 36 52"
       id="polyline4" />
    <path
       fill="none"
       stroke="#000"
       stroke-linecap="round"
       stroke-linejoin="round"
       stroke-width="2"
       d="M 36,56 H 15 A 2.4394,2.4394 0 0 1 13.18,55.4167 L 12.9411,55.1786 9.0074,47.17 4.88,47.1514"
       id="path6" />
    <polyline
       fill="none"
       stroke="#000"
       stroke-linecap="round"
       stroke-linejoin="round"
       stroke-width="2"
       points="60.62 52 57.552 52 36 52"
       id="polyline8" />
    <path
       fill="none"
       stroke="#000"
       stroke-linecap="round"
       stroke-linejoin="round"
       stroke-width="2"
       d="m 36,56 h 21 a 2.4394,2.4394 0 0 0 1.82,-0.5833 l 0.2389,-0.2381 3.934,-8.0083 4.1271,-0.0189"
       id="path10" />
  </g>
</g></svg>