<svg xmlns="http://www.w3.org/2000/svg" width="24" height="24" viewBox="0 0 24 24"> <g transform="translate(0.2888231060197537 0.0) scale(0.4587665060843717)">
  
  <g
     id="line"
     transform="translate(-10.249339,-9.7659427)">
    <path
       fill="none"
       stroke="#000"
       stroke-linecap="round"
       stroke-miterlimit="10"
       stroke-width="1.64"
       d="m 43.3689,47.0966 a 4.2988,4.2988 0 0 0 -2.3,5.6 5.5091,5.5091 0 0 0 1.7,2 l -0.1,3 c 0,0 -6.3,4.2 1.1,3.3 l 4,-3.8 v -2.7"
       id="path2" />
    <path
       fill="none"
       stroke="#000"
       stroke-linecap="round"
       stroke-miterlimit="10"
       stroke-width="1.64"
       d="m 49.7713,39.4992 a 0.5716,0.5716 0 0 0 -0.07,-0.08 c -0.01,-0.02 -0.03,-0.03 -0.04,-0.05 -6.3516,-6.9244 -16.5251,-2.5368 -17.39,-0.87 a 2.62,2.62 0 0 0 -0.28,-0.01 1.9269,1.9269 0 0 0 -0.24,0.01 4.512,4.512 0 0 0 -1.27,0.22 0.3536,0.3536 0 0 0 -0.06,0.01 c -0.15,0.05 -0.29,0.11 -0.43,0.17 a 3.5482,3.5482 0 0 0 -0.44,0.21 5.081,5.081 0 0 0 -1,0.72 c -0.06,0.05 -0.12,0.11 -0.18,0.17 0,0 -0.04,-0.04 -0.12,-0.11 -0.08,-0.06 -0.19,-0.14 -0.33,-0.25 a 9.9668,9.9668 0 0 0 -1.57,-0.95 c -0.28,-0.13 -0.58,-0.26 -0.9,-0.38 -0.17,-0.06 -0.33,-0.11 -0.51,-0.17 a 7.5208,7.5208 0 0 0 -2.78,-0.32 1.8413,1.8413 0 0 0 -0.33,0.03 6.7463,6.7463 0 0 0 -0.86,0.15 l -0.9,0.31 -1.8,0.63 -0.87,0.31 -0.43,0.15 c 0,0 -2.6,4 -5.2,4.9 a 1.1791,1.1791 0 0 0 -0.43,0.24 0.802,0.802 0 0 0 -0.23,0.86 c 0.23,0.93 1.63,2.15 3.7,2.87 0.21,0.07 0.42,0.14 0.64,0.19 0.22,0.06 0.45,0.12 0.68,0.16 q 0.33,0.075 0.69,0.12 a 11.0949,11.0949 0 0 0 3.95,-0.14 c 0,0 0.13,0.05 0.37,0.15 a 2.7837,2.7837 0 0 1 0.26,0.12 c 1.62,0.71 5.9,2.81 7.92,5.9 0.08,0.12 0.16,0.24 0.23,0.36 0.08,0.14 0.16,0.28 0.23,0.43 a 5.5213,5.5213 0 0 1 0.59,3.24 c 0,0 -2.51,1.62 -1.52,2.21 0.38,0.23 1.27,0.31 3.02,0.09 l 2,-3.9"
       id="path4" />
    <path
       fill="none"
       stroke="#000"
       stroke-linecap="round"
       stroke-miterlimit="10"
       stroke-width="1.64"
       d="m 42.7689,27.8966 a 9.9156442,9.9156442 0 0 1 13.2,-14.8 11.6021,11.6021 0 0 1 2,2.4"
       id="path6" />
    <path
       fill="none"
       stroke="#000"
       stroke-linecap="round"
       stroke-miterlimit="10"
       stroke-width="1.64"
       d="m 35.0689,53.3966 c 0,0 3.3,-1.3 5.9,-0.7"
       id="path8" />
    <path
       fill="none"
       stroke="#000"
       stroke-linecap="round"
       stroke-miterlimit="10"
       stroke-width="1.64"
       d="m 50.1689,56.0966 0.5,2.3 c 0,0 -5.3,2.9 1,2.2 l 2.6,-4.5 0.7,-6.9 a 9.9631,9.9631 0 0 0 4.5,-13.3 10.24,10.24 0 0 0 -4.6,-4.6"
       id="path10" />
    <path
       fill="none"
       stroke="#000"
       stroke-linecap="round"
       stroke-miterlimit="10"
       stroke-width="1.64"
       d="m 24.6689,53.3966 v 3.6 c 0,0 -5,2.5 -3.4,3.7 h 4 l 3,-3.1"
       id="path12" />
  </g>
</g></svg>