<svg xmlns="http://www.w3.org/2000/svg" width="24" height="24" viewBox="0 0 24 24"> <g transform="translate(0.0 0.00010355647452264805) scale(0.41422589809352534)">
  
  <g
     id="line"
     transform="translate(-7.0303,-6.9058)">
    <path
       fill="none"
       stroke="#000"
       stroke-linecap="round"
       stroke-linejoin="round"
       stroke-miterlimit="10"
       stroke-width="1.9394"
       d="m 64,35.875 c 0.001,-1.9414 -0.5752,-3.7461 -1.5576,-5.2617 0.3262,-1.7759 0.168,-3.6612 -0.5742,-5.4531 C 61.126,23.3667 59.9033,21.9199 58.416,20.895 58.0381,19.1299 57.1709,17.4487 55.7979,16.0771 54.4268,14.7036 52.7432,13.8354 50.9775,13.4575 49.9531,11.9717 48.5078,10.7505 46.7158,10.0078 44.9219,9.2646 43.0352,9.106 41.2588,9.4321 39.7422,8.4512 37.9404,7.8755 35.999,7.8755 c -1.9404,0 -3.7441,0.5762 -5.2597,1.5576 -1.7764,-0.3267 -3.6622,-0.1685 -5.4551,0.5737 -1.793,0.7432 -3.2393,1.9654 -4.2637,3.4532 -1.7656,0.3779 -3.4473,1.2451 -4.8203,2.6171 -1.3721,1.3726 -2.2402,3.0552 -2.6172,4.8218 -1.4873,1.0244 -2.709,2.4693 -3.4531,4.2622 -0.7422,1.7935 -0.9004,3.6807 -0.5723,5.458 C 8.5762,32.1348 8.001,33.9375 8,35.877 c 0,1.9414 0.5771,3.746 1.5586,5.2617 -0.3252,1.7754 -0.168,3.6621 0.5732,5.4531 0.7442,1.793 1.9668,3.2402 3.4551,4.2656 0.377,1.7647 1.2442,3.4463 2.6152,4.8184 1.3731,1.373 3.0567,2.2402 4.8223,2.6181 1.0254,1.4854 2.4697,2.7081 4.2617,3.4512 1.794,0.7432 3.6807,0.9004 5.4571,0.5733 1.5156,0.9804 3.3183,1.5566 5.2597,1.5566 1.9405,0 3.7442,-0.5762 5.2598,-1.5566 1.7754,0.3261 3.6621,0.1679 5.4551,-0.5743 1.792,-0.7431 3.2392,-1.9648 4.2636,-3.4531 1.7657,-0.3779 3.4473,-1.2451 4.8184,-2.6172 1.374,-1.373 2.2422,-3.0556 2.6191,-4.8222 1.4864,-1.0254 2.7071,-2.4698 3.4502,-4.2618 0.7432,-1.7929 0.9014,-3.6806 0.5752,-5.457 C 63.4248,39.6162 63.999,37.8145 64,35.875 Z"
       id="path2" />
    <circle
       cx="19"
       cy="35"
       r="2"
       fill="none"
       stroke="#000"
       stroke-linecap="round"
       stroke-linejoin="round"
       stroke-miterlimit="10"
       stroke-width="1.9394"
       id="circle4" />
    <circle
       cx="32"
       cy="41"
       r="2"
       fill="none"
       stroke="#000"
       stroke-linecap="round"
       stroke-linejoin="round"
       stroke-miterlimit="10"
       stroke-width="1.9394"
       id="circle6" />
    <circle
       cx="30"
       cy="51"
       r="2"
       fill="none"
       stroke="#000"
       stroke-linecap="round"
       stroke-linejoin="round"
       stroke-miterlimit="10"
       stroke-width="1.9394"
       id="circle8" />
    <circle
       cx="46"
       cy="51"
       r="2"
       fill="none"
       stroke="#000"
       stroke-linecap="round"
       stroke-linejoin="round"
       stroke-miterlimit="10"
       stroke-width="1.9394"
       id="circle10" />
    <circle
       cx="52"
       cy="36"
       r="2"
       fill="none"
       stroke="#000"
       stroke-linecap="round"
       stroke-linejoin="round"
       stroke-miterlimit="10"
       stroke-width="1.9394"
       id="circle12" />
    <circle
       cx="48"
       cy="21"
       r="2"
       fill="none"
       stroke="#000"
       stroke-linecap="round"
       stroke-linejoin="round"
       stroke-miterlimit="10"
       stroke-width="1.9394"
       id="circle14" />
    <circle
       cx="32"
       cy="22"
       r="2"
       fill="none"
       stroke="#000"
       stroke-linecap="round"
       stroke-linejoin="round"
       stroke-miterlimit="10"
       stroke-width="1.9394"
       id="circle16" />
  </g>
</g></svg>