<svg xmlns="http://www.w3.org/2000/svg" width="24" height="24" viewBox="0 0 24 24"> <g transform="translate(-1.7763568394002505e-15 1.3036437904263742) scale(0.5647065865752727)">
  
  <g
     id="line"
     transform="translate(-14.750052,-17.057119)">
    <path
       fill="none"
       stroke="#000"
       stroke-linecap="round"
       stroke-linejoin="round"
       stroke-width="2"
       d="M 56.25,31.99 H 28.41 v 8.067 l -12.66,-11 12.66,-11 v 8.066 h 27.84 v 5.867"
       id="path2" />
    <path
       fill="none"
       stroke="#000"
       stroke-linecap="round"
       stroke-linejoin="round"
       stroke-width="2"
       d="m 34.99,53.94 -4.1,-10 c 0,0 -4.09,10 -4.09,10"
       id="path4" />
    <path
       fill="none"
       stroke="#000"
       stroke-linecap="round"
       stroke-linejoin="round"
       stroke-width="2"
       d="m 28.16,51.54 h 5.47"
       id="path6" />
    <path
       fill="none"
       stroke="#000"
       stroke-linecap="round"
       stroke-linejoin="round"
       stroke-width="2"
       d="m 48.64,44.38 v 9.56"
       id="path8" />
    <path
       fill="none"
       stroke="#000"
       stroke-linecap="round"
       stroke-linejoin="round"
       stroke-width="2"
       d="m 48.64,50.58 c 0,0 5.47,-6.2 5.47,-6.2"
       id="path10" />
    <path
       fill="none"
       stroke="#000"
       stroke-linecap="round"
       stroke-linejoin="round"
       stroke-width="2"
       d="m 51.27,47.59 3.28,6.35"
       id="path12" />
    <path
       fill="none"
       stroke="#000"
       stroke-linecap="round"
       stroke-linejoin="round"
       stroke-width="2"
       d="m 44.76,53.04 c -0.6237,0.5544 -1.43,0.86 -2.264,0.8589 v 0 c -0.9054,2.65e-4 -1.774,-0.3592 -2.414,-0.9993 -0.6403,-0.6401 -1,-1.508 -1,-2.414 v -2.731 c 5.52e-4,-1.885 1.528,-3.412 3.413,-3.413 v 0 c 0.8345,-0.0012 1.64,0.3046 2.264,0.8591"
       id="path14" />
    <path
       fill="none"
       stroke="#000"
       stroke-linecap="round"
       stroke-linejoin="round"
       stroke-width="2"
       d="m 21.43,49.1 h -3.645 v -4.761 h 3.645 c 1.315,0 2.38,1.065 2.381,2.38 v 0 c 2.65e-4,0.6316 -0.2505,1.237 -0.6971,1.684 -0.4466,0.447 -1.052,0.6974 -1.684,0.6971 v 0"
       id="path16" />
    <path
       fill="none"
       stroke="#000"
       stroke-linecap="round"
       stroke-linejoin="round"
       stroke-width="2"
       d="m 21.43,53.86 h -3.645 v -4.761 h 3.645 c 1.314,5.52e-4 2.379,1.066 2.38,2.38 v 0 c 0,1.315 -1.065,2.38 -2.38,2.381 v 0"
       id="path18" />
  </g>
</g></svg>