<svg xmlns="http://www.w3.org/2000/svg" width="24" height="24" viewBox="0 0 24 24"> <g transform="translate(2.6431821440930374 0.0) scale(0.466218162204525)">
  
  <g
     id="line"
     transform="translate(-16.156226,-10.374454)">
    <path
       d="m 48.2278,42.6223 a 1,1 0 0 1 -0.3261,-1.9453 4.466,4.466 0 0 0 3.1045,-2.8877 c 0.5957,-1.9932 0.1142,-5.9087 -5.5578,-13.2491 a 1,1 0 0 1 0.18,-1.4028 0.8264,0.8264 0 0 1 1.25,0.1717 c 4.9707,6.4316 7.104,11.5016 6.0436,15.0524 a 6.4354,6.4354 0 0 1 -4.3682,4.2061 1.0038,1.0038 0 0 1 -0.326,0.0547 z"
       id="path2" />
    <path
       d="m 28.274,23.065 a 0.841,0.841 0 0 1 -0.0334,0.2407 0.6826,0.6826 0 0 1 -0.078,0.2093 c -0.0223,0.0523 -0.3552,-0.2571 -0.3886,-0.1943 -0.0111,0.0105 0.4065,-0.08 0.3953,-0.07 a 52.7113,52.7113 0 0 0 -3.5134,5.0364 c -3.0615,4.7411 -3.3064,7.5772 -2.8277,9.1994 A 4.6943,4.6943 0 0 0 24.99,40.48 1.0281,1.0281 0 0 1 25.6245,41.8405 1.1225,1.1225 0 0 1 24.589,42.5 1.1428,1.1428 0 0 1 24.1771,42.4267 6.7593,6.7593 0 0 1 19.6907,38.0416 c -1.0909,-3.7049 1.1244,-8.9693 6.59,-15.615 a 1.1316,1.1316 0 0 1 0.8238,-0.4082 h 0.0112 a 1.2772,1.2772 0 0 1 0.4007,0.0523 0.8962,0.8962 0 0 1 0.1782,0.0733 0.4718,0.4718 0 0 1 0.1559,0.0942 0.9169,0.9169 0 0 1 0.178,0.1779 0.555,0.555 0 0 1 0.1113,0.1674 0.5225,0.5225 0 0 1 0.0891,0.1989 0.8306,0.8306 0 0 1 0.0451,0.2826 z"
       id="path4" />
    <path
       d="m 48.6532,31.21 a 16.572,16.572 0 0 1 -4.62,11.81 10.5423,10.5423 0 0 1 -15.34,0.1 16.5692,16.5692 0 0 1 -4.72,-11.91 c 0,-0.26 0.01,-0.52 0.02,-0.78 a 15.09,15.09 0 0 1 0.13,-1.51 16.0685,16.0685 0 0 1 0.52,-2.61 16.2982,16.2982 0 0 1 1.06,-2.86 1,1 0 0 1 0.62,-0.52 h 0.01 a 0.127,0.127 0 0 1 0.06,-0.01 0.8025,0.8025 0 0 1 0.3,0.06 0.2843,0.2843 0 0 1 0.12,0.04 c 0.01,0.01 0.03,0.02 0.04,0.03 a 0.42,0.42 0 0 1 0.14,0.09 0.8519,0.8519 0 0 1 0.16,0.17 0.5372,0.5372 0 0 1 0.1,0.16 0.5167,0.5167 0 0 1 0.08,0.19 0.8424,0.8424 0 0 1 0.04,0.27 0.8524,0.8524 0 0 1 -0.03,0.23 0.6789,0.6789 0 0 1 -0.07,0.2 c -0.02,0.05 -0.05,0.1 -0.08,0.16 l -0.02,0.02 c -0.32,0.6 -2.3129,1.0664 -2.3091,2.1964 0.0017,0.5016 0.4862,1.0156 -0.0909,1.2336 0.5,-0.19 1.06,-0.41 1.67,-0.63 a 14.4945,14.4945 0 0 0 -0.39,2.28 c -0.05,0.53 -0.08,1.06 -0.08,1.59 0,5.23 2.41,9.76 5.89,11.89 a 8.368,8.368 0 0 0 8.99,-0.06 c 3.43,-2.14 5.8,-6.64 5.8,-11.83 a 15.9118,15.9118 0 0 0 -1.53,-6.89 7.9764,7.9764 0 0 1 -0.3726,-1.0342 1.0183,1.0183 0 0 1 0.6163,-0.9069 c 0.5,-0.24 0.8391,-0.7107 1.1163,-0.0582 0.3951,0.93 1.24,3.0093 1.51,4.0093 a 18.0117,18.0117 0 0 1 0.66,4.88 z"
       id="path6" />
    <path
       d="m 42.3165,29.8527 a 2,2 0 1 1 -2,-2 2.0007,2.0007 0 0 1 2,2 z"
       id="path8" />
    <path
       d="m 34.3165,29.8527 a 2,2 0 1 1 -2,-2 2.0007,2.0007 0 0 1 2,2 z"
       id="path10" />
    <path
       d="m 36.3164,39.8551 a 7.6524,7.6524 0 0 1 -3.4472,-0.8579 1.0001261,1.0001261 0 0 1 0.8945,-1.7891 5.3774,5.3774 0 0 0 5.1055,0 1.0001261,1.0001261 0 1 1 0.8945,1.7891 7.6525,7.6525 0 0 1 -3.4473,0.8579 z"
       id="path12" />
    <path
       d="m 27.1963,23.6934 a 1,1 0 0 1 -0.2856,-1.9585 31.8591,31.8591 0 0 1 18.9648,0.0039 1,1 0 1 1 -0.5976,1.9082 29.9091,29.9091 0 0 0 -17.795,0.0039 0.9919,0.9919 0 0 1 -0.2866,0.0425 z"
       id="path14" />
    <path
       fill="#000"
       d="m 35.5868,10.7755 c 0.02,-0.01 0.03,-0.03 0.04,-0.04 a 0.9078,0.9078 0 0 1 0.47,-0.31 0.2663,0.2663 0 0 1 0.12,-0.03 0.4954,0.4954 0 0 1 0.17,-0.02 0.4678,0.4678 0 0 1 0.17,0.02 0.2663,0.2663 0 0 1 0.12,0.03 0.8966,0.8966 0 0 1 0.36,0.19 0.7518,0.7518 0 0 1 0.15,0.16 c 1.65,1.86 5.85,2.25 7.85,2.26 0.19,0 0.36,-0.01 0.5,-0.01 a 0.9781,0.9781 0 0 1 0.73,0.27 0.9916,0.9916 0 0 1 0.31,0.72 v 8.47 a 1,1 0 0 1 -2,0 v -7.47 c -0.22,0 -0.48,-0.01 -0.76,-0.03 -2.04,-0.12 -5.36,-0.57 -7.43,-2.24 a 4.7017,4.7017 0 0 1 -0.76,-0.72 0.9943,0.9943 0 0 1 -0.04,-1.25 z"
       id="path16" />
    <path
       fill="#000"
       d="m 26.1968,22.4855 v -8.47 a 1.0224,1.0224 0 0 1 0.3,-0.72 1.0616,1.0616 0 0 1 0.74,-0.28 c 0.14,0.01 0.31,0.01 0.49,0.01 2.01,0 6.22,-0.38 7.86,-2.25 0.02,-0.01 0.03,-0.03 0.04,-0.04 a 0.9078,0.9078 0 0 1 0.47,-0.31 0.2663,0.2663 0 0 1 0.12,-0.03 0.4954,0.4954 0 0 1 0.17,-0.02 0.4678,0.4678 0 0 1 0.17,0.02 0.2663,0.2663 0 0 1 0.12,0.03 0.8966,0.8966 0 0 1 0.36,0.19 0.7518,0.7518 0 0 1 0.15,0.16 0.9943,0.9943 0 0 1 -0.04,1.25 4.7017,4.7017 0 0 1 -0.76,0.72 c -2.07,1.67 -5.39,2.12 -7.43,2.24 -0.28,0.02 -0.54,0.03 -0.76,0.03 v 7.47 a 1,1 0 0 1 -2,0 z"
       id="path18" />
    <path
       d="m 36.8625,14.9273 v 1.4419 h 1.4419 v 1.0151 h -1.4419 v 1.4419 h -1.015 v -1.4419 h -1.442 v -1.0151 h 1.442 v -1.4419 h 1.015 m 0,-1 h -1.015 a 1,1 0 0 0 -1,1 v 0.4419 h -0.442 a 1,1 0 0 0 -1,1 v 1.0151 a 1,1 0 0 0 1,1 h 0.442 v 0.4419 a 1,1 0 0 0 1,1 h 1.015 a 1,1 0 0 0 1,-1 v -0.4419 h 0.4419 a 1,1 0 0 0 1,-1 v -1.0151 a 1,1 0 0 0 -1,-1 h -0.4419 v -0.4419 a 1,1 0 0 0 -1,-1 z"
       id="path20" />
    <path
       d="M 25.3091,30.3091 A 1,1 0 0 1 24.334,29.0879 c 0.0015,-0.0493 0.0015,-0.1128 0.0025,-0.1885 a 11.5666,11.5666 0 0 1 1.9961,-6.6435 1.0043,1.0043 0 0 1 0.5039,-0.3824 c 0.2612,-0.0883 6.4521,-2.1626 11.6093,-1.51 a 1,1 0 0 1 0.542,1.7378 c -0.3095,0.2763 -7.6372,6.7856 -13.4453,8.18 a 0.9741,0.9741 0 0 1 -0.2334,0.0278 z m 0,-1 z m 2.4893,-5.6431 a 9.4259,9.4259 0 0 0 -1.4195,4.274 37.8526,37.8526 0 0 0 9.3033,-5.6914 32.7557,32.7557 0 0 0 -7.8838,1.4174 z"
       id="path22" />
    <path
       d="m 25.01,60.8047 a 4,4 0 1 1 4,-4 4.0043,4.0043 0 0 1 -4,4 z m 0,-6 a 2,2 0 1 0 2,2 2.0023,2.0023 0 0 0 -2,-2 z"
       id="path24" />
    <path
       d="m 25.0074,54.8027 a 0.998,0.998 0 0 1 -0.9615,-0.7314 11.0631,11.0631 0 0 1 1.6079,-8.42 1.0002754,1.0002754 0 0 1 1.6827,1.082 9.0452,9.0452 0 0 0 -1.3619,6.8086 1.0022,1.0022 0 0 1 -0.7031,1.2256 1.0272,1.0272 0 0 1 -0.2641,0.0352 z"
       id="path26" />
    <path
       d="m 55.1656,60.9219 a 0.9962,0.9962 0 0 1 -0.99,-1.1494 c 0.0117,-0.0811 1.16,-8.127 -4.3134,-10.877 a 1.0001061,1.0001061 0 1 1 0.8984,-1.7871 c 6.7793,3.4053 5.4512,12.5781 5.3916,12.9668 a 0.9992,0.9992 0 0 1 -0.9866,0.8467 z"
       id="path28" />
    <path
       d="m 36.2652,51.5146 h -0.06 c -0.0146,-9e-4 -0.0293,0 -0.0439,0 -0.0146,0 -0.0274,0 -0.0411,-9e-4 -2.372,-0.0313 -4.6733,-0.8282 -7.6523,-2.6465 A 1.000063,1.000063 0 0 1 29.51,47.16 c 2.685,1.6386 4.6982,2.3447 6.7148,2.3544 a 12.27,12.27 0 0 0 6.29,-2.0986 1,1 0 0 1 1.0156,1.7227 14.37,14.37 0 0 1 -7.1963,2.375 c -0.0221,0.0011 -0.0441,2e-4 -0.0689,0.0011 z"
       id="path30" />
    <path
       d="m 17.2871,60.9219 a 0.9989,0.9989 0 0 1 -0.9868,-0.8467 c -0.0634,-0.4121 -1.4677,-10.1338 6.02,-13.2549 a 1,1 0 0 1 0.77,1.8457 c -6.0361,2.5166 -4.8252,11.0205 -4.812,11.1065 a 0.9962,0.9962 0 0 1 -0.99,1.1494 z"
       id="path32" />
    <path
       d="m 45.4624,61.8525 c -0.0322,0 -0.0654,-0.0019 -0.0986,-0.0048 a 1,1 0 0 1 -0.8975,-1.09 l 0.0713,-0.748 a 2.3039,2.3039 0 0 1 -0.667,-0.5059 c -1.3623,-1.4844 -1.0146,-4.8916 -0.9,-5.7568 -0.0166,-1.47 0.6474,-4 3.1484,-4.6651 a 6.102,6.102 0 0 0 -1.3672,-2.7529 1.0002609,1.0002609 0 1 1 1.44,-1.3887 8.933,8.933 0 0 1 2.0859,4.8965 1,1 0 0 1 -0.9629,1.084 c -2.2852,0.0762 -2.3525,2.3945 -2.3428,2.8584 a 1.0085,1.0085 0 0 1 -0.01,0.1631 11.4516,11.4516 0 0 0 0.0185,3.3027 0.9745,0.9745 0 0 1 0.8594,-0.3506 0.9988,0.9988 0 0 1 0.9,1.09 l -0.1153,1.209 a 0.9972,0.9972 0 0 1 -0.0039,0.1435 l -0.164,1.6162 a 1.0008,1.0008 0 0 1 -0.9943,0.8994 z"
       id="path34" />
    <path
       d="m 49.5054,61.8525 a 1.0006,1.0006 0 0 1 -0.9941,-0.8984 l -0.1651,-1.6162 a 1.0685,1.0685 0 0 1 -0.0039,-0.1475 l -0.1152,-1.205 a 1,1 0 0 1 0.8994,-1.0909 0.9736,0.9736 0 0 1 0.8613,0.3516 11.4551,11.4551 0 0 0 0.0186,-3.3037 1.0762,1.0762 0 0 1 -0.01,-0.168 c 0.01,-0.459 -0.0576,-2.7773 -2.3428,-2.8535 a 1,1 0 1 1 0.0665,-1.998 c 3.4365,0.1132 4.2968,3.1542 4.2773,4.8242 0.1143,0.8652 0.4619,4.2715 -0.9014,5.7558 a 2.2716,2.2716 0 0 1 -0.666,0.5069 l 0.0713,0.747 a 1,1 0 0 1 -0.8965,1.0909 c -0.033,0.0029 -0.0662,0.0048 -0.0994,0.0048 z"
       id="path36" />
    <path
       d="M 36.0074,60.9229 A 1.0016,1.0016 0 0 1 35.1148,60.376 L 29.4571,49.2432 a 1.0001477,1.0001477 0 1 1 1.7832,-0.9063 L 36.898,59.47 a 1,1 0 0 1 -0.8906,1.4532 z"
       id="path38" />
    <path
       d="m 36.0054,60.9229 a 1,1 0 0 1 -0.8867,-1.461 L 40.7759,48.56 a 1.00022,1.00022 0 0 1 1.7754,0.9218 l -5.6572,10.902 a 1,1 0 0 1 -0.8887,0.5391 z"
       id="path40" />
  </g>
</g></svg>