<svg xmlns="http://www.w3.org/2000/svg" width="24" height="24" viewBox="0 0 24 24"> <g transform="translate(4.498037244614335 0.0) scale(0.4242591449809993)">
  
  <g
     id="line"
     transform="translate(-17.1124,-8.3000002)">
    <circle
       cx="34.500301"
       cy="12.3"
       r="3"
       fill="none"
       stroke="#000"
       stroke-miterlimit="10"
       stroke-width="2"
       id="circle2" />
    <path
       fill="none"
       stroke="#000"
       stroke-linecap="round"
       stroke-linejoin="round"
       stroke-width="2"
       d="m 18.1124,23.8318 3.5276,4.0037 c 1.7159,2.0019 3.5271,1.43 3.9085,-1.1439 l 0.3813,-2.0019 c 0.4766,-2.5738 2.4785,-4.957 4.5757,-5.1476 a 33.9985,33.9985 0 0 1 7.6261,0 c 2.0972,0.2859 4.1944,2.5738 4.5757,5.1476 l 0.3813,2.0019 c 0.4767,2.5738 2.4785,4.29 4.5757,3.7177 2.0972,-0.4766 3.8131,-0.9532 3.8131,-0.9532"
       id="path4" />
    <path
       fill="none"
       stroke="#000"
       stroke-linecap="round"
       stroke-linejoin="round"
       stroke-width="2"
       d="m 38.9891,25.4968 c -2.2879,3.3915 -0.6673,5.9109 0,7.752 a 25.7538,25.7538 0 0 1 0.8579,5.4264 c 0.572,5.814 0.9533,23.256 0.9533,23.256 a 1.6382,1.6382 0 0 1 -1.3346,1.938 1.9619,1.9619 0 0 1 -1.6206,-1.938 L 35.462,40.6132 c -0.0954,-1.0659 -0.6673,-1.938 -1.144,-1.938 -0.4767,0 -1.0486,0.8721 -1.1439,1.938 l -2.3832,21.318 a 2.4384,2.4384 0 0 1 -1.62,1.938 1.6382,1.6382 0 0 1 -1.3346,-1.938 c 0,0 0.4766,-17.2482 1.0486,-23.0622 a 39.1681,39.1681 0 0 1 0.7626,-5.7171 c 0.572,-1.8411 2.2879,-4.5543 0,-7.752"
       id="path6" />
    <path
       fill="none"
       stroke="#000"
       stroke-linecap="round"
       stroke-linejoin="round"
       stroke-width="2"
       d="m 38.4948,10.6994 c 0,0 0.6433,-0.14 0.9268,0.228 0.3339,0.4318 0.3264,1.7643 0.6877,2.4231 a 3.3629,3.3629 0 0 0 1.58,1.49"
       id="path8" />
  </g>
</g></svg>