<svg xmlns="http://www.w3.org/2000/svg" width="24" height="24" viewBox="0 0 24 24"> <g transform="translate(0.0 4.5) scale(0.375)">
  
  <g
     id="line-supplement"
     transform="translate(-4,-16)">
    <path
       stroke-width="1.849"
       d="M 5,40.5 V 55 H 31 V 40.5 Z m 13.521,2.4785 a 0.68564,0.68564 0 0 1 0.68555,0.68555 v 4.8242 h 0.20312 c 0.06459,-0.48327 0.2712,-0.91288 0.58398,-1.2344 0.36396,-0.3741 0.83888,-0.61685 1.3594,-0.77148 a 0.51863,0.51863 0 0 1 0.14648,-0.02148 0.51863,0.51863 0 0 1 0.49805,0.37109 0.51863,0.51863 0 0 1 -0.34961,0.64453 c -0.39915,0.11858 -0.71132,0.29362 -0.91211,0.5 -0.14013,0.14403 -0.21782,0.31492 -0.26562,0.51172 h 0.20508 a 0.50285,0.50285 0 0 1 0.50391,0.50195 0.50285,0.50285 0 0 1 -0.50391,0.50391 h -1.4688 v 1.2988 a 0.68564,0.68564 0 0 1 -0.68555,0.68555 0.68564,0.68564 0 0 1 -0.68555,-0.68555 v -1.2988 h -1.4707 a 0.50285,0.50285 0 0 1 -0.50195,-0.50391 0.50285,0.50285 0 0 1 0.50195,-0.50195 h 0.20117 c -0.04781,-0.1968 -0.1255,-0.36769 -0.26562,-0.51172 -0.20079,-0.20638 -0.51296,-0.38142 -0.91211,-0.5 a 0.51863,0.51863 0 0 1 -0.34961,-0.64453 0.51863,0.51863 0 0 1 0.46484,-0.36914 0.51863,0.51863 0 0 1 0.17969,0.01953 c 0.5205,0.15463 0.99736,0.39739 1.3613,0.77148 0.31279,0.3215 0.51784,0.7511 0.58203,1.2344 h 0.20898 v -4.8242 a 0.68564,0.68564 0 0 1 0.68555,-0.68555 z"
       id="path2" />
    <path
       stroke-width="1.849"
       d="M 41,40.5 V 55 H 67 V 40.5 Z m 12.521,2.4785 a 0.68564,0.68564 0 0 1 0.68555,0.68555 v 4.8242 h 0.20312 c 0.06459,-0.48327 0.2712,-0.91288 0.58398,-1.2344 0.36396,-0.3741 0.83888,-0.61685 1.3594,-0.77148 a 0.51863,0.51863 0 0 1 0.14648,-0.02148 0.51863,0.51863 0 0 1 0.49805,0.37109 0.51863,0.51863 0 0 1 -0.34961,0.64453 c -0.39915,0.11858 -0.71132,0.29362 -0.91211,0.5 -0.14013,0.14403 -0.21782,0.31492 -0.26562,0.51172 h 0.20508 a 0.50285,0.50285 0 0 1 0.50391,0.50195 0.50285,0.50285 0 0 1 -0.50391,0.50391 h -1.4688 v 1.2988 a 0.68564,0.68564 0 0 1 -0.68555,0.68555 0.68564,0.68564 0 0 1 -0.68555,-0.68555 v -1.2988 h -1.4707 a 0.50285,0.50285 0 0 1 -0.50195,-0.50391 0.50285,0.50285 0 0 1 0.50195,-0.50195 h 0.20117 c -0.04781,-0.1968 -0.1255,-0.36769 -0.26562,-0.51172 -0.20079,-0.20638 -0.51296,-0.38142 -0.91211,-0.5 a 0.51863,0.51863 0 0 1 -0.34961,-0.64453 0.51863,0.51863 0 0 1 0.46484,-0.36914 0.51863,0.51863 0 0 1 0.17969,0.01953 c 0.5205,0.15463 0.99736,0.39739 1.3613,0.77148 0.31279,0.3215 0.51784,0.7511 0.58203,1.2344 h 0.20898 v -4.8242 a 0.68564,0.68564 0 0 1 0.68555,-0.68555 z"
       id="path4" />
    <path
       stroke-width="1.849"
       d="M 5,17 V 31.5 H 31 V 17 Z m 13.521,3.4785 a 0.68564,0.68564 0 0 1 0.68555,0.68555 v 4.8223 h 0.20312 c 0.06491,-0.48248 0.27161,-0.91135 0.58398,-1.2324 0.36396,-0.3741 0.83888,-0.61685 1.3594,-0.77148 a 0.51863,0.51863 0 0 1 0.14648,-0.02148 0.51863,0.51863 0 0 1 0.49805,0.37109 0.51863,0.51863 0 0 1 -0.34961,0.64453 c -0.39915,0.11858 -0.71132,0.29362 -0.91211,0.5 -0.1397,0.14359 -0.21768,0.31383 -0.26562,0.50977 h 0.20508 a 0.50285,0.50285 0 0 1 0.50391,0.50391 0.50285,0.50285 0 0 1 -0.50391,0.50195 h -1.4688 v 1.3008 a 0.68564,0.68564 0 0 1 -0.68555,0.68555 0.68564,0.68564 0 0 1 -0.68555,-0.68555 v -1.3008 h -1.4707 a 0.50285,0.50285 0 0 1 -0.50195,-0.50195 0.50285,0.50285 0 0 1 0.50195,-0.50391 h 0.20117 c -0.04795,-0.19594 -0.12593,-0.36618 -0.26562,-0.50977 -0.20079,-0.20638 -0.51296,-0.38142 -0.91211,-0.5 a 0.51863,0.51863 0 0 1 -0.34961,-0.64453 0.51863,0.51863 0 0 1 0.46484,-0.36914 0.51863,0.51863 0 0 1 0.17969,0.01953 c 0.5205,0.15463 0.99736,0.39739 1.3613,0.77148 0.31237,0.32107 0.51753,0.74994 0.58203,1.2324 h 0.20898 v -4.8223 a 0.68564,0.68564 0 0 1 0.68555,-0.68555 z"
       id="path6" />
    <path
       stroke-width="1.849"
       d="M 41,17 V 31.5 H 67 V 17 Z m 12.521,3.4785 a 0.68564,0.68564 0 0 1 0.68555,0.68555 v 4.8223 h 0.20312 c 0.06491,-0.48248 0.27161,-0.91135 0.58398,-1.2324 0.36396,-0.3741 0.83888,-0.61685 1.3594,-0.77148 a 0.51863,0.51863 0 0 1 0.14648,-0.02148 0.51863,0.51863 0 0 1 0.49805,0.37109 0.51863,0.51863 0 0 1 -0.34961,0.64453 c -0.39915,0.11858 -0.71132,0.29362 -0.91211,0.5 -0.1397,0.14359 -0.21768,0.31383 -0.26562,0.50977 h 0.20508 a 0.50285,0.50285 0 0 1 0.50391,0.50391 0.50285,0.50285 0 0 1 -0.50391,0.50195 h -1.4688 v 1.3008 a 0.68564,0.68564 0 0 1 -0.68555,0.68555 0.68564,0.68564 0 0 1 -0.68555,-0.68555 v -1.3008 h -1.4707 a 0.50285,0.50285 0 0 1 -0.50195,-0.50195 0.50285,0.50285 0 0 1 0.50195,-0.50391 h 0.20117 c -0.04795,-0.19594 -0.12593,-0.36618 -0.26562,-0.50977 -0.20079,-0.20638 -0.51296,-0.38142 -0.91211,-0.5 a 0.51863,0.51863 0 0 1 -0.34961,-0.64453 0.51863,0.51863 0 0 1 0.46484,-0.36914 0.51863,0.51863 0 0 1 0.17969,0.01953 c 0.5205,0.15463 0.99736,0.39739 1.3613,0.77148 0.31237,0.32107 0.51753,0.74994 0.58203,1.2324 h 0.20898 v -4.8223 a 0.68564,0.68564 0 0 1 0.68555,-0.68555 z"
       id="path8" />
  </g>
  <g
     id="line"
     transform="translate(-4,-16)">
    <path
       fill="none"
       stroke="#000"
       stroke-linecap="round"
       stroke-linejoin="round"
       stroke-width="2"
       d="M 67,17 H 5 v 38 h 62 z"
       id="path11" />
  </g>
</g></svg>