<svg xmlns="http://www.w3.org/2000/svg" width="24" height="24" viewBox="0 0 24 24"> <g transform="translate(0.0 0.3366021561307466) scale(0.48597897011053165)">
  
  <g
     id="line"
     transform="translate(-12,-12)">
    <path
       fill="none"
       stroke="#000"
       stroke-linecap="round"
       stroke-linejoin="round"
       stroke-miterlimit="10"
       stroke-width="2"
       d="m 20.9493,27.2768 c 0.851,-1.3097 2.1554,-2.2567 3.6642,-2.659 1.4662,-0.5614 3.0882,-0.5534 4.5496,0.0179"
       id="path2" />
    <path
       fill="none"
       stroke="#000"
       stroke-linecap="round"
       stroke-linejoin="round"
       stroke-miterlimit="10"
       stroke-width="2"
       d="m 50.5587,26.2722 c -1.3537,-2.8907 -4.4525,-4.543 -7.6074,-4.056"
       id="path4" />
    <path
       fill="none"
       stroke="#000"
       stroke-linecap="round"
       stroke-linejoin="round"
       stroke-miterlimit="10"
       stroke-width="2"
       d="M 58.9634,34.6991 C 58.289,22.6013 48.2654,13 35.9998,13 23.2968,13 13,23.2968 13,35.9998 c 0,12.7021 10.2968,22.9998 22.9998,22.9998 7.0803,0 13.4135,-3.1996 17.6326,-8.2316"
       id="path6" />
    <path
       d="m 30,31 c 0,1.6568 -1.3448,3 -3,3 -1.6553,0 -3,-1.3433 -3,-3 0,-1.6552 1.3447,-3 3,-3 1.6552,0 3,1.3448 3,3"
       id="path8" />
    <path
       d="m 48,31 c 0,1.6568 -1.3447,3 -3,3 -1.6553,0 -3,-1.3433 -3,-3 0,-1.6552 1.3447,-3 3,-3 1.6553,0 3,1.3448 3,3"
       id="path10" />
    <path
       fill="none"
       stroke="#000"
       stroke-linecap="round"
       stroke-linejoin="round"
       stroke-miterlimit="10"
       stroke-width="2"
       d="m 39.7224,50.6354 c 0,0 -5.7186,-1.8346 -8.8718,1.5503"
       id="path12" />
    <path
       fill="none"
       stroke="#000"
       stroke-linecap="round"
       stroke-linejoin="round"
       stroke-miterlimit="10"
       stroke-width="2"
       d="m 37.4298,44.1622 c 0,0 8.7363,-0.0809 12.075,0.5893 3.3387,0.6701 6.7322,2.0667 9.1412,0.9499 1.1362,-0.5267 1.6476,-1.6404 1.7222,-2.7085 0.1014,-1.0659 -0.2206,-2.2484 -1.255,-2.9542 C 56.9197,38.5422 53.339,39.4152 49.9356,39.5291 46.5322,39.643 37.9272,38.1315 37.9272,38.1315"
       id="path14" />
  </g>
</g></svg>