<svg xmlns="http://www.w3.org/2000/svg" width="24" height="24" viewBox="0 0 24 24"> <g transform="translate(0.0 1.0171945802726903) scale(0.4392675784177736)">
  
  <g
     id="line"
     transform="translate(-6.6920999,-10.833319)">
    <g
       id="g14">
      <path
         fill="none"
         stroke="#000"
         stroke-linecap="round"
         stroke-linejoin="round"
         stroke-width="2.1846"
         d="m 15.9489,53.9144 a 5.265,5.265 0 0 1 -3.43,2.4669"
         id="path2" />
      <path
         fill="none"
         stroke="#000"
         stroke-linecap="round"
         stroke-linejoin="round"
         stroke-width="2.1846"
         d="m 38.8657,54.9569 a 3.4911,3.4911 0 0 1 -2.5057,1.29 H 25.8628 a 4.1344,4.1344 0 0 1 -4.1116,-2.4455"
         id="path4" />
      <path
         fill="none"
         stroke="#000"
         stroke-linecap="round"
         stroke-linejoin="round"
         stroke-width="2.1846"
         d="m 48.6066,38.7518 a 12.992,12.992 0 0 1 -7.2457,-4.2509 l -2.79,2.2189 2.79,-2.2189 a 23.9856,23.9856 0 0 1 -3.08,-4.1918 l -3.6509,1.6818 3.6506,-1.6818 a 28.4244,28.4244 0 0 1 -2.2581,-4.8254 l -4.4137,0.99 4.4137,-0.99 c -0.088,-0.2495 -0.1734,-0.4966 -0.2458,-0.7281 -0.9735,-3.1112 -2.3327,-12.83 -2.3327,-12.83 l -18.6615,3.4993 c 0,0 1.1664,8.1644 0,12.83 -1.1664,4.6656 -3.499,8.1644 -2.3327,12.83 l 10.4971,2.3327 c 0,0 13.9962,5.8317 16.3289,5.8317 4.6654,0 19.8279,-1.1663 19.8279,-1.1663 0,-6.9985 -3.499,-8.1649 -10.4971,-9.3312 z"
         id="path6" />
      <path
         fill="none"
         stroke="#000"
         stroke-linecap="round"
         stroke-linejoin="round"
         stroke-width="2.1846"
         d="m 55.757,54.3411 a 2.59,2.59 0 0 1 -2.485,1.906 H 47.44 a 3.8684,3.8684 0 0 1 -3.22,-1.3127"
         id="path8" />
      <path
         fill="none"
         stroke="#000"
         stroke-linecap="round"
         stroke-linejoin="round"
         stroke-width="2.1846"
         d="m 7.7844,59.7461 h 44.3212 c 5.8318,0 6.7521,-1.5811 7.29,-2.2575 a 4.4763,4.4763 0 0 0 0.6329,-3.96 c -0.05,-0.2081 -0.1083,-0.414 -0.1731,-0.6163"
         id="path10" />
      <polyline
         fill="none"
         stroke="#000"
         stroke-linecap="round"
         stroke-linejoin="round"
         stroke-width="2.1846"
         points="13.043 45.576 13.634 50.306 22.965 50.306 22.965 47.754"
         id="polyline12" />
    </g>
  </g>
</g></svg>