<svg xmlns="http://www.w3.org/2000/svg" width="24" height="24" viewBox="0 0 24 24"> <g transform="translate(4.0 0.0) scale(0.4444444444444444)">
  
  <g
     id="line"
     transform="translate(-17,-7)">
    <path
       fill="none"
       stroke="#000"
       stroke-linecap="round"
       stroke-linejoin="round"
       stroke-width="2"
       d="m 44,21 h 8 v 6.5 c 0,3.2382 -3.2769,14.0133 -4.525,18 M 44,23.5 h 5.5 v 4 c 0,1.4799 -1.9272,5.9381 -3.5,9.3301"
       id="path2" />
    <path
       fill="none"
       stroke="#000"
       stroke-linecap="round"
       stroke-linejoin="round"
       stroke-width="2"
       d="M 22.5,45.42 C 21.2337,41.3711 18,30.7168 18,27.5 18,23.5 18,21 18,21 h 4 c 0,0 0,1.5 0,4 0,1.6667 1.7778,3.7778 2.963,5"
       id="path4" />
    <path
       fill="#000"
       d="m 43,17 h -1 c 0,0.0494 0.0037,0.0988 0.011,0.1476 z m -16,0 0.989,0.1476 C 27.9963,17.0988 28,17.0494 28,17 Z m -5,33.5 -0.989,-0.1476 c -0.0225,0.1503 -0.0104,0.3038 0.0354,0.4487 z m 3,9.5 -0.9536,0.3011 C 24.1778,60.7172 24.5637,61 25,61 Z m 20,0 v 1 c 0.4363,0 0.8222,-0.2828 0.9536,-0.6989 z m 3,-9.5 0.9536,0.3011 c 0.0458,-0.1449 0.0579,-0.2984 0.0354,-0.4487 z M 35,13 c 2.0517,0 3.8617,0.5218 5.1269,1.3125 C 41.4061,15.112 42,16.0885 42,17 h 2 C 44,15.1501 42.803,13.6266 41.1869,12.6165 39.5566,11.5975 37.3666,11 35,11 Z m -7,4 c 0,-0.9115 0.5939,-1.888 1.8731,-2.6875 C 31.1383,13.5218 32.9483,13 35,13 v -2 c -2.3666,0 -4.5566,0.5975 -6.1869,1.6165 C 27.197,13.6266 26,15.1501 26,17 Z m -1.989,-0.1476 -5,33.5 1.978,0.2952 5,-33.5 z m -4.9646,33.9487 3,9.5 1.9072,-0.6022 -3,-9.5 z M 25,61 H 35 V 59 H 25 Z m 10,0 H 45 V 59 H 35 Z m 10.9536,-0.6989 3,-9.5 -1.9072,-0.6022 -3,9.5 z m 3.0354,-9.9487 -5,-33.5 -1.978,0.2952 5,33.5 z"
       id="path6" />
    <path
       fill="none"
       stroke="#000"
       stroke-linecap="round"
       stroke-width="2"
       d="m 35.5,57 c -1.1046,0 -2,-0.8954 -2,-2 0,-1.1046 0.8954,-2 2,-2"
       id="path8" />
    <path
       fill="none"
       stroke="#000"
       stroke-linecap="round"
       stroke-linejoin="round"
       stroke-width="2"
       d="M 23,50 H 44.5"
       id="path10" />
    <path
       fill="none"
       stroke="#000"
       stroke-linecap="round"
       stroke-width="2"
       d="M 27,17 H 40"
       id="path12" />
    <rect
       x="33"
       y="8"
       width="4"
       height="4"
       fill="none"
       stroke="#000"
       stroke-linejoin="round"
       stroke-width="2"
       id="rect14" />
  </g>
</g></svg>