<svg xmlns="http://www.w3.org/2000/svg" width="24" height="24" viewBox="0 0 24 24"> <g transform="translate(1.522183764334983 0.0) scale(0.43665389211446737)">
  
  <g
     id="line"
     transform="translate(-12.10834,-11.974661)">
    <path
       fill="none"
       stroke="#000"
       stroke-linecap="round"
       stroke-linejoin="round"
       stroke-width="2"
       d="m 21.4,53.6485 a 22.9959,22.9959 0 1 1 21.539,4.2758"
       id="path2" />
    <path
       fill="none"
       stroke="#000"
       stroke-linecap="round"
       stroke-miterlimit="10"
       stroke-width="2"
       d="m 31.6354,31.7355 a 4.6154,4.6154 0 0 0 -6.2,-2.4 4.6846,4.6846 0 0 0 -2.4,2.4"
       id="path4" />
    <path
       fill="none"
       stroke="#000"
       stroke-linecap="round"
       stroke-miterlimit="10"
       stroke-width="2"
       d="m 48.8354,31.7355 a 4.6154,4.6154 0 0 0 -6.2,-2.4 4.6846,4.6846 0 0 0 -2.4,2.4"
       id="path6" />
    <path
       fill="none"
       stroke="#000"
       stroke-linecap="round"
       stroke-linejoin="round"
       stroke-width="2"
       d="m 25.46,65.2381 c 0.6,-3 1.1,-5.2 1.3,-6.1 -0.4,-0.8 -0.8,-1.7 -1.2,-2.5 -0.2,-0.4 -0.6,-1.6 -1.2,-8.3 -0.2,-2 -0.1,-3.1 0.5,-3.8 a 1.5628,1.5628 0 0 1 1.2,-0.6 c 1.3,0 1.7,1.2 2,2.4 l 0.1,0.3 0.2,0.6 a 39.4783,39.4783 0 0 1 3.5,-7.5 c 1.8,-3 3.5,-0.6 3.5,-0.6 2.2,-4.1 5,-0.8 4,1.3 a 1.9811,1.9811 0 0 1 1.6,-0.1 1.4158,1.4158 0 0 1 0.9,1.4 5.2848,5.2848 0 0 1 -0.9,2.8 2.1889,2.1889 0 0 1 1,0.9 3.0777,3.0777 0 0 1 -0.1,2.8 l -0.9,1.7 c -0.3,0.9 -0.5,1.8 -0.7,2.6 a 20.7835,20.7835 0 0 1 -2.3,6.3 4.7436,4.7436 0 0 1 -1.4,1.7 c -0.4,0.4 -0.7,0.6 -0.8,1 a 42.7765,42.7765 0 0 0 -0.6,4.4"
       id="path8" />
  </g>
</g></svg>