<svg xmlns="http://www.w3.org/2000/svg" width="24" height="24" viewBox="0 0 24 24"> <g transform="translate(8.065573770491802 0.0) scale(0.39344262295081966)">
  
  <g
     id="line"
     transform="translate(-26,-6)">
    <polygon
       fill="none"
       stroke="#000"
       stroke-linecap="round"
       stroke-linejoin="round"
       stroke-miterlimit="10"
       stroke-width="2"
       points="27,28 36,28 45,25 45,66 27,66 "
       id="polygon2" />
    <path
       fill="none"
       stroke="#000"
       stroke-linecap="round"
       stroke-linejoin="round"
       stroke-miterlimit="10"
       stroke-width="2"
       d="M 35,17.7143 C 35,20.8571 33.2091,25 31,25 28.7909,25 27,20.8571 27,17.7143 27,11.8865 31,9 31,6 c 0,3 4,5.4286 4,11.7143 z"
       id="path4" />
    <path
       fill="none"
       stroke="#000"
       stroke-linecap="round"
       stroke-linejoin="round"
       stroke-miterlimit="10"
       stroke-width="2"
       d="M 35,17.7143 C 35,20.8571 33.2091,25 31,25 28.7909,25 27,20.8571 27,17.7143 27,11.8865 31,9 31,6 c 0,3 4,5.4286 4,11.7143 z"
       id="path6" />
    <line
       x1="27"
       x2="45"
       y1="35"
       y2="35"
       fill="none"
       stroke="#000"
       stroke-linecap="round"
       stroke-linejoin="round"
       stroke-miterlimit="10"
       stroke-width="2"
       id="line8" />
    <line
       x1="36"
       x2="36"
       y1="28"
       y2="31"
       fill="none"
       stroke="#000"
       stroke-linecap="round"
       stroke-linejoin="round"
       stroke-miterlimit="10"
       stroke-width="2"
       id="line10" />
  </g>
</g></svg>