<svg xmlns="http://www.w3.org/2000/svg" width="24" height="24" viewBox="0 0 24 24"> <g transform="translate(0.0 4.862118315354405) scale(0.4137902425881504)">
  
  <g
     id="line"
     transform="translate(-6.9998082,-21.5)">
    <path
       fill="none"
       stroke="#000"
       stroke-linecap="round"
       stroke-width="2"
       d="M 64,37 C 64,42.5 61,55 50.5,55 31.7819,55 18.3025,46.0195 12,40.745"
       id="path2" />
    <path
       fill="none"
       stroke="#000"
       stroke-linecap="round"
       stroke-width="2"
       d="m 64,37 c -2.5,2 -9.1,5.6 -15.5,6 -4.4055,0.2753 -7.4463,-1.4205 -9.9575,-3"
       id="path4" />
    <path
       fill="none"
       stroke="#000"
       stroke-linecap="round"
       stroke-width="2"
       d="m 8,37 c 0.83333,0.3333 3.3,1 6.5,1 4,0 6,-5 23.5,-5 12,0 26,4 26,4"
       id="path6" />
    <path
       fill="#000"
       d="m 7.01942,36.8039 c -0.10831,0.5415 0.2429,1.0684 0.78446,1.1767 0.54156,0.1083 1.06839,-0.2429 1.1767,-0.7845 z M 30,22.5 30.5547,21.6679 C 30.3904,21.5584 30.1974,21.5 30,21.5 Z m 6.5,3.5 c 0.5523,0 1,-0.4477 1,-1 0,-0.5523 -0.4477,-1 -1,-1 z M 8.98058,37.1961 C 9.18221,36.188 9.93308,34.8111 11.2213,33.2652 12.49,31.7428 14.2085,30.1417 16.2132,28.6837 20.2438,25.7524 25.2896,23.5 30,23.5 v -2 c -5.2896,0 -10.7438,2.4976 -14.9632,5.5663 -2.1203,1.542 -3.9643,3.2534 -5.3519,4.9185 -1.36798,1.6416 -2.36711,3.3272 -2.66548,4.8191 z M 29.4453,23.3321 c 0.2127,0.1418 0.4158,0.3201 0.8183,0.6311 0.366,0.2828 0.8195,0.6097 1.3851,0.9161 C 32.7948,25.5001 34.3334,26 36.5,26 v -2 c -1.8334,0 -3.0448,-0.4167 -3.8987,-0.8793 -0.4344,-0.2353 -0.7934,-0.4917 -1.1149,-0.7401 -0.285,-0.2203 -0.6444,-0.5211 -0.9317,-0.7127 z"
       id="path8" />
    <path
       fill="#000"
       d="m 64.9806,36.8039 c 0.1083,0.5415 -0.2429,1.0684 -0.7845,1.1767 -0.5415,0.1083 -1.0684,-0.2429 -1.1767,-0.7845 z M 42.5,22.5 41.9453,21.6679 C 42.1096,21.5584 42.3026,21.5 42.5,21.5 Z M 36,26 c -0.5523,0 -1,-0.4477 -1,-1 0,-0.5523 0.4477,-1 1,-1 z M 63.0194,37.1961 C 62.8154,36.1762 62.0859,34.7944 60.8456,33.2516 59.6224,31.73 57.9659,30.1307 56.025,28.675 52.1233,25.7487 47.2058,23.5 42.5,23.5 v -2 c 5.2942,0 10.6267,2.5013 14.725,5.575 2.0591,1.5443 3.8401,3.2575 5.1794,4.9234 1.3222,1.6447 2.2802,3.3254 2.5762,4.8055 z M 43.0547,23.3321 c -0.2127,0.1418 -0.4158,0.3201 -0.8183,0.6311 -0.366,0.2828 -0.8195,0.6097 -1.3851,0.9161 C 39.7052,25.5001 38.1666,26 36,26 v -2 c 1.8334,0 3.0448,-0.4167 3.8987,-0.8793 0.4344,-0.2353 0.7934,-0.4917 1.1149,-0.7401 0.285,-0.2203 0.6444,-0.5211 0.9317,-0.7127 z"
       id="path10" />
    <path
       fill="none"
       stroke="#000"
       stroke-linecap="round"
       stroke-width="2"
       d="m 28,36 c 0,0.5 0.3,1.5 1.5,1.5 1.2,0 3.1667,0 5,0 0.5,0 1.5,-0.3 1.5,-1.5"
       id="path12" />
    <path
       fill="none"
       stroke="#000"
       stroke-linecap="round"
       stroke-width="2"
       d="m 36,36 c 0,0.5 0.3,1.5 1.5,1.5 1.2,0 3.1667,0 5,0 0.5,0 1.5,-0.3 1.5,-1.5"
       id="path14" />
    <path
       fill="none"
       stroke="#000"
       stroke-linecap="round"
       stroke-width="2"
       d="m 44,36 c 0,0.5 0.3,1.5 1.5,1.5 1.2,0 3.1667,0 5,0"
       id="path16" />
    <path
       fill="none"
       stroke="#000"
       stroke-linecap="round"
       stroke-width="2"
       d="m 28,36 c 0,0.5 -0.3,1.5 -1.5,1.5 -1.2,0 -1.6667,0 -3.5,0"
       id="path18" />
  </g>
</g></svg>