<svg xmlns="http://www.w3.org/2000/svg" width="24" height="24" viewBox="0 0 24 24"> <g transform="translate(0.0 2.4355843846153835) scale(0.46153846153846156)">
  
  <g
     id="line"
     transform="translate(-10,-15.2771)">
    <polygon
       fill="none"
       points="34.446,47.641 39.19,47.641 39.19,40.901 45.93,40.901 45.93,36.157 39.19,36.157 39.19,29.417 34.446,29.417 34.446,36.157 27.706,36.157 27.706,40.901 34.446,40.901 "
       id="polygon2" />
    <path
       fill="none"
       d="m 18.9391,18.6936 h 2.8591 c 0.5127,0 0.9284,0.4157 0.9284,0.9284 v 1.8314 c 0,0.5127 -0.4157,0.9284 -0.9284,0.9284 h -2.8591 c -0.5127,0 -0.9284,-0.4157 -0.9284,-0.9284 V 19.622 c 0,-0.5127 0.4157,-0.9284 0.9284,-0.9284 z"
       id="path4" />
    <path
       fill="none"
       d="m 51.2323,18.6936 h 2.8591 c 0.5127,0 0.9284,0.4157 0.9284,0.9284 v 1.8314 c 0,0.5127 -0.4157,0.9284 -0.9284,0.9284 h -2.8591 c -0.5127,0 -0.9284,-0.4157 -0.9284,-0.9284 V 19.622 c 0,-0.5127 0.4157,-0.9284 0.9284,-0.9284 z"
       id="path6" />
    <rect
       x="11"
       y="21.3353"
       width="50"
       height="34.3876"
       fill="none"
       stroke="#000"
       stroke-linecap="round"
       stroke-linejoin="round"
       stroke-width="2"
       id="rect8" />
    <path
       fill="none"
       stroke="#000"
       stroke-linecap="round"
       stroke-linejoin="round"
       stroke-width="2"
       d="M 28.1512,21.3353 V 18.344 c 0,-1.1415 0.9254,-2.0669 2.0669,-2.0669 v 0 h 11.5638 c 1.1415,0 2.0669,0.9254 2.0669,2.0669 v 2.9913"
       id="path10" />
    <path
       d="m 39.19,29.4168 v 6.74 h 6.74 v 4.7442 h -6.74 v 6.74 h -4.7444 v -6.74 h -6.74 v -4.7444 h 6.74 v -6.74 H 39.19 m 0,-2 h -4.7444 c -1.1046,0 -2,0.8954 -2,2 v 4.74 h -4.74 c -1.1046,0 -2,0.8954 -2,2 v 4.7444 c 0,1.1046 0.8954,2 2,2 h 4.74 v 4.74 c 0,1.1046 0.8954,2 2,2 H 39.19 c 1.1046,0 2,-0.8954 2,-2 v -4.74 h 4.74 c 1.1046,0 2,-0.8954 2,-2 v -4.7444 c 0,-1.1046 -0.8954,-2 -2,-2 h -4.74 v -4.74 c 0,-1.1046 -0.8954,-2 -2,-2 z"
       id="path12" />
    <path
       d="m 18.9391,18.6936 h 2.8591 c 0.5127,0 0.9284,0.4157 0.9284,0.9284 v 1.8314 c 0,0.5127 -0.4157,0.9284 -0.9284,0.9284 h -2.8591 c -0.5127,0 -0.9284,-0.4157 -0.9284,-0.9284 V 19.622 c 0,-0.5127 0.4157,-0.9284 0.9284,-0.9284 z"
       id="path14" />
    <path
       d="m 51.2323,18.6936 h 2.8591 c 0.5127,0 0.9284,0.4157 0.9284,0.9284 v 1.8314 c 0,0.5127 -0.4157,0.9284 -0.9284,0.9284 h -2.8591 c -0.5127,0 -0.9284,-0.4157 -0.9284,-0.9284 V 19.622 c 0,-0.5127 0.4157,-0.9284 0.9284,-0.9284 z"
       id="path16" />
  </g>
</g></svg>