<svg xmlns="http://www.w3.org/2000/svg" width="24" height="24" viewBox="0 0 24 24"> <g transform="translate(0.0 0.9662448130010795) scale(0.4334935700169693)">
  
  <g
     id="line"
     transform="translate(-9.2871974,-10.0938)">
    <circle
       cx="39.9688"
       cy="14.0938"
       r="3"
       fill="none"
       stroke="#000"
       stroke-miterlimit="10"
       stroke-width="2"
       id="circle2" />
    <path
       fill="none"
       stroke="#000"
       stroke-linecap="round"
       stroke-linejoin="round"
       stroke-miterlimit="10"
       stroke-width="2"
       d="m 41,25 6.6709,7.5049 c 0.7314,0.8222 0.8984,2.2851 0.3711,3.251 l -4.084,7.4882 c -0.5273,0.9659 -1.0332,2.6524 -1.124,3.7491 L 41.916,58.0068 C 41.8252,59.1035 42.5205,60 43.4619,60 c 0.9414,0 1.918,-0.876 2.1699,-1.9463 l 1.9102,-8.1074 c 0.2519,-1.0703 0.9814,-2.6787 1.6201,-3.5742 l 2.6758,-3.7442 c 0.6387,-0.8955 1.8535,-2.2041 2.6982,-2.9082 l 2.9278,-2.4394 C 58.3086,36.5762 59,35.0996 59,34 v 0 c 0,-1.0996 -0.6025,-2.6689 -1.3379,-3.4863 L 50,22"
       id="path4" />
    <path
       fill="none"
       stroke="#000"
       stroke-linecap="round"
       stroke-linejoin="round"
       stroke-miterlimit="10"
       stroke-width="2"
       d="m 59,35 0.8193,9.0078 c 0.0996,1.0957 0.4756,2.8428 0.837,3.8818 l 2.8544,8.2208 C 63.8721,57.1494 63.4922,58 62.667,58 61.8418,58 60.7266,57.2148 60.1885,56.2559 l -4.21,-7.5118 C 55.4404,47.7852 54.8516,46.1123 54.6709,45.0273 L 54,41"
       id="path6" />
    <path
       fill="none"
       stroke="#000"
       stroke-linecap="round"
       stroke-linejoin="round"
       stroke-miterlimit="10"
       stroke-width="2"
       d="m 50,22 c -2,-2 -4.2988,-2.5669 -6,-2 -3,1 -8,2 -10,2 -2,0 -5,-1 -8,-3"
       id="path8" />
    <path
       fill="none"
       stroke="#000"
       stroke-linecap="round"
       stroke-linejoin="round"
       stroke-miterlimit="10"
       stroke-width="2"
       d="m 26.334,28.1523 -3.8692,4.3526 c -0.7314,0.8222 -1.0449,2.3486 -0.6962,3.3926 l 2.7343,8.205 c 0.3487,1.044 0.585,2.7959 0.5254,3.8946 L 24.4932,58.0029 C 24.4336,59.1016 23.6152,60 22.6738,60 21.7324,60 20.9053,59.1016 20.835,58.0039 l -0.5723,-9.0078 c -0.0703,-1.0977 -0.5293,-2.8008 -1.0215,-3.7852 l -1.2109,-2.4218 c -0.4922,-0.9844 -1.586,-2.3653 -2.4307,-3.0694 L 12.6719,37.2803 C 11.8271,36.5762 11.1357,35.0996 11.1357,34 v 0 c 0,-1.0996 0.6026,-2.6689 1.3379,-3.4863 L 20.1357,22"
       id="path10" />
    <path
       fill="none"
       stroke="#000"
       stroke-linecap="round"
       stroke-linejoin="round"
       stroke-miterlimit="10"
       stroke-width="2"
       d="m 12,37 v 8 c 0,1.0996 -0.1631,2.8848 -0.3633,3.9668 L 10.332,56.0332 C 10.1318,57.1152 10.6436,58 11.4688,58 c 0.8251,0 1.7607,-0.8613 2.08,-1.9141 l 1.8711,-6.1718 c 0.3194,-1.0528 0.7285,-2.8018 0.9092,-3.8868 L 17,42"
       id="path12" />
    <path
       fill="none"
       stroke="#000"
       stroke-linecap="round"
       stroke-linejoin="round"
       stroke-miterlimit="10"
       stroke-width="2"
       d="M 23.0674,19.8145 C 22.2256,20.1318 21.2773,20.8037 20.1357,22"
       id="path14" />
    <path
       fill="none"
       stroke="#000"
       stroke-linecap="round"
       stroke-miterlimit="10"
       stroke-width="2"
       d="m 25.1357,23 c 0,0 4.8643,4 6.8643,4 1,0 3,0 4,-5"
       id="path16" />
    <path
       fill="none"
       stroke="#000"
       stroke-linecap="round"
       stroke-miterlimit="10"
       stroke-width="2"
       d="m 32.0703,18.1875 c 0.5674,-0.5459 0.9199,-1.313 0.9199,-2.1616 0,-1.6563 -1.3437,-3 -3,-3 -1.6543,0 -3,1.3437 -3,3"
       id="path18" />
  </g>
</g></svg>