<svg xmlns="http://www.w3.org/2000/svg" width="24" height="24" viewBox="0 0 24 24"> <g transform="translate(4.331862774781107 0.0) scale(0.44186165668700633)">
  
  <g
     id="line"
     transform="translate(-18.63,-6.6997964)">
    <path
       fill="none"
       stroke="#000"
       stroke-linecap="round"
       stroke-linejoin="round"
       stroke-width="2"
       d="m 51.0551,38.55 a 8.0007,8.0007 0 0 0 -15.04,-3.8018 7.9991,7.9991 0 1 0 -13.267,8.8185 l -0.0028,0.0022 2.946,3.6513"
       id="path2" />
    <path
       fill="none"
       stroke="#000"
       stroke-linecap="round"
       stroke-linejoin="round"
       stroke-width="2"
       d="m 34.4615,58.09 1.5536,1.9255 6.2851,-7.79"
       id="path4" />
    <path
       fill="none"
       stroke="#000"
       stroke-linecap="round"
       stroke-linejoin="round"
       stroke-width="2"
       d="M 19.63,32.1845 A 20.7728,20.7728 0 0 1 22.7537,21.75 c 0.3726,5.0516 2.7617,5.2416 4.132,5.2416 1.0236,0 2.3016,-1.906 2.4353,-4.0118 a 10.2418,10.2418 0 0 1 3.245,-6.35 1.883,1.883 0 0 0 0.8226,0.1982 c 1.151,0 3.004,-1.0749 1.4831,-9.1283 0,0 11.3024,6.5754 10.8772,17.4629 a 1.4254,1.4254 0 0 0 1.4411,1.4093 h 0.0176 a 1.813,1.813 0 0 0 0.2072,-0.002 4.1811,4.1811 0 0 0 3.1887,-1.85 12.724,12.724 0 0 1 1.7315,6.7043"
       id="path6" />
    <path
       fill="none"
       stroke="#000"
       stroke-miterlimit="10"
       stroke-width="2"
       d="m 32.4618,54.23 a 4.4581,4.4581 0 0 0 0.9262,-3.8142 c -0.2438,-1.92 -1.7576,-4.8389 -3.7253,-5.2681 -0.4856,-0.1059 0.71,2.3744 -0.3283,4.1533 -1.1264,1.93 -2.0578,2.9 -1.5336,4.8814 0.5386,2.0351 3.7443,3.7842 3.8745,3.2175 a 1.5336,1.5336 0 0 0 -0.0495,-0.5452 3.469,3.469 0 0 1 0.836,-2.6247"
       id="path8" />
    <path
       fill="none"
       stroke="#000"
       stroke-miterlimit="10"
       stroke-width="2"
       d="m 46.223,36.2711 c 0.5993,-0.225 -0.5392,2.8218 1.0472,4.5927 1.721,1.9211 3.0491,2.8077 2.6857,5.1473 -0.3733,2.4033 -4.1707,5.068 -4.4218,4.46 a 1.5572,1.5572 0 0 1 -0.02,-0.6231 3.5041,3.5041 0 0 0 -1.4585,-2.7652 4.5134,4.5134 0 0 1 -1.7537,-4.0813 c 0.0172,-2.2092 1.4922,-5.8185 3.9211,-6.7304 z"
       id="path10" />
  </g>
</g></svg>