<svg xmlns="http://www.w3.org/2000/svg" width="24" height="24" viewBox="0 0 24 24"> <g transform="translate(6.631735504998122 0.0) scale(0.5088474471749034)">
  
  <g
     id="line"
     transform="translate(-25.9502,-14.663289)">
    <path
       fill="none"
       stroke="#000"
       stroke-miterlimit="10"
       stroke-width="2"
       d="m 32.0706,26.2961 c 0,-5.9431 -5.1204,-12.161 -5.1204,-10.2961 0,1.8649 0.9471,26.6324 0.9471,26.6324 l -0.9471,16.1963 c 0,1.1046 0.8954,2 2,2 1.1046,0 2,-0.8954 2,-2 L 30.4213,42.5394 c -10e-5,0 1.6493,-10.3002 1.6493,-16.2433 z"
       id="path2" />
    <path
       fill="none"
       stroke="#000"
       stroke-linecap="round"
       stroke-linejoin="round"
       stroke-miterlimit="10"
       stroke-width="2"
       d="m 45.9384,16.7398 c 0,0 0.1115,4.158 0.1115,8.1058 0,2.9609 -0.8993,4.8203 -2.1809,5.565 v 0 l 0.0285,28.4181 c 0,1.1046 -0.8954,2 -2,2 -1.1046,0 -2,-0.8954 -2,-2 l 0.8108,-28.4123 v 0 c -1.287,-0.7408 -2.191,-2.6022 -2.191,-5.5708 0,-3.9478 0.1115,-8.1058 0.1115,-8.1058"
       id="path4" />
    <line
       x1="42.283501"
       x2="42.283501"
       y1="16.739799"
       y2="26.324699"
       fill="none"
       stroke="#000"
       stroke-linecap="round"
       stroke-linejoin="round"
       stroke-miterlimit="10"
       stroke-width="2"
       id="line6" />
  </g>
</g></svg>