<svg xmlns="http://www.w3.org/2000/svg" width="24" height="24" viewBox="0 0 24 24"> <g transform="translate(1.7763568394002505e-15 0.011473866237491137) scale(0.56001494679893)">
  
  <g
     id="line"
     transform="translate(-14.574051,-15.588878)">
    <path
       fill="none"
       stroke="#000"
       stroke-linecap="round"
       stroke-linejoin="round"
       stroke-width="2"
       d="m 28.7069,21.165 c 0.15,-0.839 0.2557,-1.6238 0.44,-2.39 a 5.948,5.948 0 0 1 0.562,-1.5235 1.2221,1.2221 0 0 1 2.1084,-0.1638 2.6918,2.6918 0 0 1 0.5871,1.1029 40.8909,40.8909 0 0 1 0.8319,4.9782 3.2362,3.2362 0 0 1 -3.1336,3.554 c -0.624,0.0732 -1.2559,0.0787 -1.9188,0.1172 -0.0275,0.272 -0.0553,0.5655 -0.087,0.8586 a 2.96,2.96 0 0 1 -1.532,2.3888 c -0.3443,0.1938 -0.3886,0.376 -0.32,0.7474 a 5.8883,5.8883 0 0 1 -1.5006,5.572 7.52,7.52 0 0 1 0.3511,6.3271 1.7014,1.7014 0 0 0 0.2643,1.9269 c 1.01,1.3069 1.16,2.0707 1.2618,4.4584 0.4767,0.1665 0.9519,0.3482 1.4384,0.4917 a 0.6031,0.6031 0 0 0 0.4308,-0.0778 6.1691,6.1691 0 0 1 6.5087,-0.3845 0.4512,0.4512 0 0 0 0.4051,-0.03 6,6 0 0 1 7.4024,0.0617 l 2.8309,-1.36 a 6.3334,6.3334 0 0 1 0.8608,-5.48 c -0.2091,-0.3609 -0.42,-0.686 -0.5929,-1.03 a 4.3954,4.3954 0 0 1 -0.0263,-3.9219 0.6853,0.6853 0 0 0 0.0032,-0.5823 5.698,5.698 0 0 1 -1.275,-5.32 1.1834,1.1834 0 0 0 -0.1991,-1.0136 5.8053,5.8053 0 0 1 -1.0589,-4.1987 3.8658,3.8658 0 0 1 2.5191,-3.0219 6.7983,6.7983 0 0 1 4.3952,-0.3764 4.45,4.45 0 0 1 3.225,4.9324 2.0556,2.0556 0 0 0 0.49,1.81 4.9564,4.9564 0 0 1 0.9961,4.8014 0.8482,0.8482 0 0 0 0.1185,0.6056 5.576,5.576 0 0 1 0.3848,5.671 c -0.1458,0.3 -0.0222,0.4483 0.1095,0.6472 a 4.9391,4.9391 0 0 1 -0.1178,5.6891 1.5309,1.5309 0 0 0 -0.3034,1.6585 c 0.8585,2.94 -0.5766,5.6044 -3.3487,6.2743 a 3.9243,3.9243 0 0 0 -1.3544,0.6351 6.9175,6.9175 0 0 1 -7.3735,0.7466 0.9676,0.9676 0 0 0 -0.7188,0.0331 7.444,7.444 0 0 1 -6.8608,-0.0142 0.7814,0.7814 0 0 0 -0.6088,0.0637 6.7634,6.7634 0 0 1 -6.0452,0.4769 3.4906,3.4906 0 0 0 -2.6718,-0.21 4.7957,4.7957 0 0 1 -4.7121,-1.3162 2.07,2.07 0 0 0 -0.7008,-0.4276 c -3.1439,-1.02 -4.2366,-2.86 -3.5151,-6.0934 a 2.2851,2.2851 0 0 0 -0.3583,-1.9887 7.2006,7.2006 0 0 1 -0.8466,-6.7415 0.9123,0.9123 0 0 0 0.0536,-0.5043 6.1485,6.1485 0 0 1 1.1806,-5.3745 1.0723,1.0723 0 0 0 0.1532,-0.758 5.1494,5.1494 0 0 1 2.1451,-5.5543 1.0563,1.0563 0 0 0 0.4689,-0.8635 5.99,5.99 0 0 1 1.1715,-3.2279 4.4342,4.4342 0 0 1 2.3413,-1.5378 9.6783,9.6783 0 0 0 1.4661,-0.5416 5.7415,5.7415 0 0 1 3.6749,-0.6019 z"
       id="path2" />
  </g>
</g></svg>