<svg xmlns="http://www.w3.org/2000/svg" width="24" height="24" viewBox="0 0 24 24"> <g transform="translate(0.0 2.9414987784220212) scale(0.4107525150376496)">
  
  <g
     id="line"
     transform="translate(-8.4755259,-10.993143)">
    <path
       fill="none"
       stroke="#000"
       stroke-miterlimit="10"
       stroke-width="2"
       d="m 29.2,40.2 c 0,0.3 0,0.6 0,0.9 0,6.3 -3.9,11.3 -8.7,11.3 -4.8,0 -8.7,-5.1 -8.7,-11.3 0,-0.2 0,-0.4 0,-0.7"
       id="path2" />
    <path
       fill="none"
       stroke="#000"
       stroke-linecap="round"
       stroke-linejoin="round"
       stroke-width="2"
       d="m 20.2,47.4 c 0.6,0.7 1.4,0.7 2.1,0"
       id="path4" />
    <path
       fill="none"
       stroke="#000"
       stroke-linecap="round"
       stroke-miterlimit="10"
       stroke-width="2"
       d="m 22.5,41.8 c 0,0 1.5,1.5 3,0"
       id="path6" />
    <path
       fill="none"
       stroke="#000"
       stroke-linecap="round"
       stroke-miterlimit="10"
       stroke-width="2"
       d="m 14.9,41.1 c 0,0 1.5,1.5 3,0"
       id="path8" />
    <path
       fill="none"
       stroke="#000"
       stroke-linecap="round"
       stroke-linejoin="round"
       stroke-width="2"
       d="m 9.5,35.8 c 0.6,-8.8 7.3,-8.9 10.6,-8.3 0.3,0.1 1.2,0 1.5,0 6.1,-0.8 9.1,6.1 9.1,9.1 0,1.1 0,3.8 -1.5,5.3 0,0 -3.5,-4.2 -3.6,-6.6 0,0 -11.5,4.4 -12.3,0.6 0,0 -0.8,3 -1.5,3.8 0,0 0,2.3 0,3 0,-0.1 -2.6,-3.2 -2.3,-6.9 z"
       id="path10" />
    <path
       fill="none"
       stroke="#000"
       stroke-linecap="round"
       stroke-linejoin="round"
       stroke-width="2"
       d="m 36,14.7 c 1.1,-2.4 4,-3.4 6.3,-2.2 2.3,1.2 3.3,4 2.2,6.4 -0.1,0.3 -0.3,0.5 -0.4,0.7 L 36,30 27.9,19.6 c -0.2,-0.2 -0.3,-0.5 -0.4,-0.7 -1.1,-2.4 -0.1,-5.2 2.2,-6.4 2.3,-1.2 5.2,-0.2 6.3,2.2 z"
       id="path12" />
    <path
       fill="none"
       stroke="#000"
       stroke-linecap="round"
       stroke-linejoin="round"
       stroke-width="2"
       d="m 38.7,54 c -3,-4.5 -0.6,-7.8 0.8,-11.3 1.2,-3.2 -0.2,-4.9 1,-9.1 1.1,-4.2 5.5,-6.8 10.4,-6.8 4.1,0 6.1,2.3 6.1,2.3 3.2,0.3 5.6,2.9 5.6,6.1 0.3,5.4 0.8,5.4 2.6,9.7 1.3,3.1 0.8,6.6 -1.4,9.2"
       id="path14" />
    <path
       fill="none"
       stroke="#000"
       stroke-linejoin="round"
       stroke-miterlimit="10"
       stroke-width="2"
       d="m 43.2,41.9 c 0,6.1 3.8,10.6 8.3,10.6 4.5,0 8.3,-4.5 8.3,-10.6 0,-3.8 -1.5,-6.1 -4.5,-9.1 -3,3 -12.1,6.8 -12.1,8.3 0,0 0,0.8 0,0.8 z"
       id="path16" />
    <path
       fill="none"
       stroke="#000"
       stroke-linecap="round"
       stroke-linejoin="round"
       stroke-width="2"
       d="m 49.2,47.4 c 0.6,0.8 1.4,0.8 2.1,0"
       id="path18" />
    <path
       fill="none"
       stroke="#000"
       stroke-linecap="round"
       stroke-miterlimit="10"
       stroke-width="2"
       d="m 53.9,41.1 c 0,0 1.5,1.5 3,0"
       id="path20" />
    <path
       fill="none"
       stroke="#000"
       stroke-linecap="round"
       stroke-miterlimit="10"
       stroke-width="2"
       d="m 46.3,41.8 c 0,0 1.5,1.5 3,0"
       id="path22" />
  </g>
</g></svg>