<svg xmlns="http://www.w3.org/2000/svg" width="24" height="24" viewBox="0 0 24 24"> <g transform="translate(1.6707363514179416 0.0) scale(0.5487595621639519)">
  
  <g
     id="line"
     transform="translate(-18.342608,-15.627201)">
    <path
       fill="none"
       stroke="#000"
       stroke-linecap="round"
       stroke-linejoin="round"
       stroke-width="2"
       d="m 36.8349,18.0781 c 1.7393,1.6583 1.6481,4.5775 1.6481,4.5775 0,0 -2.9114,0.2303 -4.651,-1.428 -1.7396,-1.6582 -1.6481,-4.5775 -1.6481,-4.5775 0,0 2.9119,-0.2288 4.651,1.428 z"
       id="path2" />
    <path
       fill="none"
       stroke="#000"
       stroke-linecap="round"
       stroke-linejoin="round"
       stroke-width="2"
       d="m 27.0179,32.1509 c 3.0883,2.3003 3.5096,6.9616 3.5096,6.9616 0,0 -4.5864,0.9311 -7.6753,-1.3691 -3.0889,-2.3002 -3.5096,-6.9616 -3.5096,-6.9616 0,0 4.5876,-0.9289 7.6753,1.3691 z"
       id="path4" />
    <path
       fill="none"
       stroke="#000"
       stroke-linecap="round"
       stroke-linejoin="round"
       stroke-width="2"
       d="m 42.0884,54.3627 c -4.6114,1.465 -9.3345,-1.6943 -9.3345,-1.6943 0,0 2.7546,-5.5346 7.3663,-7.0003 4.6117,-1.4657 9.3345,1.6943 9.3345,1.6943 0,0 -2.7576,5.5342 -7.3663,7.0003 z"
       id="path6" />
    <path
       fill="none"
       stroke="#000"
       stroke-linecap="round"
       stroke-linejoin="round"
       stroke-width="2"
       d="m 49.0484,35.6919 c -3.6542,1.0489 -7.2941,-1.5366 -7.2941,-1.5366 0,0 2.2856,-4.2862 5.9401,-5.3357 3.6545,-1.0495 7.2941,1.5366 7.2941,1.5366 0,0 -2.288,4.2858 -5.9401,5.3357 z"
       id="path8" />
    <path
       fill="none"
       stroke="#000"
       stroke-linecap="round"
       stroke-linejoin="round"
       stroke-width="2"
       d="m 39.9046,25.7818 c 0,4.7785 -2.8879,10.0608 -4.8815,13.1378 -0.8136,1.2558 -1.7383,2.4273 -2.7031,3.5711 -2.5753,3.0534 -5.2237,8.2176 -3.876,15.8715"
       id="path10" />
  </g>
</g></svg>