<svg xmlns="http://www.w3.org/2000/svg" width="24" height="24" viewBox="0 0 24 24"> <g transform="translate(0.1937571284613675 0.0) scale(0.4722138360542819)">
  
  <g
     id="line"
     transform="translate(-11.23,-10.949102)">
    <path
       fill="none"
       stroke="#000"
       stroke-linecap="round"
       stroke-linejoin="round"
       stroke-width="2"
       d="m 17.236,40.3161 c -3.2007,-3.5759 -4.9796,-8.2009 -5,-13 0,-8.319 5.679,-15 14,-15 h 9"
       id="path2" />
    <path
       fill="none"
       stroke="#000"
       stroke-linecap="round"
       stroke-linejoin="round"
       stroke-width="2"
       d="m 17.236,40.3161 15,19 c 2.21,2.8 5.811,1.084 5,-1 l -7,-18 h 4.389"
       id="path4" />
    <path
       fill="none"
       stroke="#000"
       stroke-linecap="round"
       stroke-linejoin="round"
       stroke-width="2"
       d="m 41.448,40.3161 h 13 c 0.3099,0.0413 0.6238,0.0413 0.9337,0 1.933,-0.2578 3.291,-2.0339 3.0331,-3.9669 -0.2579,-1.933 -2.0339,-3.291 -3.9669,-3.0331 h -13 c -2.0658,-0.1226 -3.8473,1.4362 -4,3.5 0.1528,2.0638 1.9343,3.6226 4.0001,3.5 z"
       id="path6" />
    <path
       fill="none"
       stroke="#000"
       stroke-linecap="round"
       stroke-linejoin="round"
       stroke-width="2"
       d="m 42.305,18.9801 h 7 c 0.3099,0.0413 0.6238,0.0413 0.9337,0 1.933,-0.2578 3.291,-2.0339 3.0331,-3.9669 -0.2579,-1.933 -2.0339,-3.291 -3.9669,-3.0331 h -7 c -2.0658,-0.1226 -3.8473,1.4362 -4,3.5 0.1528,2.0638 1.9343,3.6226 4.0001,3.5 z"
       id="path8" />
    <path
       fill="none"
       stroke="#000"
       stroke-linecap="round"
       stroke-linejoin="round"
       stroke-width="2"
       d="m 37.236,32.9801 h 19 c 0.3099,0.0413 0.6238,0.0413 0.9337,0 1.933,-0.2578 3.291,-2.0339 3.0331,-3.9669 -0.2579,-1.933 -2.0339,-3.291 -3.9669,-3.0331 h -19 c -2.0658,-0.1226 -3.8473,1.4362 -4,3.5 0.1528,2.0638 1.9343,3.6226 4.0001,3.5 z"
       id="path10" />
    <path
       fill="none"
       stroke="#000"
       stroke-linecap="round"
       stroke-linejoin="round"
       stroke-width="2"
       d="m 39.236,25.9801 h 15 c 0.3099,0.0413 0.6238,0.0413 0.9337,0 1.933,-0.2578 3.291,-2.0339 3.0331,-3.9669 -0.2579,-1.933 -2.0339,-3.291 -3.9669,-3.0331 h -15 c -2.0658,-0.1226 -3.8473,1.4362 -4,3.5 0.1528,2.0638 1.9343,3.6226 4.0001,3.5 z"
       id="path12" />
    <path
       fill="none"
       stroke="#000"
       stroke-miterlimit="10"
       stroke-width="2"
       d="m 27.355,12.315 c -10.5,0 -15.125,6.94 -15.125,15.5 0.0807,2.7175 0.73,5.3879 1.906,7.839"
       id="path14" />
  </g>
</g></svg>