<svg xmlns="http://www.w3.org/2000/svg" width="24" height="24" viewBox="0 0 24 24"> <g transform="scale(0.41379310344827586)">
  
  <g
     id="line"
     transform="translate(-7,-7)">
    <circle
       cx="36"
       cy="36"
       r="28"
       fill="none"
       stroke="#000"
       stroke-linecap="round"
       stroke-linejoin="round"
       stroke-miterlimit="10"
       stroke-width="2"
       id="circle2" />
    <path
       fill="none"
       stroke="#000"
       stroke-linecap="round"
       stroke-linejoin="round"
       stroke-miterlimit="10"
       stroke-width="2"
       d="m 32,47 c -1.5469,0.1652 -2.6099,0.7611 -3,1 -0.7033,0.4307 -1.5549,0.9523 -2,2 -0.4653,1.0953 -0.2139,2.1245 0,3 0.2472,1.012 0.4286,1.7547 1,2 0.7282,0.3127 1.2331,0.4499 3,0 0.7713,-0.1964 1.9404,-0.4941 3,0 0.9949,0.464 0.8162,0.1239 2,1 0.4182,0.3095 1.5387,1.1387 3,1 1.2722,-0.1208 2.4038,-0.9373 3,-2 0.7448,-1.3275 0.5882,-2.9215 0,-4 -0.8341,-1.5294 -2.0909,-1.2053 -3,-3 -0.4124,-0.8142 -0.3632,-1.2944 -1,-2 -0.6519,-0.7223 -1.6523,-1.2702 -2,-1 -0.4014,0.312 0.4546,1.413 0,2 -0.4861,0.6277 -1.7694,-0.2382 -4,0 z"
       id="path4" />
    <path
       fill="none"
       stroke="#000"
       stroke-linecap="round"
       stroke-linejoin="round"
       stroke-miterlimit="10"
       stroke-width="2"
       d="m 27,41 c -1.0128,0.5427 -1.9557,1.547 -2,2 -0.0252,0.2579 0.3162,0.5088 1,1 1.0589,0.7607 1.0884,1.8078 1.5,1.6667 0.5548,-0.1901 1.3464,-1.7906 2.0426,-2.8333 0.814,-1.2191 3.0778,-1.1972 3.2908,-2.0833 C 33.0298,39.9323 30.613,38.0735 30,38 c -0.8605,-0.1031 -0.9983,1.9274 -3,3 z"
       id="path6" />
    <path
       fill="none"
       stroke="#000"
       stroke-linecap="round"
       stroke-linejoin="round"
       stroke-miterlimit="10"
       stroke-width="2"
       d="m 9,34 c 0.5363,0.13 2.3029,0.3956 3,1 0.8804,0.7633 -0.0786,1.4353 1,3 0.8754,1.2699 1.4379,3.0859 2,3 0.7427,-0.1134 0.5561,-2.6591 2,-4 0.4647,-0.4316 1.2271,-2.1396 2,-2 1.4918,0.2695 1.2206,3.3712 3,4 1.0358,0.366 2.3338,0.7411 3,0 0.8521,-0.9479 0.3369,-1.7146 1,-3 0.8275,-1.6039 2.0751,-1.2738 4,-3 2.0099,-1.8025 -0.7353,-2.7141 1,-4 2.0988,-1.5552 4.5219,-0.4686 6,-2 1.3787,-1.4284 -0.4493,-2.7987 1,-4 0.6379,-0.5287 3.0773,-0.4945 6,-1 1.2827,-0.2218 2.239,0.4398 4,0 1.4183,-0.3542 4.0643,-2.2649 4,-3 -0.0632,-0.7224 -1.6832,-0.9777 -2,-1 -2.0169,-0.1422 -2.2701,0.1908 -4,0 -1.9902,-0.2195 -1.9509,-0.6928 -4,-1 -0.9448,-0.1416 -1.0863,-0.061 -5,0 -2.2653,0.0353 -3.4099,0.0519 -4,0 -2.562,-0.2253 -4.642,-0.8844 -5,-1 -2.0319,-0.6559 -2.0007,-0.9771 -3,-1 -1.5103,-0.0345 -2.1089,0.6871 -4,1 -1.2519,0.2071 -2.313,0.1098 -3,0"
       id="path8" />
    <circle
       cx="36"
       cy="36"
       r="28"
       fill="none"
       stroke="#000"
       stroke-linecap="round"
       stroke-linejoin="round"
       stroke-miterlimit="10"
       stroke-width="2"
       id="circle10" />
  </g>
</g></svg>