<svg xmlns="http://www.w3.org/2000/svg" width="24" height="24" viewBox="0 0 24 24"> <g transform="translate(4.107939810396108 0.0) scale(0.4368149376730606)">
  
  <g
     id="line"
     transform="translate(-20.948805,-7.8210235)">
    <path
       fill="none"
       stroke="#000"
       stroke-linecap="round"
       stroke-linejoin="round"
       stroke-width="2"
       d="m 30.3663,41.0292 c -3.438,3.548 -7.676,10.246 -5.829,20.735"
       id="path2" />
    <path
       fill="none"
       stroke="#000"
       stroke-linecap="round"
       stroke-linejoin="round"
       stroke-miterlimit="10"
       stroke-width="2"
       d="m 45.1016,29.3352 4.5993,1.439 c 2.4184,0.5383 4.6761,0.4281 5.8362,-1.635 1.1601,-2.0631 0.4281,-4.6761 -1.635,-5.8362 l -1.8678,-1.0503 0.3501,-0.6226 0.7002,-1.2452 c 1.1601,-2.0631 0.4281,-4.6761 -1.635,-5.8362 -2.0631,-1.1601 -4.0122,-0.1006 -5.8362,1.635 l -3.1823,3.619"
       id="path4" />
    <path
       fill="none"
       stroke="#000"
       stroke-linecap="round"
       stroke-linejoin="round"
       stroke-miterlimit="10"
       stroke-width="2"
       d="m 35.5692,32.0058 -1.439,4.5993 c -0.5499,2.0082 -0.4281,4.6761 1.635,5.8362 2.0631,1.1601 4.6761,0.4281 5.8362,-1.635 l 1.0503,-1.8678 0.6226,0.3501 1.2452,0.7002 c 2.0631,1.1601 4.6761,0.4281 5.8362,-1.635 1.1601,-2.0631 0.3439,-4.059 -1.635,-5.8362 l -3.619,-3.1823"
       id="path6" />
    <path
       fill="none"
       stroke="#000"
       stroke-linecap="round"
       stroke-linejoin="round"
       stroke-miterlimit="10"
       stroke-width="2"
       d="m 33.7703,22.9634 -4.518,-1.5931 C 28.3755,21.0611 27.466,20.832 26.538,20.7757 c -1.651,-0.1002 -3.0707,0.3006 -3.9564,1.6953 -1.3313,2.0963 -0.4564,4.925 1.7081,6.1422 l 1.6762,0.9426 -0.3501,0.6226 -0.6079,1.0811 c -1.1963,2.1275 -0.4881,4.9496 1.6785,6.0737 2.015,1.0455 3.965,0.1156 5.7005,-1.7084 l 3.1823,-3.619"
       id="path8" />
    <path
       fill="none"
       stroke="#000"
       stroke-linecap="round"
       stroke-linejoin="round"
       stroke-miterlimit="10"
       stroke-width="2"
       d="m 42.4311,19.8028 1.439,-4.5993 C 44.4126,12.8502 44.2982,10.5274 42.2351,9.3673 40.172,8.2072 37.559,8.9392 36.3989,11.0023 L 35.3486,12.87 34.726,12.5199 33.4808,11.8197 c -2.0631,-1.1601 -4.6761,-0.4281 -5.8362,1.635 -1.1601,2.0631 -0.2862,4.1772 1.635,5.8362 l 4.4907,3.6725"
       id="path10" />
  </g>
</g></svg>