<svg xmlns="http://www.w3.org/2000/svg" width="24" height="24" viewBox="0 0 24 24"> <g transform="translate(0.0 0.7961374324660042) scale(0.49795033269099126)">
  
  <g
     id="line"
     transform="translate(-13,-12.00008)">
    <path
       fill="none"
       stroke="#000"
       stroke-linecap="round"
       stroke-linejoin="round"
       stroke-width="2"
       d="m 19,45 c -0.1,-0.2 -2.6,-4.1 -1,-7 1.3,-2.3 4.6,-2.9 5,-3 m 20,-8 c 0.3,-0.9 1.5,-3.4 1,-5 -0.4,-1.3 -0.9,-3 -5,-5 l -8,-4 c 0.1933,0.9907 0.1933,2.0093 0,3 -0.2,1.1 -0.7,3.3 -1,5 m 24,24 c 0.6,0.1 4.8,0.5 6,4 1,3 -2,7 -6,7 -4.3,0 -7.5,-1.2 -11.7,-1.6 M 23.6,35.1 C 23.4,35.1 23.2,35 23,35 c -0.7164,-1.2072 -1.064,-2.5977 -1,-4 0.1898,-2.5628 1.7074,-4.8391 4,-6 1.9,-0.9 2.7,-0.1 5,-1 1.5814,-0.6175 2.9644,-1.6547 4,-3 m 13.5,14.7 c 0.199,-0.2085 0.3673,-0.4442 0.5,-0.7 0.2,-0.2 1.7,-2.9 1,-5 -1,-3 -6,-2.9 -7,-3 -1.3213,1.9795 -3.0205,3.6787 -5,5 -1.8714,1.2946 -3.9774,2.2117 -6.2,2.7 m -0.5,10 c 2.9464,-0.3254 5.8185,-1.1364 8.5,-2.4 M 24.2,45 h 0.7 M 50,35 c 1.5364,0.1434 2.9634,0.8569 4,2 1.3,1.7 2.5,4.5 0,7 -2.7669,2.8203 -6.2094,4.8858 -10,6 -6,2 -15,5 -21,5 -5.1,0 -9,-1 -9,-5 0,-4.4 7.7,-4.9 10.2,-5"
       id="path2" />
    <path
       fill="none"
       stroke="#000"
       stroke-miterlimit="10"
       stroke-width="2.436"
       d="m 30.9,44.6 c -0.7483,1.0288 -1.9286,1.6558 -3.2,1.7 -2.7,0 -4.9,-3.1 -4.9,-6.9 0,-3.8 2.2,-6.9 4.9,-6.9 2.7,0 4.9,3.1 4.9,6.9 0.0207,1.8731 -0.5768,3.7008 -1.7,5.2"
       id="path4" />
    <path
       fill="none"
       stroke="#000"
       stroke-miterlimit="10"
       stroke-width="2.436"
       d="m 39.8,42.3 c -0.4095,-1.0862 -0.613,-2.2392 -0.6,-3.4 0,-3.8 2.2,-6.9 4.9,-6.9 2.7,0 4.9,3 4.9,6.9 0,3.9 -2.2,6.9 -4.9,6.9 -1.8,0 -3.4,-1.4 -4.3,-3.5"
       id="path6" />
    <path
       d="m 46.1,39 c 0,1.1046 -0.8954,2 -2,2 -1.1046,0 -2,-0.8954 -2,-2 0,-1.1046 0.8954,-2 2,-2 1.1046,0 2,0.8954 2,2"
       id="path8" />
    <path
       d="m 29.7,39.4 c 0,1.1046 -0.8954,2 -2,2 -1.1046,0 -2,-0.8954 -2,-2 0,-1.1046 0.8954,-2 2,-2 1.1046,0 2,0.8954 2,2"
       id="path10" />
  </g>
</g></svg>