<svg xmlns="http://www.w3.org/2000/svg" width="24" height="24" viewBox="0 0 24 24"> <g transform="translate(0.0 0.13084251310825046) scale(0.4620716299975285)">
  
  <g
     id="line"
     transform="translate(-9.83,-8.5808)">
    <path
       d="M 22.9654,17.9098 H 11.83 v 32.29 h 2.06 c 0.55,0 1,0.44 1,1 0,0.55 -0.45,1 -1,1 h -3.06 c -0.55,0 -1,-0.45 -1,-1 v -34.29 c 0,-0.55 0.45,-1 1,-1 h 13.0581 z"
       id="path2" />
    <path
       d="m 48.15,15.9098 h 12.62 c 0.55,0 1,0.4499 1,1 v 34.29 c 0,0.55 -0.45,1 -1,1 h -2.59 c -0.55,0 -1,-0.45 -1,-1 0,-0.56 0.45,-1 1,-1 h 1.59 v -32.29 H 49.0303 Z"
       id="path4" />
    <path
       d="m 47.15,27.2997 h -1.96 v 1.24 c 0,2.11 -1.71,3.82 -3.81,3.82 h -2.01 c -1.55,0 -2.88,-0.93 -3.48,-2.25 -0.6,1.32 -1.94,2.25 -3.48,2.25 H 30.4 c -2.11,0 -3.82,-1.71 -3.82,-3.82 v -1.24 h -0.69 c -0.45,0 -0.83,-0.3 -0.95,-0.71 0.23,-0.38 0.44,-0.8 0.62,-1.23 0.1,-0.04 0.21,-0.06 0.33,-0.06 h 1.69 c 0.05,0 0.1,0 0.15,0.01 0.49,0.08 0.85,0.49 0.85,0.99 v 2.24 c 0,1 0.82,1.82 1.82,1.82 h 2.01 c 1,0 1.81,-0.82 1.81,-1.82 v -1.1 c 0,-0.55 0.45,-1 1,-1 h 1.33 c 0.56,0 1,0.45 1,1 v 1.1 c 0,1 0.82,1.82 1.82,1.82 h 2.01 c 1,0 1.81,-0.82 1.81,-1.82 v -2.24 c 0,-0.55 0.45,-1 1,-1 h 2.406 z"
       id="path6" />
    <path
       fill="none"
       stroke="#000"
       stroke-linecap="round"
       stroke-linejoin="round"
       stroke-miterlimit="10"
       stroke-width="2"
       d="m 16.8904,58.0245 c 0,0 -2,-13 10,-13 0.05,0.04 0.11,0.07 0.16,0.1 3.08,2.05 5.75,3.46 8.72,3.49 0.01,0 0.02,0 0.03,0 h 0.09 c 2.93,-0.03 5.56,-1.4 8.59,-3.4 0.1,-0.06 0.19,-0.12 0.29,-0.19 3.99,0 6.43,1.44 7.92,3.36 l 0.78,1.26"
       id="path8" />
    <polygon
       fill="none"
       stroke="#000"
       stroke-linecap="round"
       stroke-linejoin="round"
       stroke-miterlimit="10"
       stroke-width="2"
       points="35.7404,57.3545 29.8504,58.9545 29.9404,54.1645 24.3204,54.4045 26.8904,45.3645 35.7404,57.1945 35.8304,57.3245 "
       id="polygon10" />
    <polygon
       fill="none"
       stroke="#000"
       stroke-linecap="round"
       stroke-linejoin="round"
       stroke-miterlimit="10"
       stroke-width="2"
       points="35.7404,57.3545 41.6204,58.9545 41.5304,54.1645 47.1504,54.4045 44.5804,45.3645 35.7404,57.1945 35.6404,57.3245 "
       id="polygon12" />
    <path
       d="m 53.0441,58.7525 c -0.5096,0 -0.9023,-0.4491 -0.8345,-0.9541 L 55.5814,31.2951 54.1676,57.967 c -0.0297,0.4421 -0.6804,0.7855 -1.1235,0.7855 z"
       id="path14" />
    <path
       d="m 53.0439,59.5029 c -0.4599,0 -0.8964,-0.1982 -1.1982,-0.5439 -0.3027,-0.3467 -0.4404,-0.8057 -0.3789,-1.2608 l 3.3701,-26.498 c 0.0508,-0.3994 0.3975,-0.6895 0.8115,-0.6523 0.4014,0.0361 0.7032,0.3837 0.6817,0.7871 L 54.917,58.0068 c -0.0664,0.9678 -1.1494,1.4961 -1.8731,1.4961 z m 0.71,-7.9004 -0.7998,6.2911 0.0898,0.1093 c 0.1153,0 0.3028,-0.0859 0.379,-0.1572 z"
       id="path16" />
    <path
       d="m 41.9529,27.0468 c 0,1.1046 -0.8954,2 -2,2 -1.1046,0 -2,-0.8954 -2,-2 0,-1.1046 0.8954,-2 2,-2 1.1044,4e-4 1.9996,0.8956 2,2"
       id="path18" />
    <path
       d="m 33.9529,27.0468 c 0,1.1046 -0.8954,2 -2,2 -1.1046,0 -2,-0.8954 -2,-2 0,-1.1046 0.8954,-2 2,-2 1.1044,4e-4 1.9996,0.8956 2,2"
       id="path20" />
    <path
       d="m 35.9527,37.0492 c -1.2005,-0.0116 -2.3813,-0.3055 -3.4472,-0.8579 -0.494,-0.247 -0.6943,-0.8477 -0.4473,-1.3418 0.247,-0.4941 0.8477,-0.6943 1.3418,-0.4473 1.5934,0.8593 3.5121,0.8593 5.1055,0 0.494,-0.247 1.0947,-0.0468 1.3418,0.4473 0.2471,0.4941 0.0468,1.0947 -0.4473,1.3418 -1.0659,0.5524 -2.2468,0.8463 -3.4473,0.8579 z"
       id="path22" />
    <path
       fill="none"
       stroke="#000"
       stroke-linecap="round"
       stroke-linejoin="round"
       stroke-width="2"
       d="m 26,36.5808 c -4,0 -4,-6 -4,-13 0,-7 4,-14 14,-14 10,0 14,7 14,14 0,7 0,13 -4,13"
       id="path24" />
    <path
       fill="none"
       stroke="#000"
       stroke-linejoin="round"
       stroke-width="2"
       d="m 24.9365,28.5808 c 0,9 4.9365,14 11,14 5.9365,0 11.0635,-5 11.0635,-14 0.0245,-1.7187 -0.3164,-3.4229 -1,-5 -3,-3 -7,-8 -7,-8 -4,3 -7,6 -13,7.0005 0,-5e-4 -1.0635,0.9987 -1.0635,5.9995 z"
       id="path26" />
  </g>
</g></svg>