<svg xmlns="http://www.w3.org/2000/svg" width="24" height="24" viewBox="0 0 24 24"> <g transform="translate(0.0 1.7358746370146712) scale(0.383344517675848)">
  
  <g
     id="line"
     transform="translate(-5.6965343,-9.3037385)">
    <circle
       cx="26.781799"
       cy="38.6203"
       r="3"
       fill="#000"
       stroke="none"
       id="circle2" />
    <line
       x1="37"
       x2="37"
       y1="54.469002"
       y2="57.491001"
       fill="none"
       stroke="#000"
       stroke-linecap="round"
       stroke-linejoin="round"
       stroke-miterlimit="10"
       stroke-width="2"
       id="line4" />
    <path
       fill="none"
       stroke="#000"
       stroke-linecap="round"
       stroke-linejoin="round"
       stroke-miterlimit="10"
       stroke-width="2"
       d="m 42.0616,59.9329 10.4088,-4.5136 c 10.5713,-5.4638 5.345,-20.6675 5.345,-20.6675 4.3948,-1.7817 6.8394,-6.0914 6.8394,-6.0914 6.3409,-12.3194 -0.2162,-16.7439 -3.6864,-18.1503 -1.0579,-0.4287 -2.2666,-0.1795 -3.0757,0.6257 l -8.3325,7.6996 c -8.3737,-4.9392 -16.7472,-4.9392 -25.1207,0 L 16.107,11.1358 c -0.809,-0.8052 -2.0178,-1.0544 -3.0757,-0.6257 -3.47,1.4064 -10.027,5.8309 -3.6862,18.1503 0,0 2.4446,4.3097 6.8394,6.0914 0,0 -5.2263,15.2037 5.345,20.6675 l 10.4088,4.5136 c 2.7411,2.534 7.3824,2.5339 10.1233,0 z"
       id="path6" />
    <path
       fill="none"
       stroke="#000"
       stroke-linecap="round"
       stroke-linejoin="round"
       stroke-miterlimit="10"
       stroke-width="2"
       d="m 13.4527,14.728 c 0,0 8.077,3.8724 5.2263,16.5211"
       id="path8" />
    <circle
       cx="47.218201"
       cy="38.6203"
       r="3"
       fill="#000"
       stroke="none"
       id="circle10" />
    <path
       fill="none"
       stroke="#000"
       stroke-linecap="round"
       stroke-linejoin="round"
       stroke-miterlimit="10"
       stroke-width="2"
       d="m 60.5473,14.728 c 0,0 -8.077,3.8724 -5.2263,16.5211"
       id="path12" />
    <path
       fill="#000"
       stroke="none"
       d="m 34.449,50.265 c 1.4173,-0.2612 3.1422,-0.4049 4.971,-0.1656 1.8102,0.2369 2.6036,1.9215 1.4716,3.0418 l -1.9003,1.8806 c -0.9386,0.9289 -2.7309,0.9772 -3.7505,0.1011 L 33.2186,53.3854 C 31.9765,52.3183 32.645,50.5974 34.449,50.265 Z"
       id="path14" />
  </g>
</g></svg>