<svg xmlns="http://www.w3.org/2000/svg" width="24" height="24" viewBox="0 0 24 24"> <g transform="translate(7.269356928239466 0.0) scale(0.48050014298883426)">
  
  <g
     id="line"
     transform="translate(-25.954003,-11.033)">
    <path
       fill="none"
       d="m 36.05,35.73 -0.3291,24.55 c 0,0 -8.668,-6.463 -9.35,-7.823 -0.682,-1.36 -0.3219,-16.47 -0.3219,-16.47 z"
       id="path2" />
    <path
       fill="none"
       d="m 45.52,36.17 0.1245,15.42 c 0,0 -7.773,7.626 -9.913,9.168 -0.02504,-2.061 -0.1614,-24.29 -0.1614,-24.29 z"
       id="path4" />
    <path
       fill="none"
       stroke="#000"
       stroke-linecap="round"
       stroke-linejoin="round"
       stroke-width="2"
       d="m 41.07,19.57 c 0,-4.163 -2.359,-7.537 -5.269,-7.537 -2.91,0 -5.269,3.375 -5.269,7.537 h 0.0026 l 1.651,8.866 h -1.439 v 3.156 h 9.927 v -3.156 h -1.019 z"
       id="path6" />
    <path
       fill="#000"
       d="m 32.46,31.59 h 6.932 v 4.528 H 32.46 Z"
       id="path8" />
    <path
       fill="none"
       stroke="#000"
       stroke-linecap="round"
       stroke-linejoin="round"
       stroke-width="2"
       d="M 43.83,51.9 43.6426,36.12 h -15.48 v 15.86 l 7.832,8.001 z"
       id="path10" />
    <path
       fill="none"
       stroke="#000"
       stroke-linecap="round"
       stroke-linejoin="round"
       stroke-width="2"
       d="m 32.38,36.12 2.281,5.303 c 0.4681,1.149 2.091,1.216 2.654,0.1089 l 2.296,-5.412"
       id="path12" />
    <ellipse
       cx="35.799999"
       cy="17.76"
       rx="1.915"
       ry="1.89"
       id="ellipse14" />
  </g>
</g></svg>