<svg xmlns="http://www.w3.org/2000/svg" width="24" height="24" viewBox="0 0 24 24"> <g transform="translate(2.5947959444968447 0.0) scale(0.4134036059749637)">
  
  <g
     id="line"
     transform="translate(-8.9493984,-6.7116558)">
    <path
       fill="none"
       stroke="#000"
       stroke-linecap="round"
       stroke-linejoin="round"
       stroke-width="2"
       d="m 20.6736,59.9844 c 1.2983,-1.388 3.5826,-3.6053 4.8424,-4.9521 -1.4537,0.886 -4.2076,3.37 -5.6142,4.2624 a 46.0024,46.0024 0 0 1 -5.4918,-4.7712 23.6424,23.6424 0 0 0 9.05,-4.15 29.78,29.78 0 0 1 -10.084,2.9036 47.9434,47.9434 0 0 1 -3.4267,-5.45 c 7.1521,1.9446 14.9291,-0.92 19.73,-5.92 1.2414,0.7174 2.835,1.59 4.1359,2.2474 a 3.2052,3.2052 0 0 1 1.6174,1.9094 c 1.7464,4.6657 0.728,8.7784 -2.4318,12.475 -1.3221,1.5467 -3.2938,3.9123 -5.0353,4.9607 a 33.9572,33.9572 0 0 1 -7.2919,-3.5152 z"
       id="path2" />
    <path
       fill="none"
       stroke="#000"
       stroke-miterlimit="10"
       stroke-width="2"
       d="m 36.41,39.1206 -2.5918,-1.5 c 0.684,-1.1936 1.3464,-2.3568 2.0156,-3.516 q 7.255,-12.5672 14.5125,-25.133 c 0.0989,-0.1713 0.1948,-0.3449 0.3033,-0.51 a 1.4973,1.4973 0 0 1 2.5844,1.5126 c -0.81,1.4511 -1.6532,2.8832 -2.484,4.3224 Q 44.3857,25.322 38.02,36.347 c -0.5225,0.9055 -1.0495,1.8086 -1.61,2.7736 z"
       id="path4" />
    <path
       fill="none"
       stroke="#000"
       stroke-miterlimit="10"
       stroke-width="2"
       d="m 35.17,44.2183 -5.12,-2.9575 c 0.5348,-0.9183 1.0216,-1.82 1.5756,-2.6789 a 0.9318,0.9318 0 0 1 1.31,-0.3181 q 1.7127,0.9444 3.3875,1.9568 a 0.9384,0.9384 0 0 1 0.377,1.2973 C 36.2334,42.4269 35.696,43.3 35.17,44.2183 Z"
       id="path6" />
    <circle
       cx="33.057499"
       cy="63.3582"
       r="1.4081"
       id="circle8" />
    <circle
       cx="36.299301"
       cy="59.294701"
       r="1.1846"
       id="circle10" />
    <circle
       cx="36.299301"
       cy="62.2939"
       r="0.94129997"
       id="circle12" />
  </g>
</g></svg>