<svg xmlns="http://www.w3.org/2000/svg" width="24" height="24" viewBox="0 0 24 24"> <g transform="scale(0.6)">
  
  <g
     id="line"
     transform="translate(-16,-16)">
    <path
       fill="#000"
       stroke="none"
       d="M 49.2614,18 C 51.8743,18 54,20.1257 54,22.7386 V 49.2615 C 54,51.8743 51.8743,54 49.2614,54 H 22.7386 C 20.1257,54 18,51.8743 18,49.2614 V 22.7386 C 18,20.1257 20.1257,18 22.7386,18 h 26.5228 m 0,-2 H 22.7386 C 19.017,16 16,19.017 16,22.7386 V 49.2615 C 16,52.983 19.017,56 22.7386,56 H 49.2615 C 52.983,56 56,52.983 56,49.2614 V 22.7386 C 56,19.017 52.983,16 49.2614,16 Z"
       id="path2" />
  </g>
</g></svg>