<svg xmlns="http://www.w3.org/2000/svg" width="24" height="24" viewBox="0 0 24 24"> <g transform="translate(0.0 4.829539977842053) scale(0.42336655261348144)">
  
  <g
     id="line"
     transform="translate(-8.1749183,-14.113285)">
    <polyline
       fill="none"
       stroke="#000"
       stroke-linecap="round"
       stroke-linejoin="round"
       stroke-miterlimit="10"
       stroke-width="1.5597"
       points="20.382,26.3985 14.0939,15.9336 11.0157,14.8931 12.1468,25.0383"
       id="polyline2" />
    <polyline
       fill="none"
       stroke="#000"
       stroke-linecap="round"
       stroke-linejoin="round"
       stroke-miterlimit="10"
       stroke-width="1.5597"
       points="44.2447,39.3708 26.1047,22.6204 23.5352,22.5103 33.0704,37.5285"
       id="polyline4" />
    <circle
       cx="32.452599"
       cy="44.1922"
       transform="matrix(0.3202,-0.9473,0.9473,0.3202,-19.8042,60.7858)"
       fill="#000"
       stroke="none"
       id="ellipse6"
       r="2" />
    <circle
       cx="37.772301"
       cy="45.770401"
       transform="matrix(0.3202,-0.9473,0.9473,0.3202,-17.683,66.8983)"
       fill="#000"
       stroke="none"
       id="ellipse8"
       r="2" />
    <path
       fill="none"
       stroke="#000"
       stroke-linecap="round"
       stroke-linejoin="round"
       stroke-miterlimit="10"
       stroke-width="1.5597"
       d="m 43.2603,34.3292 11.4341,3.2856 c 1.4513,0.417 2.7953,1.1264 3.9549,2.0935 2.86,2.3851 7.6527,6.8448 4.2739,7.425 -4.6427,0.7974 -27.5488,-6.0191 -34.2447,-8.128 -6.6958,-2.109 -13.907,-6.0905 -18.4097,-9.4641 -3.941,-2.9527 2.243,-1.9172 2.243,-1.9172 0,0 7.116,1.0479 10.0418,1.7994 l 2.9414,0.7554"
       id="path10" />
  </g>
</g></svg>