<svg xmlns="http://www.w3.org/2000/svg" width="24" height="24" viewBox="0 0 24 24"> <g transform="translate(0.0 2.0067654093859737) scale(0.48633814349451504)">
  
  <g
     id="line"
     transform="translate(-12.652498,-14.999993)">
    <line
       x1="21.223301"
       x2="21.2223"
       y1="26.274799"
       y2="19.755699"
       fill="none"
       stroke="#000"
       stroke-linecap="round"
       stroke-linejoin="round"
       stroke-width="2"
       id="line2" />
    <path
       fill="none"
       stroke="#000"
       stroke-linecap="round"
       stroke-linejoin="round"
       stroke-width="2"
       d="m 17.1929,24.2766 v -4.8717 c 0,-2.2272 4.0293,-2.3929 4.03,0.3508 v -1.7755 c 0,-2.398 3.9,-3.234 3.9009,1.06"
       id="path4" />
    <path
       fill="none"
       stroke="#000"
       stroke-linecap="round"
       stroke-linejoin="round"
       stroke-width="2"
       d="M 25.2294,29.9222 25.1231,18.5736 V 19.04 c 0,-2.1406 3.9487,-2.7168 3.9492,0.5053 l 0.0366,3.9106 0.07,7.4381 -0.08,-8.5531 c 0,-1.9284 3.4353,-1.9937 3.4356,0.4933 l 0.0022,14.8165 a 9.671,9.671 0 0 1 -0.62,3.426 l -0.375,0.8582 c 0,0 -2.5217,9.6551 -3.245,12.9694 H 17.4821 C 16.8035,51.9485 14.2377,41.9349 14.2377,41.9349 l -0.3223,-1.3533 a 9.68,9.68 0 0 1 0.3974,-5.7547 c 0.6211,-1.5962 1.3919,-3.5908 2.3775,-5.9179 1.01,-0.4091 1.8534,0.2683 2.38,1.2759 a 4.3081,4.3081 0 0 1 0.0523,3.6583 l -0.13,0.307 a 6.2041,6.2041 0 0 0 -0.4913,2.42 v 1.1719"
       id="path6" />
    <line
       x1="50.7066"
       x2="50.705002"
       y1="19.947201"
       y2="31.0853"
       fill="none"
       stroke="#000"
       stroke-linecap="round"
       stroke-linejoin="round"
       stroke-width="2"
       id="line8" />
    <path
       fill="none"
       stroke="#000"
       stroke-linecap="round"
       stroke-linejoin="round"
       stroke-width="2"
       d="m 54.99,35.3929 1.3574,-4.911 a 2.5373,2.5373 0 0 1 0.6383,-1.128 c 1.0907,-1.0881 2.7824,-1.8343 3.7489,-1.0268 a 0.7978,0.7978 0 0 1 0.2416,0.7934 c -0.9673,3.983 -1.8539,6.889 -2.2486,8.6529 l -1.0368,4.353 c 0,0 -2.1847,8.3854 -3.1087,12.3744 a 0.77,0.77 0 0 1 -0.7537,0.595 H 44.24 a 0.7675,0.7675 0 0 1 -0.751,-0.5834 c -0.8994,-3.6557 -3.1014,-12.386 -3.1014,-12.386 l -0.375,-0.8582 a 9.6687,9.6687 0 0 1 -0.62,-3.426 l 0.0021,-14.8165 c 0,-2.487 3.436,-2.4218 3.4357,-0.4933 l -0.08,8.553 0.07,-7.438 0.0367,-3.9106 c 0,-3.2222 3.9494,-2.646 3.9491,-0.5053 V 18.7651 L 46.7,30.1137"
       id="path10" />
    <path
       fill="none"
       stroke="#000"
       stroke-linecap="round"
       stroke-linejoin="round"
       stroke-width="2"
       d="m 46.8057,19.2315 c 6e-4,-4.2938 3.9013,-3.4578 3.9009,-1.06 v 1.7755 c 0,-2.7437 4.03,-2.578 4.03,-0.3508 v 5.68"
       id="path12" />
    <line
       x1="29.7258"
       x2="16.122"
       y1="47.9118"
       y2="47.9118"
       fill="none"
       stroke="#000"
       stroke-linecap="round"
       stroke-linejoin="round"
       stroke-width="2"
       id="line14" />
    <line
       x1="55.821499"
       x2="42.217701"
       y1="48.103298"
       y2="48.103298"
       fill="none"
       stroke="#000"
       stroke-linecap="round"
       stroke-linejoin="round"
       stroke-width="2"
       id="line16" />
  </g>
</g></svg>