<svg xmlns="http://www.w3.org/2000/svg" width="24" height="24" viewBox="0 0 24 24"> <g transform="translate(0.0 0.09733928068376407) scale(0.4660202499779223)">
  
  <g
     id="line"
     transform="translate(-10.250096,-8.4629602)">
    <path
       fill="none"
       stroke="#000"
       stroke-linecap="round"
       stroke-linejoin="round"
       stroke-width="2"
       d="m 46.2551,52.4733 -0.0578,-4.1409 c 0,-1.2145 1.3811,-2.542 2.1609,-3.434 2.8766,-3.3062 4.4518,-7.5462 4.4316,-11.9286 0,-9.7158 -7.4493,-17.594 -16.6307,-17.5747 -1.1042,0.0035 -2.2052,0.1177 -3.2866,0.3409 -6.6084,1.3552 -11.8742,7.0833 -13.0225,14.1063 -0.9438,5.4162 0.6083,10.9689 4.2239,15.1106 0.768,0.8686 1.9951,2.1944 1.9951,3.3838 l -0.0184,4.1736"
       id="path2" />
    <line
       x1="29.3706"
       x2="29.3706"
       y1="51.0812"
       y2="55.084801"
       fill="none"
       stroke="#000"
       stroke-linecap="round"
       stroke-linejoin="round"
       stroke-width="2"
       id="line4" />
    <line
       x1="34.156502"
       x2="34.156502"
       y1="51.973301"
       y2="55.977699"
       fill="none"
       stroke="#000"
       stroke-linecap="round"
       stroke-linejoin="round"
       stroke-width="2"
       id="line6" />
    <line
       x1="43.063202"
       x2="43.063202"
       y1="51.0812"
       y2="55.084801"
       fill="none"
       stroke="#000"
       stroke-linecap="round"
       stroke-linejoin="round"
       stroke-width="2"
       id="line8" />
    <line
       x1="38.720402"
       x2="38.720402"
       y1="51.973301"
       y2="55.977699"
       fill="none"
       stroke="#000"
       stroke-linecap="round"
       stroke-linejoin="round"
       stroke-width="2"
       id="line10" />
    <polyline
       fill="none"
       stroke="#000"
       stroke-linecap="round"
       stroke-linejoin="round"
       stroke-width="2"
       points="33.7024,48.7419 36.1581,43.843 39.0938,48.7419"
       id="polyline12" />
    <circle
       cx="29.3706"
       cy="39.200298"
       r="4.1877999"
       fill="none"
       stroke="#000"
       stroke-miterlimit="10"
       stroke-width="2"
       id="circle14" />
    <circle
       cx="43.063202"
       cy="39.200298"
       r="4.1877999"
       fill="none"
       stroke="#000"
       stroke-miterlimit="10"
       stroke-width="2"
       id="circle16" />
    <path
       fill="none"
       stroke="#000"
       stroke-linecap="round"
       stroke-linejoin="round"
       stroke-width="2"
       d="m 53.0148,20.6654 c 1.2729,-1.2642 2.132,-2.1147 2.4157,-2.3897 0,0 1.9438,1.8393 3.2697,1.4425 1.3739,-0.4111 2.157,-1.8078 2.036,-2.9537 -0.1677,-1.5889 -2.11,-3.0402 -4.4383,-2.5565 0.4057,-1.5126 0.0682,-3.0622 -0.9331,-3.9948 -1.6539,-1.5404 -4.078,-0.4787 -4.9897,0.9177 -1.2203,1.8691 1.5734,3.6628 1.5734,3.6628 -0.2657,0.2576 -1.0353,1.0191 -2.1762,2.1518"
       id="path18" />
    <path
       fill="none"
       stroke="#000"
       stroke-linecap="round"
       stroke-linejoin="round"
       stroke-width="2"
       d="m 19.6785,46.9079 c -1.5494,1.5397 -2.5998,2.5803 -2.9198,2.8905 -0.6553,-1.3027 -2.133,-1.943 -3.4588,-1.5463 -1.3739,0.4111 -2.157,1.8078 -2.036,2.9537 0.1677,1.5889 2.11,3.0402 4.4383,2.5565 -0.4057,1.5126 -0.0682,3.0622 0.9332,3.9948 1.6539,1.5404 4.3294,0.6137 4.9897,-0.9177 0.469,-1.0879 0.1927,-2.2976 -1.4383,-3.5051 0.2604,-0.2525 1.0057,-0.9898 2.1108,-2.087"
       id="path20" />
    <path
       fill="none"
       stroke="#000"
       stroke-linecap="round"
       stroke-linejoin="round"
       stroke-width="2"
       d="m 19.1125,20.7917 c -1.3428,-1.3339 -2.2498,-2.2319 -2.5429,-2.5161 0,0 -1.9438,1.8393 -3.2697,1.4425 -1.3739,-0.4111 -2.157,-1.8078 -2.036,-2.9537 0.1677,-1.5889 2.11,-3.0402 4.4383,-2.5565 -0.4057,-1.5126 -0.0682,-3.0622 0.9332,-3.9948 1.6539,-1.5404 4.078,-0.4787 4.9897,0.9177 1.2203,1.8691 -1.5735,3.6629 -1.5735,3.6629 0.2863,0.2776 1.1575,1.14 2.4478,2.4216"
       id="path22" />
    <path
       fill="none"
       stroke="#000"
       stroke-linecap="round"
       stroke-linejoin="round"
       stroke-width="2"
       d="m 52.4968,47.0821 c 1.4533,1.4439 2.4367,2.4179 2.7444,2.7162 0.6553,-1.3027 2.133,-1.943 3.4588,-1.5463 1.3739,0.4111 2.157,1.8078 2.036,2.9537 -0.1677,1.5889 -2.11,3.0402 -4.4383,2.5565 0.4057,1.5126 0.0682,3.0622 -0.9331,3.9948 -1.6539,1.5404 -4.3294,0.6137 -4.9897,-0.9177 -0.469,-1.0879 -0.1927,-2.2976 1.4383,-3.5051 -0.2579,-0.25 -0.9912,-0.9755 -2.0786,-2.055"
       id="path24" />
  </g>
</g></svg>