<svg xmlns="http://www.w3.org/2000/svg" width="24" height="24" viewBox="0 0 24 24"> <g transform="translate(2.612659713475411 0.0) scale(0.4677742430287166)">
  
  <g
     id="line"
     transform="translate(-15.829801,-8.3682)">
    <path
       d="m 49.361,55.9954 a 2,2 0 1 1 -2,-2 2.0007,2.0007 0 0 1 2,2"
       id="path2" />
    <path
       fill="none"
       stroke="#000"
       stroke-linecap="round"
       stroke-linejoin="round"
       stroke-width="2"
       d="m 16.9579,58.675 c 0,0 -2,-13 10,-13 3.16,2.09 5.86,3.55 8.88,3.59 h 0.12 c 2.96,-0.04 5.63,-1.44 8.7,-3.47 l 0.18,-0.12 c 12,0 10,13 10,13"
       id="path4" />
    <polyline
       fill="none"
       stroke="#000"
       stroke-linecap="round"
       stroke-linejoin="round"
       stroke-width="2"
       points="26.958 45.675 30.708 54.555 33.268 51.915 35.838 49.265"
       id="polyline6" />
    <line
       x1="38.387901"
       x2="35.837898"
       y1="51.884998"
       y2="49.264999"
       fill="none"
       stroke="#000"
       stroke-linecap="round"
       stroke-linejoin="round"
       stroke-width="2"
       id="line8" />
    <polyline
       fill="none"
       stroke="#000"
       stroke-linecap="round"
       stroke-linejoin="round"
       stroke-width="2"
       points="44.708 45.675 44.658 45.795 40.968 54.555 38.388 51.895"
       id="polyline10" />
    <path
       fill="none"
       stroke="#000"
       stroke-linecap="round"
       stroke-linejoin="round"
       stroke-width="2"
       d="m 33.4279,52.065 c 0.14,1.5 0.72,3.01 2.47,3.01 1.83,0 2.38,-1.62 2.49,-3.18 v -0.01"
       id="path12" />
    <line
       x1="35.047901"
       x2="32.637901"
       y1="55.075001"
       y2="58.674999"
       fill="none"
       stroke="#000"
       stroke-linecap="round"
       stroke-linejoin="round"
       stroke-width="2"
       id="line14" />
    <line
       x1="36.747898"
       x2="39.1679"
       y1="55.075001"
       y2="58.674999"
       fill="none"
       stroke="#000"
       stroke-linecap="round"
       stroke-linejoin="round"
       stroke-width="2"
       id="line16" />
    <path
       d="m 26.9629,58.1289 h -5.8447 a 1,1 0 0 1 0,-2 h 5.8447 a 1,1 0 1 1 0,2 z"
       id="path18" />
    <path
       d="m 39.9734,25.815 a 2,2 0 1 1 -2,2 1.9994,1.9994 0 0 1 2,-2 z"
       id="path20" />
    <path
       d="m 31.9734,25.815 a 2,2 0 1 1 -2,2 1.9994,1.9994 0 0 1 2,-2 z"
       id="path22" />
    <path
       d="m 36.0224,37.8208 a 7.6524,7.6524 0 0 1 -3.4472,-0.8579 1.0000814,1.0000814 0 1 1 0.8945,-1.789 5.3779,5.3779 0 0 0 5.1055,0 1.0000814,1.0000814 0 1 1 0.8945,1.789 7.6528,7.6528 0 0 1 -3.4473,0.8579 z"
       id="path24" />
    <path
       d="m 36.0225,44.3525 c -6.4161,0 -11.6983,-5.916 -12.2862,-13.7607 l 1.9942,-0.15 c 0.5009,6.68 5.0215,11.9111 10.292,11.9111 5.2578,0 9.6728,-5.0136 10.2714,-11.663 0.045,-0.5 0.0674,-1.0083 0.0674,-1.51 h 2 c 0,0.561 -0.0254,1.1294 -0.0752,1.689 -0.6923,7.6868 -5.9638,13.4836 -12.2636,13.4836 z"
       id="path26" />
    <path
       d="m 36.0928,18.5562 c -2.9346,0 -3.4756,-4.3345 -3.5274,-4.8287 a 1.0009,1.0009 0 0 1 0.38,-0.894 5.1294,5.1294 0 0 1 6.3184,0.1362 1.002,1.002 0 0 1 0.292,0.7989 c -0.044,0.49 -0.51,4.7827 -3.458,4.7876 z m 0.001,-2 0.0019,1 -0.0019,-1 c 0.7539,-0.001 1.2119,-1.4581 1.3916,-2.42 a 3.4077,3.4077 0 0 0 -2.835,-0.02 c 0.2187,1.0708 0.7324,2.44 1.4424,2.44 z"
       id="path28" />
    <path
       d="m 36.2979,24.459 c -4.6973,0 -9.2071,-1.5288 -11.669,-3.9951 a 1,1 0 0 1 0.708,-1.7066 h 21.0684 a 1,1 0 0 1 0.7617,1.6475 c -2.0313,2.3921 -5.6787,3.8633 -10.0059,4.0371 q -0.4321,0.0168 -0.8632,0.0171 z m -7.8243,-3.7017 a 17.9909,17.9909 0 0 0 8.6075,1.6861 14.34,14.34 0 0 0 6.538,-1.6861 z"
       id="path30" />
    <path
       d="m 47.7324,24.46 a 1,1 0 0 1 -0.77,-1.6372 l 2.248,-2.7207 a 3.63,3.63 0 0 0 0.8086,-1.9424 12.2217,12.2217 0 0 1 -5.64,-3.84 c -1.9815,-2.0317 -3.8535,-3.9511 -8.3125,-3.9511 -4.459,0 -6.332,1.9194 -8.3135,3.9511 a 12.2242,12.2242 0 0 1 -5.64,3.84 3.645,3.645 0 0 0 0.8086,1.9424 l 2.0117,2.434 a 1,1 0 0 1 -1.541,1.2745 L 21.3818,21.376 C 20.71,20.563 19.8027,18.7817 20.2256,17.4609 a 1.7748,1.7748 0 0 1 1.2715,-1.207 c 2.1259,-0.564 3.4365,-1.9077 4.8252,-3.3306 2.082,-2.1352 4.4423,-4.5551 9.7451,-4.5551 5.3028,0 7.6621,2.42 9.7441,4.5547 1.3887,1.4233 2.6992,2.767 4.8252,3.3315 a 1.7719,1.7719 0 0 1 1.2715,1.2075 c 0.4238,1.3218 -0.4844,3.1026 -1.1562,3.9146 l -2.2481,2.72 A 0.9973,0.9973 0 0 1 47.7324,24.46 Z"
       id="path32" />
    <g
       id="g38">
      <path
         d="m 24.55,32.0781 a 1,1 0 0 1 -0.7842,-0.38 7.286,7.286 0 0 1 -1.7773,-5.6948 8.6259,8.6259 0 0 1 3.4062,-5.2495 1,1 0 0 1 1.1368,1.6455 v 0 a 6.6752,6.6752 0 0 0 -2.5674,3.9151 4.6381,4.6381 0 0 0 0.458,2.7026 12.7737,12.7737 0 0 1 9.4287,-6.5454 0.9881,0.9881 0 0 1 1.13,0.8511 0.9993,0.9993 0 0 1 -0.8506,1.1293 11.1952,11.1952 0 0 0 -8.6348,6.9512 0.9985,0.9985 0 0 1 -0.7773,0.66 0.9827,0.9827 0 0 1 -0.1681,0.0149 z"
         id="path34" />
      <path
         d="m 47.0908,32.0781 a 1.0009,1.0009 0 0 1 -0.9472,-0.6787 c -1.004,-2.96 -3.26,-7.4038 -4.9131,-7.5415 a 1.0000503,1.0000503 0 0 1 0.166,-1.9932 c 2.6748,0.2227 4.8086,4.3306 5.9082,6.9629 a 4.5658,4.5658 0 0 0 0.3721,-2.5131 6.6757,6.6757 0 0 0 -2.5674,-3.9151 1,1 0 0 1 1.1367,-1.6455 8.6259,8.6259 0 0 1 3.4062,5.2495 7.2857,7.2857 0 0 1 -1.7773,5.6948 1,1 0 0 1 -0.7842,0.3799 z"
         id="path36" />
    </g>
  </g>
</g></svg>