<svg xmlns="http://www.w3.org/2000/svg" width="24" height="24" viewBox="0 0 24 24"> <g transform="translate(4.4079310344827585 0.0) scale(0.41379310344827586)">
  
  <g
     id="line"
     transform="translate(-21,-7)">
    <path
       fill="none"
       stroke="#000"
       stroke-miterlimit="10"
       stroke-width="2"
       d="M 25,21 V 9 c 0,-0.5523 0.4477,-1 1,-1 h 20 c 0.5523,0 1,0.4477 1,1 v 12"
       id="path2" />
    <polyline
       fill="none"
       stroke="#000"
       stroke-linecap="round"
       stroke-linejoin="round"
       stroke-miterlimit="10"
       stroke-width="2"
       points="35.8442,26.1875 35.8442,36.1875 44.1558,36.1875"
       id="polyline4" />
    <polyline
       fill="none"
       stroke="#000"
       stroke-linecap="round"
       stroke-linejoin="round"
       stroke-miterlimit="10"
       stroke-width="2"
       points="47,54.9997 47,64 25,64 25,54.9997"
       id="polyline6" />
    <polyline
       fill="none"
       stroke="#000"
       stroke-linecap="round"
       stroke-linejoin="round"
       stroke-miterlimit="10"
       stroke-width="2"
       points="25,17.0003 25,8 47,8 47,17.0003"
       id="polyline8" />
    <path
       fill="none"
       stroke="#000"
       stroke-linecap="round"
       stroke-linejoin="round"
       stroke-miterlimit="10"
       stroke-width="2"
       d="m 53.9959,31.3691 h 0.6991 c 1.1,0 2,0.9 2,2 v 5.1541 c 0,1.1 -0.9,2 -2,2 h -0.6992"
       id="path10" />
    <path
       fill="none"
       stroke="#000"
       stroke-linecap="round"
       stroke-linejoin="round"
       stroke-miterlimit="10"
       stroke-width="2"
       d="M 48,51 H 24 c -1.1,0 -2,-0.9 -2,-2 V 23 c 0,-1.1 0.9,-2 2,-2 h 24 c 1.1,0 2,0.9 2,2 v 26 c 0,1.1 -0.9,2 -2,2 z"
       id="path12" />
    <polyline
       fill="none"
       stroke="#000"
       stroke-linecap="round"
       stroke-linejoin="round"
       stroke-miterlimit="10"
       stroke-width="2"
       points="35.8442,26.1875 35.8442,36.1875 44.1558,36.1875"
       id="polyline14" />
  </g>
</g></svg>