<svg xmlns="http://www.w3.org/2000/svg" width="24" height="24" viewBox="0 0 24 24"> <g transform="translate(0.0 4.32897489837418) scale(0.4101933106050917)">
  
  <g
     id="line"
     transform="translate(-6.657,-17.937)">
    <path
       fill="none"
       stroke="#000"
       stroke-linecap="round"
       stroke-linejoin="round"
       stroke-width="2"
       d="m 30.0438,47.82 v 0.9658 l -4.9071,0.66 H 21.968 c -2.1412,0 -3.1872,0.8168 -3.1872,2.6516 v 2.2415 h 11.263 c 3.2113,-0.153 5.8349,-2.2533 5.8349,-5.2349"
       id="path2" />
    <path
       fill="none"
       stroke="#000"
       stroke-linecap="round"
       stroke-linejoin="round"
       stroke-width="2"
       d="m 38.6048,37.6739 3.4387,7.3661 c 1.2225,2.8287 2.0634,4.0522 4.4337,4.0522 l 12.2842,-0.4649 c 1.6779,-0.0825 2.7092,-0.6548 2.7092,-2.3371 0,-1.376 -1.1523,-2.0911 -2.9109,-2.0911 H 47.3949 l -3.1586,-6.8046 c -1.2092,-2.8441 -3.0349,-4.0155 -6.479,-3.7377 l -1.443,0.0713 -9.2526,0.9907 c -4.8164,0.535 -6.7033,3.5406 -6.7033,5.8348 a 5.3271,5.3271 0 0 0 3.4163,5.3514"
       id="path4" />
    <polyline
       fill="none"
       stroke="#000"
       stroke-linecap="round"
       stroke-linejoin="round"
       stroke-width="2"
       points="11.158 23.222 11.158 54.339 15.443 54.339 15.443 23.222 56.684 23.222 56.684 40.678"
       id="polyline6" />
    <polyline
       fill="none"
       stroke="#000"
       stroke-linecap="round"
       stroke-linejoin="round"
       stroke-width="2"
       points="64.166 23.222 64.166 18.937 7.657 18.937 7.657 23.222"
       id="polyline8" />
    <line
       x1="60.968601"
       x2="60.968601"
       y1="40.811001"
       y2="23.222099"
       fill="none"
       stroke="#000"
       stroke-linecap="round"
       stroke-linejoin="round"
       stroke-width="2"
       id="line10" />
    <polyline
       fill="none"
       stroke="#000"
       stroke-linecap="round"
       stroke-linejoin="round"
       stroke-width="2"
       points="56.684 48.706 56.684 54.339 60.969 54.339 60.969 51.198"
       id="polyline12" />
    <path
       fill="none"
       stroke="#000"
       stroke-linecap="round"
       stroke-linejoin="round"
       stroke-width="2"
       d="m 28.04,42.8991 c 4.57,0 9.856,-1.8741 11.9126,-2.338"
       id="path14" />
    <path
       fill="none"
       stroke="#000"
       stroke-linecap="round"
       stroke-linejoin="round"
       stroke-width="2"
       d="m 45.5974,33.018 a 3.5435,3.5435 0 1 1 3.5434,3.5434"
       id="path16" />
  </g>
</g></svg>