<svg xmlns="http://www.w3.org/2000/svg" width="24" height="24" viewBox="0 0 24 24"> <g transform="translate(6.0 0.0) scale(0.375)">
  
  <g
     id="line"
     transform="translate(-20,-4)">
    <circle
       cx="36"
       cy="36"
       r="15"
       fill="none"
       stroke="#000"
       stroke-linecap="round"
       stroke-linejoin="round"
       stroke-miterlimit="10"
       stroke-width="2"
       id="circle2" />
    <line
       x1="29"
       x2="29"
       y1="22"
       y2="5"
       fill="none"
       stroke="#000"
       stroke-linecap="round"
       stroke-linejoin="round"
       stroke-miterlimit="10"
       stroke-width="2"
       id="line4" />
    <line
       x1="43"
       x2="43"
       y1="22"
       y2="5"
       fill="none"
       stroke="#000"
       stroke-linecap="round"
       stroke-linejoin="round"
       stroke-miterlimit="10"
       stroke-width="2"
       id="line6" />
    <line
       x1="29"
       x2="29"
       y1="67"
       y2="50"
       fill="none"
       stroke="#000"
       stroke-linecap="round"
       stroke-linejoin="round"
       stroke-miterlimit="10"
       stroke-width="2"
       id="line8" />
    <line
       x1="43"
       x2="43"
       y1="67"
       y2="50"
       fill="none"
       stroke="#000"
       stroke-linecap="round"
       stroke-linejoin="round"
       stroke-miterlimit="10"
       stroke-width="2"
       id="line10" />
    <path
       fill="none"
       stroke="#000"
       stroke-linecap="round"
       stroke-linejoin="round"
       stroke-miterlimit="10"
       stroke-width="2"
       d="m 33,34 h -4 c -0.5523,0 -1,-0.4477 -1,-1 v -4 c 0,-0.5523 0.4477,-1 1,-1 h 4 c 0.5523,0 1,0.4477 1,1 v 4 c 0,0.5523 -0.4477,1 -1,1 z"
       id="path12" />
    <path
       fill="none"
       stroke="#000"
       stroke-linecap="round"
       stroke-linejoin="round"
       stroke-miterlimit="10"
       stroke-width="2"
       d="m 43,34 h -4 c -0.5523,0 -1,-0.4477 -1,-1 v -4 c 0,-0.5523 0.4477,-1 1,-1 h 4 c 0.5523,0 1,0.4477 1,1 v 4 c 0,0.5523 -0.4477,1 -1,1 z"
       id="path14" />
    <path
       fill="none"
       stroke="#000"
       stroke-linecap="round"
       stroke-linejoin="round"
       stroke-miterlimit="10"
       stroke-width="2"
       d="m 43,44 h -4 c -0.5523,0 -1,-0.4477 -1,-1 v -4 c 0,-0.5523 0.4477,-1 1,-1 h 4 c 0.5523,0 1,0.4477 1,1 v 4 c 0,0.5523 -0.4477,1 -1,1 z"
       id="path16" />
    <path
       fill="none"
       stroke="#000"
       stroke-linecap="round"
       stroke-linejoin="round"
       stroke-miterlimit="10"
       stroke-width="2"
       d="m 33,44 h -4 c -0.5523,0 -1,-0.4477 -1,-1 v -4 c 0,-0.5523 0.4477,-1 1,-1 h 4 c 0.5523,0 1,0.4477 1,1 v 4 c 0,0.5523 -0.4477,1 -1,1 z"
       id="path18" />
    <circle
       cx="36"
       cy="66"
       r="2"
       fill="#000"
       stroke="none"
       id="circle20" />
  </g>
</g></svg>