<svg xmlns="http://www.w3.org/2000/svg" width="24" height="24" viewBox="0 0 24 24"> <g transform="translate(3.94993189258839 0.0) scale(0.4633025930775875)">
  
  <g
     id="line"
     transform="translate(-18.9992,-10.1771)">
    <path
       fill="none"
       stroke="#000"
       stroke-miterlimit="10"
       stroke-width="2"
       d="m 52.75,44.6037 c 0,9.0482 -7.3378,16.3754 -16.3754,16.3754 -9.0482,0 -16.3754,-7.3272 -16.3754,-16.3754 0,-0.2534 0.0106,-0.4962 0.0211,-0.7496 0.095,-2.2911 0.6757,-4.4661 1.6259,-6.4193 0.6335,-1.5731 1.3831,-3.1674 2.1432,-4.7722 2.0377,-4.3182 4.1388,-8.6892 4.1388,-13.0391 0,-4.6667 3.7797,-8.4464 8.4464,-8.4464 4.656,0 8.4464,3.7797 8.4464,8.4464 0,4.3499 2.101,8.7209 4.1387,13.0391 0.7601,1.6048 1.5098,3.1991 2.1433,4.7722 0.8552,2.1644 1.4992,4.3077 1.6259,6.4193 0.0105,0.2534 0.0211,0.4962 0.0211,0.7496 z"
       id="path2" />
    <circle
       cx="36.374599"
       cy="44.5271"
       r="8.4489002"
       fill="none"
       stroke="#000"
       stroke-linecap="round"
       stroke-linejoin="round"
       stroke-miterlimit="10"
       stroke-width="2"
       id="circle4" />
  </g>
</g></svg>