<svg xmlns="http://www.w3.org/2000/svg" width="24" height="24" viewBox="0 0 24 24"> <g transform="translate(0.0 0.16818480112739742) scale(0.37676608513711013)">
  
  <g
     id="line"
     transform="translate(-4.1,-4.5927808)">
    <path
       fill="none"
       stroke="#000"
       stroke-linecap="round"
       stroke-linejoin="round"
       stroke-width="2"
       d="M 5.3,11.8 C 6.6,10.3 8.5,9.9 10.5,9.9 a 6.9434,6.9434 0 0 1 5.1,2.1 5.4145,5.4145 0 0 1 1.5,2.2 9.54,9.54 0 0 1 7.4,-0.7 c 0.1,0 0.2,0.1 0.3,0.1 a 10.0922,10.0922 0 0 1 1.5,0.7 5.5821,5.5821 0 0 1 0.8,0.5"
       id="path2" />
    <path
       fill="none"
       stroke="#000"
       stroke-linecap="round"
       stroke-linejoin="round"
       stroke-width="2"
       d="m 24.5,24 a 7.3024,7.3024 0 0 1 8,-6.6 10.548,10.548 0 0 1 2.4,0.6 9.57,9.57 0 0 1 9.9,-9.1 10.6351,10.6351 0 0 1 4.3,1.2 7.3416,7.3416 0 0 1 9.7,-3.9 7.4385,7.4385 0 0 1 4.5,6.8 v 0 c 0.3,0 0.5,0.1 0.8,0.1 a 4.3311,4.3311 0 0 1 0.5,0.1 h 0.1 a 0.3674,0.3674 0 0 1 0.3,0.1 6.3729,6.3729 0 0 0 0.7,0.2 c 0.2,0.1 0.5,0.2 0.7,0.3 0.1,0.1 0.3,0.1 0.4,0.2"
       id="path4" />
    <path
       fill="none"
       stroke="#000"
       stroke-linecap="round"
       stroke-linejoin="round"
       stroke-width="2"
       d="m 38.2,30.3 c 0,-2.5 1.3,-4.4 4.2,-6.3 a 10.8145,10.8145 0 0 1 5,-1.5 8.9233,8.9233 0 0 1 4.5,1.2 7.134,7.134 0 0 1 9.3,-3.8 7.36,7.36 0 0 1 4.4,6.5 v 0"
       id="path6" />
    <path
       fill="none"
       stroke="#000"
       stroke-linecap="round"
       stroke-linejoin="round"
       stroke-width="2"
       d="M 42.4,38.4 A 4.4322,4.4322 0 0 0 36.7,37.7 C 35.3,30.9 31.1,30.1 30.1,29.6 A 4.9235,4.9235 0 0 0 28.4,29 v 0 a 8.5239,8.5239 0 0 0 -2.3,-0.3 9.9542,9.9542 0 0 0 -3.8,0.8 v 0 a 2.5065,2.5065 0 0 0 -0.7,0.4 7.36,7.36 0 0 0 -6.5,-4.4 6.9629,6.9629 0 0 0 -2.5,0.5 v 0 A 7.1086,7.1086 0 0 0 8,32.6 v 0 a 4.5292,4.5292 0 0 0 -1.6,0.3 4.15,4.15 0 0 0 -1.3,0.7"
       id="path8" />
    <path
       fill="none"
       stroke="#000"
       stroke-linecap="round"
       stroke-linejoin="round"
       stroke-width="2"
       d="m 47.9,41.1 a 7.3065,7.3065 0 0 1 7.7,-7 7.4871,7.4871 0 0 1 3.3,1 5.7518,5.7518 0 0 1 7.4,-3.1"
       id="path10" />
    <path
       fill="none"
       stroke="#000"
       stroke-linecap="round"
       stroke-linejoin="round"
       stroke-width="2"
       d="m 18.3,44.3 a 4.1956,4.1956 0 0 1 2.4,-0.7 v 0 a 5.1215,5.1215 0 0 1 5.1,-5.1 5.022,5.022 0 0 1 4.7,3.1 6.5748,6.5748 0 0 1 9,2.5 7.5019,7.5019 0 0 1 0.9,3"
       id="path12" />
    <path
       fill="none"
       stroke="#000"
       stroke-linecap="round"
       stroke-linejoin="round"
       stroke-width="2"
       d="m 33.1,66.4 a 6.4522,6.4522 0 0 0 -0.2,-8.7 1.7556,1.7556 0 0 0 -0.5,-0.4 6.2582,6.2582 0 0 0 -6.8,-0.9 8.7923,8.7923 0 0 0 -1,-3.6 8.16,8.16 0 0 0 -7.2,-4.2 8.6862,8.6862 0 0 0 -4.1,1.1 6.3213,6.3213 0 0 0 -5.9,-3.9 5.867,5.867 0 0 0 -2.3,0.4"
       id="path14" />
    <path
       fill="none"
       stroke="#000"
       stroke-linecap="round"
       stroke-linejoin="round"
       stroke-width="2"
       d="m 36.4,54.7 a 12.2523,12.2523 0 0 1 1.9,-0.2 5.8289,5.8289 0 0 1 2.9,0.6 10.0387,10.0387 0 0 1 0.4,-2.4 4.1792,4.1792 0 0 1 0.4,-1 0.0979,0.0979 0 0 1 0.1,-0.1 L 42.4,51 a 9.52,9.52 0 0 1 2.5,-2.8 5.5821,5.5821 0 0 1 0.8,-0.5 10.0922,10.0922 0 0 1 1.5,-0.7 c 0.1,0 0.2,-0.1 0.3,-0.1 a 9.54,9.54 0 0 1 7.4,0.7 5.4145,5.4145 0 0 1 1.5,-2.2 6.9434,6.9434 0 0 1 5.1,-2.1 c 2,0 3.9,0.4 5.2,1.9"
       id="path16" />
  </g>
</g></svg>