<svg xmlns="http://www.w3.org/2000/svg" width="24" height="24" viewBox="0 0 24 24"> <g transform="translate(0.0 4.0397762188250965) scale(0.4474475049460195)">
  
  <g
     id="line"
     transform="translate(-11.877086,-16.642259)">
    <path
       fill="none"
       stroke="#000"
       stroke-linecap="round"
       stroke-miterlimit="10"
       stroke-width="2"
       d="m 36.3091,42.2835 c 0.5354,1.5184 1.9056,2.5273 4.7008,2.3618 0,0 4.6455,-0.9546 9.4819,-8.9092 0,0 2.6328,-3.9779 7.1693,-3.6969 4.5365,0.281 7.0143,5.0676 6.8453,9.9669 0,0 -0.2252,7.0955 -4.1108,6.476 C 56.51,47.8626 58.03,42.8508 58.03,42.8508 c 0,0 0.9481,-3.5782 -1.7126,-3.8534 0,0 -2.11,-0.3058 -5.5049,4.8932 -3.3949,5.199 -7.3475,7.86 -12.084,7.2481 -3.5524,-0.4587 -7.46,-1.9411 -9.3365,-5.35"
       id="path2" />
    <path
       fill="none"
       stroke="#000"
       stroke-linecap="round"
       stroke-miterlimit="10"
       stroke-width="2"
       d="M 32.2137,31.028 A 6.2163,6.2163 0 0 0 33.41,27.9969 c 0.2078,-1.7945 -1.1935,-0.53 -1.1935,-0.53 a 8.7269,8.7269 0 0 1 -7.373,2.5635 c -4.8377,-0.4719 -11.2807,-2.69 -11.9365,-9.9637 0,0 -0.2862,-2.38 0.955,-2.4251 0,0 0.7462,-0.0719 0.8019,1.1038 0,0 0.191,10.6274 16.673,2.8637 0,0 4.0289,-2.1 7.3918,0.5727 3.3629,2.6727 0,9.5456 0,9.5456 A 29.1379,29.1379 0 0 0 37.321,34.81"
       id="path4" />
    <path
       fill="none"
       stroke="#000"
       stroke-miterlimit="10"
       stroke-width="2"
       d="m 30.961,33.9974 a 13.6284,13.6284 0 0 1 5.6174,0.28 1.37,1.37 0 0 1 0.8754,1.8816 9.8658,9.8658 0 0 0 -0.97,5.1712 1.5653,1.5653 0 0 1 -1.0128,1.6818 10.7245,10.7245 0 0 1 -4.5657,0.5047 3.4248,3.4248 0 0 1 -3.0753,-3.254 13.3383,13.3383 0 0 1 0.3417,-3.7385 3.352,3.352 0 0 1 2.7893,-2.5268 z"
       id="path6" />
  </g>
</g></svg>