<svg xmlns="http://www.w3.org/2000/svg" width="24" height="24" viewBox="0 0 24 24"> <g transform="translate(2.4000000000000004 0.0) scale(0.48)">
  
  <g
     id="line"
     transform="translate(-16,-11)">
    <path
       fill="none"
       stroke="#000"
       stroke-linecap="round"
       stroke-linejoin="round"
       stroke-width="2"
       d="M 25.5,39.2 C 20.7,39.2 22,33 22,26 c 0,-7 4,-14 14,-14 10,0 14,7 14,14 0,7 0.9,13.4 -4,13"
       id="path2" />
    <path
       fill="none"
       stroke="#000"
       stroke-linecap="round"
       stroke-linejoin="round"
       stroke-width="2"
       d="m 17,60 v -3 c 0,-5 5,-9 10,-9 6,5 12,5 18,0 5,0 10,4 10,9 v 3"
       id="path4" />
    <path
       d="m 41.9,29 c 0,1.1046 -0.8954,2 -2,2 -1.1046,0 -2,-0.8954 -2,-2 0,-1.1046 0.8954,-2 2,-2 1.1032,0.0032 1.9968,0.8968 2,2"
       id="path6" />
    <path
       d="m 33.9,29 c 0,1.1046 -0.8954,2 -2,2 -1.1046,0 -2,-0.8954 -2,-2 0,-1.1046 0.8954,-2 2,-2 1.1032,0.0032 1.9968,0.8968 2,2"
       id="path8" />
    <path
       fill="none"
       stroke="#000"
       stroke-linejoin="round"
       stroke-width="2"
       d="m 47,31 c 0.0164,-1.7179 -0.3241,-3.4205 -1,-5 -3,-3 -7,-8 -7,-8 -4,3 -7,6 -13,7 0,0 -1.1,1 -1.1,6"
       id="path10" />
    <path
       d="m 39.9,36.5 c 0.2165,0.4972 -0.0061,1.0761 -0.5,1.3 -1.0802,0.5583 -2.2845,0.8336 -3.5,0.8 -1.1781,-0.0154 -2.3386,-0.2885 -3.4,-0.8 -0.4939,-0.2239 -0.7165,-0.8028 -0.5,-1.3 0.1662,-0.4582 0.6724,-0.6948 1.1306,-0.5286 0.0235,0.0086 0.0467,0.0181 0.0694,0.0286 0.1,0 0.1,0 0.1,0.1 1.5809,0.9 3.5191,0.9 5.1,0 0.5269,-0.2862 1.1856,-0.1105 1.5,0.4 z"
       id="path12" />
    <path
       fill="none"
       stroke="#000"
       stroke-linecap="round"
       stroke-linejoin="round"
       stroke-width="2"
       d="m 24.9,31 c -0.2,3.1 -0.3,6.6 1.2,9.3 0.5866,0.9827 1.2919,1.8896 2.1,2.7 2.0576,1.7465 4.7048,2.6408 7.4,2.5"
       id="path14" />
    <path
       fill="none"
       stroke="#000"
       stroke-linecap="round"
       stroke-linejoin="round"
       stroke-width="2"
       d="m 47,31 c -0.2804,1.4441 -0.9357,2.7891 -1.9,3.9 0,0 -1.9,3 -2.7,-1.2 -4.2842,-1.2 -8.8158,-1.2 -13.1,0 -0.8,4.2 -2.7,1.2 -2.7,1.2 C 25.8225,33.7141 25.2793,32.3903 25,31"
       id="path16" />
    <path
       fill="none"
       stroke="#000"
       stroke-linecap="round"
       stroke-linejoin="round"
       stroke-width="2"
       d="m 47,31.4 c 0.3271,3.0586 -0.2281,6.1469 -1.6,8.9 -0.5204,1.0263 -1.2333,1.943 -2.1,2.7 -2.0255,1.8025 -4.6964,2.7048 -7.4,2.5 h -0.3"
       id="path18" />
  </g>
</g></svg>