<svg xmlns="http://www.w3.org/2000/svg" width="24" height="24" viewBox="0 0 24 24"> <g transform="translate(0.0 0.041643410001208636) scale(0.48001717501452207)">
  
  <g
     id="line"
     transform="translate(-10.695791,-11.346511)">
    <path
       fill="none"
       stroke="#000"
       stroke-linecap="round"
       stroke-linejoin="round"
       stroke-width="2"
       d="m 29.5475,52.6224 a 8.2936,8.2936 0 0 0 5.9363,2.3321 8.8363,8.8363 0 0 0 6.0211,-2.3321"
       id="path2" />
    <path
       fill="none"
       stroke="#000"
       stroke-linecap="round"
       stroke-linejoin="round"
       stroke-width="2"
       d="m 27.69,50.224 c 0,0 -4.4523,-4.7491 -0.212,-11.0246 0,0 0.8558,1.0878 1.5081,2.1314 0.4857,0.56 1.3667,1.5152 1.8331,1.5152 a 1.0035,1.0035 0 0 0 1.0176,-1.1025 v -0.3816 a 15.4769,15.4769 0 0 1 1.5265,-7.2932 c 0,0 2.9686,1.6113 1.6967,-6.1907 0,0 6.7634,4.5583 6.509,12.1059 0,0.5512 0.2482,0.9753 0.8471,0.9753 0.59,0 2.3879,-0.5726 2.3879,-1.1238 0.0424,0.0424 2.6713,5.5547 -1.06,10.3886"
       id="path4" />
    <path
       fill="none"
       stroke="#000"
       stroke-linecap="round"
       stroke-linejoin="round"
       stroke-width="2"
       d="m 33.0789,45.1184 v 0 c 0,0 -0.2976,1.641 -1.4883,1.5265 a 2.6744,2.6744 0 0 1 -0.6091,-0.2451 c -0.3282,-0.3594 -0.6744,0.0842 -0.6248,0.3895 a 10.9625,10.9625 0 0 0 3.02,4.4732 c 0,0 0.93,0.6841 0.98,0.6841"
       id="path6" />
    <path
       fill="none"
       stroke="#000"
       stroke-linecap="round"
       stroke-linejoin="round"
       stroke-width="2"
       d="m 36.9658,52.0091 a 12.345,12.345 0 0 0 1.5469,-1.0468 6.84,6.84 0 0 0 1.8066,-2.4874 0.3347,0.3347 0 0 0 -0.2976,-0.458 0.782,0.782 0 0 1 -0.4961,-0.4579 v 0 c 0,0 -0.0993,-0.3053 0.2976,-0.9922 a 1.6036,1.6036 0 0 0 0.1985,-0.9159 0.4685,0.4685 0 0 0 -0.645,-0.2672 0.96,0.96 0 0 1 -1.29,-0.42 c 0,0 -0.3116,-0.1523 -0.014,-1.6406 a 5.9958,5.9958 0 0 0 -1.4247,-4.4272 0.5456,0.5456 0 0 0 -0.3766,-0.1331 0.3948,0.3948 0 0 0 -0.4172,0.2857"
       id="path8" />
    <path
       fill="none"
       stroke="#000"
       stroke-linecap="round"
       stroke-linejoin="round"
       stroke-width="2"
       d="m 32.2938,14.2328 a 3.8921,3.8921 0 0 1 6.7064,0 l 20.119,40.1422 a 4.4616,4.4616 0 0 1 0.5748,1.9161 3.8848,3.8848 0 0 1 -3.8322,3.88 H 15.528 a 3.8027,3.8027 0 0 1 -3.8322,-3.7843 3.4544,3.4544 0 0 1 0.5748,-1.9161 l 20.0232,-40.238"
       id="path10" />
  </g>
</g></svg>