<svg xmlns="http://www.w3.org/2000/svg" width="24" height="24" viewBox="0 0 24 24"> <g transform="translate(4.7069083050403195 0.0) scale(0.3764176358688867)">
  
  <g
     id="line"
     transform="translate(-16.67,-4.2026931)">
    <path
       fill="none"
       stroke="#000"
       stroke-linecap="round"
       stroke-linejoin="round"
       stroke-width="2"
       d="M 52.62,31.13 54.42,8.95 C 54.0773,3.986 47.641,3.93 47.193,8.924 l -2.42,17.36 c -0.3,2.179 -1.278,3.962 -2.166,3.962 -0.888,0 -1.845,-1.785 -2.126,-3.967 L 38.25,8.939 C 37.4304,3.661 30.811,4.617 31.213,8.9401 l 2.527,21.03"
       id="path2" />
    <path
       fill="none"
       stroke="#000"
       stroke-linecap="round"
       stroke-linejoin="round"
       stroke-width="2"
       d="m 53.63,50.08 c 0,9.872 -8.02,16.88 -17.89,16.88"
       id="path4" />
    <path
       fill="none"
       stroke="#000"
       stroke-linecap="round"
       stroke-linejoin="round"
       stroke-width="2"
       d="m 43.74,47.29 v -2.333 c 0,-1.1 -1.789,-2.2 -3.976,-2.441 l -1.049,-0.117 c -2.187,-0.242 -3.976,-1.851 -3.976,-3.774 0,-1.923 1.8,-3.334 4,-3.334 h 10 c 2.201,-0.0448 4.057,1.632 4.235,3.826 l 0.657,11.21"
       id="path6" />
    <path
       fill="none"
       stroke="#000"
       stroke-linecap="round"
       stroke-linejoin="round"
       stroke-width="2"
       d="m 37.96,50.36 c 1.63,-1.48 3.624,-2.5 5.777,-2.958"
       id="path8" />
    <path
       fill="none"
       stroke="#000"
       stroke-linecap="round"
       stroke-miterlimit="10"
       stroke-width="2"
       d="m 18.53,52.1 c 1.142,8.6 8.539,14.98 17.21,14.86 9.667,0 17.89,-6.833 17.89,-16.88"
       id="path10" />
    <path
       fill="none"
       stroke="#000"
       stroke-linecap="round"
       stroke-linejoin="round"
       stroke-width="2"
       d="m 31.75,49.72 c 0,1.258 -0.6709,2.42 -1.76,3.048 -1.0891,0.628 -2.431,0.6288 -3.52,0 -1.089,-0.6288 -1.76,-1.791 -1.76,-3.048 V 33.76 c 0,-1.258 0.6709,-2.42 1.76,-3.048 1.0891,-0.628 2.431,-0.6288 3.52,0 1.089,0.6288 1.76,1.791 1.76,3.049 z"
       paint-order="normal"
       id="path12" />
    <path
       fill="none"
       stroke="#000"
       stroke-linecap="round"
       stroke-linejoin="round"
       stroke-width="2"
       d="m 24.71,44.94 c 0,1.262 -0.6709,2.427 -1.76,3.058 -1.0891,0.631 -2.431,0.6308 -3.52,0 -1.089,-0.6308 -1.76,-1.796 -1.76,-3.058 v -7.937 c 0,-1.262 0.6709,-2.427 1.76,-3.058 1.089,-0.6308 2.431,-0.6308 3.52,0 1.089,0.6308 1.76,1.796 1.76,3.058 z"
       paint-order="normal"
       id="path14" />
  </g>
</g></svg>