<svg xmlns="http://www.w3.org/2000/svg" width="24" height="24" viewBox="0 0 24 24"> <g transform="translate(0.05788903074207674 0.0) scale(0.45280991475608084)">
  
  <g
     id="line"
     transform="translate(-9.9977214,-9)">
    <path
       fill="none"
       stroke="#000"
       stroke-linecap="round"
       stroke-linejoin="round"
       stroke-miterlimit="10"
       stroke-width="2"
       d="m 60.2755,30.4183 c -0.0991,1.8395 -0.539,3.8125 -0.9248,5.6459 C 56.0433,51.986 40.7433,62.5965 24.4143,60.8059 23.6058,60.7212 22.7973,60.6002 22.001,60.443 14.5286,58.725 9.7512,51.5384 11.2824,44.1945 c 1.568,-7.5253 9.1261,-12.389 16.868,-10.8646 0,0 7.7474,1.9693 12.8504,-3.1818"
       id="path2" />
    <path
       fill="none"
       stroke="#000"
       stroke-linecap="round"
       stroke-linejoin="round"
       stroke-miterlimit="10"
       stroke-width="2"
       d="M 50.7929,11.9832 C 50.1897,10.9538 49.0717,10 47,10"
       id="path4" />
    <path
       fill="none"
       stroke="#000"
       stroke-linecap="round"
       stroke-linejoin="round"
       stroke-miterlimit="10"
       stroke-width="2"
       d="m 61.69,26.22 c 0,0 -3.72,0.53 -6.8,-1.81 -0.54,3.78 -3.52,6.01 -3.52,6.01 0,0 -2.97,-2.23 -3.51,-6.01 -0.71,0.54 -1.46,0.93 -2.19,1.2 -2.42,0.92 -4.62,0.61 -4.62,0.61 0,0 -0.63,-4.47 2.55,-7.66 0.65,-0.66 1.36,-1.15 2.07,-1.52 2.76,-1.44 10.28,-1.68 13.48,1.52 3.19,3.19 2.54,7.66 2.54,7.66 z"
       id="path6" />
    <path
       fill="none"
       stroke="#000"
       stroke-linecap="round"
       stroke-linejoin="round"
       stroke-miterlimit="10"
       stroke-width="2"
       d="m 41.0008,30.1481 c 0.1285,-0.1297 0.2554,-0.264 0.3803,-0.4029"
       id="path8" />
  </g>
</g></svg>