<svg xmlns="http://www.w3.org/2000/svg" width="24" height="24" viewBox="0 0 24 24"> <g transform="translate(0.0 0.4408000000000012) scale(0.42105263157894735)">
  
  <g
     id="line"
     transform="translate(-10,-9.0937996)">
    <circle
       cx="33.9688"
       cy="13.0938"
       r="3"
       fill="none"
       stroke="#000"
       stroke-miterlimit="10"
       stroke-width="2"
       id="circle2" />
    <path
       fill="none"
       stroke="#000"
       stroke-linecap="round"
       stroke-linejoin="round"
       stroke-miterlimit="10"
       stroke-width="2"
       d="m 44.54,24.6738 5.3995,8.6309 c 0.583,0.9326 0.7265,2.5312 0.3173,3.5527 l -0.5136,1.2852 c -0.4092,1.0215 -1.5743,2.2031 -2.5889,2.6269 l -8.3086,3.461 C 37.8311,44.6543 37.0107,45.9004 37.0244,47 l 0.125,10 c 0.0137,1.0996 -0.7461,2 -1.6875,2 -0.9414,0 -1.8887,-0.8828 -2.1045,-1.9609 L 30.8613,44.5742 c -0.2158,-1.0781 0.3594,-2.456 1.2783,-3.0605 L 36.5,38.6445"
       id="path4" />
    <path
       fill="none"
       stroke="#000"
       stroke-linecap="round"
       stroke-linejoin="round"
       stroke-miterlimit="10"
       stroke-width="2"
       d="M 44.8613,25.1685 42.3252,21.2549 C 41.0459,19.4648 38.4248,18.6748 36.5,19.5 c -1.9248,0.8252 -2.9727,3.2212 -2.3291,5.3247 l 0.8604,2.2275"
       id="path6" />
    <path
       fill="none"
       stroke="#000"
       stroke-linecap="round"
       stroke-linejoin="round"
       stroke-miterlimit="10"
       stroke-width="2"
       d="m 38.167,23 0.6719,3.2905 c 0.2207,1.0777 -0.292,2.5342 -1.1387,3.2368 l -2.7803,2.3067"
       id="path8" />
    <path
       fill="none"
       stroke="#000"
       stroke-linecap="round"
       stroke-linejoin="round"
       stroke-miterlimit="10"
       stroke-width="2"
       d="m 40,44 1.6074,8.0391 C 41.8232,53.1172 42.6748,54 43.5,54 44.3252,54 45,53.0996 45,52 v -5 c 0,-1.0996 0.4023,-2.8047 0.8945,-3.7891 L 47,41"
       id="path10" />
    <polyline
       fill="none"
       stroke="#000"
       stroke-linecap="round"
       stroke-linejoin="round"
       stroke-miterlimit="10"
       stroke-width="2"
       points="11,61 13,63 61,63"
       id="polyline12" />
    <line
       x1="66"
       x2="41"
       y1="58"
       y2="58"
       fill="none"
       stroke="#000"
       stroke-linecap="round"
       stroke-linejoin="round"
       stroke-miterlimit="10"
       stroke-width="2"
       id="line14" />
    <polyline
       fill="none"
       stroke="#000"
       stroke-linecap="round"
       stroke-linejoin="round"
       stroke-miterlimit="10"
       stroke-width="2"
       points="29,58 20,58 18,56"
       id="polyline16" />
    <line
       x1="33"
       x2="56"
       y1="31"
       y2="49"
       fill="none"
       stroke="#000"
       stroke-linecap="round"
       stroke-linejoin="round"
       stroke-miterlimit="10"
       stroke-width="2"
       id="line18" />
    <line
       x1="55"
       x2="53"
       y1="46"
       y2="49"
       fill="none"
       stroke="#000"
       stroke-linecap="round"
       stroke-linejoin="round"
       stroke-miterlimit="10"
       stroke-width="2"
       id="line20" />
    <circle
       cx="33.9688"
       cy="13.0938"
       r="3"
       fill="none"
       stroke="#000"
       stroke-miterlimit="10"
       stroke-width="2"
       id="circle22" />
    <path
       fill="none"
       stroke="#000"
       stroke-linecap="round"
       stroke-linejoin="round"
       stroke-miterlimit="10"
       stroke-width="2"
       d="m 46.3174,27.417 3.6318,5.8809 c 0.5781,0.9365 0.7168,2.538 0.3076,3.5595 l -0.5136,1.2852 c -0.4092,1.0215 -1.5743,2.2031 -2.5889,2.6269 l -8.3086,3.461 C 37.8311,44.6543 37.0107,45.9004 37.0244,47 l 0.125,10 c 0.0137,1.0996 -0.7461,2 -1.6875,2 -0.9414,0 -1.8887,-0.8828 -2.1045,-1.9609 L 30.8613,44.5742 c -0.2158,-1.0781 0.3594,-2.456 1.2783,-3.0605 L 36.5,38.6445"
       id="path24" />
    <path
       fill="none"
       stroke="#000"
       stroke-linecap="round"
       stroke-linejoin="round"
       stroke-miterlimit="10"
       stroke-width="2"
       d="M 48.1045,30.1748 42.3252,21.2549 C 41.0459,19.4648 38.4248,18.6748 36.5,19.5 c -1.9248,0.8252 -2.9727,3.2212 -2.3291,5.3247 l 0.8604,2.2275"
       id="path26" />
    <path
       fill="none"
       stroke="#000"
       stroke-linecap="round"
       stroke-linejoin="round"
       stroke-miterlimit="10"
       stroke-width="2"
       d="m 38.167,23 0.6719,3.2905 c 0.2207,1.0777 -0.292,2.5342 -1.1387,3.2368 l -2.7803,2.3067"
       id="path28" />
    <path
       fill="none"
       stroke="#000"
       stroke-linecap="round"
       stroke-linejoin="round"
       stroke-miterlimit="10"
       stroke-width="2"
       d="m 40,44 1.6074,8.0391 C 41.8232,53.1172 42.6748,54 43.5,54 44.3252,54 45,53.0996 45,52 v -5 c 0,-1.0996 0.4023,-2.8047 0.8945,-3.7891 L 47,41"
       id="path30" />
    <polyline
       fill="none"
       stroke="#000"
       stroke-linecap="round"
       stroke-linejoin="round"
       stroke-miterlimit="10"
       stroke-width="2"
       points="11,61 13,63 61,63"
       id="polyline32" />
    <line
       x1="66"
       x2="41"
       y1="58"
       y2="58"
       fill="none"
       stroke="#000"
       stroke-linecap="round"
       stroke-linejoin="round"
       stroke-miterlimit="10"
       stroke-width="2"
       id="line34" />
    <polyline
       fill="none"
       stroke="#000"
       stroke-linecap="round"
       stroke-linejoin="round"
       stroke-miterlimit="10"
       stroke-width="2"
       points="29,58 20,58 18,56"
       id="polyline36" />
    <line
       x1="33"
       x2="56"
       y1="31"
       y2="49"
       fill="none"
       stroke="#000"
       stroke-linecap="round"
       stroke-linejoin="round"
       stroke-miterlimit="10"
       stroke-width="2"
       id="line38" />
    <line
       x1="55"
       x2="53"
       y1="46"
       y2="49"
       fill="none"
       stroke="#000"
       stroke-linecap="round"
       stroke-linejoin="round"
       stroke-miterlimit="10"
       stroke-width="2"
       id="line40" />
  </g>
</g></svg>