<svg xmlns="http://www.w3.org/2000/svg" width="24" height="24" viewBox="0 0 24 24"> <g transform="translate(4.152889379310345 0.0) scale(0.5517241379310345)">
  
  <g
     id="line"
     transform="translate(-22.000124,-13)">
    <polyline
       fill="none"
       stroke="#000"
       stroke-linecap="round"
       stroke-linejoin="round"
       stroke-width="2"
       points="35.991 14 23 28.516 32.527 28.516 32.69 40 39.483 40 39.456 28.516 48.982 28.516 35.991 14"
       id="polyline2" />
    <path
       fill="none"
       stroke="#000"
       stroke-linecap="round"
       stroke-linejoin="round"
       stroke-width="2"
       d="m 36.33,55.47 v 0 A 3.5714,3.5714 0 0 1 32.7586,51.8986 V 49.0413 A 3.5714,3.5714 0 0 1 36.33,45.47 v 0 a 3.5714,3.5714 0 0 1 3.5714,3.5714 v 2.8572 A 3.5714,3.5714 0 0 1 36.33,55.47 Z"
       id="path4" />
    <g
       id="g10">
      <line
         x1="24.1429"
         x2="29.8571"
         y1="45.5"
         y2="45.5"
         fill="none"
         stroke="#000"
         stroke-linecap="round"
         stroke-linejoin="round"
         stroke-width="2"
         id="line6" />
      <line
         x1="27"
         x2="27"
         y1="45.5"
         y2="55.5"
         fill="none"
         stroke="#000"
         stroke-linecap="round"
         stroke-linejoin="round"
         stroke-width="2"
         id="line8" />
    </g>
    <path
       fill="none"
       stroke="#000"
       stroke-linecap="round"
       stroke-linejoin="round"
       stroke-width="2"
       d="m 43.1422,55.47 v -10 h 3.8132 a 2.49,2.49 0 0 1 2.4905,2.4907 v 0 a 2.49,2.49 0 0 1 -2.4905,2.4906 h -3.8132"
       id="path12" />
  </g>
</g></svg>