<svg xmlns="http://www.w3.org/2000/svg" width="24" height="24" viewBox="0 0 24 24"> <g transform="translate(0.0 1.4580229483063594) scale(0.4041617886584119)">
  
  <g
     id="line"
     transform="translate(-5.573839,-12.092585)">
    <path
       fill="none"
       stroke="#000"
       stroke-linecap="round"
       stroke-linejoin="round"
       stroke-miterlimit="10"
       stroke-width="2"
       d="m 10.9522,31.3524 c 2.1772,-4.1292 -0.8258,-4.955 -0.8258,-4.955 -1.7268,0.8258 -2.7778,-0.3003 -2.7778,-0.3003 -1.8018,-1.7267 0,-3.4535 0,-3.4535 4.0541,-2.8529 4.0225,-3.9723 4.0225,-3.9723 L 9.6435,15.9591 c 0,0 2.4349,-2.3246 4.9124,1.0538 0,0 5.931,-8.4085 12.4626,-0.6006"
       id="path2" />
    <path
       fill="none"
       stroke="#000"
       stroke-linecap="round"
       stroke-linejoin="round"
       stroke-miterlimit="10"
       stroke-width="2"
       d="m 13.9559,25.7358 c 0,0 3.9033,0.4364 3.9784,-3.7678"
       id="path4" />
    <path
       fill="none"
       stroke="#000"
       stroke-linecap="round"
       stroke-linejoin="round"
       stroke-miterlimit="10"
       stroke-width="2"
       d="m 18.3309,17.7091 c 0,0 2.2921,0.3123 3.875,3.875 0.7891,1.7761 4.4163,7.4998 4.8126,7.7292 0,0 25.5259,-5.6186 30.556,2.7899 0,0 1.7267,0.5255 2.7778,-2.3274 1.0511,-2.8529 3.6037,-3.2283 3.6037,-3.2283"
       id="path6" />
    <path
       fill="none"
       stroke="#000"
       stroke-linecap="round"
       stroke-linejoin="round"
       stroke-miterlimit="10"
       stroke-width="2"
       d="M 46.4012,45.3935 C 37.4671,50.2734 30.8474,44.0403 30.8474,44.0403 l 0.4836,8.8965 0.5,6.0223 -1.672,3.7114 c -0.1616,0.3586 -0.5184,0.5892 -0.9117,0.5892 H 27.783 c -0.7366,0 -1.2204,-0.7694 -0.9013,-1.4333 l 1.1632,-2.9869 c 0,0 -0.0504,-1.736 -0.5009,-5.4147 C 27.0935,49.7461 25.2166,44.716 25.2166,44.716 20.712,42.1634 21.4628,37.548 21.4628,37.548 15.7571,33.3966 16.147,25.232 16.147,25.232"
       id="path8" />
    <path
       fill="none"
       stroke="#000"
       stroke-linecap="round"
       stroke-linejoin="round"
       stroke-miterlimit="10"
       stroke-width="2"
       d="m 48.678,39.1979 c 0,0 -5.0582,6.4486 -0.1595,12.6987 0,0 0.1019,5.4161 -1.8125,8.0625 l -1.1586,1.7482 c -0.4405,0.6647 0.0361,1.5524 0.8336,1.5524 h 1.4454 c 0.2941,0 0.5696,-0.1269 0.7608,-0.3503 0.9164,-1.0706 3.4939,-4.5506 3.4939,-9.8253 0,-5.2399 1.0453,-9.0438 1.0453,-9.0438 5.0676,-4.4483 5.2568,-7.8591 5.2568,-7.8591"
       id="path10" />
    <path
       fill="none"
       stroke="#000"
       stroke-linecap="round"
       stroke-linejoin="round"
       stroke-miterlimit="10"
       stroke-width="2"
       d="m 56.0393,46.5204 c 0,0 -1.065,3.2324 1.375,5.3345 l -4.25,11.2083"
       id="path12" />
  </g>
</g></svg>