<svg xmlns="http://www.w3.org/2000/svg" width="24" height="24" viewBox="0 0 24 24"> <g transform="translate(0.19372910416102584 0.0) scale(0.4722140125848576)">
  
  <g
     id="line"
     transform="translate(-11.23,-10.143165)">
    <path
       fill="none"
       stroke="#000"
       stroke-linecap="round"
       stroke-linejoin="round"
       stroke-width="2"
       d="m 35.236,59.6006 h -9 c -8.321,0 -14,-6.681 -14,-15 0.0204,-4.7991 1.7993,-9.4241 5,-13"
       id="path2" />
    <path
       fill="none"
       stroke="#000"
       stroke-linecap="round"
       stroke-linejoin="round"
       stroke-width="2"
       d="m 34.625,31.6006 h -4.389 l 7,-18 c 0.811,-2.084 -2.79,-3.8 -5,-1 l -15,19"
       id="path4" />
    <path
       fill="none"
       stroke="#000"
       stroke-linecap="round"
       stroke-linejoin="round"
       stroke-width="2"
       d="m 37.448,35.1006 c 0.1527,2.0638 1.9342,3.6226 4,3.5 h 13 c 1.933,0.2578 3.709,-1.1001 3.9669,-3.0331 0.2579,-1.933 -1.1001,-3.709 -3.0331,-3.9669 -0.3099,-0.0413 -0.6238,-0.0413 -0.9337,0 h -13 c -2.0659,-0.1226 -3.8474,1.4362 -4.0001,3.5 z"
       id="path6" />
    <path
       fill="none"
       stroke="#000"
       stroke-linecap="round"
       stroke-linejoin="round"
       stroke-width="2"
       d="m 38.305,56.4366 c 0.1527,2.0638 1.9342,3.6226 4,3.5 h 7 c 1.933,0.2578 3.709,-1.1001 3.9669,-3.0331 0.2579,-1.933 -1.1001,-3.709 -3.0331,-3.9669 -0.3099,-0.0413 -0.6238,-0.0413 -0.9337,0 h -7 c -2.0659,-0.1226 -3.8474,1.4362 -4.0001,3.5 z"
       id="path8" />
    <path
       fill="none"
       stroke="#000"
       stroke-linecap="round"
       stroke-linejoin="round"
       stroke-width="2"
       d="m 33.236,42.4366 c 0.1527,2.0638 1.9342,3.6226 4,3.5 h 19 c 1.933,0.2578 3.709,-1.1001 3.9669,-3.0331 0.2579,-1.933 -1.1001,-3.709 -3.0331,-3.9669 -0.3099,-0.0413 -0.6238,-0.0413 -0.9337,0 h -19 c -2.0659,-0.1226 -3.8474,1.4362 -4.0001,3.5 z"
       id="path10" />
    <path
       fill="none"
       stroke="#000"
       stroke-linecap="round"
       stroke-linejoin="round"
       stroke-width="2"
       d="m 35.236,49.4366 c 0.1527,2.0638 1.9342,3.6226 4,3.5 h 15 c 1.933,0.2578 3.709,-1.1001 3.9669,-3.0331 0.2579,-1.933 -1.1001,-3.709 -3.0331,-3.9669 -0.3099,-0.0413 -0.6238,-0.0413 -0.9337,0 h -15 c -2.0659,-0.1226 -3.8474,1.4362 -4.0001,3.5 z"
       id="path12" />
    <path
       fill="none"
       stroke="#000"
       stroke-miterlimit="10"
       stroke-width="2"
       d="m 14.136,36.2626 c -1.176,2.4511 -1.8253,5.1215 -1.906,7.839 0,8.56 4.625,15.5 15.125,15.5"
       id="path14" />
  </g>
</g></svg>