<svg xmlns="http://www.w3.org/2000/svg" width="24" height="24" viewBox="0 0 24 24"> <g transform="translate(0.0 0.409112689448456) scale(0.46363605805805264)">
  
  <g
     id="line"
     transform="translate(-10.161681,-9.9064601)">
    <path
       fill="none"
       stroke="#000"
       stroke-linecap="round"
       stroke-linejoin="round"
       stroke-miterlimit="10"
       stroke-width="2"
       d="m 36.0441,10.9064 c 3.6923,4.6154 5.5385,8.3077 6.4615,15.6923 0.4173,3.3383 0,5.5385 -0.2838,7.9244 0,0 11.32,-9.7705 18.7047,-7.0013 0,0 -6.4615,6.4615 -7.3846,9.2308 -0.9231,2.7692 -2.7692,6.4615 -6.4615,6.4615 0,0 0,4.6154 10.1539,2.7692 0,0 -6.4615,10.1539 -17.5385,5.5385 0,0 -1.8462,0.9231 -1.8462,7.3846 h -0.9231 -1.7648 -0.9231 c 0,-6.4615 -1.8462,-7.3846 -1.8462,-7.3846 -11.0769,4.6154 -17.5385,-5.5385 -17.5385,-5.5385 10.1538,1.8462 10.1538,-2.7692 10.1538,-2.7692 -3.6923,0 -5.5385,-3.6923 -6.4615,-6.4615 -0.9231,-2.7692 -7.3846,-9.2308 -7.3846,-9.2308 7.3846,-2.7692 18.7047,7.0013 18.7047,7.0013 -0.2838,-2.3859 -0.7011,-4.5861 -0.2838,-7.9244 0.9231,-7.3846 2.7693,-11.0769 6.4616,-15.6923 z"
       id="path2" />
  </g>
</g></svg>