<svg xmlns="http://www.w3.org/2000/svg" width="24" height="24" viewBox="0 0 24 24"> <g transform="translate(0.023945068998079577 0.0) scale(0.47903550990435856)">
  
  <g
     id="line"
     transform="translate(-11.099542,-10.79957)">
    <path
       fill="none"
       stroke="#000"
       stroke-linecap="round"
       stroke-linejoin="round"
       stroke-width="2"
       d="m 53.4,29.9 a 18.1487,18.1487 0 0 1 1,6.1 17.7021,17.7021 0 0 1 -0.1,2.3"
       id="path2" />
    <path
       fill="none"
       stroke="#000"
       stroke-linecap="round"
       stroke-linejoin="round"
       stroke-width="2"
       d="M 17.7,34.1 A 18.27,18.27 0 0 1 30,18.6"
       id="path4" />
    <path
       d="m 31.2,32 a 2.4,2.4 0 1 1 -2.4,-2.4 v 0 a 2.4334,2.4334 0 0 1 2.4,2.4"
       id="path6" />
    <path
       d="M 45.6,32 A 2.4,2.4 0 1 1 43.2,29.6 2.4334,2.4334 0 0 1 45.6,32"
       id="path8" />
    <path
       fill="none"
       stroke="#000"
       stroke-linecap="round"
       stroke-linejoin="round"
       stroke-width="2"
       d="m 31.9,15.3 a 3.4953,3.4953 0 0 0 -6.7,-1.4 4.46,4.46 0 0 0 -6.1,1.7 6.6371,6.6371 0 0 0 -0.6,2 3.4677082,3.4677082 0 1 0 -2.9,6.3 3.194,3.194 0 0 0 1.4,0.3"
       id="path10" />
    <path
       fill="none"
       stroke="#000"
       stroke-linecap="round"
       stroke-linejoin="round"
       stroke-width="2"
       d="M 21.9,53.5 H 18.2 A 6.1107,6.1107 0 0 1 17.7,41.3 v 0 a 4.6946,4.6946 0 0 1 4.7,-4.7 4.7856,4.7856 0 0 1 4.4,2.9 6.1141,6.1141 0 0 1 7.6,1.3"
       id="path12" />
    <path
       fill="none"
       stroke="#000"
       stroke-linecap="round"
       stroke-linejoin="round"
       stroke-width="2"
       d="m 53.3,59.9 a 6.7439,6.7439 0 0 0 6.8,-6.8 6.8412,6.8412 0 0 0 -6.2,-6.8 v 0 a 5.3351,5.3351 0 0 0 -5.3,-5.3 5.5022,5.5022 0 0 0 -4.9,3.2 6.6966,6.6966 0 0 0 -9.2,2.5 8.0165,8.0165 0 0 0 -0.9,3 5.2801515,5.2801515 0 0 0 -4.4,9.6 5.45,5.45 0 0 0 2.2,0.5 h 21.9 z"
       id="path14" />
    <path
       fill="none"
       stroke="#000"
       stroke-linecap="round"
       stroke-linejoin="round"
       stroke-width="2"
       d="m 38.2,27.1 a 5.5488,5.5488 0 0 1 -5.5,-5.5 5.61,5.61 0 0 1 5,-5.5 v 0 a 4.2682,4.2682 0 0 1 4.3,-4.3 4.1361,4.1361 0 0 1 3.9,2.6 5.432,5.432 0 0 1 8.2,4.5 4.21,4.21 0 0 1 5.6,2.1 4.2965,4.2965 0 0 1 -2.1,5.6 3.9222,3.9222 0 0 1 -1.8,0.4 H 38.2 Z"
       id="path16" />
  </g>
</g></svg>