<svg xmlns="http://www.w3.org/2000/svg" width="24" height="24" viewBox="0 0 24 24"> <g transform="translate(7.5832980812815505 0.0) scale(0.41305955952257956)">
  
  <g
     id="line"
     transform="translate(-25.311578,-6.951)">
    <ellipse
       cx="34.439999"
       cy="10.67"
       rx="2.7019999"
       ry="2.7190001"
       fill="none"
       stroke="#000"
       stroke-miterlimit="10"
       stroke-width="2"
       id="ellipse2" />
    <path
       fill="none"
       stroke="#000"
       stroke-linecap="round"
       stroke-linejoin="round"
       stroke-miterlimit="10"
       stroke-width="2"
       d="m 26.32,62.25 c -0.09673,0.992 0.5172,1.804 1.365,1.804 0.8479,0 1.756,-0.7868 2.016,-1.749 l 4.941,-18.23 c 0.2604,-0.9619 0.9394,-2.417 1.508,-3.233 l 1.981,-2.845 c 0.5682,-0.8159 0.9939,-2.299 0.9464,-3.295 l -0.4498,-9.289 -0.2873,-4.827 c -0.1187,-1.99 -1.837,-3.656 -3.819,-3.656 h -0.04666 c -1.982,0 -3.783,1.659 -4.005,3.64 l -0.4987,4.506 z"
       id="path4" />
    <path
       fill="none"
       stroke="#000"
       stroke-linecap="round"
       stroke-linejoin="round"
       stroke-miterlimit="10"
       stroke-width="2"
       d="m 38.2,37.9 1.64,10.44 c 0.1539,0.985 0.7019,2.488 1.216,3.339 l 4.345,7.196 c 0.5137,0.8514 0.3272,1.957 -0.416,2.455 -0.7432,0.498 -1.832,0.2505 -2.421,-0.5522 l -4.745,-6.466 c -0.5884,-0.8027 -1.364,-2.219 -1.724,-3.147 l -1.984,-5.123"
       id="path6" />
    <path
       fill="none"
       stroke="#000"
       stroke-linecap="round"
       stroke-linejoin="round"
       stroke-miterlimit="10"
       stroke-width="2"
       d="m 34.62,21.46 0.04927,5.664 c 0.0087,0.9969 -0.1768,2.604 -0.4117,3.573 l -2.562,10.55"
       id="path8" />
    <path
       fill="none"
       stroke="#000"
       stroke-linecap="round"
       stroke-linejoin="round"
       stroke-width="2"
       d="m 37.86,8.885 c 0,0 0.5706,-0.3283 0.9522,-0.0639 0.4492,0.31 0.8462,1.582 1.39,2.1 a 3.363,3.363 0 0 0 1.958,0.94"
       id="path10" />
  </g>
</g></svg>