<svg xmlns="http://www.w3.org/2000/svg" width="24" height="24" viewBox="0 0 24 24"> <g transform="scale(0.41379310344827586)">
  
  <g
     id="line"
     transform="translate(-7,-7)">
    <g
       id="line-2">
      <circle
         cx="36"
         cy="36"
         r="28"
         fill="none"
         stroke="#000"
         stroke-linejoin="round"
         stroke-width="2"
         id="circle2" />
    </g>
    <path
       fill="none"
       stroke="#000"
       stroke-linejoin="round"
       stroke-width="2"
       d="m 36,21.0122 c -6.0654,0 -11,4.9346 -11,11 v 8 c 0,6.0654 4.9346,11 11,11 2.6573,0 5.0974,-0.9475 7.0007,-2.522 l 2.2474,2.2314 c 0.1943,0.1938 0.4492,0.2905 0.7041,0.2905 0.2568,0 0.5137,-0.0986 0.71,-0.2954 0.1934,-0.1953 0.29,-0.4502 0.29,-0.7051 0,-0.2568 -0.0986,-0.5137 -0.2959,-0.709 l -2.239,-2.2231 C 46.0264,45.1662 47,42.7018 47,40.0121 v -8 c 0,-6.0654 -4.9346,-11 -11,-11 z m 9,19 c 0,2.1406 -0.754,4.1069 -2.0068,5.6534 l -3.0889,-3.067 c -0.3896,-0.3887 -1.0225,-0.3867 -1.4141,0.0049 -0.1934,0.1953 -0.29,0.4502 -0.29,0.7051 0,0.2568 0.0986,0.5137 0.2959,0.709 l 3.0729,3.0511 c -1.5338,1.2131 -3.4661,1.9435 -5.569,1.9435 -4.9629,0 -9,-4.0376 -9,-9 v -8 c 0,-4.9624 4.0371,-9 9,-9 4.9629,0 9,4.0376 9,9 z"
       id="path5" />
  </g>
</g></svg>