<svg xmlns="http://www.w3.org/2000/svg" width="24" height="24" viewBox="0 0 24 24"> <g transform="translate(0.0 1.7637850258817096) scale(0.3897053170175625)">
  
  <g
     id="line"
     transform="translate(-4.9838554,-9.8856967)">
    <path
       fill="none"
       stroke="#000"
       stroke-linecap="round"
       stroke-linejoin="round"
       stroke-miterlimit="10"
       stroke-width="2"
       d="m 40.5348,55.6239 -3.9761,-1.494 c -0.363,-0.1364 -0.7632,-0.1364 -1.1261,0 l -3.9761,1.494 c -2.2002,0.8267 -4.5486,-0.7996 -4.5486,-3.1499 v -2.463 c 0,-2.11 1.0916,-4.0698 2.8856,-5.1806 l 2.3807,-1.4741 c 2.3414,-1.4497 5.3015,-1.4497 7.6429,0 l 2.3807,1.4741 c 1.794,1.1108 2.8856,3.0706 2.8856,5.1806 v 2.463 c -10e-5,2.3504 -2.3484,3.9767 -4.5486,3.1499 z"
       id="path2" />
    <ellipse
       cx="32.184601"
       cy="49.708698"
       rx="2.6115"
       ry="1.6068"
       transform="matrix(0.3327,-0.943,0.943,0.3327,-25.3997,63.5235)"
       fill="#000"
       stroke="none"
       id="ellipse4" />
    <ellipse
       cx="39.806499"
       cy="49.708698"
       rx="1.6068"
       ry="2.6115"
       transform="matrix(0.943,-0.3327,0.3327,0.943,-14.2694,16.0738)"
       fill="#000"
       stroke="none"
       id="ellipse6" />
    <circle
       cx="26.0833"
       cy="36.085499"
       r="2"
       fill="#000"
       stroke="none"
       id="circle8" />
    <circle
       cx="46.041698"
       cy="36.085499"
       r="2"
       fill="#000"
       stroke="none"
       id="circle10" />
    <path
       fill="none"
       stroke="#000"
       stroke-linecap="round"
       stroke-linejoin="round"
       stroke-miterlimit="10"
       stroke-width="2"
       d="M 25.8333,61.4188 C 15.75,54.9188 20.6666,38.2521 20.6666,38.2521 12.8904,41.1682 11.6451,34.5117 9.7462,30.0459 9.001,28.2934 8.6724,26.4095 8.5828,24.5073 8.4229,21.11 6.9701,16.4312 6.089,13.868 c -0.47,-1.3674 0.6215,-2.7649 2.0621,-2.6417 1.1647,0.0996 2.4527,0.5098 3.5792,0.9664 1.8985,0.7695 3.8733,1.3555 5.9082,1.591 8.4189,0.9743 9.2693,7.3018 9.2693,7.3018 0,0 10.5705,-1.75 17.7588,0.25 0,0 0.8287,-6.9109 9.2476,-7.8852 2.0349,-0.2355 4.0098,-0.8215 5.9082,-1.591 1.1266,-0.4566 2.4145,-0.8668 3.5792,-0.9664 1.4406,-0.1231 2.5321,1.2744 2.0621,2.6417 -0.8811,2.5633 -2.3339,7.242 -2.4939,10.6394 -0.0896,1.9022 -0.4182,3.7862 -1.1634,5.5386 -1.8989,4.4657 -3.1442,11.1222 -10.9204,8.2062 0,0 4.9167,16.6667 -5.1667,23.1667"
       id="path12" />
    <path
       fill="none"
       stroke="#000"
       stroke-linecap="round"
       stroke-linejoin="round"
       stroke-miterlimit="10"
       stroke-width="2"
       d="m 30.8333,59.3355 c 0,0 4.6667,4 10.6667,0"
       id="path14" />
    <path
       fill="none"
       stroke="#000"
       stroke-linecap="round"
       stroke-linejoin="round"
       stroke-miterlimit="10"
       stroke-width="2"
       d="m 23.0625,26.023 c 0,0 -1.375,-6.4375 -7.1875,-8 -5.8125,-1.5625 -5.5,-2.1875 -5.5,-2.1875"
       id="path16" />
    <path
       fill="none"
       stroke="#000"
       stroke-linecap="round"
       stroke-linejoin="round"
       stroke-miterlimit="10"
       stroke-width="2"
       d="m 47.8268,26.023 c 0,0 1.375,-6.4375 7.1875,-8 5.8125,-1.5625 5.5,-2.1875 5.5,-2.1875"
       id="path18" />
  </g>
</g></svg>