<svg xmlns="http://www.w3.org/2000/svg" width="24" height="24" viewBox="0 0 24 24"> <g transform="translate(0.8682385525428291 0.0) scale(0.5357955998724002)">
  
  <g
     id="line"
     transform="translate(-14.079732,-13.5617)">
    <path
       fill="none"
       stroke="#000"
       stroke-linecap="round"
       stroke-linejoin="round"
       stroke-width="2"
       d="m 32.2408,32.6455 c -0.161,-0.6615 -0.2711,-1.294 -0.4723,-1.8959 a 18.1,18.1 0 0 0 -0.9249,-2.3565 3.2039,3.2039 0 0 0 -4.43,-1.6284 9.7475,9.7475 0 0 0 -2.6462,1.6835 26.67,26.67 0 0 0 -5.9735,7.645 21.851,21.851 0 0 0 -2.2313,5.5814 14.9153,14.9153 0 0 0 -0.4158,2.8438 c -0.0734,2.3022 -0.0728,4.6076 -0.0614,6.9115 a 10.9226,10.9226 0 0 0 0.4871,3.4047 3.2346,3.2346 0 0 0 3.14,2.4558 1.6351,1.6351 0 0 1 0.29,0.0645 h 0.1519 c 0.3368,-0.04 0.6753,-0.0694 1.01,-0.122 a 15.89,15.89 0 0 0 6.6285,-2.8513 15.6321,15.6321 0 0 0 4.808,-5.139 9.0951,9.0951 0 0 0 1.2411,-4.7473 q -0.0918,-3.8892 -0.1747,-7.7786 a 23.3713,23.3713 0 0 0 -0.4265,-4.0712 z"
       id="path2" />
    <path
       fill="none"
       stroke="#000"
       stroke-linecap="round"
       stroke-linejoin="round"
       stroke-width="2"
       d="m 37.4951,32.326 c 0.0508,-0.2238 0.0889,-0.38 0.1215,-0.5365 a 11.8359,11.8359 0 0 1 1.2788,-3.6313 3.2285,3.2285 0 0 1 2.6531,-1.8412 4.3263,4.3263 0 0 1 2.22,0.5526 14.5931,14.5931 0 0 1 4.2462,3.5118 29.3667,29.3667 0 0 1 5.1242,8.2023 16.2156,16.2156 0 0 1 1.4317,6.6242 c -0.0117,0.5285 0.0393,1.0584 0.0614,1.5876 v 4.8619 c -0.0255,0.1974 -0.0414,0.3965 -0.0782,0.5918 A 23.7765,23.7765 0 0 1 54.0218,54.9145 2.9842,2.9842 0 0 1 51.7,57.0763 6.52,6.52 0 0 1 48.5112,56.913 17.3332,17.3332 0 0 1 38.3961,49.6369 8.9134,8.9134 0 0 1 36.8453,44.4845 c 0.0494,-2.6436 0.119,-5.2869 0.1755,-7.93 a 23.711,23.711 0 0 1 0.4743,-4.2285 z"
       id="path4" />
    <g
       id="g12">
      <path
         fill="none"
         stroke="#000"
         stroke-linecap="round"
         stroke-linejoin="round"
         stroke-width="2"
         d="m 34.6044,14.5617 v 15.1732 a 7.0373,7.0373 0 0 1 -2.55,5.4567 25.5639,25.5639 0 0 1 -6.83,3.7744 c 0,0 -4.3906,1.8389 -6.0537,8.3582"
         id="path6" />
      <path
         fill="none"
         stroke="#000"
         stroke-linecap="round"
         stroke-linejoin="round"
         stroke-width="2"
         d="m 25.0914,45.1289 c 0,0 -0.4364,-4.9207 1.079,-6.5516"
         id="path8" />
      <path
         fill="none"
         stroke="#000"
         stroke-linecap="round"
         stroke-linejoin="round"
         stroke-width="2"
         d="m 21.3,36.8206 c 0,0 1.9664,2.1447 6.039,1.2351"
         id="path10" />
    </g>
    <g
       id="g20">
      <path
         fill="none"
         stroke="#000"
         stroke-linecap="round"
         stroke-linejoin="round"
         stroke-width="2"
         d="m 34.6044,14.5617 v 15.1732 a 7.0376,7.0376 0 0 0 2.55,5.4567 25.5655,25.5655 0 0 0 6.83,3.7744 c 0,0 4.3906,1.8389 6.0537,8.3582"
         id="path14" />
      <path
         fill="none"
         stroke="#000"
         stroke-linecap="round"
         stroke-linejoin="round"
         stroke-width="2"
         d="m 44.1174,45.1289 c 0,0 0.4364,-4.9207 -1.0791,-6.5516"
         id="path16" />
      <path
         fill="none"
         stroke="#000"
         stroke-linecap="round"
         stroke-linejoin="round"
         stroke-width="2"
         d="m 47.9092,36.8206 c 0,0 -1.9663,2.1447 -6.039,1.2351"
         id="path18" />
    </g>
  </g>
</g></svg>