<svg xmlns="http://www.w3.org/2000/svg" width="24" height="24" viewBox="0 0 24 24"> <g transform="translate(2.3614455895872606 0.0) scale(0.481927720520637)">
  
  <g
     id="line"
     transform="translate(-16,-11.1)">
    <path
       fill="none"
       stroke="#000"
       stroke-linecap="round"
       stroke-miterlimit="10"
       stroke-width="2"
       d="m 20.6,53.6 a 12.959,12.959 0 0 1 4,-3.4 12.8138,12.8138 0 0 1 3.3,-1.1"
       id="path2" />
    <path
       fill="none"
       stroke="#000"
       stroke-linecap="round"
       stroke-miterlimit="10"
       stroke-width="2"
       d="m 29.2,49.6 a 10.4931,10.4931 0 0 0 -6.8,7.5"
       id="path4" />
    <path
       fill="none"
       stroke="#000"
       stroke-linecap="round"
       stroke-miterlimit="10"
       stroke-width="2"
       d="m 51.7,53.8 a 12.959,12.959 0 0 0 -4,-3.4 12.8138,12.8138 0 0 0 -3.3,-1.1"
       id="path6" />
    <path
       fill="none"
       stroke="#000"
       stroke-linecap="round"
       stroke-miterlimit="10"
       stroke-width="2"
       d="m 43,49.9 a 10.4931,10.4931 0 0 1 6.8,7.5"
       id="path8" />
    <path
       fill="none"
       stroke="#000"
       stroke-linecap="round"
       stroke-miterlimit="10"
       stroke-width="2"
       d="m 30,50.6 a 19.6,19.6 0 0 0 -4.3,6.3 15.0991,15.0991 0 0 0 -1,3"
       id="path10" />
    <path
       fill="none"
       stroke="#000"
       stroke-linecap="round"
       stroke-linejoin="round"
       stroke-width="2"
       d="m 17,59.9 v -3 c 0,-5 5,-9 10,-9 q 9,7.5 18,0 c 5,0 10,4 10,9 v 3"
       id="path12" />
    <path
       fill="none"
       stroke="#000"
       stroke-linecap="round"
       stroke-miterlimit="10"
       stroke-width="2"
       d="m 42.4,50.6 a 26.636,26.636 0 0 1 4.2,6.3 18.77,18.77 0 0 1 1.2,3"
       id="path14" />
    <path
       fill="none"
       stroke="#000"
       stroke-linecap="round"
       stroke-linejoin="round"
       stroke-width="2"
       d="m 31.1,59.4 -1,-1.9 a 2.5692,2.5692 0 0 0 2,-2 H 40 a 2.2362,2.2362 0 0 0 2,2 c 0,0.1 -1,1.8 -1,1.8"
       id="path16" />
    <path
       fill="none"
       stroke="#000"
       stroke-linejoin="round"
       stroke-width="2"
       d="m 25.3,29.3 a 6.2826,6.2826 0 0 0 3.8,-1.1 C 30.5,27 32.2,26 34.7,27.8 a 3.9457,3.9457 0 0 0 1.5,0.6 3.3865,3.3865 0 0 0 1.5,-0.6 c 2.5,-1.8 4.2,-0.8 5.6,0.4 a 6.4847,6.4847 0 0 0 3.8,1.1 L 47,30.9 A 6.2826,6.2826 0 0 0 43.2,32 c -1.4,1.2 -3.1,2.2 -5.6,0.4 a 3.9457,3.9457 0 0 0 -1.5,-0.6 3.3865,3.3865 0 0 0 -1.5,0.6 C 32.1,34.2 30.4,33.2 29,32 a 6.4847,6.4847 0 0 0 -3.8,-1.1 z"
       id="path18" />
    <path
       fill="none"
       stroke="#000"
       stroke-linecap="round"
       stroke-linejoin="round"
       stroke-width="2"
       d="m 26.3,39.1 c -4,0 -4,-6 -4,-13 0,-7 4,-14 14,-14 10,0 14,7 14,14 0,7 0,13 -4,13"
       id="path20" />
    <path
       d="m 42.2,30.1 a 2,2 0 1 1 -2,-2 2.0059,2.0059 0 0 1 2,2"
       id="path22" />
    <path
       d="m 34.2,30.1 a 2,2 0 1 1 -2,-2 2.0059,2.0059 0 0 1 2,2"
       id="path24" />
    <path
       fill="none"
       stroke="#000"
       stroke-linejoin="round"
       stroke-width="2"
       d="m 25.2,31.1 c 0,9 4.9,14 11,14 5.9,0 11.1,-5 11.1,-14 a 12.1332,12.1332 0 0 0 -1,-5 c -3,-3 -7,-8 -7,-8 -4,3 -7,6 -13,7 0,0 -1.1,1 -1.1,6 z"
       id="path26" />
    <path
       fill="none"
       stroke="#000"
       stroke-linecap="round"
       stroke-linejoin="round"
       stroke-width="2"
       d="m 33.3,38.1 a 6.6712,6.6712 0 0 0 6,0"
       id="path28" />
  </g>
</g></svg>