<svg xmlns="http://www.w3.org/2000/svg" width="24" height="24" viewBox="0 0 24 24"> <g transform="translate(1.70576210425215 0.0) scale(0.3745207188138704)">
  
  <g
     id="line"
     transform="translate(-6.4396606,-3.9389)">
    <path
       fill="none"
       stroke="#000"
       stroke-linecap="round"
       stroke-linejoin="round"
       stroke-miterlimit="10"
       stroke-width="2"
       d="M 28.1685,67.0208 29.3473,63.5681 25.9181,48.107 C 13.5946,44.2492 15.5254,30.4209 15.5254,30.4209 15.3333,28.6554 12.2016,28.6038 12.2016,28.6038 L 9.5517,28.8164 C 8.7512,28.8806 8.0077,28.3982 7.7401,27.6411 l -0.2103,-0.595 c -0.2696,-0.7629 0.0713,-1.6072 0.795,-1.969 l 9.0205,-4.5102 c 0,0 2.2172,-0.8563 3.168,1.5187 0,0 1.1184,-2.6975 6.4764,-0.5542 0,0 -0.4286,4.0721 -5.1437,4.0721"
       id="path2" />
    <path
       fill="none"
       stroke="#000"
       stroke-linecap="round"
       stroke-linejoin="round"
       stroke-miterlimit="10"
       stroke-width="2"
       d="m 33.0263,39.7485 0.5358,5.6795 c 0,0 -3.0005,3.0188 -2.1432,9.0642"
       id="path4" />
    <polyline
       fill="none"
       stroke="#000"
       stroke-linecap="round"
       stroke-linejoin="round"
       stroke-miterlimit="10"
       stroke-width="2"
       points="23.0964,51.1838 24.0608,62.6628 22.2391,66.8421"
       id="polyline6" />
    <path
       fill="none"
       stroke="#000"
       stroke-linecap="round"
       stroke-linejoin="round"
       stroke-miterlimit="10"
       stroke-width="2"
       d="m 23.7837,28.6554 c 0,0 0.671,3.2268 4.8768,1.8649 0.9554,-0.3094 1.9838,-0.2964 2.9608,-0.064 2.4541,0.5839 10.0605,1.4413 13.8729,0.783 0.5614,-0.0969 1.1066,-0.2553 1.637,-0.4631 1.5592,-0.6108 6.7173,-2.1085 11.707,2.3083 2.0034,1.7733 1.7879,4.751 1.0301,7.2283 -0.0102,0.0336 -0.8683,2.7102 0.5438,3.7727"
       id="path8" />
    <polyline
       fill="none"
       stroke="#000"
       stroke-linecap="round"
       stroke-linejoin="round"
       stroke-miterlimit="10"
       stroke-width="2"
       points="47.6356,37.391 46.7784,46.5842 50.8505,53.2505 47.4678,63.8914 45.1174,67.0208"
       id="polyline10" />
    <path
       fill="none"
       stroke="#000"
       stroke-linecap="round"
       stroke-linejoin="round"
       stroke-miterlimit="10"
       stroke-width="2"
       d="m 56.125,37.391 c 0,0 0.9716,4.995 -2.0778,9.7294 0,0 0.1072,3.88 1.3931,6.2375 l -2.036,4.1551"
       id="path12" />
    <path
       fill="none"
       stroke="#000"
       stroke-linecap="round"
       stroke-linejoin="round"
       stroke-miterlimit="10"
       stroke-width="2"
       d="m 18.2026,20.2453 c 0,0 0.8573,-4.1257 7.5548,-2.4647 0,0 6.001,0.4822 7.9835,-5.1437 1.9825,-5.6259 -2.1788,-7.698 -2.1788,-7.698"
       id="path14" />
    <path
       fill="none"
       stroke="#000"
       stroke-linecap="round"
       stroke-linejoin="round"
       stroke-miterlimit="10"
       stroke-width="2"
       d="m 37.8498,8.1547 c 0,0 2.8621,1.9342 0.2904,4.8651 -2.5013,2.8506 -4.8487,2.0226 -4.8487,2.0226"
       id="path16" />
    <path
       fill="none"
       stroke="#000"
       stroke-linecap="round"
       stroke-linejoin="round"
       stroke-miterlimit="10"
       stroke-width="2"
       d="m 14.5055,11.0295 c 0,0 -1.2151,4.9964 1.2859,6.9654 2.501,1.969 2.4111,2.5629 2.4111,2.5629"
       id="path18" />
    <path
       fill="none"
       stroke="#000"
       stroke-linecap="round"
       stroke-linejoin="round"
       stroke-miterlimit="10"
       stroke-width="2"
       d="m 27.847,10.6544 c 0,0 -1.3159,1.711 0.1307,4.1802 0,0 0.6376,1.6171 -0.6575,2.8709"
       id="path20" />
    <path
       fill="none"
       stroke="#000"
       stroke-linecap="round"
       stroke-linejoin="round"
       stroke-miterlimit="10"
       stroke-width="2"
       d="m 20.5065,17.7055 c 0,0 -1.9289,-2.3896 0.6965,-5.015"
       id="path22" />
    <path
       fill="none"
       stroke="#000"
       stroke-linecap="round"
       stroke-linejoin="round"
       stroke-miterlimit="10"
       stroke-width="2"
       d="m 36.24,48.9236 c 4.753,0.5107 8.8861,0.5288 11.6242,-0.5618"
       id="path24" />
  </g>
</g></svg>