<svg xmlns="http://www.w3.org/2000/svg" width="24" height="24" viewBox="0 0 24 24"> <g transform="translate(0.0 2.12119824) scale(0.48)">
  
  <g
     id="line"
     transform="translate(-11,-14.838327)">
    <polyline
       fill="none"
       stroke="#000"
       stroke-linecap="round"
       stroke-linejoin="round"
       stroke-miterlimit="10"
       stroke-width="2"
       points="60,55 53.4,48.1 50,39"
       id="polyline2" />
    <polyline
       fill="none"
       stroke="#000"
       stroke-linecap="round"
       stroke-linejoin="round"
       stroke-miterlimit="10"
       stroke-width="2"
       points="19.4,33.1 18,37 16,49 12,55"
       id="polyline4" />
    <polyline
       fill="none"
       stroke="#000"
       stroke-linecap="round"
       stroke-linejoin="round"
       stroke-miterlimit="10"
       stroke-width="2"
       points="40,32 50,39 49,45 50,50 48,52 45,55"
       id="polyline6" />
    <line
       x1="48.700001"
       x2="51"
       y1="30.299999"
       y2="35"
       fill="none"
       stroke="#000"
       stroke-linecap="round"
       stroke-linejoin="round"
       stroke-miterlimit="10"
       stroke-width="2"
       id="line8" />
    <line
       x1="41.200001"
       x2="42.400002"
       y1="29"
       y2="27.5"
       fill="none"
       stroke="#000"
       stroke-linecap="round"
       stroke-linejoin="round"
       stroke-miterlimit="10"
       stroke-width="2"
       id="line10" />
    <path
       fill="none"
       stroke="#000"
       stroke-linecap="round"
       stroke-linejoin="round"
       stroke-miterlimit="10"
       stroke-width="2"
       d="m 29,31 c 0,0 -0.8,0.7 -1.3,0.9 C 26,33 25.8,34.8 25,35 c -1.3,0.4 -0.9,-2.7 -3,-3 -2,-0.3 -2.1,1.5 -3,1 -1.2,-0.7 -0.2,-4.4 0,-5 0.3,-1.1 1.2,-2.7 3,-6 1.6,-2.8 1.7,-3.1 2,-4 0.4,-1.6 0.3,-1.6 1,-2 0.9,-0.5 2.3,0.3 3,1 1,1 0.4,0.7 2,2 1.3,1 1.5,0.8 3,2 0.3,0.2 1.1,0.9 2,2 0.6,0.7 1.4,1.6 2,3 0.7,1.5 0.4,1.7 1,3 0.9,1.9 2.2,2.6 2,3 -0.3,0.5 -2.7,-1 -4,0 -0.4,0.3 -0.3,0.6 -1,2 -0.8,1.7 -1.2,3.6 -2,4 -1.2,0.6 -3,-0.9 -4,-2 -1.6,-1.8 0,-5 0,-5 z"
       id="path12" />
    <path
       fill="none"
       stroke="#000"
       stroke-linecap="round"
       stroke-linejoin="round"
       stroke-miterlimit="10"
       stroke-width="2"
       d="m 44,23 c 0.8,-0.8 1.9,1.3 3,3 0.9,1.4 2.4,3.2 2,4 -0.5,1 -3,0.4 -4,0 -0.3,-0.2 -0.4,-0.3 -1,-1 -1.3,-1.5 -1.7,-1.4 -2,-2 -0.6,-1.3 1,-3 2,-4 z"
       id="path14" />
  </g>
</g></svg>