<svg xmlns="http://www.w3.org/2000/svg" width="24" height="24" viewBox="0 0 24 24"> <g transform="translate(0.0 4.447722006614601) scale(0.4117013623987176)">
  
  <g
     id="line"
     transform="translate(-7.0011457,-17.312863)">
    <path
       fill="none"
       stroke="#000"
       stroke-linecap="round"
       stroke-linejoin="round"
       stroke-miterlimit="10"
       stroke-width="2"
       d="m 15.1484,53.001 c -1.1045,0 -2,-0.8955 -2,-2 0,-12.7022 10.2979,-23 23,-23 12.7012,0 23,10.2978 23,23 0,1.1045 -0.8964,2 -2,2 z"
       id="path2" />
    <path
       fill="none"
       stroke="#000"
       stroke-linecap="round"
       stroke-linejoin="round"
       stroke-miterlimit="10"
       stroke-width="2"
       d="m 62.0723,46.9121 c 1.6015,-0.4297 2.5527,-2.0742 2.1211,-3.6738 -0.2461,-0.919 -0.8985,-1.6113 -1.709,-1.9639 1.3652,-1.5654 1.6758,-3.873 0.5801,-5.7724 -1.1817,-2.043 -3.5821,-2.9239 -5.7481,-2.2823 0.2852,-1.0107 0.043,-2.1357 -0.7539,-2.9297 -0.6719,-0.6738 -1.584,-0.9472 -2.4609,-0.8466 0.3984,-2.0391 -0.4864,-4.1924 -2.3848,-5.2891 -2.0449,-1.1787 -4.5645,-0.7422 -6.1182,0.8965 -0.2578,-1.0166 -1.0312,-1.8711 -2.1172,-2.1602 -0.9189,-0.247 -1.8457,-0.0273 -2.5546,0.4971 -0.6739,-1.9648 -2.5176,-3.3867 -4.711,-3.3867 -2.3584,0 -4.3232,1.6386 -4.8496,3.8349 -0.7334,-0.75 -1.8291,-1.1035 -2.915,-0.8125 -0.919,0.2461 -1.6114,0.8985 -1.9629,1.708 -1.5664,-1.3642 -3.8731,-1.6738 -5.7725,-0.5771 -2.0439,1.1797 -2.9248,3.5801 -2.2822,5.7461 -1.0098,-0.2832 -2.1367,-0.041 -2.9316,0.7539 -0.6729,0.6719 -0.9454,1.584 -0.8457,2.4609 -2.0391,-0.3984 -4.1915,0.4864 -5.2881,2.3858 -1.1787,2.0429 -0.7422,4.5635 0.8974,6.1181 -1.0176,0.2588 -1.8711,1.0313 -2.1631,2.1172 -0.4287,1.6006 0.5215,3.2451 2.1211,3.6748"
       id="path4" />
    <path
       fill="none"
       stroke="#000"
       stroke-linecap="round"
       stroke-linejoin="round"
       stroke-miterlimit="10"
       stroke-width="2"
       d="m 14.9971,25.1943 c -1.1104,0.1026 -2.1905,0.5738 -3.042,1.4253 -0.8106,0.8106 -1.2754,1.8272 -1.4063,2.8804"
       id="path6" />
    <path
       fill="none"
       stroke="#000"
       stroke-linecap="round"
       stroke-linejoin="round"
       stroke-miterlimit="10"
       stroke-width="2"
       d="m 30.6943,18.7378 c -0.997,-0.4414 -2.1435,-0.561 -3.2812,-0.2568 -1.1338,0.3037 -2.0645,0.977 -2.707,1.854"
       id="path8" />
    <path
       fill="none"
       stroke="#000"
       stroke-linecap="round"
       stroke-linejoin="round"
       stroke-miterlimit="10"
       stroke-width="2"
       d="m 41.3047,18.7378 c 0.9971,-0.4414 2.1435,-0.561 3.2812,-0.2568 1.1338,0.3037 2.0645,0.977 2.7071,1.854"
       id="path10" />
    <path
       fill="none"
       stroke="#000"
       stroke-linecap="round"
       stroke-linejoin="round"
       stroke-miterlimit="10"
       stroke-width="2"
       d="m 57.002,25.1943 c 1.1093,0.1026 2.1894,0.5738 3.041,1.4253 0.8105,0.8106 1.2754,1.8272 1.4062,2.8804"
       id="path12" />
  </g>
</g></svg>