<svg xmlns="http://www.w3.org/2000/svg" width="24" height="24" viewBox="0 0 24 24"> <g transform="translate(0.0 0.35051529361793143) scale(0.4620716299975285)">
  
  <g
     id="line"
     transform="translate(-9.83,-9.5137157)">
    <path
       d="m 25.33,15.9098 c -0.53,0.64 -0.99,1.3199 -1.39,2 H 11.83 v 32.29 h 2.06 c 0.55,0 1,0.44 1,1 0,0.55 -0.45,1 -1,1 h -3.06 c -0.55,0 -1,-0.45 -1,-1 v -34.29 c 0,-0.55 0.45,-1 1,-1 z"
       id="path2" />
    <path
       d="m 61.77,16.9098 v 34.29 c 0,0.55 -0.45,1 -1,1 h -2.59 c -0.55,0 -1,-0.45 -1,-1 0,-0.56 0.45,-1 1,-1 h 1.59 v -32.29 h -12.4 c -0.38,-0.77 -0.8,-1.44 -1.25,-2 h 14.65 c 0.55,0 1,0.4499 1,1 z"
       id="path4" />
    <path
       d="m 41.9723,27.1482 c 0,1.1045 -0.8965,2 -2,2 -1.1035,0 -2,-0.8955 -2,-2 0,-1.1035 0.8965,-2 2,-2 1.1035,0 2,0.8965 2,2"
       id="path6" />
    <path
       d="m 33.9723,27.1482 c 0,1.1045 -0.8965,2 -2,2 -1.1035,0 -2,-0.8955 -2,-2 0,-1.1035 0.8965,-2 2,-2 1.1035,0 2,0.8965 2,2"
       id="path8" />
    <path
       d="m 35.9722,37.1506 c -1.1519,0 -2.3037,-0.2861 -3.4473,-0.8579 -0.4941,-0.247 -0.6943,-0.8476 -0.4472,-1.3418 0.2466,-0.4936 0.8462,-0.6943 1.3418,-0.4472 1.7177,0.8594 3.3877,0.8594 5.1054,0 0.4947,-0.2471 1.0948,-0.0464 1.3418,0.4472 0.2471,0.4942 0.0469,1.0948 -0.4472,1.3418 -1.1436,0.5718 -2.2954,0.8579 -3.4473,0.8579 z"
       id="path10" />
    <path
       d="m 35.9727,43.6826 c -6.8038,0 -12.3389,-6.8066 -12.3389,-15.1738 0,-1.6841 0.2226,-3.3389 0.6601,-4.9185 l 1.9278,0.5352 c -0.3906,1.4048 -0.5879,2.8799 -0.5879,4.3833 0,7.2637 4.6377,13.1738 10.3389,13.1738 5.7002,0 10.3378,-5.9101 10.3378,-13.1738 0,-1.0708 -0.1015,-2.1377 -0.3017,-3.1709 -0.0801,-0.4121 -0.1768,-0.8174 -0.2861,-1.2134 l 1.9277,-0.5322 c 0.123,0.4458 0.2314,0.9009 0.3213,1.3647 0.2246,1.1587 0.3388,2.3535 0.3388,3.5518 0,8.3672 -5.5351,15.1738 -12.3378,15.1738 z"
       id="path12" />
    <path
       d="m 41.3955,32.3359 h -2.0068 c -1.5479,0 -2.8828,-0.9257 -3.4815,-2.2529 -0.5986,1.3272 -1.9336,2.2529 -3.4814,2.2529 h -2.0069 c -2.1044,0 -3.8164,-1.7119 -3.8164,-3.8159 v -1.2378 h -1.8271 c -0.5527,0 -1,-0.4477 -1,-1 0,-0.5522 0.4473,-1 1,-1 h 2.8271 c 0.5528,0 1,0.4478 1,1 V 28.52 c 0,1.0015 0.8145,1.8159 1.8164,1.8159 h 2.0069 c 1.0019,0 1.8164,-0.8144 1.8164,-1.8159 v -1.104 c 0,-0.5522 0.4473,-1 1,-1 h 1.3301 c 0.5527,0 1,0.4478 1,1 v 1.104 c 0,1.0015 0.8144,1.8159 1.8164,1.8159 h 2.0068 c 1.002,0 1.8164,-0.8144 1.8164,-1.8159 v -2.2378 c 0,-0.5522 0.4473,-1 1,-1 h 2.957 c 0.5528,0 1,0.4478 1,1 0,0.5523 -0.4472,1 -1,1 h -1.957 V 28.52 c 0,2.104 -1.7119,3.8159 -3.8164,3.8159 z"
       id="path14" />
    <path
       d="m 46.6846,24.8589 c -0.0381,0 -0.0772,-0.002 -0.1172,-0.0068 -4.8867,-0.5699 -7.2403,-3.2593 -8.2363,-4.8921 -1.9082,1.4878 -6.4073,4.3872 -12.9913,4.896 -0.5654,0.04 -1.0312,-0.3697 -1.0742,-0.92 -0.0429,-0.5507 0.3692,-1.0317 0.9199,-1.0742 8.0196,-0.6196 12.7208,-5.1557 12.7666,-5.2016 0.2452,-0.2413 0.5958,-0.3399 0.9327,-0.2593 0.3349,0.0796 0.6054,0.3257 0.7158,0.6513 0.0576,0.1641 1.5264,4.1519 7.1992,4.8135 0.5479,0.064 0.9414,0.5606 0.877,1.1089 -0.0596,0.5093 -0.4913,0.8843 -0.9922,0.8843 z"
       id="path16" />
    <path
       d="m 51.62,42.7897 c -0.06,0.55 -0.54,0.95 -1.11,0.89 -0.54,-0.06 -0.94,-0.56 -0.88,-1.11 0.63,-5.68 0.71,-11.74 0.22,-15.82 -0.42,-3.45 -1.31,-6.56 -2.48,-8.84 -0.38,-0.77 -0.8,-1.44 -1.25,-2 -0.25,-0.31 -0.51,-0.59 -0.77,-0.83 -2.16,-1.97 -4.84,-0.4 -4.86,-0.38 -0.43,0.26 -0.99,0.16 -1.3,-0.24 -0.18,-0.22 -4.54,-5.48 -10.76,-1.39 -1.23,0.8 -2.25,1.78 -3.1,2.84 -0.53,0.64 -0.99,1.3199 -1.39,2 -2.49,4.2 -2.89,8.74 -2.9,8.8 -0.0099,0.1 -0.7599,7.2 0.59,15.82 0.08,0.54 -0.29,1.06 -0.84,1.14 -0.05,0.01 -0.1,0.01 -0.15,0.01 -0.49,0 -0.91,-0.35 -0.99,-0.84 -1.39,-8.89 -0.63,-16.02 -0.6,-16.32 0.02,-0.24 0.37,-4.38 2.58,-8.61 0.34,-0.67 0.74,-1.34 1.19,-2 1.13,-1.67 2.6,-3.26 4.51,-4.51 6.35,-4.17 11.26,-0.35 12.86,1.22 1.6,-0.66 4.29,-1.03 6.5,0.98 0.67,0.6 1.29,1.3799 1.86,2.31 0.37,0.6 0.72,1.27 1.05,2 1.05,2.37 1.84,5.33 2.23,8.6 0.52,4.22 0.43,10.4601 -0.21,16.28 z"
       id="path18" />
    <path
       fill="none"
       stroke="#000"
       stroke-linecap="round"
       stroke-linejoin="round"
       stroke-miterlimit="10"
       stroke-width="2"
       d="m 16.8386,57.9966 c 0,0 -2,-13 10,-13 0.05,0.04 0.11,0.07 0.16,0.1 3.08,2.05 5.75,3.46 8.72,3.5 h 0.12 c 2.93,-0.04 5.56,-1.41 8.59,-3.41 0.09,-0.06 0.19,-0.12 0.29,-0.19 5.17,0 7.74,2.42 8.99,5.17"
       id="path20" />
    <polygon
       fill="none"
       stroke="#000"
       stroke-linecap="round"
       stroke-linejoin="round"
       stroke-miterlimit="10"
       stroke-width="2"
       points="35.6886,57.3266 29.7986,58.9366 29.8886,54.1366 24.2686,54.3766 26.8386,45.3366 35.6886,57.1666 35.7786,57.2966 "
       id="polygon22" />
    <polygon
       fill="none"
       stroke="#000"
       stroke-linecap="round"
       stroke-linejoin="round"
       stroke-miterlimit="10"
       stroke-width="2"
       points="35.6886,57.3266 41.5686,58.9366 41.4786,54.1366 47.0986,54.3766 44.5286,45.3366 35.6886,57.1666 35.5886,57.2966 "
       id="polygon24" />
    <path
       d="m 53.1431,58.7864 c -0.5096,0 -0.9023,-0.4491 -0.8344,-0.9541 L 55.6804,31.329 54.2667,58.0009 c -0.0297,0.4421 -0.6805,0.7855 -1.1236,0.7855 z"
       id="path26" />
    <path
       d="m 53.1436,59.5361 c -0.459,0 -0.8956,-0.1982 -1.1983,-0.5439 -0.3017,-0.3447 -0.4404,-0.8047 -0.3799,-1.2598 l 3.3711,-26.498 c 0.0508,-0.4004 0.3926,-0.6885 0.8115,-0.6524 0.4014,0.0362 0.7032,0.3838 0.6817,0.7871 L 55.0156,58.041 c -0.0644,0.9658 -1.1474,1.4951 -1.872,1.4951 z m 0.7099,-7.9013 -0.8008,6.292 0.0909,0.1093 c 0.1123,0 0.3017,-0.0869 0.3789,-0.1562 z"
       id="path28" />
  </g>
</g></svg>