<svg xmlns="http://www.w3.org/2000/svg" width="24" height="24" viewBox="0 0 24 24"> <g transform="translate(0.5846 0.0) scale(0.4)">
  
  <g
     id="line"
     transform="translate(-8.923,-6)">
    <path
       fill="none"
       stroke="#000"
       stroke-linecap="round"
       stroke-linejoin="round"
       stroke-width="2"
       d="M 35.9896,7 C 50.6146,7 65,18.5833 65,35.9583 65,51.9583 52.2489,65 35.9896,65 22.1451,65 9.923,55.6042 9.923,41.1162 c 0,-10.4059 8.4357,-18.8416 18.8416,-18.8416 8.3247,0 15.0733,6.7485 15.0733,15.0733 0,6.6598 -5.3988,12.0586 -12.0586,12.0586 -5.3278,0 -9.6469,-4.3191 -9.6469,-9.6469 0,-4.2623 3.4552,-7.7175 7.7175,-7.7175 3.4098,0 6.174,2.7642 6.174,6.174 0,2.7278 -2.2114,4.9392 -4.9392,4.9392 -2.1823,0 -3.9578,-1.7691 -3.9514,-3.9514 0.0053,-1.8015 1.213,-2.8736 2.8239,-2.4426 0.2681,0.0717 0.6559,0.2764 0.9406,0.633 0.3572,0.4473 0.4259,0.9031 0.4636,1.3122"
       id="path2" />
  </g>
</g></svg>