<svg xmlns="http://www.w3.org/2000/svg" width="24" height="24" viewBox="0 0 24 24"> <g transform="translate(2.062735647007411 0.0) scale(0.43237983011508224)">
  
  <g
     id="line"
     transform="translate(-11.998403,-7.5)">
    <path
       fill="none"
       stroke="#000"
       stroke-linecap="round"
       stroke-linejoin="round"
       stroke-width="2"
       d="m 47.69,14.0008 c 4.4249,2.4312 8.1844,6.3592 9.0941,11.3845 A 17.6271,17.6271 0 0 1 55.2106,35.56 27.1421,27.1421 0 0 1 46.3127,46.4886 c -3.1051,2.2395 -6.7509,3.8921 -9.1708,6.8311 -2.2873,2.7778 -3.5161,6.7023 -6.8536,8.1389 a 8.4307,8.4307 0 0 1 -5.201,0.2532 C 9.0293,57.9836 11.237,34.58 18.6848,24.6047 L 18.709,24.5724 A 21.53,21.53 0 0 1 23,20"
       id="path2" />
    <line
       x1="41"
       x2="41"
       y1="8.5"
       y2="14"
       fill="none"
       stroke="#000"
       stroke-linecap="round"
       stroke-linejoin="round"
       stroke-width="2"
       id="line4" />
    <path
       fill="none"
       stroke="#000"
       stroke-linecap="round"
       stroke-linejoin="round"
       stroke-width="2"
       d="m 40,11.4526 c 0,0 -3.8987,6.1329 -9.4684,7.9047 C 24.9619,21.1291 18,18.6758 18,18.6758 c 0,0 3.8987,-6.1329 9.4684,-7.9047 C 33.0381,8.9993 40,11.4526 40,11.4526 Z"
       id="path6" />
  </g>
</g></svg>