<svg xmlns="http://www.w3.org/2000/svg" width="24" height="24" viewBox="0 0 24 24"> <g transform="translate(0.0 2.571428571428571) scale(0.42857142857142855)">
  
  <g
     id="line-supplement"
     transform="translate(-8,-15)">
    <g
       id="g12">
      <path
         d="m 40.701,37.6519 2.598,1.5 -1,1.7321 -2.598,-1.5 1,-1.7321 m -0.3651,-2.3662 a 1,1 0 0 0 -0.867,0.5 l -2,3.4641 a 1,1 0 0 0 0.366,1.366 l 4.33,2.5 a 0.9994,0.9994 0 0 0 1.366,-0.366 l 2,-3.4641 a 1,1 0 0 0 -0.366,-1.366 l -4.33,-2.5 a 0.9944,0.9944 0 0 0 -0.499,-0.1342 z"
         id="path2" />
      <path
         d="M 30.4974,29.2674 A 1.0015,1.0015 0 1 1 30,29.4019 0.9926,0.9926 0 0 1 30.4974,29.2674 m 0,-2 a 3,3 0 1 0 2.6009,1.5005 2.987,2.987 0 0 0 -2.6009,-1.5005 z"
         id="path4" />
      <path
         d="M 58.4972,42.2681 A 1.0008,1.0008 0 1 1 58,42.4026 0.9922,0.9922 0 0 1 58.4974,42.2681 m 0,-2 a 3,3 0 1 0 2.6009,1.5005 2.9869,2.9869 0 0 0 -2.6009,-1.5005 z"
         id="path6" />
      <path
         d="m 33.299,47.6519 1,1.7321 -2.598,1.5 -1,-1.7321 2.598,-1.5 m 0.3651,-2.3662 a 0.9946,0.9946 0 0 0 -0.499,0.1342 l -4.33,2.5 a 1,1 0 0 0 -0.366,1.366 l 2,3.4641 a 0.9994,0.9994 0 0 0 1.366,0.366 l 4.33,-2.5 a 1,1 0 0 0 0.366,-1.366 l -2,-3.4641 a 1,1 0 0 0 -0.867,-0.5 z"
         id="path8" />
      <path
         d="m 15,38.5 v 3 h -2 v -3 h 2 m 1,-2 h -4 a 1,1 0 0 0 -1,1 v 5 a 1,1 0 0 0 1,1 h 4 a 1,1 0 0 0 1,-1 v -5 a 1,1 0 0 0 -1,-1 z"
         id="path10" />
    </g>
  </g>
  <g
     id="line"
     transform="translate(-8,-15)">
    <g
       id="g39">
      <path
         fill="none"
         stroke="#000"
         stroke-linejoin="round"
         stroke-width="2"
         d="m 33.5,22 v -2 a 1,1 0 0 1 1,-1 h 3 a 1,1 0 0 1 1,1 v 2 h 3 V 18.2 A 2.2,2.2 0 0 0 39.3,16 h -6.6 a 2.2,2.2 0 0 0 -2.2,2.2 V 22 Z"
         id="path15" />
      <path
         fill="none"
         stroke="#000"
         stroke-miterlimit="10"
         stroke-width="2"
         d="m 53,56 h 7 a 3,3 0 0 0 3,-3 V 25 a 3,3 0 0 0 -3,-3 h -7"
         id="path17" />
      <path
         fill="none"
         stroke="#000"
         stroke-miterlimit="10"
         stroke-width="2"
         d="m 19,22 h -7 a 3,3 0 0 0 -3,3 v 28 a 3,3 0 0 0 3,3 h 7"
         id="path19" />
      <polyline
         fill="none"
         stroke="#000"
         stroke-linecap="round"
         stroke-linejoin="round"
         stroke-width="2"
         points="40.067 40.75 38.335 39.75 40.335 36.286 43.366 38.036"
         id="polyline21" />
      <path
         fill="none"
         stroke="#000"
         stroke-linecap="round"
         stroke-miterlimit="10"
         stroke-width="2"
         d="m 31.5,32 a 2,2 0 1 1 -2,-3.4635"
         id="path23" />
      <path
         fill="none"
         stroke="#000"
         stroke-linecap="round"
         stroke-miterlimit="10"
         stroke-width="2"
         d="m 57.5,41.5365 a 2,2 0 1 1 2,3.4641"
         id="path25" />
      <polyline
         fill="none"
         stroke="#000"
         stroke-linecap="round"
         stroke-linejoin="round"
         stroke-width="2"
         points="31.067 47.786 29.335 48.786 31.335 52.25 34.366 50.5"
         id="polyline27" />
      <polyline
         fill="none"
         stroke="#000"
         stroke-linecap="round"
         stroke-linejoin="round"
         stroke-width="2"
         points="12 39.5 12 37.5 16 37.5 16 41"
         id="polyline29" />
      <rect
         x="19"
         y="20"
         rx="1"
         width="4"
         height="38"
         fill="none"
         stroke="#000"
         stroke-miterlimit="10"
         stroke-width="2"
         id="rect31" />
      <rect
         x="49"
         y="20"
         rx="1"
         width="4"
         height="38"
         fill="none"
         stroke="#000"
         stroke-miterlimit="10"
         stroke-width="2"
         id="rect33" />
      <line
         x1="23"
         x2="49"
         y1="22"
         y2="22"
         fill="none"
         stroke="#000"
         stroke-miterlimit="10"
         stroke-width="2"
         id="line35" />
      <line
         x1="49"
         x2="23"
         y1="56"
         y2="56"
         fill="none"
         stroke="#000"
         stroke-miterlimit="10"
         stroke-width="2"
         id="line37" />
    </g>
  </g>
</g></svg>