<svg xmlns="http://www.w3.org/2000/svg" width="24" height="24" viewBox="0 0 24 24"> <g transform="translate(0.0 4.357173403812665) scale(0.5503904469830898)">
  
  <g
     id="line"
     transform="translate(-15.003645,-22.7457)">
    <g
       id="g12">
      <path
         fill="none"
         stroke="#000"
         stroke-miterlimit="10"
         stroke-width="2"
         d="m 53.1156,49.0408 a 5.4454,5.4454 0 0 1 -3.0172,0.42 C 48.354,49.2959 40.8484,47.7141 37.1224,47.668 33.3964,47.6219 26.7285,49.164 25.2,49.1553 a 33.5944,33.5944 0 0 1 -6.276,-0.5534"
         id="path2" />
      <path
         fill="none"
         stroke="#000"
         stroke-miterlimit="10"
         stroke-width="2"
         d="m 20.225,24.101 a 23.1805,23.1805 0 0 1 3.9214,-0.3553 c 1.7227,0 8.3141,1.2013 12.976,1.1552 a 123.7357,123.7357 0 0 0 12.9938,-0.8262 7.9161,7.9161 0 0 1 3.2613,-0.08"
         id="path4" />
      <path
         fill="none"
         stroke="#000"
         stroke-linecap="round"
         stroke-linejoin="round"
         stroke-width="2"
         d="m 53.3775,23.9945 c 0,0 -2.3711,17.8525 -0.2619,25.0463"
         id="path6" />
      <path
         fill="none"
         stroke="#000"
         stroke-linecap="round"
         stroke-miterlimit="10"
         stroke-width="2"
         d="m 20.3654,24.2858 c 0,0 2.23,19.3253 0.25,23.4284"
         id="path8" />
      <path
         fill="none"
         stroke="#000"
         stroke-miterlimit="10"
         stroke-width="2"
         d="M 19.3643,48.7021 A 2.971,2.971 0 0 1 17.0123,46.868"
         id="path10" />
    </g>
    <path
       fill="none"
       stroke="#000"
       stroke-linecap="round"
       stroke-linejoin="round"
       stroke-width="1.6"
       d="m 26.0669,31.6663 h 4.3449 a 3.4017,3.4017 0 0 1 2.2795,0.8592 3.8063,3.8063 0 0 0 2.574,1.113 c 1.9031,-0.0691 1.7567,-1.8258 7.0268,-1.9722"
       id="path14" />
    <path
       fill="none"
       stroke="#000"
       stroke-linecap="round"
       stroke-linejoin="round"
       stroke-width="1.6"
       d="m 27.736,37.7425 h 5.584 c 0.84,0 2.3659,1.9451 4.4633,2.0925 2.0974,0.1474 4.0724,-2.2282 5.1207,-2.2663 1.9031,-0.0691 0.9149,0.1381 6.185,-0.0083"
       id="path16" />
    <path
       fill="none"
       stroke="#000"
       stroke-miterlimit="10"
       stroke-width="2"
       d="m 17.0777,47.0221 a 5.8667,5.8667 0 0 1 -0.2578,-1.6364 1.9322,1.9322 0 0 1 0.1837,-0.6757 1.6421,1.6421 0 0 0 -0.3692,-1.4576 1.3983,1.3983 0 0 1 -0.2462,-0.8891 2.9824,2.9824 0 0 1 0.5246,-1.6419 1.9279,1.9279 0 0 0 0.2007,-1.7994 5.51,5.51 0 0 0 -0.25,-0.53 c -0.6477,-1.21 -0.2123,-1.6478 0.0258,-2.4034 0.2381,-0.7556 -1.1916,-0.62 -0.5007,-2.1742 q 0.0534,-0.12 0.1014,-0.2352 a 2.5077,2.5077 0 0 0 -0.4316,-2.3747 c -0.1019,-0.1529 -0.0854,-0.4125 0.178,-0.8442 0.1233,-0.2021 0.235,-0.4042 0.3358,-0.6019 0.409,-0.8019 0.5671,-1.4735 -0.0427,-2.1356 -0.2028,-0.22 -0.0033,-0.7955 0.1608,-1.58 0.3292,-1.5747 3.8073,-1.9821 3.8073,-1.9821"
       id="path18" />
    <path
       fill="none"
       stroke="#000"
       stroke-miterlimit="10"
       stroke-width="2"
       d="m 52.7458,49.1465 c 0,0 4.867,-1.1035 4.0471,-3.7689 a 1.93,1.93 0 0 0 -0.1837,-0.6757 1.6421,1.6421 0 0 1 0.3692,-1.4576 1.3983,1.3983 0 0 0 0.2463,-0.8891 2.9832,2.9832 0 0 0 -0.5247,-1.6419 1.9279,1.9279 0 0 1 -0.2008,-1.7994 5.5346,5.5346 0 0 1 0.25,-0.53 c 0.6477,-1.21 0.2124,-1.6477 -0.0258,-2.4034 -0.2382,-0.7557 1.1916,-0.62 0.5008,-2.1741 q -0.0536,-0.12 -0.1015,-0.2352 a 2.508,2.508 0 0 1 0.4316,-2.3747 c 0.1019,-0.1529 0.0854,-0.4125 -0.178,-0.8443 -0.1233,-0.202 -0.235,-0.4041 -0.3358,-0.6018 -0.4089,-0.8019 -0.567,-1.4735 0.0427,-2.1356 0.2028,-0.22 0.0033,-0.7956 -0.1607,-1.58 -0.3293,-1.5747 -3.8984,-2.1018 -3.8984,-2.1018"
       id="path20" />
  </g>
</g></svg>