<svg xmlns="http://www.w3.org/2000/svg" width="24" height="24" viewBox="0 0 24 24"> <g transform="translate(0.0 0.00016563253851131776) scale(0.4000785954400742)">
  
  <g
     id="line"
     transform="translate(-6.0057656,-6.0063782)">
    <ellipse
       cx="35.999699"
       cy="36"
       rx="15.0001"
       ry="15.0004"
       transform="matrix(0.7071,-0.7071,0.7071,0.7071,-14.9118,35.9986)"
       fill="none"
       stroke="#000"
       stroke-linecap="round"
       stroke-linejoin="round"
       stroke-miterlimit="10"
       stroke-width="2"
       id="ellipse2" />
    <path
       fill="none"
       stroke="#000"
       stroke-linecap="round"
       stroke-linejoin="round"
       stroke-miterlimit="10"
       stroke-width="2"
       d="M 51.9287,25.3564 63,23.1421 64.4141,21.728 c 0.7812,-0.7812 0.7812,-2.0478 9e-4,-2.8286 -0.7812,-0.7812 -2.0488,-0.7812 -2.83,0 -0.7803,0.7808 -2.0469,0.7813 -2.8282,0 -0.7802,-0.7807 -0.7802,-2.0473 0,-2.8281 0.7813,-0.7813 0.7813,-2.0479 0,-2.8291 -0.7802,-0.7808 -2.0468,-0.7808 -2.8281,5e-4 -0.7812,0.7807 -2.0469,0.7807 -2.8281,0 -0.7813,-0.7813 -0.7813,-2.0474 0,-2.8281 0.7812,-0.7813 0.7812,-2.0479 0,-2.8292 -0.7813,-0.7807 -2.0469,-0.7807 -2.8281,5e-4 L 48.8584,9 46.6436,20.0708"
       id="path4" />
    <path
       fill="none"
       stroke="#000"
       stroke-linecap="round"
       stroke-linejoin="round"
       stroke-miterlimit="10"
       stroke-width="2"
       d="M 20.0713,46.6426 9,48.8574 7.585,50.2715 c -0.7803,0.7812 -0.7803,2.0478 0,2.8281 0.7812,0.7813 2.0478,0.7813 2.8291,10e-4 0.7812,-0.7813 2.0468,-0.7822 2.8281,-10e-4 0.7812,0.7813 0.7812,2.0469 0,2.8281 -0.7813,0.7813 -0.7813,2.0489 0,2.8282 0.7812,0.7812 2.0469,0.7812 2.8281,0.0019 0.7813,-0.7812 2.0479,-0.7812 2.8281,-0.0019 0.7813,0.7812 0.7813,2.0488 0,2.83 -0.7812,0.7793 -0.7812,2.0469 0,2.8282 0.7813,0.7812 2.0479,0.7812 2.8282,0 L 23.1416,63 25.3574,51.9277"
       id="path6" />
    <ellipse
       cx="36.001202"
       cy="35.958"
       rx="14.9998"
       ry="15.0001"
       transform="matrix(0.7071,-0.7071,0.7071,0.7071,-14.8817,35.9886)"
       fill="none"
       stroke="#000"
       stroke-linecap="round"
       stroke-linejoin="round"
       stroke-miterlimit="10"
       stroke-width="2"
       id="ellipse8" />
  </g>
</g></svg>