<svg xmlns="http://www.w3.org/2000/svg" width="24" height="24" viewBox="0 0 24 24"> <g transform="translate(0.5522900467636376 0.0) scale(0.39580725334603084)">
  
  <g
     id="line"
     transform="translate(-7.7398033,-5.2368382)">
    <path
       fill="none"
       stroke="#000"
       stroke-linecap="round"
       stroke-linejoin="round"
       stroke-miterlimit="10"
       stroke-width="2"
       d="m 10.6323,52.6212 2.3232,-20.3958 c 0,-0.8427 0.1873,-1.5918 1.0708,-2.0703 l 17.1784,-8.7194"
       id="path2" />
    <path
       fill="none"
       stroke="#000"
       stroke-linecap="round"
       stroke-linejoin="round"
       stroke-miterlimit="10"
       stroke-width="2"
       d="m 19.5423,39.4964 0.659,-3.9539 C 20.2682,35 20.8077,34.1916 21.2002,34.0334 l 2.1077,-0.8445"
       id="path4" />
    <polyline
       fill="none"
       stroke="#000"
       stroke-linecap="round"
       stroke-linejoin="round"
       stroke-miterlimit="10"
       stroke-width="2"
       points="26.0625,35.7879 45.9,6.2368 50.2011,9.0841 33.7304,34.1889"
       id="polyline6" />
    <polyline
       fill="none"
       stroke="#000"
       stroke-linecap="round"
       stroke-linejoin="round"
       stroke-miterlimit="10"
       stroke-width="2"
       points="15.5519,56.7748 13.5163,59.5388 8.7396,64.8728 11.4942,58 13.534,54.9614"
       id="polyline8" />
    <path
       fill="none"
       stroke="#000"
       stroke-linecap="round"
       stroke-linejoin="round"
       stroke-miterlimit="10"
       stroke-width="2"
       d="m 43.7044,26.2517 c 0,0 12.6258,6.0141 16.3497,8.7817 6.4166,4.769 5.6531,14.8187 0,20.4719 -4.527,0.4947 -8.1479,2.0335 -18.2172,2.0335"
       id="path10" />
    <path
       fill="none"
       stroke="#000"
       stroke-linecap="round"
       stroke-linejoin="round"
       stroke-width="2"
       d="m 29.078,55.9386 c 0.6067,3.2292 -4.422,4.7876 -5.0939,0.133"
       id="path12" />
    <path
       fill="none"
       stroke="#000"
       stroke-linecap="round"
       stroke-linejoin="round"
       stroke-width="2"
       d="M 34.0112,55.7907 C 34.65,59.0049 29.724,59.9234 29.078,55.9385"
       id="path14" />
    <path
       fill="none"
       stroke="#000"
       stroke-linecap="round"
       stroke-linejoin="round"
       stroke-width="2"
       d="m 39.0495,55.3947 c 0.6599,3.2167 -4.3629,3.6515 -5.0383,0.396"
       id="path16" />
    <line
       x1="39.0495"
       x2="38.456001"
       y1="55.394699"
       y2="52.6134"
       fill="none"
       stroke="#000"
       stroke-linecap="round"
       stroke-linejoin="round"
       stroke-miterlimit="10"
       stroke-width="2"
       id="line18" />
    <line
       x1="34.0112"
       x2="33.009102"
       y1="55.790699"
       y2="51.234402"
       fill="none"
       stroke="#000"
       stroke-linecap="round"
       stroke-linejoin="round"
       stroke-miterlimit="10"
       stroke-width="2"
       id="line20" />
    <line
       x1="29.077999"
       x2="28.4548"
       y1="55.938599"
       y2="52.861698"
       fill="none"
       stroke="#000"
       stroke-linecap="round"
       stroke-linejoin="round"
       stroke-miterlimit="10"
       stroke-width="2"
       id="line22" />
    <line
       x1="23.9842"
       x2="23.8906"
       y1="56.071499"
       y2="55.394699"
       fill="none"
       stroke="#000"
       stroke-linecap="round"
       stroke-linejoin="round"
       stroke-miterlimit="10"
       stroke-width="2"
       id="line24" />
    <path
       fill="none"
       stroke="#000"
       stroke-linecap="round"
       stroke-linejoin="round"
       stroke-miterlimit="10"
       stroke-width="2"
       d="M 56.7973,52.2387 C 43.7496,55.0266 41.837,48.8271 35.5827,47.8866 c -5.087,-1.0545 -10.7889,2.251 -12.7396,3.8613 -4.4436,4.2833 -10.2629,-1.5712 -4.7642,-5.6889 0,0 5.0087,-4.6922 7.2546,-5.7291 2.183,-1.0079 9.5516,-2.1251 9.5516,-2.1251"
       id="path26" />
  </g>
</g></svg>