<svg xmlns="http://www.w3.org/2000/svg" width="24" height="24" viewBox="0 0 24 24"> <g transform="translate(4.421362052801295 0.0) scale(0.3986710897230716)">
  
  <g
     id="line"
     transform="translate(-16.7549,-9.8)">
    <path
       fill="none"
       stroke="#000"
       stroke-linecap="round"
       stroke-miterlimit="10"
       stroke-width="2"
       d="m 53.7744,13.5015 v 39.6213 c 0,1.4948 -1.2156,2.7015 -2.7015,2.7015 H 20.4564 c -1.4948,0 -2.7015,-1.2066 -2.7015,-2.7015 V 13.5015 c 0,-1.4948 1.2067,-2.7015 2.7015,-2.7015 h 30.6165 c 1.4859,0 2.7015,1.2067 2.7015,2.7015 z"
       id="path2" />
    <path
       fill="none"
       stroke="#000"
       stroke-linecap="round"
       stroke-miterlimit="10"
       stroke-width="2"
       d="m 53.7744,13.5015 v 39.6213 c 0,1.4948 -1.2156,2.7015 -2.7015,2.7015 H 20.4564 c -1.4948,0 -2.7015,-1.2066 -2.7015,-2.7015 V 13.5015 c 0,-1.4948 1.2067,-2.7015 2.7015,-2.7015 h 30.6165 c 1.4859,0 2.7015,1.2067 2.7015,2.7015 z"
       id="path4" />
    <path
       fill="none"
       stroke="#000"
       stroke-linecap="round"
       stroke-miterlimit="10"
       stroke-width="2"
       d="m 22.6581,29.6527 c -0.7899,-0.0422 -1.4133,-0.6285 -1.4133,-1.3485 v -6.0791 h 28.7994 v 6.0791 c 0,0.7475 -0.6721,1.3509 -1.5047,1.3509"
       id="path6" />
    <path
       fill="none"
       stroke="#000"
       stroke-linecap="round"
       stroke-miterlimit="10"
       stroke-width="2"
       d="M 50.0643,19.1408 V 23.183 H 21.2649 v -4.0422 c 0,-0.8946 0.6721,-1.6169 1.5047,-1.6169 h 25.7901 c 0.8325,0 1.5046,0.7222 1.5046,1.6169 z"
       id="path8" />
    <path
       fill="none"
       stroke="#000"
       stroke-linecap="round"
       stroke-miterlimit="10"
       stroke-width="2"
       d="M 50.0643,19.1408 V 23.183 H 21.2649 v -4.0422 c 0,-0.8946 0.6721,-1.6169 1.5047,-1.6169 h 25.7901 c 0.8325,0 1.5046,0.7222 1.5046,1.6169 z"
       id="path10" />
    <polyline
       fill="none"
       stroke="#000"
       stroke-linecap="round"
       stroke-linejoin="round"
       stroke-miterlimit="10"
       stroke-width="2"
       points="30,60.25 30,66 30,69 39,69 41,69 41,60.0625"
       id="polyline12" />
    <path
       fill="none"
       stroke="#000"
       stroke-linecap="round"
       stroke-linejoin="round"
       stroke-miterlimit="10"
       stroke-width="2"
       d="m 34.9306,26.7304 -2.0816,2.2259 c -0.1106,0.1194 -0.2112,0.2388 -0.2917,0.3581 -0.9155,1.2237 -0.9155,2.6464 0.0101,3.8602 0.0804,0.1194 0.1811,0.2388 0.2817,0.3482 l 2.1127,2.2584 7.4748,8.0188 h -13.491 c -0.4427,0 -0.845,-0.0995 -1.1569,-0.2786 -0.3924,-0.2089 -0.6439,-0.5372 -0.6439,-0.8954 L 27,26.5938"
       id="path14" />
    <path
       fill="none"
       stroke="#000"
       stroke-linecap="round"
       stroke-linejoin="round"
       stroke-miterlimit="10"
       stroke-width="2"
       d="m 43,26.8372 v 16.1072 c 0,0.2885 -0.1811,0.577 -0.4628,0.7859 -0.0301,0.0199 -0.0704,0.0497 -0.1006,0.0696 l -7.4748,-8.0188 -2.1127,-2.2584 c -0.1006,-0.1094 -0.2012,-0.2288 -0.2817,-0.3482 -0.9256,-1.2138 -0.9256,-2.6365 -0.0101,-3.8602 0.0805,-0.1194 0.1811,-0.2388 0.2917,-0.3581 l 2.1026,-2.2484 0.0414,-0.0445"
       id="path16" />
  </g>
</g></svg>