<svg xmlns="http://www.w3.org/2000/svg" width="24" height="24" viewBox="0 0 24 24"> <g transform="translate(0.0 0.03363637989801305) scale(0.5400094704160874)">
  
  <g
     id="line"
     transform="translate(-12.578635,-14.813736)">
    <g
       id="g28">
      <path
         fill="none"
         stroke="#000"
         stroke-linecap="round"
         stroke-miterlimit="10"
         stroke-width="2"
         d="m 40.9145,41.4186 c 0.2106,0.6232 1.7517,4.7609 1.8826,5.1157 a 2.291,2.291 0 0 1 0.1394,0.8982 c -0.2637,5.4982 -1.66,6.9861 -2.0154,7.2784 -0.0225,0.0166 0.0218,-0.0175 0,0"
         id="path2" />
      <path
         fill="none"
         stroke="#000"
         stroke-linecap="round"
         stroke-miterlimit="10"
         stroke-width="2"
         d="M 43.1465,57.53 C 47.02,54.076 46.69,44.3538 46.69,44.3538"
         id="path4" />
      <path
         fill="none"
         stroke="#000"
         stroke-miterlimit="10"
         stroke-width="2"
         d="m 40.9211,54.7109 a 2.2219,2.2219 0 0 0 -0.7423,1.2974 1.875,1.875 0 0 0 1.6811,1.996 1.7151,1.7151 0 0 0 1.4564,-0.6287 l 0.0022,0.0022"
         id="path6" />
      <path
         fill="none"
         stroke="#000"
         stroke-miterlimit="10"
         stroke-width="2"
         d="m 29.1744,46.33 0.8961,2.64 c 1.1916,3.3886 0.69,4.9746 0.1641,5.6835 l -0.6091,0.529 a 1.8273,1.8273 0 0 0 -0.3085,1.8852 1.999,1.999 0 0 0 2.6855,0.8465 2.22,2.22 0 0 0 1.1966,-1.2529 v 0 c 0.0019,-0.0089 0.0079,-0.0189 0.01,-0.028 a 1.8017,1.8017 0 0 0 0.1025,-0.6732 69.3455,69.3455 0 0 0 0.1614,-7.3127 10.1111,10.1111 0 0 0 -0.112,-2.3048 9.876,9.876 0 0 0 -0.96,-2.9863"
         id="path8" />
      <g
         id="g26">
        <path
           fill="none"
           stroke="#000"
           stroke-linecap="round"
           stroke-miterlimit="10"
           stroke-width="2"
           d="m 18.5614,47.6026 a 3.5056,3.5056 0 0 0 0.204,2.5083 1.8926,1.8926 0 0 0 2.4356,1.0839 c 0.8852,-0.4055 0.8639,-1.798 0.56,-2.8257"
           id="path10" />
        <path
           fill="none"
           stroke="#000"
           stroke-linecap="round"
           stroke-miterlimit="10"
           stroke-width="2"
           d="m 21.7158,48.219 a 4.5851,4.5851 0 0 1 3.7093,-1.6119 1.9942,1.9942 0 0 1 0.548,0.0831 3.0274,3.0274 0 0 0 3.67,-1.3744"
           id="path12" />
        <g
           id="g18">
          <path
             fill="none"
             stroke="#000"
             stroke-linecap="round"
             stroke-miterlimit="10"
             stroke-width="2"
             d="m 53.5147,32.9083 -0.2959,5.6328 c 0,0 -0.2094,3.6923 0.8078,4.5411 a 7.0926,7.0926 0 0 1 1.2718,4.7533 c 0,0 0.5363,5.7575 0.6973,7.9907"
             id="path14" />
          <path
             fill="none"
             stroke="#000"
             stroke-linecap="round"
             stroke-miterlimit="10"
             stroke-width="2"
             d="m 48.5415,23.6767 c 2.5433,-6.4561 5.1809,-3.19 5.1809,-3.19 3.1773,3.94 -0.9928,6.3629 -2.8305,7.1889 a 1.7628,1.7628 0 0 1 -1.39,-0.02 c -2.5616,-1.029 -8.8257,0.179 -8.8257,0.179 A 16.0761,16.0761 0 0 1 34.2799,27.3654 Q 34.1482,27.3231 34.0233,27.2788 A 7.0346,7.0346 0 0 1 32.3186,26.422 3.5332,3.5332 0 0 1 31.198,25.2787 48.8236,48.8236 0 0 1 28.1336,18.0509 1.842,1.842 0 0 0 27.0857,16.8883 20.7191,20.7191 0 0 0 21.9328,15.8537 c -3.1365,-0.3594 -3.5144,1.6507 -3.5144,1.6507 -0.532,1.369 -1.4378,1.3243 -1.4378,1.3243 l -1.8637,0.0069 c -2.3111,0.1288 -1.3312,2.5027 -1.3312,2.5027 -0.5857,3.0884 3.0884,3.7274 3.0884,3.7274 a 4.77,4.77 0 0 1 3.195,1.3312 18.1376,18.1376 0 0 1 2.9286,7.8276 c 0.213,3.6741 1.7347,4.9613 1.7347,4.9613 2.8549,2.7709 0,3.8205 0,3.8205 -4.2084,1.5247 -5.75,3.2313 -6.1435,4.606"
             id="path16" />
        </g>
        <path
           fill="none"
           stroke="#000"
           stroke-linecap="round"
           stroke-miterlimit="10"
           stroke-width="2"
           d="m 55.9957,55.8263 c 0.1855,1.6659 -0.9823,2.0907 -2.0845,2.0184 a 1.8927,1.8927 0 0 1 -1.88,-1.89 9.1145,9.1145 0 0 1 0.3382,-1.4583"
           id="path20" />
        <path
           fill="none"
           stroke="#000"
           stroke-linecap="round"
           stroke-miterlimit="10"
           stroke-width="2"
           d="m 55.9957,55.8263 c 0.0105,0.1455 0.02,0.2771 0.0266,0.39"
           id="path22" />
        <path
           fill="none"
           stroke="#000"
           stroke-linecap="round"
           stroke-miterlimit="10"
           stroke-width="2"
           d="m 52.22,55.11 c 0.3731,-1.2449 1.0885,-4.4928 -0.6281,-7.0155 a 1.7263,1.7263 0 0 0 -0.481,-0.4666 c -1.13,-0.7421 -5.4176,-3.6535 -7.3255,-6.34 a 1.5244,1.5244 0 0 0 -1.12,-0.623 c -2.4893,-0.218 -10.3347,-0.4413 -13.209,4.9821"
           id="path24" />
      </g>
    </g>
  </g>
</g></svg>