<svg xmlns="http://www.w3.org/2000/svg" width="24" height="24" viewBox="0 0 24 24"> <g transform="translate(0.0 0.15677383124208255) scale(0.3956841803189524)">
  
  <g
     id="line"
     transform="translate(-5.5912045,-2.2355127)">
    <path
       fill="none"
       stroke="#000"
       stroke-linecap="round"
       stroke-linejoin="round"
       stroke-miterlimit="10"
       stroke-width="2"
       d="m 39.4,17.6598 c -0.68,-2.34 -0.98,-4.83 -0.3,-7.02 0.39,-1.24 1.1,-2.5 2.31,-3.14 1.36,-0.72 3.45,-0.16 2.96,1.75 -0.09,0.37 -0.42,0.56 -0.62,0.86 -0.89,1.39 0.35,2.32 1.66,1.99 1.64,-0.42 2.4,-1.63 2.46,-3.03 0.01,0.02 0.02,0.04 0.03,0.06 0,-0.09 -0.02,-0.18 -0.02,-0.27 0,-0.17 -0.02,-0.34 -0.04,-0.51 -0.01,-0.09 -0.02,-0.18 -0.03,-0.27 -0.06,-0.33 -0.14,-0.66 -0.27,-0.99 -1.45,-3.74 -5.96,-4.92 -9.27,-2.86 -2.54,1.58 -3.97,4.47 -4.87,7.23 -0.66,2.01 -1.11,4.13 -1.36,6.26"
       id="path2" />
    <path
       fill="none"
       stroke="#000"
       stroke-linecap="round"
       stroke-linejoin="round"
       stroke-miterlimit="10"
       stroke-width="2"
       d="M 7.1349,33.9318 C 7.0827,34.1667 7.0379,34.4027 6.9931,34.6387 6.9778,34.7192 6.9593,34.7992 6.9449,34.8798 6.8944,35.1625 6.8511,35.446 6.8115,35.7295 6.8067,35.7638 6.8,35.798 6.7954,35.8323 c -0.2982,2.2099 -0.2669,4.4514 0.0752,6.6451 0.1711,1.0981 0.4145,2.1852 0.7446,3.2487 0.4537,1.4606 1.0535,2.8831 1.7787,4.2331 0.6437,1.1984 1.3849,2.3402 2.2296,3.3903 0.0826,0.1027 0.172,0.1989 0.2564,0.2999 0.1779,0.2126 0.354,0.4269 0.54,0.6316 8e-4,9e-4 0.0015,0.0016 0.0023,0.0024 0.2498,0.2747 0.4976,0.5352 0.7441,0.787 0.0821,0.0839 0.1634,0.1624 0.2451,0.2438 0.1662,0.1655 0.332,0.3282 0.4965,0.4839 0.0928,0.0877 0.1849,0.1724 0.2772,0.257 0.1531,0.1404 0.3054,0.2768 0.457,0.4089 0.0933,0.0813 0.1864,0.1623 0.2791,0.2404 0.1564,0.1319 0.3114,0.2576 0.4661,0.3809 0.0822,0.0656 0.1649,0.1335 0.2466,0.1966 0.2064,0.1595 0.4111,0.3112 0.6141,0.4559 0.027,0.0192 0.0544,0.0409 0.0814,0.0599 0.228,0.1606 0.4532,0.3104 0.6767,0.4533 0.0776,0.0496 0.1539,0.0947 0.2309,0.1422 0.1476,0.0911 0.2947,0.1804 0.4402,0.264 0.088,0.0506 0.175,0.0985 0.2622,0.1464 0.134,0.0737 0.267,0.1446 0.399,0.2122 0.0873,0.0447 0.1744,0.0889 0.2608,0.131 0.1346,0.0656 0.2678,0.127 0.4003,0.1865 0.0782,0.0352 0.1569,0.0719 0.2343,0.105 0.1667,0.0712 0.3314,0.1367 0.4946,0.1988 0.0399,0.0152 0.0807,0.0329 0.1204,0.0475 0.1994,0.0737 0.3956,0.1396 0.5893,0.2003 0.0682,0.0214 0.1348,0.0394 0.2023,0.0592 0.1281,0.0377 0.2554,0.0742 0.3807,0.1066 0.0764,0.0197 0.1516,0.0375 0.2271,0.0553 0.1152,0.0272 0.2293,0.0527 0.3422,0.0757 0.0745,0.0152 0.1486,0.03 0.222,0.0433 0.1151,0.021 0.2283,0.0392 0.3408,0.0561 0.0652,0.0098 0.1309,0.0206 0.1952,0.0291 0.1386,0.0182 0.2744,0.0324 0.4088,0.0447 0.035,0.0032 0.0712,0.0081 0.1058,0.0109 0.1666,0.0135 0.3292,0.0222 0.4889,0.0273 0.0511,0.0016 0.1004,0.0013 0.1509,0.0021 0.1099,0.0019 0.2186,0.0028 0.3249,0.0012 0.0574,-9e-4 0.1133,-0.0029 0.1696,-0.0048 0.0979,-0.0033 0.1943,-0.0076 0.289,-0.0136 0.0543,-0.0034 0.1082,-0.0071 0.1614,-0.0114 0.0968,-0.0078 0.1912,-0.0172 0.2844,-0.0275 0.0449,-0.0049 0.0905,-0.0094 0.1345,-0.015 0.1152,-0.0145 0.2272,-0.0309 0.3365,-0.0487 0.0187,-0.0031 0.0386,-0.0054 0.0571,-0.0086 0.1292,-0.0219 0.2535,-0.046 0.374,-0.0716 0.0272,-0.0058 0.0524,-0.0122 0.0792,-0.0181 0.0919,-0.0204 0.1817,-0.0415 0.2682,-0.0636 0.0338,-0.0087 0.0663,-0.0175 0.0993,-0.0264 0.0779,-0.0209 0.1536,-0.0421 0.2269,-0.064 0.0297,-0.0089 0.0588,-0.0175 0.0876,-0.0265 0.0767,-0.0237 0.1502,-0.0477 0.2213,-0.0719 0.0204,-0.007 0.0414,-0.0137 0.0614,-0.0208 0.1843,-0.0645 0.3488,-0.129 0.4916,-0.1904 0.0011,-5e-4 0.002,-9e-4 0.0031,-0.0014 0.053,-0.0228 0.1045,-0.0453 0.1515,-0.0669 -3e-4,-2e-4 -7e-4,-5e-4 -0.001,-7e-4 0.3434,-0.1577 0.5293,-0.278 0.5293,-0.278 1.4545,1.4635 7.593,1.7152 8.0081,1.7307 0.0152,5e-4 0.0291,5e-4 0.0443,0 0.415,-0.0154 6.5535,-0.2672 8.0081,-1.7307 0,0 6.7755,4.4366 15.4329,-5.0859 6.9675,-7.0443 7.8211,-20.5231 1.9964,-28.6674 -0.5488,-0.7675 -1.1569,-1.4874 -1.8248,-2.1503 -1.051,-1.0431 -2.222,-1.9655 -3.4933,-2.7019 -3.5964,-2.0837 -7.7466,-2.3765 -11.6092,-0.8917 0,0 -2.0076,-2.4888 -8.532,-2.4888 -6.5244,0 -8.532,2.4888 -8.532,2.4888 -0.1086,-0.0417 -0.2155,-0.0732 -0.3237,-0.1121"
       id="path4" />
    <path
       fill="none"
       stroke="#000"
       stroke-linecap="round"
       stroke-linejoin="round"
       stroke-miterlimit="10"
       stroke-width="2"
       d="M 27.0273,19.7574 C 27.0308,19.7558 27.034,19.7537 27.0375,19.7521 26.9129,19.7072 26.79,19.6734 26.666,19.6323 26.5166,19.5827 26.3671,19.5321 26.2186,19.488 26.0418,19.4355 25.8664,19.3905 25.6909,19.3455 25.5418,19.3073 25.3926,19.2679 25.2445,19.2351 25.0718,19.1968 24.9005,19.1659 24.7291,19.1348 24.5808,19.1079 24.4322,19.0796 24.2849,19.0581 24.116,19.0334 23.9488,19.0159 23.7814,18.998 c -0.1472,-0.0157 -0.2947,-0.0329 -0.4409,-0.0434 -0.1648,-0.0119 -0.3279,-0.0167 -0.4912,-0.022 -0.1456,-0.0048 -0.2914,-0.011 -0.4358,-0.0107 -0.1622,4e-4 -0.3224,0.0078 -0.483,0.0145 -0.1425,0.006 -0.2852,0.0103 -0.4263,0.0211 -0.1594,0.0123 -0.317,0.0314 -0.4747,0.0498 -0.1393,0.0162 -0.2791,0.0308 -0.4171,0.0517 -0.1565,0.0237 -0.3108,0.0543 -0.4655,0.0839 -0.136,0.0261 -0.2724,0.0503 -0.4069,0.0808 -0.1541,0.035 -0.3059,0.0767 -0.4581,0.1175 -0.1318,0.0353 -0.2641,0.0686 -0.3945,0.1082 -0.1519,0.0461 -0.3011,0.0988 -0.451,0.1504 -0.1271,0.0438 -0.2549,0.0856 -0.3805,0.1334 -0.1497,0.0569 -0.2968,0.1205 -0.4443,0.183 -0.1223,0.0518 -0.2452,0.1014 -0.3659,0.1569 -0.1479,0.0679 -0.2928,0.1423 -0.4384,0.2157 -0.1165,0.0587 -0.2339,0.1152 -0.3488,0.1773 -0.1458,0.0788 -0.2886,0.1639 -0.4318,0.248 -0.1111,0.0652 -0.2231,0.1281 -0.3327,0.1964 -0.1434,0.0894 -0.2835,0.1851 -0.4242,0.2797 -0.1055,0.0709 -0.2121,0.1396 -0.316,0.2134 -0.1414,0.1003 -0.2792,0.2067 -0.4177,0.3123 -0.0989,0.0754 -0.1992,0.1484 -0.2966,0.2263 -0.1387,0.1109 -0.2736,0.2277 -0.4092,0.3436 -0.0936,0.08 -0.1886,0.1577 -0.2807,0.24 -0.135,0.1207 -0.2662,0.2471 -0.3979,0.3727 -0.088,0.0839 -0.1776,0.1655 -0.2642,0.2515 -0.1327,0.1318 -0.2612,0.269 -0.3904,0.4057 -0.0812,0.0858 -0.1639,0.1693 -0.2437,0.257 -0.1293,0.1422 -0.2543,0.2896 -0.3798,0.4365 -0.0754,0.0881 -0.1525,0.1739 -0.2264,0.2637"
       id="path6" />
    <path
       fill="none"
       stroke="#000"
       stroke-linecap="round"
       stroke-linejoin="round"
       stroke-miterlimit="10"
       stroke-width="2"
       d="m 20,48 c 0,0 15,10 32,0 0,0 -16,20 -32,0 z"
       id="path8" />
    <polygon
       fill="none"
       stroke="#000"
       stroke-linecap="round"
       stroke-linejoin="round"
       stroke-miterlimit="10"
       stroke-width="2"
       points="32.4734,42 35.896,42 39.3187,42 37.6073,44.9641 35.896,47.9282 34.1847,44.9641 "
       id="polygon10" />
    <path
       fill="none"
       stroke="#000"
       stroke-linecap="round"
       stroke-linejoin="round"
       stroke-miterlimit="10"
       stroke-width="2"
       d="m 48.974,37.8449 c 2.5901,-0.9575 3.9136,-3.8335 2.956,-6.4235 l -9.3796,3.4675 c 0.9576,2.5901 3.8335,3.9135 6.4236,2.956 z"
       id="path12" />
    <path
       fill="none"
       stroke="#000"
       stroke-linecap="round"
       stroke-linejoin="round"
       stroke-miterlimit="10"
       stroke-width="2"
       d="m 22.818,37.8449 c -2.5901,-0.9575 -3.9136,-3.8335 -2.956,-6.4235 l 9.3796,3.4675 c -0.9575,2.5901 -3.8335,3.9135 -6.4236,2.956 z"
       id="path14" />
  </g>
</g></svg>