<svg xmlns="http://www.w3.org/2000/svg" width="24" height="24" viewBox="0 0 24 24"> <g transform="translate(-1.7763568394002505e-15 1.120970815331475) scale(0.5349100222279631)">
  
  <g
     id="line"
     transform="translate(-13.563264,-17.638412)">
    <path
       fill="none"
       stroke="#000"
       stroke-linecap="round"
       stroke-linejoin="round"
       stroke-width="2"
       d="m 41.94,37.24 v 7.074 c -0.3346,2.512 1.428,4.82 3.936,5.156 2.509,0.3352 4.813,-1.43 5.148,-3.942 0.0536,-0.4028 0.0536,-0.8107 0,-1.213 l -5.19e-4,-20.48 c 0.3346,-2.512 -1.428,-4.82 -3.936,-5.156 -2.508,-0.336 -4.813,1.43 -5.148,3.942 v 1.301 c 0.3346,-2.512 -1.428,-4.82 -3.936,-5.156 -2.508,-0.336 -4.813,1.43 -5.148,3.942 v 2.427 c 0.3346,-2.512 -1.428,-4.82 -3.936,-5.156 -2.508,-0.336 -4.813,1.43 -5.148,3.942 -0.02619,0.8746 -0.02488,1.613 -0.08098,2.513 0.3346,-2.512 -1.428,-4.82 -3.936,-5.156 -2.508,-0.336 -4.813,1.43 -5.148,3.942 -0.0536,0.4028 -0.0536,0.8107 -0.02011,1.214 l 0.02064,11.19 c -0.3346,2.512 1.428,4.82 3.936,5.156 2.509,0.3352 4.813,-1.43 5.148,-3.942 0.0536,-0.4028 0.0536,-0.8107 0,-1.213 v -1.341 l 0.04022,-3.517 -0.04023,11.27 c -0.3346,2.512 1.428,4.82 3.936,5.156 2.508,0.336 4.813,-1.43 5.148,-3.942 0.0536,-0.4028 0.0536,-3.548 0,-3.951 v -5.012 l -0.04075,-4.248 0.04075,14.6 c -0.3346,2.512 1.428,4.82 3.936,5.156 2.508,0.336 4.813,-1.43 5.148,-3.942 0.0536,-0.4028 0.0536,-0.8107 0,-1.213 l 0.08046,-15.82 z"
       id="path2" />
    <path
       fill="none"
       stroke="#000"
       stroke-linecap="round"
       stroke-linejoin="round"
       stroke-width="2"
       d="m 57.43,52.08 c -0.2117,2.896 -2.598,5.149 -5.497,5.19 h -12.98"
       id="path4" />
    <line
       x1="57.43"
       x2="57.43"
       y1="52.080002"
       y2="33.52"
       fill="none"
       stroke="#000"
       stroke-linecap="round"
       stroke-linejoin="round"
       stroke-width="2"
       id="line6" />
    <path
       fill="none"
       stroke="#000"
       stroke-linecap="round"
       stroke-linejoin="round"
       stroke-miterlimit="10"
       stroke-width="2"
       d="m 38.95,57.27 c -2.625,0 -7.445,0.6149 -7.445,-3.105"
       id="path8" />
    <path
       fill="none"
       stroke="#000"
       stroke-linecap="round"
       stroke-linejoin="round"
       stroke-miterlimit="10"
       stroke-width="2"
       d="m 57.43,33.52 c 0,-1.938 0,-4.201 -2.049,-4.201"
       id="path10" />
  </g>
</g></svg>