<svg xmlns="http://www.w3.org/2000/svg" width="24" height="24" viewBox="0 0 24 24"> <g transform="translate(2.0934435250394525 0.0) scale(0.4756898598044863)">
  
  <g
     id="line"
     transform="translate(-15.174404,-11.394958)">
    <path
       fill="none"
       stroke="#000"
       stroke-linecap="round"
       stroke-linejoin="round"
       stroke-width="2"
       d="m 48.0235,56.664 -0.069,-4.944 c 0,-1.45 1.649,-3.035 2.58,-4.1 3.4344,-3.9474 5.3151,-9.0097 5.291,-14.242 0,-11.6 -8.894,-21.006 -19.856,-20.983 -1.3183,0.0041 -2.6329,0.1405 -3.924,0.407 -7.89,1.618 -14.177,8.457 -15.548,16.842 -1.1269,6.4665 0.7263,13.0961 5.043,18.041 0.917,1.037 2.382,2.62 2.382,4.04 l -0.022,4.983"
       id="path2" />
    <line
       x1="27.8645"
       x2="27.8645"
       y1="55.001999"
       y2="59.782001"
       fill="none"
       stroke="#000"
       stroke-linecap="round"
       stroke-linejoin="round"
       stroke-width="2"
       id="line4" />
    <line
       x1="33.578499"
       x2="33.578499"
       y1="56.067001"
       y2="60.848"
       fill="none"
       stroke="#000"
       stroke-linecap="round"
       stroke-linejoin="round"
       stroke-width="2"
       id="line6" />
    <line
       x1="44.212502"
       x2="44.212502"
       y1="55.001999"
       y2="59.782001"
       fill="none"
       stroke="#000"
       stroke-linecap="round"
       stroke-linejoin="round"
       stroke-width="2"
       id="line8" />
    <line
       x1="39.0275"
       x2="39.0275"
       y1="56.067001"
       y2="60.848"
       fill="none"
       stroke="#000"
       stroke-linecap="round"
       stroke-linejoin="round"
       stroke-width="2"
       id="line10" />
    <polyline
       fill="none"
       stroke="#000"
       stroke-linecap="round"
       stroke-linejoin="round"
       stroke-width="2"
       points="33.0365,52.209 35.9685,46.36 39.4735,52.209"
       id="polyline12" />
    <circle
       cx="27.8645"
       cy="40.817001"
       r="5"
       fill="none"
       stroke="#000"
       stroke-miterlimit="10"
       stroke-width="2"
       id="circle14" />
    <circle
       cx="44.212502"
       cy="40.817001"
       r="5"
       fill="none"
       stroke="#000"
       stroke-miterlimit="10"
       stroke-width="2"
       id="circle16" />
  </g>
</g></svg>