<svg xmlns="http://www.w3.org/2000/svg" width="24" height="24" viewBox="0 0 24 24"> <g transform="translate(7.098854371398773 0.0) scale(0.38096769827269406)">
  
  <g
     id="line"
     transform="translate(-21.3336,-5.0025382)">
    <path
       d="m 40.5948,68 h -0.14 c -0.5427,-0.0823 -0.9176,-0.5866 -0.84,-1.13 l 0.46,-3.2 c 0.0086,-0.1052 0.0392,-0.2074 0.09,-0.3 l 4.59,-9.29 c 0.4732,-1.3052 0.4048,-2.7455 -0.19,-4 l -2.85,-6 c -0.6293,-1.3228 -0.7606,-2.8282 -0.37,-4.24 1.0113,-3.4152 1.8161,-6.8881 2.41,-10.4 0,-1 -1.61,-2.66 -2.79,-3.48 l -0.14,-0.12 c -0.6196,-0.5155 -1.4479,-0.7049 -2.23,-0.51 -1.65,0.35 -5,2.48 -9.16,12.74 -0.0557,0.137 -0.1411,0.26 -0.25,0.36 l -2.25,2.07 c -1.1155,0.998 -2.0258,2.2038 -2.68,3.55 -0.3204,0.6881 -0.5652,1.409 -0.73,2.15 -0.2761,1.1368 -0.2761,2.3232 0,3.46 0.4599,1.5502 1.4982,2.8641 2.9,3.67 1.446,0.8742 3.0439,1.4679 4.71,1.75 0.5463,0.0726 0.9309,0.5735 0.86,1.12 -0.0775,0.5423 -0.5769,0.9212 -1.12,0.85 -1.9526,-0.3013 -3.8276,-0.9807 -5.52,-2 -1.8198,-1.0686 -3.1616,-2.7933 -3.75,-4.82 -0.3616,-1.4511 -0.3616,-2.9689 0,-4.42 0.1889,-0.8844 0.4809,-1.7436 0.87,-2.56 0.7478,-1.607 1.8046,-3.0511 3.11,-4.25 l 2.08,-1.91 c 3.41,-8.41 7,-13 10.6,-13.75 1.3848,-0.2913 2.8262,0.0783 3.9,1 0.59,0.42 3.67,2.72 3.58,5.16 -0.06,1.72 -1.7,8 -2.48,10.82 -0.2643,0.949 -0.1755,1.9616 0.25,2.85 l 2.85,6 c 0.8522,1.7935 0.9282,3.8588 0.21,5.71 l -4.55,9.22 -0.44,3.06 c -0.0787,0.4853 -0.4984,0.8414 -0.99,0.84 z"
       id="path2" />
    <path
       d="m 31.6248,68 c -0.5523,0 -1,-0.4477 -1,-1 l -0.31,-7.69 c -7e-4,-0.5333 0.4173,-0.9733 0.95,-1 0.5523,0 1,0.4477 1,1 l 0.36,7.69 c 0,0.5523 -0.4477,1 -1,1 z"
       id="path4" />
    <path
       fill="none"
       stroke="#000"
       stroke-linecap="round"
       stroke-linejoin="round"
       stroke-width="2"
       d="m 37.2548,21 c -3.06,0.59 -6.34,-1.59 -7.56,-5.17 -0.8919,-2.4129 -0.5165,-5.1121 1,-7.19 0.6396,-0.8445 1.5173,-1.4783 2.52,-1.82"
       id="path6" />
    <path
       fill="none"
       stroke="#000"
       stroke-linecap="round"
       stroke-linejoin="round"
       stroke-width="2"
       d="m 30.6448,8.65 v 0 c 0,0.35 0.62,6.84 9.94,5"
       id="path8" />
    <path
       fill="none"
       stroke="#000"
       stroke-linecap="round"
       stroke-linejoin="round"
       stroke-width="2"
       d="m 33.1648,6.84 c 0,0 8.07,-3.56 11.27,4 1.75,4.46 1.06,7.34 0.39,8.46 -0.6233,0.9691 -1.7863,1.4446 -2.91,1.19 -0.8306,-0.1804 -1.4199,-0.9201 -1.41,-1.77 l 0.09,-5 v 0"
       id="path10" />
    <path
       d="m 29.6148,50.81 c -0.7893,-0.0012 -1.5777,-0.0546 -2.36,-0.16 -0.5523,-0.0746 -0.9396,-0.5827 -0.865,-1.135 0.0746,-0.5523 0.5827,-0.9396 1.135,-0.865 5.73,0.79 7.18,-1.45 8.73,-4.65 2.31,-5.72 1.92,-13.35 1.91,-13.43 -10e-4,-0.5297 0.4113,-0.9682 0.94,-1 0.5488,-0.0284 1.0178,0.3914 1.05,0.94 0,0.32 0.42,8.15 -2.07,14.32 -1.54,3.17 -3.34,5.98 -8.47,5.98 z"
       id="path12" />
  </g>
</g></svg>