<svg xmlns="http://www.w3.org/2000/svg" width="24" height="24" viewBox="0 0 24 24"> <g transform="translate(2.547016115022334 0.0) scale(0.4711133881591539)">
  
  <g
     id="line"
     transform="translate(-15.756205,-7.96215)">
    <path
       d="m 42.035,26.8457 c 0,1.1045 -0.8965,2 -2,2 -1.1035,0 -2,-0.8955 -2,-2 0,-1.1035 0.8965,-2 2,-2 1.1035,0 2,0.8965 2,2"
       id="path2" />
    <path
       d="m 34.035,26.8457 c 0,1.1045 -0.8965,2 -2,2 -1.1035,0 -2,-0.8955 -2,-2 0,-1.1035 0.8965,-2 2,-2 1.1035,0 2,0.8965 2,2"
       id="path4" />
    <path
       d="m 36.0349,36.8481 c -1.1518,0 -2.3037,-0.2861 -3.4473,-0.8579 -0.4941,-0.247 -0.6943,-0.8476 -0.4472,-1.3418 0.2466,-0.4936 0.8462,-0.6943 1.3418,-0.4472 1.7177,0.8593 3.3877,0.8593 5.1054,0 0.4947,-0.2471 1.0948,-0.0464 1.3418,0.4472 0.2471,0.4942 0.0469,1.0948 -0.4472,1.3418 -1.1436,0.5718 -2.2954,0.8579 -3.4473,0.8579 z"
       id="path6" />
    <path
       d="m 36.0352,43.3799 c -6.8038,0 -12.3389,-6.8067 -12.3389,-15.1734 0,-0.5522 0.4473,-1 1,-1 0.5527,0 1,0.4478 1,1 0,7.2642 4.6377,13.1734 10.3389,13.1734 5.7002,0 10.3378,-5.9092 10.3378,-13.1734 0,-0.5522 0.4473,-1 1,-1 0.5528,0 1,0.4478 1,1 0,8.3667 -5.5351,15.1734 -12.3378,15.1734 z"
       id="path8" />
    <path
       d="m 36.3535,23.4863 c -4.6972,0 -9.207,-1.5288 -11.6689,-3.9951 -0.2852,-0.2861 -0.3701,-0.7163 -0.2158,-1.0898 0.1552,-0.3731 0.5195,-0.6167 0.9238,-0.6167 h 21.0683 c 0.3897,0 0.7442,0.2265 0.9073,0.58 0.164,0.3536 0.1074,0.7706 -0.1455,1.0674 -2.0313,2.3921 -5.6788,3.8633 -10.0059,4.0371 -0.2881,0.0113 -0.5762,0.0171 -0.8633,0.0171 z m -7.8242,-3.7016 c 2.333,1.1792 5.4336,1.8139 8.6074,1.686 2.5635,-0.103 4.8272,-0.6978 6.5381,-1.686 z"
       id="path10" />
    <path
       d="m 47.8242,23.2305 c -0.2236,0 -0.4492,-0.0752 -0.6357,-0.229 -0.4258,-0.3521 -0.4864,-0.9825 -0.1338,-1.4082 l 2.0371,-2.4644 c 0.5771,-0.6987 0.6885,-1.6465 0.2832,-2.4141 -1.2051,-2.2846 -4.54,-6.1943 -13.3398,-6.7504 -8.7989,0.5561 -12.1348,4.4658 -13.3409,6.7504 -0.4052,0.7671 -0.2939,1.7149 0.2842,2.4141 l 1.8633,2.2549 c 0.3525,0.4258 0.292,1.0561 -0.1338,1.4082 -0.4267,0.353 -1.0557,0.291 -1.4072,-0.1338 l -1.8633,-2.2549 c -1.0947,-1.3242 -1.2949,-3.1382 -0.5127,-4.622 1.4053,-2.6612 5.2285,-7.2159 15.0488,-7.8169 0.041,-0.003 0.0821,-0.003 0.1231,0 9.8222,0.6015 13.6435,5.1557 15.0478,7.8169 0.7832,1.4843 0.5821,3.2983 -0.5117,4.622 l -2.0371,2.4644 c -0.1973,0.2392 -0.4834,0.3628 -0.7715,0.3628 z"
       id="path12" />
    <path
       d="m 25.293,42.4375 c -0.0323,0 -0.0655,-0.002 -0.0987,-0.0049 -6.6201,-0.6484 -8.7402,-3.6064 -8.8281,-3.7324 -0.2012,-0.29 -0.2344,-0.6641 -0.0869,-0.9854 0.1465,-0.3212 0.4521,-0.541 0.8027,-0.5781 l 3.7676,-0.4023 c -1.4463,-2.0137 -2.0791,-4.1758 -1.8828,-6.4483 0.5039,-5.8623 6.377,-10.2607 6.627,-10.4453 0.4443,-0.3271 1.0693,-0.2339 1.3974,0.2105 0.3281,0.4433 0.2344,1.0693 -0.209,1.3979 -0.0537,0.0401 -5.4023,4.0586 -5.8242,9.0156 -0.1904,2.2422 0.6768,4.3868 2.5781,6.3741 0.2637,0.2754 0.3477,0.6767 0.2168,1.0351 -0.1308,0.3574 -0.4541,0.6104 -0.833,0.6504 l -3.1992,0.3418 c 1.1504,0.6318 2.9619,1.3106 5.6689,1.5762 0.5499,0.0537 0.9512,0.543 0.8975,1.0928 -0.0508,0.5166 -0.4853,0.9023 -0.9941,0.9023 z"
       id="path14" />
    <path
       d="m 46.499,42.4375 c -0.5088,0 -0.9433,-0.3857 -0.9941,-0.9023 -0.0537,-0.5498 0.3476,-1.0391 0.8974,-1.0928 2.6993,-0.2647 4.5733,-0.9414 5.7969,-1.5791 L 48.877,38.5254 c -0.3799,-0.0391 -0.7051,-0.291 -0.837,-0.6494 -0.1318,-0.3584 -0.0478,-0.7608 0.2159,-1.0371 1.9033,-1.9893 2.7705,-4.1368 2.5771,-6.3819 -0.4277,-4.9707 -5.7685,-8.9673 -5.8223,-9.0068 -0.4443,-0.3281 -0.539,-0.9541 -0.2109,-1.3984 0.3281,-0.4444 0.9541,-0.5391 1.3984,-0.211 0.25,0.1846 6.1231,4.583 6.627,10.4453 0.1953,2.2686 -0.4346,4.4278 -1.876,6.4395 l 4.0391,0.4101 c 0.3633,0.0372 0.6787,0.2706 0.8203,0.6075 0.1416,0.3379 0.0879,0.7256 -0.1406,1.0117 -0.0987,0.123 -2.4903,3.0322 -9.0703,3.6777 -0.0332,0.0029 -0.0664,0.0049 -0.0987,0.0049 z"
       id="path16" />
    <path
       d="m 23.7432,30.3271 c -0.0684,0 -0.1387,-0.0068 -0.208,-0.0214 -0.5411,-0.1153 -0.8858,-0.6455 -0.7715,-1.1856 0.9521,-4.4922 10.2881,-7.3164 11.3496,-7.6235 0.5312,-0.1533 1.0859,0.1528 1.2383,0.6821 0.1543,0.5303 -0.1514,1.085 -0.6817,1.2388 -3.5644,1.0337 -9.4179,3.6089 -9.9492,6.1167 -0.0996,0.4707 -0.5156,0.7929 -0.9775,0.7929 z"
       id="path18" />
    <path
       d="m 47.3359,28.9634 c -0.2802,0 -0.5595,-0.1177 -0.7578,-0.3472 L 41.3252,22.521 c -0.3604,-0.4185 -0.3135,-1.0498 0.1055,-1.4102 0.417,-0.3613 1.0478,-0.3144 1.4101,0.1045 l 5.253,6.0952 c 0.3603,0.4185 0.3134,1.0499 -0.1055,1.4102 -0.1885,0.1631 -0.4209,0.2427 -0.6524,0.2427 z"
       id="path20" />
    <path
       d="m 39.0352,19.0845 c -0.5528,0 -1,-0.4478 -1,-1 0,-1.1031 -0.8975,-2 -2,-2 -1.1026,0 -2,0.8969 -2,2 0,0.5522 -0.4473,1 -1,1 -0.5528,0 -1,-0.4478 -1,-1 0,-2.2056 1.7939,-4 4,-4 2.206,0 4,1.7944 4,4 0,0.5522 -0.4473,1 -1,1 z"
       id="path22" />
    <path
       d="m 35.6807,54.7666 c -1.4112,0 -2.2159,-0.6455 -2.6426,-1.1865 -1.3828,-1.753 -0.7178,-4.7481 -0.6377,-5.083 0.1289,-0.5371 0.6748,-0.8672 1.2031,-0.7393 0.5371,0.127 0.8692,0.666 0.7422,1.2031 -0.1436,0.6094 -0.4033,2.5401 0.2637,3.3819 0.1435,0.1826 0.4111,0.4238 1.0713,0.4238 0.6611,0 0.9287,-0.2422 1.0722,-0.4248 0.6211,-0.7881 0.4453,-2.6172 0.2627,-3.3799 -0.1289,-0.5371 0.2032,-1.0762 0.7403,-1.2051 0.5361,-0.1259 1.0761,0.2032 1.205,0.7403 0.0801,0.3349 0.7452,3.33 -0.6377,5.083 -0.4267,0.541 -1.2314,1.1865 -2.6425,1.1865 z"
       id="path24" />
    <path
       d="m 54.7598,58.9043 c -0.0508,0 -0.1016,-0.0029 -0.1524,-0.0107 -0.5459,-0.084 -0.9209,-0.5938 -0.8379,-1.1387 0.0049,-0.0371 0.5371,-3.6924 -0.7715,-6.9111 -0.208,-0.5118 0.0391,-1.0958 0.5499,-1.3038 0.5117,-0.206 1.0957,0.0391 1.3037,0.5498 1.5205,3.7432 0.9209,7.7969 0.8945,7.9678 -0.0762,0.4942 -0.502,0.8467 -0.9863,0.8467 z"
       id="path26" />
    <path
       d="m 30.1055,54.7012 c -0.0284,0 -0.0576,-10e-4 -0.0869,-0.0039 -0.3663,-0.0323 -0.6856,-0.2627 -0.8311,-0.5996 l -3.7754,-8.7481 c -0.1279,-0.2949 -0.1055,-0.6338 0.0596,-0.9092 0.165,-0.2763 0.4521,-0.456 0.7724,-0.4834 l 0.5528,-0.0478 c 0.2265,-0.0225 0.4521,0.0381 0.6406,0.164 3.1543,2.1026 5.6621,3.4102 8.3828,3.4248 2.7227,-0.0136 5.2295,-1.3222 8.3828,-3.4248 0.1846,-0.123 0.4004,-0.1875 0.625,-0.165 l 0.6787,0.0479 c 0.3282,0.0224 0.6241,0.206 0.7911,0.4892 0.1669,0.2842 0.1845,0.6318 0.0449,0.9297 l -4.0752,8.748 c -0.1563,0.336 -0.4854,0.5577 -0.8555,0.5772 -0.3701,0.0215 -0.7197,-0.1689 -0.9092,-0.4863 l -2.9072,-4.8692 c -0.5469,0.0928 -1.1006,0.1446 -1.667,0.1524 -0.0215,9e-4 -0.043,9e-4 -0.0644,9e-4 -0.0079,0 -0.0137,0 -0.0205,0 h -0.0459 c -0.0147,0 -0.0284,0 -0.042,0 -0.0147,0 -0.0293,0 -0.044,-9e-4 -0.5293,-0.0078 -1.0469,-0.0528 -1.5576,-0.1348 L 30.9414,54.25 c -0.1865,0.2832 -0.501,0.4512 -0.8359,0.4512 z m -1.8067,-7.709 1.9903,4.6094 1.8144,-2.7608 c -1.2422,-0.4306 -2.4863,-1.0586 -3.8047,-1.8486 z m 11.3106,1.8232 1.6426,2.752 2.1474,-4.6104 c -1.3135,0.791 -2.5537,1.4229 -3.79,1.8584 z"
       id="path28" />
    <path
       d="m 16.8818,58.9053 c -0.4853,0 -0.9111,-0.3535 -0.9873,-0.8477 -0.0263,-0.1689 -0.6172,-4.164 0.8633,-7.8847 0.2041,-0.5147 0.7861,-0.7657 1.2979,-0.5596 0.5136,0.2041 0.7646,0.7851 0.5595,1.2978 -1.2802,3.2207 -0.75,6.8067 -0.7441,6.8418 0.084,0.5459 -0.29,1.0567 -0.8359,1.1407 -0.0518,0.0078 -0.1036,0.0117 -0.1534,0.0117 z"
       id="path30" />
    <path
       d="m 31.9014,58.8623 c -0.1768,0 -0.3555,-0.0469 -0.5176,-0.1455 -0.4727,-0.2861 -0.6231,-0.9014 -0.3359,-1.373 l 2.2382,-3.6885 c 0.2862,-0.4727 0.9014,-0.6231 1.3731,-0.336 0.4726,0.2862 0.623,0.9014 0.3359,1.3731 l -2.2383,3.6885 c -0.1875,0.3105 -0.5175,0.4814 -0.8554,0.4814 z"
       id="path32" />
    <path
       d="m 39.4609,58.8623 c -0.3379,0 -0.6679,-0.1709 -0.8554,-0.4814 l -2.2393,-3.6895 c -0.2871,-0.4717 -0.1367,-1.0869 0.3359,-1.373 0.4727,-0.2871 1.0879,-0.1368 1.3731,0.3359 l 2.2393,3.6895 c 0.2871,0.4716 0.1367,1.0869 -0.336,1.373 -0.1621,0.0986 -0.3408,0.1455 -0.5176,0.1455 z"
       id="path34" />
    <path
       d="m 23.7217,48.2402 c -0.5528,0 -1,-0.4472 -1,-1 v -1.9521 c 0,-0.5527 0.4472,-1 1,-1 0.5527,0 1,0.4473 1,1 v 1.9521 c 0,0.5528 -0.4473,1 -1,1 z"
       id="path36" />
    <path
       d="m 20.3262,48.2402 c -0.5528,0 -1,-0.4472 -1,-1 v -1.9521 c 0,-0.5527 0.4472,-1 1,-1 0.5527,0 1,0.4473 1,1 v 1.9521 c 0,0.5528 -0.4473,1 -1,1 z"
       id="path38" />
    <path
       d="m 16.9307,48.2402 c -0.5528,0 -1,-0.4472 -1,-1 v -1.9521 c 0,-0.5527 0.4472,-1 1,-1 0.5527,0 1,0.4473 1,1 v 1.9521 c 0,0.5528 -0.4473,1 -1,1 z"
       id="path40" />
    <path
       d="m 47.7949,48.2402 c -0.5527,0 -1,-0.4472 -1,-1 v -1.9521 c 0,-0.5527 0.4473,-1 1,-1 0.5528,0 1,0.4473 1,1 v 1.9521 c 0,0.5528 -0.4472,1 -1,1 z"
       id="path42" />
    <path
       d="m 51.1904,48.2402 c -0.5527,0 -1,-0.4472 -1,-1 v -1.9521 c 0,-0.5527 0.4473,-1 1,-1 0.5528,0 1,0.4473 1,1 v 1.9521 c 0,0.5528 -0.4472,1 -1,1 z"
       id="path44" />
    <path
       d="m 54.5859,48.2402 c -0.5527,0 -1,-0.4472 -1,-1 v -1.9521 c 0,-0.5527 0.4473,-1 1,-1 0.5528,0 1,0.4473 1,1 v 1.9521 c 0,0.5528 -0.4472,1 -1,1 z"
       id="path46" />
  </g>
</g></svg>