<svg xmlns="http://www.w3.org/2000/svg" width="24" height="24" viewBox="0 0 24 24"> <g transform="translate(0.0 0.14272498242749343) scale(0.467509310642717)">
  
  <g
     id="line"
     transform="translate(-10.324124,-10.641)">
    <path
       fill="none"
       stroke="#000"
       stroke-linecap="round"
       stroke-linejoin="round"
       stroke-width="2"
       d="m 60.66,37.43 -1.868,-2.339 c -0.8728,-8.886 -18.46,-7.821 -28.36,-6.022 -2.322,0.4345 -6.446,-9.261 -8.223,-13.67 -0.2737,-0.6795 -1.317,-3.758 -2.636,-3.758 -1.128,0 -1.043,1.632 -1.55,2.196 -0.4312,0.4801 -2.718,0.6383 -3.768,0.9577 -0.3651,0.111 0.1295,1.608 -0.2308,1.722 -1.335,0.4216 -2.756,0.8147 -2.699,1.644 0.04867,0.7095 0.1107,2.779 0.8074,2.934 1.55,0.3459 2.621,-0.4551 3.447,0.2786 3.578,3.18 4,15.15 6.763,19.06 1.3,1.544 2.992,2.709 4.98,3.433 l 2.344,5.148 c 1.045,2.673 1.011,5.618 1.009,8.373 l -0.4614,1.021 c -0.424,0.938 0.3586,1.958 1.503,1.958 v 0 c 0.6795,0 1.286,-0.375 1.52,-0.9389 l 0.7119,-1.722 c 0.229,-0.5537 0.2847,-1.152 0.1615,-1.731 l -0.2283,-6.013"
       id="path2" />
    <path
       fill="none"
       stroke="#000"
       stroke-linecap="round"
       stroke-linejoin="round"
       stroke-width="2"
       d="m 33.02,45.22 c 3.575,1.759 13.64,0.04346 18.2,-1.392 0.4893,5.819 2.003,5.739 3.923,7.774 l 0.8742,5.754 -0.4614,1.021 c -0.424,0.938 0.3586,1.958 1.503,1.958 v 0 c 0.6795,0 1.286,-0.375 1.52,-0.9389 l 0.7119,-1.722 c 0.229,-0.5537 0.2847,-1.152 0.1615,-1.731 l -1.269,-5.969"
       id="path4" />
    <path
       fill="none"
       stroke="#000"
       stroke-linecap="round"
       stroke-linejoin="round"
       stroke-width="2"
       d="m 49.05,44.7 c -1.155,3.33 -1.013,3.448 -1.017,4.312 -0.0035,0.7897 0.2763,1.276 0.6732,2.694 0.3249,1.161 -2.755,4.226 -3.8,5.376 l -0.7969,0.7882 c -0.732,0.7238 -0.3668,1.956 0.7014,2.366 v 0 c 0.6344,0.2435 1.335,0.1109 1.756,-0.3317 l 1.282,-1.352"
       id="path6" />
    <path
       fill="none"
       stroke="#000"
       stroke-linecap="round"
       stroke-linejoin="round"
       stroke-width="2"
       d="m 24.77,42.73 c -1.323,2.21 -3.516,4.47 -4.241,6.28 -0.3209,0.8185 0.6727,9.041 0.6727,9.041 l 0.1115,1.115 c 0.1022,1.024 1.29,1.516 2.281,0.9432 v 0 c 0.5884,-0.34 0.9262,-0.9683 0.8464,-1.573 l -0.2452,-1.847"
       id="path8" />
  </g>
</g></svg>