<svg xmlns="http://www.w3.org/2000/svg" width="24" height="24" viewBox="0 0 24 24"> <g transform="translate(0.0 0.7927370613124332) scale(0.42470096937465385)">
  
  <g
     id="line"
     transform="translate(-7.4310501,-9.4316995)">
    <path
       fill="none"
       stroke="#000"
       stroke-linecap="round"
       stroke-linejoin="round"
       stroke-width="2"
       d="m 26.6756,23.9431 c -0.2778,-2.1086 -1.4292,-3.4866 -3.34,-3.4866 -1.7539,0 -3.4779,0.7993 -4.29,4.0489 0,0 -2.371,7.6178 -2.371,10.303 a 10.0957,10.0957 0 0 0 0.7729,3.6431 l 6.2751,20.884 a 2.3655,2.3655 0 0 0 2.1436,1.84 1.6845,1.6845 0 0 0 1.564,-1.84 L 24.2467,36.06"
       id="path2" />
    <path
       fill="none"
       stroke="#000"
       stroke-linecap="round"
       stroke-linejoin="round"
       stroke-width="2"
       d="m 35.1854,32.6275 h -6.7435 a 2.5277,2.5277 0 0 1 -2.6036,-1.748 l -2.8058,-6.5133"
       id="path4" />
    <path
       fill="none"
       stroke="#000"
       stroke-linecap="round"
       stroke-linejoin="round"
       stroke-width="2"
       d="M 17.611,47.7947 16.38,51.614 c 0,0 -3.5708,6.712 -4.1492,7.6321 A 2.3544,2.3544 0 0 1 9.044,60.2088 C 8.1578,59.621 8.2892,58.0737 9.0731,56.6622 9.579,55.7513 13.1677,47.4691 13.1677,47.4691 l 1.8789,-7.2315"
       id="path6" />
    <path
       fill="none"
       stroke="#000"
       stroke-linecap="round"
       stroke-linejoin="round"
       stroke-width="2"
       d="m 57.7732,46.55 1,8.9712 c 0.2431,1.625 1.0247,2.3289 2.1657,2.3289 1.2029,0 2.0025,-1.1774 2.0025,-2.9466 0,0 -0.5521,-10.1825 -0.7413,-12.6232 -0.1892,-2.4407 -2.3342,-3.9331 -5.7133,-3.9331"
       id="path8" />
    <path
       fill="none"
       stroke="#000"
       stroke-linecap="round"
       stroke-linejoin="round"
       stroke-width="2"
       d="m 32.9154,41.1855 a 12.2418,12.2418 0 1 0 7.4671,-4.3666"
       id="path10" />
    <path
       fill="none"
       stroke="#000"
       stroke-linecap="round"
       stroke-linejoin="round"
       stroke-width="2"
       d="M 36.9161,48.8509 A 5.5241,5.5241 0 1 0 42.511,43.3987"
       id="path12" />
    <path
       fill="none"
       stroke="#000"
       stroke-linecap="round"
       stroke-linejoin="round"
       stroke-width="2"
       d="m 35.1379,35.61 v 4.8335 c 0,1.5175 0.7256,2.1706 1.6838,2.1706 0.9948,0 1.6126,-0.9345 1.6126,-2.2679 V 39.678"
       id="path14" />
    <path
       fill="none"
       stroke="#000"
       stroke-linecap="round"
       stroke-linejoin="round"
       stroke-width="2"
       d="M 40.6115,33.5122 H 42.21 a 14.0264,14.0264 0 0 1 7.42,2.0534 l -0.5966,-4.24 -0.5965,-3.9082 a 2.9546,2.9546 0 0 0 -2.451,-2.65 l -4.2117,-0.53 c -1.6558,-0.1986 -2.778,0.05 -3.2461,0.9936 l -2.4348,4.498"
       id="path16" />
    <circle
       cx="26.9251"
       cy="13.9751"
       r="3.5434"
       fill="none"
       stroke="#000"
       stroke-linecap="round"
       stroke-linejoin="round"
       stroke-width="2"
       id="circle18" />
    <circle
       cx="44.5686"
       cy="17.604601"
       r="3.5434"
       fill="none"
       stroke="#000"
       stroke-linecap="round"
       stroke-linejoin="round"
       stroke-width="2"
       id="circle20" />
  </g>
</g></svg>