<svg xmlns="http://www.w3.org/2000/svg" width="24" height="24" viewBox="0 0 24 24"> <g transform="translate(0.6358838539979388 0.0) scale(0.47350483941675253)">
  
  <g
     id="line"
     transform="translate(-12,-9.3141415)">
    <path
       fill="none"
       stroke="#000"
       stroke-linecap="round"
       stroke-linejoin="round"
       stroke-miterlimit="10"
       stroke-width="2"
       d="m 28.5,45 c 1.5805,-2.5575 4.9043,-4.1349 8.4211,-4.0038 3.2288,0.1204 6.1411,1.6633 7.5789,4.0038"
       id="path2" />
    <path
       fill="none"
       stroke="#000"
       stroke-linecap="round"
       stroke-linejoin="round"
       stroke-miterlimit="10"
       stroke-width="2"
       d="m 40.5,31.7253 c 0.4132,-0.344 2.2456,-1.7915 4.9091,-1.6364 2.1608,0.1259 3.61,1.2333 4.0909,1.6364"
       id="path4" />
    <path
       fill="none"
       stroke="#000"
       stroke-linecap="round"
       stroke-linejoin="round"
       stroke-miterlimit="10"
       stroke-width="2"
       d="m 22.5,31.7253 c 0.4132,-0.344 2.2456,-1.7915 4.9091,-1.6364 2.1608,0.1259 3.61,1.2333 4.0909,1.6364"
       id="path6" />
    <path
       fill="none"
       stroke="#000"
       stroke-linecap="round"
       stroke-miterlimit="10"
       stroke-width="2"
       d="M 32.0757,13.3335 C 33.3509,13.1142 34.6621,13 36,13 48.7025,13 59,23.2975 59,36 59,48.7025 48.7025,59 36,59 23.2975,59 13,48.7025 13,36 c 0,-4.2618 1.1591,-8.2528 3.1793,-11.675"
       id="path8" />
    <path
       fill="none"
       stroke="#000"
       stroke-miterlimit="10"
       stroke-width="2"
       d="m 24.8117,10.5867 c 0.1789,0.1789 4.3858,4.4369 4.3857,8.8871 0,2.7193 -2.2652,4.9237 -5.0594,4.9237 -2.7942,0 -5.0594,-2.2044 -5.0594,-4.9237 -1e-4,-4.4502 4.2068,-8.7082 4.3857,-8.8871 0.3722,-0.3722 0.975,-0.372 1.347,0 z"
       id="path10" />
  </g>
</g></svg>