<svg xmlns="http://www.w3.org/2000/svg" width="24" height="24" viewBox="0 0 24 24"> <g transform="translate(0.0 0.15544316393130053) scale(0.4385444140788983)">
  
  <g
     id="line"
     transform="translate(-8.0250973,-10.090307)">
    <path
       fill="none"
       stroke="#000"
       stroke-linecap="round"
       stroke-linejoin="round"
       stroke-width="2"
       d="m 29.2471,43.0979 -7.27,6.7 a 14.2156,14.2156 0 0 1 -3.3,2.1 l -6.85,2.84 a 2.2083,2.2083 0 0 1 -2.708,-1.051 2.3635,2.3635 0 0 1 1.2781,-2.8089 l 7.4659,-4.1523 4.2008,-6.3357"
       id="path2" />
    <path
       fill="none"
       stroke="#000"
       stroke-linecap="round"
       stroke-linejoin="round"
       stroke-width="2"
       d="m 38.2887,22.9679 a 3.9225,3.9225 0 0 0 -2.4,-3.8 c -1.6,-0.6 -4,-0.4 -6,3.6 l -5.1,9.2 a 8.61,8.61 0 0 0 -1,3.8 v 0 a 5.0677,5.0677 0 0 0 1.5,3.3 l 8.77,8.3 a 6.4776,6.4776 0 0 1 1.7,3.4 l 1.3,10.34 c 0.2,1.1 0.8036,2 2,2 a 1.831,1.831 0 0 0 1.7,-2 l -0.2,-13.34 a 9.2539,9.2539 0 0 0 -1,-3.7 l -4.57,-7.27 a 6.9632,6.9632 0 0 1 -0.8829,-4.0428"
       id="path4" />
    <path
       fill="none"
       stroke="#000"
       stroke-linecap="round"
       stroke-linejoin="round"
       stroke-width="2"
       d="m 45.2288,31.0877 -5.02,-0.99 a 4.763,4.763 0 0 1 -3.25,-2.0683 l -2.63,-4.9317"
       id="path6" />
    <path
       fill="none"
       stroke="#000"
       stroke-linecap="round"
       stroke-linejoin="round"
       stroke-width="2"
       d="M 51.7888,23.0682 49.73,29.6154 c -0.5378,1.786 0.4268,3.4645 2.5609,4.2469 0,0 3.6555,1.2354 4.5027,1.5134 1.2347,0.4052 2.65,2.963 2.65,2.963"
       id="path8" />
    <path
       fill="none"
       stroke="#000"
       stroke-linecap="round"
       stroke-linejoin="round"
       stroke-width="2"
       d="m 44.761,27.7692 c 1.3838,-2.488 2.9193,-5.256 3.4268,-6.1983 a 4.1928,4.1928 0 0 1 4.0986,-2.663 c 2.9,0 4.4127,3.6152 4.4127,8.5632 0,2.6268 -0.9693,3.4846 -2.26,3.4846 A 3.66,3.66 0 0 1 52.6082,30.324"
       id="path10" />
    <path
       fill="none"
       stroke="#000"
       stroke-linecap="round"
       stroke-linejoin="round"
       stroke-width="2"
       d="m 52.4384,36.7979 4.57,7.6 a 9.2539,9.2539 0 0 1 1,3.7 l 0.2,13.01 a 1.831,1.831 0 0 1 -1.7,2 c -1.1535,0 -1.8,-0.9 -2,-2 l -1.3,-10.01 a 6.4776,6.4776 0 0 0 -1.7,-3.4 L 43.9991,40.591 c -1.4087,-1.3672 -2.4043,-3.342 -1.7459,-7.0311"
       id="path12" />
    <path
       fill="none"
       stroke="#000"
       stroke-linecap="round"
       stroke-linejoin="round"
       stroke-width="2"
       d="m 47.4372,43.8448 -6.8284,6.9316"
       id="path14" />
    <path
       fill="none"
       stroke="#000"
       stroke-linecap="round"
       stroke-linejoin="round"
       stroke-width="2"
       d="m 40.69,40.876 -1.1317,2.862"
       id="path16" />
    <path
       fill="none"
       stroke="#000"
       stroke-linecap="round"
       stroke-linejoin="round"
       stroke-width="2"
       d="m 33.4786,55.438 -4.4033,1.9405 a 2.2448,2.2448 0 0 1 -2.96,-1.03 2.407,2.407 0 0 1 1.134,-2.8112 l 5.3683,-3.1564"
       id="path18" />
    <path
       fill="none"
       stroke="#000"
       stroke-linecap="round"
       stroke-linejoin="round"
       stroke-width="2"
       d="m 36.8854,14.6334 a 3.5434,3.5434 0 1 1 3.5434,3.5434"
       id="path20" />
    <path
       fill="none"
       stroke="#000"
       stroke-linecap="round"
       stroke-linejoin="round"
       stroke-width="2"
       d="m 54.6651,14.6334 a 3.5434,3.5434 0 1 1 3.5434,3.5434"
       id="path22" />
  </g>
</g></svg>