<svg xmlns="http://www.w3.org/2000/svg" width="24" height="24" viewBox="0 0 24 24"> <g transform="translate(0.0 3.994528023341166) scale(0.37500268361295463)">
  
  <g
     id="line"
     transform="matrix(0.9826,0,0,0.9823,-3.7426251,-14.718785)"
     stroke-miterlimit="10"
     stroke-width="1.018">
    <path
       fill="none"
       stroke="#000"
       stroke-linecap="round"
       stroke-linejoin="round"
       stroke-miterlimit="10"
       stroke-width="2.036"
       d="m 43.88,47.41 8.469,-9.812 c 1.281,-1.594 2.281,-1.906 3.344,-2.156 l 9.04,-1.92 c 4.59,-5.084 4.19,-12.93 -0.8941,-17.52 l -51.33,2.083 c -3.292,0.3333 -7.099,2.364 -7.682,6.622 l 0.0156,20.46 c -0.3021,3.771 3.823,5.115 8.167,3.458 -1,8.438 3,9.562 7.438,8.438 l 20.91,-7.739"
       id="path2" />
    <path
       fill="none"
       stroke="#000"
       stroke-linecap="round"
       stroke-linejoin="round"
       stroke-miterlimit="10"
       stroke-width="2.036"
       d="m 15.31,29.17 c 0,4.062 4.892,4.344 10.94,4.344 -0.5,4.031 -2.594,8.625 -10.03,13"
       id="path4" />
    <path
       fill="none"
       stroke="#000"
       stroke-linecap="round"
       stroke-linejoin="round"
       stroke-miterlimit="10"
       stroke-width="2.036"
       d="m 43.88,47.41 8.469,-9.812 c 1.281,-1.594 2.281,-1.906 3.344,-2.156 l 9.04,-1.92 c 4.59,-5.084 4.19,-12.93 -0.8941,-17.52 l -51.33,2.083 c -3.292,0.3333 -7.099,2.364 -7.682,6.622 l 0.0156,20.46 c -0.3021,3.771 3.823,5.115 8.167,3.458 -1,8.438 3,9.562 7.438,8.438 l 20.91,-7.739 c 1.296,-0.6802 1.853,-1.293 2.531,-1.917 z"
       id="path6" />
    <path
       fill="none"
       stroke="#000"
       stroke-linecap="round"
       stroke-linejoin="round"
       stroke-miterlimit="10"
       stroke-width="2.036"
       d="m 15.31,29.17 c 0,4.062 4.892,4.344 10.94,4.344 -0.5,4.031 -2.594,8.625 -10.03,13"
       id="path8" />
  </g>
</g></svg>