<svg xmlns="http://www.w3.org/2000/svg" width="24" height="24" viewBox="0 0 24 24"> <g transform="translate(0.0 0.7368533766734444) scale(0.45833450065401465)">
  
  <g
     id="line"
     transform="translate(-15.774401,-9.715949)">
    <path
       d="m 41.9625,26.9421 c 0,1.1045 -0.8965,2 -2,2 -1.1035,0 -2,-0.8955 -2,-2 0,-1.1035 0.8965,-2 2,-2 1.1035,0 2,0.8965 2,2"
       id="path2" />
    <path
       d="m 33.9625,26.9421 c 0,1.1045 -0.8965,2 -2,2 -1.1035,0 -2,-0.8955 -2,-2 0,-1.1035 0.8965,-2 2,-2 1.1035,0 2,0.8965 2,2"
       id="path4" />
    <path
       d="m 35.9624,36.9445 c -1.1519,0 -2.3037,-0.2861 -3.4473,-0.8579 -0.4941,-0.2471 -0.6943,-0.8476 -0.4473,-1.3418 0.2466,-0.4936 0.8462,-0.6943 1.3418,-0.4473 1.7178,0.8594 3.3877,0.8594 5.1055,0 0.4946,-0.247 1.0947,-0.0463 1.3418,0.4473 0.2471,0.4942 0.0469,1.0947 -0.4473,1.3418 -1.1435,0.5718 -2.2954,0.8579 -3.4472,0.8579 z"
       id="path6" />
    <path
       fill="none"
       stroke="#000"
       stroke-miterlimit="10"
       stroke-width="2"
       d="m 46.98,24.9598 c 0.21,1.07 0.32,2.2 0.32,3.34 0,7.83 -5.08,14.18 -11.34,14.18 -6.26,0 -11.34,-6.35 -11.34,-14.18 0,-0.97 0.08,-1.91 0.23,-2.82"
       id="path8" />
    <path
       fill="none"
       stroke="#000"
       stroke-miterlimit="10"
       stroke-width="2"
       d="m 40.95,15.5798 c 0.08,0.04 0.16,0.09 0.23,0.14 0.14,0.09 0.28,0.18 0.41,0.28"
       id="path10" />
    <rect
       x="58.386902"
       y="37.781399"
       width="4"
       height="10.4297"
       transform="matrix(0.7071,-0.7071,0.7071,0.7071,-12.716,55.2933)"
       fill="none"
       stroke="#000"
       stroke-linecap="round"
       stroke-linejoin="round"
       stroke-miterlimit="10"
       stroke-width="2"
       id="rect12" />
    <circle
       cx="53.6619"
       cy="36.461399"
       fill="none"
       stroke="#000"
       stroke-linecap="round"
       stroke-linejoin="round"
       stroke-miterlimit="10"
       stroke-width="2"
       id="ellipse14"
       r="4" />
    <line
       x1="64.291702"
       x2="67.137901"
       y1="46.867699"
       y2="49.713799"
       fill="none"
       stroke="#000"
       stroke-linecap="round"
       stroke-linejoin="round"
       stroke-miterlimit="10"
       stroke-width="2"
       id="line16" />
    <line
       x1="58.892799"
       x2="58.892799"
       y1="44.664101"
       y2="57.864101"
       fill="none"
       stroke="#000"
       stroke-linecap="round"
       stroke-linejoin="round"
       stroke-miterlimit="10"
       stroke-width="2"
       id="line18" />
    <path
       fill="none"
       stroke="#000"
       stroke-linecap="round"
       stroke-linejoin="round"
       stroke-miterlimit="10"
       stroke-width="2"
       d="m 41.7739,15.7153 c 4.1992,0.1683 5.4643,3.9222 5.2346,9.2263 l -0.0027,5e-4 c -2.7021,2.0473 -7.3029,-6.0499 -7.3029,-6.0499 z"
       id="path20" />
    <path
       fill="none"
       stroke="#000"
       stroke-linecap="round"
       stroke-linejoin="round"
       stroke-miterlimit="10"
       stroke-width="2"
       d="m 33.5327,48.0978 c 0,0 -1.2063,6.0215 2.3073,6.0215 3.5135,0 2.3072,-6.0215 2.3072,-6.0215"
       id="path22" />
    <path
       fill="none"
       stroke="#000"
       stroke-linecap="round"
       stroke-linejoin="round"
       stroke-miterlimit="10"
       stroke-width="2"
       d="M 34.9896,54.1193 32.5744,57.757 C 28.9446,56.0032 26.9025,44.7949 26.9025,44.7949 l -5.1046,6.9346 2.974,1.842 -0.9985,3.1134 8.8689,1.0721"
       id="path24" />
    <path
       fill="none"
       stroke="#000"
       stroke-linecap="round"
       stroke-linejoin="round"
       stroke-miterlimit="10"
       stroke-width="2"
       d="m 36.6904,54.1193 2.4151,3.6377 c 3.6298,-1.7538 5.672,-12.9621 5.672,-12.9621 l 5.1045,6.9346 -2.974,1.842 0.9985,3.1134 -8.8689,1.0721"
       id="path26" />
    <path
       fill="none"
       stroke="#000"
       stroke-linecap="round"
       stroke-linejoin="round"
       stroke-miterlimit="10"
       stroke-width="2"
       d="m 39.0934,19.004 2.0825,-3.8399 c 0,0 -2.4602,-7.1453 -11.3294,-3.3725 -2.1059,0.8958 -3.98,2.2516 -5.6163,3.8515 0,0 -2.8374,2.382 -3.9208,4.0348 0,0 -1.6869,-0.2843 -3.267,-1.7638 0,0 -0.435,6.6434 7.5762,7.5773 0,0 2.8584,0.0223 6.1913,-2.8191"
       id="path28" />
    <path
       fill="none"
       stroke="#000"
       stroke-linecap="round"
       stroke-linejoin="round"
       stroke-miterlimit="10"
       stroke-width="2"
       d="m 39.1076,18.8922 c -0.0034,-0.463 -3.2917,6.1827 -13.917,2.8403"
       id="path30" />
    <path
       fill="none"
       stroke="#000"
       stroke-linecap="round"
       stroke-linejoin="round"
       stroke-miterlimit="10"
       stroke-width="2"
       d="m 16.9025,57.7949 c 0,0 -2,-13 10,-13 3.1918,2.1279 5.9264,3.5984 9,3.5921 h -0.125 c 3.0736,0.0063 5.8081,-1.4642 9,-3.5921 12,0 10,13 10,13"
       id="path32" />
  </g>
</g></svg>