<svg xmlns="http://www.w3.org/2000/svg" width="24" height="24" viewBox="0 0 24 24"> <g transform="translate(0.48983235143393244 0.0) scale(0.46237251041301425)">
  
  <g
     id="line"
     transform="translate(-10.9688,-10.0938)">
    <circle
       cx="29.9688"
       cy="14.0938"
       r="3"
       fill="none"
       stroke="#000"
       stroke-miterlimit="10"
       stroke-width="2"
       id="circle2" />
    <circle
       cx="16.9688"
       cy="41.0938"
       r="5"
       fill="none"
       stroke="#000"
       stroke-miterlimit="10"
       stroke-width="2"
       id="circle4" />
    <path
       fill="none"
       stroke="#000"
       stroke-linecap="round"
       stroke-linejoin="round"
       stroke-miterlimit="10"
       stroke-width="2"
       d="m 33.2676,31.4463 c 0,0 0.3896,0.7998 0.8662,1.7764 0.4766,0.9775 0.5586,2.623 0.1826,3.6572 l -2.6328,7.2402 C 31.3076,45.1543 30.9854,46.8994 30.9668,48 l -0.1836,11 c -0.0186,1.1006 0.7373,2 1.6787,2 0.9414,0 1.8477,-0.8896 2.0127,-1.9775 l 1.2246,-8.045 c 0.1651,-1.0879 0.7031,-2.7822 1.1953,-3.7666 l 1.211,-2.4218 c 0.4922,-0.9844 1.5859,-2.3653 2.4306,-3.0694 l 2.9278,-2.4394 C 44.3086,38.5762 45,37.0996 45,36 v 0 c 0,-1.0996 -0.4307,-2.79 -0.958,-3.7559 L 39,23"
       id="path6" />
    <path
       fill="none"
       stroke="#000"
       stroke-linecap="round"
       stroke-linejoin="round"
       stroke-miterlimit="10"
       stroke-width="2"
       d="m 45,37 4.1055,8.2109 c 0.4922,0.9844 1.6699,2.2461 2.6172,2.8057 l 6.7216,3.9668 c 0.9473,0.5596 1.4981,1.6914 1.2227,2.5166 -0.2754,0.8252 -1.332,1.1582 -2.3496,0.7402 l -8.4678,-3.4804 c -1.0176,-0.418 -2.4424,-1.4375 -3.167,-2.2647 L 40,43"
       id="path8" />
    <path
       fill="none"
       stroke="#000"
       stroke-linecap="round"
       stroke-linejoin="round"
       stroke-miterlimit="10"
       stroke-width="2"
       d="m 39,23 c -2,-4 -4.3594,-4.2329 -6.0312,-3.583 -1.1915,0.4629 -1.9278,1.437 -2.2227,2.5478"
       id="path10" />
    <path
       fill="none"
       stroke="#000"
       stroke-linecap="round"
       stroke-linejoin="round"
       stroke-miterlimit="10"
       stroke-width="2"
       d="m 34,23 -3.0078,5.2637 c -0.5459,0.9551 -1.8701,1.9345 -2.9434,2.1758 L 21.125,32"
       id="path12" />
  </g>
</g></svg>