<svg xmlns="http://www.w3.org/2000/svg" width="24" height="24" viewBox="0 0 24 24"> <g transform="translate(0.0 0.1226730446343165) scale(0.4689605467986183)">
  
  <g
     id="line"
     transform="translate(-9.9012429,-11.003619)">
    <path
       fill="none"
       stroke="#000"
       stroke-linecap="round"
       stroke-linejoin="round"
       stroke-miterlimit="10"
       stroke-width="2"
       d="m 40.561,34.5609 -19.3569,14.6195 2.1566,2.6035 2.1005,-1.5861 2.8721,3.6437 -2.3148,1.9719 c -3.4969,-0.3907 -3.9438,3.0865 -3.9438,3.0865 L 19.8885,60.6575 16.7163,56.7994 19.3741,54.5703 17.32,52.12 14.5835,54.2332 10.9012,49.6934 37.0802,29.9146"
       id="path2" />
    <path
       fill="none"
       stroke="#000"
       stroke-miterlimit="10"
       stroke-width="2"
       d="m 58.37,24.89 c -1.08,-1.1 -3.71,-2.83 -4.62,-4.07 -0.91,-1.23 -1.78,-4.23 -2.51,-5.58 -2.02,-3.76 -7.42,-4.16 -10.85,-1.63 l -1.26,0.94 c -3.43,2.53 -4.76,7.94 -1.63,10.84 1.15,1.0699 3.81,2.8199 4.74,4.08 0.92,1.25 1.72,4.17 2.39,5.57 1.85,3.84 7.42,4.16 10.85,1.63 l 1.26,-0.94 c 3.43,-2.53 4.63,-7.81 1.63,-10.84 z m -2.27,5.47 c -0.43,2.69 -2.96,4.52 -5.66,4.09 -2.69,-0.43 -4.24,-2.93 -4.09,-5.65 0.17,-3.16 -2.53,-3.12 -2.53,-3.12 -2.69,-0.43 -4.53,-2.97 -4.1,-5.66 0.44,-2.69 2.97,-4.52 5.66,-4.09 2.69,0.43 4.53,2.96 4.09,5.66 0,0 -0.71,3.02 2.54,3.11 2.72,0.08 4.52,2.97 4.09,5.66 z"
       id="path4" />
  </g>
</g></svg>