<svg xmlns="http://www.w3.org/2000/svg" width="24" height="24" viewBox="0 0 24 24"> <g transform="translate(2.3575029674014942 0.0) scale(0.3996388197559985)">
  
  <g
     id="line"
     transform="translate(-11.682503,-6.4544999)">
    <g
       id="g30">
      <ellipse
         cx="34.736099"
         cy="31.9067"
         rx="4.8649998"
         ry="6.5204"
         fill="none"
         stroke="#000"
         stroke-miterlimit="10"
         stroke-width="1.6"
         id="ellipse2" />
      <circle
         cx="32.285801"
         cy="21.4671"
         r="1.0418"
         id="circle4" />
      <circle
         cx="36.729801"
         cy="21.4671"
         r="1.0418"
         id="circle6" />
      <path
         fill="none"
         stroke="#000"
         stroke-linecap="round"
         stroke-miterlimit="10"
         stroke-width="1.6"
         d="M 32.6192,33.6038 A 7.0235,7.0235 0 0 0 36.854,33.5626"
         id="path8" />
      <g
         id="g28">
        <path
           fill="none"
           stroke="#000"
           stroke-linecap="round"
           stroke-miterlimit="10"
           stroke-width="2"
           d="m 19.5037,49.8351 -5.78,-4.0757 A 2.4627,2.4627 0 0 1 12.905,42.72 l 6.7556,-14.726 a 2.4625,2.4625 0 0 1 1.3039,-1.2516 l 2.0934,-0.8585"
           id="path10" />
        <path
           fill="none"
           stroke="#000"
           stroke-linecap="round"
           stroke-linejoin="round"
           stroke-width="2"
           d="m 48.6167,44.8817 c -0.2516,-1.8824 2.1467,-8.8171 6.4938,-14.5236 v 0 c 0.6938,-1.0138 2.466,-3.6041 3.3989,-4.9675 a 2.4209,2.4209 0 0 0 0.3369,-2.0388 C 58.1514,20.9127 55.6763,15.0827 47.223,9.9492 A 6.0469,6.0469 0 0 0 46.1711,9.316 4.784,4.784 0 0 0 43.7493,7.6818 a 3.74,3.74 0 0 0 -2.6217,0.02 4.3094,4.3094 0 0 0 -0.9859,0.41 c -1.5194,0.8772 -2.247,2.4618 -1.6249,3.5393 0.6221,1.0775 2.3581,1.24 3.8775,0.3624 0.0156,-0.009 -0.0154,0.0092 0,0 a 0.8869,0.8869 0 0 1 1.1574,0.1533 2.4486,2.4486 0 0 0 0.4156,1.31 l 4.0484,5.9732 a 2.4629,2.4629 0 0 1 0.3614,1.933 l -0.222,0.966 a 2.4631,2.4631 0 0 1 -1.9125,1.8627"
           id="path12" />
        <path
           fill="none"
           stroke="#000"
           stroke-linecap="round"
           stroke-miterlimit="10"
           stroke-width="2"
           d="m 34.7156,43.1737 c -6.3657,0 -11.526,-6.9163 -11.526,-15.448 0,-8.5317 5.16,-15.448 11.526,-15.448 6.366,0 11.526,6.9163 11.526,15.448 a 18.6525,18.6525 0 0 1 -2.91,10.2616"
           id="path14" />
        <line
           x1="23.915899"
           x2="22.200001"
           y1="43.758202"
           y2="39.864201"
           fill="none"
           stroke="#000"
           stroke-linecap="round"
           stroke-miterlimit="10"
           stroke-width="2"
           id="line16" />
        <path
           fill="none"
           stroke="#000"
           stroke-linecap="round"
           stroke-linejoin="round"
           stroke-width="2"
           d="m 20.4623,52.9662 a 67.6146,67.6146 0 0 0 2.987,8.48 0.6866,0.6866 0 0 1 -0.1683,0.8 4.3925,4.3925 0 0 0 -0.6923,0.7624 1.59,1.59 0 0 0 1.3046,2.5 h 10.0738 a 2.0471,2.0471 0 0 0 1.9278,-2.7959 2.8954,2.8954 0 0 0 -1.1539,-1.2989 1.06,1.06 0 0 1 -0.5088,-0.7351 c -0.5246,-3.655 -1.2747,-9.66 -1.2747,-9.66 -0.34,-4.0179 -2.9254,-7.26 -6.4713,-7.26 -3.5033,0 -6.3462,3.2015 -6.4142,6.9293 a 7.255,7.255 0 0 0 0.39,2.2787 l -0.3966,-2.1434 c 0,-0.0455 0.0055,-0.09 0.0063,-0.1353 0,-0.0253 -0.0063,-0.049 -0.0063,-0.0744"
           id="path18" />
        <ellipse
           cx="34.715599"
           cy="27.7257"
           rx="8.3347998"
           ry="11.1709"
           fill="none"
           stroke="#000"
           stroke-miterlimit="10"
           stroke-width="2"
           id="ellipse20" />
        <g
           id="g26">
          <path
             fill="none"
             stroke="#000"
             stroke-linecap="round"
             stroke-linejoin="round"
             stroke-width="2"
             d="m 36.4405,61.684 c 0.243,-0.2023 0.9253,-0.9085 0.9305,-1.2246 0.061,-3.692 0.05,-9.744 0.05,-9.744 -0.1675,-4.0288 1.9895,-7.57 5.5074,-8.0156 3.4755,-0.44 6.6983,2.3783 7.2343,6.0681 a 7.7155,7.7155 0 0 1 -0.1007,2.31 l 0.124,-2.1763 c -0.0057,-0.0451 -0.0168,-0.0884 -0.0233,-0.1333 -0.003,-0.0252 0,-0.0494 -0.0031,-0.0747"
             id="path22" />
          <path
             fill="none"
             stroke="#000"
             stroke-linecap="round"
             stroke-linejoin="round"
             stroke-width="2"
             d="m 50.0623,51.0775 c -0.6692,4.3324 -1.43,8.7021 -1.8633,10.158 a 0.6863,0.6863 0 0 0 0.2676,0.7724 4.3988,4.3988 0 0 1 0.7826,0.6693 1.59,1.59 0 0 1 -0.98,2.6437 L 38.2413,65.2176 a 4.1926,4.1926 0 0 1 -1.4473,-0.18"
             id="path24" />
        </g>
      </g>
    </g>
  </g>
</g></svg>