<svg xmlns="http://www.w3.org/2000/svg" width="24" height="24" viewBox="0 0 24 24"> <g transform="translate(0.0 1.11032051540289) scale(0.42932590752162536)">
  
  <g
     id="line"
     transform="translate(-5.5094899,-12.25)">
    <path
       fill="none"
       stroke="#000"
       stroke-linecap="round"
       stroke-linejoin="round"
       stroke-miterlimit="10"
       stroke-width="2"
       d="m 58.6667,35.9167 c 0.6667,1.6979 0.8506,2.9638 0.5159,4.5011 L 58.0504,45.6187 60,51.7255 c 0,0 0.1206,4.7698 0.0014,8.2786 -0.0369,1.087 -0.9494,1.9752 -2.0371,1.9751 h -0.3531 c -1.3464,0 -1.9256,-1.3248 -1.9256,-2.6712 l -0.8522,-8.3913 c 0,0 -7.4907,-5.4667 -6.4583,-13.6042"
       id="path2" />
    <path
       fill="none"
       stroke="#000"
       stroke-linecap="round"
       stroke-linejoin="round"
       stroke-miterlimit="10"
       stroke-width="2"
       d="M 33.5155,46.5 C 37.3488,46.2948 44.75,46.5 48.5,43.8125"
       id="path4" />
    <path
       fill="none"
       stroke="#000"
       stroke-linecap="round"
       stroke-linejoin="round"
       stroke-miterlimit="10"
       stroke-width="2"
       d="m 51.6253,13.25 c 5.7603,1.5458 8.0746,4.2902 8.6494,7.2047 1.0392,5.269 -4.012,9.798 -9.2239,8.5024 C 48.5251,28.3293 46.402,28.5142 46.402,28.5142 L 28,28.375 C 26.3125,20.25 21.5527,18.81 21.5527,18.81 20.6874,13.25 17.25,13.25 17.25,13.25 l -0.6995,4.8391 -1.4644,0.2501 c -0.7843,0.1339 -1.5121,0.4951 -2.0931,1.0387 l -1.3525,1.2654 -4.1141,0.4425 c -0.7613,0.0819 -1.229,0.8738 -0.9332,1.5801 l 0.8806,2.1021 c 0.2896,0.6913 0.9063,1.1916 1.6425,1.3325 l 6.4671,0.7328 c 0,0 -1,13.1667 2.7292,15.1667 8.1309,4.3607 4.4071,16.5216 4.4071,16.5216 -0.8217,1.4362 -0.1868,3.4576 1.4679,3.4576 h 0.0015 c 0.7939,0 1.5235,-0.4367 1.8987,-1.1364 l 2.0998,-5.4678 1.3773,-9.1449 c 0.1081,-0.7178 -0.0364,-1.4427 -0.3653,-2.0898 -0.576,-1.1333 -1.2538,-3.3607 -0.137,-6.5257"
       id="path6" />
    <path
       fill="none"
       stroke="#000"
       stroke-linecap="round"
       stroke-linejoin="round"
       stroke-miterlimit="10"
       stroke-width="2"
       d="m 16.2346,40.3005 -4.3515,6.655 c -0.3212,0.4697 -0.5044,1.03 -0.5192,1.6187 -0.044,1.7553 -0.2547,5.5414 2.9991,7.69 0.8545,0.5642 2.4644,0.6389 3.3141,0.1114 0.7175,-0.4455 1.3028,-1.2911 0.7739,-2.8914"
       id="path8" />
    <line
       x1="20.534"
       x2="16.125"
       y1="45.4366"
       y2="48.516399"
       fill="none"
       stroke="#000"
       stroke-linecap="round"
       stroke-linejoin="round"
       stroke-miterlimit="10"
       stroke-width="2"
       id="line10" />
    <path
       fill="none"
       stroke="#000"
       stroke-linecap="round"
       stroke-linejoin="round"
       stroke-miterlimit="10"
       stroke-width="2"
       d="m 46.4167,48.5164 c 0.4329,1.5669 3.0772,3.003 4.25,3.7336 l -1.0698,7.1428 c 0,0.6523 0.1869,1.281 0.5906,1.7322 1.0625,1.1875 2.4301,0.6653 2.4301,0.6653"
       id="path12" />
  </g>
</g></svg>