<svg xmlns="http://www.w3.org/2000/svg" width="24" height="24" viewBox="0 0 24 24"> <g transform="translate(0.6388512852369583 0.0) scale(0.3809527498113927)">
  
  <g
     id="line"
     transform="translate(-6.3424741,-4.0000437)">
    <line
       x1="49.210499"
       x2="41.566898"
       y1="24.646299"
       y2="26.898899"
       fill="none"
       stroke="#000"
       stroke-linecap="round"
       stroke-linejoin="round"
       stroke-width="2"
       id="line2" />
    <path
       fill="none"
       stroke="#000"
       stroke-linecap="round"
       stroke-linejoin="round"
       stroke-width="2"
       d="m 18.208,11.6386 c -4.9423,1.9768 -6.2023,4.3636 -6.2023,4.3636 0,0 3.8313,-0.9433 6.7048,0 0,0 -8.62,0.9434 -10.5361,13.207 0,0 3.8313,-2.83 6.7048,-2.83 0,0 -10.5361,3.7735 -6.7048,20.7538 0,0 1.9157,-4.7167 4.7892,-5.66 0,0 -3.8314,8.49 5.7469,17.9237 0,0 1.5047,-4.3138 2.4625,-5.2572 0,0 1.3383,8.0873 7.0853,9.0306 0,0 -0.9273,-1.8867 0.9883,-4.7167 2.032,4.1168 5.9846,6.9478 10.5363,7.5466 0,0 -1.6543,-6.9638 3.1348,-7.9071 0,0 1.6543,0.36 1.6543,4.1337 0,0 5.2644,-4.3139 5.2644,-8.0873 2.1524,0.4806 3.8333,2.1615 4.3139,4.3139 0,0 4.5511,-4.8543 3.5932,-16.1745 0,0 4.0694,-1.7493 6.9429,3.9109 0,0 2.6354,-10.2466 -6.9429,-18.7368 2.0194,-0.5984 4.1985,-0.3024 5.9851,0.813 0,0 0.9578,-6.6034 -8.62,-11.32 0,0 3.8313,-1.8867 5.747,-0.9434 0,0 -4.7318,-3.3282 -6.8869,-3.8459"
       id="path4" />
    <line
       x1="31.3034"
       x2="30.8127"
       y1="43.222801"
       y2="46.7047"
       fill="none"
       stroke="#000"
       stroke-linecap="round"
       stroke-miterlimit="2"
       stroke-width="2"
       id="line6" />
    <line
       x1="40.696602"
       x2="41.187302"
       y1="43.222801"
       y2="46.7047"
       fill="none"
       stroke="#000"
       stroke-linecap="round"
       stroke-miterlimit="2"
       stroke-width="2"
       id="line8" />
    <line
       x1="30.431101"
       x2="22.7875"
       y1="26.898899"
       y2="24.646299"
       fill="none"
       stroke="#000"
       stroke-linecap="round"
       stroke-linejoin="round"
       stroke-width="2"
       id="line10" />
    <path
       fill="none"
       stroke="#000"
       stroke-linecap="round"
       stroke-linejoin="round"
       stroke-width="2"
       d="m 31.7316,10.4305 c 2.6719,-0.8657 5.549,-0.8657 8.2209,0"
       id="path12" />
    <line
       x1="27.5987"
       x2="44.401299"
       y1="42.278702"
       y2="42.278702"
       fill="none"
       stroke="#000"
       stroke-linecap="round"
       stroke-linejoin="round"
       stroke-width="2"
       id="line14" />
    <path
       fill="none"
       stroke="#000"
       stroke-linecap="round"
       stroke-miterlimit="10"
       stroke-width="2"
       d="m 53.3796,20.8053 c 8.0928,9.599 6.8718,23.9409 -2.7272,32.0337 -9.599,8.0928 -23.9409,6.8718 -32.0337,-2.7272 -7.2418,-8.5896 -7.1228,-21.1812 0.2801,-29.6325"
       id="path16" />
    <path
       fill="none"
       stroke="#000"
       stroke-linecap="round"
       stroke-linejoin="round"
       stroke-width="2"
       d="m 18.9034,20.4834 c 0,0 4.9777,-1.2939 9.1885,0.0507 2.5313,0.8443 5.1933,1.2283 7.86,1.1339"
       id="path18" />
    <path
       fill="none"
       stroke="#000"
       stroke-linecap="round"
       stroke-linejoin="round"
       stroke-width="2"
       d="m 52.7543,20.4834 c 0,0 -4.9778,-1.2939 -9.1885,0.0507 -2.5313,0.8443 -5.1933,1.2283 -7.86,1.1339"
       id="path20" />
    <path
       fill="none"
       stroke="#000"
       stroke-linecap="round"
       stroke-linejoin="round"
       stroke-width="2"
       d="M 28.9889,12.2111 C 26.5852,10.6086 25.7841,8.2049 26.5857,5 c -5.6086,1.6025 -4.8074,8.0123 -2.4037,12.0185 4.2466,0.8015 4.8069,-4.8074 4.8069,-4.8074 z"
       id="path22" />
    <path
       fill="none"
       stroke="#000"
       stroke-linecap="round"
       stroke-linejoin="round"
       stroke-width="2"
       d="M 47.1557,17.0185 C 49.5592,13.0123 50.3604,6.6025 44.7518,5 c 0.8012,3.2049 0,5.6086 -2.4037,7.2111 -3.6055,2.4038 0.5603,5.6089 4.8076,4.8074 z"
       id="path24" />
    <path
       d="m 30,32 c 0,1.6568 -1.3448,3 -3,3 -1.6553,0 -3,-1.3433 -3,-3 0,-1.6552 1.3447,-3 3,-3 1.6552,0 3,1.3448 3,3"
       id="path26" />
    <path
       d="m 48,32 c 0,1.6568 -1.3447,3 -3,3 -1.6553,0 -3,-1.3433 -3,-3 0,-1.6552 1.3447,-3 3,-3 1.6553,0 3,1.3448 3,3"
       id="path28" />
  </g>
</g></svg>