<svg xmlns="http://www.w3.org/2000/svg" width="24" height="24" viewBox="0 0 24 24"> <g transform="translate(0.0 0.00043836337640357215) scale(0.4728839011897266)">
  
  <g
     id="line"
     transform="translate(-10.615689,-11.008327)">
    <path
       fill="none"
       stroke="#000"
       stroke-miterlimit="10"
       stroke-width="2.251"
       d="m 52.01,12.6 c 0.1676,0.1676 0.3326,0.3368 0.4951,0.5076 10.49,11.02 10.32,28.47 -0.4976,39.29 -10.99,10.99 -28.81,10.99 -39.8,0.0025 z"
       id="path2" />
    <path
       fill="none"
       stroke="#000"
       stroke-miterlimit="10"
       stroke-width="2.251"
       d="m 49.11,15.44 c 8.167,8.299 9.065,22.67 -0.05274,32.99 -8.942,10.13 -25.08,8.628 -33.27,0.3566 z"
       id="path4" />
    <path
       fill="none"
       stroke="#000"
       stroke-miterlimit="10"
       stroke-width="2.345"
       d="M 41.09,23.53 A 12.9,12.9 0 0 1 23.15,41.47 Z"
       id="path6" />
    <path
       fill="none"
       stroke="#000"
       stroke-linecap="round"
       stroke-linejoin="round"
       stroke-width="2.251"
       d="m 31.79,51.06 c 3.369,0.5372 9.099,-0.9131 13.52,-5.585 3.186,-3.371 5.996,-9.423 5.673,-13.39"
       id="path8" />
    <circle
       cx="50.540001"
       cy="28.030001"
       r="1.173"
       id="circle10" />
  </g>
</g></svg>