<svg xmlns="http://www.w3.org/2000/svg" width="24" height="24" viewBox="0 0 24 24"> <g transform="translate(1.5053382137435012 0.0) scale(0.4627589526793107)">
  
  <g
     id="line"
     transform="translate(-14.69775,-10.045623)">
    <path
       fill="none"
       stroke="#000"
       stroke-linecap="round"
       stroke-linejoin="round"
       stroke-miterlimit="10"
       stroke-width="2"
       d="m 42.2577,19.8977 c -1.9435,1.1541 -4.0222,3.0815 -5.7213,5.4919 L 18.5417,50.9171 c -6.5373,9.2739 -0.804,13.9743 7.0082,5.7457 l 21.504,-22.6504 c 1.9941,-2.1004 3.4596,-4.4682 4.2225,-6.5719"
       id="path2" />
    <path
       fill="none"
       stroke="#000"
       stroke-linejoin="round"
       stroke-miterlimit="10"
       stroke-width="2"
       d="m 48.3844,13.6361 c 0.926,-1.558 2.003,-2.5905 2.003,-2.5905 0,0 1.8608,1.0058 1.8355,3.6491 2.357,-2.2668 4.8651,-2.6375 4.8651,-2.6375 0,0 -0.0095,2.5317 -1.913,5.1908 0.6025,-0.094 1.1372,-0.0757 1.5959,0.0135 1.5347,0.2795 2.2838,1.2805 2.2838,1.2805 0,0 -2.2545,3.1413 -5.3876,4.0649 -0.6449,0.194 -1.2192,0.2554 -1.7259,0.2386 -1.9705,-0.0642 -5.2636,-2.639 -4.804,-5.8863 0.1736,-1.2266 0.6823,-2.3726 1.2472,-3.3231"
       id="path4" />
  </g>
</g></svg>