<svg xmlns="http://www.w3.org/2000/svg" width="24" height="24" viewBox="0 0 24 24"> <g transform="translate(0.0 1.1773527231160443) scale(0.43290589107535826)">
  
  <g
     id="line"
     transform="translate(-10.9451,-11)">
    <path
       fill="none"
       stroke="#000"
       stroke-linecap="round"
       stroke-linejoin="round"
       stroke-width="2"
       d="m 11.9451,60 v -3 c 0,-4.9941 5.0078,-9 10,-9 q 9,7.5 18,0 a 10.2713,10.2713 0 0 1 4.0029,0.84"
       id="path2" />
    <path
       d="m 36.8181,30 a 2,2 0 1 1 -2,-2 2,2 0 0 1 2,2"
       id="path4" />
    <path
       d="m 28.8181,30 a 2,2 0 1 1 -2,-2 2,2 0 0 1 2,2"
       id="path6" />
    <path
       fill="none"
       stroke="#000"
       stroke-linecap="round"
       stroke-linejoin="round"
       stroke-width="2"
       d="m 27.9451,38 a 6.5535,6.5535 0 0 0 6,0"
       id="path8" />
    <path
       fill="none"
       stroke="#000"
       stroke-linecap="round"
       stroke-linejoin="round"
       stroke-width="2"
       d="m 54.9451,60 -1.9375,-13.3054 0.9375,-1.25 6,-2 5,-6 a 1.4142136,1.4142136 0 0 0 -2,-2 l -3,3 c -1,1 -4,0 -7,1 -3,1 -5,3.2325 -5,5 V 60"
       id="path10" />
    <path
       fill="none"
       stroke="#000"
       stroke-linecap="round"
       stroke-linejoin="round"
       stroke-width="2"
       d="m 20.9492,38 c -3,0 -4,-7 -4,-14 0,-6 5,-12 14,-12 9,0 14,6 14,12 0,7 -1,14 -4,14"
       id="path12" />
    <path
       fill="none"
       stroke="#000"
       stroke-linejoin="round"
       stroke-width="2"
       d="m 19.8857,31 c -0.1015,7.999 4.9365,14 11,14 5.9365,0 11.0635,-6 11.0635,-14 0,-5 -3,-11 -3,-11 -8,0 -10,3 -16,1 0,0 -3,5 -3.0635,10 z"
       id="path14" />
  </g>
</g></svg>