<svg xmlns="http://www.w3.org/2000/svg" width="24" height="24" viewBox="0 0 24 24"> <g transform="translate(1.8156660600927523 0.0) scale(0.5075519393231808)">
  
  <g
     id="line"
     transform="translate(-15.742101,-11.5319)">
    <path
       d="m 34.4875,58.7188 c 0.0426,-0.1623 0.0653,-0.3326 0.0653,-0.5082 0,-1.1035 -0.8965,-2 -2,-2 h 0.0068 c -1.1035,0 -2,0.8965 -2,2 0,0.1756 0.0227,0.3459 0.0653,0.5082"
       id="path2" />
    <path
       d="m 41.1895,58.7188 c 0.0426,-0.1623 0.0653,-0.3326 0.0653,-0.5082 0,-1.1035 -0.8965,-2 -2,-2 h 0.0068 c -1.1035,0 -2,0.8965 -2,2 0,0.1756 0.0227,0.3459 0.0653,0.5082"
       id="path4" />
    <polyline
       fill="none"
       stroke="#000"
       stroke-linecap="round"
       stroke-linejoin="round"
       stroke-miterlimit="10"
       stroke-width="2"
       points="43.5227,57.796 43.5227,52.988 28.2617,52.988 28.2617,57.796"
       id="polyline6" />
    <path
       d="m 41.9302,26.9649 c 0,1.1045 -0.8965,2 -2,2 -1.1035,0 -2,-0.8955 -2,-2 0,-1.1035 0.8965,-2 2,-2 1.1035,0 2,0.8965 2,2"
       id="path8" />
    <path
       d="m 33.9302,26.9649 c 0,1.1045 -0.8965,2 -2,2 -1.1035,0 -2,-0.8955 -2,-2 0,-1.1035 0.8965,-2 2,-2 1.1035,0 2,0.8965 2,2"
       id="path10" />
    <path
       d="m 35.9301,36.9674 c -1.1519,0 -2.3037,-0.2862 -3.4473,-0.858 -0.4941,-0.247 -0.6943,-0.8476 -0.4472,-1.3417 0.2465,-0.4937 0.8462,-0.6944 1.3418,-0.4473 1.7177,0.8594 3.3877,0.8594 5.1054,0 0.4947,-0.2471 1.0948,-0.0464 1.3418,0.4473 0.2471,0.4941 0.0469,1.0947 -0.4472,1.3417 -1.1436,0.5718 -2.2954,0.858 -3.4473,0.858 z"
       id="path12" />
    <path
       fill="none"
       stroke="#000"
       stroke-miterlimit="10"
       stroke-width="2"
       d="m 46.2349,34.2468 c 0.6636,-1.8018 1.0338,-3.8074 1.0338,-5.9211 0,-0.3873 -0.0125,-0.771 -0.0368,-1.1505"
       id="path14" />
    <path
       fill="none"
       stroke="#000"
       stroke-miterlimit="10"
       stroke-width="2"
       d="m 24.6342,27.0875 c -0.0283,0.4081 -0.0427,0.821 -0.0427,1.2382 0,7.8277 5.0765,14.1733 11.3386,14.1733"
       id="path16" />
    <path
       fill="none"
       stroke="#000"
       stroke-linecap="round"
       stroke-linejoin="round"
       stroke-miterlimit="10"
       stroke-width="2"
       d="m 16.8702,57.8177 c 0,0 -2,-13 10,-13 3.1918,2.1279 5.9264,3.5984 9,3.5922 h -0.125 c 3.0736,0.0062 5.8081,-1.4643 9,-3.5922 12,0 10,13 10,13"
       id="path18" />
    <path
       fill="none"
       stroke="#000"
       stroke-linecap="round"
       stroke-linejoin="round"
       stroke-miterlimit="10"
       stroke-width="2"
       d="m 50.9022,27.5319 c 0,1.2253 -0.1469,2.4163 -0.4241,3.5563 -1.5969,6.5677 -7.5169,11.4437 -14.5759,11.4437 -7.0588,0 -12.9787,-4.8758 -14.5758,-11.4432 -0.2772,-1.1402 -0.4242,-2.3314 -0.4242,-3.5568 0,-8.2843 6.7157,-15 15,-15 8.2843,0 15,6.7157 15,15 z"
       id="path20" />
    <path
       fill="none"
       stroke="#000"
       stroke-linecap="round"
       stroke-linejoin="round"
       stroke-miterlimit="10"
       stroke-width="2"
       d="m 47.7916,28.0871 c -0.2095,-0.3904 -0.4467,-0.7659 -0.7094,-1.1234 -1.1918,-1.6212 -2.9103,-2.8724 -4.9635,-3.4745 -2.1203,-0.6217 -4.1294,-0.903 -6.2164,-0.8438 -2.0871,-0.0592 -4.0963,0.2221 -6.2165,0.8438 -2.5057,0.7348 -4.513,2.4363 -5.6725,4.5973"
       id="path22" />
    <line
       x1="53.864201"
       x2="53.864201"
       y1="25.466801"
       y2="30.2376"
       fill="none"
       stroke="#000"
       stroke-linecap="round"
       stroke-linejoin="round"
       stroke-miterlimit="10"
       stroke-width="2"
       id="line24" />
    <line
       x1="17.7512"
       x2="17.7512"
       y1="25.466801"
       y2="30.2376"
       fill="none"
       stroke="#000"
       stroke-linecap="round"
       stroke-linejoin="round"
       stroke-miterlimit="10"
       stroke-width="2"
       id="line26" />
    <path
       fill="none"
       stroke="#000"
       stroke-linecap="round"
       stroke-miterlimit="10"
       stroke-width="2"
       d="m 46.148,34.2148 c -2.5512,5.1336 -9.5918,5.1389 -9.5918,5.1389"
       id="path28" />
    <polyline
       fill="none"
       stroke="#000"
       stroke-linecap="round"
       stroke-linejoin="round"
       stroke-miterlimit="10"
       stroke-width="2"
       points="43.8305,57.796 43.8305,52.988 28.5695,52.988 28.5695,57.796"
       id="polyline30" />
    <path
       fill="none"
       stroke="#000"
       stroke-linecap="round"
       stroke-miterlimit="10"
       stroke-width="2"
       d="m 43.6021,24.3907 c 0,0 -0.2459,10.7288 2.8941,9.1588"
       id="path32" />
    <path
       fill="none"
       stroke="#000"
       stroke-linecap="round"
       stroke-miterlimit="10"
       stroke-width="2"
       d="m 33.9302,22.6961 c 0,0 -3.6548,5.391 -8.4626,8.0149"
       id="path34" />
    <path
       fill="none"
       stroke="#000"
       stroke-miterlimit="10"
       stroke-width="2"
       d="m 46.2349,34.2468 c 0.6636,-1.8018 1.0338,-3.8074 1.0338,-5.9211 0,-0.3873 -0.0125,-0.771 -0.0368,-1.1505"
       id="path36" />
    <path
       fill="none"
       stroke="#000"
       stroke-miterlimit="10"
       stroke-width="2"
       d="m 24.6342,27.0875 c -0.0283,0.4081 -0.0427,0.821 -0.0427,1.2382 0,7.8277 5.0765,14.1733 11.3386,14.1733"
       id="path38" />
    <path
       fill="none"
       stroke="#000"
       stroke-linecap="round"
       stroke-linejoin="round"
       stroke-miterlimit="10"
       stroke-width="2"
       d="m 47.7916,28.0871 c -0.2095,-0.3904 -0.4467,-0.7659 -0.7094,-1.1234 -1.1918,-1.6212 -2.9103,-2.8724 -4.9635,-3.4745 -2.1203,-0.6217 -4.1294,-0.903 -6.2164,-0.8438 -2.0871,-0.0592 -4.0963,0.2221 -6.2165,0.8438 -2.5057,0.7348 -4.513,2.4363 -5.6725,4.5973"
       id="path40" />
    <path
       fill="none"
       stroke="#000"
       stroke-linecap="round"
       stroke-miterlimit="10"
       stroke-width="2"
       d="m 43.6021,24.3907 c 0,0 -0.2459,10.7288 2.8941,9.1588"
       id="path42" />
    <path
       fill="none"
       stroke="#000"
       stroke-linecap="round"
       stroke-miterlimit="10"
       stroke-width="2"
       d="m 33.9302,22.6961 c 0,0 -3.6548,5.391 -8.4626,8.0149"
       id="path44" />
  </g>
</g></svg>