<svg xmlns="http://www.w3.org/2000/svg" width="24" height="24" viewBox="0 0 24 24"> <g transform="scale(0.5)">
  
  <g
     id="line"
     transform="translate(-12,-13)">
    <rect
       x="13"
       y="14"
       width="46"
       height="46"
       fill="none"
       stroke="#000"
       stroke-linecap="round"
       stroke-linejoin="round"
       stroke-width="2"
       id="rect2" />
    <path
       fill="none"
       stroke="#000"
       stroke-linecap="round"
       stroke-linejoin="round"
       stroke-width="2"
       d="M 43,36.9 41,39 a 11.1844,11.1844 0 0 1 -3.8,1 3,3 0 1 0 -0.4,0 9.2887,9.2887 0 0 1 -3.8,-1 l -0.3,0.3 -1.5,-4 A 6.027,6.027 0 0 1 43,36.9 Z"
       id="path4" />
    <rect
       x="29.5"
       y="50"
       width="13"
       height="10"
       fill="none"
       stroke="#000"
       stroke-linecap="round"
       stroke-linejoin="round"
       stroke-width="2"
       id="rect6" />
    <line
       x1="36"
       x2="36"
       y1="60"
       y2="50"
       fill="none"
       stroke="#000"
       stroke-linecap="round"
       stroke-linejoin="round"
       stroke-width="2"
       id="line8" />
    <polygon
       fill="none"
       stroke="#000"
       stroke-linecap="round"
       stroke-linejoin="round"
       stroke-width="2"
       points="26.7,38.8 31,34.5 31.2,35.3 32.7,39.3 31.3,40.7 "
       id="polygon10" />
    <polygon
       fill="none"
       stroke="#000"
       stroke-linecap="round"
       stroke-linejoin="round"
       stroke-width="2"
       points="41,39 43,36.9 44.9,35 47,37 43,41 "
       id="polygon12" />
    <path
       fill="none"
       stroke="#000"
       stroke-linecap="round"
       stroke-linejoin="round"
       stroke-width="2"
       d="m 43,41 a 8.8127,8.8127 0 0 1 -5.5,2 H 36.6 A 8.8792,8.8792 0 0 1 31,41 l 2,-2 a 11.1844,11.1844 0 0 0 3.8,1 h 0.4 A 9.2887,9.2887 0 0 0 41,39 Z"
       id="path14" />
    <polyline
       fill="none"
       stroke="#000"
       stroke-linecap="round"
       stroke-linejoin="round"
       stroke-width="2"
       points="21 25 19 25 19 20"
       id="polyline16" />
    <polyline
       fill="none"
       stroke="#000"
       stroke-linecap="round"
       stroke-linejoin="round"
       stroke-width="2"
       points="53 35 51 35 51 30"
       id="polyline18" />
    <polyline
       fill="none"
       stroke="#000"
       stroke-linecap="round"
       stroke-linejoin="round"
       stroke-width="2"
       points="45 25 43 25 43 20"
       id="polyline20" />
    <polyline
       fill="none"
       stroke="#000"
       stroke-linecap="round"
       stroke-linejoin="round"
       stroke-width="2"
       points="53 25 51 25 51 20"
       id="polyline22" />
    <polyline
       fill="none"
       stroke="#000"
       stroke-linecap="round"
       stroke-linejoin="round"
       stroke-width="2"
       points="37 25 35 25 35 20"
       id="polyline24" />
    <polyline
       fill="none"
       stroke="#000"
       stroke-linecap="round"
       stroke-linejoin="round"
       stroke-width="2"
       points="29 25 27 25 27 20"
       id="polyline26" />
    <polyline
       fill="none"
       stroke="#000"
       stroke-linecap="round"
       stroke-linejoin="round"
       stroke-width="2"
       points="21 35 19 35 19 30"
       id="polyline28" />
    <polyline
       fill="none"
       stroke="#000"
       stroke-linecap="round"
       stroke-linejoin="round"
       stroke-width="2"
       points="21 45 19 45 19 40"
       id="polyline30" />
    <polyline
       fill="none"
       stroke="#000"
       stroke-linecap="round"
       stroke-linejoin="round"
       stroke-width="2"
       points="53 45 51 45 51 40"
       id="polyline32" />
    <polyline
       fill="none"
       stroke="#000"
       stroke-linecap="round"
       stroke-linejoin="round"
       stroke-width="2"
       points="53 55 51 55 51 50"
       id="polyline34" />
    <polyline
       fill="none"
       stroke="#000"
       stroke-linecap="round"
       stroke-linejoin="round"
       stroke-width="2"
       points="21 55 19 55 19 50"
       id="polyline36" />
  </g>
</g></svg>