<svg xmlns="http://www.w3.org/2000/svg" width="24" height="24" viewBox="0 0 24 24"> <g transform="translate(0.0 4.5) scale(0.375)">
  
  <g
     id="line-supplement"
     transform="translate(-4,-16)">
    <path
       fill="#000"
       fill-rule="evenodd"
       d="M 5,17 H 67 V 55 H 5 Z m 17.7242,1.8299 c 0.7008,0.1574 1.3075,0.6283 1.7312,1.3059 0.5735,0.9089 0.1915,1.7602 -0.2106,2.2807 C 24.103,22.6 23.949,22.7578 23.81,22.885 c 0.3138,0.3043 0.7618,0.7477 1.2776,1.3067 0.1756,0.1902 0.1769,0.4831 0.003,0.6749 l -2.2202,2.4492 c -0.0919,0.1014 -0.2213,0.1607 -0.3581,0.164 -0.1369,0.0034 -0.2691,-0.0495 -0.3659,-0.1463 l -1.397,-1.397 c -0.1255,0.0871 -0.2782,0.1854 -0.4493,0.2795 -0.4453,0.2449 -1.148,0.5367 -1.8293,0.3422 -0.5355,-0.1511 -0.9822,-0.4353 -1.2721,-0.863 -0.291,-0.4292 -0.3886,-0.9505 -0.3211,-1.5079 0.0027,-0.0217 0.0067,-0.0433 0.0122,-0.0645 0.3462,-1.3461 1.5052,-2.1601 2.7983,-2.1463 -0.0766,-0.9268 0.2289,-1.8932 0.8735,-2.5755 0.018,-0.0191 0.0376,-0.0368 0.0585,-0.0529 0.6526,-0.5022 1.396,-0.6774 2.1041,-0.5182 z m 26.6651,0.0064 c 0.7251,-0.1348 1.4882,0.053 2.14,0.5546 0.0208,0.016 0.0403,0.0336 0.0583,0.0526 0.6482,0.6852 0.9208,1.6223 0.836,2.5282 1.2844,-0.0251 2.4835,0.7207 2.8346,2.0848 0.0055,0.0212 0.0095,0.0428 0.0122,0.0646 0.146,1.2069 -0.6277,2.149 -1.724,2.4581 -0.6859,0.1955 -1.3799,-0.1065 -1.816,-0.3583 -0.1618,-0.0934 -0.3065,-0.1907 -0.4264,-0.2778 l -1.3204,1.3205 c -0.0995,0.0994 -0.2362,0.1524 -0.3767,0.1459 -0.1405,-0.0065 -0.2717,-0.0718 -0.3615,-0.18 l -2.1175,-2.5496 c -0.1605,-0.1934 -0.1526,-0.4759 0.0186,-0.66 L 48.216,22.87 c -0.141,-0.1297 -0.2991,-0.2933 -0.4437,-0.485 -0.3939,-0.5221 -0.7573,-1.3683 -0.1872,-2.2717 0.4345,-0.6941 1.0802,-1.1425 1.8042,-1.277 z m -26.458,25.5074 c 0.1558,0.0193 0.2934,0.1105 0.3718,0.2464 l 1.7471,3.0288 c 0.1129,0.1958 0.0805,0.4429 -0.0791,0.6029 l -1.0555,1.0585 c 0.3555,0.3799 0.5441,0.7872 0.6221,1.1914 0.1004,0.5209 0.007,0.9943 -0.0557,1.2967 -0.0109,0.0523 -0.0301,0.1025 -0.0568,0.1487 -0.4216,0.7289 -1.0675,1.1696 -1.8,1.2674 -0.7247,0.0967 -1.4725,-0.1497 -2.1023,-0.6701 -0.0158,-0.0131 -0.0309,-0.0272 -0.045,-0.0421 -0.3833,-0.4057 -0.6765,-0.8557 -0.8308,-1.3685 -0.0966,-0.321 -0.1351,-0.6547 -0.115,-1.0022 -1.2867,-0.0506 -2.4144,-0.7984 -2.7693,-2.1781 -0.0055,-0.0212 -0.0096,-0.0428 -0.0122,-0.0645 -0.0681,-0.5633 0.0388,-1.1045 0.3252,-1.5518 0.2869,-0.4482 0.7341,-0.7707 1.2892,-0.9276 0.9479,-0.281 1.9487,0.0184 2.5886,0.7208 l 1.5572,-1.6083 c 0.1091,-0.1127 0.2648,-0.1676 0.4205,-0.1484 z m 26.2276,0.0901 c 0.1469,-0.0181 0.2942,0.0298 0.4023,0.1308 0.6428,0.6001 1.128,1.1286 1.4524,1.4924 0.6197,-0.6754 1.5542,-0.9357 2.4888,-0.6578 1.1382,0.3225 1.8186,1.3812 1.678,2.5443 -0.0027,0.0217 -0.0067,0.0432 -0.0121,0.0643 -0.3569,1.3893 -1.6032,2.0492 -2.8789,2.0042 0.0823,0.8982 -0.1914,1.8179 -0.8365,2.5008 -0.0142,0.0149 -0.0292,0.029 -0.045,0.0421 -0.6357,0.5252 -1.393,0.7574 -2.1218,0.6472 -0.7333,-0.111 -1.3815,-0.5607 -1.8017,-1.2882 -0.004,-0.0069 -0.0078,-0.014 -0.0115,-0.0211 -0.0037,-0.0073 -0.0073,-0.0146 -0.0107,-0.0221 -0.2136,-0.47 -0.2846,-1.0049 -0.1148,-1.5551 0.1234,-0.4 0.3652,-0.7795 0.7247,-1.1328 l -1.051,-1.0503 C 46.8542,47.9657 46.8266,47.705 46.9549,47.507 l 1.8455,-2.8488 c 0.0804,-0.1242 0.2117,-0.2064 0.3585,-0.2244 z M 35.2,23.42 C 24.9,23.3255 20.31,36.09 27.6,43.08 l 0.0682,0.0682 c 0.7569,0.6775 1.262,1.592 1.433,2.593 v 2.866 c 0.0044,0.3032 -0.9173,0.6422 -1.221,0.6379 0.7134,0.51 1.8109,0.9445 3.1198,1.2657 V 48.652 c 0,-0.1326 0.0527,-0.2598 0.1464,-0.3536 0.0938,-0.0937 0.221,-0.1464 0.3536,-0.1464 0.1326,0 0.2598,0.0527 0.3536,0.1464 C 31.9473,48.3922 32,48.5194 32,48.652 v 2.0744 c 0.6371,0.1196 1.3092,0.2139 2,0.2793 V 48.652 c 0,-0.1326 0.0527,-0.2598 0.1464,-0.3536 0.0938,-0.0937 0.221,-0.1464 0.3536,-0.1464 0.1326,0 0.2598,0.0527 0.3536,0.1464 C 34.9473,48.3922 35,48.5194 35,48.652 v 2.4274 c 0.6614,0.0348 1.3325,0.0428 2,0.021 V 48.652 c 0,-0.1326 0.0527,-0.2598 0.1464,-0.3536 0.0938,-0.0937 0.221,-0.1464 0.3536,-0.1464 0.1326,0 0.2598,0.0527 0.3536,0.1464 C 37.9473,48.3922 38,48.5194 38,48.652 v 2.3927 c 0.6826,-0.0542 1.3542,-0.1418 2,-0.266 V 48.652 c 0,-0.1326 0.0527,-0.2598 0.1464,-0.3536 0.0938,-0.0937 0.221,-0.1464 0.3536,-0.1464 0.1326,0 0.2598,0.0527 0.3536,0.1464 C 40.9473,48.3922 41,48.5194 41,48.652 v 1.8986 c 1.2755,-0.3401 2.4062,-0.8454 3.2602,-1.5447 -0.4634,-0.6553 -0.8904,-1.1023 -1.2198,-1.4471 -0.8709,-0.9119 -1.0588,-1.1086 0.5688,-2.5489 9.338,-8.941 1.889,-21.5 -8.414,-21.59 z m -0.88,16.12 c 0,1.6569 -1.3431,3 -3,3 -1.6568,0 -3,-1.3431 -3,-3 0,-1.6568 1.3432,-3 3,-3 1.6569,0 3,1.3432 3,3 z m 6.36,3 c 1.6568,0 3,-1.3431 3,-3 0,-1.6568 -1.3432,-3 -3,-3 -1.6569,0 -3,1.3432 -3,3 0,1.6569 1.3431,3 3,3 z m -2.4087,2.34 c 0.3397,0.5741 -0.5214,1.0842 -0.8613,0.51 l -1.5156,-2.561 -1.516,2.561 c -0.3399,0.574 -1.2012,0.0642 -0.8613,-0.51 l 1.978,-3.343 c 0.0894,-0.1605 0.2629,-0.2556 0.3991,-0.2446 0.1362,-0.011 0.3097,0.0841 0.3991,0.2446 z"
       clip-rule="evenodd"
       id="path2" />
    <path
       fill="#000"
       d="m 43.36,51.61 c -0.2607,-2e-4 -0.511,-0.1022 -0.6976,-0.2842 -0.1866,-0.1821 -0.2948,-0.4298 -0.3014,-0.6904 l -0.0732,-4.865 c 0.166,-1.0908 0.7422,-2.077 1.611,-2.757 l 0.27,-0.2769 c 1.9212,-1.9825 2.978,-4.6457 2.939,-7.406 -0.0132,-2.9369 -1.1919,-5.7484 -3.277,-7.8166 -2.0852,-2.0683 -4.9061,-3.2241 -7.843,-3.2134 -0.7514,8e-4 -1.5013,0.0647 -2.242,0.1909 -1.9225,0.3738 -3.7094,1.2568 -5.1742,2.557 -1.4648,1.3001 -2.5536,2.9696 -3.153,4.8342 -0.5993,1.8645 -0.6871,3.8558 -0.2541,5.7659 0.4329,1.9101 1.3706,3.6689 2.7153,5.0929 0.7676,0.8052 1.732,1.817 1.732,3.004 v 5.866 c 0,0.2652 -0.1054,0.5195 -0.2929,0.7071 -0.1875,0.1875 -0.4419,0.2929 -0.7071,0.2929 -0.2652,0 -0.5196,-0.1054 -0.7071,-0.2929 -0.1875,-0.1876 -0.2929,-0.4419 -0.2929,-0.7071 v -5.866 c 0,-0.3867 -0.7822,-1.208 -1.116,-1.558 l -0.0732,-0.0767 c -1.5916,-1.6858 -2.7012,-3.7681 -3.2125,-6.0294 -0.5114,-2.2613 -0.4059,-4.6185 0.3056,-6.8251 0.7114,-2.2065 2.0026,-4.1814 3.7385,-5.7181 1.7359,-1.5367 3.8528,-2.5789 6.1294,-3.0174 0.8601,-0.1481 1.7312,-0.2231 2.604,-0.2241 3.4639,-0.0107 6.7905,1.3531 9.2501,3.7921 2.4596,2.439 3.8514,5.754 3.8699,9.2179 0.0464,3.2797 -1.2064,6.4446 -3.485,8.804 l -0.3047,0.3111 c -0.2793,0.2822 -1.024,1.032 -1.03,1.323 l 0.0732,4.84 c 0.0064,0.2651 -0.0926,0.5219 -0.2753,0.7141 -0.1827,0.1921 -0.4342,0.304 -0.6993,0.3109 z"
       id="path4" />
  </g>
  <g
     id="line"
     transform="translate(-4,-16)">
    <path
       fill="#000"
       d="M 67,56 H 5 C 4.73478,56 4.48043,55.8946 4.29289,55.7071 4.10536,55.5196 4,55.2652 4,55 V 17 C 4,16.7348 4.10536,16.4804 4.29289,16.2929 4.48043,16.1054 4.73478,16 5,16 h 62 c 0.2652,0 0.5196,0.1054 0.7071,0.2929 C 67.8946,16.4804 68,16.7348 68,17 v 38 c 0,0.2652 -0.1054,0.5196 -0.2929,0.7071 C 67.5196,55.8946 67.2652,56 67,56 Z M 6,54 H 66 V 18 H 6 Z"
       id="path7" />
  </g>
</g></svg>