<svg xmlns="http://www.w3.org/2000/svg" width="24" height="24" viewBox="0 0 24 24"> <g transform="scale(0.41379310344827586)">
  
  <g
     id="line"
     transform="translate(-7,-7)">
    <g
       id="line-2">
      <circle
         cx="36"
         cy="36"
         r="28"
         fill="none"
         stroke="#000"
         stroke-linejoin="round"
         stroke-width="2"
         id="circle2" />
    </g>
    <path
       fill="none"
       stroke="#000"
       stroke-linejoin="round"
       stroke-width="2"
       d="m 44.4951,21.122 c -0.4805,-0.2759 -1.0918,-0.1074 -1.3643,0.3721 L 35.9937,33.9845 28.8691,21.5161 c -0.2734,-0.48 -0.8857,-0.6475 -1.3643,-0.3721 -0.4795,0.2739 -0.6465,0.8848 -0.3721,1.3643 L 34.842,36 27.1327,49.4917 c -0.2744,0.4795 -0.1074,1.0903 0.3721,1.3643 0.1562,0.0894 0.3271,0.1318 0.4951,0.1318 0.3477,0 0.6846,-0.1807 0.8691,-0.5039 l 7.1246,-12.4684 7.1371,12.4904 c 0.1846,0.3232 0.5215,0.5039 0.8691,0.5039 0.168,0 0.3389,-0.0425 0.4951,-0.1318 0.4795,-0.2739 0.6465,-0.8848 0.3721,-1.3643 L 37.1452,36 44.867,22.4863 c 0.2744,-0.4795 0.1074,-1.0903 -0.3721,-1.3643 z"
       id="path5" />
  </g>
</g></svg>