<svg xmlns="http://www.w3.org/2000/svg" width="24" height="24" viewBox="0 0 24 24"> <g transform="translate(8.015961778564956 0.0) scale(0.40805221680997633)">
  
  <g
     id="line"
     transform="translate(-26.1742,-6.5)">
    <path
       fill="none"
       stroke="#000"
       stroke-linecap="round"
       stroke-linejoin="round"
       stroke-width="1.6"
       d="m 40.5028,8.03 v 5.12 c 0,0 -0.47,1.12 -1.12,0 v -2.04 h -6.76 v 2.08 c -0.65,1.12 -1.12,0 -1.12,0 V 8.03 a 0.7341,0.7341 0 0 1 0.73,-0.73 h 7.54 a 0.7341,0.7341 0 0 1 0.73,0.73 z"
       id="path2" />
    <g
       id="line-2">
      <g
         id="Standing_Man">
        <g
           id="line-2-2">
          <path
             fill="none"
             stroke="#000"
             stroke-linecap="round"
             stroke-linejoin="round"
             stroke-width="1.6"
             d="m 38.9727,12.08 a 2.97,2.97 0 1 1 -5.94,0"
             id="path4" />
          <path
             fill="none"
             stroke="#000"
             stroke-linecap="round"
             stroke-linejoin="round"
             stroke-width="1.6"
             d="m 40.9713,24.516 c 0,0 -0.275,4.5 -0.2,6 0.0686,1.3717 0.7744,5.4868 0.7744,5.4868 l 1.3256,26.5132 c 0.055,1.1 -0.575,2 -1.4,2 a 2.076,2.076 0 0 1 -1.729,-1.987 L 37.2,40.498 c -0.129,-1.093 -0.679,-1.987 -1.229,-1.987 -0.55,0 -1.103,0.894 -1.229,1.987 l -2.539,22.031 a 2.076,2.076 0 0 1 -1.729,1.987 c -0.825,0 -1.455,-0.9 -1.4,-2 L 30.4,36.0023 c 0.1087,-2.1733 0.7035,-4.07 0.7737,-5.4738 0.0752,-1.5032 -0.1994,-6.0125 -0.1994,-6.0125"
             id="path6" />
          <path
             fill="none"
             stroke="#000"
             stroke-linecap="round"
             stroke-linejoin="round"
             stroke-width="1.6"
             d="m 26.9742,42.516 0.792,-19 a 5.274,5.274 0 0 1 5.208,-5 h 6"
             id="path8" />
        </g>
        <path
           fill="none"
           stroke="#000"
           stroke-linecap="round"
           stroke-linejoin="round"
           stroke-width="1.6"
           d="m 38.9013,18.5159 a 5.274,5.274 0 0 1 5.208,5 l 0.792,19"
           id="path11" />
      </g>
    </g>
  </g>
</g></svg>