<svg xmlns="http://www.w3.org/2000/svg" width="24" height="24" viewBox="0 0 24 24"> <g transform="scale(0.48)">
  
  <g
     id="line"
     transform="translate(-11,-11.1663)">
    <rect
       x="12"
       y="12.1663"
       width="48"
       height="48"
       fill="none"
       stroke="#000"
       stroke-linecap="round"
       stroke-linejoin="round"
       stroke-width="2"
       id="rect2" />
    <path
       fill="none"
       stroke="#000"
       stroke-linecap="round"
       stroke-linejoin="round"
       stroke-width="2"
       d="m 31.3392,40.518 v 0 a 4.3461,4.3461 0 0 0 4.3459,4.3459 h 0.63 A 4.3459,4.3459 0 0 0 40.661,40.518 v 0 a 4.346,4.346 0 0 0 -4.3459,-4.3459 h -0.63 a 4.3462,4.3462 0 0 0 -4.3459,4.3459 z"
       id="path4" />
    <path
       fill="none"
       stroke="#000"
       stroke-linecap="round"
       stroke-linejoin="round"
       stroke-width="2"
       d="m 31.3392,31.8143 v 0 a 4.346,4.346 0 0 0 4.3459,4.3457 h 0.63 a 4.3458,4.3458 0 0 0 4.3459,-4.3459 v 0 a 4.3458,4.3458 0 0 0 -4.3459,-4.3456 h -0.63 a 4.346,4.346 0 0 0 -4.3459,4.3458 z"
       id="path6" />
  </g>
</g></svg>