<svg xmlns="http://www.w3.org/2000/svg" width="24" height="24" viewBox="0 0 24 24"> <g transform="translate(0.0 3.5543096622381753) scale(0.4122188538598284)">
  
  <g
     id="line"
     transform="translate(-6.8816,-15.522366)">
    <path
       fill="none"
       stroke="#000"
       stroke-linecap="round"
       stroke-linejoin="round"
       stroke-miterlimit="10"
       stroke-width="2"
       d="m 47.6321,55.4945 c 9.0883,0 16.4558,-7.3675 16.4558,-16.4558 0,-9.0883 -7.3675,-16.4558 -16.4558,-16.4558"
       id="path2" />
    <line
       x1="46.758499"
       x2="34.758499"
       y1="55.494499"
       y2="55.494499"
       fill="none"
       stroke="#000"
       stroke-linecap="round"
       stroke-linejoin="round"
       stroke-miterlimit="10"
       stroke-width="2"
       id="line4" />
    <path
       fill="none"
       stroke="#000"
       stroke-linecap="round"
       stroke-linejoin="round"
       stroke-miterlimit="10"
       stroke-width="2"
       d="m 34.4651,48.5022 c -1.9313,0.081 -3.4313,1.7123 -3.3502,3.6436 0.081,1.9313 1.7123,3.4313 3.6436,3.3502"
       id="path6" />
    <path
       fill="none"
       stroke="#000"
       stroke-linecap="round"
       stroke-linejoin="round"
       stroke-miterlimit="10"
       stroke-width="2"
       d="m 34.2322,41.5052 c -1.9313,0.081 -3.4312,1.7123 -3.3502,3.6436 0.081,1.9313 1.7123,3.4313 3.6436,3.3502"
       id="path8" />
    <path
       fill="none"
       stroke="#000"
       stroke-linecap="round"
       stroke-linejoin="round"
       stroke-miterlimit="10"
       stroke-width="2"
       d="m 34.0984,41.5093 c -1.9268,0.155 -3.3631,1.8426 -3.2081,3.7694 0.155,1.9268 1.8426,3.3631 3.7694,3.2081"
       id="path10" />
    <path
       fill="none"
       stroke="#000"
       stroke-linecap="round"
       stroke-linejoin="round"
       stroke-miterlimit="10"
       stroke-width="2"
       d="m 33.7539,34.4677 c -1.929,0.1237 -3.3925,1.7878 -3.2688,3.7168 0.1237,1.929 1.7878,3.3925 3.7168,3.2688"
       id="path12" />
    <path
       fill="none"
       stroke="#000"
       stroke-linecap="round"
       stroke-linejoin="round"
       stroke-miterlimit="10"
       stroke-width="2"
       d="m 35.9776,17.5139 c -1.3904,-1.3429 -3.6061,-1.3044 -4.949,0.086 -1.3429,1.3904 -1.3044,3.6061 0.086,4.949"
       id="path14" />
    <path
       fill="none"
       stroke="#000"
       stroke-linecap="round"
       stroke-linejoin="round"
       stroke-miterlimit="10"
       stroke-width="2"
       d="m 11.3816,27.4677 c -1.933,0 -3.5,1.567 -3.5,3.5 0,1.933 1.567,3.5 3.5,3.5"
       id="path16" />
    <line
       x1="33.7169"
       x2="11.3816"
       y1="34.467701"
       y2="34.467701"
       fill="none"
       stroke="#000"
       stroke-linecap="round"
       stroke-linejoin="round"
       stroke-miterlimit="10"
       stroke-width="2"
       id="line18" />
    <line
       x1="11.3816"
       x2="39.172199"
       y1="27.467699"
       y2="27.467699"
       fill="none"
       stroke="#000"
       stroke-linecap="round"
       stroke-linejoin="round"
       stroke-miterlimit="10"
       stroke-width="2"
       id="line20" />
    <line
       x1="33.3283"
       x2="31.1145"
       y1="24.5068"
       y2="22.5488"
       fill="none"
       stroke="#000"
       stroke-linecap="round"
       stroke-linejoin="round"
       stroke-miterlimit="10"
       stroke-width="2"
       id="line22" />
    <path
       fill="none"
       stroke="#000"
       stroke-linecap="round"
       stroke-linejoin="round"
       stroke-miterlimit="10"
       stroke-width="2"
       d="m 38.2972,19.2815 c 2.1439,1.9526 5.1677,3.3734 9.5218,3.3013"
       id="path24" />
    <line
       x1="35.9776"
       x2="38.3577"
       y1="17.513901"
       y2="19.3353"
       fill="none"
       stroke="#000"
       stroke-linecap="round"
       stroke-linejoin="round"
       stroke-miterlimit="10"
       stroke-width="2"
       id="line26" />
    <path
       fill="none"
       stroke="#000"
       stroke-linecap="round"
       stroke-linejoin="round"
       stroke-miterlimit="10"
       stroke-width="2"
       d="m 47.6473,55.4792 c 9.0883,0 16.4558,-7.3675 16.4558,-16.4558 0,-9.0883 -7.3675,-16.4558 -16.4558,-16.4558"
       id="path28" />
    <line
       x1="46.7738"
       x2="34.7738"
       y1="55.479198"
       y2="55.479198"
       fill="none"
       stroke="#000"
       stroke-linecap="round"
       stroke-linejoin="round"
       stroke-miterlimit="10"
       stroke-width="2"
       id="line30" />
    <path
       fill="none"
       stroke="#000"
       stroke-linecap="round"
       stroke-linejoin="round"
       stroke-miterlimit="10"
       stroke-width="2"
       d="m 34.4804,48.4869 c -1.9313,0.081 -3.4313,1.7123 -3.3502,3.6436 0.081,1.9313 1.7123,3.4312 3.6436,3.3502"
       id="path32" />
    <path
       fill="none"
       stroke="#000"
       stroke-linecap="round"
       stroke-linejoin="round"
       stroke-miterlimit="10"
       stroke-width="2"
       d="m 34.2475,41.49 c -1.9313,0.081 -3.4312,1.7123 -3.3502,3.6436 0.081,1.9313 1.7123,3.4313 3.6436,3.3502"
       id="path34" />
    <path
       fill="none"
       stroke="#000"
       stroke-linecap="round"
       stroke-linejoin="round"
       stroke-miterlimit="10"
       stroke-width="2"
       d="m 34.1136,41.494 c -1.9268,0.155 -3.3631,1.8426 -3.2081,3.7694 0.155,1.9268 1.8426,3.3631 3.7694,3.2081"
       id="path36" />
    <path
       fill="none"
       stroke="#000"
       stroke-linecap="round"
       stroke-linejoin="round"
       stroke-miterlimit="10"
       stroke-width="2"
       d="m 33.7692,34.4524 c -1.929,0.1237 -3.3925,1.7878 -3.2688,3.7168 0.1237,1.929 1.7878,3.3925 3.7168,3.2688"
       id="path38" />
    <path
       fill="none"
       stroke="#000"
       stroke-linecap="round"
       stroke-linejoin="round"
       stroke-miterlimit="10"
       stroke-width="2"
       d="m 35.9928,17.4986 c -1.3904,-1.3429 -3.6061,-1.3044 -4.949,0.086 -1.3429,1.3904 -1.3044,3.6061 0.086,4.949"
       id="path40" />
    <path
       fill="none"
       stroke="#000"
       stroke-linecap="round"
       stroke-linejoin="round"
       stroke-miterlimit="10"
       stroke-width="2"
       d="m 11.3969,27.4524 c -1.933,0 -3.5,1.567 -3.5,3.5 0,1.933 1.567,3.5 3.5,3.5"
       id="path42" />
    <line
       x1="33.732101"
       x2="11.3969"
       y1="34.4524"
       y2="34.4524"
       fill="none"
       stroke="#000"
       stroke-linecap="round"
       stroke-linejoin="round"
       stroke-miterlimit="10"
       stroke-width="2"
       id="line44" />
    <line
       x1="11.3969"
       x2="39.1875"
       y1="27.4524"
       y2="27.4524"
       fill="none"
       stroke="#000"
       stroke-linecap="round"
       stroke-linejoin="round"
       stroke-miterlimit="10"
       stroke-width="2"
       id="line46" />
    <line
       x1="33.343498"
       x2="31.129801"
       y1="24.4916"
       y2="22.5336"
       fill="none"
       stroke="#000"
       stroke-linecap="round"
       stroke-linejoin="round"
       stroke-miterlimit="10"
       stroke-width="2"
       id="line48" />
    <path
       fill="none"
       stroke="#000"
       stroke-linecap="round"
       stroke-linejoin="round"
       stroke-miterlimit="10"
       stroke-width="2"
       d="m 38.3125,19.2663 c 2.1439,1.9526 5.1677,3.3734 9.5218,3.3013"
       id="path50" />
    <line
       x1="35.992802"
       x2="38.373001"
       y1="17.4986"
       y2="19.32"
       fill="none"
       stroke="#000"
       stroke-linecap="round"
       stroke-linejoin="round"
       stroke-miterlimit="10"
       stroke-width="2"
       id="line52" />
  </g>
</g></svg>