<svg xmlns="http://www.w3.org/2000/svg" width="24" height="24" viewBox="0 0 24 24"> <g transform="translate(0.0 6.698186279394966) scale(0.3762427710242462)">
  
  <g
     id="line"
     transform="translate(-4.1057,-21.90866)">
    <g
       id="line-2">
      <path
         fill="none"
         stroke="#000"
         stroke-linecap="round"
         stroke-linejoin="round"
         stroke-width="2"
         d="m 66.8943,40.7167 c -0.1621,-0.0541 -5.9053,-3.6412 -7.3163,-5.9648 -1.5669,-2.58 -3.41,-5.6965 -4.431,-7.43 -0.508,-0.8628 -1.2981,-1.524 -2.237,-1.8719 l -6.0945,-2.2677 c -1.0784,-0.4005 -2.2711,-0.3602 -3.32,0.1121 -1.3586,0.5927 -2.6739,1.2799 -3.9364,2.0565 -1.23,0.7937 -2.5159,3.5389 -3.4128,4.9279 -0.1856,0.2911 -0.1,0.6775 0.1911,0.8631 0.1925,0.1227 0.4367,0.1307 0.6368,0.0209 L 41.4808,27.7 c 0,0 4.4922,-1.8756 6.5491,2.1356 2.2451,4.3781 0.9255,8.044 -5.1254,11.0338 -4.9572,2.45 -6.3787,4.4689 -6.3,5.8626 0.0248,0.4387 1.2707,1.6818 1.673,1.5052 1.3074,-0.5739 6.0071,-2.4243 8.1152,-2.1 2.0343,0.4531 4.1546,0.3289 6.1221,-0.3585 2.0452,-0.9738 4.4562,-0.771 6.31,0.5307 l 3.7986,2.7821"
         id="path2" />
      <path
         fill="none"
         stroke="#000"
         stroke-linecap="round"
         stroke-linejoin="round"
         stroke-width="2"
         d="m 5.1057,40.7167 c 0.1621,-0.0541 5.9053,-3.6412 7.3163,-5.9648 1.5669,-2.58 3.41,-5.6965 4.431,-7.43 0.508,-0.8628 1.2981,-1.524 2.237,-1.8719 l 6.0945,-2.2677 c 1.0784,-0.4005 2.2711,-0.3602 3.32,0.1121 1.3586,0.5927 2.6739,1.2799 3.9364,2.0565 1.23,0.7937 2.5159,3.5389 3.4128,4.9279 0.1856,0.2911 0.1,0.6775 -0.1911,0.8631 -0.1925,0.1227 -0.4367,0.1307 -0.6368,0.0209 L 30.5192,27.7 c 0,0 -4.4922,-1.8755 -6.5492,2.1357 -2.2451,4.3781 -0.9255,8.044 5.1254,11.0338 4.9572,2.45 6.3787,4.4689 6.3,5.8626 -0.0248,0.4387 -1.2707,1.6818 -1.673,1.5052 -1.3074,-0.5739 -6.0071,-2.4243 -8.1152,-2.1 -2.0343,0.4531 -4.1546,0.3289 -6.1221,-0.3585 -2.0452,-0.9738 -4.4562,-0.771 -6.31,0.5307 l -3.7982,2.7821"
         id="path4" />
    </g>
  </g>
</g></svg>