<svg xmlns="http://www.w3.org/2000/svg" width="24" height="24" viewBox="0 0 24 24"> <g transform="translate(3.1997170583517995 0.0) scale(0.4384879350136033)">
  
  <g
     id="line"
     transform="translate(-16.062926,-7.1189541)">
    <path
       fill="#000"
       d="m 46.0343,10.04 a 0.9778,0.9778 0 0 0 -0.73,-0.27 c -0.14,0 -0.31,0.01 -0.5,0.01 -2,-0.01 -6.2,-0.4 -7.85,-2.26 a 0.7549,0.7549 0 0 0 -0.15,-0.16 0.8955,0.8955 0 0 0 -0.36,-0.19 0.2666,0.2666 0 0 0 -0.12,-0.03 0.4678,0.4678 0 0 0 -0.17,-0.02 0.4959,0.4959 0 0 0 -0.17,0.02 0.2669,0.2669 0 0 0 -0.12,0.03 0.9073,0.9073 0 0 0 -0.47,0.31 c -0.01,0.01 -0.02,0.03 -0.04,0.04 a 7.1557,7.1557 0 0 1 -3.79,1.83 20.8291,20.8291 0 0 1 -4.07,0.42 c -0.18,0 -0.35,0 -0.49,-0.01 a 1.0616,1.0616 0 0 0 -0.74,0.28 1.0224,1.0224 0 0 0 -0.3,0.72 v 8.47 c 0,0.02 0.01,0.05 0.01,0.07 a 1.1967,1.1967 0 0 0 0.03,0.42 0.8958,0.8958 0 0 0 0.13,0.28 1.0243,1.0243 0 0 0 0.83,0.44 0.9818,0.9818 0 0 0 0.29,-0.05 29.9743,29.9743 0 0 1 17.79,0 0.9975,0.9975 0 0 0 1.18,-0.49 0.7635,0.7635 0 0 0 0.07,-0.16 0.5636,0.5636 0 0 0 0.03,-0.18 0.7561,0.7561 0 0 0 0,-0.26 0.1445,0.1445 0 0 0 0.02,-0.07 v -8.47 a 0.9917,0.9917 0 0 0 -0.31,-0.72 z m -1.69,8.09 a 31.6982,31.6982 0 0 0 -16.38,0.01 v -6.38 c 0.22,0 0.48,-0.01 0.76,-0.03 2.04,-0.12 5.36,-0.57 7.43,-2.24 2.07,1.67 5.39,2.12 7.43,2.24 0.28,0.02 0.54,0.03 0.76,0.03 z"
       id="path2" />
    <path
       d="m 36.63,11.7122 v 1.4419 h 1.4419 v 1.0151 H 36.63 v 1.4419 H 35.6149 V 14.1692 H 34.173 v -1.0151 h 1.4419 V 11.7122 H 36.63 m 0,-1 h -1.0151 a 1,1 0 0 0 -1,1 v 0.4419 H 34.173 a 1,1 0 0 0 -1,1 v 1.0151 a 1,1 0 0 0 1,1 h 0.4419 v 0.4419 a 1,1 0 0 0 1,1 H 36.63 a 1,1 0 0 0 1,-1 v -0.4419 h 0.4419 a 1,1 0 0 0 1,-1 v -1.0151 a 1,1 0 0 0 -1,-1 H 37.63 v -0.4419 a 1,1 0 0 0 -1,-1 z"
       id="path4" />
    <g
       id="line-2">
      <path
         d="m 42.2555,29.07 a 2,2 0 1 1 -2,-2 2.0007,2.0007 0 0 1 2,2 z"
         id="path6" />
      <path
         d="m 34.2555,29.07 a 2,2 0 1 1 -2,-2 2.0007,2.0007 0 0 1 2,2 z"
         id="path8" />
      <path
         d="m 36.2553,39.0725 a 7.6524,7.6524 0 0 1 -3.4472,-0.8579 1.0000814,1.0000814 0 1 1 0.8945,-1.789 5.3779,5.3779 0 0 0 5.1055,0 1.0000814,1.0000814 0 1 1 0.8945,1.789 7.6528,7.6528 0 0 1 -3.4473,0.8579 z"
         id="path10" />
      <path
         d="m 36.2549,45.6045 c -6.8028,0 -12.3379,-6.8066 -12.3379,-15.1733 l -0.12,-1.3726 a 1,1 0 0 1 0.9111,-1.0815 0.99,0.99 0 0 1 1.0811,0.9116 l 0.124,1.4575 c 0.0039,7.3491 4.6416,13.2583 10.3418,13.2583 5.7002,0 10.3389,-5.9092 10.3389,-13.1733 q 0,-0.701 -0.0567,-1.3848 a 1.0002985,1.0002985 0 0 1 1.9941,-0.1611 q 0.0617,0.7624 0.0626,1.5459 c -10e-5,8.3667 -5.5353,15.1733 -12.339,15.1733 z"
         id="path12" />
      <path
         d="m 47.3066,30.28 a 1.9721,1.9721 0 0 1 -1.2226,-0.4365 5.2452,5.2452 0 0 1 -1.4619,-2.58 2.3133,2.3133 0 0 1 -0.3282,0.1455 c -1.4658,0.5132 -3.2441,-0.6343 -4.4863,-1.6949 a 1.6153,1.6153 0 0 1 -0.166,0.1343 c -1.05,0.7451 -2.9238,0.0513 -4.6592,-0.9331 a 1.2813,1.2813 0 0 1 -0.1025,0.0977 c -0.3613,0.3134 -1.1768,1.0132 -4.9424,-1.3057 -1.0117,2.0908 -2.9717,5.72 -4.709,6.4624 A 1.0258,1.0258 0 0 1 23.873,29.66 c -0.1533,-0.3614 -0.2841,-0.7222 -0.3935,-1.0723 a 9.21,9.21 0 0 1 1.9365,-9.2832 7.2209,7.2209 0 0 1 0.7608,-0.6909 1,1 0 0 1 1.2343,1.5732 5.2868,5.2868 0 0 0 -0.5527,0.5034 7.1581,7.1581 0 0 0 -1.582,6.9043 28.9215,28.9215 0 0 0 3.3261,-5.7545 1,1 0 0 1 1.4649,-0.4228 21.1988,21.1988 0 0 0 3.06,1.7075 1,1 0 0 1 1.5508,-0.7466 12.9964,12.9964 0 0 0 3.624,1.7793 c -0.0068,-0.0356 -0.0156,-0.0747 -0.0273,-0.1181 a 1,1 0 0 1 1.7021,-0.9292 c 1.33,1.4326 3.0938,2.6069 3.6524,2.413 0.1142,-0.0405 0.3486,-0.3691 0.417,-1.3237 a 0.999,0.999 0 0 1 0.98,-0.9287 1.0171,1.0171 0 0 1 1.0117,0.895 11.2139,11.2139 0 0 0 1.0176,3.8043 5.977,5.977 0 0 0 -0.0254,-5.4326 5.8879,5.8879 0 0 0 -1.4483,-1.8714 4.3228,4.3228 0 0 0 -0.4326,-0.3213 1,1 0 1 1 1.07,-1.6894 6.587,6.587 0 0 1 0.6416,0.4731 8.1075,8.1075 0 0 1 1.514,10.5474 c -0.0029,0.0054 -0.06,0.09 -0.0635,0.0952 a 1.1965,1.1965 0 0 1 -0.7226,0.4888 1.9818,1.9818 0 0 1 -0.2823,0.0202 z"
         id="path14" />
      <path
         d="m 24.917,60.8047 a 4,4 0 1 1 4,-4 4.004,4.004 0 0 1 -4,4 z m 0,-6 a 2,2 0 1 0 2,2 2.0026,2.0026 0 0 0 -2,-2 z"
         id="path16" />
      <path
         d="M 24.916,54.8047 A 1.0007,1.0007 0 0 1 23.9453,54.041 c -0.06,-0.2451 -1.4121,-6.04 2.5313,-10.1318 a 1.000045,1.000045 0 1 1 1.4394,1.3887 c -3.1875,3.3076 -2.039,8.2216 -2.0273,8.27 a 1,1 0 0 1 -0.9727,1.2363 z"
         id="path18" />
      <path
         d="m 55.0723,60.9219 a 0.9962,0.9962 0 0 1 -0.99,-1.1494 c 0.0118,-0.0811 1.16,-8.127 -4.3134,-10.877 a 1.0001061,1.0001061 0 1 1 0.8984,-1.7871 c 6.7793,3.4053 5.4512,12.5781 5.3916,12.9668 a 0.9992,0.9992 0 0 1 -0.9866,0.8467 z"
         id="path20" />
      <path
         d="m 36.1719,51.5146 h -0.06 c -0.0146,-9e-4 -0.03,0 -0.0439,0 -0.0139,0 -0.0274,0 -0.0411,-9e-4 -2.372,-0.0313 -4.6738,-0.8291 -7.6513,-2.6465 a 1,1 0 0 1 1.041,-1.707 c 2.6846,1.6386 4.6982,2.3447 6.7148,2.3544 a 12.2646,12.2646 0 0 0 6.29,-2.0986 1,1 0 0 1 1.0156,1.7227 14.3642,14.3642 0 0 1 -7.1963,2.375 c -0.0219,9e-4 -0.0444,0 -0.0688,9e-4 z"
         id="path22" />
      <path
         d="M 17.1934,60.9219 A 0.9992,0.9992 0 0 1 16.207,60.0752 c -0.0634,-0.4121 -1.4677,-10.1338 6.02,-13.2549 a 1,1 0 0 1 0.7695,1.8457 c -6.0361,2.5166 -4.8252,11.0205 -4.8125,11.1065 a 0.9962,0.9962 0 0 1 -0.99,1.1494 z"
         id="path24" />
      <path
         d="m 45.3691,61.8525 c -0.0332,0 -0.0664,-0.0019 -0.1,-0.0048 a 1,1 0 0 1 -0.8965,-1.0909 l 0.0713,-0.747 a 2.2729,2.2729 0 0 1 -0.666,-0.5069 c -1.3633,-1.4843 -1.0156,-4.8916 -0.9013,-5.7558 -0.0166,-1.45 0.63,-3.9336 3.0507,-4.6377 A 10.698,10.698 0 0 0 44.04,45.2979 1.0002609,1.0002609 0 1 1 45.48,43.9092 c 1.7578,1.8222 2.6455,5.6279 2.6826,5.789 a 1,1 0 0 1 -0.9414,1.2227 c -2.2852,0.0762 -2.3525,2.3945 -2.3428,2.8584 a 1.0085,1.0085 0 0 1 -0.01,0.1631 11.4587,11.4587 0 0 0 0.0185,3.3037 0.9767,0.9767 0 0 1 0.8613,-0.3516 1,1 0 0 1 0.9,1.0909 l -0.1153,1.205 a 1.053,1.053 0 0 1 -0.0039,0.1475 l -0.165,1.6162 a 1.0007,1.0007 0 0 1 -0.9949,0.8984 z"
         id="path26" />
      <path
         d="M 49.4121,61.8525 A 1.0007,1.0007 0 0 1 48.418,60.9531 L 48.2539,59.3369 A 0.9972,0.9972 0 0 1 48.25,59.1934 l -0.1152,-1.209 a 0.9988,0.9988 0 0 1 0.9,-1.09 0.9739,0.9739 0 0 1 0.8593,0.3506 11.4481,11.4481 0 0 0 0.0186,-3.3027 1.0762,1.0762 0 0 1 -0.01,-0.168 c 0.01,-0.459 -0.0576,-2.7773 -2.3428,-2.8535 a 1,1 0 1 1 0.0665,-1.998 c 3.4365,0.1132 4.2968,3.1542 4.2773,4.8242 0.1143,0.8642 0.4619,4.2715 -0.9,5.7568 a 2.3025,2.3025 0 0 1 -0.667,0.5059 l 0.0713,0.748 a 1,1 0 0 1 -0.8975,1.09 c -0.033,0.0029 -0.0662,0.0048 -0.0984,0.0048 z"
         id="path28" />
      <path
         d="M 35.9141,60.9229 A 1.0016,1.0016 0 0 1 35.0215,60.376 L 29.3643,49.2432 a 1.0001477,1.0001477 0 1 1 1.7832,-0.9063 L 36.8047,59.47 a 1,1 0 0 1 -0.8906,1.4532 z"
         id="path30" />
      <path
         d="m 35.9121,60.9229 a 1,1 0 0 1 -0.8867,-1.461 L 40.6826,48.56 a 1.00022,1.00022 0 0 1 1.7754,0.9218 l -5.6572,10.902 a 1,1 0 0 1 -0.8887,0.5391 z"
         id="path32" />
    </g>
  </g>
</g></svg>