<svg xmlns="http://www.w3.org/2000/svg" width="24" height="24" viewBox="0 0 24 24"> <g transform="translate(1.5866479475637156 0.0) scale(0.505299560738881)">
  
  <g
     id="line"
     transform="translate(-15.297985,-12.2183)">
    <path
       id="Socks_Line_1"
       fill="none"
       stroke="#000"
       stroke-linecap="round"
       stroke-linejoin="round"
       stroke-width="2"
       d="m 43.9388,13.2183 c 0.9837,3.9139 2.5025,19.0774 3.4385,22.7065 0.7783,3.0175 5.0075,9.6808 0.8263,12.977 -1.7431,1.3742 -7.1054,-1.2565 -18.0087,3.8893 -2.0512,0.9681 -7.7537,3.6933 -11.8776,3 -2.1741,-0.3653 -2.6941,-3.918 -1.0469,-5.676 2.55,-2.7214 7.8017,-4.4489 10.4564,-6.4844 3.656,-2.8032 5.1131,-4.4062 6.4073,-7.2107 0.7272,-1.5759 0.0155,-13.8624 -3.3095,-19.7646 a 1.0129,1.0129 0 0 1 0.7234,-1.3552 54.7736,54.7736 0 0 1 9.274,-1.74" />
    <path
       id="Socks_Line_2"
       fill="none"
       stroke="#000"
       stroke-linecap="round"
       stroke-linejoin="round"
       stroke-width="2"
       d="m 47.2879,14.468 c 1.2458,3.8385 3.785,18.8648 4.9639,22.4224 0.98,2.9581 5.65,9.3206 1.7006,12.8917 -1.6463,1.4887 -7.174,-0.7739 -17.7049,5.0964 -1.9812,1.1043 -7.4866,4.2084 -11.648,3.7956 -1.46,-0.1449 -2.1551,-1.475 -2.0942,-3.08" />
    <path
       id="Socks_Line_3"
       fill="none"
       stroke="#000"
       stroke-linecap="round"
       stroke-linejoin="round"
       stroke-width="2"
       d="m 32.645,51.8587 a 11.4937,11.4937 0 0 1 1.9741,3.9075" />
    <path
       id="Socks_Line_4"
       fill="none"
       stroke="#000"
       stroke-linecap="round"
       stroke-linejoin="round"
       stroke-width="2"
       d="m 36.6292,23.3905 a 48.1235,48.1235 0 0 1 6.1619,-1.7889" />
    <path
       id="Socks_Line_5"
       fill="none"
       stroke="#000"
       stroke-miterlimit="10"
       stroke-width="2"
       d="m 52.7025,39.7887 a 18.1162,18.1162 0 0 0 -2.6806,2.3687" />
    <path
       id="Socks_Line_6"
       fill="none"
       stroke="#000"
       stroke-linecap="round"
       stroke-linejoin="round"
       stroke-width="2"
       d="m 22.8176,46.9215 a 6.6045,6.6045 0 0 1 3.8752,2.4416 13.3326,13.3326 0 0 1 1.8172,4.2037" />
    <path
       id="Socks_Line_7"
       fill="none"
       stroke="#000"
       stroke-miterlimit="10"
       stroke-width="2"
       d="M 47.6312,38.8468 A 14.5979,14.5979 0 0 0 43.3518,42.78 c -1.6329,2.7539 -0.9307,6.5283 -0.9307,6.5283" />
    <path
       id="Socks_Line_8"
       fill="none"
       stroke="#000"
       stroke-linecap="round"
       stroke-linejoin="round"
       stroke-width="2"
       d="m 45.3691,21.7928 c 0.335,-0.0791 0.6481,-0.1446 0.9274,-0.1912" />
  </g>
</g></svg>