<svg xmlns="http://www.w3.org/2000/svg" width="24" height="24" viewBox="0 0 24 24"> <g transform="translate(5.228261314555913 0.0) scale(0.4449906952445624)">
  
  <g
     id="line"
     transform="translate(-22.111782,-8.313556)">
    <g
       id="Mechanical_Leg">
      <g
         id="g10">
        <path
           fill="none"
           stroke="#000"
           stroke-miterlimit="10"
           stroke-width="2"
           d="M 31.12,27.7436 A 0.7963,0.7963 0 0 1 30.7351,26.5297 L 40.8356,10.8918 a 2.5216,2.5216 0 0 1 1.5319,-0.9859 l 3.9474,-0.5824 a 2.4467,2.4467 0 0 1 1.7377,0.5173 l 2.7462,2.4341 a 2.5412,2.5412 0 0 1 0.7484,1.6632 v 3.7727 a 2.0917,2.0917 0 0 1 -0.8325,1.554 l -14.4923,9.6461 a 2.1294,2.1294 0 0 1 -1.76,0.18 z"
           id="path2" />
        <path
           fill="none"
           stroke="#000"
           stroke-miterlimit="10"
           stroke-width="2"
           d="M 33.9628,51.4223 H 32.2266 A 2.1975,2.1975 0 0 1 30.2391,49.4381 L 28.4267,35.1265 a 1.73,1.73 0 0 1 1.7487,-1.9915 l 2.5714,-0.0093 a 3.5952,3.5952 0 0 1 2.917,1.77 l 0.1591,0.3083 a 9.1977,9.1977 0 0 1 0.8591,3.7766 l -0.0234,0.8055 a 20.1577,20.1577 0 0 1 -0.5859,3.9282 l -2.11,7.7079"
           id="path4" />
        <path
           fill="none"
           stroke="#000"
           stroke-linejoin="round"
           stroke-width="2"
           d="M 35.5423,56.9767 A 1.8737,1.8737 0 0 0 36.62,55.6329 l 0.0481,-0.3345 a 2.4657,2.4657 0 0 0 -0.52,-1.7392 l -1.226,-1.3875 A 2.5355,2.5355 0 0 0 33.26,51.4223 H 32.2092 A 2.7355,2.7355 0 0 0 30.51,52.1372 l -4.82,4.9289 c -0.3845,0.3932 -1.02,1.03 -1.4128,1.4154 l -0.7287,0.7153 a 1.4954,1.4954 0 0 0 -0.3658,1.513 1,1 0 0 0 1.2831,0.4586 z"
           id="path6" />
        <path
           fill="none"
           stroke="#000"
           stroke-miterlimit="10"
           stroke-width="2"
           d="m 28.1585,30.256 a 2.6181,2.6181 0 0 1 0.7264,-1.6494 l 0.581,-0.55 a 1.7015,1.7015 0 0 1 1.6539,-0.3133 l 3.3426,1.3475 a 1.3811,1.3811 0 0 1 0.8076,1.3667 l -0.2015,1.6678 a 1.1659,1.1659 0 0 1 -1.12,0.997 l -3.7732,0.0156 a 1.82,1.82 0 0 1 -1.4673,-0.88 l -0.0824,-0.156 A 4.7039,4.7039 0 0 1 28.1585,30.256 Z"
           id="path8" />
      </g>
    </g>
  </g>
</g></svg>