<svg xmlns="http://www.w3.org/2000/svg" width="24" height="24" viewBox="0 0 24 24"> <g transform="translate(0.0 1.515495891248312) scale(0.4568515685827288)">
  
  <g
     id="line"
     transform="translate(-7.8489561,-16.572003)">
    <path
       fill="none"
       stroke="#000"
       stroke-linecap="round"
       stroke-linejoin="round"
       stroke-miterlimit="10"
       stroke-width="2"
       d="m 53.5925,45.3883 c -0.888,0.8428 -1.9637,1.5428 -3.3211,2.1079 -2.2113,0.9206 -4.6535,1.136 -7.0265,0.8101 L 34.314,47.0796"
       id="path2" />
    <path
       fill="none"
       stroke="#000"
       stroke-linecap="round"
       stroke-linejoin="round"
       stroke-miterlimit="10"
       stroke-width="2"
       d="m 40.0767,23.4917 c 2,-1 5,-2 10,0 3.8282,1.5313 10,8 7.0199,15.9501 -0.2141,0.5711 -0.4314,1.1152 -0.6588,1.633"
       id="path4" />
    <path
       fill="none"
       stroke="#000"
       stroke-linecap="round"
       stroke-linejoin="round"
       stroke-miterlimit="10"
       stroke-width="2"
       d="m 36.6696,41.6175 c -0.5145,1.8742 -4.3697,6.5546 -5.8144,8.322 -1.6076,1.9668 -6.7002,0.5522 -4.8585,-3.1099 0.7387,-1.4689 1.9142,-2.6962 2.1526,-4.323 0.0514,-0.3507 0.0819,-0.6918 0.0967,-1.018"
       id="path6" />
    <path
       fill="none"
       stroke="#000"
       stroke-linecap="round"
       stroke-linejoin="round"
       stroke-miterlimit="10"
       stroke-width="2"
       d="m 22.3815,49.2187 c -0.6896,-0.7299 -0.8252,-1.9762 0.3992,-3.6776 0.6175,-0.858 2.1556,-2.6643 2.2769,-4.741 0,0 -2.9074,-0.2291 -4.2157,-0.233 C 7.0032,40.5251 8.8004,35.4006 8.984,34.8764 c 0.2987,-0.853 4.0154,-6.5648 6.9052,-8.0097 4.3697,-2.1849 9.6853,-1.6357 9.6853,-1.6357 1.5022,-5.7393 10.5248,-9.6715 14.2016,-1.0924 3.2773,7.647 -4.6994,10.3531 -7.6994,10.3531"
       id="path8" />
    <path
       fill="none"
       stroke="#000"
       stroke-linecap="round"
       stroke-linejoin="round"
       stroke-miterlimit="10"
       stroke-width="2"
       d="m 56.4366,41.0744 c 2,0 3.6401,3.4173 2.6401,6.4173 -1,3 -1.8218,3.9576 -6.1915,6.1425 -8.7394,4.3697 -19.6637,2.1849 -29.6446,0.3599 -6.311,-1.154 -9.2354,0.6406 -10.1639,2.4977 -1.0924,2.1849 1.6796,5.8607 7.0357,4.7895"
       id="path10" />
    <path
       fill="none"
       stroke="#000"
       stroke-linecap="round"
       stroke-linejoin="round"
       stroke-miterlimit="10"
       stroke-width="2"
       d="m 22.6508,21.6985 c 0.1574,-0.8515 0.4634,-1.624 0.8426,-2.1859 2.2057,-3.2685 6.8333,-1.8141 7.6419,0"
       id="path12" />
  </g>
</g></svg>