<svg xmlns="http://www.w3.org/2000/svg" width="24" height="24" viewBox="0 0 24 24"> <g transform="translate(1.7533084216054977 0.0) scale(0.4165821424392589)">
  
  <g
     id="line"
     transform="translate(-11.4029,-6.9802075)">
    <path
       id="Bone_Line_1"
       fill="none"
       stroke="#000"
       stroke-linecap="round"
       stroke-linejoin="round"
       stroke-width="2"
       d="m 47.39,16.6351 c 1.0969,1.92 8.1674,-1.9826 10.2408,-0.1156 a 5.3776,5.3776 0 0 1 1.9662,3.9577 c -0.0856,2.48 -2.3583,3.9745 -3.5252,4.7419 a 10.3166,10.3166 0 0 1 -6.099,1.6015 c -7.2788,6.2013 -13.999,17.304 -16.541,21.9142 a 5.9007,5.9007 0 0 0 -0.38,4.37 8.9807,8.9807 0 0 1 -0.0161,5.23 c -0.1764,0.5528 -1.5045,4.7173 -4.8626,5.22 A 5.5986,5.5986 0 0 1 23.379,61.7504 c -1.5768,-1.7777 -2.2836,-6.7706 -5.3218,-6.3873" />
    <path
       id="Bone_Line_1-2"
       fill="none"
       stroke="#000"
       stroke-linecap="round"
       stroke-linejoin="round"
       stroke-width="2"
       d="m 24.61,54.9369 c -1.097,-1.92 -8.1675,1.9826 -10.2409,0.1156 a 5.3776,5.3776 0 0 1 -1.9662,-3.9577 c 0.0856,-2.48 2.3583,-3.9745 3.5252,-4.7419 a 10.2279,10.2279 0 0 1 6.0247,-1.645 57.3482,57.3482 0 0 0 16.7083,-21.3662 7.26,7.26 0 0 0 0.2871,-4.8744 8.98,8.98 0 0 1 0.0162,-5.23 c 0.1763,-0.5528 1.5044,-4.7173 4.8625,-5.22 a 5.5988,5.5988 0 0 1 4.7942,1.8044 c 1.5767,1.7777 2.2835,6.7706 5.3218,6.3873" />
  </g>
</g></svg>