<svg xmlns="http://www.w3.org/2000/svg" width="24" height="24" viewBox="0 0 24 24"> <g transform="translate(0.3933417536580812 0.0) scale(0.4468266843629893)">
  
  <g
     id="line"
     transform="translate(-8.4375,-6.5812998)">
    <circle
       cx="19.1609"
       cy="49.57"
       r="9.7234001"
       fill="none"
       stroke="#000"
       stroke-miterlimit="10"
       stroke-width="2"
       id="circle2" />
    <circle
       cx="49.6656"
       cy="49.57"
       r="9.7234001"
       fill="none"
       stroke="#000"
       stroke-miterlimit="10"
       stroke-width="2"
       id="circle4" />
    <path
       fill="none"
       stroke="#000"
       stroke-linecap="round"
       stroke-linejoin="round"
       stroke-width="2"
       d="m 19.2562,49.57 1.9066,-22.8785 h 3.6224"
       id="path6" />
    <circle
       cx="32.792702"
       cy="10.5813"
       r="3"
       fill="none"
       stroke="#000"
       stroke-miterlimit="10"
       stroke-width="2"
       id="circle8" />
    <path
       fill="none"
       stroke="#000"
       stroke-linecap="round"
       stroke-linejoin="round"
       stroke-width="2"
       d="m 25.0712,26.7869 4.099,-2.7645 a 11.8187,11.8187 0 0 0 2.6692,-2.6691 l 1.8112,-2.5739 a 3.9419,3.9419 0 0 1 2.9552,-1.5252 3.0555,3.0555 0 0 1 2.5742,1.8112 l 4.385,10.0094 a 4.7417,4.7417 0 0 1 -0.0953,3.4317 l -0.0953,0.1907 A 5.8753,5.8753 0 0 1 40.7048,35.08 l -5.243,2.2878 a 1.935,1.935 0 0 0 -1.0486,2.4785 l 2.4785,6.101 a 2.2846,2.2846 0 0 1 -0.6673,2.6691 1.73,1.73 0 0 1 -2.3831,-0.7626 L 29.6469,40.037 a 8.6483,8.6483 0 0 1 -0.858,-3.2411 3.6662,3.6662 0 0 1 1.6211,-2.5735 l 4.385,-2.7645 a 2.7844,2.7844 0 0 0 1.144,-2.86 l -1.43,-5.72"
       id="path10" />
    <path
       fill="none"
       stroke="#000"
       stroke-miterlimit="10"
       stroke-width="2"
       d="m 36.2244,48.6168 -0.9532,2.9552 a 2.6607,2.6607 0 0 1 -2.2879,1.8112 1.6224,1.6224 0 0 1 -1.5252,-1.9066 L 32.316,45.09"
       id="path12" />
    <path
       fill="none"
       stroke="#000"
       stroke-miterlimit="10"
       stroke-width="2"
       d="M 40.4188,35.1757 36.9871,46.1383"
       id="path14" />
    <path
       fill="none"
       stroke="#000"
       stroke-linecap="round"
       stroke-linejoin="round"
       stroke-width="2"
       d="m 36.1246,8.2779 c 0,0 0.4584,-0.4724 0.898,-0.323 0.5171,0.175 1.2482,1.289 1.9137,1.6378 a 3.3639,3.3639 0 0 0 2.1406,0.3665"
       id="path16" />
  </g>
</g></svg>