<svg xmlns="http://www.w3.org/2000/svg" width="24" height="24" viewBox="0 0 24 24"> <g transform="translate(0.6026351376484733 0.0) scale(0.4369737868346826)">
  
  <g
     id="line"
     transform="translate(-11.741719,-9.0383997)">
    <path
       fill="none"
       stroke="#000"
       stroke-linecap="round"
       stroke-linejoin="round"
       stroke-miterlimit="10"
       stroke-width="2"
       d="M 24.1293,44.8478 H 22.33 c -1.081,0 -1.9573,-0.8763 -1.9573,-1.9573 0,-1.081 0.8763,-1.9573 1.9573,-1.9573 h 12.0237 0.4194 c 3.4747,0 6.2915,-2.8168 6.2915,-6.2915 0,-3.4747 -2.8168,-6.2915 -6.2915,-6.2915 h -2.936"
       id="path2" />
    <path
       fill="none"
       stroke="#000"
       stroke-linecap="round"
       stroke-linejoin="round"
       stroke-miterlimit="10"
       stroke-width="2"
       d="m 31.8371,32.5444 h 3.0758 c 1.081,0 1.9573,0.8763 1.9573,1.9573 0,1.081 -0.8763,1.9573 -1.9573,1.9573 H 22.0504 c -3.4747,0 -6.2915,2.8168 -6.2915,6.2915 0,3.4747 2.8168,6.2915 6.2915,6.2915 h 2.0789"
       id="path4" />
    <path
       fill="none"
       stroke="#000"
       stroke-linecap="round"
       stroke-linejoin="round"
       stroke-width="2"
       d="m 24.0663,32.5444 h -4.7694 c -3.4449,0 -6.449,-2.6546 -6.5523,-6.0979 -0.1069,-3.563 2.7496,-6.485 6.2886,-6.485 h 16.7773 l 0.0694,-10e-5 v 0 c 0.9191,-0.0536 1.6803,-0.7117 1.8908,-1.608 0.6815,-2.9017 3.2865,-5.062 6.3961,-5.062"
       id="path6" />
    <path
       fill="none"
       stroke="#000"
       stroke-linecap="round"
       stroke-linejoin="round"
       stroke-width="2"
       d="m 53.1287,19.8834 c 0,4.333 -7.5,4.5 -7.5,4.5 l -9.0336,0.0479 -0.2124,0.0041 H 19.4174 c -0.975,0 -1.8787,0.6663 -2.0353,1.6286 -0.1995,1.2263 0.7418,2.2861 1.9306,2.2861 h 4.7536"
       id="path8" />
    <path
       fill="none"
       stroke="#000"
       stroke-linecap="round"
       stroke-linejoin="round"
       stroke-width="1.8"
       d="m 44.1667,13.2914 c 3.628,0 8.962,2.964 8.962,6.592"
       id="path10" />
    <path
       fill="none"
       stroke="#000"
       stroke-linecap="round"
       stroke-miterlimit="10"
       stroke-width="2"
       d="m 50.9807,23.8384 c 0,0 3.793,4.054 7.585,4.577"
       id="path12" />
    <line
       x1="58.068699"
       x2="62.9067"
       y1="28.4154"
       y2="26.1924"
       fill="none"
       stroke="#000"
       stroke-linecap="round"
       stroke-miterlimit="10"
       stroke-width="2"
       id="line14" />
    <line
       x1="59.1147"
       x2="58.068699"
       y1="32.992401"
       y2="28.4154"
       fill="none"
       stroke="#000"
       stroke-linecap="round"
       stroke-miterlimit="10"
       stroke-width="2"
       id="line16" />
    <line
       x1="28.0646"
       x2="28.0646"
       y1="58.236698"
       y2="62.961601"
       fill="none"
       stroke="#000"
       stroke-linecap="round"
       stroke-linejoin="round"
       stroke-width="2"
       id="line18" />
    <line
       x1="28.0646"
       x2="28.0646"
       y1="41.858501"
       y2="51.876999"
       fill="none"
       stroke="#000"
       stroke-linecap="round"
       stroke-linejoin="round"
       stroke-width="2"
       id="line20" />
    <polyline
       fill="none"
       stroke="#000"
       stroke-linecap="round"
       stroke-linejoin="round"
       stroke-width="2"
       points="28.0646,25.3981 28.0646,27.3487 28.0646,33.5418 28.0646,35.5756"
       id="polyline22" />
    <line
       x1="28.0646"
       x2="28.0646"
       y1="15.0384"
       y2="18.8813"
       fill="none"
       stroke="#000"
       stroke-linecap="round"
       stroke-linejoin="round"
       stroke-width="2"
       id="line24" />
    <circle
       cx="28.0646"
       cy="12.0384"
       r="3"
       fill="#000"
       stroke="none"
       id="circle26" />
    <path
       fill="none"
       stroke="#000"
       stroke-linecap="round"
       stroke-linejoin="round"
       stroke-miterlimit="10"
       stroke-width="2"
       d="m 32.02,44.8478 h 0.2686 c 3.4114,0 6.317,2.6528 6.4382,6.062 0.1273,3.5793 -2.7365,6.5209 -6.2874,6.5209 h -11.045 v 0 c 0.3544,-1.7722 1.476,-3.2963 3.0626,-4.1617 v 0 c 0.3756,-0.2049 0.7966,-0.3122 1.2245,-0.3122 h 6.2564 c 1.0718,0 2.0064,-0.8259 2.0385,-1.8971 0.0333,-1.1085 -0.8554,-2.0176 -1.9564,-2.0176"
       id="path28" />
  </g>
</g></svg>