<svg xmlns="http://www.w3.org/2000/svg" width="24" height="24" viewBox="0 0 24 24"> <g transform="translate(0.0 3.0544551670901665) scale(0.4616781369317348)">
  
  <g
     id="line"
     transform="translate(-10.007997,-17.622599)">
    <path
       fill="none"
       stroke="#000"
       stroke-linecap="round"
       stroke-linejoin="round"
       stroke-width="2"
       d="m 60.9905,21.7168 a 1.0416,1.0416 0 0 0 -0.6263,-1.017 25.4744,25.4744 0 0 0 -9.87,-2.0747 27.2926,27.2926 0 0 0 -14.39,3.8742 H 35.741 a 27.292,27.292 0 0 0 -14.39,-3.8742 25.422,25.422 0 0 0 -9.6957,2.0015 1.0417,1.0417 0 0 0 -0.635,0.9585 l -0.0122,1.3739 a 0.9713,0.9713 0 0 0 1.3313,0.9166 17.822,17.822 0 0 1 6.9084,-1.3763 24.7961,24.7961 0 0 1 10.0328,1.7289 1.0083,1.0083 0 0 1 0.1826,1.7318 c -2.8342,2.1263 -9.33,7.7453 -9.33,14.5821 0,8.7447 7.4163,14.8328 15.3862,14.8328 h 0.8056 c 7.97,0 15.3862,-6.0881 15.3862,-14.8328 0,-6.8368 -6.4956,-12.4558 -9.33,-14.5821 a 1.0083,1.0083 0 0 1 0.1826,-1.7318 24.7959,24.7959 0 0 1 10.0332,-1.7289 17.8225,17.8225 0 0 1 6.9588,1.3974 0.9776,0.9776 0 0 0 1.3676,-0.8424 z M 47.2544,40.3091 A 11.0682,11.0682 0 0 1 35.9832,51.2772 c -6.12,0 -11.5741,-3.5752 -11.5741,-11.0287 0,-6.48 8.6115,-11.77 10.86,-13.04 a 1.0031,1.0031 0 0 1 1.0439,0.033 c 2.2387,1.4495 11.047,7.5126 10.9414,13.0676 z"
       id="path2" />
  </g>
</g></svg>