<svg xmlns="http://www.w3.org/2000/svg" width="24" height="24" viewBox="0 0 24 24"> <g transform="translate(0.0 0.24688025403047043) scale(0.48247069382542446)">
  
  <g
     id="line"
     transform="translate(-11.128023,-11.279445)">
    <path
       fill="none"
       stroke="#000"
       stroke-linecap="round"
       stroke-linejoin="round"
       stroke-miterlimit="10"
       stroke-width="2"
       d="m 23.4432,21.1746 c 2.8989,-1.5543 6.1935,-1.6129 8.6558,0"
       id="path2" />
    <path
       fill="none"
       stroke="#000"
       stroke-linecap="round"
       stroke-linejoin="round"
       stroke-miterlimit="10"
       stroke-width="2"
       d="m 39.901,21.1746 c 2.8989,-1.5543 6.1935,-1.6129 8.6558,0"
       id="path4" />
    <path
       fill="none"
       stroke="#000"
       stroke-linecap="round"
       stroke-linejoin="round"
       stroke-miterlimit="10"
       stroke-width="2"
       d="m 49.8078,46.5463 c 0,0 -1.58,8.43 -13.81,8.76 -12.18,-0.44 -13.81,-8.76 -13.81,-8.76 -0.46,-1.73 -1.2401,-5.76 2.28,-3.81 2.7,1.5 5.38,4.37 11.53,4.55 6.16,-0.18 8.83,-3.05 11.53,-4.55 3.52,-1.95 2.75,2.08 2.28,3.81 z"
       id="path6" />
    <path
       fill="none"
       stroke="#000"
       stroke-linecap="round"
       stroke-linejoin="round"
       stroke-miterlimit="10"
       stroke-width="2"
       d="m 13.8451,27.9329 c 0,0 -2.047,-1.4682 -0.6019,-3.1236 0,0 -2.2788,-2.0129 -0.4281,-3.9039 0,0 -1.2382,-4.0732 2.1382,-4.309 0,0 -0.3899,-4.0721 4.079,-3.5985 0,0 2.5018,-1.8015 4.3561,0.2489 0,0 2.5324,-1.6079 3.8427,0.4026"
       id="path8" />
    <circle
       cx="36"
       cy="36"
       r="23"
       fill="none"
       stroke="#000"
       stroke-linecap="round"
       stroke-linejoin="round"
       stroke-miterlimit="10"
       stroke-width="2"
       id="circle10" />
    <path
       fill="none"
       stroke="#000"
       stroke-linecap="round"
       stroke-linejoin="round"
       stroke-miterlimit="10"
       stroke-width="2"
       d="m 58.1549,27.9329 c 0,0 2.047,-1.4682 0.6019,-3.1236 0,0 2.2788,-2.0129 0.4281,-3.9039 0,0 1.2382,-4.0732 -2.1382,-4.309 0,0 0.3899,-4.0721 -4.079,-3.5985 0,0 -2.5018,-1.8015 -4.3561,0.2489 0,0 -2.5324,-1.6079 -3.8427,0.4026"
       id="path12" />
    <ellipse
       cx="27.771099"
       cy="30.818001"
       rx="3.5"
       ry="6.3045001"
       fill="none"
       stroke="#000"
       stroke-miterlimit="10"
       stroke-width="2"
       id="ellipse14" />
    <ellipse
       cx="44.228901"
       cy="30.8216"
       rx="3.5"
       ry="6.3045001"
       fill="none"
       stroke="#000"
       stroke-miterlimit="10"
       stroke-width="2"
       id="ellipse16" />
    <circle
       cx="36"
       cy="38.977901"
       r="2.7351"
       id="circle18" />
  </g>
</g></svg>