<svg xmlns="http://www.w3.org/2000/svg" width="24" height="24" viewBox="0 0 24 24"> <g transform="translate(0.7425873519537607 0.0) scale(0.5091126281441788)">
  
  <g
     id="line"
     transform="translate(-13.8886,-15.006353)">
    <path
       fill="none"
       stroke="#000"
       stroke-linecap="round"
       stroke-linejoin="round"
       stroke-width="2"
       d="m 44.2809,43.9275 3.9746,-8.4261 a 1.5937,1.5937 0 0 0 0.15,-0.7672 l -0.629,-11.4366 a 1.8032,1.8032 0 0 0 -2.0552,-1.6982 c -1.7265,0.2671 -3.9661,1.4784 -3.9661,5.9663 v 4.98 a 1.5938,1.5938 0 0 1 -0.1559,0.6874 l -3.7839,7.9114 A 1.5812,1.5812 0 0 1 36.73,42.0111 c -1.9,0.4183 -6.9555,1.3069 -10.3228,-0.181"
       id="path2" />
    <path
       fill="none"
       stroke="#000"
       stroke-linecap="round"
       stroke-linejoin="round"
       stroke-width="2"
       d="m 45.43,21.6532 c 0.4887,-3.4242 2.6038,-4.2829 4.1451,-4.44 a 1.6589,1.6589 0 0 1 1.81,1.51 L 52.8879,35.45 a 2.616,2.616 0 0 1 -0.25,1.3725 l -3.4369,7.105"
       id="path4" />
    <path
       fill="none"
       stroke="#000"
       stroke-linecap="round"
       stroke-linejoin="round"
       stroke-width="2"
       d="m 31.0544,35.3131 c 4.1148,-3.195 7.1215,-10.0539 7.3385,-10.5576 0.0092,-0.0213 0.0163,-0.04 0.0241,-0.0623 0.1758,-0.4961 2.3675,-6.4132 6.327,-4.6275"
       id="path6" />
    <path
       fill="none"
       stroke="#000"
       stroke-linecap="round"
       stroke-linejoin="round"
       stroke-width="2"
       d="m 50.16,17.2593 a 4.114,4.114 0 0 1 1.92,-1.1726 2.2321,2.2321 0 0 1 2.8183,1.9156 l 2.155,19.4649 a 9.705,9.705 0 0 1 -0.5014,4.3182 c -1.7368,4.8784 -6.2583,16.4236 -10.531,17.6079 -6.1645,1.7086 -19.0223,1.7539 -19.0223,1.7539 a 12.11,12.11 0 0 1 -12.11,-12.11 c 0,-4.18 2.118,-8.26 5.3394,-10.0422 a 12.41,12.41 0 0 1 6.771,-2.0645"
       id="path8" />
  </g>
</g></svg>