<svg xmlns="http://www.w3.org/2000/svg" width="24" height="24" viewBox="0 0 24 24"> <g transform="scale(0.5)">
  
  <g
     id="line"
     transform="translate(-12,-12)">
    <circle
       cx="36"
       cy="36"
       r="23"
       fill="none"
       stroke="#000"
       stroke-linecap="round"
       stroke-linejoin="round"
       stroke-width="2"
       id="circle2" />
    <path
       fill="none"
       stroke="#000"
       stroke-linecap="round"
       stroke-linejoin="round"
       stroke-width="2"
       d="M 44.1521,45.7678 A 20.0408,20.0408 0 0 1 26.1851,44.9293"
       id="path4" />
    <path
       d="m 30,31 a 3,3 0 1 1 -3,-3 3.0011,3.0011 0 0 1 3,3"
       id="path6" />
    <path
       d="m 48,31 a 3,3 0 1 1 -3,-3 3.001,3.001 0 0 1 3,3"
       id="path8" />
    <path
       fill="none"
       stroke="#000"
       stroke-miterlimit="10"
       stroke-width="2"
       d="m 44.5416,46.2169 a 3.6376,3.6376 0 0 1 -1.1052,-2.5764 c -0.0405,-3.2205 2.9651,-6.34 3.0929,-6.4712 a 0.6891,0.6891 0 0 1 0.9748,-0.0123 c 0.1313,0.1281 3.2143,3.1713 3.2555,6.3924 v 0 a 3.6626,3.6626 0 0 1 -6.2183,2.6673 z"
       id="path10" />
  </g>
</g></svg>