<svg xmlns="http://www.w3.org/2000/svg" width="24" height="24" viewBox="0 0 24 24"> <g transform="translate(0.8826805273040605 0.0) scale(0.5217500304734627)">
  
  <g
     id="line"
     transform="translate(-14.8975,-15.3788)">
    <path
       fill="none"
       stroke="#000"
       stroke-width="2"
       d="m 35.8667,16.3788 c -7.7171,0 -15.6368,1.8276 -19.9692,4.8061 v 16.314 c 0,12.5228 11.9812,18.6153 18.3445,22.4061 a 3.0225,3.0225 0 0 0 3.2494,0 C 44.125,55.911 56.513,50.4958 56.513,37.4989 V 21.1849 C 52.0452,18.2064 44.26,16.3788 35.8667,16.3788 Z m 8.1613,22.16 0.9476,2.1662 a 0.7326,0.7326 0 0 1 -0.4058,1.0829 l -2.2342,1.0155 a 2.0538,2.0538 0 0 0 -1.1507,1.0153 l -0.88,2.3016 A 0.8841,0.8841 0 0 1 39.2213,46.594 L 36.92,45.5791 a 2.779,2.779 0 0 0 -1.4893,0 l -2.1664,0.9475 a 0.8527,0.8527 0 0 1 -1.0829,-0.406 l -1.0153,-2.2339 a 2.9215,2.9215 0 0 0 -1.0829,-1.1506 l -2.1664,-0.88 A 0.8087,0.8087 0 0 1 27.375,40.7729 l 1.0158,-2.3013 A 1.7562,1.7562 0 0 0 28.2554,37.05 l -0.88,-2.2338 a 0.9263,0.9263 0 0 1 0.4741,-1.151 L 30.0836,32.65 a 2.0953,2.0953 0 0 0 1.1506,-1.0155 l 0.88,-2.3016 a 0.7232,0.7232 0 0 1 1.0153,-0.4061 l 2.3018,1.0153 a 2.0714,2.0714 0 0 0 1.557,-0.0675 l 2.1659,-0.9478 a 0.8155,0.8155 0 0 1 1.0834,0.4061 l 1.0153,2.3016 c 0.2031,0.4063 0.474,1.0155 0.9475,1.1506 l 2.3018,0.8124 a 0.8587,0.8587 0 0 1 0.5412,1.0832 l -1.0154,2.3015 a 2.0653,2.0653 0 0 0 0,1.5569 z"
       id="path2" />
  </g>
</g></svg>