<svg xmlns="http://www.w3.org/2000/svg" width="24" height="24" viewBox="0 0 24 24"> <g transform="translate(1.028916523078946 0.0) scale(0.47828252571276747)">
  
  <g
     id="line"
     transform="translate(-13.143901,-10.892252)">
    <path
       d="m 42.0163,28.5884 a 2,2 0 1 1 -2,-2 2.0007,2.0007 0 0 1 2,2"
       id="path2" />
    <path
       d="m 34.0163,28.5884 a 2,2 0 1 1 -2,-2 2.0007,2.0007 0 0 1 2,2"
       id="path4" />
    <path
       d="m 36.0162,38.5908 a 7.6528,7.6528 0 0 1 -3.4473,-0.8579 1.0001261,1.0001261 0 0 1 0.8945,-1.7891 5.3774,5.3774 0 0 0 5.1055,0 1.0001261,1.0001261 0 1 1 0.8945,1.7891 7.6524,7.6524 0 0 1 -3.4472,0.8579 z"
       id="path6" />
    <path
       fill="none"
       stroke="#000"
       stroke-linecap="round"
       stroke-linejoin="round"
       stroke-width="2"
       d="M 50.9636,24.15 C 46.49,10.5289 36.0162,11.9284 36.0162,11.9284 c 0,0 -10.3532,-1.3834 -14.8692,11.9864"
       id="path8" />
    <circle
       cx="36.016201"
       cy="22.1497"
       r="1.5"
       id="circle10" />
    <path
       fill="none"
       stroke="#000"
       stroke-linecap="round"
       stroke-linejoin="round"
       stroke-width="2"
       d="M 25.4613,24.7355 14.1438,23.1184 c 0,0 6.1889,9.7351 10.3663,8.6973"
       id="path12" />
    <path
       fill="none"
       stroke="#000"
       stroke-linecap="round"
       stroke-linejoin="round"
       stroke-width="2"
       d="m 36.0162,15.776 a 20.4581,20.4581 0 0 1 -3.08,5.0592"
       id="path14" />
    <path
       fill="none"
       stroke="#000"
       stroke-linecap="round"
       stroke-linejoin="round"
       stroke-width="2"
       d="m 46.571,24.7543 11.45,-1.6359 c 0,0 -6.2678,9.8488 -10.494,8.7989"
       id="path16" />
    <path
       fill="none"
       stroke="#000"
       stroke-linecap="round"
       stroke-linejoin="round"
       stroke-width="2"
       d="m 36.0162,15.776 a 20.4558,20.4558 0 0 0 3.08,5.0592"
       id="path18" />
    <line
       x1="51.2159"
       x2="51.2159"
       y1="31.033001"
       y2="44.535702"
       fill="none"
       stroke="#000"
       stroke-linecap="round"
       stroke-linejoin="round"
       stroke-width="2"
       id="line20" />
    <polyline
       fill="none"
       stroke="#000"
       stroke-linecap="round"
       stroke-linejoin="round"
       stroke-width="2"
       points="18.088 52.108 18.088 42.543 25.173 42.543 25.173 46.108"
       id="polyline22" />
    <line
       x1="20.0217"
       x2="20.0217"
       y1="42.504501"
       y2="37.761299"
       fill="none"
       stroke="#000"
       stroke-linecap="round"
       stroke-linejoin="round"
       stroke-width="2"
       id="line24" />
    <line
       x1="23.3932"
       x2="23.3932"
       y1="42.543301"
       y2="39.102001"
       fill="none"
       stroke="#000"
       stroke-linecap="round"
       stroke-linejoin="round"
       stroke-width="2"
       id="line26" />
    <path
       fill="none"
       stroke="#000"
       stroke-linecap="round"
       stroke-linejoin="round"
       stroke-width="2"
       d="m 54.9537,59.9492 c 0,0 2,-13 -10,-13 -3.1919,2.1279 -5.9264,3.5984 -9,3.5921 h 0.125 c -3.0736,0.0063 -5.8082,-1.4642 -9,-3.5921 -12,0 -10,13 -10,13"
       id="path28" />
    <path
       fill="none"
       stroke="#000"
       stroke-linecap="round"
       stroke-linejoin="round"
       stroke-width="2"
       d="m 26.4391,24.5466 -0.9825,0.2293 a 17.29,17.29 0 0 0 -0.779,5.1733 c 0,7.8276 5.0765,14.1732 11.3386,14.1732 6.2621,0 11.3386,-6.3456 11.3386,-14.1732 A 17.29,17.29 0 0 0 46.5757,24.7759 L 45.7634,24.452"
       id="path30" />
    <path
       fill="none"
       stroke="#000"
       stroke-linecap="round"
       stroke-linejoin="round"
       stroke-width="2"
       d="m 46.571,24.7543 11.45,-1.6359 c 0,0 -6.2678,9.8488 -10.494,8.7989"
       id="path32" />
    <line
       x1="19.9468"
       x2="19.9468"
       y1="30.333"
       y2="33.501099"
       fill="none"
       stroke="#000"
       stroke-linecap="round"
       stroke-linejoin="round"
       stroke-width="2"
       id="line34" />
    <path
       fill="none"
       stroke="#000"
       stroke-linecap="round"
       stroke-linejoin="round"
       stroke-width="2"
       d="M 47.8955,60.0059 C 29.3966,54.87 27.0787,46.9492 27.0787,46.9492 c 0,0 -4.2,0.2046 -5.6776,1.3537 3.1163,6.4287 5.69,8.6387 13.8595,11.7689"
       id="path36" />
    <path
       fill="none"
       stroke="#000"
       stroke-linecap="round"
       stroke-linejoin="round"
       stroke-width="2"
       d="m 46.7244,21.2945 c -2.6425,-0.6931 -3.2409,2.473 -6.127,1.7854"
       id="path38" />
    <path
       fill="none"
       stroke="#000"
       stroke-linecap="round"
       stroke-linejoin="round"
       stroke-width="2"
       d="m 31.3867,23.08 c -2.886,0.6876 -2.8758,-2.7625 -5.5183,-2.0694"
       id="path40" />
  </g>
</g></svg>