<svg xmlns="http://www.w3.org/2000/svg" width="24" height="24" viewBox="0 0 24 24"> <g transform="translate(0.0 0.23020036272957078) scale(0.4667082879710703)">
  
  <g
     id="line"
     transform="translate(-16.348392,-8.0596)">
    <path
       d="m 41.9708,25.4081 c 0,1.1045 -0.8965,2 -2,2 -1.1035,0 -2,-0.8955 -2,-2 0,-1.1035 0.8965,-2 2,-2 1.1035,0 2,0.8965 2,2"
       id="path2" />
    <path
       d="m 33.9708,25.4081 c 0,1.1045 -0.8965,2 -2,2 -1.1035,0 -2,-0.8955 -2,-2 0,-1.1035 0.8965,-2 2,-2 1.1035,0 2,0.8965 2,2"
       id="path4" />
    <path
       d="m 35.9707,35.4106 c -1.1519,0 -2.3038,-0.2862 -3.4473,-0.858 -0.4941,-0.247 -0.6943,-0.8476 -0.4473,-1.3418 0.2466,-0.4936 0.8462,-0.6943 1.3418,-0.4472 1.7178,0.8594 3.3877,0.8594 5.1055,0 0.4946,-0.2471 1.0947,-0.0464 1.3418,0.4472 0.2471,0.4942 0.0469,1.0948 -0.4473,1.3418 -1.1435,0.5718 -2.2954,0.858 -3.4472,0.858 z"
       id="path6" />
    <path
       d="m 35.9707,41.9424 c -6.8037,0 -12.3389,-6.8067 -12.3389,-15.1734 0,-0.874 0.0606,-1.7504 0.1807,-2.6044 l 1.9805,0.2773 c -0.1065,0.7632 -0.1612,1.5459 -0.1612,2.3271 0,7.2642 4.6377,13.1734 10.3389,13.1734 5.7012,0 10.3389,-5.9092 10.3389,-13.1734 0,-1.0727 -0.1016,-2.1391 -0.3028,-3.1699 l 1.9629,-0.3828 c 0.2256,1.1567 0.3399,2.3521 0.3399,3.5527 0,8.3667 -5.5352,15.1734 -12.3389,15.1734 z"
       id="path8" />
    <path
       d="m 39.2344,13.5957 h -7.2637 c -0.5527,0 -1,-0.4478 -1,-1 V 9.5083 c 0,-0.5522 0.4473,-1 1,-1 0.5527,0 1,0.4478 1,1 v 2.0874 h 5.2637 V 9.5083 c 0,-0.5522 0.4472,-1 1,-1 0.5527,0 1,0.4478 1,1 v 3.0874 c 0,0.5522 -0.4473,1 -1,1 z"
       id="path10" />
    <path
       d="m 47.4502,16.6587 c -0.5527,0 -1,-0.4478 -1,-1 v -2.6763 c 0,-0.5522 0.4473,-1 1,-1 0.5527,0 1,0.4478 1,1 v 2.6763 c 0,0.5522 -0.4473,1 -1,1 z"
       id="path12" />
    <path
       d="m 24.0527,16.6587 c -0.5527,0 -1,-0.4478 -1,-1 v -2.6763 c 0,-0.5522 0.4473,-1 1,-1 0.5528,0 1,0.4478 1,1 v 2.6763 c 0,0.5522 -0.4472,1 -1,1 z"
       id="path14" />
    <path
       d="m 55.3535,57.9189 c -0.0508,0 -0.1015,-0.0029 -0.1523,-0.0107 -0.5459,-0.083 -0.9209,-0.5937 -0.8379,-1.1387 0.0068,-0.0449 0.6484,-4.4785 -1.2334,-7.8838 -0.2676,-0.4834 -0.0918,-1.0918 0.3916,-1.3584 0.4853,-0.2685 1.0918,-0.0908 1.3584,0.3916 2.2178,4.0118 1.4922,8.9454 1.4599,9.1534 -0.0761,0.4941 -0.5019,0.8466 -0.9863,0.8466 z"
       id="path16" />
    <path
       d="m 17.4746,57.9189 c -0.4844,0 -0.9101,-0.3525 -0.9863,-0.8466 -0.041,-0.2696 -0.9727,-6.6328 2.581,-10.7754 1.9229,-2.2412 4.751,-3.377 8.4073,-3.377 0.1972,0 0.3906,0.0586 0.5547,0.168 3.1542,2.1025 5.6611,3.4111 8.3828,3.4238 2.1523,-0.0097 4.2714,-0.7998 7.2929,-2.7138 0.4668,-0.2959 1.084,-0.1563 1.3799,0.3095 0.2959,0.4668 0.1572,1.084 -0.3096,1.3799 -2.4404,1.5459 -5.1279,2.9785 -8.2539,3.0234 -0.0156,10e-4 -0.0312,0.0049 -0.0468,10e-4 h -0.003 c -0.0117,-10e-4 -0.0254,-10e-4 -0.0381,0 h -0.0459 c -0.0117,0 -0.0234,0 -0.0351,0 h -0.0029 c -0.0157,0.0039 -0.0293,0 -0.044,-10e-4 -3.1006,-0.0419 -5.8174,-1.4023 -9.1279,-3.5878 -2.8965,0.0566 -5.1104,0.9541 -6.5859,2.6689 -2.9561,3.4365 -2.1377,9.1201 -2.129,9.1777 0.0831,0.545 -0.2919,1.0547 -0.8378,1.1387 -0.0508,0.0078 -0.1016,0.0107 -0.1524,0.0107 z"
       id="path18" />
    <path
       d="M 41.707,54.8369 H 27.4766 c -0.5528,0 -1,-0.4473 -1,-1 v -9.917 c 0,-0.5527 0.4472,-1 1,-1 0.5527,0 1,0.4473 1,1 v 8.917 H 41.707 c 0.5528,0 1,0.4473 1,1 0,0.5527 -0.4472,1 -1,1 z"
       id="path20" />
    <path
       d="m 21.9346,57.9199 c -0.5528,0 -1,-0.4472 -1,-1 V 45.2178 c 0,-0.5528 0.4472,-1 1,-1 0.5527,0 1,0.4472 1,1 v 11.7021 c 0,0.5528 -0.4473,1 -1,1 z"
       id="path22" />
    <path
       d="m 24.9824,19.6831 c -0.4668,0 -0.8847,-0.3281 -0.9795,-0.8037 -0.0312,-0.1548 -0.7324,-3.832 1.7246,-6.9072 1.9434,-2.4312 5.2393,-3.7442 9.8008,-3.9043 0.043,-0.0054 0.0869,-0.0083 0.1309,-0.0083 h 0.1689 c 0.044,0 0.0879,0.0029 0.1309,0.0083 4.5615,0.1601 7.8584,1.4731 9.8008,3.9048 2.457,3.0747 1.7558,6.7519 1.7246,6.9072 -0.1094,0.5415 -0.6387,0.8887 -1.1768,0.7837 -0.542,-0.1084 -0.8926,-0.6358 -0.7842,-1.1773 0.0049,-0.0254 0.5401,-2.9502 -1.3408,-5.2846 -1.5849,-1.9668 -4.4238,-3.023 -8.4385,-3.1397 -4.0283,0.1172 -6.872,1.1797 -8.4541,3.1587 -1.8818,2.3555 -1.332,5.2373 -1.3261,5.2661 0.1084,0.5415 -0.2422,1.0684 -0.7842,1.1768 -0.0664,0.0132 -0.1318,0.0195 -0.1973,0.0195 z"
       id="path24" />
    <path
       d="m 51.3691,41.9805 -2.8886,-0.8125 2.0088,-7.1465 c 0.1796,-0.6309 1.1845,-3.7149 3.6533,-3.8067 l 3.8926,-0.5019 0.3847,2.9746 -3.9726,0.5127 c -0.0645,0.0088 -0.128,0.0127 -0.1924,0.0127 -0.2022,0.1025 -0.6758,0.9307 -0.8799,1.6309 z"
       id="path26" />
    <path
       d="m 47.5283,58.4971 c -0.0898,0 -0.1806,-0.0117 -0.2715,-0.0371 l -3.8515,-1.0821 c -0.2549,-0.0722 -0.4717,-0.2422 -0.6016,-0.4736 -0.1299,-0.2314 -0.1621,-0.5049 -0.0908,-0.7598 l 4.3242,-15.3828 c 0.0723,-0.2558 0.2422,-0.4717 0.4736,-0.6015 0.2305,-0.1299 0.503,-0.1622 0.7598,-0.0909 l 3.8506,1.083 c 0.5322,0.1495 0.8418,0.7022 0.6924,1.2334 l -4.3233,15.3819 c -0.124,0.4414 -0.5254,0.7295 -0.9619,0.7295 z m -2.6191,-2.7744 1.9258,0.541 3.7822,-13.4561 -1.9248,-0.542 z"
       id="path28" />
    <path
       d="m 58.417,35.2637 c -0.5234,0 -0.9639,-0.4082 -0.9971,-0.9375 l -0.3818,-6.127 c -0.0342,-0.5508 0.3848,-1.0259 0.9355,-1.06 0.5645,-0.0454 1.0264,0.3847 1.0606,0.936 l 0.3818,6.126 c 0.0342,0.5517 -0.3847,1.0263 -0.9355,1.0605 -0.0215,0.001 -0.043,0.002 -0.0635,0.002 z"
       id="path30" />
    <path
       d="m 17.7432,40.54 c -0.4737,0 -0.8838,-0.332 -0.9795,-0.7978 -2.0791,-10.0869 4.2383,-13.8545 6.7275,-14.9253 -0.2764,-1.3901 -0.3252,-4.0234 2.043,-6.9746 0.3476,-0.4302 0.9756,-0.499 1.4062,-0.1538 0.4307,0.3457 0.5,0.9751 0.1543,1.4057 -2.6074,3.2481 -1.5215,5.8125 -1.4746,5.9204 0.1182,0.2671 0.1153,0.5782 -0.0107,0.8414 -0.127,0.2636 -0.3604,0.4633 -0.6426,0.5385 -0.332,0.0909 -7.9619,2.295 -6.4043,12.0713 1.4033,-0.1806 3.6338,-0.7129 4.7002,-1.9736 0.3564,-0.4209 0.9863,-0.4727 1.4102,-0.1172 0.4209,0.3574 0.4736,0.9883 0.1171,1.4102 -2.1767,2.5712 -6.8183,2.748 -7.0146,2.7539 -0.0108,9e-4 -0.0215,9e-4 -0.0322,9e-4 z"
       id="path32" />
    <path
       d="m 24.9111,25.2573 c -0.5058,0 -0.9394,-0.3818 -0.9931,-0.8955 -0.0586,-0.5488 0.3398,-1.041 0.8896,-1.0991 3.5996,-0.3789 9.2871,-5.3809 11.1748,-7.2759 0.1895,-0.1899 0.4199,-0.3281 0.7149,-0.2944 0.2675,0.0014 0.5234,0.1103 0.7099,0.3022 3.9629,4.0655 7.8487,6.7652 9.1924,6.8794 -0.0889,-1.792 -1.1465,-3.4897 -1.1582,-3.5088 -0.2939,-0.4663 -0.1553,-1.0839 0.3106,-1.3789 0.4658,-0.2949 1.083,-0.1572 1.3779,0.3067 0.0693,0.1089 1.6953,2.6987 1.4502,5.3877 -0.0254,0.2768 -0.1651,0.5307 -0.3848,0.7006 -2.5713,1.9864 -8.4678,-3.2495 -11.5195,-6.2841 -1.9697,1.8515 -7.5,6.7168 -11.6592,7.1548 -0.0352,0.0034 -0.0703,0.0053 -0.1055,0.0053 z M 47.584,23.5898 h 0.0098 z"
       id="path34" />
    <path
       d="m 49.75,21.8184 c -0.2891,0 -0.5742,-0.1241 -0.7725,-0.3638 -1.7724,-2.1484 -7.1289,-3.7241 -13.1494,-3.895 -6.0205,0.1709 -11.3769,1.7466 -13.1494,3.895 -0.3516,0.4248 -0.9805,0.4873 -1.4082,0.1352 -0.4258,-0.3515 -0.4863,-0.9819 -0.1348,-1.4077 2.4952,-3.0239 8.7188,-4.333 13.837,-4.5893 0.0937,-0.0293 0.1933,-0.0449 0.2968,-0.0449 h 1.1172 c 0.1035,0 0.2031,0.0156 0.2969,0.0449 5.1182,0.2563 11.3418,1.5654 13.8369,4.5893 0.3516,0.4258 0.291,1.0562 -0.1348,1.4077 -0.1865,0.1539 -0.4121,0.2286 -0.6357,0.2286 z"
       id="path36" />
    <path
       d="m 62.3906,34.7578 c -1.3935,0 -2.7734,-0.5576 -4.1142,-1.6631 -0.4258,-0.3515 -0.4864,-0.9814 -0.1348,-1.4082 0.3516,-0.4248 0.9805,-0.4853 1.4082,-0.1347 1.125,0.9287 2.2305,1.3193 3.3008,1.1738 1.1816,-0.167 2.1162,-0.9629 2.6377,-1.5166 -0.5313,-0.5938 -1.5049,-1.4746 -2.7393,-1.6865 -1.0176,-0.1768 -2.081,0.1474 -3.1552,0.958 -0.4424,0.334 -1.0684,0.2451 -1.4004,-0.1953 -0.333,-0.4405 -0.2452,-1.0674 0.1953,-1.4004 1.5361,-1.1617 3.1162,-1.6114 4.7168,-1.3306 2.7568,0.4824 4.4345,3.0151 4.5049,3.1226 0.2187,0.3369 0.2158,0.7714 -0.0079,1.1045 -0.0693,0.1025 -1.7285,2.5253 -4.4521,2.9218 -0.2539,0.0362 -0.5068,0.0547 -0.7598,0.0547 z"
       id="path38" />
  </g>
</g></svg>