<svg xmlns="http://www.w3.org/2000/svg" width="24" height="24" viewBox="0 0 24 24"> <g transform="translate(0.0 1.909342945441244) scale(0.413760145312563)">
  
  <g
     id="line"
     transform="translate(-8.4618288,-12.658607)">
    <path
       d="m 41.8372,29.4237 a 2,2 0 1 1 -2,-2 2.0007,2.0007 0 0 1 2,2"
       id="path2" />
    <path
       d="m 33.8372,29.4237 a 2,2 0 1 1 -2,-2 2.0007,2.0007 0 0 1 2,2"
       id="path4" />
    <path
       d="m 35.8371,39.4261 a 7.6531,7.6531 0 0 1 -3.4473,-0.8579 1.0001038,1.0001038 0 1 1 0.8946,-1.789 5.3777,5.3777 0 0 0 5.1054,0 1.0001038,1.0001038 0 0 1 0.8946,1.789 7.6528,7.6528 0 0 1 -3.4473,0.8579 z"
       id="path6" />
    <path
       fill="none"
       stroke="#000"
       stroke-linecap="round"
       stroke-linejoin="round"
       stroke-width="2"
       d="m 16.8949,60.2813 c 0,0 -2,-13 10,-13 3.16,2.09 5.86,3.56 8.88,3.59 h 0.12 c 3.02,-0.03 5.73,-1.5 8.88,-3.59 0.15,0 0.29,0 0.43,0.01"
       id="path8" />
    <path
       fill="none"
       stroke="#000"
       stroke-linecap="round"
       stroke-linejoin="round"
       stroke-width="2"
       d="m 51.0549,49.0513 c 4.9,3.55 3.72,11.23 3.72,11.23"
       id="path10" />
    <line
       x1="21.9667"
       x2="21.9667"
       y1="48.2299"
       y2="60.433899"
       fill="none"
       stroke="#000"
       stroke-linecap="round"
       stroke-linejoin="round"
       stroke-width="2"
       id="line12" />
    <line
       x1="49.4575"
       x2="49.4575"
       y1="50.9156"
       y2="60.433899"
       fill="none"
       stroke="#000"
       stroke-linecap="round"
       stroke-linejoin="round"
       stroke-width="2"
       id="line14" />
    <polyline
       fill="none"
       stroke="#000"
       stroke-linecap="round"
       stroke-linejoin="round"
       stroke-width="2"
       points="27.105 47.533 27.105 60.434 44.554 60.42 44.554 47.513"
       id="polyline16" />
    <path
       fill="none"
       stroke="#000"
       stroke-linecap="round"
       stroke-linejoin="round"
       stroke-width="2"
       d="M 16.2232,38.8794 C 15,38.1046 15.0052,36.77 15.78,35.5468 c 0.7748,-1.2232 1.908,-1.6877 3.1313,-0.9129"
       id="path18" />
    <path
       fill="none"
       stroke="#000"
       stroke-linecap="round"
       stroke-linejoin="round"
       stroke-width="2"
       d="m 18.7912,41.4474 a 2.5681,2.5681 0 1 1 -2.568,-2.568"
       id="path20" />
    <path
       fill="none"
       stroke="#000"
       stroke-linecap="round"
       stroke-linejoin="round"
       stroke-width="2"
       d="m 9.579,49.06 c 6.3524,-0.3944 4.5577,-5.6759 4.5577,-5.6759 0,0 -5.5445,-0.6117 -4.5577,5.6759 z"
       id="path22" />
    <path
       fill="none"
       stroke="#000"
       stroke-linecap="round"
       stroke-linejoin="round"
       stroke-width="2"
       d="m 23.1575,38.5582 c 0,0 0.8726,2.5851 -1.0791,3.5473 -1.2988,0.64 -2.6056,0.62 -3.2872,-0.6581"
       id="path24" />
    <path
       fill="none"
       stroke="#000"
       stroke-linecap="round"
       stroke-linejoin="round"
       stroke-width="2"
       d="m 18.9112,34.6339 c -4.662,-9.0993 7.3379,-17.851 7.3379,-17.851 0,0 9.7081,-7.3365 19.9831,0.446 2.3914,1.8111 10.8095,9.5169 6.7678,17.405"
       id="path26" />
    <path
       fill="none"
       stroke="#000"
       stroke-linecap="round"
       stroke-linejoin="round"
       stroke-width="2"
       d="M 53,34.6339 A 2.498,2.498 0 0 1 56.7649,36.57"
       id="path28" />
    <path
       fill="none"
       stroke="#000"
       stroke-linecap="round"
       stroke-linejoin="round"
       stroke-width="2"
       d="m 51.6536,42.1681 a 2.3306,2.3306 0 0 1 -1.82,-0.0626 c -1.9517,-0.9622 -1.0791,-3.5473 -1.0791,-3.5473"
       id="path30" />
    <path
       fill="none"
       stroke="#000"
       stroke-linecap="round"
       stroke-linejoin="round"
       stroke-width="2"
       d="m 35.7149,19.7913 c 5.82,0 10.55,5.63 10.55,12.58 0,6.95 -4.73,12.59 -10.55,12.59 -5.83,0 -10.55,-5.64 -10.55,-12.59 a 14.9823,14.9823 0 0 1 0.29,-2.95"
       id="path32" />
    <path
       fill="none"
       stroke="#000"
       stroke-linecap="round"
       stroke-linejoin="round"
       stroke-width="2"
       d="m 49.8491,45.8871 c 1.6957,2.0754 1.1915,5.2935 1.1915,5.2935 0,0 -3.2538,-0.1474 -4.95,-2.2229 -1.6962,-2.0755 -1.1915,-5.2935 -1.1915,-5.2935 0,0 3.2543,0.1491 4.95,2.2229 z"
       id="path34" />
    <path
       fill="none"
       stroke="#000"
       stroke-linecap="round"
       stroke-linejoin="round"
       stroke-width="2"
       d="m 53.8511,50.3887 c -1.46,1.507 -2.3594,5.5789 -1.5748,10.0344"
       id="path36" />
    <path
       fill="none"
       stroke="#000"
       stroke-linecap="round"
       stroke-linejoin="round"
       stroke-width="2"
       d="M 56.5813,38.2343 A 2.1238274,2.1238274 0 1 1 60.8264,38.087"
       id="path38" />
    <path
       fill="none"
       stroke="#000"
       stroke-linecap="round"
       stroke-linejoin="round"
       stroke-width="2"
       d="m 63.2589,44.912 a 2.1239,2.1239 0 1 0 0.1473,-4.2452"
       id="path40" />
    <path
       fill="none"
       stroke="#000"
       stroke-linecap="round"
       stroke-linejoin="round"
       stroke-width="2"
       d="m 63.4063,40.6668 a 1.84,1.84 0 0 0 -2.58,-2.58"
       id="path42" />
    <path
       fill="none"
       stroke="#000"
       stroke-linecap="round"
       stroke-linejoin="round"
       stroke-width="2"
       d="m 60.6785,47.4913 a 1.84,1.84 0 0 0 2.58,-2.58"
       id="path44" />
    <path
       fill="none"
       stroke="#000"
       stroke-linecap="round"
       stroke-linejoin="round"
       stroke-width="2"
       d="M 60.6772,47.49 A 2.1239,2.1239 0 0 1 56.432,47.6374"
       id="path46" />
    <path
       fill="none"
       stroke="#000"
       stroke-linecap="round"
       stroke-linejoin="round"
       stroke-width="2"
       d="m 53.8548,45.0548 a 1.84,1.84 0 0 0 2.58,2.58"
       id="path48" />
    <path
       fill="none"
       stroke="#000"
       stroke-linecap="round"
       stroke-linejoin="round"
       stroke-width="2"
       d="m 56.5813,38.2343 c -1.6529,-1.2446 -4.1446,0.7 -2.8789,2.5776"
       id="path50" />
    <path
       fill="none"
       stroke="#000"
       stroke-linecap="round"
       stroke-linejoin="round"
       stroke-width="2"
       d="M 53.8511,45.0585 A 2.1239,2.1239 0 0 1 53.7038,40.8133"
       id="path52" />
    <circle
       cx="58.555302"
       cy="43.023701"
       r="1.8896"
       fill="none"
       stroke="#000"
       stroke-miterlimit="10"
       stroke-width="1.5"
       id="circle54" />
    <path
       fill="none"
       stroke="#000"
       stroke-linecap="round"
       stroke-linejoin="round"
       stroke-width="2"
       d="m 25.4519,29.4237 c 0,0 5.13,-2.6373 10.26,-9.6355 v 0"
       id="path56" />
  </g>
</g></svg>