<svg xmlns="http://www.w3.org/2000/svg" width="24" height="24" viewBox="0 0 24 24"> <g transform="scale(0.48)">
  
  <g
     id="line"
     transform="translate(-11,-11)">
    <rect
       x="12"
       y="12"
       width="48"
       height="48"
       fill="none"
       stroke="#000"
       stroke-linecap="round"
       stroke-linejoin="round"
       stroke-width="2"
       id="rect2" />
    <path
       fill="none"
       stroke="#000"
       stroke-linecap="round"
       stroke-linejoin="round"
       stroke-width="3"
       d="m 49.97,47.17 3.731,3.757 -3.731,3.757"
       id="path4" />
    <path
       fill="none"
       stroke="#000"
       stroke-linecap="round"
       stroke-linejoin="round"
       stroke-width="3"
       d="M 35.23,44.91 35.355,31.23"
       id="path6" />
    <path
       fill="none"
       stroke="#000"
       stroke-linecap="round"
       stroke-linejoin="round"
       stroke-width="3"
       d="M 26.31,44.91 V 30.88 c -0.1453,-1.558 -0.6264,-3.32 -2.212,-5.754"
       id="path8" />
    <path
       fill="none"
       stroke="#000"
       stroke-linecap="round"
       stroke-linejoin="round"
       stroke-width="3"
       d="m 26.31,31.23 c 0,0 0.766,-6.485 4.523,-6.437 3.757,0.048 4.405,4.103 4.523,6.437 0.1828,-2.264 0.9161,-6.54 4.478,-6.544 3.562,-0.0042 4.31,3.958 4.478,6.544 l 1.42e-4,13.68 c 0,0 0.1299,6.155 5.921,6.004"
       id="path10" />
  </g>
</g></svg>