<svg xmlns="http://www.w3.org/2000/svg" width="24" height="24" viewBox="0 0 24 24"> <g transform="translate(2.4000000000000004 0.0) scale(0.48)">
  
  <g
     id="line"
     transform="translate(-16,-10.9583)">
    <path
       fill="none"
       stroke="#000"
       stroke-linecap="round"
       stroke-linejoin="round"
       stroke-width="2"
       d="m 26,38.9583 c -4,0 -4,-6 -4,-13 0,-7 4,-14 14,-14 10,0 14,7 14,14 0,7 0,13 -4,13"
       id="path2" />
    <path
       fill="none"
       stroke="#000"
       stroke-linecap="round"
       stroke-linejoin="round"
       stroke-width="2"
       d="m 17,59.9583 v -3 c 0,-4.9941 5.0078,-9 10,-9 q 9,7.5 18,0 c 4.9941,0 10,4.0059 10,9 v 3"
       id="path4" />
    <path
       d="m 42,30.9583 c 0,1.1045 -0.8955,1 -2,1 -1.1045,0 -2,0.1045 -2,-1 a 3.1184,3.1184 0 0 1 1,-2 c 1.1045,0 3,0.8955 3,2"
       id="path6" />
    <path
       d="m 34,30.9583 c 0,1.1045 -0.8955,1 -2,1 -1.1045,0 -2,0.1045 -2,-1 0,-1 2.0225,-2 3.127,-2 a 3.2627,3.2627 0 0 1 0.873,2"
       id="path8" />
    <path
       fill="none"
       stroke="#000"
       stroke-linecap="round"
       stroke-linejoin="round"
       stroke-width="2"
       d="m 38,38.7083 a 3.0417,3.0417 0 0 0 -4,0"
       id="path10" />
    <path
       fill="none"
       stroke="#000"
       stroke-linejoin="round"
       stroke-width="2"
       d="m 24.9365,30.9583 c 0,9 4.9365,14 11,14 5.9365,0 11.0635,-5 11.0635,-14 0,-3 -1,-4 -1,-4 a 76.84,76.84 0 0 0 -7,-6 c -4,3 -9,5 -13,5 0,0 -1.0635,0 -1.0635,5 z"
       id="path12" />
  </g>
</g></svg>