<svg xmlns="http://www.w3.org/2000/svg" width="24" height="24" viewBox="0 0 24 24"> <g transform="translate(1.0526573093281044 0.0) scale(0.4044764759852204)">
  
  <g
     id="line"
     transform="translate(-10.888038,-8.4090381)">
    <polyline
       fill="none"
       stroke="#000"
       stroke-linecap="round"
       stroke-linejoin="round"
       stroke-width="2"
       points="28.256 54.586 26.154 55.927 11.888 33.561 49.753 9.409 64.019 31.776 60.217 34.201"
       id="polyline2" />
    <line
       x1="40.639702"
       x2="40.637402"
       y1="39.900501"
       y2="24.0228"
       fill="none"
       stroke="#000"
       stroke-linecap="round"
       stroke-linejoin="round"
       stroke-width="1.7327"
       id="line4" />
    <path
       fill="none"
       stroke="#000"
       stroke-linecap="round"
       stroke-linejoin="round"
       stroke-width="2"
       d="M 46.35,38.5154 46.1985,22.3376 v 0.665 c -5e-4,-3.0516 5.629,-3.873 5.63,0.72 l 0.0523,5.5746 0.0992,10.6035 -0.1142,-12.1926 c 0,-2.7491 4.8971,-2.8421 4.8976,0.7032 l 0.0031,21.1213 c 6e-4,4.1454 -0.5144,6.8717 -2.68,10.3392 v 2.2133 H 35.0317 v -2.2157 c -1.8558,-2.1982 -3.0311,-5.3354 -4.2739,-9.0062 -0.815,-2.5337 -2.5332,-6.7293 -4.5016,-12.5434 1.18,-2.3882 4.8619,-0.9094 6.6355,1.0892 l 2.0046,4.0962 -0.0029,-19.9825 c 0,-3.1749 5.7438,-3.4111 5.7444,0.5 v -2.5311 c -5e-4,-3.4183 5.56,-4.61 5.5609,1.5109"
       id="path6" />
    <line
       x1="40.639702"
       x2="40.637402"
       y1="39.900501"
       y2="24.0228"
       fill="none"
       stroke="#000"
       stroke-linecap="round"
       stroke-linejoin="round"
       stroke-width="2"
       id="line8" />
    <circle
       cx="27.766001"
       cy="10.9583"
       r="2"
       id="circle10" />
    <circle
       cx="37.085098"
       cy="10.9583"
       r="2"
       id="circle12" />
    <circle
       cx="15.1277"
       cy="16"
       r="2"
       id="circle14" />
    <circle
       cx="19.127701"
       cy="20"
       r="2"
       id="circle16" />
    <circle
       cx="15.383"
       cy="25.337799"
       r="2"
       id="circle18" />
    <circle
       cx="23.3617"
       cy="24.6689"
       r="2"
       id="circle20" />
    <circle
       cx="28.256201"
       cy="20.6689"
       r="2"
       id="circle22" />
    <circle
       cx="23.766001"
       cy="16"
       r="2"
       id="circle24" />
    <circle
       cx="31.8085"
       cy="16"
       r="2"
       id="circle26" />
    <circle
       cx="19.127701"
       cy="10.9583"
       r="2"
       id="circle28" />
    <polyline
       fill="none"
       stroke="#000"
       stroke-linecap="round"
       stroke-linejoin="round"
       stroke-width="2"
       points="35.032 62.085 35.032 66.706 54.086 66.745 54.086 62.085"
       id="polyline30" />
  </g>
</g></svg>