<svg xmlns="http://www.w3.org/2000/svg" width="24" height="24" viewBox="0 0 24 24"> <g transform="translate(0.0 4.531229308539294) scale(0.45698055505848345)">
  
  <g
     id="line"
     transform="translate(-10,-24)">
    <line
       x1="55"
       x2="57"
       y1="27"
       y2="30"
       fill="none"
       stroke="#000"
       stroke-linecap="round"
       stroke-linejoin="round"
       stroke-miterlimit="10"
       stroke-width="2"
       id="line2" />
    <line
       x1="58.833302"
       x2="61"
       y1="29.3333"
       y2="25"
       fill="none"
       stroke="#000"
       stroke-linecap="round"
       stroke-linejoin="round"
       stroke-miterlimit="10"
       stroke-width="2"
       id="line4" />
    <path
       fill="none"
       stroke="#000"
       stroke-linecap="round"
       stroke-linejoin="round"
       stroke-miterlimit="10"
       stroke-width="2"
       d="m 23.0007,39 c 2.2654,-7.9289 10,-3 10,-3 6,5 1,15 -8,13 -9,-2 -9,-12 -6,-17 3,-5 14,-9 21,-1 1.8184,2.0781 3,5 1,12"
       id="path6" />
    <path
       fill="none"
       stroke="#000"
       stroke-linecap="round"
       stroke-linejoin="round"
       stroke-miterlimit="10"
       stroke-width="2"
       d="m 11,55 c 18.4032,1.6003 30.4041,-6e-4 34.4661,-0.7044 0.9792,-0.1697 1.901,-0.575 2.6746,-1.1989 C 64.912,39.5719 63,31 58,30 54.8991,29.3798 48.8485,40.3756 46,44 c -1.5905,2.0237 -5,5 -9,5"
       id="path8" />
  </g>
</g></svg>