<svg xmlns="http://www.w3.org/2000/svg" width="24" height="24" viewBox="0 0 24 24"> <g transform="translate(0.0 3.1345149740993037) scale(0.38155188981697147)">
  
  <g
     id="line"
     transform="translate(-3.9114894,-14.240434)">
    <path
       fill="none"
       stroke="#000"
       stroke-linecap="round"
       stroke-linejoin="round"
       stroke-miterlimit="10"
       stroke-width="2"
       d="m 59.3346,35.6722 c -1.0322,1.8633 -2.1378,4.2568 -1.8743,5.5745 0.4734,2.3672 1.7162,6.2337 1.7162,6.2337 l -5.0977,11.1058 c -0.3146,0.6855 -0.9998,1.1249 -1.754,1.1249 H 52.313 c -1.4871,0 -2.4197,-1.6063 -1.6706,-2.8909 1.914,-3.282 4.0872,-9.1253 1.4405,-16.3143 -0.6513,-1.7691 -0.6643,-3.7138 -0.039,-5.4923 l 2.4968,-7.1021"
       id="path2" />
    <path
       fill="none"
       stroke="#000"
       stroke-linecap="round"
       stroke-linejoin="round"
       stroke-miterlimit="10"
       stroke-width="2"
       d="m 63.25,42.9349 c 0.464,0.6901 1.5227,4.6182 1.3283,5.4268 L 62.308,57.801 c -0.2162,0.8988 -1.0201,1.5323 -1.9445,1.5323 h -2.4483"
       id="path4" />
    <path
       fill="none"
       stroke="#000"
       stroke-linecap="round"
       stroke-linejoin="round"
       stroke-miterlimit="10"
       stroke-width="2"
       d="m 38.375,31.4375 0.6999,6.8107 -1.1374,9.5643 6.999,5.5663 c 0.4067,0.2948 0.6875,0.7318 0.7868,1.2242 l 0.0032,0.016 c 0.3617,1.7945 -1.6777,3.0917 -3.1497,2.0033 L 34.8139,50.3999 33.2111,39.0404 30.3162,36.4334 C 19.3481,39.9052 13.5,26.9167 13.5,26.9167 l -5.25,-1 -1.9167,0.5 C 5.8629,26.5051 5.2762,25.6869 5.0833,25.2489 4.1949,23.2311 6.6558,22.0582 6.6558,22.0582 l 8.3562,-1.4468 c 0.5717,-0.1006 1.1403,0.1768 1.4055,0.6932 1.3581,2.6452 5.9254,10.2179 12.1628,6.6068 0,0 1.4468,-4.8436 8.0473,-6.9487 1.5595,-0.4974 2.9298,-1.464 3.8123,-2.8426 0.6625,-1.0349 1.5157,-2.0836 2.3438,-2.2815 1.2957,-0.3098 3.7318,-0.5408 5.4141,-0.5968 0.9628,-0.0321 1.8537,0.4943 2.2758,1.3603 0.7867,1.6141 11.4126,9.105 11.4126,9.105 1.3039,1.1445 2.0292,2.8096 1.9628,4.5432 -0.0857,2.2388 0.821,6.2497 1.9635,8.9997"
       id="path6" />
    <path
       fill="none"
       stroke="#000"
       stroke-linecap="round"
       stroke-linejoin="round"
       stroke-miterlimit="10"
       stroke-width="2"
       d="M 30,41.1875 28.8605,57.8172 C 28.7462,58.4322 29.2181,59 29.8437,59 h 1.5313 c 1.1046,0 2,-0.8954 2,-2 v -2.5625"
       id="path8" />
    <path
       fill="none"
       stroke="#000"
       stroke-linecap="round"
       stroke-linejoin="round"
       stroke-miterlimit="10"
       stroke-width="2"
       d="m 42.9495,39.9365 c 2.815,-0.282 6.6505,-0.8706 8.0404,-1.9251"
       id="path10" />
  </g>
</g></svg>