<svg xmlns="http://www.w3.org/2000/svg" width="24" height="24" viewBox="0 0 24 24"> <g transform="translate(0.0 4.5) scale(0.375)">
  
  <g
     id="line"
     transform="translate(-4,-16)">
    <path
       fill="none"
       stroke="#000"
       stroke-linecap="round"
       stroke-linejoin="round"
       stroke-width="2"
       d="M 67,17 H 5 v 38 h 62 z"
       id="path2" />
    <path
       fill="none"
       stroke="#000"
       stroke-linecap="round"
       stroke-linejoin="bevel"
       d="m 29,29 h 2.5"
       id="path4" />
    <path
       fill-rule="evenodd"
       stroke="#000"
       stroke-linecap="round"
       stroke-linejoin="round"
       d="m 34.45,39.55 c -0.1988,1.895 -0.0059,2.834 0.5562,4.637 -1.005,1.063 -1.834,2.039 -3.279,2.039 l -0.3433,-1.028 1.62,-0.5105 c -0.9113,-1.066 -2.173,-2.228 -2.002,-2.999 -2.507,0.2343 -2.746,1.631 -3.661,3.763 l -3.004,-0.9997 0.4613,-1.107 1.698,0.8426 c -0.4406,-2.904 0.9531,-4.623 3.004,-5.998 -0.8301,-0.6769 -0.949,-1.62 -0.9503,-2.607 -2.516,0.6583 -4.081,0.8835 -5.557,-1.391 l 0.5006,-0.9997 c 1.766,3.186 2.875,1.521 5.084,0.2249 -4.49,-2.806 -3.859,-1.68 -5.084,-4.724 l 1.001,-0.4998 c 0.5779,2.902 2.239,2.353 4.505,2.999 l 2.503,-1.999 c -0.6635,-2.516 -2.985,-0.184 -3.004,-2.499 h 1.502 c 1.595,-1.816 3.339,-0.361 4.505,-0.4998 l -0.5006,0.9997 c 0.1421,1.168 0.003,1.993 -0.5006,2.999 1.237,1.851 -0.1047,2.506 -0.3807,4.573 -0.1109,0.8306 1.116,3.144 1.326,4.786 z"
       clip-rule="evenodd"
       id="path6" />
  </g>
</g></svg>