<svg xmlns="http://www.w3.org/2000/svg" width="24" height="24" viewBox="0 0 24 24"> <g transform="translate(1.9300360024346546 0.0) scale(0.4469714721575324)">
  
  <g
     id="line"
     transform="translate(-14.706101,-6.276)">
    <g
       id="line-2">
      <path
         d="m 53.7275,58.8516 a 0.9962,0.9962 0 0 1 -0.99,-1.1495 15.384,15.384 0 0 0 0.082,-2.8984 1,1 0 1 1 1.9961,-0.123 17.1075,17.1075 0 0 1 -0.1015,3.3232 0.9992,0.9992 0 0 1 -0.9866,0.8477 z"
         id="path2" />
      <path
         d="m 48.6152,59.9707 a 1,1 0 0 1 -0.9336,-1.3574 l 3.3643,-8.7988 a 1,1 0 0 1 1.8672,0.7148 l -3.3643,8.7988 a 0.9979,0.9979 0 0 1 -0.9336,0.6426 z"
         id="path4" />
      <path
         d="m 39.0358,24.996 a 2,2 0 1 1 -2,2 2.0059,2.0059 0 0 1 2,-2 z"
         id="path6" />
      <path
         d="m 38.9258,34.806 a 0.9982,0.9982 0 0 1 -0.44,1.34 7.35,7.35 0 0 1 -6.9,0 0.9982,0.9982 0 0 1 -0.44,-1.34 0.9879,0.9879 0 0 1 1.34,-0.45 5.3632,5.3632 0 0 0 5.1,0 0.9879,0.9879 0 0 1 1.34,0.45 z"
         id="path8" />
      <path
         d="m 31.0358,24.996 a 2,2 0 1 1 -2,2 2.0059,2.0059 0 0 1 2,-2 z"
         id="path10" />
      <path
         fill="none"
         stroke="#000"
         stroke-linecap="round"
         stroke-linejoin="round"
         stroke-width="2"
         d="m 24.0258,24.986 a 16.0465,16.0465 0 0 1 0.86,-2.93 v -0.01"
         id="path12" />
      <path
         fill="none"
         stroke="#000"
         stroke-linecap="round"
         stroke-linejoin="round"
         stroke-width="2"
         d="m 45.2858,22.286 a 16.8263,16.8263 0 0 1 0.59,1.94 c 0.07,0.25 0.13,0.51 0.18,0.77 a 17.6438,17.6438 0 0 1 0.32,3.36 c 0,7.83 -5.08,14.18 -11.34,14.18 -6.26,0 -11.34,-6.35 -11.34,-14.18 a 16.7949,16.7949 0 0 1 0.33,-3.36"
         id="path14" />
      <path
         fill="none"
         stroke="#000"
         stroke-linecap="round"
         stroke-linejoin="round"
         stroke-width="2"
         d="m 34.7358,16.566 a 15.1817,15.1817 0 0 0 -8.41,1.89 c -0.02,0.01 -0.05,0.03 -0.07,0.04 a 9.0545,9.0545 0 0 0 -2.54,2.31 c 0.33,0.43 0.62,1.07 1.17,1.25 0.03,0.01 0.06,0.02 0.1,0.03 a 44.8706,44.8706 0 0 0 9.51,0.9"
         id="path16" />
      <path
         fill="none"
         stroke="#000"
         stroke-linecap="round"
         stroke-linejoin="round"
         stroke-width="2"
         d="m 26.1958,18.406 c 1.76,-4.76 6.05,-9.05 8.54,-9.71 -14.44,1.61 -13.32,12.16 -10.71,16.29 v 0.01"
         id="path18" />
      <path
         fill="none"
         stroke="#000"
         stroke-linecap="round"
         stroke-linejoin="round"
         stroke-width="2"
         d="m 34.7358,16.566 a 15.1817,15.1817 0 0 1 8.41,1.89 c 0.02,0.01 0.05,0.03 0.07,0.04 a 9.0545,9.0545 0 0 1 2.54,2.31 c -0.35,0.46 -0.65,1.15 -1.27,1.28 a 44.8079,44.8079 0 0 1 -9.51,0.9"
         id="path20" />
      <path
         fill="none"
         stroke="#000"
         stroke-linecap="round"
         stroke-linejoin="round"
         stroke-width="2"
         d="m 43.2758,18.406 c -1.76,-4.76 -6.05,-9.05 -8.54,-9.71 13.63,1.52 13.4,11 11.15,15.53"
         id="path22" />
      <line
         x1="34.735802"
         x2="34.735802"
         y1="8.6960001"
         y2="7.276"
         fill="none"
         stroke="#000"
         stroke-linecap="round"
         stroke-linejoin="round"
         stroke-width="2"
         id="line24" />
      <path
         d="m 37.5986,58.9707 a 1,1 0 0 1 -1,-1 v -5.7676 a 1,1 0 0 1 0.3633,-0.7715 c 1.9912,-1.6425 3.7324,-2.1494 5.1768,-1.5078 1.542,0.6856 2.2334,2.4971 2.5429,3.9073 l 2.3536,-1.8282 a 0.9994,0.9994 0 0 1 1.2265,1.5782 l -3.7187,2.8906 a 1,1 0 0 1 -1.6123,-0.7442 c -0.05,-1.0879 -0.5088,-3.49 -1.6055,-3.9765 -0.6113,-0.2686 -1.5684,0.0605 -2.7266,0.9355 v 5.2842 a 0.9994,0.9994 0 0 1 -1,1 z"
         id="path26" />
      <path
         fill="none"
         stroke="#000"
         stroke-linecap="round"
         stroke-linejoin="round"
         stroke-width="2"
         d="m 45.4358,45.026 a 8.1174,8.1174 0 0 0 -1.71,-0.17 c -3.15,2.09 -5.86,3.55 -8.88,3.59 h -0.12 c -3.02,-0.04 -5.72,-1.5 -8.88,-3.59 -4.72,0 -7.28,2.01 -8.64,4.46 -2.1,3.76 -1.36,8.54 -1.36,8.54"
         id="path28" />
      <path
         fill="none"
         stroke="#000"
         stroke-linecap="round"
         stroke-linejoin="round"
         stroke-width="2"
         d="m 31.7358,57.966 v -5.76 c -5.97,-4.93 -6.33,3.48 -6.33,3.48 l -8.19,-6.37"
         id="path30" />
      <line
         x1="31.7358"
         x2="25.8458"
         y1="52.206001"
         y2="44.855999"
         fill="none"
         stroke="#000"
         stroke-linecap="round"
         stroke-linejoin="round"
         stroke-width="2"
         id="line32" />
      <path
         d="m 37.5977,53.2031 a 1,1 0 0 1 -0.7676,-1.6406 l 6.1269,-7.3506 a 1.0006,1.0006 0 0 1 1.5371,1.2813 l -6.1269,7.3506 a 0.9989,0.9989 0 0 1 -0.7695,0.3593 z"
         id="path34" />
      <path
         d="m 53.7588,51.502 a 6,6 0 1 1 5.61,-3.8565 5.9581,5.9581 0 0 1 -5.61,3.8565 z M 53.7627,41.5 A 4.01,4.01 0 1 0 55.1934,41.7656 4.0023,4.0023 0 0 0 53.7627,41.5 Z"
         id="path36" />
    </g>
    <path
       fill="none"
       stroke="#000"
       stroke-linecap="round"
       stroke-linejoin="round"
       stroke-width="1.6"
       d="m 35,32 c 0,0 1.2,-2 3.6,0 a 2.3614,2.3614 0 0 0 1.3875,0.6875"
       id="path39" />
    <path
       fill="none"
       stroke="#000"
       stroke-linecap="round"
       stroke-linejoin="round"
       stroke-width="1.6"
       d="m 34.9875,32 c 0,0 -1.2,-2 -3.6,0 A 2.3614,2.3614 0 0 1 30,32.6875"
       id="path41" />
  </g>
</g></svg>