<svg xmlns="http://www.w3.org/2000/svg" width="24" height="24" viewBox="0 0 24 24"> <g transform="translate(0.0 5.656265707660479) scale(0.4165567419708688)">
  
  <g
     id="line"
     transform="translate(-7.1924,-26.142307)">
    <path
       fill="none"
       stroke="#000"
       stroke-miterlimit="10"
       stroke-width="2"
       d="m 61.0935,35.2744 c -12.8582,5.5906 -10.02,6.2746 -16.19,14.72 -5.5122,7.5445 -12.3623,7.4371 -17.88,-0.1 -6.4513,-8.8121 -3.815,-9.0294 -16.0148,-14.6507"
       id="path2" />
    <path
       fill="none"
       stroke="#000"
       stroke-miterlimit="10"
       stroke-width="2"
       d="m 32.585,54.5615 c 0,0 -1.59,-19.3178 -21.5763,-19.3178 -2.0019,0 -2.8163,-2.3581 -2.8163,-5.0986 v -1.4615 c 0,-1.6819 0.996,-1.5226 2.2246,-1.5226 h 51.166 c 1.2286,0 2.2246,-0.1593 2.2246,1.5226 v 1.5749 c 0,2.6858 -0.7522,4.9848 -2.7141,4.9848 -20.0881,0 -21.7516,19.3188 -21.7516,19.3188"
       id="path4" />
  </g>
</g></svg>