<svg xmlns="http://www.w3.org/2000/svg" width="24" height="24" viewBox="0 0 24 24"> <g transform="translate(2.566636261017681 0.0) scale(0.4491417518691689)">
  
  <g
     id="line"
     transform="translate(-14.997049,-7.5536528)">
    <path
       fill="none"
       stroke="#000"
       stroke-linecap="round"
       stroke-linejoin="round"
       stroke-width="2"
       d="m 48.0857,27.8051 a 43.3764,43.3764 0 0 0 -0.7382,-7.7178 v 0 a 26.0907,26.0907 0 0 1 -21.338,0 22.9285,22.9285 0 0 0 -1.1671,7.2327 c -0.1811,8.6818 4.8753,15.8284 11.2939,15.9622 6.4186,0.1338 11.7683,-6.7957 11.9494,-15.4775"
       id="path2" />
    <path
       fill="none"
       stroke="#000"
       stroke-linecap="round"
       stroke-linejoin="round"
       stroke-width="2"
       d="m 46.53,35.26 c 10.8564,-5.6063 5.86,-19.5676 5.86,-19.5676 a 4.9809,4.9809 0 0 0 -4.1981,-2.9241 6.7193,6.7193 0 0 0 -4.4341,1.3884 c 0,0 -9.1122,-12.1017 -19.5868,-0.8667 a 8.3451,8.3451 0 0 1 -7.5966,2.7683 c 0,0 0.7136,4.0878 3.1862,4.5277 0,0 -3.9156,3.2042 -0.4165,6.9468 0,0 3.6874,8.9966 7.8474,9.6691"
       id="path4" />
    <path
       d="m 42.1685,29.773 a 2,2 0 1 1 -2,-2 2.0007,2.0007 0 0 1 2,2"
       id="path6" />
    <path
       d="m 34.1685,29.773 a 2,2 0 1 1 -2,-2 2.0007,2.0007 0 0 1 2,2"
       id="path8" />
    <path
       d="m 36.1683,39.7754 a 7.6524,7.6524 0 0 1 -3.4472,-0.8579 1.0001261,1.0001261 0 0 1 0.8945,-1.7891 5.3774,5.3774 0 0 0 5.1055,0 1.0001261,1.0001261 0 1 1 0.8945,1.7891 7.6528,7.6528 0 0 1 -3.4473,0.8579 z"
       id="path10" />
    <path
       fill="none"
       stroke="#000"
       stroke-linecap="round"
       stroke-linejoin="round"
       stroke-width="2"
       d="m 33.5793,49.7846 c 0,0 -1.2656,6.3176 2.4207,6.3176 3.6863,0 2.4207,-6.3176 2.4207,-6.3176"
       id="path12" />
    <path
       fill="none"
       stroke="#000"
       stroke-linecap="round"
       stroke-linejoin="round"
       stroke-width="2"
       d="m 35.1083,56.1526 -2.534,3.8363 c -3.8085,-1.8495 -5.9508,-13.67 -5.9508,-13.67 l -5.3557,7.3132 3.12,1.9425 -1.0476,3.2834 9.3051,1.1306"
       id="path14" />
    <path
       fill="none"
       stroke="#000"
       stroke-linecap="round"
       stroke-linejoin="round"
       stroke-width="2"
       d="m 36.8919,56.1526 2.5339,3.8363 c 3.8085,-1.8495 5.9509,-13.67 5.9509,-13.67 l 5.3556,7.3132 -3.12,1.9425 1.0477,3.2837 -9.305,1.1306"
       id="path16" />
    <path
       fill="none"
       stroke="#000"
       stroke-linecap="round"
       stroke-linejoin="round"
       stroke-width="2"
       d="m 16.1313,59.9586 c 0,0 -2.0984,-13.6394 10.4918,-13.6394 3.3487,2.2326 6.2178,3.7754 9.4426,3.7688 h -0.1312 c 3.2248,0.0066 6.0938,-1.5362 9.4427,-3.7688 12.59,0 10.4918,13.6394 10.4918,13.6394"
       id="path18" />
  </g>
</g></svg>