<svg xmlns="http://www.w3.org/2000/svg" width="24" height="24" viewBox="0 0 24 24"> <g transform="translate(4.396338266043528 0.0) scale(0.37320520369345644)">
  
  <g
     id="line"
     transform="translate(-15.703085,-3.7238186)">
    <path
       fill="none"
       stroke="#000"
       stroke-linecap="round"
       stroke-linejoin="round"
       stroke-miterlimit="10"
       stroke-width="2"
       d="m 21.6298,61.5562 c 3.479,3.6108 8.6702,5.4754 13.9925,5.4754 5.0546,0 10.7077,-1.9624 14.2409,-5.4677"
       id="path2" />
    <path
       fill="none"
       stroke="#000"
       stroke-linecap="round"
       stroke-linejoin="round"
       stroke-miterlimit="10"
       stroke-width="2"
       d="m 21.5108,57.4557 c 0,0 -10.5321,-11.2011 -0.4546,-25.9791 0,0 0.1969,4.0589 1.2551,6.5816 0.4834,1.0362 1.2122,1.9569 2.3487,1.9569 1.3355,0 2.4181,-0.8972 2.4181,-2.5708 0,-0.2599 0,-0.6721 0,-0.9184 0.105,-3.0996 -0.5251,-7.6659 3.5708,-17.19 0,0 7.0365,3.7835 3.9909,-14.6122 0,0 14.8798,10.4421 14.2762,28.217 0,1.2693 0.9678,2.2983 2.1617,2.2983 1.1939,0 2.1617,-1.029 2.1617,-2.2983 0.075,0.1341 6.3219,13.078 -2.514,24.515"
       id="path4" />
    <path
       fill="none"
       stroke="#000"
       stroke-linecap="round"
       stroke-linejoin="round"
       stroke-miterlimit="10"
       stroke-width="2"
       d="m 22.8203,22.9729 c 0.198,-1.0358 0.7082,-2.2802 1.9228,-3.3185 0,0 1.9021,-1.6355 1.5953,-3.8305"
       id="path6" />
  </g>
</g></svg>