<svg xmlns="http://www.w3.org/2000/svg" width="24" height="24" viewBox="0 0 24 24"> <g transform="translate(0.0 2.6667497461791925) scale(0.3699730889282886)">
  
  <g
     id="line"
     transform="translate(-3.7433183,-10.798228)">
    <polyline
       fill="none"
       stroke="#000"
       stroke-linecap="round"
       stroke-linejoin="round"
       stroke-miterlimit="10"
       stroke-width="1.9"
       points="14.2914,42.4139 11.0917,44.2099 12.7575,36.2335 4.6932,35.0715 10.7291,29.5985 4.8878,23.9171 12.9915,23.0403 11.5981,15.0093 18.6705,19.0661 22.2655,11.7481 25.6012,19.1853 32.8098,15.3808 31.144,23.3572 39.2083,24.5192 36.2842,26.9018"
       id="polyline2" />
    <path
       fill="none"
       stroke="#000"
       stroke-linecap="round"
       stroke-linejoin="round"
       stroke-miterlimit="10"
       stroke-width="1.9"
       d="m 17.2816,39.517 c -3.6168,-1.7402 -6.1131,-5.4394 -6.1131,-9.7216 0,-5.9549 4.8274,-10.7822 10.7822,-10.7822 5.59,0 10.1864,4.2539 10.7287,9.7012"
       id="path4" />
    <path
       fill="none"
       stroke="#000"
       stroke-linecap="round"
       stroke-linejoin="round"
       stroke-miterlimit="10"
       stroke-width="2"
       d="m 25.2943,39.547 c -0.0314,0.3586 -0.3219,0.6487 -0.6817,0.6872 -4.3612,0.4672 -7.7156,4.7614 -7.7156,9.9884 0,5.539 3.8413,10.0293 8.5799,10.0293 h 32.7098 c 5.206,0 9.4262,-4.7453 9.4262,-10.5988 0,-5.6097 -3.8759,-10.2015 -8.7809,-10.5744 -0.3752,-0.0285 -0.6796,-0.2912 -0.7512,-0.6587 -1.0957,-5.6267 -6.1504,-9.855 -12.1265,-9.855 -3.8839,0 -7.3436,1.7583 -9.5903,4.5555 -0.2195,0.2733 -0.588,0.3986 -0.9121,0.2627 -0.8645,-0.3626 -1.7776,-0.538 -2.7992,-0.538 -3.8605,0 -7.0293,2.9462 -7.3584,6.7018 z"
       id="path6" />
  </g>
</g></svg>