<svg xmlns="http://www.w3.org/2000/svg" width="24" height="24" viewBox="0 0 24 24"> <g transform="translate(3.17354068818749 0.0) scale(0.4447755468927693)">
  
  <g
     id="line"
     transform="translate(-18.4214,-8.9583)">
    <ellipse
       cx="43.823502"
       cy="58.380199"
       rx="3.1473"
       ry="3.1533"
       fill="none"
       stroke="#000"
       stroke-linecap="round"
       stroke-linejoin="round"
       stroke-width="2"
       id="ellipse2" />
    <path
       d="m 44.0821,10.9583 c 6.57,0 12.0283,3.4313 12.0283,10.207 0,3.671 -0.48,6.5255 -3.71,9.7549 -3.9558,3.9557 -7.1838,6.3462 -7.208,8.5487 -0.0651,5.8264 -0.005,8.278 -0.0044,8.36 a 1.476,1.476 0 0 1 -1.4641,1.4872 H 43.7124 A 1.4758,1.4758 0 0 1 42.2367,47.852 c -5e-4,-0.0819 -0.0607,-2.5611 0.0044,-8.4158 0.0358,-3.2309 3.63,-6.1269 8.385,-10.8752 2.1784,-2.1743 2.4739,-4.7164 2.4739,-7.1272 0,-3.2818 -2.9648,-7.5869 -8.9835,-7.5869 -5.3383,0 -8.4993,3.4672 -8.4993,9.5524 a 1.4344,1.4344 0 0 1 -1.3947,1.5866 1.5517,1.5517 0 0 1 -1.5048,-1.7588 c 0,-9.8821 7.2907,-12.2688 11.3649,-12.2688 m 0,-2 c -4.964,0 -13.3649,3.0052 -13.3649,14.2688 a 3.5188,3.5188 0 0 0 3.5048,3.7588 3.4178,3.4178 0 0 0 3.3947,-3.5866 c 0,-3.4454 1.1276,-7.5524 6.4993,-7.5524 4.8169,0 6.9835,3.2671 6.9835,5.5869 0,2.3639 -0.3155,4.144 -1.8862,5.7123 -0.7515,0.75 -1.4737,1.454 -2.1571,2.12 -3.9334,3.8326 -6.7754,6.6018 -6.8147,10.1486 -0.055,4.9457 -0.0218,7.5388 -0.005,8.4241 a 3.4759,3.4759 0 1 0 6.9517,-0.0248 l -0.0012,-0.075 c -0.0164,-0.8595 -0.0488,-3.3838 0.0056,-8.2476 0.0092,-0.8384 2.1016,-2.8219 3.9476,-4.5719 0.8091,-0.767 1.7261,-1.6363 2.6747,-2.5849 3.5769,-3.577 4.2955,-6.9255 4.2955,-11.1691 0,-7.3013 -5.6376,-12.207 -14.0283,-12.207 z"
       id="path4" />
    <ellipse
       cx="22.4214"
       cy="58.895302"
       rx="3"
       ry="3.0228"
       fill="none"
       stroke="#000"
       stroke-linecap="round"
       stroke-linejoin="round"
       stroke-width="2"
       id="ellipse6" />
    <path
       fill="none"
       stroke="#000"
       stroke-linecap="round"
       stroke-linejoin="round"
       stroke-width="2"
       d="m 22.4214,50.7783 a 2.4852,2.4852 0 0 1 -2.5,-2.519 V 12.7916 a 2.5,2.5 0 1 1 5,0 v 35.4677 a 2.4852,2.4852 0 0 1 -2.5,2.519 z"
       id="path8" />
  </g>
</g></svg>