<svg xmlns="http://www.w3.org/2000/svg" width="24" height="24" viewBox="0 0 24 24"> <g transform="scale(0.41379310344827586)">
  
  <g
     id="line"
     transform="translate(-7,-7)">
    <g
       id="line-2">
      <circle
         cx="36"
         cy="36"
         r="28"
         fill="none"
         stroke="#000"
         stroke-linejoin="round"
         stroke-width="2"
         id="circle2" />
    </g>
    <path
       fill="none"
       stroke="#000"
       stroke-linejoin="round"
       stroke-width="2"
       d="m 36.6819,23 c 2.2046,0 4.3257,0.8042 5.9727,2.2642 0.4131,0.3672 1.0464,0.3281 1.4116,-0.0845 0.3667,-0.4136 0.3286,-1.0454 -0.0845,-1.4121 C 41.968,21.9829 39.3757,21 36.6819,21 c -6.0654,0 -11,4.9346 -11,11 v 8 c 0,6.0654 4.9346,11 11,11 2.6943,0 5.2866,-0.9829 7.2998,-2.7676 0.4131,-0.3662 0.4512,-0.998 0.0845,-1.4116 C 43.7,46.4082 43.0672,46.3687 42.6546,46.7363 41.0081,48.1958 38.887,49 36.6819,49 c -4.9624,0 -9,-4.0376 -9,-9 v -8 c 0,-4.9624 4.0376,-9 9,-9 z"
       id="path5" />
  </g>
</g></svg>