<svg xmlns="http://www.w3.org/2000/svg" width="24" height="24" viewBox="0 0 24 24"> <g transform="translate(2.556348455725294 0.0) scale(0.4945394703181428)">
  
  <g
     id="line"
     transform="translate(-15.2609,-9.7)">
    <path
       fill="none"
       stroke="#000"
       stroke-linecap="round"
       stroke-linejoin="round"
       stroke-width="2"
       d="m 20.6347,57.2294 -0.08,-8.2906 c 0,-0.9552 0.0782,-2.6339 0.713,-3.1639 a 5.2776,5.2776 0 0 1 1.5729,-0.5015 c 0.9009,-0.3145 1.3842,-2.7635 2.0982,-2.8683 0.5786,-0.0849 2.9208,2.7635 3.0638,2.9 a 6.0315,6.0315 0 0 1 0.1153,2.1678 28.1171,28.1171 0 0 0 -0.2259,6.0561 c 0.1,0.8789 0.837,3.7006 0.837,3.7006"
       id="path2" />
    <path
       fill="none"
       stroke="#000"
       stroke-linecap="round"
       stroke-linejoin="round"
       stroke-width="2"
       d="m 48.0149,57.2294 0.08,-8.2906 c 0,-0.9552 -0.0781,-2.6339 -0.713,-3.1639 A 5.2776,5.2776 0 0 0 45.809,45.2734 c -0.9008,-0.3145 -1.3841,-2.7635 -2.0982,-2.8683 -0.5786,-0.0849 -2.9208,2.7635 -3.0638,2.9 a 6.0315,6.0315 0 0 0 -0.1153,2.1678 28.1171,28.1171 0 0 1 0.2259,6.0561 c -0.1,0.8789 -0.8369,3.7006 -0.8369,3.7006"
       id="path4" />
    <path
       fill="none"
       stroke="#000"
       stroke-linecap="round"
       stroke-linejoin="round"
       stroke-width="2"
       d="m 31.506,36.5 a 7.7957,7.7957 0 0 0 6,0"
       id="path6" />
    <path
       fill="#000"
       d="M 32.4591,28.9065 A 1.9066,1.9066 0 1 1 30.5525,27 a 1.9122,1.9122 0 0 1 1.9066,1.9065"
       id="path8" />
    <path
       fill="#000"
       d="M 40.0851,28.9065 A 1.9066,1.9066 0 1 1 38.1785,27 a 1.9122,1.9122 0 0 1 1.9066,1.9065"
       id="path10" />
    <path
       fill="none"
       stroke="#000"
       stroke-linejoin="round"
       stroke-width="2"
       d="m 23.3758,28.2157 c 0,7.6262 5.3656,14.7156 11.0852,14.7156 5.7196,0 10.486,-5.72 10.486,-13.3458 0,-4.7664 -0.756,-6.2954 -2.581,-10.8855 0,0 -5.4469,0.4865 -6.5085,0.7341 -1.6961,0.3916 -4.0485,1.1286 -6.0674,0.9418 A 20.1963,20.1963 0 0 1 26.366,19.7 c -1.8506,4 -2.9902,7.599 -2.9902,8.5157 z"
       id="path12" />
    <path
       fill="none"
       stroke="#000"
       stroke-linecap="round"
       stroke-linejoin="round"
       stroke-width="2"
       d="m 28.2208,47.5319 a 11.3882,11.3882 0 0 0 7.78,1.7042 v 0 a 12.3373,12.3373 0 0 0 3.9668,-1.3941"
       id="path14" />
    <path
       fill="none"
       stroke="#000"
       stroke-linecap="round"
       stroke-linejoin="round"
       stroke-width="2"
       d="m 16.2609,57.23 v -2.86 a 8.921,8.921 0 0 1 0.5752,-2.7366 c 0.447,-1.3278 1.1068,-2.2681 3.1717,-3.6339"
       id="path16" />
    <path
       fill="none"
       stroke="#000"
       stroke-linecap="round"
       stroke-linejoin="round"
       stroke-width="2"
       d="m 24.366,36.7 c -3,0 -4,-7 -4,-14 0,-6 5,-12 14,-12 9,0 14,6 14,12 0,7 -1,14 -4,14"
       id="path18" />
    <path
       fill="none"
       stroke="#000"
       stroke-linecap="round"
       stroke-linejoin="round"
       stroke-width="2"
       d="M 52.4526,57.23 V 54.37 A 8.918,8.918 0 0 0 51.8774,51.6334 C 51.43,50.3061 50.7706,49.3658 48.7057,48"
       id="path20" />
  </g>
</g></svg>