<svg xmlns="http://www.w3.org/2000/svg" width="24" height="24" viewBox="0 0 24 24"> <g transform="scale(0.5)">
  
  <g
     id="line"
     transform="translate(-12,-12)">
    <circle
       cx="36"
       cy="36"
       r="23"
       fill="none"
       stroke="#000"
       stroke-miterlimit="10"
       stroke-width="2"
       id="circle2" />
    <path
       stroke="#000"
       stroke-miterlimit="10"
       stroke-width="2"
       d="m 42.87,45.7 c 0,-2.592 -3.834,-4.694 -6.869,-4.694 -3.035,0 -6.869,2.101 -6.869,4.694 0,2.593 3.659,0.9248 6.694,0.9248 3.035,0 7.044,1.667 7.044,-0.9248 z"
       id="path4" />
    <path
       d="m 30,31 c 0,1.657 -1.345,3 -3,3 -1.655,0 -3,-1.343 -3,-3 0,-1.655 1.345,-3 3,-3 1.655,0 3,1.345 3,3"
       id="path6" />
    <path
       d="m 48,31 c 0,1.657 -1.345,3 -3,3 -1.655,0 -3,-1.343 -3,-3 0,-1.655 1.345,-3 3,-3 1.655,0 3,1.345 3,3"
       id="path8" />
  </g>
</g></svg>