<svg xmlns="http://www.w3.org/2000/svg" width="24" height="24" viewBox="0 0 24 24"> <g transform="translate(0.0 4.135603614005727) scale(0.3708282631581533)">
  
  <g
     id="line"
     transform="translate(-3.7883915,-17.454598)">
    <path
       fill="none"
       stroke="#000"
       stroke-linecap="round"
       stroke-linejoin="round"
       stroke-miterlimit="10"
       stroke-width="2"
       d="m 29.7551,43.0942 4.2252,7.1483 1.057,4.6127 -0.5631,1.9861 c -0.2869,1.0119 0.4346,2.0286 1.4396,2.0286 h 2.8741 c 0.9019,0 1.6005,-0.8291 1.491,-1.7697 L 39.1027,46.9964 c 0,0 8.4451,5.7747 15.7737,-5.2106"
       id="path2" />
    <path
       fill="none"
       stroke="#000"
       stroke-linecap="round"
       stroke-linejoin="round"
       stroke-miterlimit="10"
       stroke-width="2"
       d="m 18.9041,31.7483 c 5.1224,-1.908 1.7838,-7.7242 1.7838,-7.7242 -3.3336,-0.3844 -4.7764,4.5933 -4.7764,4.5933 l -3.1805,1.9114 -0.0941,2.8007 c 0,0 -0.5627,2.5656 -2.9388,1.7696"
       id="path4" />
    <path
       fill="none"
       stroke="#000"
       stroke-linecap="round"
       stroke-linejoin="round"
       stroke-miterlimit="10"
       stroke-width="2"
       d="m 20.0425,36.1389 c 0,0 1.7684,2.6797 -0.5488,6.342 -2.7309,4.3161 -7.7917,2.4656 -7.7917,2.4656 -2.6019,0.9823 -6.22,-1.324 -6.22,-1.324 -1.992,-2.3918 0.8537,-5.7232 0.8537,-5.7232 0,0 -2.1954,-6.2784 2.1953,-10.0796"
       id="path6" />
    <path
       fill="none"
       stroke="#000"
       stroke-linecap="round"
       stroke-linejoin="round"
       stroke-miterlimit="10"
       stroke-width="2"
       d="m 21.5105,26.1052 c 0,0 5.5993,-8.1508 13.7485,-6.1869 v 0 c 0.671,0.4595 1.4575,0.7136 2.2704,0.7375 2.5141,0.0742 8.1558,0.0726 11.4125,-1.2355 1.418,-0.5695 2.9023,-0.9803 4.4303,-0.9653 1.4896,0.0146 3.3543,0.2847 5.3462,1.176 3.7001,1.6555 6.3883,4.9459 7.6749,8.7898 1.2832,3.8339 2.1646,9.523 -1.4753,13.963 l -1.7481,2.5626 c 0,0 -6.5046,4.9544 -8.2934,-3.1606 0,0 -0.6911,-5.4897 1.3416,-11.5859"
       id="path8" />
    <path
       fill="none"
       stroke="#000"
       stroke-linecap="round"
       stroke-linejoin="round"
       stroke-miterlimit="10"
       stroke-width="2"
       d="m 37.8424,29.6135 c 2.878,4.6869 3.018,8.9749 0.497,13.4807 -2.0407,-2.6033 -5.4975,-1.2656 -5.4975,-1.2656 l -3.3336,1.3667 c -4.3093,0.1708 -5.285,-3.246 -5.285,-3.246 l 2.8458,-12.8131 3.9028,-2.3918"
       id="path10" />
    <path
       fill="none"
       stroke="#000"
       stroke-linecap="round"
       stroke-linejoin="round"
       stroke-miterlimit="10"
       stroke-width="2"
       d="m 57.6438,49.4242 0.1597,2.9965 -1.8365,2.7749 c -0.752,1.1363 0.0219,2.692 1.3393,2.692 h 3.5225 c 0.7152,0 1.3469,-0.4894 1.5583,-1.2072 l 1.9211,-6.5234 -1.1383,-5.2106"
       id="path12" />
    <path
       fill="none"
       stroke="#000"
       stroke-linecap="round"
       stroke-linejoin="round"
       stroke-miterlimit="10"
       stroke-width="2"
       d="m 27.1098,46.9288 2.6832,4.0533 -0.2033,3.7023 -1.0413,2.6797 c -0.2318,0.5966 0.1859,1.2497 0.7992,1.2497 h 1.3804"
       id="path14" />
  </g>
</g></svg>