<svg xmlns="http://www.w3.org/2000/svg" width="24" height="24" viewBox="0 0 24 24"> <g transform="translate(0.00001979996732970335 0.0) scale(0.399999340001089)">
  
  <g
     id="line"
     transform="translate(-6.5,-5.96)">
    <path
       fill="none"
       stroke="#000"
       stroke-linecap="round"
       stroke-linejoin="round"
       stroke-miterlimit="10"
       stroke-width="2"
       d="M 64.59,28.71 C 64.3499,27.79 64.07,26.88 63.74,26 63.42,25.11 63.05,24.23 62.64,23.39 59.79,17.47 54.99,12.67 49.07,9.82 48.23,9.41 47.35,9.04 46.46,8.72 45.58,8.39 44.67,8.11 43.75,7.87 41.43,7.28 39,6.96 36.5,6.96 36.06,6.96 35.62,6.97 35.18,7 35.07,6.99 34.96,7 34.86,7.01 34.54,7.02 34.22,7.05 33.91,7.08 33.77,7.09 33.63,7.1 33.49,7.12 c -0.33,0.03 -0.65,0.07 -0.98,0.12 -0.33,0.04 -0.65,0.09 -0.98,0.15 -0.64,0.11 -1.28,0.24 -1.91,0.4 -0.3,0.07 -0.6,0.15 -0.9,0.23 -0.03,0 -0.0699,0.01 -0.1,0.03 -0.6,0.16 -1.2,0.35 -1.78,0.57 -0.27,0.09 -0.54,0.19 -0.81,0.3 -0.07,0.01 -0.13,0.04 -0.2,0.08 -0.56,0.2 -1.11,0.44 -1.65,0.71 -0.29,0.14 -0.57,0.28 -0.85,0.42 -0.57,0.29 -1.13,0.6 -1.67,0.92 l 0.017,0.015 c -5.3333,3.1692 -9.5612,7.9852 -11.957,13.775 -0.18,0.43 -0.35,0.86 -0.5099,1.3 -0.32,0.87 -0.6,1.77 -0.82,2.68 -0.15,0.56 -0.27,1.12 -0.37,1.69 -0.17,0.83 -0.29,1.68 -0.37,2.53 C 7.55,34 7.5,34.98 7.5,35.96 c 0,2.5 0.32,4.9301 0.91,7.2401 0.2401,0.93 0.52,1.83 0.85,2.72 0.48,1.33 1.07,2.62 1.74,3.86 1.34,2.47 3.03,4.72 5,6.68 0.99,1 2.04,1.91 3.16,2.73 0.7401,0.57 1.51,1.09 2.3,1.57 h 0.01 c 0.79,0.49 1.61,0.93 2.46,1.34 3.8,1.83 8.06,2.86 12.57,2.86 0.42,0 0.84,-0.0099 1.26,-0.03 0.15,0 0.31,-0.01 0.47,-0.03 0.32,-0.0099 0.63,-0.03 0.94,-0.07 0.47,-0.03 0.93,-0.09 1.39,-0.16 0.26,-0.03 0.53,-0.07 0.79,-0.12 0.63,-0.1 1.25,-0.23 1.87,-0.38 0.28,-0.06 0.5601,-0.13 0.84,-0.21 0.66,-0.17 1.31,-0.37 1.95,-0.61 0.28,-0.09 0.55,-0.19 0.81,-0.29 0.59,-0.21 1.16,-0.46 1.73,-0.73 0.28,-0.1299 0.56,-0.2599 0.84,-0.4 0.55,-0.28 1.09,-0.57 1.63,-0.88 l -0.0128,-0.0112 c 5.3691,-3.0992 9.6674,-7.8692 12.1328,-13.6188 0.01,-0.01 0.01,-0.01 0.01,-0.02 0.38,-0.87 0.71,-1.77 1,-2.68 0.14,-0.46 0.28,-0.93 0.4,-1.4 0.1,-0.38 0.19,-0.77 0.28,-1.16 0.13,-0.56 0.23,-1.13 0.32,-1.71 0.08,-0.4901 0.14,-0.98 0.19,-1.48 0.04,-0.36 0.0699,-0.73 0.09,-1.1 0.05,-0.63 0.07,-1.27 0.07,-1.91 C 65.5,33.46 65.18,31.03 64.59,28.71 Z M 41.5,35.96 c 0,2.76 -2.24,5 -5,5 -2.76,0 -5,-2.24 -5,-5 0,-2.7599 2.24,-5 5,-5 2.76,0 5,2.24 5,5 z"
       id="path2" />
  </g>
</g></svg>