<svg xmlns="http://www.w3.org/2000/svg" width="24" height="24" viewBox="0 0 24 24"> <g transform="translate(1.2147981515642705 0.0) scale(0.4493984464745104)">
  
  <g
     id="line"
     transform="translate(-11.95437,-7.5536763)">
    <path
       fill="none"
       stroke="#000"
       stroke-linecap="round"
       stroke-linejoin="round"
       stroke-width="2"
       d="M 47.9172,27.8051 A 43.3663,43.3663 0 0 0 47.179,20.0873 v 0 a 26.0907,26.0907 0 0 1 -21.338,0 22.9285,22.9285 0 0 0 -1.1671,7.2327 c -0.1811,8.6818 4.8753,15.8284 11.2939,15.9622 6.4186,0.1338 11.7683,-6.7957 11.9494,-15.4775"
       id="path2" />
    <path
       fill="none"
       stroke="#000"
       stroke-linecap="round"
       stroke-linejoin="round"
       stroke-width="2"
       d="m 46.3619,35.26 c 10.856,-5.6062 5.86,-19.5675 5.86,-19.5675 a 4.9807,4.9807 0 0 0 -4.1981,-2.9241 6.7193,6.7193 0 0 0 -4.4341,1.3884 c 0,0 -9.1126,-12.1018 -19.5872,-0.8668 a 8.3451,8.3451 0 0 1 -7.5966,2.7683 c 0,0 0.7136,4.0878 3.1862,4.5277 0,0 -3.9156,3.2042 -0.4165,6.9468 0,0 3.6875,8.9966 7.8474,9.6691"
       id="path4" />
    <path
       d="m 42,29.773 a 2,2 0 1 1 -2,-2 2.0007,2.0007 0 0 1 2,2"
       id="path6" />
    <path
       d="m 34,29.773 a 2,2 0 1 1 -2,-2 2.0007,2.0007 0 0 1 2,2"
       id="path8" />
    <path
       d="m 36,39.7754 a 7.6524,7.6524 0 0 1 -3.4472,-0.8579 1.0001261,1.0001261 0 0 1 0.8945,-1.7891 5.3774,5.3774 0 0 0 5.1055,0 1.0001261,1.0001261 0 1 1 0.8945,1.7891 A 7.6528,7.6528 0 0 1 36,39.7754 Z"
       id="path10" />
    <path
       fill="none"
       stroke="#000"
       stroke-linecap="round"
       stroke-linejoin="round"
       stroke-width="2"
       d="m 16.1309,59.9584 c 0,0 -2.0938,-13.61 10.4689,-13.61 3.3416,2.2277 6.2043,3.7671 9.4221,3.7605 H 35.891 c 3.2178,0.0066 6.0806,-1.5328 9.4221,-3.7605 12.5627,0 10.4689,13.61 10.4689,13.61"
       id="path12" />
    <path
       fill="none"
       stroke="#000"
       stroke-linecap="round"
       stroke-linejoin="round"
       stroke-width="2"
       d="m 51.1468,59.9584 c -5.7322,-8.0208 -6.9511,-4.5345 -15.19,-4.5345 -7.8374,0 -9.31,-3.4863 -15.0426,4.5345"
       id="path14" />
    <path
       fill="none"
       stroke="#000"
       stroke-linecap="round"
       stroke-linejoin="round"
       stroke-width="2"
       d="m 24.6692,16.4756 c 0,0 12.1185,5.7865 23.2631,0"
       id="path16" />
    <path
       fill="none"
       stroke="#000"
       stroke-linecap="round"
       stroke-linejoin="round"
       stroke-width="2"
       d="m 19.1756,27.5332 c 0,0 -9.8778,22.0215 -4.7356,23.9245"
       id="path18" />
    <path
       fill="none"
       stroke="#000"
       stroke-linecap="round"
       stroke-linejoin="round"
       stroke-width="2"
       d="m 52.745,27.5626 c 0.3992,0.896 9.7523,22.0251 4.725,23.8941"
       id="path20" />
  </g>
</g></svg>