<svg xmlns="http://www.w3.org/2000/svg" width="24" height="24" viewBox="0 0 24 24"> <g transform="translate(0.0 1.8018863649749868) scale(0.4202100588062967)">
  
  <g
     id="line"
     transform="translate(-8.0007033,-9.9695647)">
    <path
       fill="none"
       stroke="#000"
       stroke-linecap="round"
       stroke-linejoin="round"
       stroke-miterlimit="10"
       stroke-width="2"
       d="m 60,30 c 2,-6 -3,-6 -3,-6 -7,1 -2,7 -2,7 0,0 6,11 -4.5833,10.6142 C 39.8333,41.2284 43,31 43,31 49.0698,25.9026 47,20 47,20 44,10 36,11 36,11 c 0,0 -8,-1 -11,8 0,0 -3,9 4,12 0,0 4,11 -8,11 0,0 -10,0 -4,-13 0,0 2,-7 -4,-5 0,0 -3,1 -2,6"
       id="path2" />
    <path
       fill="none"
       stroke="#000"
       stroke-linecap="round"
       stroke-linejoin="round"
       stroke-miterlimit="10"
       stroke-width="2"
       d="m 33,33 c 0,0 4,11 -7,14 0,0 -7,-1 -7,5 0,6 4,6 6,5 2,-1 3,-4 3,-4"
       id="path4" />
    <path
       fill="none"
       stroke="#000"
       stroke-linecap="round"
       stroke-linejoin="round"
       stroke-miterlimit="10"
       stroke-width="2"
       d="m 38.7091,33 c 0,0 -4,11 7,14 0,0 7,-1 7,5 0,6 -4,6 -6,5 -2,-1 -3,-4 -3,-4"
       id="path6" />
    <path
       fill="none"
       stroke="#000"
       stroke-linecap="round"
       stroke-linejoin="round"
       stroke-miterlimit="10"
       stroke-width="2"
       d="m 19.1157,45 c 0,0 -2,1 -4,-1 -2,-2 -4,-1 -4,-1 0,0 -4,1 -1,5 0,0 1,2 4,1"
       id="path8" />
    <path
       fill="none"
       stroke="#000"
       stroke-linecap="round"
       stroke-linejoin="round"
       stroke-miterlimit="10"
       stroke-width="2"
       d="m 54,45 c 0,0 2,1 4,-1 2,-2 4,-1 4,-1 0,0 4,1 1,5 0,0 -1,2 -4,1"
       id="path10" />
  </g>
</g></svg>