<svg xmlns="http://www.w3.org/2000/svg" width="24" height="24" viewBox="0 0 24 24"> <g transform="scale(0.41379310344827586)">
  
  <g
     id="line"
     transform="translate(-7,-7)">
    <g
       id="line-2">
      <circle
         cx="36"
         cy="36"
         r="28"
         fill="none"
         stroke="#000"
         stroke-linejoin="round"
         stroke-width="2"
         id="circle2" />
    </g>
    <path
       fill="none"
       stroke="#000"
       stroke-linejoin="round"
       stroke-width="2"
       d="M 36.9189,21.6057 C 36.7617,21.238 36.3999,20.9997 36,20.9997 c -0.3999,0 -0.7617,0.2383 -0.9189,0.606 l -12,28 c -0.2178,0.5078 0.0176,1.0957 0.5249,1.313 0.5083,0.2188 1.0962,-0.0176 1.313,-0.5249 L 27.5392,44.28 h 16.9216 l 2.6202,6.1138 c 0.1621,0.3789 0.5312,0.6064 0.9194,0.6064 0.1313,0 0.2651,-0.0264 0.3936,-0.0815 0.5073,-0.2173 0.7427,-0.8052 0.5249,-1.313 z M 28.3963,42.28 36,24.5383 43.6037,42.28 Z"
       id="path5" />
  </g>
</g></svg>