<svg xmlns="http://www.w3.org/2000/svg" width="24" height="24" viewBox="0 0 24 24"> <g transform="translate(0.001068844026669069 0.0) scale(0.510797623258659)">
  
  <g
     id="line"
     transform="translate(-15.018846,-15.01466)">
    <path
       fill="none"
       stroke="#000"
       stroke-linecap="round"
       stroke-linejoin="round"
       stroke-width="2"
       d="m 31.1391,25.3086 a 6.83,6.83 0 0 0 -3.1626,-0.4173 6.8188,6.8188 0 0 0 -1.3688,-2.88 l -0.0962,-0.0884 -0.0962,0.0884 a 7.1959,7.1959 0 0 0 -1.3688,2.88 6.83,6.83 0 0 0 -3.1626,0.4173 l -0.1132,0.0651 0.0552,0.1183 a 7.1677,7.1677 0 0 0 2.3152,2.1859 6.8412,6.8412 0 0 0 -0.6005,3.1348 l 0.0268,0.1278 0.13,-0.0158 a 7.2429,7.2429 0 0 0 2.8141,-1.5247 7.1092,7.1092 0 0 0 2.7793,1.5246 l 0.13,0.0158 0.0269,-0.1278 a 6.8058,6.8058 0 0 0 -0.5654,-3.1348 7.1688,7.1688 0 0 0 2.3152,-2.1859 l 0.0552,-0.1183 z"
       id="path2" />
    <path
       fill="none"
       stroke="#000"
       stroke-linecap="round"
       stroke-linejoin="round"
       stroke-width="2"
       d="M 26.5114,45.3169 A 15.0024,15.0024 0 1 1 45.5271,27.2485"
       id="path4" />
    <path
       fill="none"
       stroke="#000"
       stroke-linecap="round"
       stroke-linejoin="round"
       stroke-width="2"
       d="m 45.8609,40.3086 a 6.83,6.83 0 0 1 3.1626,-0.4173 6.8188,6.8188 0 0 1 1.3688,-2.88 l 0.0962,-0.0884 0.0962,0.0884 a 7.1959,7.1959 0 0 1 1.3688,2.88 6.83,6.83 0 0 1 3.1626,0.4173 l 0.1132,0.0651 -0.0552,0.1183 a 7.1677,7.1677 0 0 1 -2.3152,2.1859 6.8412,6.8412 0 0 1 0.6005,3.1348 l -0.0268,0.1278 -0.13,-0.0158 A 7.2429,7.2429 0 0 1 50.4885,44.4 7.1092,7.1092 0 0 1 47.7092,45.9246 l -0.13,0.0158 -0.0269,-0.1278 a 6.8058,6.8058 0 0 1 0.5654,-3.1348 7.1688,7.1688 0 0 1 -2.3152,-2.1859 l -0.0552,-0.1183 z"
       id="path6" />
    <circle
       cx="46"
       cy="46"
       r="15"
       fill="none"
       stroke="#000"
       stroke-linecap="round"
       stroke-linejoin="round"
       stroke-width="2"
       id="circle8" />
  </g>
</g></svg>