<svg xmlns="http://www.w3.org/2000/svg" width="24" height="24" viewBox="0 0 24 24"> <g transform="translate(0.0 2.5181920482241456) scale(0.3718837247892469)">
  
  <g
     id="line"
     transform="translate(-4,-10.5033)">
    <path
       fill="none"
       stroke="#000"
       stroke-linecap="round"
       stroke-linejoin="round"
       stroke-miterlimit="10"
       stroke-width="2"
       d="m 5,42.2734 14.3524,6.1074 c -10e-5,0.0239 -0.0035,0.047 -0.0035,0.071 0.0014,6.6537 5.3965,12.0464 12.0501,12.0449 4.8176,-10e-4 8.962,-2.8365 10.8885,-6.9231 1.2585,0.8182 2.7574,1.2979 4.3704,1.2975 3.9024,-9e-4 7.1514,-2.7856 7.8764,-6.4755 0.3167,0.0249 0.634,0.0482 0.9571,0.0482 6.6537,-0.0015 12.0464,-5.3965 12.0449,-12.0502 -0.0015,-6.6537 -5.3963,-12.0463 -12.05,-12.0449 -0.3898,10e-5 -0.7744,0.0223 -1.1547,0.0586 -1.0062,-3.2881 -4.0639,-5.6796 -7.6814,-5.6788 -1.3943,3e-4 -2.705,0.3568 -3.8475,0.982 -1.6049,-4.7693 -6.1041,-8.2084 -11.4143,-8.2072 -6.6537,0.0015 -12.0464,5.3965 -12.0449,12.0502 10e-5,0.5504 0.05,1.088 0.1216,1.6188 L 5,31.3276"
       id="path2" />
    <path
       fill="none"
       stroke="#000"
       stroke-linecap="round"
       stroke-linejoin="round"
       stroke-miterlimit="10"
       stroke-width="2"
       d="m 5,25.4967 9,-4 c 0,0 -1,-5 4,-8"
       id="path4" />
    <path
       fill="none"
       stroke="#000"
       stroke-linecap="round"
       stroke-linejoin="round"
       stroke-miterlimit="10"
       stroke-width="2"
       d="m 5,47.4967 9,4 c 0,0 -1,5 4,8"
       id="path6" />
  </g>
</g></svg>