<svg xmlns="http://www.w3.org/2000/svg" width="24" height="24" viewBox="0 0 24 24"> <g transform="translate(1.1383053708496522 0.0) scale(0.45257060954793116)">
  
  <g
     id="line"
     transform="translate(-12,-12)">
    <polyline
       fill="none"
       stroke="#000"
       stroke-linecap="round"
       stroke-linejoin="round"
       stroke-miterlimit="10"
       stroke-width="2"
       points="25.1678,26.4126 31.7548,30.4265 25.1678,34.1644"
       id="polyline2" />
    <polyline
       fill="none"
       stroke="#000"
       stroke-linecap="round"
       stroke-linejoin="round"
       stroke-miterlimit="10"
       stroke-width="2"
       points="46.8322,26.4126 40.2452,30.4265 46.8322,34.1644"
       id="polyline4" />
    <path
       fill="none"
       stroke="#000"
       stroke-linecap="round"
       stroke-linejoin="round"
       stroke-miterlimit="10"
       stroke-width="2"
       d="M 54.2197,50.0387 C 57.217,46.1546 59,41.2854 59,36 59,23.2969 48.7022,13 36,13 23.2969,13 13,23.2969 13,36 c 0,5.9897 2.2896,11.4448 6.0414,15.5376"
       id="path6" />
    <path
       fill="none"
       stroke="#000"
       stroke-linecap="round"
       stroke-linejoin="round"
       stroke-miterlimit="10"
       stroke-width="2"
       d="m 43.2806,19.0706 c 0.5464,1.4632 1.6142,2.6709 2.9996,3.3911 1.3093,0.8663 2.8945,1.2106 4.4451,0.9702"
       id="path8" />
    <path
       fill="none"
       stroke="#000"
       stroke-linecap="round"
       stroke-linejoin="round"
       stroke-miterlimit="10"
       stroke-width="2"
       d="m 28.7194,19.0706 c -0.5464,1.4632 -1.6142,2.6709 -2.9996,3.3911 -1.3093,0.8663 -2.8945,1.2106 -4.4451,0.9702"
       id="path10" />
    <path
       fill="none"
       stroke="#000"
       stroke-linecap="round"
       stroke-linejoin="round"
       stroke-miterlimit="10"
       stroke-width="2"
       d="m 47.1996,51.282 c 2.4604,0 5.4331,1.947 5.4331,3.6822 0,1.1754 -0.9151,2.2 -2.2701,2.7388 0.9556,3.1123 -1.2429,4.6605 -2.9806,4.8865 -1.0209,0.1328 -2.1134,-0.4142 -2.7863,-1.093 0,1.3994 -1.1345,2.5339 -2.5339,2.5339 -1.3994,0 -2.9144,-0.937 -2.9144,-2.3364 -0.3126,1.0449 -1.2813,1.8065 -2.428,1.8065 -1.0988,0 -2.2616,-0.8964 -2.6128,-1.8743 -0.3646,1.4932 -1.6132,2.2102 -2.9144,1.9393 -1.0753,-0.2239 -1.8354,-1.051 -1.9545,-1.9724 -0.1766,1.2269 -1.5284,2.4373 -2.8041,2.4373 -1.3994,0 -2.5339,-1.1345 -2.5339,-2.5339 -1.3994,0 -3.1504,-0.8857 -3.1504,-2.2852 0,-1.3994 1.1473,-2.6613 2.5467,-2.6613 -0.6745,-0.4553 -1.118,-1.2267 -1.118,-2.1017 0,-1.3994 1.7368,-2.7662 3.1362,-2.7662 -0.1313,-0.2663 -0.2489,-0.5384 -0.3522,-0.8158 -0.3427,-0.9206 -0.5273,-1.8993 -0.5273,-2.9141 0,-5.4121 5.2516,-9.7995 11.7297,-9.7995 6.4781,0 11.7297,4.3874 11.7297,9.7995 0,1.169 -0.245,2.2903 -0.6945,3.3298 z"
       id="path12" />
  </g>
</g></svg>