<svg xmlns="http://www.w3.org/2000/svg" width="24" height="24" viewBox="0 0 24 24"> <g transform="translate(3.3353226349478824 0.0) scale(0.4332338682526059)">
  
  <g
     id="line"
     transform="translate(-16,-5.602667)">
    <path
       fill="none"
       stroke="#000"
       stroke-linecap="round"
       stroke-linejoin="round"
       stroke-width="2"
       d="m 17,60 v -3 c 0,-5 5,-9 10,-9 6,5 12,5 18,0 5,0 10,4 10,9 v 3"
       id="path2" />
    <path
       fill="none"
       stroke="#000"
       stroke-linecap="round"
       stroke-linejoin="round"
       stroke-width="2"
       d="m 38,38 c -1.2,0.8 -2.6,0.8 -4,0"
       id="path4" />
    <path
       fill="none"
       stroke="#000"
       stroke-linecap="round"
       stroke-linejoin="round"
       stroke-width="2"
       d="m 31,36 c 0,1 -1,2 -1,2"
       id="path6" />
    <path
       fill="none"
       stroke="#000"
       stroke-linecap="round"
       stroke-linejoin="round"
       stroke-width="2"
       d="m 41,36 c 0,1 1,2 1,2"
       id="path8" />
    <path
       d="m 41.9,29 c 0,1.1 -0.9,2 -2,2 -1.1,0 -2,-0.9 -2,-2 0,-1.1 0.9,-2 2,-2 1.1,0 2,0.9 2,2"
       id="path10" />
    <path
       d="m 33.9,29 c 0,1.1 -0.9,2 -2,2 -1.1,0 -2,-0.9 -2,-2 0,-1.1 0.9,-2 2,-2 1.1,0 2,0.9 2,2"
       id="path12" />
    <path
       fill="none"
       stroke="#000"
       stroke-linejoin="round"
       stroke-width="2"
       d="m 25,31 c 0,8 4,14 10.9,14 C 43,45 47,39 47,31 c 0,-5 -1.4,-7.7 -2,-9 -1,-2 -2,-3 -2,-3 -5,3 -14,0 -15,1 -1,1 -3,5 -3,11 z"
       id="path14" />
    <path
       fill="none"
       stroke="#000"
       stroke-linecap="round"
       stroke-linejoin="round"
       stroke-width="2"
       d="m 26,38 c -2,0 -5,-3 -5,-8 0,-4 0,-6 1,-9 1.8,-5.5 6,-9 14,-9 6,0 9,3 9,3 3,1 6,4.9 6,12 0,7 -2,12 -5,12"
       id="path16" />
    <path
       fill="none"
       stroke="#000"
       stroke-linecap="round"
       stroke-linejoin="round"
       stroke-width="2"
       d="M 42,13 C 43,11 42,9 41,8 39,6 32.7,6 30.7,9 29.9,10.2 30,11.3 30.3,12"
       id="path18" />
  </g>
</g></svg>