<svg xmlns="http://www.w3.org/2000/svg" width="24" height="24" viewBox="0 0 24 24"> <g transform="translate(1.2547316315755594 -1.7763568394002505e-15) scale(0.5366632812903371)">
  
  <g
     id="line"
     transform="translate(-16,-13.65922)">
    <g
       transform="matrix(0,-0.9544,0.9545,0,1.727,66.7)"
       id="g4">
      <path
         fill="none"
         stroke="#000"
         stroke-linejoin="round"
         stroke-miterlimit="10"
         stroke-width="2"
         d="m 19.06,55.61 c 0.4848,0.1782 1.03,0.297 1.576,0.297 0.8485,0 1.697,-0.297 2.424,-0.7722 l 30,-15.98 0.303,-0.297 c 0.7879,-0.7722 1.212,-1.723 1.212,-2.792 0,-1.069 -0.4242,-2.079 -1.212,-2.792 l -0.303,-0.297 -30,-16.1 c -1.091,-0.8316 -2.667,-1.01 -4,-0.4752 -1.515,0.594 -2.485,2.079 -2.485,3.683 v 31.84 c -10e-5,1.604 0.9696,3.089 2.485,3.683 z"
         id="path2" />
    </g>
    <line
       x1="17"
       x2="55"
       y1="57.380001"
       y2="57.380001"
       fill="none"
       stroke="#000"
       stroke-linecap="round"
       stroke-linejoin="round"
       stroke-miterlimit="10"
       stroke-width="2"
       id="line6" />
  </g>
</g></svg>