<svg xmlns="http://www.w3.org/2000/svg" width="24" height="24" viewBox="0 0 24 24"> <g transform="translate(3.34242327168843 0.0) scale(0.4433299294215058)">
  
  <g
     id="line"
     transform="translate(-17.697483,-11.651048)">
    <path
       fill="none"
       stroke="#000"
       stroke-linecap="round"
       stroke-linejoin="round"
       stroke-miterlimit="10"
       stroke-width="2"
       d="m 35.7598,38.9396 c 0.7918,-0.8555 2.1446,-0.8553 2.9361,5e-4 l 5.0691,5.4806 c 1.9827,2.2387 4.4923,3.2216 6.9032,1.7652 2.3429,-1.4154 3.0291,-4.517 1.6577,-6.886 l -0.7615,-1.3154 -0.4165,-0.7194 1.9671,-1.1388 c 2.3997,-1.3893 3.3965,-4.5861 1.9817,-6.9709 -1.388,-2.3396 -4.0753,-2.4334 -6.7882,-1.772 L 46.7828,27.83 c -1.592,0.466 -3.0266,-1.097 -2.4262,-2.6433 l 0.8157,-2.1008 c 0.4085,-1.0521 0.8731,-2.0807 1.3203,-3.1169 0.9172,-2.1253 1.1047,-4.2003 -0.4735,-5.8473 -1.9632,-2.0487 -5.3008,-1.904 -7.3073,0.1024 l -1.5842,1.5841 -0.5878,-0.5878 -0.9963,-0.9962 c -2.0104,-2.0102 -5.3553,-2.1497 -7.3173,-0.0922 -1.5682,1.6446 -1.386,3.6828 -0.4662,5.8231 0.4505,1.0482 0.9183,2.0889 1.3313,3.1525 l 0.7883,2.0303 c 0.6038,1.5551 -0.8495,3.1223 -2.4456,2.6375 l -1.2905,-0.392 c -2.7129,-0.6613 -5.4003,-0.5676 -6.7882,1.772 -1.4148,2.3847 -0.4179,5.5816 1.9817,6.9709 l 1.9671,1.1388 -0.4165,0.7194 -0.7615,1.3154 c -1.3714,2.3689 -0.6852,5.4706 1.6577,6.886 2.4109,1.4565 4.9205,0.4735 6.9032,-1.7652 z"
       id="path2" />
    <path
       fill="none"
       stroke="#000"
       stroke-linecap="round"
       stroke-linejoin="round"
       stroke-width="2"
       d="m 37.1374,44.0518 c -3.438,3.548 -7.676,10.246 -5.829,20.735"
       id="path4" />
  </g>
</g></svg>