<svg xmlns="http://www.w3.org/2000/svg" width="24" height="24" viewBox="0 0 24 24"> <g transform="translate(0.0 6.183339999999999) scale(0.4)">
  
  <g
     id="line"
     transform="translate(-6,-26.6667)">
    <path
       fill="none"
       stroke="#000"
       stroke-linecap="round"
       stroke-linejoin="round"
       stroke-miterlimit="10"
       stroke-width="2"
       d="M 61.5,50.75 H 64 c 0.5523,0 1,-0.4477 1,-1 V 28.6667 c 0,-0.5523 -0.4477,-1 -1,-1 H 28.3333 c 0,0 -5.5833,0.4166 -15.6666,11.5416 l -4.5,3.125 c 0,0 -1.1667,0.7292 -1.1667,3.25 C 7,48.5 7,50.25 7,50.25 h 0.9167"
       id="path2" />
    <line
       x1="22.75"
       x2="45.583302"
       y1="50.75"
       y2="50.75"
       fill="none"
       stroke="#000"
       stroke-linecap="round"
       stroke-linejoin="round"
       stroke-miterlimit="10"
       stroke-width="2"
       id="line4" />
    <path
       fill="#000"
       stroke="none"
       d="m 53.33,45.75 c -2.76,0 -5,2.24 -5,5 0,2.76 2.24,5 5,5 2.76,0 5,-2.24 5,-5 0,-2.76 -2.24,-5 -5,-5 z m 0,8 c -1.66,0 -3,-1.34 -3,-3 0,-1.66 1.34,-3 3,-3 1.66,0 3,1.34 3,3 0,1.66 -1.34,3 -3,3 z"
       id="path6" />
    <path
       fill="#000"
       stroke="none"
       d="m 20.39,50.52 c -0.12,-2.65 -2.31,-4.77 -4.99,-4.77 -2.61,0 -4.76,2.01 -4.97,4.57 -0.02,0.14 -0.03,0.28 -0.03,0.43 0,2.76 2.24,5 5,5 2.76,0 5,-2.24 5,-5 0,-0.08 0,-0.16 -0.01,-0.23 z m -4.99,3.23 c -1.66,0 -3,-1.34 -3,-3 0,-0.13 0.01,-0.26 0.03,-0.39 0.18,-1.47 1.44,-2.61 2.97,-2.61 1.57,0 2.85,1.2 2.98,2.73 0.02,0.09 0.02,0.18 0.02,0.27 0,1.66 -1.34,3 -3,3 z"
       id="path8" />
    <path
       fill="none"
       stroke="#000"
       stroke-linecap="round"
       stroke-linejoin="round"
       stroke-miterlimit="10"
       stroke-width="2"
       d="m 26.75,33.8333 v 2.1459 c 0,1.6569 -1.3431,3 -3,3 H 18"
       id="path10" />
    <line
       x1="32.166698"
       x2="32.166698"
       y1="27.6667"
       y2="50.75"
       fill="none"
       stroke="#000"
       stroke-linecap="round"
       stroke-linejoin="round"
       stroke-miterlimit="10"
       stroke-width="2"
       id="line12" />
  </g>
</g></svg>