<svg xmlns="http://www.w3.org/2000/svg" width="24" height="24" viewBox="0 0 24 24"> <g transform="translate(0.03277895982695611 0.0) scale(0.5190486418000122)">
  
  <g
     id="line"
     transform="translate(-13.488804,-16.78546)">
    <path
       fill="none"
       stroke="#000"
       stroke-linecap="round"
       stroke-linejoin="round"
       stroke-width="2"
       d="m 23.6968,59.4302 c 0,0 -8.7685,-5.362 -9.193,-14.6985 -0.4359,-9.5866 9.2144,-26.9468 9.2144,-26.9468 0,0 -4.7203,20.7062 -0.0214,41.6453 z"
       id="path2" />
    <path
       fill="none"
       stroke="#000"
       stroke-linecap="round"
       stroke-linejoin="round"
       stroke-width="2"
       d="m 34.0878,41.2889 c -3.438,3.548 -7.676,10.246 -5.829,20.735"
       id="path4" />
    <path
       fill="none"
       stroke="#000"
       stroke-linecap="round"
       stroke-linejoin="round"
       stroke-width="2"
       d="m 57.0838,29.8721 c 1.3436,2.4925 -3.0561,13.578 -9.7327,14.8346 -2.1528,0.4052 -3.8746,-0.0623 -5.7286,-1.4619 -0.9986,-0.7539 -1.8237,-1.7212 -2.4582,-2.7997 v 0 C 37.6096,38.0786 38.32,34.7369 40.103,32.5372 44.381,27.2595 55.5291,27.5056 57.0838,29.8721"
       id="path6" />
    <path
       fill="none"
       stroke="#000"
       stroke-linecap="round"
       stroke-linejoin="round"
       stroke-width="2"
       d="m 53.5368,22.3417 c 2.1629,-0.5025 4.2949,-0.3222 4.8381,0.3621"
       id="path8" />
    <path
       fill="none"
       stroke="#000"
       stroke-linecap="round"
       stroke-linejoin="round"
       stroke-width="2"
       d="m 58.375,22.7039 c 0.3869,0.5853 0.2321,2.1634 -0.3773,3.8327"
       id="path10" />
    <path
       fill="none"
       stroke="#000"
       stroke-linecap="round"
       stroke-linejoin="round"
       stroke-width="2"
       d="m 34.5658,35.9276 c -2.1322,-1.8631 -1.8894,-4.8477 -0.7613,-7.4448 2.7067,-6.2313 13.5127,-8.9826 15.645,-7.1195"
       id="path12" />
    <path
       fill="none"
       stroke="#000"
       stroke-linecap="round"
       stroke-linejoin="round"
       stroke-width="2"
       d="m 49.3038,21.1954 c 0.506,0.5262 0.7973,1.5901 0.8465,3.1014"
       id="path14" />
  </g>
</g></svg>