<svg xmlns="http://www.w3.org/2000/svg" width="24" height="24" viewBox="0 0 24 24"> <g transform="translate(1.1267725638680623 0.0) scale(0.3815080443911951)">
  
  <g
     id="line"
     transform="translate(-7.61675,-4.5458935)">
    <path
       fill="none"
       stroke="#000"
       stroke-linecap="round"
       stroke-linejoin="round"
       stroke-width="1.9083"
       d="m 38.3593,53.3015 c 0.7194,2.8877 1.9365,3.03 1.9365,6.2157 0,4.5215 -4.2132,6.9738 -4.2132,6.9738 L 36.0672,66.5 36.0519,66.491 c 0,0 -4.2132,-2.4523 -4.2132,-6.9738 0,-3.1847 1.2166,-3.3279 1.936,-6.2137"
       id="path2" />
    <path
       fill="none"
       stroke="#000"
       stroke-linecap="round"
       stroke-linejoin="round"
       stroke-width="1.9083"
       d="m 33.78,42.8976 c -1.7823,-7.1024 -7.612,-13.29 -7.612,-19.5871 0,-7.4337 9.8842,-17.7944 9.8842,-17.7944 L 36.0673,5.5 36.0826,5.5161 c 0,0 9.8843,10.3607 9.8843,17.7944 0,6.2974 -5.83,12.4848 -7.612,19.5872"
       id="path4" />
    <path
       fill="none"
       stroke="#000"
       stroke-linecap="round"
       stroke-linejoin="round"
       stroke-width="1.9083"
       d="m 42.3976,42.8984 c 2.1073,-3.01 5.6779,-5.8795 8.4984,-5.8795 4.28,0 5.43,1.93 5.43,3.77 a 19.4669,19.4669 0 0 1 -1.3034,5.1371 c 0,0 8.6413,-0.46 8.6413,-6.9005 0,-6.4405 -5.1139,-9.281 -10.7879,-9.281 -4.8767,0 -12.547,4.2982 -14.5211,13.1532"
       id="path6" />
    <path
       fill="none"
       stroke="#000"
       stroke-linecap="round"
       stroke-linejoin="round"
       stroke-width="1.9083"
       d="m 38.3593,53.3015 c 2.18,6.6031 9.303,5.1565 9.303,5.1565 a 5.732,5.732 0 0 0 4.6,-6.21 10.2325,10.2325 0 0 1 -5.98,1.9168 6.1052,6.1052 0 0 1 -3.3222,-0.861"
       id="path8" />
    <path
       fill="none"
       stroke="#000"
       stroke-linecap="round"
       stroke-linejoin="round"
       stroke-width="1.9083"
       d="m 33.7747,53.3035 c -2.18,6.6006 -9.2022,5.1545 -9.2022,5.1545 a 5.732,5.732 0 0 1 -4.6,-6.21 10.2325,10.2325 0 0 0 5.98,1.9168 6.106,6.106 0 0 0 3.3218,-0.8607"
       id="path10" />
    <path
       fill="none"
       stroke="#000"
       stroke-linecap="round"
       stroke-linejoin="round"
       stroke-width="1.9083"
       d="m 29.8373,42.8984 c -2.1073,-3.01 -5.678,-5.8795 -8.4985,-5.8795 -4.28,0 -5.43,1.93 -5.43,3.77 a 19.4669,19.4669 0 0 0 1.3034,5.1371 c 0,0 -8.6413,-0.46 -8.6413,-6.9005 0,-6.4405 5.1144,-9.2814 10.7881,-9.2814 4.8768,0 12.4469,4.2977 14.4209,13.1531"
       id="path12" />
    <line
       x1="45.672001"
       x2="26.589199"
       y1="49.995998"
       y2="49.995998"
       fill="none"
       stroke="#000"
       stroke-linecap="round"
       stroke-linejoin="round"
       stroke-width="1.9083"
       id="line14" />
    <line
       x1="26.589199"
       x2="45.672001"
       y1="46.452599"
       y2="46.452599"
       fill="none"
       stroke="#000"
       stroke-linecap="round"
       stroke-linejoin="round"
       stroke-width="1.9083"
       id="line16" />
  </g>
</g></svg>