<svg xmlns="http://www.w3.org/2000/svg" width="24" height="24" viewBox="0 0 24 24"> <g transform="translate(0.45975503778238824 0.0) scale(0.41400723798503986)">
  
  <g
     id="line"
     transform="translate(-8.6255,-6.9734)">
    <polyline
       fill="none"
       stroke="#000"
       stroke-linecap="round"
       stroke-linejoin="round"
       stroke-width="2"
       points="35.7895,63.9434 35.7895,52.7764 28.1585,45.2604"
       id="polyline2" />
    <line
       x1="35.789501"
       x2="40.157501"
       y1="52.776402"
       y2="48.2304"
       fill="none"
       stroke="#000"
       stroke-linecap="round"
       stroke-linejoin="round"
       stroke-width="2"
       id="line4" />
    <path
       fill="none"
       stroke="#000"
       stroke-linecap="round"
       stroke-miterlimit="10"
       stroke-width="2"
       d="m 63.3745,25.7734 c 0,-5 -5.289,-9.061 -11.813,-9.061 -0.5451,0.0044 -1.0895,0.0378 -1.631,0.1 -2.763,-5.216 -8.762,-8.839 -15.738,-8.839 -9.593,0 -17.369,6.836 -17.369,15.268 0.0017,0.5574 0.0378,1.1141 0.108,1.667 -4.288,1.359 -7.306,4.595 -7.306,8.374 0,5 5.289,9.061 11.813,9.061 2.4798,0.021 4.922,-0.6072 7.084,-1.822 2.791,2.229 7.257,3.681 12.307,3.681 8.461,0 15.32,-4.057 15.32,-9.061 -0.0014,-0.3308 -0.0329,-0.6609 -0.094,-0.986 4.293,-1.36 7.319,-4.598 7.319,-8.382 z"
       id="path6" />
  </g>
</g></svg>