<svg xmlns="http://www.w3.org/2000/svg" width="24" height="24" viewBox="0 0 24 24"> <g transform="translate(0.0 2.475344396981683) scale(0.4349098828668085)">
  
  <g
     id="line"
     transform="translate(-8.4081821,-14.129506)">
    <path
       fill="none"
       stroke="#000"
       stroke-linecap="round"
       stroke-linejoin="round"
       stroke-width="2"
       d="m 55.8548,42.6962 c 1.9293,-0.2841 3.7236,1.0496 4.0077,2.9789 0.2841,1.9293 -1.0496,3.7236 -2.9789,4.0077 -0.3094,0.0456 -0.6235,0.0498 -0.9341,0.0126 L 36.9512,49.9525 36,49.9477 45.6253,49.7549 c 1.9293,-0.2841 3.7236,1.0496 4.0077,2.9789 0.2841,1.9293 -1.0496,3.7236 -2.9789,4.0077 -0.3094,0.0456 -0.6235,0.0498 -0.9341,0.0126 L 32.7213,56.9301 22.636,56.8775 c -8.31,-0.4248 -13.6293,-7.7519 -13.2046,-16.06 0.2654,-4.7917 2.278,-9.3199 5.6571,-12.7277 3.09,-2.9178 13.8165,-12.2811 13.8165,-12.2811 1.4091,-1.0107 3.3356,-0.8867 4.6036,0.2962 1.1904,1.177 1.3134,3.0579 0.2865,4.38 l -7.15,8.1952 5.4,0.0389 -5.4,-0.0389 5.4,0.0389 21.85,-0.04 c 1.9293,-0.2841 3.7236,1.0496 4.0077,2.9789 0.2841,1.9293 -1.0496,3.7236 -2.9789,4.0077 -0.3094,0.0456 -0.6235,0.0498 -0.9341,0.0126 l -6.9998,0.0955 -10.6361,0.186 22.1928,-0.3671 c 1.9293,-0.2841 3.7236,1.0496 4.0077,2.9789 0.2841,1.9293 -1.0496,3.7236 -2.9789,4.0077 -0.3094,0.0456 -0.6235,0.0498 -0.9341,0.0126 l -20.4538,0.1758"
       id="path2" />
  </g>
</g></svg>