<svg xmlns="http://www.w3.org/2000/svg" width="24" height="24" viewBox="0 0 24 24"> <g transform="translate(0.9972043490751545 0.0) scale(0.40053740103096325)">
  
  <g
     id="line"
     transform="translate(-9.0183888,-6.0403)">
    <path
       fill="none"
       stroke="#000"
       stroke-linejoin="round"
       stroke-miterlimit="10"
       stroke-width="2"
       d="m 18.4119,36 c -6.1591,-4.7995 -9.4596,-9.5293 -8.0767,-12.4346 1.569,-3.3004 8.6926,-3.405 17.792,-0.8019"
       id="path2" />
    <path
       fill="none"
       stroke="#000"
       stroke-linejoin="round"
       stroke-miterlimit="10"
       stroke-width="2"
       d="m 54.5651,36 c 6.1592,4.7995 9.4596,9.5293 8.0766,12.4346 -1.5688,3.3004 -8.6926,3.405 -17.8035,0.8019 -2.638,-0.7554 -5.4504,-1.7432 -8.344,-2.9518 -1.3363,-0.5462 -2.6844,-1.1388 -4.0441,-1.7896 -1.8013,-0.8599 -3.5329,-1.7548 -5.1713,-2.6728"
       id="path4" />
    <path
       fill="none"
       stroke="#000"
       stroke-linecap="round"
       stroke-linejoin="round"
       stroke-miterlimit="10"
       stroke-width="2"
       d="m 44.0918,53 c -1.6996,7.2511 -4.4743,11.9598 -7.6092,11.9598 -3.6489,0 -6.8098,-6.38 -8.3555,-15.7233 L 27.6429,46.891"
       id="path6" />
    <path
       fill="none"
       stroke="#000"
       stroke-linecap="round"
       stroke-linejoin="round"
       stroke-miterlimit="10"
       stroke-width="2"
       d="m 28.9271,18.7895 c 1.7085,-7.1316 4.4512,-11.7492 7.5555,-11.7492 3.6492,0 6.7985,6.38 8.3556,15.7233"
       id="path8" />
    <path
       fill="none"
       stroke="#000"
       stroke-linejoin="round"
       stroke-miterlimit="10"
       stroke-width="2"
       d="m 28.1271,22.7636 c 2.6496,0.7554 5.4619,1.7432 8.3671,2.9518"
       id="path10" />
    <path
       fill="none"
       stroke="#000"
       stroke-linejoin="round"
       stroke-miterlimit="10"
       stroke-width="2"
       d="M 44.8382,49.2364 C 42.2002,48.481 39.3878,47.4932 36.4942,46.2846 35.1579,45.7384 33.8098,45.1458 32.4501,44.495 30.6488,43.6351 28.9172,42.7402 27.2788,41.8222"
       id="path12" />
    <path
       fill="none"
       stroke="#000"
       stroke-linecap="round"
       stroke-linejoin="round"
       stroke-miterlimit="10"
       stroke-width="2"
       d="m 45.8683,34.3501 c 0.0105,0.5455 0.0159,1.0955 0.0159,1.6499 0,1.9989 -0.0698,3.9512 -0.1976,5.8338 -0.0533,0.8571 -0.1204,1.7004 -0.2004,2.528"
       id="path14" />
    <path
       fill="none"
       stroke="#000"
       stroke-linecap="round"
       stroke-linejoin="round"
       stroke-miterlimit="10"
       stroke-width="2"
       d="m 23.7183,50.3166 c -6.9369,1.3942 -12.078,0.8539 -13.3832,-1.882 -1.1056,-2.3228 0.7824,-5.8117 4.7314,-9.5702"
       id="path16" />
    <path
       fill="none"
       stroke="#000"
       stroke-linejoin="round"
       stroke-miterlimit="10"
       stroke-width="2"
       d="M 27.1335,41.7408 C 23.8451,39.8939 20.8971,37.947 18.4119,36"
       id="path18" />
    <path
       fill="none"
       stroke="#000"
       stroke-linejoin="round"
       stroke-miterlimit="10"
       stroke-width="2"
       d="m 27.2788,41.8222 c -0.0485,-0.0271 -0.097,-0.0543 -0.1453,-0.0814"
       id="path20" />
    <path
       fill="none"
       stroke="#000"
       stroke-linecap="round"
       stroke-linejoin="round"
       stroke-miterlimit="10"
       stroke-width="2"
       d="m 44.8382,22.7636 c 0.1379,0.803 0.263,1.63 0.3744,2.4777"
       id="path22" />
    <path
       fill="none"
       stroke="#000"
       stroke-linecap="round"
       stroke-linejoin="round"
       stroke-miterlimit="10"
       stroke-width="2"
       d="m 49.1309,21.7063 c 6.9986,-1.4263 12.1984,-0.9018 13.5108,1.8591 1.0638,2.2348 -0.6435,5.5491 -4.2915,9.1443"
       id="path24" />
    <path
       fill="none"
       stroke="#000"
       stroke-linecap="round"
       stroke-linejoin="round"
       stroke-miterlimit="10"
       stroke-width="2"
       d="m 54.5651,36 c -2.5217,-1.964 -5.52,-3.9396 -8.8785,-5.8222"
       id="path26" />
    <path
       fill="none"
       stroke="#000"
       stroke-linejoin="round"
       stroke-miterlimit="10"
       stroke-width="2"
       d="M 45.6866,30.1778 C 49.0451,32.0604 52.0434,34.036 54.5651,36"
       id="path28" />
    <path
       fill="none"
       stroke="#000"
       stroke-linecap="round"
       stroke-linejoin="round"
       stroke-miterlimit="10"
       stroke-width="2"
       d="m 41.666,43.947 c -0.2817,0.1403 -0.5677,0.2787 -0.8578,0.4148"
       id="path30" />
    <path
       fill="none"
       stroke="#000"
       stroke-linejoin="round"
       stroke-miterlimit="10"
       stroke-width="2"
       d="m 36.4942,25.7154 c 1.325,0.5578 2.6729,1.1505 4.0325,1.8013 1.8013,0.8483 3.5212,1.7432 5.1598,2.6612"
       id="path32" />
    <path
       fill="none"
       stroke="#000"
       stroke-linecap="round"
       stroke-linejoin="round"
       stroke-miterlimit="10"
       stroke-width="2"
       d="m 27.0903,36.7225 c -0.0061,-0.5548 -0.0092,-1.1129 -0.0092,-1.6746 0,-2.6514 0.0697,-5.2563 0.1976,-7.7526"
       id="path34" />
    <path
       fill="none"
       stroke="#000"
       stroke-linejoin="round"
       stroke-miterlimit="10"
       stroke-width="2"
       d="M 36.4942,46.2846 C 35.1579,45.7384 33.8098,45.1458 32.4501,44.495 30.6488,43.6351 28.9172,42.7402 27.2788,41.8222"
       id="path36" />
    <circle
       cx="36.826199"
       cy="36.326801"
       r="3.2625"
       fill="none"
       stroke="#000"
       stroke-miterlimit="10"
       stroke-width="2"
       id="circle38" />
    <path
       fill="none"
       stroke="#000"
       stroke-linecap="round"
       stroke-linejoin="round"
       stroke-miterlimit="10"
       stroke-width="2"
       d="m 31.61,48.3635 c 0,0 0.3376,-0.0601 0.9707,-0.3281"
       id="path40" />
    <path
       fill="none"
       stroke="#000"
       stroke-linecap="round"
       stroke-linejoin="round"
       stroke-miterlimit="10"
       stroke-width="2"
       d="m 49.7017,39.9667 c 0,0 1.4042,-0.8972 1.6463,-1.1023"
       id="path42" />
    <path
       fill="none"
       stroke="#000"
       stroke-linecap="round"
       stroke-linejoin="round"
       stroke-miterlimit="10"
       stroke-width="2"
       d="m 31.7066,27.2953 c -0.2829,0.143 -0.5659,0.2907 -0.8485,0.4432"
       id="path44" />
    <path
       fill="none"
       stroke="#000"
       stroke-linecap="round"
       stroke-linejoin="round"
       stroke-miterlimit="10"
       stroke-width="2"
       d="m 22.2214,32.7675 c 0,0 0.2273,-0.2384 0.8141,-0.5891"
       id="path46" />
    <path
       fill="none"
       stroke="#000"
       stroke-linecap="round"
       stroke-linejoin="round"
       stroke-miterlimit="10"
       stroke-width="2"
       d="m 39.7525,23.2019 c 0,0 1.6145,-0.5904 1.9449,-0.6609"
       id="path48" />
  </g>
</g></svg>