<svg xmlns="http://www.w3.org/2000/svg" width="24" height="24" viewBox="0 0 24 24"> <g transform="translate(1.1361895602061391 0.0) scale(0.44339701752321636)">
  
  <g
     id="line"
     transform="translate(-7.9969728,-8.6976372)">
    <circle
       cx="41.437599"
       cy="25.5373"
       r="5"
       fill="none"
       stroke="#000"
       stroke-linecap="round"
       stroke-linejoin="round"
       stroke-width="2"
       id="circle2" />
    <path
       fill="none"
       stroke="#000"
       stroke-linecap="round"
       stroke-linejoin="round"
       stroke-width="2"
       d="m 20.8366,32.5393 c 3.992,4.886 2.805,12.462 2.805,12.462 0,0 -7.66,-0.347 -11.653,-5.233 -3.993,-4.886 -2.805,-12.462 -2.805,-12.462 0,0 7.66,0.347 11.653,5.233 z"
       id="path4" />
    <path
       fill="none"
       stroke="#000"
       stroke-linecap="round"
       stroke-linejoin="round"
       stroke-width="2"
       d="m 32.0106,41.0902 c -3.438,3.548 -7.676,10.246 -5.829,20.735"
       id="path6" />
    <path
       fill="none"
       stroke="#000"
       stroke-linecap="round"
       stroke-linejoin="round"
       stroke-width="2"
       d="m 47.1886,13.4433 0.533,1.209 1.313,-0.143 c 3.4507,-0.3755 6.5525,2.1174 6.9281,5.5682 0.1698,1.5599 -0.2501,3.1268 -1.177,4.3928 l -0.78,1.066 0.78,1.066 c 2.0506,2.8007 1.4425,6.7334 -1.3582,8.784 -1.266,0.9269 -2.833,1.3468 -4.3928,1.177 l -1.313,-0.143 -0.533,1.209 c -1.4014,3.1756 -5.1118,4.6139 -8.2875,3.2125 -1.434,-0.6328 -2.5797,-1.7786 -3.2125,-3.2125 l -0.533,-1.209 -1.313,0.143 c -3.4507,0.3755 -6.5525,-2.1174 -6.928,-5.5682 -0.1697,-1.5599 0.2501,-3.1268 1.177,-4.3928 l 0.78,-1.066 -0.78,-1.066 c -2.0506,-2.8007 -1.4425,-6.7334 1.3582,-8.784 1.266,-0.9269 2.833,-1.3468 4.3928,-1.177 l 1.313,0.143 0.533,-1.209 c 1.4014,-3.1756 5.1118,-4.6139 8.2875,-3.2125 1.4339,0.6327 2.5796,1.7785 3.2124,3.2125 z"
       id="path8" />
  </g>
</g></svg>