<svg xmlns="http://www.w3.org/2000/svg" width="24" height="24" viewBox="0 0 24 24"> <g transform="translate(0.1877933623687955 0.0) scale(0.41446339079407735)">
  
  <g
     id="line"
     transform="translate(-4,-8.0937996)">
    <circle
       cx="44.9688"
       cy="12.0938"
       r="3"
       fill="none"
       stroke="#000"
       stroke-miterlimit="10"
       stroke-width="2"
       id="circle2" />
    <path
       fill="none"
       stroke="#000"
       stroke-linecap="round"
       stroke-linejoin="round"
       stroke-miterlimit="10"
       stroke-width="2"
       d="m 60,19 -0.6133,7.0112 c -0.1445,1.6441 -0.9297,1.8155 -1.7461,0.3819 l -2.1562,-3.7862 c -0.8164,-1.4336 -2.8262,-2.7558 -4.4658,-2.938 l -3.0372,-0.3378 c -1.6396,-0.1822 -4.2793,0.04 -5.8662,0.4931 l -1.2304,0.3516 c -1.5869,0.4531 -3.2871,2.1128 -3.7793,3.6875 l -1.336,4.2734 C 35.2773,29.7119 33.7783,30.5498 32.4375,30 31.0967,29.4502 30,29 30,29"
       id="path4" />
    <path
       fill="none"
       stroke="#000"
       stroke-linecap="round"
       stroke-linejoin="round"
       stroke-miterlimit="10"
       stroke-width="2"
       d="m 52.5,25 1.252,10.0156 c 0.1367,1.0918 0.3105,2.8819 0.3867,3.9795 l 0.8398,12.0928 c 0.0762,1.0976 0.2569,2.8877 0.4024,3.9775 l 1.0556,7.9522 C 56.582,64.1074 55.958,65 55.0508,65 54.1426,65 53.1416,64.1377 52.8242,63.085 l -2.457,-8.17 C 50.0498,53.8623 49.6465,52.1113 49.4697,51.0264 L 48.3213,43.9736 C 48.1445,42.8887 47.5498,42 47,42 c -0.5498,0 -1.5703,0.6963 -2.2666,1.5479 l -4.3047,5.2578 c -0.6963,0.8515 -1.1787,2.4433 -1.0713,3.5381 l 1.0469,10.666 C 40.5117,64.1045 39.8574,65 38.9492,65 38.042,65 37.1035,64.1211 36.8643,63.0479 L 34.334,51.7021 c -0.2393,-1.0732 0.0469,-2.7119 0.6367,-3.6406 l 5.957,-9.373 c 0.5899,-0.9287 0.961,-2.5811 0.8243,-3.6729 L 40.5,25"
       id="path6" />
    <line
       x1="28"
       x2="26"
       y1="25"
       y2="29"
       fill="none"
       stroke="#000"
       stroke-linecap="round"
       stroke-linejoin="round"
       stroke-miterlimit="10"
       stroke-width="2"
       id="line8" />
    <line
       x1="5"
       x2="27"
       y1="15"
       y2="27"
       fill="none"
       stroke="#000"
       stroke-linecap="round"
       stroke-linejoin="round"
       stroke-miterlimit="10"
       stroke-width="2"
       id="line10" />
  </g>
</g></svg>