<svg xmlns="http://www.w3.org/2000/svg" width="24" height="24" viewBox="0 0 24 24"> <g transform="translate(0.010032722828041685 0.0) scale(0.4999986458370009)">
  
  <g
     id="line"
     fill="none"
     stroke="#000"
     stroke-linecap="round"
     stroke-linejoin="round"
     stroke-miterlimit="10"
     stroke-width="2"
     transform="translate(-12,-11.999936)">
    <path
       d="m 23.24,32.01 c 0,0 3.439,-2.888 7.849,-1.546"
       id="path2" />
    <path
       d="m 48.76,32.01 c 0,0 -3.439,-2.888 -7.849,-1.546"
       id="path4" />
    <path
       d="m 58.91,33.52 -8.427,4.775"
       id="path6" />
    <path
       d="M 58.23,30.14 C 55.642,20.298 46.69,13.03 36.04,13 25.36,12.975 16.36,20.237 13.75,30.1"
       id="path8" />
    <path
       d="M 14.49,44.21 C 17.788,52.84 26.14,58.98 35.93,59 45.763,59.02297 54.17,52.872 57.48,44.2"
       id="path10" />
    <path
       d="m 21.52,38.4 28.96,-0.1059 c 0,22.21 -28.96,22.25 -28.96,0.1118 z"
       id="path12" />
    <path
       d="M 58.96,37.35 48.37,47.65"
       id="path14" />
    <path
       d="m 13.05,33.52 8.427,4.775"
       id="path16" />
    <path
       d="m 13,37.35 10.59,10.3"
       id="path18" />
  </g>
</g></svg>