<svg xmlns="http://www.w3.org/2000/svg" width="24" height="24" viewBox="0 0 24 24"> <g transform="translate(0.0 1.0285853714285729) scale(0.45714285714285713)">
  
  <g
     id="line"
     transform="translate(-10,-12)">
    <path
       fill="none"
       stroke="#000"
       stroke-linecap="round"
       stroke-miterlimit="10"
       stroke-width="2"
       d="M 19.6143,21.6923 C 23.7178,18.4958 29.5411,16.5 36,16.5 c 0.6906,0 1.3739,0.0228 2.0486,0.0675"
       id="path2" />
    <path
       fill="none"
       stroke="#000"
       stroke-linecap="round"
       stroke-miterlimit="10"
       stroke-width="2"
       d="M 60.9199,30.2613 C 61.2994,31.4626 61.5,32.7141 61.5,34 c 0,8.7281 -9.2412,15.8734 -20.9398,16.4609"
       id="path4" />
    <path
       fill="none"
       stroke="#000"
       stroke-linejoin="round"
       stroke-miterlimit="10"
       stroke-width="2"
       d="m 43,36.1645 c 0,-4.7003 -3.8103,-8.5106 -8.5106,-8.5106 -3.2363,0 -6.0501,1.8067 -7.4894,4.4662 -1.4392,-2.6595 -4.2531,-4.4662 -7.4894,-4.4662 -4.7003,0 -8.5106,3.8103 -8.5106,8.5106 0,2.0221 0.7083,3.8769 1.8862,5.337 L 12.8833,41.5038 27,59 41.1167,41.5038 41.1138,41.5015 C 42.2917,40.0413 43,38.1865 43,36.1645 Z"
       id="path6" />
    <path
       fill="none"
       stroke="#000"
       stroke-linejoin="round"
       stroke-miterlimit="10"
       stroke-width="2"
       d="M 61,17.5213 C 61,15.0242 58.9758,13 56.4787,13 54.7594,13 53.2646,13.9598 52.5,15.3727 51.7354,13.9598 50.2406,13 48.5213,13 46.0242,13 44,15.0242 44,17.5213 c 0,1.0742 0.3763,2.0596 1.002,2.8353 L 45.0005,20.3578 52.5,29.6526 59.9995,20.3578 59.998,20.3566 C 60.6237,19.5809 61,18.5955 61,17.5213 Z"
       id="path8" />
  </g>
</g></svg>