<svg xmlns="http://www.w3.org/2000/svg" width="24" height="24" viewBox="0 0 24 24"> <g transform="translate(1.8402695145430812 0.0) scale(0.41420443702006)">
  
  <g
     id="line"
     transform="translate(-14.1768,-6.9919)">
    <path
       fill="none"
       stroke="#000"
       stroke-linecap="round"
       stroke-linejoin="round"
       stroke-width="2"
       d="m 46.3608,39.5475 v 14.4891 a 0.919,0.919 0 0 1 -0.9727,0.9727 H 19.0087 A 0.9748,0.9748 0 0 1 18.036,54.0366 V 15.13 a 0.9748,0.9748 0 0 1 0.9727,-0.9727 h 26.3794 a 0.9747,0.9747 0 0 1 0.9727,0.9727 v 3.902"
       id="path2" />
    <circle
       cx="32.198399"
       cy="59.265499"
       r="1.9453"
       fill="#000"
       id="circle4" />
    <polygon
       fill="none"
       stroke="#000"
       stroke-linecap="round"
       stroke-linejoin="round"
       stroke-width="2"
       points="37.062,11.24 27.335,11.24 37.062,11.24 "
       id="polygon6" />
    <path
       fill="none"
       stroke="#000"
       stroke-linecap="round"
       stroke-linejoin="round"
       stroke-width="2"
       d="m 49.22,39.5475 v 20.7068 a 3.6908,3.6908 0 0 1 -3.68,3.68 H 18.8568 a 3.6908,3.6908 0 0 1 -3.68,-3.68 V 11.6719 a 3.6908,3.6908 0 0 1 3.68,-3.68 H 45.54 a 3.6908,3.6908 0 0 1 3.68,3.68 v 7.36"
       id="path8" />
    <path
       fill="none"
       stroke="#000"
       stroke-miterlimit="10"
       stroke-width="2"
       d="m 31.137,22.0732 a 3.6908,3.6908 0 0 0 -3.68,3.68 v 14.996 a 0.3105,0.3105 0 0 0 0.46,0.276 l 4.6,-4.048 a 0.676,0.676 0 0 1 0.552,-0.184 h 25.4844 a 3.6908,3.6908 0 0 0 3.68,-3.68 v -7.36 a 3.6908,3.6908 0 0 0 -3.68,-3.68 z"
       id="path10" />
  </g>
</g></svg>