<svg xmlns="http://www.w3.org/2000/svg" width="24" height="24" viewBox="0 0 24 24"> <g transform="translate(0.9084877561834368 0.0) scale(0.46998095539256046)">
  
  <g
     id="line"
     transform="translate(-12.40008,-9.9341)">
    <path
       fill="none"
       stroke="#000"
       stroke-linejoin="round"
       stroke-width="2"
       d="m 25,30.9341 c 0,8 5,14 11,14 6,0 11,-6 11,-14 0,-5 -2,-8 -6,-12 -4,4 -16,9 -16,11 z"
       id="path2" />
    <path
       fill="none"
       stroke="#000"
       stroke-linecap="round"
       stroke-linejoin="round"
       stroke-width="2"
       d="m 17.2483,39.1383 c 0.4948,-2.4807 1.7853,-4.7854 2.7268,-7.2042 1.6357,-4.2 -0.209,-6.4512 1.291,-12.0342 1.4795,-5.5 7.2773,-8.9658 13.709,-8.9658 5.4,0 8,3 8,3 4.169,0.374 7.373,3.8515 7.4052,8.0371 0.3867,7.18 1.0244,7.1523 3.4287,12.8222 0.5667,1.3101 0.8863,2.7137 0.9427,4.14"
       id="path4" />
    <path
       fill="none"
       stroke="#000"
       stroke-linejoin="round"
       stroke-width="2"
       d="M 26.5,39.4 H 13.4 c 1.6694,2.6727 3.1079,5.4829 4.3,8.4 0.5072,1.2402 0.9413,2.509 1.3,3.8"
       id="path6" />
    <path
       fill="none"
       stroke="#000"
       stroke-linejoin="round"
       stroke-width="2"
       d="m 53,51.4 c 0.4,-1.2 0.8,-2.4 1.3,-3.6 1.1713,-2.9266 2.6108,-5.7385 4.3,-8.4 H 44.7"
       id="path8" />
    <path
       d="m 42,30.1 c 0,1.1046 -0.8954,2 -2,2 -1.1046,0 -2,-0.8954 -2,-2 0,-1.1046 0.8954,-2 2,-2 1.1032,0.0032 1.9968,0.8968 2,2"
       id="path10" />
    <path
       d="m 34,30.1 c 0,1.1046 -0.8954,2 -2,2 -1.1046,0 -2,-0.8954 -2,-2 0,-1.1046 0.8954,-2 2,-2 1.1032,0.0032 1.9968,0.8968 2,2"
       id="path12" />
    <path
       fill="none"
       stroke="#000"
       stroke-linecap="round"
       stroke-linejoin="round"
       stroke-width="2"
       d="m 33,39 c 1.875,-1 4.125,-1 6,0"
       id="path14" />
    <path
       fill="none"
       stroke="#000"
       stroke-linecap="round"
       stroke-linejoin="round"
       d="m 38,38.5 c 0.2408,0.0816 0.4748,0.1819 0.7,0.3"
       id="path16" />
    <path
       fill="none"
       stroke="#000"
       stroke-linecap="round"
       stroke-linejoin="round"
       stroke-width="2"
       d="m 17,60 v -3 c 0,-5 5,-9 10,-9 6,5 12,5 18,0 5,0 10,4 10,9 v 3"
       id="path18" />
    <polygon
       stroke="#000"
       stroke-linecap="round"
       stroke-linejoin="round"
       points="35.1,38.8 35,38.7 34,38.7 34.3,41.1 "
       id="polygon20" />
    <polygon
       stroke="#000"
       stroke-linecap="round"
       stroke-linejoin="round"
       points="36.9,38.8 36.8,38.7 37.9,38.7 37.7,41.1 "
       id="polygon22" />
  </g>
</g></svg>