<svg xmlns="http://www.w3.org/2000/svg" width="24" height="24" viewBox="0 0 24 24"> <g transform="translate(1.4331435393131695 0.0) scale(0.42780793655380134)">
  
  <g
     id="line"
     transform="translate(-11.3,-7.1000596)">
    <path
       fill="none"
       stroke="#000"
       stroke-linecap="round"
       stroke-linejoin="round"
       stroke-width="2"
       d="m 39.4,52.1 c 0.8,3.6 5.4,9.3 7.3,10.1 H 36 25.3 c 1.9,-0.8 6.6,-6.6 7.3,-10.1"
       id="path2" />
    <path
       fill="none"
       stroke="#000"
       stroke-linecap="round"
       stroke-linejoin="round"
       stroke-width="2"
       d="m 12.3,42 c 0,7 5.6,12.6 12.6,12.6 4.8,0 9,-2.7 11.1,-6.6 2.1,3.9 6.3,6.6 11.1,6.6 7,0 12.6,-5.6 12.6,-12.6 0,-3 -1,-5.7 -2.8,-7.9 v 0 L 36,8.1 15.1,34.1 v 0 C 13.3,36.2 12.3,39 12.3,42 Z"
       id="path4" />
  </g>
</g></svg>