<svg xmlns="http://www.w3.org/2000/svg" width="24" height="24" viewBox="0 0 24 24"> <g transform="translate(0.6493382505275243 0.0) scale(0.4809619045706651)">
  
  <g
     id="line"
     transform="translate(-12.40008,-11.1)">
    <path
       fill="none"
       stroke="#000"
       stroke-linejoin="round"
       stroke-width="2"
       d="M 26.5,39.4 H 13.4 c 1.6694,2.6727 3.1079,5.4829 4.3,8.4 0.5072,1.2402 0.9413,2.509 1.3,3.8"
       id="path2" />
    <path
       fill="none"
       stroke="#000"
       stroke-linejoin="round"
       stroke-width="2"
       d="m 53,51.4 c 0.4,-1.2 0.8,-2.4 1.3,-3.6 1.1713,-2.9266 2.6108,-5.7385 4.3,-8.4 H 44.7"
       id="path4" />
    <path
       d="m 42,30.1 c 0,1.1046 -0.8954,2 -2,2 -1.1046,0 -2,-0.8954 -2,-2 0,-1.1046 0.8954,-2 2,-2 1.1032,0.0032 1.9968,0.8968 2,2"
       id="path6" />
    <path
       d="m 34,30.1 c 0,1.1046 -0.8954,2 -2,2 -1.1046,0 -2,-0.8954 -2,-2 0,-1.1046 0.8954,-2 2,-2 1.1032,0.0032 1.9968,0.8968 2,2"
       id="path8" />
    <path
       fill="none"
       stroke="#000"
       stroke-linecap="round"
       stroke-linejoin="round"
       stroke-width="2"
       d="m 33,39 c 1.875,-1 4.125,-1 6,0"
       id="path10" />
    <path
       fill="none"
       stroke="#000"
       stroke-linecap="round"
       stroke-linejoin="round"
       d="m 38,38.5 c 0.2408,0.0816 0.4748,0.1819 0.7,0.3"
       id="path12" />
    <path
       fill="none"
       stroke="#000"
       stroke-linecap="round"
       stroke-linejoin="round"
       stroke-width="2"
       d="m 17,60 v -3 c 0,-5 5,-9 10,-9 6,5 12,5 18,0 5,0 10,4 10,9 v 3"
       id="path14" />
    <polygon
       stroke="#000"
       stroke-linecap="round"
       stroke-linejoin="round"
       points="35.1,38.8 35,38.7 34,38.7 34.3,41.1 "
       id="polygon16" />
    <polygon
       stroke="#000"
       stroke-linecap="round"
       stroke-linejoin="round"
       points="36.9,38.8 36.8,38.7 37.9,38.7 37.7,41.1 "
       id="polygon18" />
    <path
       fill="none"
       stroke="#000"
       stroke-linejoin="round"
       stroke-width="2"
       d="m 24.9494,31.1 c 0,9 4.9,14 11,14 5.9,0 11.1,-5 11.1,-14 0.0246,-1.7187 -0.3163,-3.423 -1,-5 -3,-3 -7,-8 -7,-8 -4,3 -7,6 -13,7 0,0 -1.1,1 -1.1,6 z"
       id="path20" />
    <path
       fill="none"
       stroke="#000"
       stroke-linecap="round"
       stroke-linejoin="round"
       stroke-width="2"
       d="m 26,39.1 c -4,0 -4,-6 -4,-13 0,-7 4,-14 14,-14 10,0 14,7 14,14 0,7 0,13 -4,13"
       id="path22" />
  </g>
</g></svg>