<svg xmlns="http://www.w3.org/2000/svg" width="24" height="24" viewBox="0 0 24 24"> <g transform="scale(0.4790253367278665)">
  
  <g
     id="line"
     transform="translate(-10.998329,-10.998329)">
    <path
       fill="none"
       stroke="#000"
       stroke-miterlimit="10"
       stroke-width="2"
       d="m 13.7,12 h 44.7 a 1.6855,1.6855 0 0 1 1.7,1.7 v 44.7 a 1.6855,1.6855 0 0 1 -1.7,1.7 H 13.7 A 1.6855,1.6855 0 0 1 12,58.4 V 13.7 A 1.6275,1.6275 0 0 1 13.7,12 Z"
       id="path2" />
    <line
       x1="25"
       x2="47"
       y1="39"
       y2="39"
       fill="none"
       stroke="#000"
       stroke-linecap="round"
       stroke-linejoin="round"
       stroke-width="2"
       id="line4" />
    <line
       x1="25"
       x2="47"
       y1="30"
       y2="30"
       fill="none"
       stroke="#000"
       stroke-linecap="round"
       stroke-linejoin="round"
       stroke-width="2"
       id="line6" />
    <line
       x1="25"
       x2="47"
       y1="21"
       y2="21"
       fill="none"
       stroke="#000"
       stroke-linecap="round"
       stroke-linejoin="round"
       stroke-width="2"
       id="line8" />
    <path
       fill="none"
       stroke="#000"
       stroke-linecap="round"
       stroke-linejoin="round"
       stroke-width="2"
       d="m 25,21 v 18 c 0,5 -1,9 -4,12"
       id="path10" />
    <path
       fill="none"
       stroke="#000"
       stroke-linecap="round"
       stroke-linejoin="round"
       stroke-width="2"
       d="m 47,21 v 28 a 2.0059,2.0059 0 0 1 -2,2 h -6"
       id="path12" />
  </g>
</g></svg>