<svg xmlns="http://www.w3.org/2000/svg" width="24" height="24" viewBox="0 0 24 24"> <g transform="translate(0.0 4.4868749999999995) scale(0.375)">
  
  <g
     id="line"
     transform="translate(-4,-15.969999)">
    <rect
       x="5"
       y="42"
       width="62"
       height="7"
       fill="none"
       stroke="#000"
       stroke-linecap="round"
       stroke-linejoin="round"
       stroke-miterlimit="10"
       stroke-width="2"
       id="rect2" />
    <path
       fill="none"
       stroke="#000"
       stroke-linecap="round"
       stroke-linejoin="round"
       stroke-miterlimit="10"
       stroke-width="2"
       d="m 5,40.99 v -4 c 0,-1.65 1.35,-3 3,-3 h 13.83"
       id="path4" />
    <line
       x1="5"
       x2="5"
       y1="55.029999"
       y2="16.969999"
       fill="none"
       stroke="#000"
       stroke-linecap="round"
       stroke-linejoin="round"
       stroke-miterlimit="10"
       stroke-width="2"
       id="line6" />
    <line
       x1="67"
       x2="67"
       y1="27.040001"
       y2="55.040001"
       fill="none"
       stroke="#000"
       stroke-linecap="round"
       stroke-linejoin="round"
       stroke-miterlimit="10"
       stroke-width="2"
       id="line8" />
    <path
       fill="none"
       stroke="#000"
       stroke-linecap="round"
       stroke-linejoin="round"
       stroke-miterlimit="10"
       stroke-width="2"
       d="m 15.08,27.66 c -0.0498,-0.2168 -0.0762,-0.4429 -0.0762,-0.6748 0,-1.657 1.344,-3 3,-3 1.656,0 3,1.343 3,3 0,0.3926 -0.0752,0.7676 -0.2129,1.111"
       id="path10" />
    <path
       fill="none"
       stroke="#000"
       stroke-linecap="round"
       stroke-linejoin="round"
       stroke-miterlimit="10"
       stroke-width="2"
       d="m 22,41.99 v -14 c 0,0 0.2109,-2.106 2,-3 2,-1 9.301,-0.959 12.3,-1.959 6.789,-2.263 18.59,3.356 23,6 5,3 7.699,1.813 7.699,4.959"
       id="path12" />
    <path
       fill="none"
       stroke="#000"
       stroke-linecap="round"
       stroke-linejoin="round"
       stroke-miterlimit="10"
       stroke-width="2"
       d="m 5.042,29.9 c 1.854,-1.855 9.25,-3.042 15.96,-0.9175"
       id="path14" />
  </g>
</g></svg>