<svg xmlns="http://www.w3.org/2000/svg" width="24" height="24" viewBox="0 0 24 24"> <g transform="translate(3.249999696180545 0.0) scale(0.41666668113425975)">
  
  <g
     id="line"
     transform="translate(-15,-7)">
    <circle
       cx="25"
       cy="11"
       r="3"
       fill="none"
       stroke="#000"
       stroke-miterlimit="10"
       stroke-width="2"
       id="circle2" />
    <path
       fill="none"
       stroke="#000"
       stroke-linecap="round"
       stroke-linejoin="round"
       stroke-width="2"
       d="M 16,41.9 16.8,23 c 0.1,-2.8 2.4,-5 5.2,-5 h 6 c 2.8,0 5.1,2.2 5.2,5 0,0 0.1,6.7 0.3,9.3 0.4,4.9 2.5,9.6 2.5,9.6"
       id="path4" />
    <circle
       cx="47"
       cy="11"
       r="3"
       fill="none"
       stroke="#000"
       stroke-miterlimit="10"
       stroke-width="2"
       id="circle6" />
    <path
       fill="none"
       stroke="#000"
       stroke-linecap="round"
       stroke-linejoin="round"
       stroke-width="2"
       d="m 36,41.9 c 0,0 2.1,-4.7 2.5,-9.6 0.2,-2.5 0.3,-9.3 0.3,-9.3 0.1,-2.8 2.4,-5 5.2,-5 h 6 c 2.8,0 5.1,2.2 5.2,5 L 56,41.9"
       id="path8" />
    <path
       fill="none"
       stroke="#000"
       stroke-linecap="round"
       stroke-linejoin="round"
       stroke-width="2"
       d="m 30,23.8 c -0.5,2.5 -0.1,6.7 0.2,8.2 0.3,1.5 0.5,4.9 0.6,5.6 0.3,3 1.1,24.2 1.1,24.2 0.1,1.1 -0.7,1.8 -1.5,1.8 -0.8,0 -1.4,-0.6 -1.5,-1.3 L 26.2,39 c -0.1,-0.6 -0.5,-1.1 -1.2,-1.1 -0.7,0 -1.1,0.5 -1.2,1.1 l -2.7,23.3 c -0.1,0.7 -0.7,1.3 -1.5,1.3 -0.8,0 -1.6,-0.7 -1.5,-1.8 0,0 0.8,-21.2 1.1,-24.2 0,-0.7 0.3,-4.2 0.6,-5.6 0.3,-1.5 0.7,-5.7 0.2,-8.2"
       id="path10" />
    <path
       fill="none"
       stroke="#000"
       stroke-linecap="round"
       stroke-linejoin="round"
       stroke-width="2"
       d="m 52,23.8 c -0.5,2.5 -0.1,6.7 0.2,8.2 0.3,1.5 0.5,4.9 0.6,5.6 0.3,3 1.1,24.2 1.1,24.2 0.1,1.1 -0.7,1.8 -1.5,1.8 -0.8,0 -1.4,-0.6 -1.5,-1.3 L 48.2,39 c -0.1,-0.6 -0.5,-1.1 -1.2,-1.1 -0.7,0 -1.1,0.5 -1.2,1.1 l -2.7,23.3 c -0.1,0.7 -0.7,1.3 -1.5,1.3 -0.8,0 -1.6,-0.7 -1.5,-1.8 0,0 0.8,-21.2 1.1,-24.2 0,-0.7 0.3,-4.2 0.6,-5.6 0.3,-1.5 0.7,-5.7 0.2,-8.2"
       id="path12" />
  </g>
</g></svg>