<svg xmlns="http://www.w3.org/2000/svg" width="24" height="24" viewBox="0 0 24 24"> <g transform="translate(0.0 0.161507692669403) scale(0.46327253518308786)">
  
  <g
     id="line-supplement"
     transform="translate(-11,-11)">
    <path
       fill="none"
       stroke="#000"
       stroke-linecap="round"
       stroke-linejoin="round"
       stroke-width="2"
       d="m 21,13 -2,5 5,2 2,9 -5,5 2,3 -3,2 v 1 l 5,7 4,-2 m 5.5,11 1.5,-3 3,-2 7,4 5,-1 v -4 l -2,-2 1.5,-3.5"
       id="path2" />
  </g>
  <g
     id="line"
     transform="translate(-11,-11)">
    <path
       fill="none"
       stroke="#000"
       stroke-linecap="round"
       stroke-linejoin="round"
       stroke-miterlimit="10"
       stroke-width="2"
       d="m 59.5371,35.0666 c 4.3067,-6.5674 2.3264,-15.2885 -4.4231,-19.479 -6.7495,-4.1905 -15.7124,-2.2637 -20.0191,4.3037 -4.3067,6.5675 -2.3264,15.2885 4.4231,19.479 6.7495,4.1905 15.7124,2.2637 20.0191,-4.3037 z"
       id="path5" />
    <path
       fill="none"
       stroke="#000"
       stroke-linecap="round"
       stroke-linejoin="round"
       stroke-miterlimit="10"
       stroke-width="2"
       d="m 56.6385,33.2669 c 3.2853,-5.0098 1.7748,-11.6625 -3.3739,-14.8591 -5.1487,-3.1966 -11.9858,-1.7267 -15.2711,3.2831 -3.2853,5.0098 -1.7747,11.6624 3.374,14.8591 5.1487,3.1966 11.9858,1.7267 15.271,-3.2831 z"
       id="path7" />
    <path
       fill="none"
       stroke="#000"
       stroke-linecap="round"
       stroke-linejoin="round"
       stroke-miterlimit="10"
       stroke-width="2"
       d="m 34.777,41.444 4.3636,2.709 -10.3955,15.853 c -0.7427,1.1326 -2.3216,1.4442 -3.5265,0.6962 -1.205,-0.7481 -1.5798,-2.2726 -0.8371,-3.4053 z"
       id="path9" />
    <path
       fill="none"
       stroke="#000"
       stroke-linecap="round"
       stroke-linejoin="round"
       stroke-width="2"
       d="M 40,12.3333 36,12 25,13 12,12 V 24 L 12.9967,35.04 12,47 v 12 l 9,0.6923 M 54.2656,12.4779 60,12 v 4.5 M 59.375,39.5 60,47 v 12 l -12,1 -12,-1 -3.5,0.3182"
       id="path11" />
  </g>
</g></svg>