<svg xmlns="http://www.w3.org/2000/svg" width="24" height="24" viewBox="0 0 24 24"> <g transform="translate(0.0 1.953767622308126) scale(0.4185930157371614)">
  
  <g
     id="line-supplement"
     transform="translate(-7.331261,-12)">
    <path
       fill="none"
       stroke="#000"
       stroke-linecap="round"
       stroke-linejoin="round"
       stroke-miterlimit="10"
       stroke-width="2"
       d="m 19.7452,30.3698 c 0.7351,-1.4356 1.8465,-2.6723 3.2355,-3.5099 4.2321,-2.5519 10.5282,-1.0889 13.4909,3.8371 3.0375,-4.9167 9.313,-6.349 13.4909,-3.8371 1.4555,0.8751 2.5525,2.1665 3.2519,3.6508"
       id="path2" />
  </g>
  <g
     id="line"
     transform="translate(-7.331261,-12)">
    <path
       fill="none"
       stroke="#000"
       stroke-linecap="round"
       stroke-linejoin="round"
       stroke-miterlimit="10"
       stroke-width="2"
       d="m 52.2639,19.6545 c 0.3299,0 7.1412,-2.2454 10.3066,3.9209 1.7048,3.321 1.2756,6.2407 -0.0761,8.8072"
       id="path5" />
    <path
       fill="none"
       stroke="#000"
       stroke-linecap="round"
       stroke-linejoin="round"
       stroke-miterlimit="10"
       stroke-width="2"
       d="m 19.7361,19.6545 c -0.3299,0 -7.1412,-2.2454 -10.3066,3.9209 -1.6112,3.1387 -1.3163,5.919 -0.1379,8.3815"
       id="path7" />
    <path
       fill="none"
       stroke="#000"
       stroke-linecap="round"
       stroke-linejoin="round"
       stroke-miterlimit="10"
       stroke-width="2"
       d="m 41.9368,49.0171 c -0.2036,0.2681 -0.7527,6.0217 -6.3387,6.0246 -4.9521,0.0025 -5.4413,-5.6762 -5.7048,-6.0246 4.0145,0 8.029,0 12.0435,0 z"
       id="path9" />
    <circle
       cx="34.056301"
       cy="44.557899"
       r="1"
       id="circle11" />
    <circle
       cx="37.6959"
       cy="44.557899"
       r="1"
       id="circle13" />
    <path
       fill="none"
       stroke="#000"
       stroke-linecap="round"
       stroke-linejoin="round"
       stroke-miterlimit="10"
       stroke-width="2"
       d="M 48.849,55.0215 C 45.1636,57.5323 40.7108,59 35.9151,59 31.1516,59 26.7264,57.5519 23.0556,55.072"
       id="path15" />
    <path
       fill="none"
       stroke="#000"
       stroke-linecap="round"
       stroke-linejoin="round"
       stroke-miterlimit="10"
       stroke-width="2"
       d="M 14.9925,26.4342 C 18.6228,18.5069 26.6258,13 35.915,13 c 9.2192,0 17.1715,5.4242 20.8396,13.2552"
       id="path17" />
    <path
       fill="none"
       stroke="#000"
       stroke-linecap="round"
       stroke-linejoin="round"
       stroke-miterlimit="10"
       stroke-width="2"
       d="m 59.2838,52.2733 c -1.8841,-3.9279 0.2803,0.5844 -1.6038,-3.3435 0.5664,-1.6119 1.2604,-4.0223 1.5384,-7.0087 0.425,-4.5648 -0.1233,-10.4598 -1.5384,-10.6624 -0.555,-0.0795 -1.4734,0.6838 -3.0324,4.7202 -2.6006,-3.0933 -8.3652,-6.2699 -8.999,-5.4998 -0.6228,0.7568 0.0903,2.5375 0.0098,3.503 -2.6552,-1.2069 -3.9497,-1.4041 -4.2664,-1.0505 -0.3186,0.3557 0.0824,1.6942 1.7721,4.3494 -3.1158,-0.7429 -4.1039,0.1181 -3.9426,0.8046 0.6076,2.5859 2.7004,5.9308 6.4366,9.6067 2.0968,2.0629 4.741,2.5726 6.3992,2.9133 0.6095,5.022 0.347,2.8686 0.9565,7.8906"
       id="path19" />
    <path
       fill="none"
       stroke="#000"
       stroke-linecap="round"
       stroke-linejoin="round"
       stroke-miterlimit="10"
       stroke-width="2"
       d="m 12.3926,51.9829 c 1.8841,-3.9279 -0.4196,0.8747 1.4645,-3.0531 -0.5664,-1.6119 -1.2604,-4.0223 -1.5384,-7.0087 -0.425,-4.5648 0.1233,-10.4598 1.5384,-10.6624 0.555,-0.0795 1.4734,0.6838 3.0324,4.7202 2.6006,-3.0933 8.3652,-6.2699 8.999,-5.4998 0.6228,0.7568 -0.0903,2.5375 -0.0098,3.503 2.6552,-1.2069 3.9497,-1.4041 4.2664,-1.0505 0.3186,0.3557 -0.0824,1.6942 -1.7721,4.3494 3.1158,-0.7429 4.1039,0.1181 3.9426,0.8046 -0.6076,2.5859 -2.7004,5.9308 -6.4366,9.6067 -2.0968,2.0629 -4.741,2.5726 -6.3992,2.9133 -0.6095,5.022 -0.3481,2.8686 -0.9576,7.8906"
       id="path21" />
  </g>
</g></svg>