<svg xmlns="http://www.w3.org/2000/svg" width="24" height="24" viewBox="0 0 24 24"> <g transform="translate(0.6997961250000007 0.0) scale(0.375)">
  
  <g
     id="line"
     transform="translate(-5.4342692,-4)">
    <polyline
       fill="none"
       stroke="#000"
       stroke-linecap="round"
       stroke-miterlimit="10"
       stroke-width="2"
       points="32.55 5 32.55 16.57 32.55 23.16"
       id="polyline2" />
    <polyline
       fill="none"
       stroke="#000"
       stroke-linecap="round"
       stroke-miterlimit="10"
       stroke-width="2"
       points="37.55 5 37.55 15.83 37.55 22"
       id="polyline4" />
    <path
       fill="none"
       stroke="#000"
       stroke-linecap="round"
       stroke-linejoin="round"
       stroke-width="2"
       d="m 26.55,24 c -1,-1 -2.5,-3.5 -5,-6 a 14.39,14.39 0 0 0 -3,-2 l -2,-3"
       id="path6" />
    <path
       fill="none"
       stroke="#000"
       stroke-linecap="round"
       stroke-linejoin="round"
       stroke-width="2"
       d="m 46.55,30 c 0,0 -1,3 0,5 1.2,2.4 5.8,8 5.8,9 l -2.8,3 c 0,0 -1.1,0.7 -1.1,1.4 a 1.563,1.563 0 0 0 1.9,1.6 c 0,0 6.4,-5.6 6.2,-6 -0.5,-1.3 -1.4,-3.7 -2,-5 -1,-2 4,-5 4,-8 0,-1.6 -1,-6 -5,-7 a 19.32,19.32 0 0 0 -6,-0.3"
       id="path8" />
    <path
       fill="none"
       stroke="#000"
       stroke-linecap="round"
       stroke-linejoin="round"
       stroke-width="2"
       d="m 24.55,54 a 19.44,19.44 0 0 1 -5,-3 3.054,3.054 0 0 1 0,-3 l 3,-6 a 7.812,7.812 0 0 1 -3,-2 c -1,-1 -0.9,-5 -1,-7 -0.1,-1.8 -2,-8 -2,-8 a 37.46,37.46 0 0 0 -8,1 c -0.7,0.2 -2.6,-1.6 -2,-2 a 79.74,79.74 0 0 1 8,-6"
       id="path10" />
    <path
       fill="none"
       stroke="#000"
       stroke-linecap="round"
       stroke-linejoin="round"
       stroke-width="2"
       d="m 26.55,51 a 11.35,11.35 0 0 1 1.2,1.2 1.758,1.758 0 0 1 -2.2,2.7 c -0.6,-0.5 -1,-0.9 -1,-0.9"
       id="path12" />
    <path
       fill="none"
       stroke="#000"
       stroke-linecap="round"
       stroke-linejoin="round"
       stroke-width="2"
       d="m 47.55,38 c 0,0 -7.4,3.4 -10,4 a 79.17,79.17 0 0 1 -9,1 c -4,4 -5,6 -5,6 a 20.04,20.04 0 0 0 3,2"
       id="path14" />
    <path
       fill="none"
       stroke="#000"
       stroke-linecap="round"
       stroke-linejoin="round"
       stroke-width="2"
       d="m 48.5485,39 c 0,0 -2.1,6.8 -3,9 -0.5,1.2 -0.6,1.9 -1.5,4 -0.8,1.8 -0.9,2.1 -0.9,2.1 a 1.85,1.85 0 0 0 1,2.4 2.1579,2.1579 0 0 0 2.4,-1.3 l 1,-2.1"
       id="path16" />
    <path
       fill="none"
       stroke="#000"
       stroke-linecap="round"
       stroke-linejoin="round"
       stroke-width="2"
       d="m 15.55,52 v 2 c 0,1.1 -0.7,2 -1.5,2 a 1.56,1.56 0 0 1 -1.5,-1.6 V 52"
       id="path18" />
    <path
       fill="none"
       stroke="#000"
       stroke-linecap="round"
       stroke-linejoin="round"
       stroke-width="2"
       d="m 18.55,40 a 61.25,61.25 0 0 0 -6,4 3.881,3.881 0 0 0 -1,3 46.19,46.19 0 0 0 1,5"
       id="path20" />
    <path
       fill="none"
       stroke="#000"
       stroke-linecap="round"
       stroke-linejoin="round"
       stroke-width="2"
       d="m 56.55,25 h 2 c 3,0 7,3 6,7 -0.7,2.9 -5,6 0,11"
       id="path22" />
    <polyline
       fill="none"
       stroke="#000"
       stroke-linecap="round"
       stroke-miterlimit="10"
       stroke-width="2"
       points="32.55 46 32.55 59.38 32.55 67"
       id="polyline24" />
    <polyline
       fill="none"
       stroke="#000"
       stroke-linecap="round"
       stroke-miterlimit="10"
       stroke-width="2"
       points="37.55 45 37.55 59.02 37.55 67"
       id="polyline26" />
    <path
       fill="none"
       stroke="#000"
       stroke-linecap="round"
       stroke-linejoin="round"
       stroke-width="2"
       d="m 29.55,25 c -0.2,2.269 0.3851,3.392 1,4 1.432,1.416 3.389,0.3868 5,2 1.149,1.15 0.8128,2.332 2,3 a 3.718,3.718 0 0 0 3,0"
       id="path28" />
    <line
       x1="15.55"
       x2="15.55"
       y1="48"
       y2="52"
       fill="none"
       stroke="#000"
       stroke-linecap="round"
       stroke-linejoin="round"
       stroke-width="2"
       id="line30" />
  </g>
</g></svg>