<svg xmlns="http://www.w3.org/2000/svg" width="24" height="24" viewBox="0 0 24 24"> <g transform="translate(2.4667958753877652 0.0) scale(0.4750999897417994)">
  
  <g
     id="line"
     transform="translate(-15.80152,-8.3812188)">
    <line
       x1="24.650801"
       x2="28.139799"
       y1="45.472099"
       y2="58.8969"
       fill="none"
       id="line2" />
    <path
       d="m 54.8066,58.8877 c -0.0507,0 -0.1015,-0.0029 -0.1523,-0.0107 -0.5459,-0.084 -0.9209,-0.5938 -0.8379,-1.1387 0.0088,-0.0576 0.8272,-5.7412 -2.1289,-9.1778 -1.4756,-1.7148 -3.6895,-2.6123 -6.5859,-2.6689 -3.3096,2.1846 -6.0274,3.5449 -9.126,3.5879 -0.0215,0.0019 -0.044,10e-4 -0.0645,10e-4 -0.0078,0 -0.0136,0 -0.0215,0 h -0.0458 c -0.0137,-10e-4 -0.0274,0 -0.0411,0 -0.0146,0 -0.0293,0 -0.0439,-10e-4 -3.1006,-0.043 -5.8174,-1.4033 -9.126,-3.5879 -2.8965,0.0566 -5.1103,0.9541 -6.5859,2.6689 -2.9561,3.4366 -2.1377,9.1202 -2.1289,9.1778 0.083,0.5449 -0.292,1.0547 -0.8379,1.1387 -0.5352,0.083 -1.0547,-0.2901 -1.1387,-0.836 -0.041,-0.2695 -0.9726,-6.6328 2.5811,-10.7754 1.9228,-2.2412 4.7509,-3.3769 8.4072,-3.3769 0.1973,0 0.3906,0.0586 0.5547,0.1679 3.1523,2.1016 5.6592,3.4092 8.3828,3.4239 2.7226,-0.0137 5.2295,-1.3213 8.3828,-3.4239 0.1641,-0.1093 0.3574,-0.1679 0.5547,-0.1679 3.6562,0 6.4844,1.1357 8.4072,3.3769 3.5537,4.1426 2.6221,10.5059 2.5811,10.7754 -0.0762,0.4942 -0.502,0.8467 -0.9864,0.8467 z"
       id="path4" />
    <path
       d="m 33.7656,58.8887 c -0.333,0 -0.6582,-0.166 -0.8476,-0.4688 -1.8311,-2.916 -4.5157,-7.5635 -6.9073,-13.1367 -0.2177,-0.5078 0.0176,-1.0957 0.5245,-1.3135 0.5068,-0.2197 1.0957,0.0166 1.3134,0.5244 2.3409,5.4551 4.9698,10.0059 6.7627,12.8633 0.294,0.4678 0.1524,1.085 -0.3154,1.378 -0.165,0.1035 -0.3486,0.1533 -0.5303,0.1533 z"
       id="path6" />
    <path
       d="m 38.2129,58.8887 c -0.1816,0 -0.3652,-0.0498 -0.5303,-0.1533 -0.4678,-0.293 -0.6094,-0.9102 -0.3154,-1.378 1.793,-2.8574 4.4219,-7.4082 6.7627,-12.8633 0.2168,-0.5078 0.8066,-0.7431 1.3135,-0.5244 0.5068,0.2178 0.7421,0.8057 0.5244,1.3135 -2.3916,5.5732 -5.0762,10.2207 -6.9073,13.1367 -0.1894,0.3028 -0.5146,0.4688 -0.8476,0.4688 z"
       id="path8" />
    <path
       d="m 22.6045,58.8887 c -0.5527,0 -1,-0.4473 -1,-1 V 45.6152 c 0,-0.5527 0.4473,-1 1,-1 0.5527,0 1,0.4473 1,1 v 12.2735 c 0,0.5527 -0.4473,1 -1,1 z"
       id="path10" />
    <path
       d="m 49.1455,58.8887 c -0.5527,0 -1,-0.4473 -1,-1 V 45.6152 c 0,-0.5527 0.4473,-1 1,-1 0.5527,0 1,0.4473 1,1 v 12.2735 c 0,0.5527 -0.4473,1 -1,1 z"
       id="path12" />
    <path
       d="m 39.9869,25.0321 c 1.11,0 2,0.9 2,2 0,1.11 -0.89,2 -2,2 -1.1,0 -2,-0.89 -2,-2 0,-1.1 0.9,-2 2,-2 z"
       id="path14" />
    <path
       d="m 39.8869,34.8421 c 0.24,0.49 0.04,1.09 -0.45,1.34 -1.14,0.57 -2.3,0.86 -3.45,0.86 -1.15,0 -2.3,-0.29 -3.44,-0.86 -0.5,-0.25 -0.7,-0.85 -0.45,-1.34 0.24,-0.5 0.84,-0.7 1.34,-0.45 1.72,0.86 3.39,0.86 5.11,0 0.49,-0.25 1.09,-0.05 1.34,0.45 z"
       id="path16" />
    <path
       d="m 31.9869,25.0321 c 1.11,0 2,0.9 2,2 0,1.11 -0.89,2 -2,2 -1.1,0 -2,-0.89 -2,-2 0,-1.1 0.9,-2 2,-2 z"
       id="path18" />
    <path
       fill="none"
       stroke="#000"
       stroke-miterlimit="10"
       stroke-width="2"
       d="m 26.3269,20.9921 c -0.47,0.95 -0.85,1.98 -1.13,3.07 -0.36,1.36 -0.55,2.82 -0.55,4.33 0,7.83 5.08,14.18 11.34,14.18 6.26,0 11.34,-6.35 11.34,-14.18 0,-1.15 -0.11,-2.28 -0.32,-3.36 -0.06,-0.33 -0.14,-0.66 -0.22,-0.98 -0.28,-1.08 -0.66,-2.11 -1.13,-3.06"
       id="path20" />
    <path
       fill="none"
       stroke="#000"
       stroke-linecap="round"
       stroke-linejoin="round"
       stroke-miterlimit="10"
       stroke-width="2"
       d="m 26.3269,20.9921 c -0.59,0.17 -1.12,0.35 -1.59,0.53 -1.74,0.64 -2.65,1.22 -2.65,1.22"
       id="path22" />
    <line
       x1="26.3269"
       x2="26.3269"
       y1="20.9821"
       y2="20.9921"
       fill="none"
       stroke="#000"
       stroke-miterlimit="10"
       stroke-width="2"
       id="line24" />
    <path
       fill="none"
       stroke="#000"
       stroke-linecap="round"
       stroke-linejoin="round"
       stroke-miterlimit="10"
       stroke-width="2"
       d="m 49.8869,22.7421 c 0,0 -1.03,-0.66 -3,-1.36 -0.38,-0.13 -0.79,-0.26 -1.23,-0.39 -2.11,-0.62 -4.99,-1.16 -8.56,-1.16 -0.34,0 -0.68,0.01 -1.03,0.02 h -0.16 c -0.03,0 -0.06,-0.01 -0.08,0 -4.02,-0.11 -7.21,0.47 -9.5,1.13"
       id="path26" />
    <path
       fill="none"
       stroke="#000"
       stroke-linecap="round"
       stroke-linejoin="round"
       stroke-miterlimit="10"
       stroke-width="2"
       d="m 40.0469,11.3021 v -0.08 c -0.63,-2.07 -6.41,-2.81 -8,0 l -0.06,6.04 h 5.11 2.89 z"
       id="path28" />
    <path
       fill="none"
       stroke="#000"
       stroke-miterlimit="10"
       stroke-width="2"
       d="m 24.6469,21.2821 c 0,0 0.05,-9.2 7.4,-10.06"
       id="path30" />
    <path
       fill="none"
       stroke="#000"
       stroke-miterlimit="10"
       stroke-width="2"
       d="m 46.9269,21.2821 c 0,0 -0.04,-8.77 -6.88,-9.98 -0.16,-0.03 -0.34,-0.06 -0.51,-0.08"
       id="path32" />
    <path
       fill="none"
       stroke="#000"
       stroke-linecap="round"
       stroke-miterlimit="10"
       stroke-width="2"
       d="m 36.0669,19.8521 c 0,0 -0.04,0.04 -0.12,0.11 -0.92,0.79 -6.87,5.73 -10.22,4.31 l -0.53,-0.21 h -0.01"
       id="path34" />
    <path
       fill="none"
       stroke="#000"
       stroke-linecap="round"
       stroke-miterlimit="10"
       stroke-width="2"
       d="m 35.8269,19.8521 c 0,0 0.04,0.04 0.12,0.11 0.92,0.79 6.87,5.73 10.22,4.31 l 0.62,-0.22"
       id="path36" />
  </g>
</g></svg>