<svg xmlns="http://www.w3.org/2000/svg" width="24" height="24" viewBox="0 0 24 24"> <g transform="translate(0.0 0.9250238096893941) scale(0.4610743901647607)">
  
  <g
     id="line"
     transform="translate(-10.005755,-13.294675)">
    <path
       fill="none"
       stroke="#000"
       stroke-linecap="round"
       stroke-linejoin="round"
       stroke-width="2"
       d="M 24.1867,45.6932 36,60.3346 55.3772,36.3185"
       id="path2" />
    <path
       fill="none"
       stroke="#000"
       stroke-linecap="round"
       stroke-linejoin="round"
       stroke-width="2"
       d="M 50.4664,14.7825 A 12.0418,12.0418 0 0 0 47,14.2949 a 12.4967,12.4967 0 0 0 -11,6.56 12.4967,12.4967 0 0 0 -11,-6.56 c -5.5829,0 -9.99,2.7709 -11.5948,7.8223"
       id="path4" />
    <path
       fill="none"
       stroke="#000"
       stroke-linecap="round"
       stroke-linejoin="round"
       stroke-width="2.0663"
       d="m 42.6684,33.9469 15.558,-1.49 a 1.8478,1.8478 0 0 0 1.4954,-1.0348 12.401,12.401 0 0 0 1.2682,-5.1669"
       id="path6" />
    <path
       fill="none"
       stroke="#000"
       stroke-linecap="round"
       stroke-linejoin="round"
       stroke-width="2.0663"
       d="m 40.7119,22.5107 -28.21,3.6566 a 1.6733,1.6733 0 0 0 -1.4557,1.8172 12.9444,12.9444 0 0 0 2.5145,6.6049"
       id="path8" />
    <path
       fill="none"
       stroke="#000"
       stroke-linecap="round"
       stroke-linejoin="round"
       stroke-width="2.1659"
       d="M 15.1573,33.8793 54.9785,16.1638 a 1.8515,1.8515 0 0 1 2.0635,0.3731 13.2091,13.2091 0 0 1 3.93,8.3708 1.8725,1.8725 0 0 1 -1.1506,1.8378 l -38.21,16.0416 a 1.864,1.864 0 0 1 -2.2,-0.583 L 14.625,35.9748 a 1.3759,1.3759 0 0 1 0.5323,-2.0955 z"
       id="path10" />
  </g>
</g></svg>