<svg xmlns="http://www.w3.org/2000/svg" width="24" height="24" viewBox="0 0 24 24"> <g transform="translate(0.0 2.939236334152815) scale(0.39278070375762497)">
  
  <g
     id="line"
     transform="translate(-3.7665,-10.5348)">
    <path
       fill="none"
       stroke="#000"
       stroke-linecap="round"
       stroke-linejoin="round"
       stroke-width="2"
       d="m 4.7665,40.9908 c 2.86,0 8.5794,2.86 14.2991,2.86 5.7197,0 9.5327,-2.86 15.2523,-2.86 5.7196,0 10.486,2.86 15.2523,2.86 4.7663,0 6.6729,-2.86 14.2991,-2.86"
       id="path2" />
    <path
       fill="none"
       stroke="#000"
       stroke-linecap="round"
       stroke-linejoin="round"
       stroke-width="2"
       d="m 43.8506,48.617 a 19.97,19.97 0 0 0 5.72,0.9533 c 2.5739,0 4.3851,-0.858 6.6729,-1.6206"
       id="path4" />
    <path
       fill="none"
       stroke="#000"
       stroke-linecap="round"
       stroke-linejoin="round"
       stroke-width="2"
       d="m 12.202,48.5217 a 26.5093,26.5093 0 0 0 6.8636,1.0483 c 5.72,0 9.5327,-2.86 15.2523,-2.86"
       id="path6" />
    <path
       fill="none"
       stroke="#000"
       stroke-linecap="round"
       stroke-linejoin="round"
       stroke-width="2"
       d="m 24.7852,55.29 c 3.05,-0.858 5.91,-2.0019 9.5327,-2.0019 4.1944,0 7.9121,1.5252 11.4392,2.3832"
       id="path8" />
    <circle
       cx="14.2992"
       cy="14.3946"
       r="2.8598001"
       fill="none"
       stroke="#000"
       stroke-miterlimit="10"
       stroke-width="2"
       id="circle10" />
    <circle
       cx="33.3643"
       cy="19.1609"
       r="3"
       fill="none"
       stroke="#000"
       stroke-miterlimit="10"
       stroke-width="2"
       id="circle12" />
    <path
       fill="none"
       stroke="#000"
       stroke-linecap="round"
       stroke-linejoin="round"
       stroke-width="2"
       d="m 28.598,40.9908 v -6.6729 a 11.7319,11.7319 0 0 0 -0.4766,-3.3364 c -0.286,-0.7627 -0.4767,-1.43 -0.4767,-1.43"
       id="path14" />
    <path
       fill="none"
       stroke="#000"
       stroke-linecap="round"
       stroke-linejoin="round"
       stroke-width="2"
       d="M 40.0372,33.3646 39.084,40.9908"
       id="path16" />
    <path
       fill="none"
       stroke="#000"
       stroke-linecap="round"
       stroke-linejoin="round"
       stroke-width="2"
       d="m 17.0634,15.2525 2.3832,6.7682 a 4.1985,4.1985 0 0 0 2.4785,2.2879 l 3.9084,0.9532 a 16.7367,16.7367 0 0 0 3.7178,0.572 l 8.5794,0.6673 a 6.0306,6.0306 0 0 1 3.2411,1.5252 l 0.1907,0.1907 a 11.0071,11.0071 0 0 1 2.0018,3.1458 L 44.327,33.46 c 0.3813,0.9532 0.9532,2.5738 1.3345,3.5271 l 2.7645,6.3869"
       id="path18" />
    <path
       fill="none"
       stroke="#000"
       stroke-linecap="round"
       stroke-linejoin="round"
       stroke-width="2"
       d="m 37.395,18.4363 c 0,0 0.6362,-0.1686 0.936,0.186 0.3531,0.4163 0.4056,1.7478 0.7962,2.39 a 3.3624,3.3624 0 0 0 1.6458,1.417"
       id="path20" />
  </g>
</g></svg>