<svg xmlns="http://www.w3.org/2000/svg" width="24" height="24" viewBox="0 0 24 24"> <g transform="translate(0.0 5.111963387508366) scale(0.36088486804335024)">
  
  <g
     id="line"
     transform="translate(-2.8105473,-17.338144)">
    <path
       fill="none"
       stroke="#000"
       stroke-linecap="round"
       stroke-linejoin="round"
       stroke-miterlimit="10"
       stroke-width="2"
       d="m 61.6211,44.0459 4.2325,-0.5819 c 1.5519,-0.2134 2.6471,-1.6577 2.4338,-3.2096 L 66.9297,30.3785 C 66.7163,28.8266 65.272,27.7314 63.7201,27.9447 l -4.2325,0.5819"
       id="path2" />
    <polyline
       fill="none"
       stroke="#000"
       stroke-linecap="round"
       stroke-linejoin="round"
       stroke-miterlimit="10"
       stroke-width="2"
       points="50.9884,25.7699 58.329,24.7607 61.8949,50.6989 41.438,53.5112 39.463,39.1453"
       id="polyline4" />
    <path
       fill="none"
       stroke="#000"
       stroke-linecap="round"
       stroke-linejoin="round"
       stroke-miterlimit="10"
       stroke-width="2"
       d="m 36.1305,31.4272 0.1105,0.8085 c 0.1063,0.7775 0.7919,1.3319 1.5236,1.2319 l 0.6652,-0.0909 c 0.144,-0.0197 0.2796,-0.0633 0.4035,-0.1267"
       id="path6" />
    <path
       fill="none"
       stroke="#000"
       stroke-linecap="round"
       stroke-linejoin="round"
       stroke-miterlimit="10"
       stroke-width="2"
       d="m 38.8333,33.25 c 0.5057,-0.2584 0.8189,-0.8444 0.7336,-1.4689 L 39.4127,30.653 c 0.439,0.2071 0.9283,0.3023 1.4332,0.2333 l 1.3084,-0.1788 c 0.8481,-0.1159 1.5384,-0.6531 1.9362,-1.3814 0.8731,0.9888 2.1616,1.5414 3.5039,1.358 2.1952,-0.3 3.7303,-2.454 3.4115,-4.7866 l 7.705,-1.0531 c 0.0872,-0.4627 0.1068,-0.9492 0.0389,-1.4454 -0.3202,-2.3425 -2.3664,-3.9969 -4.5708,-3.6956 -0.92,0.1257 -1.7192,0.5748 -2.3177,1.2226 -0.8493,-1.2758 -2.3157,-2.0295 -3.8622,-1.8181 -0.5648,0.0772 -1.0837,0.2763 -1.5399,0.5676 -0.9375,-0.9642 -2.26,-1.4884 -3.6423,-1.2995 -2.0787,0.2841 -3.5999,2.0797 -3.731,4.2139 -0.2539,-0.0279 -0.5121,-0.0337 -0.7749,0.0022 -1.1479,0.1569 -2.0756,0.9134 -2.5449,1.9353"
       id="path8" />
    <path
       fill="none"
       stroke="#000"
       stroke-linecap="round"
       stroke-linejoin="round"
       stroke-miterlimit="10"
       stroke-width="2"
       d="M 10.5032,45.0459 6.2707,44.464 C 4.7188,44.2506 3.6236,42.8063 3.8369,41.2544 L 5.1946,31.3785 C 5.408,29.8266 6.8523,28.7314 8.4042,28.9447 l 4.2325,0.5819"
       id="path10" />
    <polyline
       fill="none"
       stroke="#000"
       stroke-linecap="round"
       stroke-linejoin="round"
       stroke-miterlimit="10"
       stroke-width="2"
       points="21.136,26.7699 13.7953,25.7607 10.2294,51.6989 30.6863,54.5112 32.6613,40.1453"
       id="polyline12" />
    <path
       fill="none"
       stroke="#000"
       stroke-linecap="round"
       stroke-linejoin="round"
       stroke-miterlimit="10"
       stroke-width="2"
       d="m 33.291,34.25 c -0.5057,-0.2584 -0.8189,-0.8444 -0.7336,-1.4688 l 0.1542,-1.1281 c -0.439,0.2071 -0.9283,0.3023 -1.4332,0.2333 L 29.97,31.7076 c -0.8481,-0.1159 -1.5384,-0.6531 -1.9362,-1.3814 -0.8731,0.9888 -2.1616,1.5414 -3.5039,1.358 -2.1952,-0.3 -3.7303,-2.454 -3.4115,-4.7866 l -7.705,-1.0531 c -0.0872,-0.4627 -0.1068,-0.9492 -0.0389,-1.4454 0.3202,-2.3425 2.3664,-3.9969 4.5708,-3.6956 0.92,0.1257 1.7192,0.5748 2.3177,1.2226 0.8493,-1.2758 2.3157,-2.0295 3.8622,-1.8181 0.5648,0.0772 1.0837,0.2763 1.5399,0.5676 0.9375,-0.9642 2.26,-1.4884 3.6423,-1.2995 2.0787,0.2841 3.5999,2.0797 3.731,4.2139 0.2539,-0.0279 0.5121,-0.0337 0.7749,0.0022 1.8366,0.251 3.1097,2.0372 2.8429,3.9888 l -0.7729,5.6548 c -0.1063,0.7775 -0.7919,1.3319 -1.5236,1.2319 L 33.6945,34.3768 C 33.5505,34.357 33.415,34.3134 33.291,34.25"
       id="path14" />
  </g>
</g></svg>