<svg xmlns="http://www.w3.org/2000/svg" width="24" height="24" viewBox="0 0 24 24"> <g transform="translate(4.691760727272728 0.0) scale(0.36363636363636365)">
  
  <g
     id="line"
     transform="translate(-15.904685,-3)">
    <circle
       cx="36"
       cy="27.25"
       r="3"
       id="circle2" />
    <path
       fill="none"
       stroke="#000"
       stroke-linecap="round"
       stroke-linejoin="round"
       stroke-miterlimit="10"
       stroke-width="2"
       d="m 35.6964,46 c -1.7512,1.9458 -4.0751,2.277 -5.7064,2.2156 -1.3131,-0.0494 -2.6027,-0.445 -3.646,-1.244 -0.9642,-0.7385 -1.8491,-1.9067 -0.6881,-3.1591 2.7753,-3.0819 -0.5,-3.4375 -0.5,-3.4375 0,0 -7.9375,-0.5625 -3.5625,-5.375 2.5981,-2.8579 4.0883,-6.126 4.9203,-8.6047 0.8098,-2.4127 0.6517,-5.0381 -0.405,-7.3533 C 23.9988,14.4192 21.0573,10.397 17.3722,6.85 16.4493,5.9616 16.956,4.419 18.227,4.2595 19.5833,4.0893 20.9654,4 22.3692,4 40.4459,4 55.1,18.3269 55.1,36 c 0,17.6731 -14.6541,32 -32.7309,32 -1.2874,0 -2.5566,-0.0751 -3.8043,-0.2188 -1.3842,-0.1595 -1.8611,-1.9482 -0.7056,-2.7269 7,-4.717 9.3849,-9.4177 9.7967,-13.5995 M 25.829,46.515 c -3.2644,2.8612 1.8269,4.9398 1.8269,4.9398"
       id="path4" />
    <path
       fill="none"
       stroke="#000"
       stroke-linecap="round"
       stroke-linejoin="round"
       stroke-miterlimit="10"
       stroke-width="2"
       d="m 31.2188,19.875 c 0,0 4.7812,-3 9.5625,1.9062"
       id="path6" />
  </g>
</g></svg>