<svg xmlns="http://www.w3.org/2000/svg" width="24" height="24" viewBox="0 0 24 24"> <g transform="translate(0.0 2.2186566020823157) scale(0.3762055153045263)">
  
  <g
     id="line"
     transform="translate(-4.2050403,-10)">
    <path
       fill="none"
       stroke="#000"
       stroke-linecap="round"
       stroke-linejoin="round"
       stroke-miterlimit="10"
       stroke-width="2"
       d="m 20.7713,30.421 -3.7092,4.0991 c 0.6829,-7.7072 5.6421,-14.3554 12.9628,-17.0134 2.1314,-0.774 4.3519,-1.1663 6.5997,-1.1663 5.4828,0 10.7603,2.375 14.4775,6.5161 l 0.61,0.6795 3.8565,-3.6084 -0.61,-0.6795 C 50.2532,14.0063 43.5725,11 36.6282,11 33.781,11 30.9691,11.4963 28.2726,12.4755 19.0651,15.819 12.7121,24.3037 11.8404,34.059 L 8.549,30.421 5.205,33.5375 14.6596,43.9877 24.1133,33.5384 Z"
       id="path2" />
    <path
       fill="none"
       stroke="#000"
       stroke-linecap="round"
       stroke-linejoin="round"
       stroke-miterlimit="10"
       stroke-width="2"
       d="m 67,38.3473 -9.4546,-10.4502 -9.4537,10.4493 3.3421,3.1174 3.6932,-4.0815 c -0.6491,7.749 -5.6209,14.4422 -12.9728,17.1119 -2.1306,0.7731 -4.3501,1.1654 -6.5997,1.1654 -5.4828,0 -10.7603,-2.375 -14.4775,-6.5157 l -0.61,-0.6795 -3.8565,3.6079 0.61,0.6795 C 21.925,57.9933 28.6066,61 35.5509,61 38.399,61 41.21,60.5032 43.9065,59.525 53.1546,56.1676 59.5259,47.6225 60.3528,37.8128 l 3.3032,3.6511 z"
       id="path4" />
  </g>
</g></svg>