<svg xmlns="http://www.w3.org/2000/svg" width="24" height="24" viewBox="0 0 24 24"> <g transform="translate(0.0 2.1220497054648764) scale(0.4710253930378169)">
  
  <g
     id="line"
     transform="translate(-9.5218254,-15.043433)">
    <path
       fill="none"
       stroke="#000"
       stroke-linecap="round"
       stroke-linejoin="round"
       stroke-miterlimit="10"
       stroke-width="2"
       d="m 58.0417,16.6667 c 0,0 -2.5833,2.0833 -6.2083,2.4583 0,0 -5.7083,-6.375 -13.875,-0.8333 -3.6667,2.5833 -4,8.0417 -3.375,10 0,0 -11.0833,0.875 -20.75,-10.4583 0,0 -4.3333,7.5 2.8333,13.5 0,0 -2.1182,0.3333 -4.1317,-1.3333 0,0 -0.9517,7.75 7.715,9.9167 0,0 -0.5833,1 -4.0833,0 0,0 0.5833,6.3333 8.8333,7.25 0,0 -4.4569,4.5833 -14.4784,4 0,0 16.5618,12.4167 34.4784,-2.5833 10,-8.5 9.6667,-20.75 9.5,-22.5833 0,0 3.9491,-3 4.9746,-4.9167 0,0 -3.0579,1 -5.5579,1 0,-2e-4 3.3333,-1.7502 4.125,-5.4168 z"
       id="path2" />
  </g>
</g></svg>