<svg xmlns="http://www.w3.org/2000/svg" width="24" height="24" viewBox="0 0 24 24"> <g transform="translate(0.0 1.757128365769029) scale(0.38647344239850057)">
  
  <g
     id="line"
     transform="translate(-5,-7.9931431)">
    <path
       fill="none"
       stroke="#000"
       stroke-miterlimit="10"
       stroke-width="2"
       d="m 60.6,35.6 c 0,0.4 0,0.8 0,1.2 0,6.2 -3.9,11.3 -8.7,11.3 -4.8,0 -8.7,-5.1 -8.7,-11.3 0,-0.2 0,-0.5 0,-0.7"
       id="path2" />
    <path
       fill="none"
       stroke="#000"
       stroke-linejoin="round"
       stroke-miterlimit="10"
       stroke-width="2"
       d="m 43.2,25.2 c 0,0.3 13.2,-6.8 15.7,1.4 0,0 3.5,1.7 2.8,7.5 -0.1,1 -0.1,3.3 -1.1,4.3 l -2.8,-7.1 c 0,0 -7.4,2.8 -12.4,-0.6 l -2.3,7.5 c 0,0 -0.9,-1.3 -1,-3 0,0 -0.4,-4 0.4,-5.4 0.2,0 1.7,-2.6 0.7,-4.6 z"
       id="path4" />
    <path
       fill="none"
       stroke="#000"
       stroke-linecap="round"
       stroke-linejoin="round"
       stroke-width="2"
       d="m 36,11.7 c 1.1,-2.4 4,-3.4 6.3,-2.2 2.3,1.2 3.3,4 2.2,6.4 -0.1,0.3 -0.3,0.5 -0.4,0.7 L 36,27 27.9,16.6 C 27.7,16.4 27.6,16.1 27.5,15.9 26.4,13.5 27.4,10.7 29.7,9.5 32,8.3 34.9,9.3 36,11.7 Z"
       id="path6" />
    <path
       fill="none"
       stroke="#000"
       stroke-miterlimit="10"
       stroke-width="2"
       d="m 28.6,36.1 c 0,0.2 0,0.4 0,0.7 0,6.2 -3.9,11.3 -8.7,11.3 -4.8,0 -8.7,-5.1 -8.7,-11.3 0,-0.2 0,-0.4 0,-0.7"
       id="path8" />
    <path
       fill="none"
       stroke="#000"
       stroke-linecap="round"
       stroke-linejoin="round"
       stroke-width="2"
       d="m 9.1,31.4 c 0.6,-8.7 7.2,-8.8 10.5,-8.3 0.3,0.1 1.2,0 1.5,0 6,-0.8 9,6 9,9 0,1.1 0,3.8 -1.5,5.3 0,0 -3.4,-4.2 -3.6,-6.6 0,0 -11.4,4.3 -12.2,0.6 0,0 -0.8,3 -1.5,3.8 0,0 0,2.3 0,3 0,0 -2.5,-3 -2.2,-6.8 z"
       id="path10" />
    <path
       fill="none"
       stroke="#000"
       stroke-linecap="round"
       stroke-linejoin="round"
       stroke-width="2"
       d="M 6,60 V 57.7 C 6,54 9.7,51 13.4,51 c 4.4,3.7 8.8,3.7 13.3,0 3.7,0 7.4,3 7.4,6.7 V 60"
       id="path12" />
    <path
       d="m 24.2,37.4 c 0,0.8 -0.6,1.4 -1.4,1.4 -0.8,0 -1.4,-0.6 -1.4,-1.4 0,-0.8 0.6,-1.4 1.4,-1.4 0.8,0 1.4,0.7 1.4,1.4"
       id="path14" />
    <path
       d="m 18.6,37.4 c 0,0.8 -0.6,1.4 -1.4,1.4 -0.8,0 -1.4,-0.6 -1.4,-1.4 0,-0.8 0.6,-1.4 1.4,-1.4 0.8,0 1.4,0.7 1.4,1.4"
       id="path16" />
    <path
       fill="none"
       stroke="#000"
       stroke-linecap="round"
       stroke-linejoin="round"
       stroke-width="2"
       d="m 17.9,43.2 c 1.3,0.7 2.9,0.7 4.2,0"
       id="path18" />
    <path
       d="m 56.2,37.7 c 0,0.8 -0.6,1.4 -1.4,1.4 -0.8,0 -1.4,-0.6 -1.4,-1.4 0,-0.8 0.6,-1.4 1.4,-1.4 0.8,0 1.4,0.6 1.4,1.4"
       id="path20" />
    <path
       d="m 50.6,37.7 c 0,0.8 -0.6,1.4 -1.4,1.4 -0.8,0 -1.4,-0.6 -1.4,-1.4 0,-0.8 0.6,-1.4 1.4,-1.4 0.8,0 1.4,0.6 1.4,1.4"
       id="path22" />
    <path
       fill="none"
       stroke="#000"
       stroke-linecap="round"
       stroke-linejoin="round"
       stroke-width="2"
       d="m 49.9,43.4 c 1.3,0.7 2.9,0.7 4.2,0"
       id="path24" />
    <path
       fill="none"
       stroke="#000"
       stroke-linecap="round"
       stroke-linejoin="round"
       stroke-width="2"
       d="M 38,60 V 57.7 C 38,54 41.7,51 45.4,51 c 4.4,3.7 8.8,3.7 13.3,0 3.7,0 7.4,3 7.4,6.7 V 60"
       id="path26" />
  </g>
</g></svg>