<svg xmlns="http://www.w3.org/2000/svg" width="24" height="24" viewBox="0 0 24 24"> <g transform="translate(2.1114727469065 0.0) scale(0.40670681913630824)">
  
  <g
     id="line"
     transform="translate(-11.7486,-7.9118351)">
    <path
       fill="none"
       stroke="#000"
       stroke-linecap="round"
       stroke-linejoin="round"
       stroke-miterlimit="10"
       stroke-width="2"
       d="M 55.7803,11.2616 C 51.51,31.1894 38.4049,24.395 36.6244,20.8907 34.844,17.3864 36.5642,3.4328 55.7803,11.2616 Z"
       id="path2" />
    <path
       fill="none"
       stroke="#000"
       stroke-linecap="round"
       stroke-linejoin="round"
       stroke-miterlimit="10"
       stroke-width="2"
       d="m 45.5723,15.2944 c -3.1311,1.2014 -7.1389,3.1342 -8.9149,5.6542"
       id="path4" />
    <path
       fill="none"
       stroke="#000"
       stroke-linecap="round"
       stroke-linejoin="round"
       stroke-miterlimit="10"
       stroke-width="2"
       d="M 16.344,11.2616 C 20.6143,31.1894 33.7194,24.395 35.4998,20.8907 37.2803,17.3864 35.5602,3.4328 16.344,11.2616 Z"
       id="path6" />
    <path
       fill="none"
       stroke="#000"
       stroke-linecap="round"
       stroke-linejoin="round"
       stroke-miterlimit="10"
       stroke-width="2"
       d="m 26.5521,15.2944 c 3.1311,1.2014 7.1389,3.1342 8.9149,5.6542"
       id="path8" />
    <path
       fill="none"
       stroke="#000"
       stroke-linecap="round"
       stroke-linejoin="round"
       stroke-miterlimit="10"
       stroke-width="2"
       d="m 19.9502,25.5384 c 0,0 -2.5794,1.5485 -3.1555,4.0953 -0.5761,2.5468 5e-4,5.3368 5e-4,5.3368 0,0 -4.0466,1.6684 -4.0466,6.9178 0,5.2494 3.4132,6.7328 3.4132,6.7328 0,0 0.0403,6.1949 3.859,9.5361 3.8187,3.3412 7.8262,3.3565 7.8262,3.3565 0,0 2.0841,4.4087 8.2153,4.4087 6.1312,0 8.2153,-4.4087 8.2153,-4.4087 0,0 4.1496,-0.606 7.8262,-3.3565 3.6766,-2.7504 3.5755,-9.5361 3.5755,-9.5361 0,0 3.6966,-1.4834 3.6966,-6.7328 0,-5.2494 -4.0466,-6.9178 -4.0466,-6.9178 0,0 0.5766,-2.7901 5e-4,-5.3368 -0.5761,-2.5467 -3.1555,-4.0953 -3.1555,-4.0953"
       id="path10" />
    <path
       fill="none"
       stroke="#000"
       stroke-linecap="round"
       stroke-linejoin="round"
       stroke-miterlimit="10"
       stroke-width="2"
       d="m 42.243,29.4751 c 0,0 -2.6163,2.7671 -5.8436,2.7671"
       id="path12" />
    <path
       fill="none"
       stroke="#000"
       stroke-linecap="round"
       stroke-linejoin="round"
       stroke-miterlimit="10"
       stroke-width="2"
       d="m 30.3319,29.4751 c 0,0 2.6163,2.7671 5.8436,2.7671"
       id="path14" />
    <path
       fill="none"
       stroke="#000"
       stroke-linecap="round"
       stroke-linejoin="round"
       stroke-miterlimit="10"
       stroke-width="2"
       d="m 50.0623,39.5238 c 0,2.8921 -2.4819,5.2365 -5.5436,5.2365"
       id="path16" />
    <path
       fill="none"
       stroke="#000"
       stroke-linecap="round"
       stroke-linejoin="round"
       stroke-miterlimit="10"
       stroke-width="2"
       d="m 38.7628,39.5238 c 0,2.8921 2.4819,5.2365 5.5436,5.2365"
       id="path18" />
    <path
       fill="none"
       stroke="#000"
       stroke-linecap="round"
       stroke-linejoin="round"
       stroke-miterlimit="10"
       stroke-width="2"
       d="m 33.8827,39.5238 c 0,2.8921 -2.4819,5.2365 -5.5436,5.2365"
       id="path20" />
    <path
       fill="none"
       stroke="#000"
       stroke-linecap="round"
       stroke-linejoin="round"
       stroke-miterlimit="10"
       stroke-width="2"
       d="m 22.5831,39.5238 c 0,2.8921 2.4819,5.2365 5.5436,5.2365"
       id="path22" />
    <path
       fill="none"
       stroke="#000"
       stroke-linecap="round"
       stroke-linejoin="round"
       stroke-miterlimit="10"
       stroke-width="2"
       d="m 41.9049,53.8616 c -1.0434,1.389 -3.1599,2.3393 -5.6011,2.3393"
       id="path24" />
    <path
       fill="none"
       stroke="#000"
       stroke-linecap="round"
       stroke-linejoin="round"
       stroke-miterlimit="10"
       stroke-width="2"
       d="m 30.3414,53.6923 c 0.9945,1.4804 3.1823,2.5085 5.7214,2.5085"
       id="path26" />
    <path
       fill="none"
       stroke="#000"
       stroke-linecap="round"
       stroke-linejoin="round"
       stroke-miterlimit="10"
       stroke-width="2"
       d="m 30.2894,54.05 c 0,1.2407 -0.7684,2.3588 -1.9976,3.1439"
       id="path28" />
    <path
       fill="none"
       stroke="#000"
       stroke-linecap="round"
       stroke-linejoin="round"
       stroke-miterlimit="10"
       stroke-width="2"
       d="m 41.9647,54.05 c 0,1.3528 0.9134,2.5597 2.3417,3.3483"
       id="path30" />
    <path
       fill="none"
       stroke="#000"
       stroke-linecap="round"
       stroke-linejoin="round"
       stroke-miterlimit="10"
       stroke-width="2"
       d="m 23.4111,42.6717 c 0,2.3661 -1.6613,4.3657 -3.9422,5.0147"
       id="path32" />
    <path
       fill="none"
       stroke="#000"
       stroke-linecap="round"
       stroke-linejoin="round"
       stroke-miterlimit="10"
       stroke-width="2"
       d="m 25.0119,29.4392 c 0,3.0961 -2.4819,5.6059 -5.5436,5.6059"
       id="path34" />
    <path
       fill="none"
       stroke="#000"
       stroke-linecap="round"
       stroke-linejoin="round"
       stroke-miterlimit="10"
       stroke-width="2"
       d="m 46.3732,29.4392 c 0,3.0961 2.4819,5.6059 5.5436,5.6059"
       id="path36" />
    <path
       fill="none"
       stroke="#000"
       stroke-linecap="round"
       stroke-linejoin="round"
       stroke-miterlimit="10"
       stroke-width="2"
       d="m 49.2512,42.6717 c 0,2.26 1.5157,4.1856 3.6392,4.9194"
       id="path38" />
  </g>
</g></svg>