<svg xmlns="http://www.w3.org/2000/svg" width="24" height="24" viewBox="0 0 24 24"> <g transform="translate(0.5203513747379613 0.0) scale(0.5739838518731353)">
  
  <g
     id="line"
     transform="translate(-16.0968,-15.0967)">
    <path
       fill="none"
       stroke="#000"
       stroke-linejoin="round"
       stroke-miterlimit="10"
       stroke-width="2"
       d="m 52.6119,16.3937 c -0.4848,-0.1782 -1.0303,-0.297 -1.5758,-0.297 -0.8485,0 -1.697,0.297 -2.4242,0.7722 l -30,15.9793 -0.303,0.297 c -0.7879,0.7722 -1.2121,1.7227 -1.2121,2.7919 0,1.0692 0.4242,2.0791 1.2121,2.7919 l 0.303,0.297 30,16.0981 c 1.0909,0.8316 2.6667,1.0098 4,0.4752 1.5152,-0.594 2.4848,-2.0791 2.4848,-3.683 V 20.0767 c 0,-1.6039 -0.9697,-3.0889 -2.4848,-3.683 z"
       id="path2" />
  </g>
</g></svg>