<svg xmlns="http://www.w3.org/2000/svg" width="24" height="24" viewBox="0 0 24 24"> <g transform="translate(0.0 1.182055070933524) scale(0.4503757513041615)">
  
  <g
     id="line"
     transform="translate(-11.5,-11.5)">
    <path
       fill="none"
       stroke="#000"
       stroke-miterlimit="10"
       stroke-width="2"
       d="m 49.8349,36.7943 c 6.8388,2.1218 8.5475,7.3849 11.9167,2.9132 3.4589,-4.591 2.0652,-13.1305 -0.8826,-14.798 -0.3288,-0.186 -0.6769,-0.2865 -1.0397,-0.2865 -1.3081,0 -3.069,0.5698 -4.8473,1.4479 h -10e-5 c -2.1988,1.0857 -4.4243,2.6428 -5.8537,4.177"
       id="path2" />
    <path
       fill="none"
       stroke="#000"
       stroke-linecap="round"
       stroke-linejoin="round"
       stroke-miterlimit="10"
       stroke-width="2"
       d="m 44.2245,36.7942 c -0.7336,0.2654 -1.3985,0.5799 -2.0064,0.9181 -1.3036,1.734 -3.6129,5.2131 -6.0849,10.7513 -0.197,0.4413 0.1046,0.9701 0.5041,0.8828 l 2.8449,-0.622 c 0.4127,-0.0902 0.8258,0.1557 1.0284,0.6122 l 1.2813,2.8876 c 0.2242,0.5053 0.8301,0.4045 0.9396,-0.1564 0.5556,-2.8469 1.8298,-8.9941 3.3739,-13.1395 -0.9105,-0.1938 -1.6445,-1.0381 -1.8809,-2.1341 z"
       id="path4" />
    <path
       fill="none"
       stroke="#000"
       stroke-linecap="round"
       stroke-linejoin="round"
       stroke-miterlimit="10"
       stroke-width="2"
       d="m 51.8665,37.7461 c -0.627,-0.3591 -1.3017,-0.6873 -2.0316,-0.9518 -0.2364,1.096 -0.9705,1.9404 -1.881,2.134 1.5442,4.1454 2.8184,10.2926 3.374,13.1395 0.1095,0.5609 0.7154,0.6617 0.9396,0.1564 l 1.2814,-2.8876 c 0.2026,-0.4564 0.6157,-0.7024 1.0284,-0.6122 l 2.8449,0.622 c 0.3996,0.0873 0.7011,-0.4415 0.5041,-0.8828 -2.4562,-5.5027 -4.7518,-8.9723 -6.0598,-10.7175 z"
       id="path6" />
    <path
       fill="none"
       stroke="#000"
       stroke-miterlimit="10"
       stroke-width="2"
       d="m 47.4948,28.8121 h -0.9906 c -1.318,0 -2.3902,1.4052 -2.3902,3.1326 v 3.9211 c 0,1.7274 1.0722,3.1327 2.3902,3.1327 h 0.9906 c 1.318,0 2.3902,-1.4053 2.3902,-3.1327 v -3.9211 c 0,-1.7274 -1.0722,-3.1326 -2.3902,-3.1326 z"
       id="path8" />
    <path
       fill="none"
       stroke="#000"
       stroke-miterlimit="10"
       stroke-width="2"
       d="m 44.3718,29.8908 c -2.5855,-2.7751 -7.2347,-5.3542 -10.1602,-5.3542 -3.6163,0 -5.767,9.9814 -1.9223,15.0845 3.3692,4.4717 5.0779,-0.7915 11.9167,-2.9132"
       id="path10" />
    <g
       id="line_2_">
      <path
         fill="none"
         stroke="#000"
         stroke-linecap="round"
         stroke-linejoin="round"
         stroke-miterlimit="10"
         stroke-width="2"
         d="M 58.6477,20.4541 C 56.8293,15.7982 52.2998,12.5 47,12.5 42.2467,12.5 38.1139,15.1536 36,19.0598 33.8861,15.1536 29.7533,12.5 25,12.5 c -6.9036,0 -12.5,5.5964 -12.5,12.5 0,2.9699 1.0403,5.6942 2.7703,7.8387 L 15.266,32.8421 36,58.5397 39.1014,54.6959"
         id="path12" />
    </g>
  </g>
</g></svg>