<svg xmlns="http://www.w3.org/2000/svg" width="24" height="24" viewBox="0 0 24 24"> <g transform="scale(0.48)">
  
  <g
     id="line"
     transform="translate(-11,-11)">
    <rect
       x="12"
       y="12"
       width="48"
       height="48"
       fill="none"
       stroke="#000"
       stroke-linecap="round"
       stroke-linejoin="round"
       stroke-width="2"
       id="rect2" />
    <path
       fill="none"
       stroke="#000"
       stroke-linecap="round"
       stroke-linejoin="round"
       stroke-width="3"
       d="M 35.23,44.91 35.355,31.23"
       id="path4" />
    <path
       fill="none"
       stroke="#000"
       stroke-linecap="round"
       stroke-linejoin="round"
       stroke-width="3"
       d="M 26.31,44.91 V 30.88 c -0.1453,-1.558 -0.6264,-3.32 -2.212,-5.754"
       id="path6" />
    <path
       fill="none"
       stroke="#000"
       stroke-linecap="round"
       stroke-linejoin="round"
       stroke-width="3"
       d="m 26.31,31.22 c 0,0 0.766,-6.485 4.523,-6.437 3.757,0.048 4.405,4.103 4.523,6.437 0.1828,-2.264 0.9161,-6.54 4.478,-6.544 3.562,-0.0042 4.31,3.958 4.478,6.544 l 1.15e-4,13.68 c 0.3653,2.829 2.394,5.11 3.829,5.112 3.042,0.4881 3.964,-9.966 1.124,-10.73 -3.348,-0.5788 -5.387,7.691 -7.545,13.16"
       id="path8" />
  </g>
</g></svg>