<svg xmlns="http://www.w3.org/2000/svg" width="24" height="24" viewBox="0 0 24 24"> <g transform="translate(0.00001823936818823313 0.0) scale(0.47998337337594627)">
  
  <g
     id="line"
     transform="translate(-10.9991,-10.9991)">
    <path
       fill="none"
       stroke="#000"
       stroke-miterlimit="10"
       stroke-width="2"
       d="m 58.9991,59.9991 h -46 c -0.5518,-0.0012 -0.9988,-0.4482 -1,-1 v -46 c 0.0012,-0.5518 0.4482,-0.9988 1,-1 h 46 c 0.5518,0.0012 0.9988,0.4482 1,1 v 46 c 0.0314,0.5209 -0.3653,0.9686 -0.8862,1 -0.0378,0.0023 -0.0759,0.0023 -0.1138,0 z"
       id="path2" />
    <g
       id="g10">
      <path
         d="m 26.597,32.8367 c 0.369,0.0954 0.6695,0.3628 0.807,0.7183 0.1132,0.5518 0.6523,0.9074 1.2042,0.7942 C 29.16,34.236 29.5156,33.6969 29.4024,33.145 29.4002,33.1342 29.3978,33.1234 29.3952,33.1127 29.032,31.8239 27.927,30.8816 26.597,30.7266 Z"
         id="path4" />
      <path
         d="m 25.2791,38.9144 c -0.5351,-0.0735 -0.995,-0.4167 -1.2175,-0.9089 -0.1668,-0.5381 -0.7382,-0.8391 -1.2763,-0.6723 -0.5381,0.1668 -0.8391,0.7382 -0.6723,1.2763 0.0041,0.0133 0.0085,0.0264 0.0131,0.0395 0.5084,1.3242 1.7379,2.2341 3.1529,2.3332 v -2.0678 z"
         id="path6" />
      <path
         d="m 25.8939,34.815 c -0.0314,-0.003 -0.0633,-0.004 -0.0956,-0.004 -0.9458,0 -1.5808,-0.5488 -1.5808,-1.0608 0,-0.41 0.4121,-0.84 1.0611,-0.9956 v -2.0617 c -1.6638,0.0753 -3.0022,1.3947 -3.1011,3.0573 0.1193,1.7858 1.6327,3.1557 3.4216,3.0969 0.0313,0.002 0.0632,0.0039 0.0956,0.0039 0.9458,0 1.5813,0.5489 1.5813,1.0609 -0.0463,0.3928 -0.3081,0.7267 -0.6785,0.8654 v 2.1308 c 1.5054,-0.2214 2.6441,-1.4764 2.7185,-2.9962 -0.1193,-1.786 -1.633,-3.1559 -3.4221,-3.0969 z"
         id="path8" />
    </g>
    <g
       id="g18">
      <path
         d="m 45.9691,38.9065 c -0.514,-0.0868 -0.9502,-0.4255 -1.1617,-0.902 -0.1782,-0.5344 -0.756,-0.8232 -1.2905,-0.645 -0.5344,0.1783 -0.8232,0.756 -0.6449,1.2905 0.5005,1.3057 1.7037,2.2101 3.0971,2.328 z"
         id="path12" />
      <path
         d="m 47.2876,32.8139 c 0.3931,0.0879 0.7166,0.3658 0.8628,0.7411 0.1117,0.5521 0.6499,0.9092 1.202,0.7974 0.5521,-0.1117 0.9092,-0.6499 0.7974,-1.202 -0.0026,-0.0126 -0.0053,-0.0252 -0.0084,-0.0377 -0.37,-1.3087 -1.5011,-2.2591 -2.8539,-2.3982 v 2.0994 z"
         id="path14" />
      <path
         d="m 46.6403,34.815 c -0.0314,-0.003 -0.0633,-0.004 -0.0956,-0.004 -0.9458,0 -1.5808,-0.5488 -1.5808,-1.0608 0,-0.3987 0.3882,-0.8162 1.0053,-0.983 v -2.07 c -1.6421,0.0985 -2.9507,1.4103 -3.0453,3.0526 0.1193,1.7856 1.6324,3.1553 3.421,3.0969 0.0314,0.002 0.0633,0.0039 0.0957,0.0039 0.9458,0 1.5813,0.5489 1.5813,1.0609 -0.0536,0.4125 -0.3392,0.7576 -0.7343,0.8875 v 2.1232 c 1.5302,-0.2025 2.6973,-1.4691 2.7743,-3.0107 -0.1195,-1.7856 -1.6329,-3.1552 -3.4216,-3.0965 z"
         id="path16" />
    </g>
    <g
       id="g24">
      <path
         d="M 35.5317,38.8582 C 34.7229,38.586 34.1771,37.829 34.1743,36.9756 v -2.3937 c 0.0028,-0.8534 0.5486,-1.6104 1.3574,-1.8826 v -2.09 c -1.9534,0.3117 -3.3924,1.9943 -3.3974,3.9724 v 2.3937 c 0.005,1.9782 1.444,3.6607 3.3974,3.9724 z"
         id="path20" />
      <path
         d="m 36.8501,30.6134 v 2.0981 c 0.789,0.284 1.316,1.0314 1.3185,1.87 v 2.3937 c -0.0025,0.8386 -0.5295,1.586 -1.3185,1.87 v 2.0981 c 1.936,-0.3289 3.3541,-2.0039 3.359,-3.9677 v -2.3937 c -0.0045,-1.964 -1.4226,-3.6395 -3.359,-3.9685 z"
         id="path22" />
    </g>
  </g>
</g></svg>