<svg xmlns="http://www.w3.org/2000/svg" width="24" height="24" viewBox="0 0 24 24"> <g transform="translate(0.0 1.982111030303031) scale(0.48484848484848486)">
  
  <g
     id="line"
     transform="translate(-12,-15.58261)">
    <path
       fill="none"
       stroke="#000"
       stroke-linecap="round"
       stroke-linejoin="round"
       stroke-miterlimit="10"
       stroke-width="2"
       d="m 50.4918,22.1986 0.7023,-2.2172 c 0.1487,-0.4695 0.4779,-0.8607 0.915,-1.0875 l 1.0989,-0.5702 c 0.4895,-0.254 0.4276,-0.973 -0.0982,-1.1395 l -1.6256,-0.5149 c -0.3208,-0.1016 -0.6633,-0.1142 -0.9907,-0.0362 l -3.0108,0.7166 -1.1838,3.5208"
       id="path2" />
    <path
       fill="none"
       stroke="#000"
       stroke-linecap="round"
       stroke-linejoin="round"
       stroke-miterlimit="10"
       stroke-width="2"
       d="m 30,35.9064 c 1,4 4,4 6,4 h 2 c 0,-6.7261 4.4351,-12.0457 13.4351,-12.0457 v -1.9543 0 C 46.2164,23.808 40.9154,23.1678 35.3606,23.1192 30.0605,23.0728 24.773,23.6424 19.5681,24.6433 L 13,25.9064 v 6 0 h 11.0392 c 0.6381,0 1.2739,0.0783 1.893,0.233 v 0 c 1.9107,0.4778 3.445,1.8985 4.0678,3.767 z"
       id="path4" />
    <path
       fill="none"
       stroke="#000"
       stroke-linecap="round"
       stroke-linejoin="round"
       stroke-miterlimit="10"
       stroke-width="2"
       d="m 37,31.9064 c -1,2 -1,3.208 -1,5 h -1 c -1,0 -2.5,0 -3,-5 z"
       id="path6" />
    <path
       fill="none"
       stroke="#000"
       stroke-linecap="round"
       stroke-linejoin="round"
       stroke-miterlimit="10"
       stroke-width="2"
       d="m 50.9266,31.8935 c 0.3893,0.0047 0.5734,0.5143 0.5734,0.9036 v 2.294 c 0,1.6823 1.2468,2.2059 3,3.0462 0,0 0.5946,0.28 0.8992,0.478 2.2596,1.4684 5.1008,9.4103 5.1008,12.2142 0,2.8039 -2.2386,5.0769 -5,5.0769 h -3.0361 c -2.7614,0 -5,-2.2386 -5,-5 l 0.0361,-3.5 c 0.0517,-1.6036 -0.0871,-3.5828 -1.2586,-4.7544 -0.6903,-0.6903 -1.628,-1.0169 -2.5215,-0.929 -1.1133,0.1095 -2.1593,-0.5902 -2.2896,-1.7013 -0.0026,-0.0223 -0.0052,-0.0448 -0.0077,-0.0673 -0.1849,-1.668 0.2687,-3.3442 1.2016,-4.7392 0.8667,-1.2961 2.2772,-2.7841 4.3758,-3.3088 0,0 2.8532,-0.0259 3.9266,-0.0129 z"
       id="path8" />
  </g>
</g></svg>