<svg xmlns="http://www.w3.org/2000/svg" width="24" height="24" viewBox="0 0 24 24"> <g transform="scale(0.46153846153846156)">
  
  <g
     id="line"
     transform="translate(-9.92,-10)">
    <path
       fill="none"
       stroke="#000"
       stroke-linecap="round"
       stroke-linejoin="round"
       stroke-miterlimit="10"
       stroke-width="2"
       d="m 59.92,61 h -48 c -0.5523,0 -1,-0.4477 -1,-1 V 12 c 0,-0.5523 0.4477,-1 1,-1 h 48 c 0.5523,0 1,0.4477 1,1 v 48 c 0,0.5523 -0.4477,1 -1,1 z"
       id="path2" />
    <circle
       cx="45.68"
       cy="16.01"
       r="2.375"
       fill="none"
       stroke="#000"
       stroke-miterlimit="10"
       stroke-width="2"
       id="circle4" />
    <path
       fill="none"
       stroke="#000"
       stroke-linecap="round"
       stroke-linejoin="round"
       stroke-width="2"
       d="m 49.7,26.36 1.52,30.4 c 0.044,0.88 -0.46,1.6 -1.12,1.6 -0.7812,-0.1321 -1.36,-0.7976 -1.383,-1.59 L 46.686,39.15 c -0.1008,-0.8744 -0.5432,-1.59 -0.9832,-1.59 -0.44,0 -0.88,0.7152 -0.9832,1.59 l -2.034,17.62 c -0.0229,0.792 -0.602,1.458 -1.383,1.59 -0.66,0 -1.164,-0.72 -1.12,-1.6 l 1.52,-30.4"
       id="path6" />
    <circle
       cx="26.360001"
       cy="16.01"
       r="2.375"
       fill="none"
       stroke="#000"
       stroke-miterlimit="10"
       stroke-width="2"
       id="circle8" />
    <path
       fill="none"
       stroke="#000"
       stroke-linecap="round"
       stroke-linejoin="round"
       stroke-width="2"
       d="m 30.33,26.67 c -1.882,2.826 -0.5416,4.886 -0.0253,6.4 0.3669,1.076 0.6043,3.36 0.718,4.491 0.4803,4.781 0.802,19.2 0.802,19.2 0.044,0.88 -0.46,1.6 -1.12,1.6 -0.7812,-0.1321 -1.36,-0.7976 -1.383,-1.59 l -2.031,-17.62 c -0.1008,-0.8744 -0.5432,-1.59 -0.9832,-1.59 -0.44,0 -0.88,0.7152 -0.9832,1.59 l -2.034,17.62 c -0.0229,0.792 -0.602,1.458 -1.383,1.59 -0.66,0 -1.164,-0.72 -1.12,-1.6 0,0 0.4181,-14.27 0.8585,-19.01 0.1095,-1.178 0.2965,-3.559 0.6615,-4.684 0.4939,-1.522 1.933,-3.791 0.0229,-6.4"
       id="path10" />
    <path
       fill="none"
       stroke="#000"
       stroke-linecap="round"
       stroke-linejoin="round"
       stroke-width="2"
       d="m 38.5,40.76 0.6336,-15.2 c 0.1155,-2.224 1.94,-3.975 4.166,-4 h 4.8 c 2.227,0.0249 4.051,1.776 4.166,4 l 0.6336,15.2"
       id="path12" />
    <path
       fill="none"
       stroke="#000"
       stroke-linecap="round"
       stroke-linejoin="round"
       stroke-width="2"
       d="m 19.1,40.76 0.6336,-15.2 c 0.1155,-2.224 1.94,-3.975 4.166,-4 h 4.8 c 2.227,0.0249 4.051,1.776 4.166,4 l 0.6336,15.2"
       id="path14" />
  </g>
</g></svg>