<svg xmlns="http://www.w3.org/2000/svg" width="24" height="24" viewBox="0 0 24 24"> <g transform="translate(1.0098308090809809 0.0) scale(0.45496768696266776)">
  
  <g
     id="line"
     transform="translate(-13.000409,-8.3)">
    <path
       fill="none"
       stroke="#000"
       stroke-linecap="round"
       stroke-linejoin="round"
       stroke-width="2"
       d="M 19.0858,25.8 16.9,31.4 c -0.3115,0.5831 -0.3832,1.2648 -0.2,1.9 L 19.5,44 c 0.0564,0.1933 0.2588,0.3043 0.4521,0.2479 C 20.0717,44.213 20.1651,44.1195 20.2,44 l 0.2,-7.7 c 0.0103,-0.473 0.0775,-0.943 0.2,-1.4"
       id="path2" />
    <path
       fill="none"
       stroke="#000"
       stroke-linecap="round"
       stroke-linejoin="round"
       stroke-width="2"
       d="m 26.9,17.5 c -0.4245,1.0967 -0.7263,2.2369 -0.9,3.4 v 0 L 14,25.8 H 58 L 46.1,20.9 C 45.9,16.6 43.9,9.6 35.2,9.3 22.2,9.3 20,22.8 20,22.8"
       id="path4" />
    <path
       fill="none"
       stroke="#000"
       stroke-linecap="round"
       stroke-linejoin="round"
       stroke-width="2"
       d="m 53.3683,40.59 c -2.5437,-1.0747 -3.7346,-4.008 -2.6599,-6.5517 1.0747,-2.5437 4.008,-3.7346 6.5517,-2.6599 2.5437,1.0747 3.7346,4.008 2.6599,6.5517 -0.4479,1.0601 -1.2477,1.9332 -2.2646,2.4721"
       id="path6" />
    <polyline
       fill="none"
       stroke="#000"
       stroke-linecap="round"
       stroke-linejoin="round"
       stroke-width="2"
       points="57.314,60.051 57.314,40.605 53.314,40.605 53.314,60.051"
       id="polyline8" />
    <path
       fill="none"
       stroke="#000"
       stroke-linecap="round"
       stroke-linejoin="round"
       stroke-width="2"
       d="m 46.4401,48.109 c 2.7065,0.407 5.2719,1.9246 6.8759,4.0597"
       id="path10" />
    <path
       fill="none"
       stroke="#000"
       stroke-linecap="round"
       stroke-linejoin="round"
       stroke-width="2"
       d="m 17,60 v -3 c 0,-4.5823 4.2159,-8.3326 8.7675,-8.92"
       id="path12" />
    <path
       d="m 42,29.9 c 0,1.1 -0.9,2 -2,2 -1.1,0 -2,-0.9 -2,-2 0,-1.1 0.9,-2 2,-2 1.1,0 2,0.9 2,2"
       id="path14" />
    <path
       d="m 34,29.9 c 0,1.1 -0.9,2 -2,2 -1.1,0 -2,-0.9 -2,-2 0,-1.1 0.9,-2 2,-2 1.1,0 2,0.9 2,2"
       id="path16" />
    <path
       fill="none"
       stroke="#000"
       stroke-linecap="round"
       stroke-linejoin="round"
       stroke-width="2"
       d="m 33,38.1 c 1.9,1 4.1,1 6,0"
       id="path18" />
    <path
       fill="none"
       stroke="#000"
       stroke-linecap="round"
       stroke-linejoin="round"
       stroke-width="2"
       d="M 35.7577,54.3964 C 49.1792,44.703 48.852,32.2491 47.4577,26.8137 h -1.7 c 0,0 1.5809,7.897 -9.7577,7.897 -11.3386,0 -9.496,-7.897 -9.496,-7.897 h -1.7463 c -1.6019,4.7451 -2.3969,15.6744 11,27.5827 z"
       id="path20" />
  </g>
</g></svg>