<svg xmlns="http://www.w3.org/2000/svg" width="24" height="24" viewBox="0 0 24 24"> <g transform="translate(0.00001823936818823313 0.0) scale(0.47998337337594627)">
  
  <g
     id="line"
     transform="translate(-10.9991,-10.9991)">
    <path
       fill="none"
       stroke="#000"
       stroke-miterlimit="10"
       stroke-width="2"
       d="m 58.9991,59.9991 h -46 c -0.5518,-0.0012 -0.9988,-0.4482 -1,-1 v -46 c 0.0012,-0.5518 0.4482,-0.9988 1,-1 h 46 c 0.5518,0.0012 0.9988,0.4482 1,1 v 46 c 0.0314,0.5209 -0.3653,0.9686 -0.8862,1 -0.0378,0.0023 -0.0759,0.0023 -0.1138,0 z"
       id="path2" />
    <g
       id="g14">
      <path
         d="m 39.0988,41.5991 c -0.5519,4e-4 -0.9996,-0.4467 -1,-0.9986 0,-5e-4 0,-9e-4 0,-0.0014 v -9.4 c 0,-0.5523 0.4477,-1 1,-1 0.5523,0 1,0.4477 1,1 v 9.4 c 3e-4,0.552 -0.4468,0.9997 -0.9988,1 -4e-4,0 -8e-4,0 -0.0012,0 z"
         id="path4" />
      <path
         d="m 46.3234,39.955 -3.7143,-4.4109 3.2045,-3.6887 c 0.3624,-0.4168 0.3184,-1.0485 -0.0984,-1.4109 -0.4168,-0.3624 -1.0485,-0.3184 -1.4109,0.0984 l -2.9125,3.3526 v 3.3075 l 3.4025,4.0411 c 0.356,0.4223 0.9869,0.4761 1.4092,0.1201 0.4223,-0.356 0.4761,-0.9869 0.1201,-1.4092 z"
         id="path6" />
      <g
         id="g12">
        <path
           d="m 29.863,39.504 c -1.042,-0.2781 -1.7635,-1.2265 -1.7535,-2.3049 v -2.7 c -0.01,-1.0782 0.7116,-2.0263 1.7535,-2.3039 v -2.0324 c -2.1656,0.2922 -3.7748,2.1512 -3.7535,4.3363 v 2.7 c -0.0216,2.1854 1.5876,4.0448 3.7535,4.3371 z"
           id="path8" />
        <path
           d="m 31.1555,30.1628 v 2.0324 c 1.042,0.2776 1.7637,1.2256 1.7538,2.3039 v 2.7 c 0.0097,1.0784 -0.7118,2.0266 -1.7538,2.3047 v 2.0324 c 2.166,-0.2921 3.7754,-2.1516 3.7538,-4.3371 v -2.7 c 0.0213,-2.1852 -1.588,-4.0442 -3.7538,-4.3363 z"
           id="path10" />
      </g>
    </g>
  </g>
</g></svg>