<svg xmlns="http://www.w3.org/2000/svg" width="24" height="24" viewBox="0 0 24 24"> <g transform="translate(0.9086533460469077 0.0) scale(0.4618079620079826)">
  
  <g
     id="line"
     transform="translate(-11.982772,-11.782772)">
    <path
       fill="none"
       stroke="#000"
       stroke-linecap="round"
       stroke-linejoin="round"
       stroke-width="2"
       d="M 51.5,52.8 C 60.9,44.2 61.6,29.7 53,20.3 44.4,10.9 29.9,10.2 20.5,18.8 11.1,27.4 10.4,41.9 19,51.3 c 0.9,0.9 1.8,1.8 2.8,2.6"
       id="path2" />
    <path
       fill="none"
       stroke="#000"
       stroke-linecap="round"
       stroke-linejoin="round"
       stroke-width="2"
       d="m 21.4,23.6 c 0.7,-1.4 1.9,-2.4 3.3,-2.9 C 26,20 27.6,19.9 29,20.3"
       id="path4" />
    <path
       fill="none"
       stroke="#000"
       stroke-linecap="round"
       stroke-linejoin="round"
       stroke-width="2"
       d="m 50.7,23.6 c -1.5,-2.7 -4.6,-4 -7.6,-3.3"
       id="path6" />
    <path
       fill="none"
       stroke="#000"
       stroke-linecap="round"
       stroke-linejoin="round"
       stroke-width="2"
       d="M 34,41.5 C 32.6,41.3 31.2,40.8 30,40"
       id="path8" />
    <path
       fill="none"
       stroke="#000"
       stroke-linecap="round"
       stroke-linejoin="round"
       stroke-width="2"
       d="m 42.1,40 c -1.3,0.7 -2.7,1.2 -4.2,1.5"
       id="path10" />
    <path
       fill="none"
       stroke="#000"
       stroke-linecap="round"
       stroke-linejoin="round"
       stroke-width="2"
       d="m 37.8,38.6 c 0,-1 -0.9,-1.9 -1.9,-1.9 -1,0 -1.9,0.9 -1.9,1.9"
       id="path12" />
    <line
       x1="34"
       x2="34"
       y1="47.400002"
       y2="38.599998"
       fill="none"
       stroke="#000"
       stroke-linecap="round"
       stroke-linejoin="round"
       stroke-width="2"
       id="line14" />
    <line
       x1="37.799999"
       x2="37.799999"
       y1="38.599998"
       y2="47.5"
       fill="none"
       stroke="#000"
       stroke-linecap="round"
       stroke-linejoin="round"
       stroke-width="2"
       id="line16" />
    <path
       fill="none"
       stroke="#000"
       stroke-miterlimit="10"
       stroke-width="2"
       d="m 37.2,47.4 c 1.7,0 3,1.3 3,3 v 0 c 0,0.6 0,1.8 0,1.8 0.3,0 3,0 4.1,0 1.3,-0.1 2.5,0.7 2.8,2 0.3,1.3 -0.3,2.6 -1.4,3.2 -0.5,0.3 -1.1,0.6 -1.6,0.9 -2,1.1 -4.1,2.2 -6.2,3.3 -1.9,1 -4,1.4 -6.1,1 -3.6,-0.6 -6,-4 -5.4,-7.7 0.2,-1.5 0.5,-3 1,-4.4 0.6,-1.8 2.3,-3.1 4.2,-3.1 z"
       id="path18" />
    <path
       d="m 30,27.8 c 0,1.7 -1.3,3 -3,3 -1.7,0 -3,-1.3 -3,-3 0,-1.7 1.3,-3 3,-3 v 0 c 1.6,0 3,1.3 3,2.9 0,0 0,0.1 0,0.1"
       id="path20" />
    <path
       d="m 48,27.8 c 0,1.7 -1.3,3 -3,3 -1.7,0 -3,-1.3 -3,-3 0,-1.7 1.3,-3 3,-3 v 0 c 1.6,0 3,1.3 3,2.9 0,0 0,0.1 0,0.1"
       id="path22" />
    <path
       fill="none"
       stroke="#000"
       stroke-linecap="round"
       stroke-linejoin="round"
       stroke-miterlimit="10"
       stroke-width="2"
       d="m 36.2,51.8 c -1.3,0 -2,0.7 -2.5,1.5 -0.6,0.9 0,2.2 1,2.2 H 39 c 0.7,0 1.2,-0.6 1.2,-1.4 v -1.8 -0.1"
       id="path24" />
  </g>
</g></svg>