<svg xmlns="http://www.w3.org/2000/svg" width="24" height="24" viewBox="0 0 24 24"> <g transform="translate(3.310121051876637 0.0) scale(0.42421935463686333)">
  
  <g
     id="line"
     transform="translate(-15,-7)">
    <circle
       cx="51.9688"
       cy="15.0938"
       r="3"
       fill="none"
       stroke="#000"
       stroke-miterlimit="10"
       stroke-width="2"
       id="circle2" />
    <path
       fill="none"
       stroke="#000"
       stroke-linecap="round"
       stroke-linejoin="round"
       stroke-miterlimit="10"
       stroke-width="2"
       d="m 42,33 -8.084,-2.4258 c -1.0537,-0.3154 -2.4922,0.1172 -3.1963,0.9619 l -7.4394,8.9278 C 22.5762,41.3086 22.4502,42.4502 23,43 c 0.5498,0.5498 1.6367,0.3633 2.4141,-0.4141 l 6.1718,-6.1718 c 0.7774,-0.7774 2.2012,-0.9766 3.1621,-0.4424 l 5.504,3.0566 C 41.2129,39.5625 42.9004,40 44,40 h 1 c 1.0996,0 2.6182,-0.6533 3.375,-1.4531 l 0.457,-0.4834 c 0.7569,-0.7998 1.5537,-2.2656 1.7715,-3.2588 C 50.8213,33.8125 51,33 51,33"
       id="path4" />
    <path
       fill="none"
       stroke="#000"
       stroke-linecap="round"
       stroke-linejoin="round"
       stroke-miterlimit="10"
       stroke-width="2"
       d="m 49.1348,38.1406 -1.7803,9.8907 c -0.1953,1.083 -0.1357,2.8417 0.1309,3.9091 l 2.0292,8.1192 C 49.7813,61.127 49.3252,62.2246 48.5,62.5 47.6748,62.7754 46.6768,62.1602 46.2822,61.1338 L 42.7178,51.8662 C 42.3232,50.8398 42,49.0996 42,48 v -7"
       id="path6" />
    <path
       fill="none"
       stroke="#000"
       stroke-linecap="round"
       stroke-linejoin="round"
       stroke-miterlimit="10"
       stroke-width="2"
       d="m 51,33 1.8506,-6.1685 C 53.4824,24.7241 52.6504,22.5498 51,22 49.3496,21.4502 46.2139,20.7769 44.0313,20.5039 L 43.9688,20.4961 C 41.7861,20.2231 38.4248,19.5713 36.5,19.0469 34.5752,18.5225 33,18.0938 33,18.0938"
       id="path8" />
    <polyline
       fill="none"
       stroke="#000"
       stroke-linecap="round"
       stroke-linejoin="round"
       stroke-miterlimit="10"
       stroke-width="2"
       points="16,56 23,45 21,41 27,28 32,25 34,22"
       id="polyline10" />
    <line
       x1="43"
       x2="51"
       y1="30"
       y2="33"
       fill="none"
       stroke="#000"
       stroke-linecap="round"
       stroke-linejoin="round"
       stroke-miterlimit="10"
       stroke-width="2"
       id="line12" />
    <polyline
       fill="none"
       stroke="#000"
       stroke-linecap="round"
       stroke-linejoin="round"
       stroke-miterlimit="10"
       stroke-width="2"
       points="52.2646,33.5723 54.1621,34.2051 52.8975,38 51,37.3672"
       id="polyline14" />
    <line
       x1="37"
       x2="39"
       y1="16"
       y2="8"
       fill="none"
       stroke="#000"
       stroke-linecap="round"
       stroke-linejoin="round"
       stroke-miterlimit="10"
       stroke-width="2"
       id="line16" />
    <line
       x1="46"
       x2="45"
       y1="25"
       y2="27"
       fill="none"
       stroke="#000"
       stroke-linecap="round"
       stroke-linejoin="round"
       stroke-miterlimit="10"
       stroke-width="2"
       id="line18" />
  </g>
</g></svg>