<svg xmlns="http://www.w3.org/2000/svg" width="24" height="24" viewBox="0 0 24 24"> <g transform="translate(0.31045199842528426 0.0) scale(0.4383342676854407)">
  
  <g
     id="line"
     transform="translate(-9.7281788,-8.8882663)">
    <path
       fill="#000"
       stroke="none"
       d="m 30.5555,63.641 c -0.0571,0 -0.1148,-0.0049 -0.1729,-0.0147 -0.4521,-0.0791 -0.7924,-0.456 -0.8252,-0.914 L 28.4783,47.6058 c -0.039,-0.5508 0.3755,-1.0293 0.9263,-1.0684 0.5615,-0.0322 1.0298,0.376 1.0689,0.9258 l 0.7934,11.1075 6.2808,-14.1553 c 0.1504,-0.3389 0.4756,-0.5674 0.8457,-0.5928 0.372,-0.0215 0.7236,0.1563 0.9184,0.4717 l 6.0591,9.7803 -0.9429,-11.0577 c -0.0424,-0.5019 0.2955,-0.958 0.7886,-1.0634 l 12.3501,-2.627 -13.9126,-3.3867 c -0.3823,-0.0928 -0.6743,-0.4014 -0.7466,-0.7871 -0.0722,-0.3867 0.0884,-0.7793 0.4107,-1.0049 l 7.4394,-5.1904 -9.5825,2.3193 c -0.3374,0.083 -0.6885,-0.0166 -0.935,-0.2568 -0.2461,-0.2412 -0.3511,-0.5928 -0.2769,-0.9297 l 3.0767,-14.0156 -7.3111,11.206 c -0.3012,0.4629 -0.9214,0.5918 -1.3838,0.292 -0.4624,-0.3018 -0.5927,-0.9219 -0.291,-1.3838 L 44.3509,10.4046 c 0.2637,-0.4052 0.7798,-0.5625 1.2241,-0.3759 0.4453,0.1865 0.6934,0.665 0.5899,1.1367 l -3.9053,17.791 13.1968,-3.1934 c 0.4638,-0.1172 0.9497,0.1221 1.1469,0.5606 0.1978,0.4385 0.0552,0.956 -0.3393,1.2314 l -9.9844,6.9658 16.021,3.8995 c 0.4536,0.1103 0.7705,0.5195 0.7637,0.9863 -0.0069,0.4668 -0.3355,0.8662 -0.792,0.9639 l -15.7764,3.3564 1.2232,14.3438 c 0.039,0.4609 -0.2432,0.8886 -0.6822,1.0341 -0.4389,0.1446 -0.9204,-0.0293 -1.1645,-0.4228 L 38.6082,46.9564 31.4691,63.0462 c -0.1626,0.3662 -0.524,0.5948 -0.9136,0.5948 z"
       id="path2" />
    <path
       fill="#000"
       stroke="none"
       d="m 16.6297,48.5345 c -0.3403,0 -0.667,-0.1738 -0.853,-0.4775 -0.251,-0.4092 -0.1753,-0.9385 0.1792,-1.2617 L 23.8216,39.6351 10.4613,35.932 c -0.4502,-0.125 -0.754,-0.5449 -0.732,-1.0108 0.022,-0.4668 0.3643,-0.8554 0.8237,-0.9375 L 23.2571,31.7249 15.9393,21.6888 c -0.2779,-0.3808 -0.2515,-0.9043 0.0625,-1.2549 0.3139,-0.3515 0.8315,-0.4345 1.2407,-0.2031 l 9.9941,5.6963 -2.5083,-15.8828 c -0.0756,-0.4805 0.2051,-0.9463 0.6661,-1.1035 0.4575,-0.1543 0.9672,0.04 1.2002,0.4687 l 6.9072,12.6826 c 0.2641,0.4854 0.0849,1.0928 -0.3999,1.3565 -0.4868,0.2656 -1.0928,0.0859 -1.357,-0.3994 l -4.1381,-7.5987 1.9296,12.2198 c 0.0601,0.3798 -0.103,0.7607 -0.4194,0.9785 -0.3164,0.2187 -0.7305,0.2344 -1.0635,0.0469 l -7.7519,-4.419 5.5146,7.5635 c 0.2032,0.2783 0.2486,0.6416 0.1197,0.9619 -0.1285,0.3203 -0.4131,0.5508 -0.7525,0.6113 l -9.9424,1.7676 10.8604,3.0107 c 0.3511,0.0977 0.6211,0.378 0.7056,0.7325 0.0844,0.3535 -0.0303,0.7256 -0.2994,0.9707 l -5.3349,4.8564 7.6128,-2.873 c 0.5156,-0.1944 1.0937,0.0644 1.2885,0.582 0.1949,0.5176 -0.0659,1.0938 -0.5825,1.2891 l -12.5093,4.7207 c -0.1157,0.0439 -0.2348,0.0644 -0.3525,0.0644 z"
       id="path4" />
  </g>
</g></svg>