<svg xmlns="http://www.w3.org/2000/svg" width="24" height="24" viewBox="0 0 24 24"> <g transform="translate(0.0 0.000007440145827430911) scale(0.4800094081844004)">
  
  <g
     id="line"
     transform="translate(-11.000989,-11.000989)">
    <path
       fill="none"
       stroke="#000"
       stroke-linecap="round"
       stroke-linejoin="round"
       stroke-width="2"
       d="M 17.8799,50.1671 C 22.0899,55.5443 28.6414,59 36,59 46.6402,59 55.5929,51.7748 58.2195,41.963 H 45.2451 C 43.2862,44.9939 39.8774,47 36,47 30.262,47 25.5501,42.6065 25.0449,37 H 58.9787 C 58.9928,36.6684 59,36.3351 59,36 59,28.5654 55.4725,21.9547 50,17.7503 M 13.1939,33 C 14.4923,23.0325 22.1723,15.07 32,13.3466 M 36,25 c 4.2747,0 7.9799,2.4383 9.8006,6 H 26.1994 C 28.0201,27.4383 31.7253,25 36,25 Z"
       id="path2" />
    <path
       fill="#000"
       d="m 56.8069,18.5776 -0.7071,0.7071 v 0 z m 3.192,6.7882 L 59.008,25.5 c 0.0703,0.5194 0.5298,0.8964 1.053,0.8639 0.5231,-0.0325 0.9324,-0.4635 0.9379,-0.9876 z m -34.0467,0.5408 0.7071,0.7071 z m -7.329,30.8547 -0.7072,0.7071 h 10e-5 z m 7.0976,3.2307 0.0285,0.9996 c 0.5244,-0.015 0.9481,-0.4327 0.9705,-0.9568 0.0225,-0.5242 -0.364,-0.9765 -0.8852,-1.0363 z m -10.1577,-3.5551 0.7071,-0.7071 v 0 z m 7.8603,-33.0135 0.7071,0.7071 z m 33.0135,-7.8603 -0.7071,0.7071 z m -0.3371,3.7216 c 1.6052,1.6052 2.5713,3.7275 2.9082,6.2153 l 1.9819,-0.2684 c -0.3858,-2.849 -1.5131,-5.3983 -3.4759,-7.3611 z m -29.4405,7.329 c 5.1626,-5.1626 11.0933,-8.512 16.4692,-9.7889 5.3942,-1.2813 10.0598,-0.4516 12.9713,2.4599 L 57.514,17.8705 C 53.9291,14.2855 48.4393,13.5076 42.6663,14.8789 36.875,16.2545 30.6266,19.8179 25.245,25.1995 Z m -7.329,29.4405 C 16.4187,53.1427 15.5891,48.4771 16.8704,43.0829 18.1473,37.707 21.4967,31.7763 26.6593,26.6137 L 25.245,25.1995 c -5.3815,5.3815 -8.9449,11.6299 -10.3205,17.4212 -1.3713,5.773 -0.5934,11.2628 2.9915,14.8477 z m 6.5043,2.9443 c -2.613,-0.2995 -4.8379,-1.2778 -6.5043,-2.9443 l -1.4142,1.4142 c 2.0387,2.0388 4.7093,3.1754 7.6908,3.5171 z m -0.1424,-0.0061 c -3.8598,0.1102 -7.1344,-0.975 -9.422,-3.2626 L 14.856,57.144 c 2.771,2.7711 6.6329,3.9692 10.8933,3.8476 z m -9.422,-3.2626 C 13.1344,52.594 12.2513,47.575 13.6287,41.7897 15.0018,36.023 18.5963,29.6647 24.1305,24.1305 L 22.7163,22.7163 C 16.9635,28.4691 13.155,35.1447 11.6831,41.3265 10.2157,47.4898 11.0459,53.334 14.856,57.144 Z M 24.1305,24.1305 C 29.6647,18.5963 36.023,15.0018 41.7897,13.6287 47.575,12.2513 52.594,13.1344 55.7298,16.2702 L 57.144,14.856 C 53.334,11.0459 47.4898,10.2157 41.3265,11.6831 35.1447,13.155 28.4691,16.9635 22.7163,22.7163 Z m 31.5993,-7.8603 c 2.2211,2.2211 3.3081,5.3714 3.2692,9.0851 l 1.9999,0.021 C 61.0419,21.264 59.8336,17.5455 57.144,14.856 Z"
       id="path4" />
  </g>
</g></svg>