<svg xmlns="http://www.w3.org/2000/svg" width="24" height="24" viewBox="0 0 24 24"> <g transform="translate(0.0 0.9831174374301295) scale(0.40000424671175255)">
  
  <g
     id="line-supplement"
     transform="translate(-6.9206363,-6.8204796)">
    <path
       fill="none"
       stroke="#000"
       stroke-linecap="round"
       stroke-linejoin="round"
       stroke-width="2"
       d="M 43.8729,12.1456 28.3014,15.9005 A 8.06,8.06 0 0 0 24.6986,15.6141"
       id="path2" />
    <path
       fill="none"
       stroke="#000"
       stroke-linecap="round"
       stroke-linejoin="round"
       stroke-width="2"
       d="m 25.4278,18.8249 c 0,0 2.4881,-1.0812 2.8736,-2.9244"
       id="path4" />
    <path
       fill="none"
       stroke="#000"
       stroke-linecap="round"
       stroke-linejoin="round"
       stroke-width="1.8827"
       d="m 19.9477,15.4187 2.7744,-0.6674 a 1.6175,1.6175 0 0 1 1.9508,1.1943 l 0.6936,2.8833"
       id="path6" />
    <path
       fill="none"
       stroke="#000"
       stroke-linecap="round"
       stroke-linejoin="round"
       stroke-width="1.8827"
       d="m 19.9477,15.4187 2.7744,-0.6674 a 1.6175,1.6175 0 0 1 1.9508,1.1943 l 0.6936,2.8833"
       id="path8" />
    <path
       fill="none"
       stroke="#000"
       stroke-linecap="round"
       stroke-linejoin="round"
       stroke-width="2"
       d="m 19.2691,30.2917 c 2.2176,-5.2121 -0.224,-11.71 -0.224,-11.71 L 18.7535,17.37 a 1.6174,1.6174 0 0 1 1.1942,-1.9508 c 0,0 3.8734,-1.0686 5.4188,3.41 a 1.7388,1.7388 0 0 1 -0.9061,2.2024 l -0.26,0.2452 c -1.0331,1.2294 -3.5613,4.6335 0.1713,9.2105"
       id="path10" />
  </g>
  <g
     id="line"
     transform="translate(-6.9206363,-6.8204796)">
    <path
       fill="none"
       stroke="#000"
       stroke-linecap="round"
       stroke-linejoin="round"
       stroke-width="2"
       d="m 10.3814,31.265 h 39.4064 a 2.4611,2.4611 0 0 1 2.4273,2.8676 l -0.4369,2.6079 a 9.39,9.39 0 0 1 -9.26,7.8382 H 17.6664 A 9.39,9.39 0 0 1 8.4146,36.7917 L 7.9564,34.146 a 2.461,2.461 0 0 1 2.425,-2.881 z"
       id="path13" />
    <path
       fill="none"
       stroke="#000"
       stroke-linecap="round"
       stroke-linejoin="round"
       stroke-width="2"
       d="m 52.123,34.6824 2.4762,1.003 a 3.3974,3.3974 0 0 0 1.2753,0.2485 h 0.722 a 3.3966,3.3966 0 0 0 1.25,-0.2382 L 61.2729,34.34 a 3.397,3.397 0 0 1 4.6471,3.1587 v 0.84 a 3.3969,3.3969 0 0 1 -4.66,3.1535 L 58.1323,40.24 a 3.398,3.398 0 0 0 -1.263,-0.2435 h -1.5561 a 3.394,3.394 0 0 0 -0.4788,0.0339 l -4.7151,0.6713"
       id="path15" />
    <path
       fill="none"
       stroke="#000"
       stroke-linecap="round"
       stroke-linejoin="round"
       stroke-width="2"
       d="m 43.5227,11.9607 v 0 A 1.55,1.55 0 0 1 44.6075,10.146 L 52.37,7.9023 a 2.113,2.113 0 0 1 2.6529,1.5857 v 0 a 2.1131,2.1131 0 0 1 -1.7663,2.5358 l -7.999,1.1454 a 1.55,1.55 0 0 1 -1.7349,-1.2085 z"
       id="path17" />
    <polyline
       fill="none"
       stroke="#000"
       stroke-linecap="round"
       stroke-linejoin="round"
       stroke-width="2"
       points="19.585 58.005 20.991 47.567 39.178 47.567 40.585 58.005"
       id="polyline19" />
    <path
       fill="none"
       stroke="#000"
       stroke-linecap="round"
       stroke-linejoin="round"
       stroke-width="2"
       d="m 15.67,58.9909 v 0 a 1.9132,1.9132 0 0 0 1.9132,1.9132 h 25.003 a 1.9132,1.9132 0 0 0 1.9132,-1.9132 v 0"
       id="path21" />
    <path
       fill="none"
       stroke="#000"
       stroke-linecap="round"
       stroke-linejoin="round"
       stroke-width="2"
       d="m 30.0846,60.9041 c 0,0 -5.3988,0.0728 -5.3988,-4.8855 a 10.4605,10.4605 0 0 1 3.4967,0.6831 c 0,0 1.077,-3.0067 1.9021,-3.381 a 4.9823,4.9823 0 0 1 1.4789,3.3382 6.3564,6.3564 0 0 1 3.9374,-0.64 c 0,0 -0.9539,4.8852 -5.4163,4.8852 z"
       id="path23" />
  </g>
</g></svg>