<svg xmlns="http://www.w3.org/2000/svg" width="24" height="24" viewBox="0 0 24 24"> <g transform="translate(0.2836909132040084 0.0) scale(0.37146224005846323)">
  
  <g
     id="line"
     transform="translate(-3.2840009,-4.3899645)">
    <path
       fill="none"
       stroke="#000"
       stroke-linecap="round"
       stroke-linejoin="round"
       stroke-miterlimit="10"
       stroke-width="2"
       d="m 20,32 2.1418,-11.1605 0.6996,4.1763 c 0.1122,0.6679 2.3298,13.9055 2.3298,13.9055 0.2615,1.5604 1.6435,2.8154 3.5205,3.1974 L 40,44.4198 28.6839,46.7224 c -1.8724,0.381 -3.2513,1.6356 -3.5127,3.1963 L 22.1422,68 19.1132,49.9194 C 18.8517,48.3587 17.4727,47.1041 15.6001,46.723 L 4.2836,44.4205 15.6007,42.1174 C 17.4727,41.7362 18.7387,39.5604 19,38"
       id="path2" />
    <path
       fill="none"
       stroke="#000"
       stroke-linecap="round"
       stroke-linejoin="round"
       stroke-miterlimit="10"
       stroke-width="2"
       d="m 42.5556,13.4499 1.5469,-8.0604 0.5052,3.0162 c 0.081,0.4824 1.6827,10.0429 1.6827,10.0429 0.1889,1.1269 1.1869,2.0334 2.5426,2.3092 l 8.167,1.662 -8.1728,1.663 C 47.4749,24.358 46.479,25.264 46.2903,26.3912 L 44.1027,39.4499 41.9151,26.3917 c -0.1889,-1.1272 -1.1848,-2.0333 -2.5372,-2.3085 l -8.173,-1.6629 8.1735,-1.6634 c 1.352,-0.2753 2.2663,-1.8467 2.455,-2.9736"
       id="path4" />
    <path
       fill="none"
       stroke="#000"
       stroke-linecap="round"
       stroke-linejoin="round"
       stroke-miterlimit="10"
       stroke-width="2"
       d="m 53.8482,44.267 1.2335,-6.4275 0.4029,2.4052 c 0.0646,0.3847 1.3418,8.0084 1.3418,8.0084 0.1506,0.8986 0.9465,1.6215 2.0275,1.8414 l 6.5126,1.3253 -6.5171,1.3261 c -1.0783,0.2194 -1.8725,0.9419 -2.023,1.8408 L 55.0819,65 53.3374,54.5871 c -0.1506,-0.8988 -0.9448,-1.6214 -2.0232,-1.8409 l -6.5174,-1.326 6.5177,-1.3264 c 1.0781,-0.2195 1.8072,-1.4726 1.9577,-2.3712"
       id="path6" />
  </g>
</g></svg>