<svg xmlns="http://www.w3.org/2000/svg" width="24" height="24" viewBox="0 0 24 24"> <g transform="translate(6.281391657530761 0.0) scale(0.3630862439663009)">
  
  <g
     id="line"
     transform="translate(-20.4,-2.9)">
    <polyline
       fill="none"
       stroke="#000"
       stroke-linecap="round"
       stroke-linejoin="round"
       stroke-miterlimit="10"
       stroke-width="2"
       points="34.1,8.5 34.1,3.9 38.1,3.9 38.1,8.5"
       id="polyline2" />
    <polyline
       fill="none"
       stroke="#000"
       stroke-linecap="round"
       stroke-linejoin="round"
       stroke-miterlimit="10"
       stroke-width="2"
       points="38.1,39 38.1,68 34.1,68 34.1,38.9"
       id="polyline4" />
    <path
       fill="none"
       stroke="#000"
       stroke-linecap="round"
       stroke-linejoin="round"
       stroke-miterlimit="10"
       stroke-width="2"
       d="M 48.9,38.5 H 23.4 c -1.1,0 -2,-0.9 -2,-2 V 10.9 c 0,-1.1 0.9,-2 2,-2 h 25.5 c 1.1,0 2,0.9 2,2 v 25.6 c 0,1.1 -0.9,2 -2,2 z"
       id="path6" />
    <circle
       cx="36.099998"
       cy="23.6"
       r="10"
       fill="none"
       stroke="#000"
       stroke-linecap="round"
       stroke-linejoin="round"
       stroke-miterlimit="10"
       stroke-width="2"
       id="circle8" />
    <line
       x1="32.700001"
       x2="32.700001"
       y1="18"
       y2="28.9"
       fill="none"
       stroke="#000"
       stroke-linecap="round"
       stroke-linejoin="round"
       stroke-miterlimit="10"
       stroke-width="2"
       id="line10" />
    <line
       x1="39"
       x2="39"
       y1="18"
       y2="28.9"
       fill="none"
       stroke="#000"
       stroke-linecap="round"
       stroke-linejoin="round"
       stroke-miterlimit="10"
       stroke-width="2"
       id="line12" />
    <line
       x1="39"
       x2="32.700001"
       y1="23.4"
       y2="23.4"
       fill="none"
       stroke="#000"
       stroke-linecap="round"
       stroke-linejoin="round"
       stroke-miterlimit="10"
       stroke-width="2"
       id="line14" />
  </g>
</g></svg>