<svg xmlns="http://www.w3.org/2000/svg" width="24" height="24" viewBox="0 0 24 24"> <g transform="translate(2.465248516437681 0.0) scale(0.47517710444654104)">
  
  <g
     id="line"
     transform="translate(-16.80172,-8.3812188)">
    <path
       d="m 55.8066,58.8877 a 0.9956,0.9956 0 0 1 -0.99,-1.1494 c 0.0088,-0.0576 0.8272,-5.7412 -2.1289,-9.1778 -1.4756,-1.7148 -3.69,-2.6123 -6.5859,-2.6689 -3.31,2.1846 -6.0274,3.5449 -9.126,3.5879 -0.0215,0.0019 -0.044,10e-4 -0.0645,10e-4 H 36.844 c -0.0137,-10e-4 -0.0274,0 -0.0411,0 -0.0137,0 -0.0293,0 -0.0439,-10e-4 -3.1006,-0.043 -5.8174,-1.4033 -9.126,-3.5879 -2.8965,0.0566 -5.11,0.9541 -6.5859,2.6689 -2.9561,3.4366 -2.1377,9.12 -2.1289,9.1778 a 1,1 0 0 1 -1.9766,0.3027 c -0.041,-0.2695 -0.9726,-6.6328 2.5811,-10.7754 1.9228,-2.2412 4.7509,-3.3769 8.4072,-3.3769 a 1.0015,1.0015 0 0 1 0.5547,0.1679 c 3.1523,2.1016 5.6592,3.4092 8.3828,3.4239 2.7226,-0.0137 5.23,-1.3213 8.3828,-3.4239 a 1.0015,1.0015 0 0 1 0.5547,-0.1679 c 3.6562,0 6.4844,1.1357 8.4072,3.3769 3.5537,4.1426 2.6221,10.5059 2.5811,10.7754 a 0.9991,0.9991 0 0 1 -0.9866,0.8467 z"
       id="path2" />
    <path
       d="m 34.7656,58.8887 a 0.9975,0.9975 0 0 1 -0.8476,-0.4688 97.5708,97.5708 0 0 1 -6.9073,-13.1367 1.0000694,1.0000694 0 0 1 1.8379,-0.7891 95.7175,95.7175 0 0 0 6.7627,12.8633 1,1 0 0 1 -0.8457,1.5313 z"
       id="path4" />
    <path
       d="M 39.2129,58.8887 A 1,1 0 0 1 38.3672,57.3574 95.6943,95.6943 0 0 0 45.13,44.4941 1.0000694,1.0000694 0 1 1 46.9679,45.2832 97.5708,97.5708 0 0 1 40.0605,58.42 0.9975,0.9975 0 0 1 39.2129,58.8887 Z"
       id="path6" />
    <path
       d="m 23.6045,58.8887 a 1,1 0 0 1 -1,-1 V 45.6152 a 1,1 0 0 1 2,0 v 12.2735 a 1,1 0 0 1 -1,1 z"
       id="path8" />
    <path
       d="m 50.1455,58.8887 a 1,1 0 0 1 -1,-1 V 45.6152 a 1,1 0 0 1 2,0 v 12.2735 a 1,1 0 0 1 -1,1 z"
       id="path10" />
    <path
       d="m 40.9869,25.0321 a 2,2 0 1 1 -2,2 1.9994,1.9994 0 0 1 2,-2 z"
       id="path12" />
    <path
       d="m 40.8869,34.8421 a 1.0108,1.0108 0 0 1 -0.45,1.34 7.33,7.33 0 0 1 -6.89,0 1,1 0 0 1 0.89,-1.79 5.383,5.383 0 0 0 5.11,0 0.9935,0.9935 0 0 1 1.34,0.45 z"
       id="path14" />
    <path
       d="m 32.9869,25.0321 a 2,2 0 1 1 -2,2 1.9994,1.9994 0 0 1 2,-2 z"
       id="path16" />
    <path
       fill="none"
       stroke="#000"
       stroke-miterlimit="10"
       stroke-width="2"
       d="m 25.9591,25.1 a 17.2549,17.2549 0 0 0 -0.3122,3.292 c 0,7.83 5.08,14.18 11.34,14.18 6.26,0 11.34,-6.35 11.34,-14.18 a 17.6438,17.6438 0 0 0 -0.32,-3.36"
       id="path18" />
    <path
       fill="none"
       stroke="#000"
       stroke-linecap="round"
       stroke-linejoin="round"
       stroke-width="2"
       d="m 27.3269,20.9921 c -0.59,0.17 -1.12,0.35 -1.59,0.53 a 15.0574,15.0574 0 0 0 -2.65,1.22"
       id="path20" />
    <line
       x1="27.3269"
       x2="27.3269"
       y1="20.9821"
       y2="20.9921"
       fill="none"
       stroke="#000"
       stroke-miterlimit="10"
       stroke-width="2"
       id="line22" />
    <path
       fill="none"
       stroke="#000"
       stroke-linecap="round"
       stroke-linejoin="round"
       stroke-width="2"
       d="m 50.8869,22.7421 a 15.9913,15.9913 0 0 0 -3,-1.36 q -0.57,-0.195 -1.23,-0.39 a 30.4168,30.4168 0 0 0 -8.56,-1.16 c -0.34,0 -0.68,0.01 -1.03,0.02 h -0.16 c -0.03,0 -0.06,-0.01 -0.08,0 a 31.1621,31.1621 0 0 0 -9.5,1.13"
       id="path24" />
    <path
       fill="none"
       stroke="#000"
       stroke-linecap="round"
       stroke-linejoin="round"
       stroke-width="2"
       d="m 41.0469,11.3021 v -0.08 c -0.63,-2.07 -6.41,-2.81 -8,0 l -0.06,6.04 h 8 z"
       id="path26" />
    <path
       fill="none"
       stroke="#000"
       stroke-miterlimit="10"
       stroke-width="2"
       d="m 25.6469,21.2821 c 0,0 0.05,-9.2 7.4,-10.06"
       id="path28" />
    <path
       fill="none"
       stroke="#000"
       stroke-miterlimit="10"
       stroke-width="2"
       d="m 47.9269,21.2821 c 0,0 -0.04,-8.77 -6.88,-9.98 -0.16,-0.03 -0.34,-0.06 -0.51,-0.08"
       id="path30" />
    <g
       id="g40">
      <path
         fill="none"
         stroke="#000"
         stroke-linecap="round"
         stroke-linejoin="round"
         stroke-width="2"
         d="m 24.0575,26.0036 c 0.1166,-1.8765 0.1354,-3.2615 0.1354,-3.2615"
         id="path32" />
      <path
         fill="none"
         stroke="#000"
         stroke-linecap="round"
         stroke-linejoin="round"
         stroke-width="2"
         d="m 49.6984,22.7421 c 0,0 0.0187,1.3833 0.1351,3.2579"
         id="path34" />
      <path
         fill="none"
         stroke="#000"
         stroke-linecap="round"
         stroke-miterlimit="10"
         stroke-width="2"
         d="M 33.8725,19.8954 C 32.48,23.0338 25,26 25,26"
         id="path36" />
      <path
         fill="none"
         stroke="#000"
         stroke-linecap="round"
         stroke-miterlimit="10"
         stroke-width="2"
         d="M 39,19.8954 C 40.5491,23.0338 48.8725,26 48.8725,26"
         id="path38" />
    </g>
  </g>
</g></svg>