<svg xmlns="http://www.w3.org/2000/svg" width="24" height="24" viewBox="0 0 24 24"> <g transform="translate(0.0 4.135127291234534) scale(0.38440307583965166)">
  
  <g
     id="line"
     transform="translate(-4.8663523,-15.690732)">
    <path
       fill="none"
       stroke="#000"
       stroke-linecap="round"
       stroke-linejoin="round"
       stroke-miterlimit="10"
       stroke-width="2"
       d="m 17.98,28.495 c -0.58825,-1.845 -1.1769,-3.6911 -1.2374,-5.6245 -0.06048,-1.9333 0.40775,-3.9534 -1.2772,-5.131 -1.68495,-1.1776 -5.5245,-1.512 -7.6321,-0.22067 -2.1076,1.2914 -2.4822,4.2077 -1.2374,5.9733 1.2448,1.7656 4.1089,2.3812 5.5921,4.3227 1.4832,1.9415 1.5892,5.2105 2.7004,7.0835 1.1112,1.873 3.2254,2.3502 4.9785,3.1922 1.7531,0.842 3.1436,2.0472 2.9694,2.9703 -0.17428,0.92308 -1.9113,1.5624 -2.4872,3.2221 -0.57584,1.6596 0.01241,4.3335 -1.1381,6.4198 -1.1505,2.0863 -4.04,3.5846 -2.956,4.3205 1.0839,0.7359 6.1406,0.70914 8.4682,0.30839 2.3276,-0.40074 1.9263,-1.1766 2.2336,-3.197 0.3073,-2.0204 1.324,-5.2845 2.3409,-8.5494"
       id="path2" />
    <path
       fill="none"
       stroke="#000"
       stroke-linecap="round"
       stroke-linejoin="round"
       stroke-miterlimit="10"
       stroke-width="2"
       d="m 18.221,41.258 c -1.5249,1.0433 -3.0499,2.0868 -3.6252,3.6259 -0.57526,1.5391 -0.2007,3.5725 -1.0703,5.3512 -0.8696,1.7787 -2.9832,3.3037 -3.2638,4.0529 -0.28054,0.74924 1.2713,0.72248 2.8221,0.69574"
       id="path4" />
    <path
       fill="none"
       stroke="#000"
       stroke-linecap="round"
       stroke-linejoin="round"
       stroke-miterlimit="10"
       stroke-width="2"
       d="m 52.977,47.197 c 0.55443,1.2145 1.1243,2.4627 1.2443,3.8672 0.12004,1.4045 -0.20102,2.983 0.81631,3.7853 1.0173,0.8023 3.3718,0.82906 4.776,0.58827 1.4042,-0.24079 1.859,-0.74914 1.4895,-2.4228 -0.36953,-1.6737 -1.5831,-4.5593 -2.7876,-7.4233"
       id="path6" />
    <path
       fill="none"
       stroke="#000"
       stroke-linecap="round"
       stroke-linejoin="round"
       stroke-miterlimit="10"
       stroke-width="2"
       d="m 51.88,54.97 c -1.2298,0.02674 -2.4605,0.05349 -2.7153,-0.37454 -0.25472,-0.42804 0.46766,-1.3109 0.77093,-2.1109 0.30328,-0.79994 0.18714,-1.5178 0.07081,-2.2369"
       id="path8" />
    <path
       fill="none"
       stroke="#000"
       stroke-linecap="round"
       stroke-linejoin="round"
       stroke-miterlimit="10"
       stroke-width="2"
       d="m 31.465,45.753 c 3.6935,1.0973 7.3857,2.1943 10.535,2.4791 3.1492,0.28474 5.7556,-0.24225 8.3612,-0.76909"
       id="path10" />
    <path
       fill="none"
       stroke="#000"
       stroke-linecap="round"
       stroke-linejoin="round"
       stroke-miterlimit="10"
       stroke-width="2"
       d="m 58.678,42.528 c 2.6841,-2.401 2.6116,-8.287 0.99152,-12.75 -1.62008,-4.463 -4.7883,-7.5021 -9.4684,-9.2152 -4.68,-1.7131 -10.872,-2.0991 -15.866,-0.83269 -4.9949,1.2664 -8.792,4.1852 -10.727,5.9948 -1.935,1.8097 -2.0075,2.5092 -1.5115,4.7407 0.49602,2.2315 1.5194,5.8505 5.6005,8.2432 4.0811,2.3927 10.617,3.2069 16.736,4.1719 6.119,0.965 11.561,2.0481 14.245,-0.35294 z"
       id="path12" />
    <path
       fill="none"
       stroke="#000"
       stroke-linecap="round"
       stroke-linejoin="round"
       stroke-miterlimit="10"
       stroke-width="2"
       d="m 63.01,41.579 3.291,1.8462 -4.8161,0.96321"
       id="path14" />
    <path
       fill="none"
       stroke="#000"
       stroke-linecap="round"
       stroke-linejoin="round"
       stroke-miterlimit="10"
       stroke-width="2"
       d="m 42.114,42.171 1.7027,-11.749 8.7407,-0.96488 4.4839,-3.6893"
       id="path16" />
    <path
       fill="none"
       stroke="#000"
       stroke-linecap="round"
       stroke-linejoin="round"
       stroke-miterlimit="10"
       stroke-width="2"
       d="M 43.647,30.138 33.9414,24.1784"
       id="path18" />
    <path
       fill="none"
       stroke="#000"
       stroke-linecap="round"
       stroke-linejoin="round"
       stroke-miterlimit="10"
       stroke-width="2"
       d="M 33.884,24.009 32.6353,20.6603"
       id="path20" />
    <path
       fill="none"
       stroke="#000"
       stroke-linecap="round"
       stroke-linejoin="round"
       stroke-miterlimit="10"
       stroke-width="2"
       d="M 33.828,24.349 26.9036,37.29"
       id="path22" />
    <path
       fill="none"
       stroke="#000"
       stroke-linecap="round"
       stroke-linejoin="round"
       stroke-miterlimit="10"
       stroke-width="2"
       d="m 52.898,30.082 4.4271,13.054"
       id="path24" />
  </g>
</g></svg>