<svg xmlns="http://www.w3.org/2000/svg" width="24" height="24" viewBox="0 0 24 24"> <g transform="translate(0.9165192729092624 0.0) scale(0.4286649311095268)">
  
  <g
     id="line-supplement"
     transform="translate(-10.143005,-7.9782131)">
    <path
       fill="none"
       stroke="#000"
       stroke-linecap="round"
       stroke-linejoin="round"
       stroke-width="2"
       d="m 33.25,20.94 c 1.554,0.2358 2.192,-0.1519 2.773,-0.5791"
       id="path2" />
    <path
       fill="none"
       stroke="#000"
       stroke-linecap="round"
       stroke-linejoin="round"
       stroke-width="2"
       d="m 28.15,24.68 c 1.554,0.2358 2.192,-0.1519 2.773,-0.5791"
       id="path4" />
    <path
       fill="none"
       stroke="#000"
       stroke-linecap="round"
       stroke-linejoin="round"
       stroke-width="2"
       d="m 23.21,29.39 c 1.554,0.2358 2.192,-0.1519 2.773,-0.5791"
       id="path6" />
    <path
       fill="none"
       stroke="#000"
       stroke-linecap="round"
       stroke-linejoin="round"
       stroke-width="2"
       d="m 28.71,28.8 c 1.554,0.2358 2.192,-0.1519 2.773,-0.5791"
       id="path8" />
    <path
       fill="none"
       stroke="#000"
       stroke-linecap="round"
       stroke-linejoin="round"
       stroke-width="2"
       d="m 19.81,34.05 c 1.554,0.2358 2.192,-0.1519 2.773,-0.5791"
       id="path10" />
    <path
       fill="none"
       stroke="#000"
       stroke-linecap="round"
       stroke-linejoin="round"
       stroke-width="2"
       d="m 25.63,33.71 c 1.554,0.2358 2.192,-0.1519 2.773,-0.5791"
       id="path12" />
    <path
       fill="none"
       stroke="#000"
       stroke-linecap="round"
       stroke-linejoin="round"
       stroke-width="2"
       d="m 15.55,41.42 c 1.554,0.2358 2.192,-0.1519 2.773,-0.5791"
       id="path14" />
    <path
       fill="none"
       stroke="#000"
       stroke-linecap="round"
       stroke-linejoin="round"
       stroke-width="2"
       d="m 19.8,37.88 c 1.554,0.2358 2.192,-0.1519 2.773,-0.5791"
       id="path16" />
    <path
       fill="none"
       stroke="#000"
       stroke-linecap="round"
       stroke-linejoin="round"
       stroke-width="2"
       d="m 40.86,20.34 c 1.145,1.077 1.891,1.12 2.611,1.098"
       id="path18" />
    <path
       fill="none"
       stroke="#000"
       stroke-linecap="round"
       stroke-linejoin="round"
       stroke-width="2"
       d="m 40.54,24.33 c 1.145,1.077 1.891,1.12 2.611,1.098"
       id="path20" />
    <path
       fill="none"
       stroke="#000"
       stroke-linecap="round"
       stroke-linejoin="round"
       stroke-width="2"
       d="m 35.58,25.86 c 1.145,1.077 1.891,1.12 2.611,1.098"
       id="path22" />
    <path
       fill="none"
       stroke="#000"
       stroke-linecap="round"
       stroke-linejoin="round"
       stroke-width="2"
       d="m 37.26,30.42 c 1.145,1.077 1.891,1.12 2.611,1.098"
       id="path24" />
    <path
       fill="none"
       stroke="#000"
       stroke-linecap="round"
       stroke-linejoin="round"
       stroke-width="2"
       d="m 32.12,31.93 c 1.145,1.077 1.891,1.12 2.611,1.098"
       id="path26" />
    <path
       fill="none"
       stroke="#000"
       stroke-linecap="round"
       stroke-linejoin="round"
       stroke-width="2"
       d="m 32.82,36.46 c 1.145,1.077 1.891,1.12 2.611,1.098"
       id="path28" />
    <path
       fill="none"
       stroke="#000"
       stroke-linecap="round"
       stroke-linejoin="round"
       stroke-width="2"
       d="m 27.43,37.62 c 1.145,1.077 1.891,1.12 2.611,1.098"
       id="path30" />
    <path
       fill="none"
       stroke="#000"
       stroke-linecap="round"
       stroke-linejoin="round"
       stroke-width="2"
       d="m 26.62,41.67 c 1.145,1.077 1.891,1.12 2.611,1.098"
       id="path32" />
    <path
       fill="none"
       stroke="#000"
       stroke-linecap="round"
       stroke-linejoin="round"
       stroke-width="2"
       d="m 21.25,42.46 c 1.145,1.077 1.891,1.12 2.611,1.098"
       id="path34" />
    <path
       fill="none"
       stroke="#000"
       stroke-linecap="round"
       stroke-linejoin="round"
       stroke-width="2"
       d="m 17.83,45.31 c 1.145,1.077 1.891,1.12 2.611,1.098"
       id="path36" />
  </g>
  <g
     id="line"
     transform="translate(-10.143005,-7.9782131)">
    <path
       fill="none"
       stroke="#000"
       stroke-linecap="round"
       stroke-width="2"
       d="m 15.18,46.36 c 2.177,2.331 4.22,2.526 4.347,2.538 11.82,1.074 27.92,-16.01 26.88,-28.63 -0.1845,-1.538 -0.9901,-2.714 -2.387,-3.445"
       id="path39" />
    <path
       fill="none"
       stroke="#000"
       stroke-linecap="round"
       stroke-linejoin="round"
       stroke-miterlimit="10"
       stroke-width="2"
       d="m 53.26,55.35 c -1.899,1.899 -4.025,3.447 -6.296,4.644 -0.7534,0.3922 -1.527,0.7534 -2.312,1.073 -3.127,1.259 -6.461,1.899 -9.784,1.899 -6.657,0 -13.31,-2.539 -18.39,-7.616 -10.16,-10.16 -4.489,-20.96 5.666,-31.12 7.42,-7.428 15.19,-12.45 22.79,-10.65 0.5377,0.127 3.531,-1.687 3.003,-4.498 -0.02462,-0.1311 1.098,-0.2277 2.761,0.3031 1.805,0.5762 2.682,1.569 3.53,2.933 -2.569,0.9024 -2.981,4.066 -2.748,4.319 l 1.776,1.928 c 1.147,1.245 2.219,2.672 3.137,4.024 6.853,10.11 5.831,23.8 -3.137,32.76 z"
       id="path41" />
  </g>
</g></svg>