<svg xmlns="http://www.w3.org/2000/svg" width="24" height="24" viewBox="0 0 24 24"> <g transform="translate(0.0 3.052565167783113) scale(0.4804920334520956)">
  
  <g
     id="line"
     transform="translate(-11.1256,-16.0208)">
    <path
       fill="none"
       stroke="#000"
       stroke-linecap="round"
       stroke-linejoin="round"
       stroke-miterlimit="10"
       stroke-width="2"
       d="m 15.2697,22.9178 c -1.7365,0 -3.1441,1.371 -3.1441,3.0622 v 23.2213 c 0,1.6912 1.4076,3.0623 3.1441,3.0623 h 41.6606 c 1.7365,0 3.1441,-1.3711 3.1441,-3.0623 V 25.98 c 0,-1.6912 -1.4076,-3.0622 -3.1441,-3.0622 z"
       id="path2" />
    <line
       x1="47.1521"
       x2="59.617699"
       y1="33.197498"
       y2="33.197498"
       fill="none"
       stroke="#000"
       stroke-linecap="round"
       stroke-linejoin="round"
       stroke-miterlimit="10"
       stroke-width="2"
       id="line4" />
    <line
       x1="12.5823"
       x2="20.628799"
       y1="33.197498"
       y2="33.197498"
       fill="none"
       stroke="#000"
       stroke-linecap="round"
       stroke-linejoin="round"
       stroke-miterlimit="10"
       stroke-width="2"
       id="line6" />
    <circle
       cx="33.852402"
       cy="37.590698"
       r="10"
       fill="none"
       stroke="#000"
       stroke-linecap="round"
       stroke-linejoin="round"
       stroke-miterlimit="10"
       stroke-width="2"
       id="circle8" />
    <circle
       cx="33.852402"
       cy="37.590698"
       r="5"
       fill="none"
       stroke="#000"
       stroke-linecap="round"
       stroke-linejoin="round"
       stroke-miterlimit="10"
       stroke-width="2"
       id="circle10" />
    <path
       fill="none"
       stroke="#000"
       stroke-linecap="round"
       stroke-linejoin="round"
       stroke-miterlimit="10"
       stroke-width="2"
       d="m 27.831,19.1198 v -1.0782 c 0,-0.5638 -0.4692,-1.0208 -1.048,-1.0208 h -7.6766 c -0.5787,0 -1.048,0.457 -1.048,1.0208 v 1.0782"
       id="path12" />
  </g>
</g></svg>