<svg xmlns="http://www.w3.org/2000/svg" width="24" height="24" viewBox="0 0 24 24"> <g transform="translate(3.4777729565885362 0.0) scale(0.4152220399858824)">
  
  <g
     id="line"
     transform="translate(-15.88639,-4.285)">
    <circle
       cx="25.696199"
       cy="14.1787"
       r="3"
       fill="none"
       stroke="#000"
       stroke-miterlimit="10"
       stroke-width="2"
       id="circle2" />
    <polyline
       fill="none"
       stroke="#000"
       stroke-linecap="round"
       stroke-linejoin="round"
       stroke-width="1.6"
       points="22.727 13.085 19.727 5.085 21.727 5.085 25.727 11.085"
       id="polyline4" />
    <polyline
       fill="none"
       stroke="#000"
       stroke-linecap="round"
       stroke-linejoin="round"
       stroke-width="1.6"
       points="28.727 13.085 30.727 10.085 32.727 12.085 28.727 8.085 25.727 11.085"
       id="polyline6" />
    <polyline
       fill="none"
       stroke="#000"
       stroke-linecap="round"
       stroke-linejoin="round"
       stroke-width="1.6"
       points="32.727 12.085 31.727 8.085 28.727 8.085"
       id="polyline8" />
    <circle
       cx="46.612202"
       cy="14.1787"
       r="3"
       fill="none"
       stroke="#000"
       stroke-miterlimit="10"
       stroke-width="2"
       id="circle10" />
    <polyline
       fill="none"
       stroke="#000"
       stroke-linecap="round"
       stroke-linejoin="round"
       stroke-width="1.6"
       points="43.643 13.085 40.643 5.085 42.643 5.085 46.643 11.085"
       id="polyline12" />
    <polyline
       fill="none"
       stroke="#000"
       stroke-linecap="round"
       stroke-linejoin="round"
       stroke-width="1.6"
       points="49.643 13.085 51.643 10.085 53.643 12.085 49.643 8.085 46.643 11.085"
       id="polyline14" />
    <polyline
       fill="none"
       stroke="#000"
       stroke-linecap="round"
       stroke-linejoin="round"
       stroke-width="1.6"
       points="53.643 12.085 52.643 8.085 49.643 8.085"
       id="polyline16" />
    <path
       fill="none"
       stroke="#000"
       stroke-linecap="round"
       stroke-linejoin="round"
       stroke-width="2"
       d="m 29.7274,27.0849 v 4 a 24.3894,24.3894 0 0 0 0.3926,3.9609 l 0.2148,1.0782 c 0.2158,1.0781 0.541,2.8486 0.7217,3.9337 l 1.3418,8.0546 c 0.1807,1.085 0.5439,2.8466 0.8057,3.9151 l 1.747,7.1152 c 0.2618,1.0683 -0.2656,1.9423 -1.1728,1.9423 A 2.6669,2.6669 0 0 1 31.537,59.1738 L 29.3182,51.996 C 28.993,50.9443 28.4911,49.2167 28.201,48.1552 l -1.9472,-7.1406 c -0.29,-1.0615 -0.751,-1.93 -1.0264,-1.93 -0.2754,0 -0.5576,0.8984 -0.627,1.9962 l -1.1464,18.008 a 2.0027,2.0027 0 0 1 -1.7774,1.9961 1.8858,1.8858 0 0 1 -1.6758,-2 l -0.247,-19 a 27.042,27.042 0 0 1 0.3027,-3.9727 l 0.3418,-2.0546 a 29.2506,29.2506 0 0 0 0.3291,-3.9727 v -3"
       id="path18" />
    <path
       fill="none"
       stroke="#000"
       stroke-linecap="round"
       stroke-linejoin="round"
       stroke-width="2"
       d="m 50.7274,27.0849 v 4 a 26.59,26.59 0 0 0 0.36,3.9668 l 0.1953,1.0664 c 0.1982,1.0811 0.5088,2.8545 0.6894,3.94 l 1.3418,8.0546 c 0.1807,1.085 0.544,2.8467 0.8057,3.9151 l 1.748,7.1153 c 0.2617,1.0683 -0.2656,1.9423 -1.1738,1.9423 A 2.6669,2.6669 0 0 1 52.4526,59.1743 L 50.2342,51.996 C 49.909,50.9443 49.4071,49.2167 49.117,48.1552 L 47.17,41.0146 c -0.29,-1.0615 -0.751,-1.93 -1.0264,-1.93 -0.2754,0 -0.5576,0.8984 -0.6269,1.9962 L 44.37,59.0888 a 2.0027,2.0027 0 0 1 -1.7764,1.9961 1.8858,1.8858 0 0 1 -1.6758,-2 l -0.248,-19 a 25.1141,25.1141 0 0 1 0.3291,-3.9678 l 0.373,-2.0644 a 27.0137,27.0137 0 0 0 0.3555,-3.9678 v -3"
       id="path20" />
    <path
       fill="none"
       stroke="#000"
       stroke-linecap="round"
       stroke-linejoin="round"
       stroke-width="2"
       d="M 20.2274,32.8359 17.3426,28.7226 A 2.9346,2.9346 0 0 1 17.4,25.4892 l 2.121,-2.8086 a 4.5462,4.5462 0 0 1 3.2061,-1.5957 h 6 a 3.5548,3.5548 0 0 1 2.8945,1.7891 l 1.211,2.4219 a 3.9983,3.9983 0 0 1 -0.1573,3.49 l -2.6572,4.2987"
       id="path22" />
    <path
       fill="none"
       stroke="#000"
       stroke-linecap="round"
       stroke-linejoin="round"
       stroke-width="2"
       d="m 41.31,33.0849 -3.0537,-4.3613 a 2.94,2.94 0 0 1 0.06,-3.2344 l 2.1211,-2.8086 a 4.5458,4.5458 0 0 1 3.206,-1.5957 h 6 a 3.5547,3.5547 0 0 1 2.8945,1.7891 l 1.211,2.4219 a 4.0814,4.0814 0 0 1 -0.1309,3.5058 l -2.558,4.2832"
       id="path24" />
  </g>
</g></svg>