<svg xmlns="http://www.w3.org/2000/svg" width="24" height="24" viewBox="0 0 24 24"> <g transform="translate(0.000005283983277593052 0.0) scale(0.4594768067786307)">
  
  <g
     id="line"
     transform="translate(-9.8833,-10.766678)">
    <path
       fill="none"
       stroke="#000"
       stroke-linecap="round"
       stroke-linejoin="round"
       stroke-miterlimit="10"
       stroke-width="2"
       d="m 23.4417,49.4417 c 0,6.6685 5.1992,12.1314 11.7797,12.5332 C 35.4851,61.9874 35.7362,62 36,62 c 0.2638,0 0.5149,-0.0126 0.766,-0.0251 13.5128,-0.3893 24.3506,-11.4657 24.3506,-25.0915 0,-13.6258 -10.8379,-24.7022 -24.3506,-25.0915 6.5806,0.4019 11.7923,5.8647 11.7923,12.5332 0,6.9322 -5.6261,12.5583 -12.5583,12.5583 -6.9446,-1e-4 -12.5583,5.626 -12.5583,12.5583 z"
       id="path2" />
    <path
       fill="none"
       stroke="#000"
       stroke-linecap="round"
       stroke-linejoin="round"
       stroke-miterlimit="10"
       stroke-width="2"
       d="m 10.8833,36.8833 c 0,13.6133 10.8253,24.6897 24.3381,25.0915 -6.5806,-0.4018 -11.7797,-5.8647 -11.7797,-12.5332 0,-6.9322 5.6137,-12.5583 12.5583,-12.5583 6.9322,0 12.5583,-5.6261 12.5583,-12.5583 0,-6.6685 -5.2117,-12.1313 -11.7923,-12.5332 -0.2511,-0.0126 -0.5022,-0.0251 -0.766,-0.0251 -0.2638,0 -0.5275,0 -0.7786,0.0251 -13.5128,0.4019 -24.3381,11.4783 -24.3381,25.0915 z"
       id="path4" />
    <circle
       cx="37.3437"
       cy="48.9394"
       r="4.0187001"
       fill="none"
       stroke="#000"
       stroke-miterlimit="10"
       stroke-width="2"
       id="circle6" />
    <circle
       cx="37.3437"
       cy="23.822701"
       r="4.0187001"
       fill="none"
       stroke="#000"
       stroke-miterlimit="10"
       stroke-width="2"
       id="circle8" />
  </g>
</g></svg>