<svg xmlns="http://www.w3.org/2000/svg" width="24" height="24" viewBox="0 0 24 24"> <g transform="translate(0.0 3.327068624999999) scale(0.375)">
  
  <g
     id="line"
     transform="translate(-4,-4.7443664)">
    <polygon
       fill="none"
       stroke="#000"
       stroke-linecap="round"
       stroke-linejoin="round"
       stroke-miterlimit="10"
       stroke-width="2.0358"
       points="57.6865,37 39,5.762 39,37 "
       id="polygon2" />
    <path
       fill="none"
       stroke="#000"
       stroke-linecap="round"
       stroke-linejoin="round"
       stroke-miterlimit="10"
       stroke-width="2"
       d="M 54.1187,49.81 C 57.1187,46.81 59,42 59,42 H 16 c 0,0 -1.2082,4.8375 2.7918,7.8375"
       id="path4" />
    <polygon
       fill="none"
       stroke="#000"
       stroke-linecap="round"
       stroke-linejoin="round"
       stroke-miterlimit="10"
       stroke-width="2"
       points="23.7378,37 35.2622,13 35.2622,37 "
       id="polygon6" />
    <line
       x1="39"
       x2="39"
       y1="6"
       y2="42"
       fill="none"
       stroke="#000"
       stroke-linecap="round"
       stroke-linejoin="round"
       stroke-miterlimit="10"
       stroke-width="2.0358"
       id="line8" />
    <path
       fill="none"
       stroke="#000"
       stroke-linecap="round"
       stroke-linejoin="round"
       stroke-miterlimit="10"
       stroke-width="2"
       d="m 5,47 c 3,0 9,3 15,3 6,0 10,-3 16,-3 6,0 11,3 16,3 5,0 7,-3 15,-3"
       id="path10" />
  </g>
</g></svg>