<svg xmlns="http://www.w3.org/2000/svg" width="24" height="24" viewBox="0 0 24 24"> <g transform="translate(2.4968310891335967 0.0) scale(0.5001667847824423)">
  
  <g
     id="line"
     transform="translate(-17,-13.016006)">
    <path
       fill="none"
       stroke="#000"
       stroke-linecap="round"
       stroke-linejoin="round"
       stroke-width="2"
       d="m 26,40 c -6,0 -5,-16 -2,-20 6,-8 18,-8 24,0 3,4 4,20 -2,20"
       id="path2" />
    <path
       fill="none"
       stroke="#000"
       stroke-linecap="round"
       stroke-linejoin="round"
       stroke-width="2"
       d="m 18,60 v -3.1 c 0,-5 3.8,-9 8.8,-9 6,5 12,5 18,0 5,0 9.2,4 9.2,9 V 60"
       id="path4" />
    <path
       d="m 42,33 c 0,1.1 -0.9,2 -2,2 -1.1,0 -2,-0.9 -2,-2 0,-1.1 0.9,-2 2,-2 1.1,0 2,0.9 2,2"
       id="path6" />
    <path
       d="m 34,33 c 0,1.1 -0.9,2 -2,2 -1.1,0 -2,-0.9 -2,-2 0,-1.1 0.9,-2 2,-2 1.1,0 2,0.9 2,2"
       id="path8" />
    <path
       fill="none"
       stroke="#000"
       stroke-linejoin="round"
       stroke-width="2"
       d="m 25,34 c 0,8 4.8,11.9 10.8,11.9 6,0 11.2,-3.9 11.2,-11.9 0,-5.9 -2.2,-9.2 -2.2,-9.2 -2,0 -5.8,-3.5 -5.8,-3.5 0,0 -8.2,5.5 -12.8,5.5 0,0 -1.2,1.2 -1.2,7.2 z"
       id="path10" />
    <path
       fill="none"
       stroke="#000"
       stroke-linecap="round"
       stroke-linejoin="round"
       stroke-width="2"
       d="m 32.8,39.2 c 1.9,1 4.1,1 6,0"
       id="path12" />
  </g>
</g></svg>