<svg xmlns="http://www.w3.org/2000/svg" width="24" height="24" viewBox="0 0 24 24"> <g transform="translate(3.724137931034482 0.0) scale(0.41379310344827586)">
  
  <g
     id="line"
     transform="translate(-16,-7)">
    <path
       fill="none"
       stroke="#000"
       stroke-linecap="round"
       stroke-linejoin="round"
       stroke-miterlimit="10"
       stroke-width="2"
       d="M 31,34 C 23.7275,32.0908 21,24.4546 21,19.6816 21,14.9092 21,13 21,13"
       id="path2" />
    <path
       fill="none"
       stroke="#000"
       stroke-linecap="round"
       stroke-linejoin="round"
       stroke-miterlimit="10"
       stroke-width="2"
       d="m 21,59 c 0,0 0,-1.9092 0,-6.6816 C 21,47.5459 23.7275,39.9092 31,38"
       id="path4" />
    <path
       fill="none"
       stroke="#000"
       stroke-linecap="round"
       stroke-linejoin="round"
       stroke-miterlimit="10"
       stroke-width="2"
       d="m 31,38 c 1,-0.2715 2,-0.8945 2,-2 0,-1.1045 -1,-1.7285 -2,-2"
       id="path6" />
    <path
       fill="none"
       stroke="#000"
       stroke-linecap="round"
       stroke-linejoin="round"
       stroke-miterlimit="10"
       stroke-width="2"
       d="M 41,34 C 48.2725,32.0908 51,24.4546 51,19.6816 51,14.9092 51,13 51,13"
       id="path8" />
    <path
       fill="none"
       stroke="#000"
       stroke-linecap="round"
       stroke-linejoin="round"
       stroke-miterlimit="10"
       stroke-width="2"
       d="m 51,59 c 0,0 0,-1.9092 0,-6.6816 C 51,47.5459 48.2725,39.9092 41,38"
       id="path10" />
    <path
       fill="none"
       stroke="#000"
       stroke-linecap="round"
       stroke-linejoin="round"
       stroke-miterlimit="10"
       stroke-width="2"
       d="m 41,38 c -1,-0.2715 -2,-0.8945 -2,-2 0,-1.1045 1,-1.7285 2,-2"
       id="path12" />
    <path
       fill="none"
       stroke="#000"
       stroke-linecap="round"
       stroke-linejoin="round"
       stroke-miterlimit="10"
       stroke-width="2"
       d="m 55,11 c 0,1.1001 -0.9004,2 -2,2 H 19 c -1.0996,0 -2,-0.8999 -2,-2 v -1 c 0,-1.1001 0.9004,-2 2,-2 h 34 c 1.0996,0 2,0.8999 2,2 z"
       id="path14" />
    <path
       fill="none"
       stroke="#000"
       stroke-linecap="round"
       stroke-linejoin="round"
       stroke-miterlimit="10"
       stroke-width="2"
       d="m 55,62 c 0,1.0996 -0.9004,2 -2,2 H 19 c -1.0996,0 -2,-0.9004 -2,-2 v -1 c 0,-1.0996 0.9004,-2 2,-2 h 34 c 1.0996,0 2,0.9004 2,2 z"
       id="path16" />
    <line
       x1="29"
       x2="43"
       y1="43"
       y2="43"
       fill="none"
       stroke="#000"
       stroke-linecap="round"
       stroke-linejoin="round"
       stroke-miterlimit="10"
       stroke-width="2"
       id="line18" />
  </g>
</g></svg>