<svg xmlns="http://www.w3.org/2000/svg" width="24" height="24" viewBox="0 0 24 24"> <g transform="translate(0.5118665067177233 0.0) scale(0.447117811519275)">
  
  <g
     id="line"
     transform="translate(-15.699001,-8.2478715)">
    <path
       fill="none"
       stroke="#000"
       stroke-linecap="round"
       stroke-linejoin="round"
       stroke-miterlimit="10"
       stroke-width="2"
       d="m 18.1626,44.3604 -0.5604,-0.9195 c -2.6609,-6.0766 2.4972,-11.6756 2.5705,-15.8271 -0.8655,-24.0713 20.8962,-19 22.6507,-14.9215 7.1623,-0.2473 7.9426,8.3925 8.0662,14.6002 1.5104,2.9436 2.5194,5.4658 3.0728,7.6563"
       id="path2" />
    <path
       fill="none"
       stroke="#000"
       stroke-linecap="round"
       stroke-linejoin="round"
       stroke-miterlimit="10"
       stroke-width="2"
       d="m 40.9975,15.8576 c -2.0473,3.6729 -11.675,8.6145 -16.3735,10.7562 l 0.0874,0.0102 c -0.078,0.6711 -0.1184,1.3574 -0.1184,2.0556 0,7.8276 5.0765,14.1732 11.3386,14.1732 6.2622,0 11.3386,-6.3456 11.3386,-14.1732 0,-1.1582 -0.1111,-2.2839 -0.3208,-3.3614 -0.7817,-4.0177 -2.9333,-7.3653 -5.8015,-9.2263"
       id="path4" />
    <path
       d="m 41.9318,26.9963 c 0,1.1045 -0.8965,2 -2,2 -1.1035,0 -2,-0.8955 -2,-2 0,-1.1035 0.8965,-2 2,-2 1.1035,0 2,0.8965 2,2"
       id="path6" />
    <path
       d="m 33.9318,26.9963 c 0,1.1045 -0.8965,2 -2,2 -1.1035,0 -2,-0.8955 -2,-2 0,-1.1035 0.8965,-2 2,-2 1.1035,0 2,0.8965 2,2"
       id="path8" />
    <path
       d="m 35.9316,36.9987 c -1.1518,0 -2.3037,-0.2861 -3.4472,-0.8579 -0.4942,-0.247 -0.6944,-0.8476 -0.4473,-1.3418 0.2466,-0.4936 0.8462,-0.6943 1.3418,-0.4472 1.7178,0.8593 3.3877,0.8593 5.1055,0 0.4946,-0.2471 1.0947,-0.0464 1.3418,0.4472 0.247,0.4942 0.0468,1.0948 -0.4473,1.3418 -1.1436,0.5718 -2.2954,0.8579 -3.4473,0.8579 z"
       id="path10" />
    <path
       fill="none"
       stroke="#000"
       stroke-linecap="round"
       stroke-linejoin="round"
       stroke-miterlimit="10"
       stroke-width="2"
       d="m 33.4574,48.4979 c 0,0 -1.2064,6.0214 2.3072,6.0214 3.5136,0 2.3073,-6.0214 2.3073,-6.0214"
       id="path12" />
    <line
       x1="44.702099"
       x2="38.962299"
       y1="55.592201"
       y2="57.879902"
       fill="none"
       stroke="#000"
       stroke-linecap="round"
       stroke-linejoin="round"
       stroke-miterlimit="10"
       stroke-width="2"
       id="line14" />
    <path
       fill="none"
       stroke="#000"
       stroke-linecap="round"
       stroke-linejoin="round"
       stroke-miterlimit="10"
       stroke-width="2"
       d="m 16.8271,57.8491 c 0,0 -2,-13 10,-13 3.1919,2.1279 5.9264,3.5984 9,3.5921 h -0.125 c 3.0736,0.0063 5.8082,-1.4642 9,-3.5921"
       id="path16" />
    <polyline
       fill="none"
       stroke="#000"
       stroke-linecap="round"
       stroke-linejoin="round"
       stroke-miterlimit="10"
       stroke-width="2"
       points="34.9142,54.5193 32.4991,57.8736 26.8271,44.8891 22.8698,53.3328 32.3275,57.8736"
       id="polyline18" />
    <polyline
       fill="none"
       stroke="#000"
       stroke-linecap="round"
       stroke-linejoin="round"
       stroke-miterlimit="10"
       stroke-width="2"
       points="44.7021,44.8491 39.0302,57.8736 36.615,54.5193"
       id="polyline20" />
    <polygon
       fill="none"
       stroke="#000"
       stroke-linecap="round"
       stroke-linejoin="round"
       stroke-miterlimit="10"
       stroke-width="2"
       points="48.057,42.2891 59.8822,42.2891 59.8822,44.4015 62.6646,44.4015 62.6646,60.925 48.057,60.925 "
       id="polygon22" />
    <polyline
       fill="none"
       stroke="#000"
       stroke-linecap="round"
       stroke-linejoin="round"
       stroke-miterlimit="10"
       stroke-width="2"
       points="51.2611,38.8261 66.0865,38.8261 66.0865,57.462"
       id="polyline24" />
    <line
       x1="59.882198"
       x2="62.6646"
       y1="42.289101"
       y2="44.401501"
       fill="none"
       stroke="#000"
       stroke-linecap="round"
       stroke-linejoin="round"
       stroke-miterlimit="10"
       stroke-width="2"
       id="line26" />
    <line
       x1="51.001499"
       x2="59.4342"
       y1="48.497898"
       y2="48.497898"
       fill="none"
       stroke="#000"
       stroke-linecap="round"
       stroke-linejoin="round"
       stroke-miterlimit="10"
       stroke-width="2"
       id="line28" />
    <line
       x1="51.001499"
       x2="59.4342"
       y1="52.5942"
       y2="52.5942"
       fill="none"
       stroke="#000"
       stroke-linecap="round"
       stroke-linejoin="round"
       stroke-miterlimit="10"
       stroke-width="2"
       id="line30" />
    <line
       x1="51.001499"
       x2="59.4342"
       y1="56.178501"
       y2="56.178501"
       fill="none"
       stroke="#000"
       stroke-linecap="round"
       stroke-linejoin="round"
       stroke-miterlimit="10"
       stroke-width="2"
       id="line32" />
  </g>
</g></svg>