<svg xmlns="http://www.w3.org/2000/svg" width="24" height="24" viewBox="0 0 24 24"> <g transform="translate(2.288072459262473 0.0) scale(0.41204684890262655)">
  
  <g
     id="line"
     transform="translate(-13.1816,-6.6751959)">
    <path
       fill="none"
       stroke="#000"
       stroke-linecap="round"
       stroke-linejoin="round"
       stroke-width="2"
       d="m 45.3656,37.4681 v 16.5553 a 0.919,0.919 0 0 1 -0.9727,0.9727 H 18.0135 A 0.9747,0.9747 0 0 1 17.0408,54.0234 V 15.117 a 0.9748,0.9748 0 0 1 0.9727,-0.9727 H 31.572"
       id="path2" />
    <circle
       cx="31.203199"
       cy="59.2523"
       r="1.9453"
       fill="#000"
       id="circle4" />
    <line
       x1="33.334499"
       x2="26.339899"
       y1="11.2263"
       y2="11.2263"
       fill="none"
       stroke="#000"
       stroke-linecap="round"
       stroke-linejoin="round"
       stroke-width="2"
       id="line6" />
    <path
       fill="none"
       stroke="#000"
       stroke-linecap="round"
       stroke-linejoin="round"
       stroke-width="2"
       d="m 48.2248,36.861 v 23.38 a 3.6908,3.6908 0 0 1 -3.68,3.68 H 17.8616 a 3.6908,3.6908 0 0 1 -3.68,-3.68 V 11.6587 a 3.6908,3.6908 0 0 1 3.68,-3.68 h 19.1092"
       id="path8" />
    <polyline
       fill="none"
       stroke="#000"
       stroke-linecap="round"
       stroke-linejoin="round"
       stroke-width="2.5"
       points="46.892 26.339 46.892 20.594 43.989 20.594"
       id="polyline10" />
    <line
       x1="49.6516"
       x2="43.922798"
       y1="26.3389"
       y2="26.3389"
       fill="none"
       stroke="#000"
       stroke-linecap="round"
       stroke-linejoin="round"
       stroke-width="2.5"
       id="line12" />
    <circle
       cx="46.588699"
       cy="15.602"
       r="1.9093"
       id="circle14" />
    <path
       fill="none"
       stroke="#000"
       stroke-linecap="round"
       stroke-linejoin="round"
       stroke-width="2"
       d="M 46.2851,7.6752 A 13.0261,13.0261 0 0 0 37.2562,30.1 l -2.6037,8.36 7.0766,-5.5479 A 13.03,13.03 0 1 0 46.2851,7.676 Z"
       id="path16" />
  </g>
</g></svg>