<svg xmlns="http://www.w3.org/2000/svg" width="24" height="24" viewBox="0 0 24 24"> <g transform="translate(0.0 0.6133922270734278) scale(0.45102038005119566)">
  
  <g
     id="line"
     transform="translate(-8.2062782,-10.40525)">
    <path
       fill="none"
       stroke="#000"
       stroke-linecap="round"
       stroke-linejoin="round"
       stroke-width="1.6969"
       d="m 51.282,11.2537 h 8.4751"
       id="path2" />
    <path
       fill="none"
       stroke="#000"
       stroke-linecap="round"
       stroke-linejoin="round"
       stroke-width="1.6969"
       d="M 55.52,16.0509 V 11.2537"
       id="path4" />
    <path
       fill="none"
       stroke="#000"
       stroke-linecap="round"
       stroke-linejoin="round"
       stroke-width="1.6969"
       d="m 60.5705,16.0509 h -10.619 c -6.32,0 -6.8361,5.03 -6.8361,6.8361 a 0.6093,0.6093 0 0 0 0.6449,0.6449 h 3.2246 a 0.6858,0.6858 0 0 0 0.6449,-0.58 2.4934,2.4934 0 0 1 2.3862,-2.4507 h 9.7792"
       id="path6" />
    <path
       fill="none"
       stroke="#000"
       stroke-linecap="round"
       stroke-linejoin="round"
       stroke-width="2"
       d="M 22.3057,43.46 20.1085,43.4421 24.33,32.7574 c 0,0 0.2165,-2.3313 -2.3853,-1.3887 L 11.8579,44.22 a 12.058,12.058 0 0 0 -2.595,6.2619 9.8694,9.8694 0 0 0 0.6683,4.7683 c 1.969,4.7126 9.05,4.7192 10.9623,4.6249"
       id="path8" />
    <path
       fill="none"
       stroke="#000"
       stroke-linecap="round"
       stroke-linejoin="round"
       stroke-width="2"
       d="m 22.0851,43.4667 h 13.2555 c 0,0 2.3684,0.7844 0.99,3.2393"
       id="path10" />
    <path
       fill="none"
       stroke="#000"
       stroke-linecap="round"
       stroke-linejoin="round"
       stroke-width="2"
       d="m 24.5867,47.5478 h 11.5411 c 0,0 1.5118,0.5235 1.5118,1.8715 0,1.348 -1.5118,1.9124 -1.5118,1.9124"
       id="path12" />
    <path
       fill="none"
       stroke="#000"
       stroke-linecap="round"
       stroke-linejoin="round"
       stroke-width="2"
       d="m 24.555,51.8335 h 10.7856 c 0,0 1.6246,-0.3709 1.6246,1.6247 A 2.06,2.06 0 0 1 35.411,55.7088 H 24.8733"
       id="path14" />
    <path
       fill="none"
       stroke="#000"
       stroke-linecap="round"
       stroke-linejoin="round"
       stroke-width="2"
       d="m 32.8166,56.0638 a 2.5062,2.5062 0 0 1 0.6313,2.1731 1.6922,1.6922 0 0 1 -1.4447,1.6386 h -6.635"
       id="path16" />
    <path
       fill="none"
       stroke="#000"
       stroke-linecap="round"
       stroke-linejoin="round"
       stroke-width="2"
       d="m 25.7505,29.8135 a 5.9717,5.9717 0 0 1 5.7644,0.1979 c 1.6539,0.827 3.4629,3.4935 2.9111,5.862 a 10.3082,10.3082 0 0 1 -1.9485,3.4244 3.1616,3.1616 0 0 1 1.8938,1.7615"
       id="path18" />
    <path
       fill="none"
       stroke="#000"
       stroke-linecap="round"
       stroke-linejoin="round"
       stroke-width="2"
       d="m 30.49,33.2178 a 4.5106,4.5106 0 0 0 -3.6907,0.2887"
       id="path20" />
    <path
       fill="none"
       stroke="#000"
       stroke-linecap="round"
       stroke-linejoin="round"
       stroke-width="2"
       d="m 37.1616,32.5014 7.2316,-3.136 c 0,0 1.9978,-0.3741 1.9809,1.1825 a 2.2545,2.2545 0 0 1 -0.8417,1.6578 L 37.64,38.91 l 4.2228,2.3918"
       id="path22" />
    <path
       fill="none"
       stroke="#000"
       stroke-linecap="round"
       stroke-linejoin="round"
       stroke-width="2"
       d="m 41.4471,41.0756 8.9029,4.8488 a 1.9542,1.9542 0 0 1 1.0656,1.6513 1.7322,1.7322 0 0 1 -0.18,0.79 c -0.5359,1.088 -2.2139,1.0566 -2.2139,1.0566"
       id="path24" />
    <path
       fill="none"
       stroke="#000"
       stroke-linecap="round"
       stroke-linejoin="round"
       stroke-width="2"
       d="m 39.6555,44.503 9.3653,4.9194 a 2.7486,2.7486 0 0 1 1.4164,1.7007 1.8324,1.8324 0 0 1 -0.2335,1.5236 c -0.9176,1.39 -2.8989,1.0031 -2.8989,1.0031"
       id="path26" />
    <path
       fill="none"
       stroke="#000"
       stroke-linecap="round"
       stroke-linejoin="round"
       stroke-width="2"
       d="m 39.75,49.8512 7.3481,3.6688 a 1.8386,1.8386 0 0 1 0.6977,2.8514 1.618,1.618 0 0 1 -2.2849,0.543 l -6.7306,-2.98"
       id="path28" />
    <path
       fill="none"
       stroke="#000"
       stroke-linecap="round"
       stroke-linejoin="round"
       stroke-width="2"
       d="m 43.0189,55.8106 c 0,0 0.5473,1.9473 -0.3485,2.74 a 2.1873,2.1873 0 0 1 -0.6937,0.4152 2.3753,2.3753 0 0 1 -1.8,-0.1132 l -3.4154,-1.5581"
       id="path30" />
    <circle
       cx="38.740398"
       cy="26.4445"
       r="2.1972001"
       fill="none"
       stroke="#000"
       stroke-linecap="round"
       stroke-linejoin="round"
       stroke-width="2"
       id="circle32" />
    <circle
       cx="29.7967"
       cy="22.2945"
       r="2.8655"
       fill="none"
       stroke="#000"
       stroke-linecap="round"
       stroke-linejoin="round"
       stroke-width="2"
       id="circle34" />
  </g>
</g></svg>