<svg xmlns="http://www.w3.org/2000/svg" width="24" height="24" viewBox="0 0 24 24"> <g transform="scale(0.5)">
  
  <g
     id="line"
     transform="translate(-12,-12)">
    <circle
       cx="36"
       cy="36"
       r="23"
       fill="none"
       stroke="#000"
       stroke-linecap="round"
       stroke-linejoin="round"
       stroke-width="2"
       id="circle2" />
    <path
       fill="none"
       stroke="#000"
       stroke-linecap="round"
       stroke-linejoin="round"
       stroke-width="2"
       d="m 50.595,41.64 c 0.012,1.5397 -0.2838,3.0662 -0.87,4.49 -12.49,3.03 -25.43,0.34 -27.49,-0.13 -0.5588,-1.3852 -0.8407,-2.8664 -0.83,-4.36 h 0.11 c 0,0 14.8,3.59 28.89,0.07 z"
       id="path4" />
    <path
       fill="none"
       stroke="#000"
       stroke-linecap="round"
       stroke-linejoin="round"
       stroke-width="2"
       d="m 49.7251,46.13 c -1.79,4.27 -6.35,7.23 -13.69,7.23 -7.41,0 -12.03,-3.03 -13.8,-7.36 2.06,0.47 14.9999,3.16 27.49,0.13 z"
       id="path6" />
    <path
       d="m 30,31 c 0,1.6568 -1.3448,3 -3,3 -1.6553,0 -3,-1.3433 -3,-3 0,-1.6552 1.3447,-3 3,-3 1.6552,0 3,1.3448 3,3"
       id="path8" />
    <path
       d="m 48,31 c 0,1.6568 -1.3447,3 -3,3 -1.6553,0 -3,-1.3433 -3,-3 0,-1.6552 1.3447,-3 3,-3 1.6553,0 3,1.3448 3,3"
       id="path10" />
  </g>
</g></svg>