<svg xmlns="http://www.w3.org/2000/svg" width="24" height="24" viewBox="0 0 24 24"> <g transform="translate(2.3615851337089104 0.0) scale(0.4819207433145545)">
  
  <g
     id="line"
     transform="translate(-16,-11.099279)">
    <path
       fill="none"
       stroke="#000"
       stroke-linecap="round"
       stroke-linejoin="round"
       stroke-width="2"
       d="m 17,59.9 v -3 c 0,-5 5,-9 10,-9 6,5 12,5 18,0 5,0 10,4 10,9 v 3"
       id="path2" />
    <path
       d="m 42,29.9 c 0,1.1 -0.9,2 -2,2 -1.1,0 -2,-0.9 -2,-2 0,-1.1 0.9,-2 2,-2 1.1,0 2,0.9 2,2"
       id="path4" />
    <path
       d="m 34,29.9 c 0,1.1 -0.9,2 -2,2 -1.1,0 -2,-0.9 -2,-2 0,-1.1 0.9,-2 2,-2 1.1,0 2,0.9 2,2"
       id="path6" />
    <path
       fill="none"
       stroke="#000"
       stroke-linecap="round"
       stroke-linejoin="round"
       stroke-width="2"
       d="m 33,38.1 c 1.9,1 4.1,1 6,0"
       id="path8" />
    <path
       fill="none"
       stroke="#000"
       stroke-linecap="round"
       stroke-linejoin="round"
       stroke-width="2"
       d="M 28.8,41.5 C 26.3,38.6 25,34.8 25.1,31 c 0,-1.6 0.3,-3.1 0.8,-4.6 2.2,0.3 3.4,-0.3 4,-0.9 0.8,-0.7 1.4,-1.6 2,-2.4 1,0.4 2,0.6 3.1,0.6 1,-0.1 1.9,-0.6 2.6,-1.4 1.2,0.9 2.7,1.2 4.2,0.9 1.1,-0.2 2,-0.8 2.8,-1.6 1.6,2.9 2.5,6.1 2.7,9.4 0,8 -5.1,14 -11.1,14 -2.9,0 -5.6,-1.3 -7.4,-3.5 z"
       id="path10" />
    <path
       fill="none"
       stroke="#000"
       stroke-linecap="round"
       stroke-linejoin="round"
       stroke-width="2"
       d="M 19.9,46.9 C 19.8,45.2 20.2,43.6 21.1,42.1 17.4,39.2 19.8,35 19.8,35 17.7,33.4 17.4,30.4 19,28.4 c 0.1,-0.1 0.2,-0.2 0.2,-0.3 -0.5,-1.1 -0.6,-2.4 -0.4,-3.6 0.3,-1.1 0.8,-2 1.6,-2.8 -0.5,-1.5 -0.2,-3.1 0.8,-4.2 0.9,-0.9 2.1,-1.4 3.3,-1.4 0.5,-2 2.6,-3.3 4.6,-2.8 0.6,0.2 1.2,0.5 1.6,0.9 1.7,-2.3 4.9,-2.8 7.2,-1.1 0.2,0.2 0.4,0.3 0.6,0.5 1,-1 2.4,-1.4 3.8,-1.2 1.5,0.3 2.8,1.3 3.5,2.8 2.1,-0.5 4.2,0.8 4.7,2.9 0.1,0.5 0.1,1 0,1.6 0,0 3.5,2.3 1.2,6.6 2.2,2 2.4,5.3 0.5,7.5 0,0 2.9,3.7 -0.7,6.3 1.6,1.7 1.6,4.4 -0.1,6 -0.1,0.1 -0.1,0.1 -0.2,0.2 l 0.8,1.6"
       id="path12" />
  </g>
</g></svg>