<svg xmlns="http://www.w3.org/2000/svg" width="24" height="24" viewBox="0 0 24 24"> <g transform="translate(0.0 0.2669387806495731) scale(0.4620716299975285)">
  
  <g
     id="line"
     transform="translate(-9.83,-9.1698676)">
    <path
       d="m 27.57,15.9098 c 0.24,0.61 0.54,1.31 1.09,2 h -2.38 c -0.26,-0.48 -0.44,-0.9301 -0.59,-1.3 -0.33,0.43 -0.61,0.87 -0.85,1.3 H 11.83 v 32.29 h 2.06 c 0.55,0 1,0.44 1,1 0,0.55 -0.45,1 -1,1 h -3.06 c -0.55,0 -1,-0.45 -1,-1 v -34.29 c 0,-0.55 0.45,-1 1,-1 z"
       id="path2" />
    <path
       d="m 61.77,16.9098 v 34.29 c 0,0.55 -0.45,1 -1,1 h -2.59 c -0.55,0 -1,-0.45 -1,-1 0,-0.56 0.45,-1 1,-1 h 1.59 v -32.29 H 47.55 c -0.55,-0.67 -1.21,-1.33 -1.98,-2 h 15.2 c 0.55,0 1,0.4499 1,1 z"
       id="path4" />
    <path
       d="m 41.953,27.171 c 0,1.1045 -0.8965,2 -2,2 -1.1035,0 -2,-0.8955 -2,-2 0,-1.1035 0.8965,-2 2,-2 1.1035,0 2,0.8965 2,2"
       id="path6" />
    <path
       d="m 33.953,27.171 c 0,1.1045 -0.8965,2 -2,2 -1.1035,0 -2,-0.8955 -2,-2 0,-1.1035 0.8965,-2 2,-2 1.1035,0 2,0.8965 2,2"
       id="path8" />
    <path
       d="m 35.9528,37.1734 c -1.1518,0 -2.3037,-0.2861 -3.4472,-0.8579 -0.4942,-0.2471 -0.6944,-0.8476 -0.4473,-1.3418 0.2466,-0.4936 0.8462,-0.6943 1.3418,-0.4473 1.7178,0.8594 3.3877,0.8594 5.1055,0 0.4946,-0.247 1.0947,-0.0463 1.3418,0.4473 0.247,0.4942 0.0468,1.0947 -0.4473,1.3418 -1.1436,0.5718 -2.2954,0.8579 -3.4473,0.8579 z"
       id="path10" />
    <path
       d="m 48.15,26.2997 c 0,0.56 -0.45,1 -1,1 h -1.96 v 1.24 c 0,2.11 -1.71,3.82 -3.81,3.82 h -2.01 c -1.55,0 -2.88,-0.93 -3.48,-2.25 -0.6,1.32 -1.94,2.25 -3.48,2.25 H 30.4 c -2.11,0 -3.82,-1.71 -3.82,-3.82 v -1.24 h -0.69 c -0.45,0 -0.83,-0.3 -0.95,-0.71 0.23,-0.38 0.44,-0.8 0.62,-1.23 0.1,-0.04 0.21,-0.06 0.33,-0.06 h 1.69 c 0.05,0 0.1,0 0.15,0.01 0.49,0.08 0.85,0.49 0.85,0.99 v 2.24 c 0,1 0.82,1.82 1.82,1.82 h 2.01 c 1,0 1.81,-0.82 1.81,-1.82 v -1.1 c 0,-0.55 0.45,-1 1,-1 h 1.33 c 0.56,0 1,0.45 1,1 v 1.1 c 0,1 0.82,1.82 1.82,1.82 h 2.01 c 1,0 1.81,-0.82 1.81,-1.82 v -2.24 c 0,-0.55 0.45,-1 1,-1 h 2.96 c 0.55,0 1,0.4501 1,1 z"
       id="path12" />
    <path
       fill="none"
       stroke="#000"
       stroke-linecap="round"
       stroke-linejoin="round"
       stroke-miterlimit="10"
       stroke-width="2"
       d="m 24.6104,28.5345 c 0,0.04 0,0.09 0,0.13 0.06,7.76 5.11,14.04 11.34,14.04 6.2,0 11.25,-6.24 11.34,-13.96 0,-0.07 0,-0.14 0,-0.21 0,-1.16 -0.11,-2.29 -0.32,-3.36 -0.21,-1.07 -0.51,-2.08 -0.89,-3.03"
       id="path14" />
    <path
       d="m 48.32,29.5598 c -0.18,0.13 -0.39,0.19 -0.6,0.19 -0.3,0 -0.61,-0.13 -0.8,-0.4 -0.33,-0.44 -0.24,-1.07 0.2,-1.4 0.12,-0.09 2.58,-1.98 2.58,-5.01 0,-0.44 -0.05,-0.91 -0.17,-1.39 -0.28,-1.2 -0.95,-2.42 -1.98,-3.64 -0.55,-0.67 -1.21,-1.33 -1.98,-2 -0.9,-0.79 -1.95,-1.58 -3.14,-2.36 -5.04,-3.63 -12.69,-2.64 -14.66,-0.13 -0.28,0.39 -0.44,0.89 -0.43,1.4 0,0.31 0.06,0.64 0.17,0.92 0.02,0.06 0.04,0.11 0.06,0.17 0.24,0.61 0.54,1.31 1.09,2 0.1,0.1299 0.21,0.25 0.33,0.3799 2.53,2.67 8.26,3.63 17,2.85 0.42,-0.04 0.84,-0.08 1.28,-0.12 l 0.23,-0.02 c 0.53,-0.05 1.03,0.35 1.09,0.9 0.05,0.55 -0.35,1.04 -0.9,1.09 l -0.23,0.02 c -0.44,0.05 -0.88,0.09 -1.3,0.12 -8.23,0.74 -13.89,-0.01 -17.23,-2.3 -0.52,-0.34 -0.98,-0.73 -1.39,-1.16 -0.14,-0.15 -0.27,-0.3 -0.39,-0.44 -0.37,-0.45 -0.65,-0.9 -0.87,-1.3199 -0.26,-0.48 -0.44,-0.9301 -0.59,-1.3 -0.01,-0.05 -0.03,-0.09 -0.05,-0.14 -0.07,-0.1801 -0.12,-0.37 -0.16,-0.56 -0.1,-0.36 -0.14,-0.72 -0.14,-1.08 0,-0.29 0.02,-0.58 0.08,-0.86 0.11,-0.62 0.36,-1.22 0.75,-1.75 2.56,-3.26 11.35,-4.67 17.4,-0.32 1.99,1.31 3.62,2.65 4.88,4.01 0.62,0.66 1.15,1.33 1.59,2 0.7,1.05 1.18,2.11 1.43,3.17 1.25,5.13 -2.97,8.3399 -3.15,8.48 z"
       id="path16" />
    <path
       d="m 28.27,18.0898 c -0.55,-0.07 -1.04,0.34 -1.09,0.89 0,0.01 -0.01,0.09 -0.03,0.25 -0.11,0.84 -0.55,3.73 -1.59,6.13 -0.18,0.43 -0.39,0.85 -0.62,1.23 -0.21,0.36 -0.44,0.7 -0.69,1 -0.33,-0.65 -0.74,-1.84 -0.84,-3.41 -0.11,-1.67 0.1,-3.94 1.4301,-6.27 0.24,-0.4301 0.52,-0.8701 0.85,-1.3 0.18,-0.23 0.37,-0.47 0.58,-0.7 0.11,-0.13 0.22,-0.25 0.34,-0.38 0.38,-0.4 0.36,-1.03 -0.04,-1.41 -0.32,-0.3 -0.78,-0.35 -1.15,-0.15 -0.1,0.04 -0.19,0.11 -0.27,0.19 -0.54,0.5699 -1.01,1.16 -1.42,1.75 -0.46,0.66 -0.84,1.33 -1.14,2 -1.9,4.0699 -1.2401,8.08 -0.31,10.18 0.55,1.26 1.21,1.9 1.97,1.9 0,0 0.01,0 0.02,0 0.44,0 0.83,-0.24 1.07,-0.64 0.47,-0.46 0.8799,-1.01 1.24,-1.6201 0.46,-0.75 0.83,-1.58 1.15,-2.42 0.61,-1.63 0.98,-3.3 1.2,-4.48 0.16,-0.93 0.23,-1.56 0.24,-1.64 C 29.22,18.6398 28.82,18.1498 28.27,18.0898 Z"
       id="path18" />
    <path
       fill="none"
       stroke="#000"
       stroke-linecap="round"
       stroke-linejoin="round"
       stroke-miterlimit="10"
       stroke-width="2"
       d="m 16.8904,58.0245 c 0,0 -2,-13 10,-13 0.05,0.04 0.11,0.07 0.16,0.1 3.08,2.05 5.75,3.46 8.72,3.49 0.01,0 0.02,0 0.03,0 h 0.09 c 2.93,-0.03 5.56,-1.4 8.59,-3.4 0.1,-0.06 0.19,-0.12 0.29,-0.19 3.99,0 6.43,1.44 7.92,3.36 l 0.78,1.26"
       id="path20" />
    <polygon
       fill="none"
       stroke="#000"
       stroke-linecap="round"
       stroke-linejoin="round"
       stroke-miterlimit="10"
       stroke-width="2"
       points="35.7404,57.3545 29.8504,58.9545 29.9404,54.1645 24.3204,54.4045 26.8904,45.3645 35.7404,57.1945 35.8304,57.3245 "
       id="polygon22" />
    <polygon
       fill="none"
       stroke="#000"
       stroke-linecap="round"
       stroke-linejoin="round"
       stroke-miterlimit="10"
       stroke-width="2"
       points="35.7404,57.3545 41.6204,58.9545 41.5304,54.1645 47.1504,54.4045 44.5804,45.3645 35.7404,57.1945 35.6404,57.3245 "
       id="polygon24" />
    <path
       d="m 53.0441,58.7525 c -0.5096,0 -0.9023,-0.4491 -0.8345,-0.9541 L 55.5814,31.2951 54.1676,57.967 c -0.0297,0.4421 -0.6804,0.7855 -1.1235,0.7855 z"
       id="path26" />
    <path
       d="m 53.0439,59.5029 c -0.4599,0 -0.8964,-0.1982 -1.1982,-0.5439 -0.3027,-0.3467 -0.4404,-0.8057 -0.3789,-1.2608 l 3.3701,-26.498 c 0.0508,-0.3994 0.3975,-0.6895 0.8115,-0.6523 0.4014,0.0361 0.7032,0.3837 0.6817,0.7871 L 54.917,58.0068 c -0.0664,0.9678 -1.1494,1.4961 -1.8731,1.4961 z m 0.71,-7.9004 -0.7998,6.2911 0.0898,0.1093 c 0.1153,0 0.3028,-0.0859 0.379,-0.1572 z"
       id="path28" />
  </g>
</g></svg>