<svg xmlns="http://www.w3.org/2000/svg" width="24" height="24" viewBox="0 0 24 24"> <g transform="translate(0.8564560925843487 0.0) scale(0.624960435447433)">
  
  <g
     id="line"
     transform="translate(-16.4125,-15.020701)">
    <circle
       cx="33.886501"
       cy="18.880501"
       r="2.8598001"
       fill="none"
       stroke="#000"
       stroke-miterlimit="10"
       stroke-width="2"
       id="circle2" />
    <path
       fill="none"
       stroke="#000"
       stroke-linecap="round"
       stroke-linejoin="round"
       stroke-width="2"
       d="m 22.7981,44.1789 c 0,0 2.4019,-5.5042 2.9719,-7.6558 a 16.8842,16.8842 0 0 0 0.4461,-5.2563 c -0.08,-2.1124 1.19,-5.2363 3.08,-5.8083 a 14.0485,14.0485 0 0 1 3.0209,-0.3536 c 0.1963,-0.0039 0.4956,-0.0106 0.692,-0.0077 0.1954,-0.0029 2.3622,0.0038 2.5577,0.0077 a 14.05,14.05 0 0 1 3.0218,0.3536 c 1.89,0.572 3.16,3.6959 3.08,5.8083 a 16.8594,16.8594 0 0 0 0.4451,5.2563 c 0.57,2.1516 2.4452,6.62 2.4452,6.62"
       id="path4" />
    <path
       fill="none"
       stroke="#000"
       stroke-linecap="round"
       stroke-linejoin="round"
       stroke-width="2"
       d="m 27.9927,42.7723 a 28.2241,28.2241 0 0 0 1.5593,-3.7892 20.66,20.66 0 0 0 0.0844,-3.6234"
       id="path6" />
    <path
       fill="none"
       stroke="#000"
       stroke-linecap="round"
       stroke-linejoin="round"
       stroke-width="2"
       d="m 27.414,51.9426 c 0,0 -0.5834,0.08 -1.25,0.24 -0.6668,0.08 -2,0.16 -2.9171,0.16 h -4.1675 a 1.6389,1.6389 0 0 1 -1.6669,-1.5991 3.0748,3.0748 0 0 1 1.5,-2.3988 l 3.0838,-1.5991"
       id="path8" />
    <path
       fill="none"
       stroke="#000"
       stroke-linecap="round"
       stroke-linejoin="round"
       stroke-width="2"
       d="m 38.5223,35.36 a 20.6425,20.6425 0 0 0 0.0849,3.6233 28.2159,28.2159 0 0 0 1.5586,3.7893 c 0.42,1.1182 2.3241,1.8942 3.1572,2.3736 l 6.2506,3.2783 a 2.955,2.955 0 0 1 1.5005,2.3984 1.6391,1.6391 0 0 1 -1.6664,1.6 c 0,0 -5.04,-0.3108 -7.5012,-0.7436 -3.4871,-0.613 -13.22,-3.2783 -13.22,-3.2783 -0.917,-0.2393 -1.265,-0.5758 -1.0982,-1.2154 0.1668,-0.6396 0.5653,-0.7445 1.4824,-0.755 l 10.0265,0.0133"
       id="path10" />
  </g>
</g></svg>