<svg xmlns="http://www.w3.org/2000/svg" width="24" height="24" viewBox="0 0 24 24"> <g transform="translate(4.911849682251607 0.0) scale(0.5620321565293278)">
  
  <g
     id="line"
     transform="translate(-18.757238,-14.053101)">
    <g
       id="Kneeing_Woman">
      <circle
         cx="37.808601"
         cy="18.053101"
         r="3"
         fill="none"
         stroke="#000"
         stroke-miterlimit="10"
         stroke-width="2"
         id="circle2" />
      <path
         fill="none"
         stroke="#000"
         stroke-linecap="round"
         stroke-linejoin="round"
         stroke-width="2"
         d="m 28.84,51.0011 c 4.0423,0 6.95,-0.1135 9.0285,-0.264 a 5.4916,5.4916 0 0 0 5.099,-5.855 l -0.2027,-5.3 -0.6323,-10.5385 A 4.3671,4.3671 0 0 0 37.84,25.0011 v 0 a 4.6314,4.6314 0 0 0 -4.4463,4.0171 L 32.84,33.98 l -0.7,7.021"
         id="path4" />
      <path
         fill="none"
         stroke="#000"
         stroke-linecap="round"
         stroke-linejoin="round"
         stroke-width="2"
         d="m 31.438,44.8535 -8.458,2.3108 a 4.4945,4.4945 0 0 0 -1.75,0.9614 l -0.075,0.067 a 3.9881,3.9881 0 0 0 0.3105,6.3276 8.1207,8.1207 0 0 0 4.4127,1.23 145.2047,145.2047 0 0 0 15.94,-0.7448"
         id="path6" />
      <polyline
         fill="none"
         stroke="#000"
         stroke-linecap="round"
         stroke-linejoin="round"
         stroke-width="2"
         points="37.955 29.952 37.209 40.265 26.685 43.207"
         id="polyline8" />
    </g>
  </g>
</g></svg>