<svg xmlns="http://www.w3.org/2000/svg" width="24" height="24" viewBox="0 0 24 24"> <g transform="translate(0.0 4.327311450921967) scale(0.46207098946784264)">
  
  <g
     id="line"
     transform="translate(-9.8848306,-19.9)">
    <path
       fill="none"
       stroke="#000"
       stroke-linecap="round"
       stroke-linejoin="round"
       stroke-miterlimit="10"
       stroke-width="2"
       d="M 22.6699,40.5591 11.4549,50.89 c -0.35,-0.6201 -0.57,-1.44 -0.57,-2.32 V 22.06"
       id="path2" />
    <path
       fill="none"
       stroke="#000"
       stroke-linecap="round"
       stroke-linejoin="round"
       stroke-miterlimit="10"
       stroke-width="2"
       d="m 60.8249,22.01 v 26.56 c 0,0.86 -0.2,1.65 -0.55,2.27 L 48.9583,40.478"
       id="path4" />
    <line
       x1="11.5207"
       x2="11.4583"
       y1="21.6493"
       y2="21.6103"
       fill="none"
       stroke="#000"
       stroke-linecap="round"
       stroke-linejoin="round"
       stroke-miterlimit="10"
       stroke-width="2"
       id="line6" />
    <path
       fill="none"
       stroke="#000"
       stroke-linecap="round"
       stroke-linejoin="round"
       stroke-miterlimit="10"
       stroke-width="2"
       d="m 26.8049,36.75 4.47,4.13 c 0.24,0.22 0.48,0.41 0.72,0.57 2.4301,1.8 5.26,1.8 7.6801,-0.01 0.23,-0.16 0.47,-0.36 0.69,-0.56 l 4.5,-4.15"
       id="path8" />
    <path
       fill="none"
       stroke="#000"
       stroke-linecap="round"
       stroke-linejoin="round"
       stroke-miterlimit="10"
       stroke-width="2"
       d="M 47.9294,39.536 60.2749,50.84 c -0.42,0.77 -1.07,1.27 -1.79,1.27 h -45.26 c -0.7,0 -1.34,-0.47 -1.77,-1.22 L 23.533,39.764"
       id="path10" />
    <path
       fill="none"
       stroke="#000"
       stroke-linecap="round"
       stroke-linejoin="round"
       stroke-miterlimit="10"
       stroke-width="2"
       d="m 60.8249,22.01 -15.96,14.72 -4.5,4.15 c -0.22,0.2 -0.46,0.4 -0.69,0.56 -2.42,1.81 -5.25,1.81 -7.6801,0.01 -0.24,-0.16 -0.48,-0.35 -0.72,-0.57 l -4.47,-4.13 -15.92,-14.69 c 0.04,-0.06 0.09,-0.13 0.14,-0.2 0.42,-0.6 0.99,-0.96 1.61,-0.96 h 46.48 c 0.59,0 1.16,0.35 1.5699,0.91 0.0502,0.06 0.1002,0.13 0.1402,0.2 z"
       id="path12" />
  </g>
</g></svg>