<svg xmlns="http://www.w3.org/2000/svg" width="24" height="24" viewBox="0 0 24 24"> <g transform="scale(0.46153846153846156)">
  
  <g
     id="line"
     transform="translate(-10,-10.0208)">
    <path
       fill="none"
       stroke="#000"
       stroke-linecap="round"
       stroke-linejoin="round"
       stroke-miterlimit="10"
       stroke-width="2"
       d="M 60,61.0208 H 12 c -0.5523,0 -1,-0.4477 -1,-1 v -48 c 0,-0.5523 0.4477,-1 1,-1 h 48 c 0.5523,0 1,0.4477 1,1 v 48 c 0,0.5523 -0.4477,1 -1,1 z"
       id="path2" />
    <polyline
       fill="none"
       stroke="#000"
       stroke-linecap="round"
       stroke-linejoin="round"
       stroke-miterlimit="10"
       stroke-width="2"
       points="24.3333,34.8184 28.2619,55.7708 38.7381,55.7708 42.6667,34.8184"
       id="polyline4" />
    <path
       fill="none"
       stroke="#000"
       stroke-linecap="round"
       stroke-linejoin="round"
       stroke-miterlimit="10"
       stroke-width="2"
       d="m 26.7336,45.0446 c 0,0 6.5477,-2.619 13.0953,0"
       id="path6" />
    <path
       fill="none"
       stroke="#000"
       stroke-linecap="round"
       stroke-linejoin="round"
       stroke-miterlimit="10"
       stroke-width="2"
       d="m 58.5,24.6808 v 4.87 c 0,0.56 -0.45,1 -1,1 H 40.62 c -2.84,0 -3.51,2.46 -3.66,3.83 -0.06,0.5 -0.48,0.88 -0.99,0.88 h -5.02 c -0.55,0 -0.99,-0.43 -1,-0.9801 -0.0101,-2.7999 0.82,-10.5999 10.6301,-10.5999 H 45.75 v -4.45 H 41 v -3.21 h 13.25 v 3.21 H 49.5 v 4.45 h 8 c 0.55,0 1,0.45 1,1 z"
       id="path8" />
  </g>
</g></svg>