<svg xmlns="http://www.w3.org/2000/svg" width="24" height="24" viewBox="0 0 24 24"> <g transform="translate(1.4360387283018383 0.0) scale(0.46619321249488715)">
  
  <g
     id="line"
     transform="translate(-10.478,-10.7992)">
    <line
       x1="46.989799"
       x2="41.773998"
       y1="48.521"
       y2="60.971199"
       fill="none"
       stroke="#000"
       stroke-linecap="round"
       stroke-linejoin="round"
       stroke-width="2"
       id="line2" />
    <line
       x1="51.611198"
       x2="47.0616"
       y1="50.6805"
       y2="60.997299"
       fill="none"
       stroke="#000"
       stroke-linecap="round"
       stroke-linejoin="round"
       stroke-width="2"
       id="line4" />
    <g
       id="g16">
      <g
         id="g14">
        <path
           fill="none"
           stroke="#000"
           stroke-linecap="round"
           stroke-linejoin="round"
           stroke-width="2"
           d="m 32.08,50.86 a 11.22,11.22 0 0 0 3.59,0.74 h 0.1 c 3,0 5.6,-1.4 8.7,-3.5 0.1,0 0.1,-0.1 0.2,-0.1 12,0 10,13 10,13"
           id="path6" />
        <polyline
           fill="none"
           stroke="#000"
           stroke-linecap="round"
           stroke-linejoin="round"
           stroke-width="2"
           points="32.053 55.349 33.074 54.199 35.574 51.599"
           id="polyline8" />
        <line
           x1="38.174"
           x2="35.574001"
           y1="54.1992"
           y2="51.599201"
           fill="none"
           stroke="#000"
           stroke-linecap="round"
           stroke-linejoin="round"
           stroke-width="2"
           id="line10" />
        <polyline
           fill="none"
           stroke="#000"
           stroke-linecap="round"
           stroke-linejoin="round"
           stroke-width="2"
           points="44.474 47.999 44.474 48.099 40.774 56.899 38.174 54.199"
           id="polyline12" />
      </g>
    </g>
    <path
       d="m 35.774,40.0992 a 6.9211,6.9211 0 0 1 -3.4,-0.9 0.9618,0.9618 0 0 1 0.9,-1.7 5.1542,5.1542 0 0 0 5.1,0 0.9618,0.9618 0 1 1 0.9,1.7 7.5936,7.5936 0 0 1 -3.5,0.9 z"
       id="path18" />
    <path
       d="m 41.774,30.0992 a 2,2 0 1 1 -2,-2 2.0059,2.0059 0 0 1 2,2 z"
       id="path20" />
    <path
       d="m 33.774,30.0992 a 2,2 0 1 1 -2,-2 2.0059,2.0059 0 0 1 2,2 z"
       id="path22" />
    <path
       d="m 35.774,46.6992 c -6.4,0 -11.7,-5.9 -12.3,-13.8 l 2,-0.2 c 0.5,6.7 5,11.9 10.3,11.9 5.3,0 9.7,-5 10.3,-11.7 0,-0.5 0.1,-1 0.1,-1.5 h 2 a 9.702,9.702 0 0 1 -0.1,1.7 c -0.7,7.8 -6,13.6 -12.3,13.6 z"
       id="path24" />
    <path
       d="m 24.374,34.2992 a 0.91,0.91 0 0 1 -0.8,-0.4 7.2313,7.2313 0 0 1 -1.8,-5.7 8.31,8.31 0 0 1 3.4,-5.2 l 0.7,-0.5 a 1,1 0 0 1 1.2,1.6 l -0.8,0.6 a 6.1633,6.1633 0 0 0 -2.6,3.9 4.3671,4.3671 0 0 0 0.5,2.7 13.1189,13.1189 0 0 1 9.5,-6.6 0.9033,0.9033 0 0 1 1.1,0.9 0.9449,0.9449 0 0 1 -0.9,1.1 10.8536,10.8536 0 0 0 -8.7,7 0.8711,0.8711 0 0 1 -0.8,0.6 z"
       id="path26" />
    <path
       d="m 36.074,26.7992 c -4.7,0 -9.2,-1.5 -11.7,-4 a 0.9128,0.9128 0 0 1 -0.2,-1.1 0.961,0.961 0 0 1 0.9,-0.6 h 21.1 a 0.961,0.961 0 0 1 0.9,0.6 1.073,1.073 0 0 1 -0.1,1.1 c -2,2.4 -5.7,3.9 -10,4 z m -7.8,-3.7 a 17.89,17.89 0 0 0 8.6,1.7 13.8357,13.8357 0 0 0 6.5,-1.7 z"
       id="path28" />
    <path
       d="m 47.474,26.7992 a 1.4213,1.4213 0 0 1 -0.6,-0.2 0.972,0.972 0 0 1 -0.1,-1.4 l 2.2,-2.7 a 4.0613,4.0613 0 0 0 0.8,-1.9 c -2.6,-0.7 -4.1,-2.3 -5.6,-3.8 -2,-2 -3.9,-4 -8.3,-4 -4.5,0 -6.3,1.9 -8.3,4 -1.5,1.5 -3,3.1 -5.6,3.8 a 3.7014,3.7014 0 0 0 0.8,1.9 l 2,2.4 a 0.9925,0.9925 0 0 1 -1.5,1.3 l -2,-2.4 c -0.7,-0.8 -1.6,-2.6 -1.2,-3.9 a 1.7644,1.7644 0 0 1 1.3,-1.2 10.9076,10.9076 0 0 0 4.8,-3.3 c 2.1,-2.1 4.4,-4.6 9.7,-4.6 5.3,0 7.7,2.4 9.7,4.6 1.4,1.4 2.7,2.8 4.8,3.3 a 1.9517,1.9517 0 0 1 1.3,1.2 c 0.4,1.3 -0.5,3.1 -1.2,3.9 l -2.2,2.7 a 1.9093,1.9093 0 0 1 -0.8,0.3 z"
       id="path30" />
    <path
       d="m 46.974,34.2992 h -0.2 a 0.9689,0.9689 0 0 1 -0.8,-0.7 c -1,-3 -3.3,-7.4 -4.9,-7.5 a 0.9033,0.9033 0 0 1 -0.9,-1.1 0.9547,0.9547 0 0 1 1.1,-0.9 c 2.7,0.2 4.8,4.3 5.9,7 a 4.418,4.418 0 0 0 0.4,-2.5 6.1633,6.1633 0 0 0 -2.6,-3.9 l -0.7,-0.6 a 0.9925,0.9925 0 0 1 1.3,-1.5 l 0.7,0.5 a 7.9473,7.9473 0 0 1 3.3,5.2 7.2313,7.2313 0 0 1 -1.8,5.7 1.1355,1.1355 0 0 1 -0.8,0.3 z"
       id="path32" />
    <path
       d="m 35.874,20.8992 c -2.9,0 -3.5,-4.3 -3.5,-4.8 a 1.0858,1.0858 0 0 1 0.4,-0.9 c 2,-1.5 5,-1.2 6.3,0.1 a 1.1355,1.1355 0 0 1 0.3,0.8 c -0.1,0.5 -0.6,4.8 -3.5,4.8 z m 0,-2 v 0 c 0.8,0 1.2,-1.5 1.4,-2.4 a 3.3974,3.3974 0 0 0 -2.8,0 c 0.2,1 0.7,2.4 1.4,2.4 z"
       id="path34" />
    <path
       fill="#000"
       d="m 39.774,28.0992 a 2,2 0 1 1 -2,2 2.0059,2.0059 0 0 1 2,-2 z"
       id="path36" />
    <path
       fill="#000"
       d="m 31.774,28.0992 a 2,2 0 1 1 -2,2 2.0059,2.0059 0 0 1 2,-2 z"
       id="path38" />
    <g
       id="g54">
      <polyline
         fill="none"
         stroke="#000"
         stroke-linecap="round"
         stroke-linejoin="round"
         stroke-width="2"
         points="15.797 47.834 11.478 47.834 11.478 61.273 16.285 61.273"
         id="polyline40" />
      <rect
         x="14.9366"
         y="47.834202"
         width="13.7892"
         height="13.4393"
         fill="none"
         stroke="#000"
         stroke-linecap="round"
         stroke-linejoin="round"
         stroke-width="2"
         id="rect42" />
      <polyline
         fill="none"
         stroke="#000"
         stroke-linecap="round"
         stroke-linejoin="round"
         stroke-width="2"
         points="24.681 47.819 32.104 47.841 31.985 61.28 29.625 61.258"
         id="polyline44" />
      <line
         x1="29.542299"
         x2="25.5147"
         y1="61.2733"
         y2="61.2733"
         fill="none"
         stroke="#000"
         stroke-linecap="round"
         stroke-linejoin="round"
         stroke-width="2"
         id="line46" />
      <g
         id="g52">
        <path
           fill="none"
           stroke="#000"
           stroke-linecap="round"
           stroke-linejoin="round"
           stroke-width="2"
           d="M 18.4246,47.6005 V 45.908 a 1.7563,1.7563 0 0 1 1.9662,-1.6926 h 2.6215"
           id="path48" />
        <path
           fill="none"
           stroke="#000"
           stroke-linecap="round"
           stroke-linejoin="round"
           stroke-width="2"
           d="M 25.0977,47.6005 V 45.908 A 1.7563,1.7563 0 0 0 23.1315,44.2154 H 20.51"
           id="path50" />
      </g>
    </g>
  </g>
</g></svg>