<svg xmlns="http://www.w3.org/2000/svg" width="24" height="24" viewBox="0 0 24 24"> <g transform="translate(2.029745887847744 0.0) scale(0.44215749941216087)">
  
  <g
     id="line"
     transform="translate(-13.4509,-7.9656)">
    <path
       fill="none"
       stroke="#000"
       stroke-linecap="round"
       stroke-linejoin="round"
       stroke-width="2"
       d="m 26.1979,8.9656 c 0,0 7.37,5.9313 7.37,12.1743"
       id="path2" />
    <path
       fill="none"
       stroke="#000"
       stroke-linecap="round"
       stroke-linejoin="round"
       stroke-width="2"
       d="m 31.9974,29.976 c -0.9718,-0.2711 -1.3741,-1.4613 -2.272,-1.9168 a 6.2247,6.2247 0 0 0 -2.3835,-0.2443 20.604,20.604 0 0 1 -2.8243,-0.7164 12.5,12.5 0 0 0 -4.06,0.0038"
       id="path4" />
    <path
       fill="none"
       stroke="#000"
       stroke-linecap="round"
       stroke-linejoin="round"
       stroke-width="2"
       d="m 30.21,34.6046 c -1.64,0.2321 -2.8212,-1.8133 -4.477,-1.8677 -1.5821,-0.052 -2.5542,1.6443 -3.8889,2.4823 -2.1559,1.3537 -5.2056,0.38 -7.3932,1.6829"
       id="path6" />
    <path
       fill="none"
       stroke="#000"
       stroke-linecap="round"
       stroke-linejoin="round"
       stroke-width="2"
       d="m 29.2016,41.4188 a 9.8237,9.8237 0 0 0 -3.5164,-0.1106 c -1.1532,0.2456 -2.3567,0.6248 -2.6555,1.7486 a 6.8252,6.8252 0 0 0 0.2493,2.7355 37.6674,37.6674 0 0 1 0.151,15.4526"
       id="path8" />
    <path
       fill="none"
       stroke="#000"
       stroke-linecap="round"
       stroke-linejoin="round"
       stroke-width="2"
       d="m 40.0026,29.976 c 0.9718,-0.2711 1.3741,-1.4613 2.272,-1.9168 a 6.2247,6.2247 0 0 1 2.3835,-0.2443 20.604,20.604 0 0 0 2.8243,-0.7164 12.5,12.5 0 0 1 4.06,0.0038"
       id="path10" />
    <path
       fill="none"
       stroke="#000"
       stroke-linecap="round"
       stroke-linejoin="round"
       stroke-width="2"
       d="m 41.79,34.6046 c 1.64,0.2321 2.8212,-1.8133 4.477,-1.8677 1.5821,-0.052 2.5542,1.6443 3.8889,2.4823 2.1559,1.3537 5.2056,0.38 7.3932,1.6829"
       id="path12" />
    <path
       fill="none"
       stroke="#000"
       stroke-linecap="round"
       stroke-linejoin="round"
       stroke-width="2"
       d="m 42.7984,41.4188 a 9.8237,9.8237 0 0 1 3.5164,-0.1106 c 1.1532,0.2456 2.3567,0.6248 2.6555,1.7486 a 6.8252,6.8252 0 0 1 -0.2493,2.7355 37.6674,37.6674 0 0 0 -0.15,15.4526"
       id="path14" />
    <path
       fill="none"
       stroke="#000"
       stroke-linecap="round"
       stroke-linejoin="round"
       stroke-width="2"
       d="m 45.7729,8.9656 c 0,0 -7.37,5.9313 -7.37,12.1743"
       id="path16" />
    <path
       fill="none"
       stroke="#000"
       stroke-linecap="round"
       stroke-linejoin="round"
       stroke-width="2"
       d="m 31.9466,25.794 a 3.8839,3.8839 0 0 1 -0.0977,-0.8679 4.16,4.16 0 0 1 8.3146,0 3.8875,3.8875 0 0 1 -0.0845,0.808"
       id="path18" />
    <path
       fill="none"
       stroke="#000"
       stroke-linecap="round"
       stroke-linejoin="round"
       stroke-width="2"
       d="m 38.9589,28.453 c 2.2871,2.7114 3.8656,8.4745 3.8656,15.146 0,9.2777 -3.0527,16.7987 -6.8183,16.7987 -3.7656,0 -6.8183,-7.521 -6.8183,-16.7987 0,-6.6716 1.5786,-12.4348 3.8657,-15.1461 a 8.7052,8.7052 0 0 0 5.9053,0"
       id="path20" />
    <path
       fill="none"
       stroke="#000"
       stroke-linecap="round"
       stroke-linejoin="round"
       stroke-width="2"
       d="m 30.8836,32.5167 a 64.0546,64.0546 0 0 1 7.904,18.2016"
       id="path22" />
    <path
       fill="none"
       stroke="#000"
       stroke-linecap="round"
       stroke-linejoin="round"
       stroke-width="2"
       d="m 41.1164,32.5167 a 55.1884,55.1884 0 0 0 -3.55,6.3811"
       id="path24" />
  </g>
</g></svg>