<svg xmlns="http://www.w3.org/2000/svg" width="24" height="24" viewBox="0 0 24 24"> <g transform="translate(0.0 0.3513176254850503) scale(0.39832110971597295)">
  
  <g
     id="line"
     transform="translate(-4.8991254,-9.0938001)">
    <circle
       cx="28.3857"
       cy="13.0625"
       r="2.9686999"
       fill="none"
       stroke="#000"
       stroke-miterlimit="10"
       stroke-width="2"
       id="circle2" />
    <path
       fill="none"
       stroke="#000"
       stroke-linecap="round"
       stroke-linejoin="round"
       stroke-miterlimit="10"
       stroke-width="2"
       d="m 25,28 5.0771,-1.4507 c 1.0577,-0.3022 1.6758,-1.4145 1.3731,-2.4722 l -0.9004,-3.1542 c -0.3027,-1.0577 0.333,-2.0992 1.4111,-2.315 l 1.0782,-0.2158 c 1.0781,-0.2158 2.4736,0.3476 3.0996,1.2524 l 6.7226,9.711 c 0.626,0.9043 0.7364,2.4492 0.2442,3.4336 l -0.211,0.4218 c -0.4922,0.9844 -1.6816,2.2266 -2.6425,2.7608 l -5.504,3.0566 c -0.9609,0.5342 -1.3945,1.7998 -0.9628,2.8106 l 1.8466,4.3222 c 0.4317,1.0108 0.0166,2.2891 -0.9228,2.8389 -0.9404,0.5498 -2.1514,0.2158 -2.6914,-0.7422 l -2.9268,-5.1894 c -0.54,-0.958 -0.9609,-2.2657 -0.9345,-2.9053 0.0273,-0.6397 0.6318,-1.8486 1.3437,-2.6875 l 4.2051,-4.9512 C 34.417,31.6855 34.7754,30.3252 34.5,29.5 34.2246,28.6748 34,28 34,28"
       id="path4" />
    <path
       fill="none"
       stroke="#000"
       stroke-linecap="round"
       stroke-linejoin="round"
       stroke-miterlimit="10"
       stroke-width="2"
       d="M 27,35 C 26,34 23.5488,30.5498 21,28 20,27 18,26 18,26 L 16,23"
       id="path6" />
    <path
       fill="none"
       stroke="#000"
       stroke-linecap="round"
       stroke-linejoin="round"
       stroke-miterlimit="10"
       stroke-width="2"
       d="m 46,40 c 0,0 -1,3 0,5 1.1885,2.377 5.791,8 5.791,9 L 49,57 c 0,0 -1.1377,0.748 -1.124,1.376 0.041,1.917 1.915,1.624 1.915,1.624 0,0 6.3779,-5.5635 6.209,-6 -0.5107,-1.3193 -1.3672,-3.7354 -2,-5 -1,-2 4,-5 4,-8 0,-1.6006 -1,-6 -5,-7 -1.7246,-0.4316 -3.7734,-0.4912 -5.958,-0.3486"
       id="path8" />
    <path
       fill="none"
       stroke="#000"
       stroke-linecap="round"
       stroke-linejoin="round"
       stroke-miterlimit="10"
       stroke-width="2"
       d="m 24,64 c -1.7998,-0.7598 -3.957,-1.957 -5,-3 -0.3535,-0.3535 -0.6328,-1.7354 0,-3 1,-2 3,-6 3,-6 0,0 -1.4189,-0.4189 -3,-2 -1,-1 -0.8867,-5.0029 -1,-7 -0.1025,-1.8174 -2,-8 -2,-8 0,0 -4,0 -8,1 -0.6855,0.1719 -2.5527,-1.5576 -2,-2 5,-4 5,-4 8,-6"
       id="path10" />
    <path
       fill="none"
       stroke="#000"
       stroke-linecap="round"
       stroke-linejoin="round"
       stroke-miterlimit="10"
       stroke-width="2"
       d="m 26,61 c 0,0 0.5527,0.5254 1.2295,1.166 0.6758,0.6416 0.6943,1.7197 0.042,2.3965 -0.6543,0.6758 -1.6563,0.8252 -2.2295,0.333 C 24.4688,64.4033 24,64 24,64"
       id="path12" />
    <path
       fill="none"
       stroke="#000"
       stroke-linecap="round"
       stroke-linejoin="round"
       stroke-miterlimit="10"
       stroke-width="2"
       d="m 47,48 c 0,0 -7.3848,3.3594 -10,4 -2.4404,0.5977 -9,1 -9,1 -4,4 -5,6 -5,6 0,0 1.6289,1.3418 3,2"
       id="path14" />
    <path
       fill="none"
       stroke="#000"
       stroke-linecap="round"
       stroke-linejoin="round"
       stroke-miterlimit="10"
       stroke-width="2"
       d="m 48,49 c 0,0 -2.1426,6.7891 -3,9 -0.4707,1.2129 -0.6182,1.9219 -1.542,3.958 -0.8242,1.8164 -0.9101,2.1182 -0.9101,2.1182 -0.3018,1.0586 0.1269,2.1484 0.9521,2.4238 0.8252,0.2754 1.9004,-0.3066 2.3887,-1.292 l 1.0488,-2.1142"
       id="path16" />
    <path
       fill="none"
       stroke="#000"
       stroke-linecap="round"
       stroke-linejoin="round"
       stroke-miterlimit="10"
       stroke-width="2"
       d="m 15,62 v 2 c 0,1.0996 -0.6748,2 -1.5,2 -0.8252,0 -1.5,-0.7002 -1.5,-1.5566 0,0 0,0 0,-2.4014"
       id="path18" />
    <path
       fill="none"
       stroke="#000"
       stroke-linecap="round"
       stroke-linejoin="round"
       stroke-miterlimit="10"
       stroke-width="2"
       d="m 18,50 c 0,0 -5,3 -6,4 -1,1 -1,2.21 -1,3 0,0.5176 0.4834,2.8535 1,5.042"
       id="path20" />
    <path
       fill="none"
       stroke="#000"
       stroke-linecap="round"
       stroke-linejoin="round"
       stroke-miterlimit="10"
       stroke-width="2"
       d="m 56,35 c 0,0 -1,0 2,0 3,0 7,3 6,7 -0.7275,2.9102 -5,6 0,11"
       id="path22" />
    <line
       x1="15"
       x2="15"
       y1="58"
       y2="62"
       fill="none"
       stroke="#000"
       stroke-linecap="round"
       stroke-linejoin="round"
       stroke-miterlimit="10"
       stroke-width="2"
       id="line24" />
  </g>
</g></svg>