<svg xmlns="http://www.w3.org/2000/svg" width="24" height="24" viewBox="0 0 24 24"> <g transform="translate(0.0003553555035686884 0.0) scale(0.47380733809114867)">
  
  <g
     id="line"
     transform="translate(-10.674,-10.6325)">
    <rect
       x="11.6742"
       y="11.6325"
       width="48.6516"
       height="24.3664"
       fill="none"
       stroke="#000"
       stroke-linecap="round"
       stroke-linejoin="round"
       stroke-width="2"
       id="rect2" />
    <g
       id="_">
      <path
         fill="none"
         stroke="#000"
         stroke-linecap="round"
         stroke-linejoin="round"
         stroke-width="2.0013"
         d="M 20.3342,35.9989 V 28.74 l -0.4963,-0.1654 a 5.0391,5.0391 0 0 1 -3.23,-3.9311 V 24.595 a 4.5741,4.5741 0 0 1 1.2451,-4.135 5.4741,5.4741 0 0 1 1.4887,-1.0022 0.429,0.429 0 0 1 0.5838,0.3794 v 3.104 l 0.8271,1.2455 h 2.9 l 0.8271,-1.2455 v -3.104 a 0.416,0.416 0 0 1 0.5838,-0.3794 5.6789,5.6789 0 0 1 1.4884,1.0022 4.4289,4.4289 0 0 1 1.3136,3.25 7.0368,7.0368 0 0 1 -0.0682,0.8855 4.9093,4.9093 0 0 1 -3.1526,3.9407 l -0.5838,0.2044 v 7.2588"
         id="path4" />
    </g>
    <polyline
       fill="none"
       stroke="#000"
       stroke-linecap="round"
       stroke-linejoin="round"
       stroke-width="2"
       points="44.368 35.999 60.326 35.999 60.326 60.286 11.674 60.286 11.674 35.999 20.334 35.999"
       id="polyline7" />
    <line
       x1="41.808998"
       x2="24.0609"
       y1="35.998901"
       y2="35.998901"
       fill="none"
       stroke="#000"
       stroke-miterlimit="10"
       stroke-width="2"
       id="line9" />
    <rect
       x="32.4231"
       y="40.422901"
       width="7.1539001"
       height="3.6129"
       fill="none"
       stroke="#000"
       stroke-miterlimit="10"
       stroke-width="2"
       id="rect11" />
    <g
       id="_2">
      <g
         id="g19">
        <polyline
           fill="none"
           stroke="#000"
           stroke-linecap="round"
           stroke-linejoin="round"
           stroke-width="2.0013"
           points="44.368 35.999 44.407 29.061 41.848 29.061 41.809 35.999"
           id="polyline13" />
        <path
           fill="none"
           stroke="#000"
           stroke-linecap="round"
           stroke-linejoin="round"
           stroke-width="2.0013"
           d="m 38.5888,22.04 v 7.0212 h 9.0071 v -4.0425 c 0,0 6.0283,0 8.0141,1.9858 A 10.6531,10.6531 0 0 0 47.5959,21.969 39.6283,39.6283 0 0 0 38.5888,22.04 Z"
           id="path15" />
        <path
           fill="none"
           stroke="#000"
           stroke-linecap="round"
           stroke-linejoin="round"
           stroke-width="2.0013"
           d="m 36.2832,22.6783 v 5.6737 0 a 2.2357,2.2357 0 0 1 -2.6241,0 v 0 -5.6737 0 a 1.884,1.884 0 0 1 2.6241,0 z"
           id="path17" />
      </g>
    </g>
  </g>
</g></svg>