<svg xmlns="http://www.w3.org/2000/svg" width="24" height="24" viewBox="0 0 24 24"> <g transform="translate(0.0 1.325248738980683) scale(0.4751839159748121)">
  
  <g
     id="line-supplement"
     transform="translate(-11.493241,-11.071075)">
    <path
       fill="#000"
       d="m 39.06,20.6179 -0.7049,-0.7093 -0.0022,0.0022 z m 0.0114,-7.0824 -0.7071,0.7071 z m -7.7782,-0.7071 c -0.3905,0.3905 -0.3905,1.0237 0,1.4142 0.3906,0.3905 1.0237,0.3905 1.4143,0 z m 4.9498,0.7071 -0.7071,0.7071 v 0 z m 0,4.2427 -0.7071,-0.7072 v 0 z m -3.4534,3.4534 0.7048,0.7093 0.0023,-0.0022 z m -0.0114,0.0113 0.7071,0.7071 v 0 z m 0,7.0711 -0.7071,0.7071 z m 7.7782,0.7071 c 0.3905,-0.3905 0.3905,-1.0237 0,-1.4142 -0.3906,-0.3905 -1.0237,-0.3905 -1.4143,0 z m -4.9498,-0.7071 0.7071,-0.7071 v 0 z m 0,-4.2426 0.7071,0.7071 z m 4.1584,-2.7442 c 0.0044,-0.0044 0.009,-0.009 0.0135,-0.0135 l -1.4142,-1.4142 c -0.003,0.003 -0.0061,0.006 -0.0092,0.0091 z m 0.0135,-0.0135 c 2.3432,-2.3432 2.3432,-6.1422 0,-8.4853 l -1.4142,1.4142 c 1.5621,1.5621 1.5621,4.0948 0,5.6569 z m 0,-8.4853 c -2.3431,-2.3431 -6.1421,-2.3431 -8.4853,0 l 1.4143,1.4142 c 1.5621,-1.5621 4.0947,-1.5621 5.6568,0 z m -7.071,1.4142 c 0.781,-0.781 2.0473,-0.781 2.8284,0 l 1.4142,-1.4142 c -1.5621,-1.5621 -4.0948,-1.5621 -5.6569,0 z m 2.8284,0 c 0.781,0.7811 0.781,2.0474 0,2.8284 l 1.4142,1.4143 c 1.5621,-1.5621 1.5621,-4.0948 0,-5.6569 z m 0,2.8284 -3.4534,3.4535 1.4142,1.4142 3.4534,-3.4534 z m -3.4512,3.4512 c -0.0045,0.0045 -0.0091,0.0091 -0.0136,0.0136 l 1.4142,1.4142 c 0.003,-0.003 0.0061,-0.006 0.0091,-0.0091 z m -0.0136,0.0136 c -2.3432,2.3432 -2.3432,6.1422 0,8.4853 l 1.4142,-1.4142 c -1.5621,-1.5621 -1.5621,-4.0948 0,-5.6569 z m 0,8.4853 c 2.3431,2.3431 6.1421,2.3431 8.4853,0 l -1.4143,-1.4142 c -1.5621,1.5621 -4.0947,1.5621 -5.6568,0 z m 7.071,-1.4142 c -0.781,0.781 -2.0473,0.781 -2.8284,0 l -1.4142,1.4142 c 1.5621,1.5621 4.0948,1.5621 5.6569,0 z m -2.8284,0 c -0.781,-0.7811 -0.781,-2.0474 0,-2.8284 l -1.4142,-1.4143 c -1.5621,1.5621 -1.5621,4.0948 0,5.6569 z m 0,-2.8284 3.4534,-3.4535 -1.4142,-1.4142 -3.4534,3.4534 z"
       id="path2" />
  </g>
  <g
     id="line"
     transform="translate(-11.493241,-11.071075)">
    <path
       fill="none"
       stroke="#000"
       stroke-linecap="round"
       stroke-linejoin="round"
       stroke-width="2"
       d="M 24,47.4166 C 20.3175,44.1207 18,39.331 18,34 h 36 c 0,5.331 -2.3175,10.1207 -6,13.4166"
       id="path5" />
    <path
       fill="#000"
       d="m 56.8615,54.6765 -0.7448,-0.6673 z m 2.4785,-3.2036 0.833,0.5533 z m -44.2016,3.2036 -0.7448,0.6672 z m 0.7448,-0.6673 c -0.8684,-0.9694 -1.6678,-2.0019 -2.3903,-3.0896 l -1.666,1.1066 c 0.776,1.1682 1.6343,2.2768 2.5667,3.3175 z M 13.4796,51 H 58.5203 V 49 H 13.4796 Z m 45.0275,-0.0804 c -0.7226,1.0877 -1.522,2.1202 -2.3904,3.0896 l 1.4896,1.3345 C 58.5387,54.303 59.397,53.1944 60.173,52.0262 Z M 56.1297,54 H 15.8703 v 2 h 40.2594 z m -0.013,0.0092 c 0.0042,-0.0047 0.0085,-0.0073 0.011,-0.0084 0.0023,-10e-4 0.003,-8e-4 0.002,-8e-4 v 2 c 0.5547,0 1.0953,-0.2307 1.4766,-0.6563 z M 58.5203,51 c 0.0058,0 0.0069,7e-4 0.0049,1e-4 -0.0019,-5e-4 -0.0046,-0.0016 -0.0074,-0.0032 -0.005,-0.0031 -0.0083,-0.0067 -0.0107,-0.011 -0.0025,-0.0045 -0.0072,-0.0155 -0.0069,-0.0334 2e-4,-0.009 0.0017,-0.0178 0.004,-0.0252 0.0024,-0.0075 0.0045,-0.0102 0.0029,-0.0077 l 1.6659,1.1066 C 61.0716,50.6735 60.032,49 58.5203,49 Z M 13.4929,50.9196 c -0.0017,-0.0025 4e-4,2e-4 0.0028,0.0077 0.0023,0.0074 0.0038,0.0162 0.004,0.0252 3e-4,0.0179 -0.0044,0.0289 -0.0069,0.0334 -0.0024,0.0043 -0.0057,0.0079 -0.0107,0.0109 -0.0028,0.0017 -0.0055,0.0028 -0.0074,0.0033 -0.002,6e-4 -9e-4,-1e-4 0.0049,-1e-4 v -2 c -1.5117,0 -2.5513,1.6735 -1.6527,3.0262 z m 0.9007,4.4241 C 14.7749,55.7693 15.3155,56 15.8703,56 v -2 c -0.0011,0 -4e-4,-2e-4 0.0019,8e-4 0.0025,0.0011 0.0068,0.0037 0.011,0.0084 z"
       id="path7" />
    <path
       fill="none"
       stroke="#000"
       stroke-linecap="round"
       stroke-width="2"
       d="m 51,45 h 4.5 C 58.5376,45 61,42.5376 61,39.5 61,36.4624 58.5376,34 55.5,34 H 53"
       id="path9" />
  </g>
</g></svg>