<svg xmlns="http://www.w3.org/2000/svg" width="24" height="24" viewBox="0 0 24 24"> <g transform="translate(0.0 1.5075069234992338) scale(0.4204102079031829)">
  
  <g
     id="line"
     transform="translate(-10.9589,-11.0571)">
    <path
       fill="none"
       stroke="#000"
       stroke-linecap="round"
       stroke-linejoin="round"
       stroke-miterlimit="10"
       stroke-width="2"
       d="M 57.0078,20.3044 V 16.9482 L 29.6695,16.9457 c -0.198,0 -0.3586,-0.165 -0.3586,-0.3684 l -0.0687,-1.5169 c -0.116,-1.7878 -1.3398,-3.0033 -2.9967,-3.0033 H 14.9589 c -1.6569,0 -3,1.3432 -3,3 V 56"
       id="path2" />
    <path
       fill="none"
       stroke="#000"
       stroke-linecap="round"
       stroke-linejoin="round"
       stroke-miterlimit="10"
       stroke-width="2"
       d="m 17.0271,55.5678 c -0.5897,1.954 -2.2223,4.1389 -3.8959,4.394 l 43.9148,0.0108 c 1.6569,0 2.3233,-0.4388 3,-3 0.6767,-2.5612 7,-31.6575 7,-31.6575 0,-0.5523 -0.4477,-1 -1,-1 H 24.9649 c -0.5523,0 -1,0.4477 -1,1 0,0 -6.3481,28.2986 -6.9378,30.2527 z"
       id="path4" />
  </g>
</g></svg>