<svg xmlns="http://www.w3.org/2000/svg" width="24" height="24" viewBox="0 0 24 24"> <g transform="scale(0.48)">
  
  <g
     id="line"
     transform="translate(-11,-11)">
    <path
       fill="none"
       stroke="#000"
       stroke-miterlimit="10"
       stroke-width="2"
       d="m 59.0349,60 h -46.07 A 0.9679,0.9679 0 0 1 12,59.0349 v -46.07 A 0.9679,0.9679 0 0 1 12.9651,12 h 46.07 A 0.9679,0.9679 0 0 1 60,12.9651 v 46.07 A 0.9679,0.9679 0 0 1 59.0349,60 Z"
       id="path2" />
    <path
       fill="none"
       stroke="#000"
       stroke-linecap="round"
       stroke-linejoin="round"
       stroke-width="2"
       d="m 20,31 c 7,0 15,-11 15,-11 0,0 9.5,10.5 15.5,11.5"
       id="path4" />
    <line
       x1="28.5"
       x2="42.5"
       y1="30.5"
       y2="30.5"
       fill="none"
       stroke="#000"
       stroke-linecap="round"
       stroke-linejoin="round"
       stroke-width="2"
       id="line6" />
    <polyline
       fill="none"
       stroke="#000"
       stroke-linecap="round"
       stroke-linejoin="round"
       stroke-width="2"
       points="25.5 50.5 25.5 37.5 45.5 37.5 45.5 50.5"
       id="polyline8" />
    <line
       x1="26.5"
       x2="45.5"
       y1="48.5"
       y2="48.5"
       fill="none"
       stroke="#000"
       stroke-linecap="round"
       stroke-linejoin="round"
       stroke-width="2"
       id="line10" />
  </g>
</g></svg>