<svg xmlns="http://www.w3.org/2000/svg" width="24" height="24" viewBox="0 0 24 24"> <g transform="translate(0.0 3.407487532506085) scale(0.4130816913106614)">
  
  <g
     id="line"
     fill="none"
     stroke-linecap="round"
     stroke-linejoin="round"
     stroke-width="2"
     transform="translate(-6.95,-19.5)">
    <path
       stroke="#000"
       d="m 7.95,20.5 9.409,4.316 1.505,12.74 35.49,17.15"
       id="path2" />
    <path
       stroke="#000"
       d="m 19.99,38.31 c 0,0 -0.6416,14.85 -0.1209,16.16 0.4215,1.06 4.497,2.403 5.832,0.8481 1.466,-1.708 4.697,-12.84 4.697,-12.84"
       id="path4" />
    <path
       stroke="#000"
       d="m 59.66,54.71 a 5.302,5.392 0 0 1 -5.302,5.392 5.302,5.392 0 0 1 -5.302,-5.392 5.302,5.392 0 0 1 5.302,-5.392 5.302,5.392 0 0 1 5.302,5.392"
       id="path6" />
    <path
       stroke="#000"
       d="M 64.05,33.49 21.83,26.426 v 1.892 l 1.628,0.379 0.03923,10.6 23.14,10.85 z"
       id="path8" />
  </g>
</g></svg>