<svg xmlns="http://www.w3.org/2000/svg" width="24" height="24" viewBox="0 0 24 24"> <g transform="translate(1.1859708115975796 0.0) scale(0.44098847493157833)">
  
  <g
     id="line"
     transform="translate(-11.48,-7.5351075)">
    <path
       fill="none"
       stroke="#000"
       stroke-linecap="round"
       stroke-linejoin="round"
       stroke-width="2"
       d="m 33.0447,28.718 a 50.9486,50.9486 0 0 0 -2.6571,-7.7831 0.7613,0.7613 0 0 1 -0.065,-0.2757 C 30.2646,19.2833 29.6973,8.3774 26.2793,8.5366 c -3.23,0.15 -2.8123,9.65 -2.6741,11.8245 a 0.758,0.758 0 0 1 -0.3477,0.6864 l -9.3459,6.0771 A 2.9579,2.9579 0 0 0 12.48,29.6584 v 2.9936 a 3.7251,3.7251 0 0 0 3.217,3.69 l 5.7258,0.7884 c 2.1713,0.21 2.3663,3.5306 2.3676,6.1408 0,0.0184 7e-4,0.0363 0.0022,0.0546 l 1.255,15.78 A 1.8525,1.8525 0 0 0 26.9,60.9583 h 4.0044 a 1.8524,1.8524 0 0 0 1.8524,-1.8525 l 0.4347,-8.3377 a 0.7672,0.7672 0 0 1 0.76,-0.6641 h 5.6861 a 0.7672,0.7672 0 0 1 0.7584,0.6513 l 0.6069,8.3505 a 1.8525,1.8525 0 0 0 1.8525,1.8525 h 3.2322 A 1.8525,1.8525 0 0 0 47.94,59.1058 L 50.1236,39.1836 A 4.97,4.97 0 0 0 45.2119,34.015 l -9.63,-0.1064 A 1.9555,1.9555 0 0 1 33.68,32.1519 28.4052,28.4052 0 0 0 33.0452,28.718"
       id="path2" />
    <polyline
       fill="none"
       stroke="#000"
       stroke-linecap="round"
       stroke-linejoin="round"
       stroke-width="2"
       points="30.469 21.121 29.335 21.121 27.827 19.09 26.046 21.121"
       id="polyline4" />
    <polyline
       fill="none"
       stroke="#000"
       stroke-linecap="round"
       stroke-linejoin="round"
       stroke-width="2"
       points="27.8 27.269 25.382 27.269 23.875 25.237 22.094 27.269 20.179 27.269"
       id="polyline6" />
    <polyline
       fill="none"
       stroke="#000"
       stroke-linecap="round"
       stroke-linejoin="round"
       stroke-width="2"
       points="15.7 33.416 17.263 31.385 19.008 33.416 20.923 33.416 22.704 31.385 24.211 33.416 26.63 33.416 28.193 31.385 29.938 33.416"
       id="polyline8" />
    <polyline
       fill="none"
       stroke="#000"
       stroke-linecap="round"
       stroke-linejoin="round"
       stroke-width="2"
       points="31.331 39.836 33.112 37.805 34.62 39.836 37.038 39.836 38.601 37.805 40.346 39.836 42.708 39.836 44.272 37.805 46.017 39.836"
       id="polyline10" />
    <polyline
       fill="none"
       stroke="#000"
       stroke-linecap="round"
       stroke-linejoin="round"
       stroke-width="2"
       points="26.886 45.688 28.45 43.656 30.195 45.688 32.11 45.688 33.891 43.656 35.398 45.688 37.817 45.688 39.38 43.656 41.125 45.688"
       id="polyline12" />
    <path
       fill="none"
       stroke="#000"
       stroke-linecap="round"
       stroke-linejoin="round"
       stroke-width="2"
       d="m 59.5244,44.5659 a 10.0043,10.0043 0 0 1 -6.75,-9.46"
       id="path14" />
    <path
       fill="none"
       stroke="#000"
       stroke-linecap="round"
       stroke-linejoin="round"
       stroke-width="2"
       d="M 59.5245,50.4176 A 10.0171,10.0171 0 0 1 52.9776,42.9729"
       id="path16" />
  </g>
</g></svg>