<svg xmlns="http://www.w3.org/2000/svg" width="24" height="24" viewBox="0 0 24 24"> <g transform="translate(0.0 3.9237766315789493) scale(0.42105263157894735)">
  
  <g
     id="line-supplement"
     transform="translate(-8.849,-19.601926)">
    <path
       d="M 31.591,39.3414 31.6,39.33 c -0.0129,-0.0246 -0.0339,-0.0434 -0.0486,-0.0668 a 1.081,1.081 0 0 0 -0.0868,-0.1193 1.1028,1.1028 0 0 0 -0.1277,-0.13 1.0309,1.0309 0 0 0 -0.1049,-0.0818 1.09,1.09 0 0 0 -0.2061,-0.1076 c -0.0175,-0.0069 -0.0313,-0.02 -0.0493,-0.0258 -0.0083,-0.0028 -0.0169,-0.0017 -0.0252,-0.0043 A 0.9609,0.9609 0 0 0 30.6969,38.752 c -0.0285,-0.0018 -0.056,-0.0069 -0.0843,-0.0065 -0.0115,6e-4 -0.0228,-0.0037 -0.0342,-0.0027 l -8.6729,0.381 a 1.0992,1.0992 0 0 0 -1.0506,1.0978 v 2.4014 a 1.1058,1.1058 0 0 0 0.01,0.1471 4.6005,4.6005 0 0 0 1.7878,3.1732 7.1609,7.1609 0 0 0 4.2388,1.2147 8.0249,8.0249 0 0 0 1.0377,-0.06 v -0.0245 a 1.08,1.08 0 0 0 0.7249,-0.4 l 2.8492,-3.7667 a 1.103,1.103 0 0 0 0.2221,-0.6631 V 39.84 A 1.0834,1.0834 0 0 0 31.591,39.3414 Z m -7.6,1.2911 c -0.4664,0 -0.8446,-0.2268 -0.8446,-0.5064 0,-0.2796 0.3782,-0.5064 0.8446,-0.5064 0.4664,0 0.8445,0.2267 0.8445,0.5064 0,0.2797 -0.3782,0.5064 -0.8446,0.5064 z m 3.3872,1.1953 c -1.0616,0 -1.9222,-0.516 -1.9222,-1.1525 0,-0.6365 0.8606,-1.1524 1.9222,-1.1524 1.0616,0 1.9218,0.5159 1.9218,1.1524 0,0.6365 -0.86,1.1525 -1.9219,1.1525 z"
       id="path2" />
  </g>
  <g
     id="line"
     transform="translate(-8.849,-19.601926)">
    <polyline
       fill="none"
       stroke="#000"
       stroke-linecap="round"
       stroke-linejoin="round"
       stroke-width="2"
       points="29.311 31.934 9.849 42.95 9.849 47.356 30.884 56.964 64.849 37.053 64.849 32.263 58.275 36.006"
       id="polyline5" />
    <path
       fill="none"
       stroke="#000"
       stroke-linecap="round"
       stroke-linejoin="round"
       stroke-width="2"
       d="m 31.8635,30.1233 10.2022,-8.5952 a 3.6558,3.6558 0 0 1 4.1018,-0.5243 l 13.3418,5.769 a 2.6207,2.6207 0 0 1 0.2877,4.3617 l -11.8813,9.678"
       id="path7" />
    <path
       fill="none"
       stroke="#000"
       stroke-linecap="round"
       stroke-linejoin="round"
       stroke-width="2"
       d="M 33.449,39.8462 49.5009,26.4434 c 0,0 -1.31,-2.673 1.0547,-3.0178"
       id="path9" />
    <polyline
       fill="none"
       stroke="#000"
       stroke-linecap="round"
       stroke-linejoin="round"
       stroke-width="2"
       points="38.822 47.109 30.848 51.663 23.991 48.818"
       id="polyline11" />
    <path
       fill="none"
       stroke="#000"
       stroke-linecap="round"
       stroke-linejoin="round"
       stroke-width="2"
       d="m 32.38,37.0435 c 0,0 1.3494,-3.129 3.8656,-1.4244"
       id="path13" />
    <path
       fill="none"
       stroke="#000"
       stroke-linecap="round"
       stroke-linejoin="round"
       stroke-width="2"
       d="m 29.1092,35.5656 c 0,0 1.3493,-3.129 3.8656,-1.4245"
       id="path15" />
    <path
       fill="none"
       stroke="#000"
       stroke-linecap="round"
       stroke-linejoin="round"
       stroke-width="2"
       d="m 41.5841,41.2459 c 0,0 1.3494,-3.129 3.8656,-1.4244"
       id="path17" />
    <path
       fill="none"
       stroke="#000"
       stroke-linecap="round"
       stroke-linejoin="round"
       stroke-width="2"
       d="m 38.3133,39.768 c 0,0 1.3494,-3.129 3.8656,-1.4245"
       id="path19" />
  </g>
</g></svg>