<svg xmlns="http://www.w3.org/2000/svg" width="24" height="24" viewBox="0 0 24 24"> <g transform="translate(0.0 0.000004564106873772289) scale(0.48043230259452063)">
  
  <g
     id="line-supplement"
     transform="translate(-11.022538,-11.022415)">
    <path
       fill="#000"
       fill-rule="evenodd"
       d="M 20.3995,32.4312 C 20.1381,33.5788 20,34.7733 20,36 c 0,8.8366 7.1634,16 16,16 1.2268,0 2.4213,-0.1381 3.5688,-0.3995 -3.3356,-2.4359 -6.8435,-5.4377 -10.2876,-8.8818 -3.444,-3.444 -6.4458,-6.9519 -8.8817,-10.2875 z M 46.6172,47.97 C 43.291,47.2808 38.0773,43.8898 33.0938,38.9063 28.1102,33.9227 24.7192,28.709 24.03,25.3828 26.961,22.0808 31.2375,20 36,20 c 8.8366,0 16,7.1634 16,16 0,4.7625 -2.0808,9.039 -5.3828,11.97 z"
       clip-rule="evenodd"
       id="path2" />
  </g>
  <g
     id="line"
     transform="translate(-11.022538,-11.022415)">
    <path
       fill="#000"
       d="m 28.8498,43.1501 -0.7071,0.7071 v 0 z M 58.8803,58.8804 58.1732,58.1733 Z M 57.756,48.1534 58.6549,47.7153 Z M 28.1427,43.8572 c 6.3694,6.3695 12.9698,11.3581 18.5162,14.2634 2.7677,1.4498 5.325,2.4084 7.4917,2.7338 2.1427,0.3218 4.1199,0.05 5.4369,-1.2669 l -1.4143,-1.4142 c -0.6575,0.6575 -1.8417,0.9862 -3.7255,0.7033 C 52.5879,58.5973 50.2537,57.7458 47.5869,56.349 42.2645,53.561 35.824,48.7101 29.5569,42.443 Z M 12.4125,12.4125 c -1.317,1.3169 -1.5888,3.2942 -1.2669,5.4368 0.3254,2.1668 1.284,4.724 2.7337,7.4917 2.9053,5.5464 7.894,12.1468 14.2634,18.5162 L 29.5569,42.443 C 23.2899,36.1759 18.439,29.7355 15.651,24.413 c -1.3969,-2.6668 -2.2483,-5.001 -2.5276,-6.8607 -0.283,-1.8838 0.0457,-3.068 0.7033,-3.7256 z m 11.8722,0.9326 c -2.5284,-1.2323 -4.863,-2.0263 -6.8512,-2.2547 -1.974,-0.2268 -3.7881,0.0892 -5.021,1.3221 l 1.4142,1.4142 c 0.6151,-0.6151 1.6888,-0.9435 3.3785,-0.7494 1.6754,0.1925 3.7803,0.8847 6.2033,2.0656 z M 36,15 c -0.372,0 -0.7419,0.0097 -1.1093,0.0288 l 0.104,1.9973 C 35.3275,17.0088 35.6627,17 36,17 Z M 57,36 C 57,24.402 47.598,15 36,15 v 2 c 10.4934,0 19,8.5066 19,19 z m -0.0288,1.1093 C 56.9903,36.7418 57,36.372 57,36 h -2 c 0,0.3373 -0.0088,0.6724 -0.0261,1.0052 z m 2.6163,22.4782 c 1.2329,-1.2329 1.5488,-3.047 1.3221,-5.021 -0.2284,-1.9883 -1.0224,-4.3229 -2.2547,-6.8512 l -1.7978,0.8762 c 1.1809,2.423 1.8731,4.5278 2.0655,6.2033 0.1942,1.6897 -0.1343,2.7634 -0.7494,3.3785 z M 54.9739,37.0052 c -0.201,3.8582 0.1165,7.9616 1.8832,11.5863 l 1.7978,-0.8762 C 57.1019,44.529 56.778,40.8178 56.9712,37.1093 Z M 23.4085,15.1429 c 3.6247,1.7667 7.7281,2.0842 11.5862,1.8832 l -0.104,-1.9973 C 31.1821,15.222 27.471,14.898 24.2847,13.3451 Z"
       id="path5" />
    <path
       fill="none"
       stroke="#000"
       stroke-linecap="round"
       stroke-width="2"
       d="M 16.2235,33 C 16.0763,33.9786 16,34.9804 16,36 c 0,11.0457 8.9543,20 20,20 1.194,0 2.3635,-0.1046 3.5,-0.3052"
       id="path7" />
  </g>
</g></svg>