<svg xmlns="http://www.w3.org/2000/svg" width="24" height="24" viewBox="0 0 24 24"> <g transform="translate(1.7763568394002505e-15 0.000007019596678148332) scale(0.5199701242498943)">
  
  <g
     id="line"
     transform="translate(-12.505832,-12.098061)">
    <path
       fill="none"
       stroke="#000"
       stroke-linecap="round"
       stroke-miterlimit="10"
       stroke-width="2"
       d="m 13.9792,56.7778 c 0.3645,0.3645 0.8533,0.5189 1.325,0.4674 0,0 8.9017,0.0515 13.9615,-4.8025 C 29.33,52.387 29.39,52.327 29.45,52.2669 c 1.8352,-1.8352 1.8309,-4.8068 0,-6.6377 -1.831,-1.831 -4.8025,-1.8352 -6.6377,0 l -8.8331,8.8331 c -0.6389,0.639 -0.6389,1.6766 0,2.3155 z"
       id="path2" />
    <line
       x1="17.2365"
       x2="17.2265"
       y1="57.139099"
       y2="57.129101"
       fill="none"
       stroke="#000"
       stroke-linecap="round"
       stroke-miterlimit="10"
       stroke-width="2"
       id="line4" />
    <path
       fill="none"
       stroke="#000"
       stroke-linecap="round"
       stroke-miterlimit="10"
       stroke-width="2"
       d="m 22.1465,53.0191 c 0.12,0.81 -0.36,1.98 -1.31,2.98 -0.29,0.3 -0.59,0.56 -0.9,0.76"
       id="path6" />
    <path
       fill="none"
       stroke="#000"
       stroke-linecap="round"
       stroke-miterlimit="10"
       stroke-width="2"
       d="m 17.9665,55.6591 c -0.08,0.58 -0.36,1.11 -0.8,1.49"
       id="path8" />
    <path
       fill="none"
       stroke="#000"
       stroke-linecap="round"
       stroke-linejoin="round"
       stroke-miterlimit="10"
       stroke-width="2"
       d="M 41.0551,53.3579 22.4424,34.7451 c -0.3905,-0.3905 -0.3905,-1.0237 0,-1.4142 L 33.6848,22.0885 c 0.3905,-0.3905 1.0237,-0.3905 1.4142,0 l 18.6127,18.6127 c 0.3905,0.3905 0.3905,1.0237 0,1.4142 L 42.4693,53.3579 c -0.3905,0.3905 -1.0237,0.3905 -1.4142,0 z"
       id="path10" />
    <path
       fill="none"
       stroke="#000"
       stroke-linecap="round"
       stroke-linejoin="round"
       stroke-miterlimit="10"
       stroke-width="2"
       d="M 47.425,35.1923 35.6923,46.925 c -0.0422,0.0422 -0.0886,0.0725 -0.1392,0.0987 -0.2062,0.1007 -0.4716,0.0578 -0.6501,-0.1206 l -6.2227,-6.2227 c -0.1785,-0.1785 -0.2214,-0.4439 -0.1206,-0.6501 0.0262,-0.0505 0.0565,-0.097 0.0987,-0.1392 L 40.391,28.1583 c 0.0422,-0.0422 0.0887,-0.0725 0.1392,-0.0987 0.2062,-0.1007 0.4716,-0.0578 0.6501,0.1206 l 6.2227,6.2227 c 0.1785,0.1785 0.2214,0.4439 0.1206,0.6501 -0.0262,0.0506 -0.0564,0.0971 -0.0986,0.1393 z"
       id="path12" />
    <path
       fill="none"
       stroke="#000"
       stroke-linecap="round"
       stroke-miterlimit="10"
       stroke-width="2"
       d="m 57.1856,13.5714 c 0.3645,0.3645 0.5189,0.8533 0.4674,1.325 0,0 0.0515,8.9017 -4.8025,13.9615 -0.0557,0.0643 -0.1158,0.1243 -0.1758,0.1844 -1.8352,1.8352 -4.8068,1.8309 -6.6377,0 -1.831,-1.831 -1.8352,-4.8025 0,-6.6377 l 8.8331,-8.8331 c 0.639,-0.639 1.6766,-0.639 2.3155,-10e-5 z"
       id="path14" />
    <line
       x1="57.546799"
       x2="57.5368"
       y1="16.828699"
       y2="16.818701"
       fill="none"
       stroke="#000"
       stroke-linecap="round"
       stroke-miterlimit="10"
       stroke-width="2"
       id="line16" />
    <path
       fill="none"
       stroke="#000"
       stroke-linecap="round"
       stroke-miterlimit="10"
       stroke-width="2"
       d="m 53.4268,21.7387 c 0.81,0.12 1.98,-0.36 2.98,-1.31 0.3,-0.29 0.56,-0.59 0.76,-0.9"
       id="path18" />
    <path
       fill="none"
       stroke="#000"
       stroke-linecap="round"
       stroke-miterlimit="10"
       stroke-width="2"
       d="m 56.0668,17.5587 c 0.58,-0.08 1.11,-0.36 1.49,-0.8"
       id="path20" />
  </g>
</g></svg>