<svg xmlns="http://www.w3.org/2000/svg" width="24" height="24" viewBox="0 0 24 24"> <g transform="translate(0.0 5.605130044222144) scale(0.3722089447020337)">
  
  <g
     id="line"
     transform="translate(-3.8535906,-22.87888)">
    <path
       fill="none"
       stroke="#000"
       stroke-linecap="round"
       stroke-linejoin="round"
       stroke-width="2"
       d="m 12.1118,37.5052 -2.425,1.5918 a 2.5683,2.5683 0 0 1 -1.41,0.4213 H 7.4217 A 2.5686,2.5686 0 0 1 5.56,38.7189 v 0 A 2.5688,2.5688 0 0 1 4.8967,36.4805 l 0.8909,-4.7966 3.2578,-2.51 c 0,0 1.363,-5.2538 4.7676,-2.6374 3.8838,2.9846 -1.7758,5.2236 -1.7758,5.2236"
       id="path2" />
    <path
       fill="none"
       stroke="#000"
       stroke-linecap="round"
       stroke-linejoin="round"
       stroke-width="2"
       d="m 14.8519,27.6188 c 0,0 5.5681,-2.7151 9.0881,-2.2188 a 13.1662,13.1662 0 0 0 4.28,-0.1869 c 5.3712,-1.018 16.7957,-2.6465 22.5624,0.5368 0,0 8.7736,2.5188 9.787,17.6594 a 5.0808,5.0808 0 0 0 1.7123,3.5375 c 1.2438,1.058 4.3018,1.8859 5.0518,-2.1974"
       id="path4" />
    <path
       fill="none"
       stroke="#000"
       stroke-linecap="round"
       stroke-linejoin="round"
       stroke-width="2"
       d="m 24.2555,37.3332 c 0,0 0.9081,5.3808 -1.5889,6.9168 -2.7974,1.7208 -8.7769,5.4861 -8.7769,5.4861 0,0 0.6949,5.7817 -3.7587,3.5413"
       id="path6" />
    <path
       fill="none"
       stroke="#000"
       stroke-linecap="round"
       stroke-linejoin="round"
       stroke-width="2"
       d="m 16.7957,33.277 c 0,0 -2.0215,2.6553 -0.6317,8.7261 l -4.414,4.33"
       id="path8" />
    <path
       fill="none"
       stroke="#000"
       stroke-linecap="round"
       stroke-linejoin="round"
       stroke-width="2"
       d="m 24.629,42.0031 c 0,0 12.571,-0.9207 14.9086,-2.0142 2.3376,-1.0935 3.0907,-0.9552 3.0907,-0.9552"
       id="path10" />
    <path
       fill="none"
       stroke="#000"
       stroke-linecap="round"
       stroke-linejoin="round"
       stroke-width="2"
       d="m 42.7736,34.5 c 0,0 -1.784,5.1542 3.4593,14.2605 l -1.2,5.202 a 1.86,1.86 0 0 0 1.8124,2.2781 h 0.0024 a 1.86,1.86 0 0 0 1.7558,-1.2463 l 2.1789,-6.2338 c 0,0 -2.6532,-4.9632 0.0632,-9.7268 2.7164,-4.7636 1.9879,-7.45 1.9879,-7.45"
       id="path12" />
    <path
       fill="none"
       stroke="#000"
       stroke-linecap="round"
       stroke-linejoin="round"
       stroke-width="2"
       d="m 49.8724,41.5141 c 0,0 4.0648,5.2765 7.1008,6.7766 2.11,1.0426 1.9436,4.4593 1.9436,4.4593 v 0.173 a 2,2 0 0 0 2.087,1.9981 l 0.75,-0.0326 a 2,2 0 0 0 1.913,-1.9981 v -0.1088"
       id="path14" />
    <path
       fill="none"
       stroke="#000"
       stroke-linecap="round"
       stroke-linejoin="round"
       stroke-width="2"
       d="m 24.629,46.7007 a 18.4946,18.4946 0 0 1 0,6.36 v 0 a 1.6658,1.6658 0 0 0 1.4659,2.4572 h 0.41 a 1.6659,1.6659 0 0 0 1.6107,-1.2408 l 1.0516,-4.61 -0.3853,-8.0173"
       id="path16" />
    <path
       fill="none"
       stroke="#000"
       stroke-linecap="round"
       stroke-linejoin="round"
       stroke-width="2"
       d="m 26.7967,25.4963 c 0,0 4.0366,3.3371 2.37,12.67"
       id="path18" />
    <path
       fill="none"
       stroke="#000"
       stroke-linecap="round"
       stroke-linejoin="round"
       stroke-width="2"
       d="m 33.3883,41.1571 c 0,0 2.2784,-6.5738 0.6227,-11.74"
       id="path20" />
    <path
       fill="none"
       stroke="#000"
       stroke-linecap="round"
       stroke-linejoin="round"
       stroke-width="2"
       d="m 37.1262,24.0725 c 0,0 2.091,2.5109 2.1744,8.0942"
       id="path22" />
    <path
       fill="none"
       stroke="#000"
       stroke-linecap="round"
       stroke-linejoin="round"
       stroke-width="2"
       d="m 43.1546,23.9437 c 0,0 2.3454,1.723 2.1787,6.0563"
       id="path24" />
    <path
       fill="none"
       stroke="#000"
       stroke-linecap="round"
       stroke-linejoin="round"
       stroke-width="2"
       d="M 21.5,32.6622 A 11.9274,11.9274 0 0 0 19.82,25.806"
       id="path26" />
  </g>
</g></svg>