<svg xmlns="http://www.w3.org/2000/svg" width="24" height="24" viewBox="0 0 24 24"> <g transform="translate(2.496559125351519 0.0) scale(0.4736166983355076)">
  
  <g
     id="line"
     transform="translate(-15.740947,-8.2413015)">
    <path
       d="m 41.9289,27.0637 c 0,1.1045 -0.8965,2 -2,2 -1.1035,0 -2,-0.8955 -2,-2 0,-1.1035 0.8965,-2 2,-2 1.1035,0 2,0.8965 2,2"
       id="path2" />
    <path
       d="m 33.9289,27.0637 c 0,1.1045 -0.8965,2 -2,2 -1.1035,0 -2,-0.8955 -2,-2 0,-1.1035 0.8965,-2 2,-2 1.1035,0 2,0.8965 2,2"
       id="path4" />
    <path
       d="m 35.9288,37.0662 c -1.1519,0 -2.3037,-0.2862 -3.4473,-0.858 -0.4941,-0.247 -0.6943,-0.8476 -0.4472,-1.3417 0.2465,-0.4937 0.8461,-0.6944 1.3417,-0.4473 1.7178,0.8594 3.3877,0.8594 5.1055,0 0.4946,-0.2471 1.0947,-0.0464 1.3418,0.4473 0.2471,0.4941 0.0469,1.0947 -0.4473,1.3417 -1.1435,0.5718 -2.2954,0.858 -3.4472,0.858 z"
       id="path6" />
    <path
       d="m 54.7461,58.915 c -0.0508,0 -0.1016,-0.0029 -0.1523,-0.0107 -0.5459,-0.084 -0.9209,-0.5938 -0.8379,-1.1387 0.0087,-0.0576 0.8271,-5.7412 -2.1289,-9.1777 -1.4756,-1.7149 -3.6895,-2.6123 -6.586,-2.669 -3.3096,2.1856 -6.0283,3.5459 -9.126,3.5889 -0.0214,0.002 -0.0429,10e-4 -0.0644,10e-4 -0.0078,0 -0.0137,0 -0.0215,0 h -0.0449 c -0.0147,0 -0.0283,0 -0.042,0 -0.0147,0 -0.0293,0 -0.044,-10e-4 -3.0996,-0.043 -5.8164,-1.4033 -9.1259,-3.5889 -2.8965,0.0567 -5.1104,0.9541 -6.586,2.669 -2.956,3.4365 -2.1377,9.1201 -2.1289,9.1777 0.083,0.5449 -0.292,1.0547 -0.8379,1.1387 -0.5332,0.0801 -1.0547,-0.29 -1.1386,-0.8359 -0.0411,-0.2696 -0.9727,-6.6329 2.581,-10.7754 1.9229,-2.2412 4.751,-3.377 8.4072,-3.377 0.1973,0 0.3907,0.0586 0.5547,0.168 3.1533,2.1025 5.6602,3.4101 8.3828,3.4248 2.7217,-0.0137 5.2286,-1.3223 8.3829,-3.4248 0.164,-0.1094 0.3574,-0.168 0.5546,-0.168 3.6563,0 6.4844,1.1358 8.4073,3.377 3.5537,4.1425 2.622,10.5058 2.581,10.7754 -0.0761,0.4941 -0.5019,0.8466 -0.9863,0.8466 z"
       id="path8" />
    <path
       d="m 21.2998,21.1133 c -0.5527,0 -1,-0.4478 -1,-1 v -8.1216 c 0,-0.5522 0.4473,-1 1,-1 0.5527,0 1,0.4478 1,1 v 8.1216 c 0,0.5522 -0.4473,1 -1,1 z"
       id="path10" />
    <path
       d="m 19.2725,23.6929 c -0.2159,0 -0.4336,-0.0699 -0.6172,-0.2134 -0.4336,-0.3413 -0.5098,-0.9702 -0.168,-1.4043 l 2.0264,-2.5796 c 0.3408,-0.4331 0.9677,-0.5093 1.4043,-0.1689 0.4336,0.3413 0.5097,0.9702 0.1679,1.4043 l -2.0263,2.5795 c -0.1973,0.251 -0.4903,0.3824 -0.7871,0.3824 z"
       id="path12" />
    <path
       d="m 21.2998,25.2134 c -0.5527,0 -1,-0.4478 -1,-1 v -4.1001 c 0,-0.5523 0.4473,-1 1,-1 0.5527,0 1,0.4477 1,1 v 4.1001 c 0,0.5522 -0.4473,1 -1,1 z"
       id="path14" />
    <path
       d="m 20.3213,44.0664 c -0.3731,0 -0.7305,-0.209 -0.9024,-0.5674 -0.2255,-0.4697 -0.4238,-0.9482 -0.5888,-1.4219 -2.9785,-8.5644 4.2597,-18.8125 6.6387,-22.1801 l 0.166,-0.2354 c 0.3183,-0.4507 0.9423,-0.56 1.3935,-0.2412 0.4512,0.3179 0.5596,0.9419 0.2412,1.3936 l -0.167,0.2373 c -2.2324,3.1596 -9.0244,12.7758 -6.3837,20.3686 0.1406,0.4024 0.3095,0.8106 0.5029,1.2139 0.2392,0.498 0.0293,1.0957 -0.4688,1.334 -0.1396,0.0674 -0.2871,0.0986 -0.4316,0.0986 z"
       id="path16" />
    <path
       d="m 51.5361,44.0664 c -0.1445,0 -0.292,-0.0312 -0.4316,-0.0986 -0.4981,-0.2383 -0.708,-0.836 -0.4688,-1.334 0.1934,-0.4033 0.3623,-0.8115 0.503,-1.2149 2.6406,-7.5918 -4.1514,-17.208 -6.3838,-20.3676 l -0.167,-0.2373 c -0.3184,-0.4517 -0.21,-1.0757 0.2412,-1.3936 0.4502,-0.3188 1.0762,-0.2095 1.3936,0.2412 l 0.166,0.2354 c 2.3789,3.3676 9.6172,13.6157 6.6386,22.1792 -0.165,0.4746 -0.3632,0.9531 -0.5888,1.4228 -0.1719,0.3584 -0.5293,0.5674 -0.9024,0.5674 z"
       id="path18" />
    <path
       d="m 24.6201,28.6279 c -0.3564,0 -0.7012,-0.1875 -0.8818,-0.5205 -0.2637,-0.4853 -0.0908,-1.0884 0.3945,-1.3515 l 0.0147,-0.0083 c 4.1728,-2.2642 4.1728,-2.2642 8.1572,-6.3213 l 1.458,1.3701 c -4.1865,4.2622 -4.2666,4.3247 -8.6611,6.709 -0.1534,0.083 -0.3184,0.1225 -0.4815,0.1225 z"
       id="path20" />
    <path
       d="m 47.2471,28.6348 c -0.1612,0 -0.3242,-0.0386 -0.4756,-0.1211 -0.1817,-0.0987 -4.499,-2.4634 -8.6768,-6.7173 -0.3867,-0.3941 -0.3808,-1.0274 0.0137,-1.4141 0.3926,-0.3872 1.0254,-0.3818 1.4141,0.0127 3.9687,4.042 8.1601,6.3379 8.2021,6.3609 0.4854,0.2631 0.666,0.8701 0.4024,1.3559 -0.1807,0.3335 -0.5245,0.523 -0.8799,0.523 z"
       id="path22" />
    <path
       d="m 35.9287,43.5977 c -7.1494,0 -12.3389,-6.6202 -12.3389,-15.7403 0,-0.5522 0.4473,-1 1,-1 0.5528,0 1,0.4478 1,1 0,7.9619 4.3477,13.7403 10.3389,13.7403 5.7012,0 10.3389,-5.9092 10.3389,-13.1734 0,-0.2495 -0.0059,-0.498 -0.0166,-0.7446 -0.0244,-0.5518 0.4023,-1.0191 0.9541,-1.044 0.539,-0.0117 1.0185,0.4019 1.0439,0.9541 0.0127,0.2769 0.0186,0.5547 0.0186,0.8345 0,8.3667 -5.5352,15.1734 -12.3389,15.1734 z"
       id="path24" />
    <polyline
       fill="none"
       stroke="#000"
       stroke-linecap="round"
       stroke-linejoin="round"
       stroke-miterlimit="10"
       stroke-width="2"
       points="21.2988,11.7613 26.7388,12.2913 35.8088,13.1813 45.1188,12.2713 50.3088,11.7613"
       id="polyline26" />
    <path
       fill="none"
       stroke="#000"
       stroke-linecap="round"
       stroke-linejoin="round"
       stroke-miterlimit="10"
       stroke-width="2"
       d="m 26.7388,11.7613 v 0.53 7.95 c 0,0 6.72,-0.27 9.19,2.63"
       id="path28" />
    <path
       fill="none"
       stroke="#000"
       stroke-linecap="round"
       stroke-linejoin="round"
       stroke-miterlimit="10"
       stroke-width="2"
       d="m 45.1188,11.7613 v 0.51 7.97 c 0,0 -6.72,-0.27 -9.19,2.63"
       id="path30" />
    <polyline
       fill="none"
       stroke="#000"
       stroke-linecap="round"
       stroke-linejoin="round"
       stroke-miterlimit="10"
       stroke-width="2"
       points="50.3088,11.7613 35.1788,9.2413 21.2988,11.7613"
       id="polyline32" />
  </g>
</g></svg>