<svg xmlns="http://www.w3.org/2000/svg" width="24" height="24" viewBox="0 0 24 24"> <g transform="translate(3.041635259482879 0.0) scale(0.4744934653748477)">
  
  <g
     id="line"
     transform="translate(-17.120301,-10.77)">
    <path
       fill="none"
       stroke="#000"
       stroke-linecap="round"
       stroke-linejoin="round"
       stroke-miterlimit="10"
       stroke-width="2"
       d="m 39.66,33.44 c 0,0 6.605,3.51 14.22,0 -0.04551,-8.313 -6.972,-12.73 -6.972,-12.73 0,0 -7.2,4.414 -7.245,12.73 z"
       id="path2" />
    <path
       fill="none"
       stroke="#000"
       stroke-linecap="round"
       stroke-linejoin="round"
       stroke-miterlimit="10"
       stroke-width="2"
       d="m 18.12,33.44 c 0,0 6.605,3.51 14.22,0 -0.04551,-8.313 -6.972,-12.73 -6.972,-12.73 0,0 -7.2,4.414 -7.245,12.73 z"
       id="path4" />
    <line
       x1="34.630001"
       x2="37.369999"
       y1="33.09"
       y2="33.099998"
       fill="none"
       stroke="#000"
       stroke-linecap="round"
       stroke-linejoin="round"
       stroke-miterlimit="10"
       stroke-width="2"
       id="line6" />
    <line
       x1="25.23"
       x2="25.23"
       y1="11.77"
       y2="20.17"
       fill="none"
       stroke="#000"
       stroke-linecap="round"
       stroke-linejoin="round"
       stroke-miterlimit="10"
       stroke-width="2"
       id="line8" />
    <line
       x1="46.77"
       x2="46.77"
       y1="12.01"
       y2="20.709999"
       fill="none"
       stroke="#000"
       stroke-linecap="round"
       stroke-linejoin="round"
       stroke-miterlimit="10"
       stroke-width="2"
       id="line10" />
    <path
       fill="none"
       stroke="#000"
       stroke-linecap="round"
       stroke-linejoin="round"
       stroke-miterlimit="10"
       stroke-width="2"
       d="m 35.76,42.86 -17.16,2.53e-4 -3.72e-4,2.445 c 0,0 7.12,2.194 11.2,6.873 4.082,4.679 5.957,8.172 5.957,8.172 h 0.06427 c 0,0 1.332,-3.312 5.414,-7.991 4.082,-4.679 12.17,-7.054 12.17,-7.054 l -4.69e-4,-2.445 -17.59,-2.53e-4"
       id="path12" />
  </g>
</g></svg>