<svg xmlns="http://www.w3.org/2000/svg" width="24" height="24" viewBox="0 0 24 24"> <g transform="translate(0.0 1.8214884458623644) scale(0.40717305229661127)">
  
  <g
     id="line"
     transform="translate(-6.5285013,-10.9623)">
    <path
       d="m 41.873,29.9583 a 2,2 0 1 1 -2,-2 2,2 0 0 1 2,2"
       id="path2" />
    <path
       d="m 33.873,29.9583 a 2,2 0 1 1 -2,-2 2,2 0 0 1 2,2"
       id="path4" />
    <path
       fill="none"
       stroke="#000"
       stroke-linecap="round"
       stroke-linejoin="round"
       stroke-width="2"
       d="m 34.084,37.9583 a 11.5,11.5 0 0 0 3.9365,0"
       id="path6" />
    <path
       fill="none"
       stroke="#000"
       stroke-linecap="round"
       stroke-linejoin="round"
       stroke-width="2"
       d="m 13.9678,59.9583 2.9375,-11.3057 -0.9375,-1.25 -4,-3 -4,-6 a 1.4142136,1.4142136 0 0 1 2,-2 l 4,4 c 1,1 2,1 5,2 3,1 3.1308,3.2373 3,5 -0.666,8.9727 -1,12.5557 -1,12.5557"
       id="path8" />
    <path
       fill="none"
       stroke="#000"
       stroke-linecap="round"
       stroke-linejoin="round"
       stroke-width="2"
       d="m 19.9912,42.8479 c 0,0 -1.0234,-2.89 -2.1172,-5.89 -0.4316,-1.1816 -1.9062,-1.0312 -1.9062,-0.166 v 3.69"
       id="path10" />
    <path
       fill="none"
       stroke="#000"
       stroke-linecap="round"
       stroke-linejoin="round"
       stroke-width="2"
       d="m 58.0322,59.9583 -2.9375,-11.3057 0.9375,-1.25 4,-3 4,-6 a 1.4142136,1.4142136 0 0 0 -2,-2 l -4,4 c -1,1 -2,1 -5,2 -3,1 -3.1308,3.2373 -3,5 0.667,8.9727 1,12.5557 1,12.5557"
       id="path12" />
    <path
       fill="none"
       stroke="#000"
       stroke-linecap="round"
       stroke-linejoin="round"
       stroke-width="2"
       d="m 52.01,42.8479 c 0,0 1.0224,-2.89 2.1162,-5.89 0.4306,-1.1816 1.9062,-1.0312 1.9062,-0.166 v 3.69"
       id="path14" />
    <line
       x1="23"
       x2="26"
       y1="39.958302"
       y2="38.958302"
       fill="none"
       stroke="#000"
       stroke-linecap="round"
       stroke-linejoin="round"
       stroke-width="2"
       id="line16" />
    <line
       x1="46.0056"
       x2="49.444302"
       y1="38.812099"
       y2="39.958302"
       fill="none"
       stroke="#000"
       stroke-linecap="round"
       stroke-linejoin="round"
       stroke-width="2"
       id="line18" />
    <path
       fill="none"
       stroke="#000"
       stroke-linejoin="round"
       stroke-width="2"
       d="m 24.9507,30.9623 c -0.1015,7.999 4.9365,14 11,14 5.9365,0 11.0635,-6 11.0635,-14 0,-5 -3,-11 -3,-11 -8,0 -10,3 -16,1 0,0 -3,5 -3.0635,10 z"
       id="path20" />
    <path
       fill="none"
       stroke="#000"
       stroke-linecap="round"
       stroke-linejoin="round"
       stroke-width="2"
       d="m 26.0142,37.9623 c -3,0 -4,-7 -4,-14 0,-6 5,-12 14,-12 9,0 14,6 14,12 0,7 -1,14 -4,14"
       id="path22" />
  </g>
</g></svg>