<svg xmlns="http://www.w3.org/2000/svg" width="24" height="24" viewBox="0 0 24 24"> <g transform="translate(1.1097653447708122 0.0) scale(0.4534323896693667)">
  
  <g
     id="line-supplement"
     transform="translate(-12.268013,-10.082888)">
    <path
       d="m 36.2846,57.9425 c 2.897,0 5.245,-2.927 5.245,-6.538 0,-3.611 -2.348,-6.538 -5.245,-6.538 -2.897,0 -5.245,2.927 -5.245,6.538 0,3.611 2.348,6.538 5.245,6.538 z"
       id="path2" />
  </g>
  <g
     id="line"
     transform="translate(-12.268013,-10.082888)">
    <path
       d="m 48.2846,38.0125 a 3,3 0 1 1 -3,-3 3.0011,3.0011 0 0 1 3,3 z"
       id="path5" />
    <path
       d="m 30.2846,38.0125 a 3,3 0 1 1 -3,-3 3.0011,3.0011 0 0 1 3,3 z"
       id="path7" />
    <path
       fill="none"
       stroke="#000"
       stroke-linecap="round"
       stroke-linejoin="round"
       stroke-width="2"
       d="m 36.2846,62.0125 a 23.004,23.004 0 0 0 18.936,-36.06 9.4745,9.4745 0 0 1 -4.168,1.16 c -0.2995,0.0171 -0.5418,0.1467 -0.5681,0.3069 -0.2753,1.678 -2.929,2.994 -6.1609,2.994 a 10.6158,10.6158 0 0 1 -2.348,-0.2412 1.0481,1.0481 0 0 0 -0.7575,0.1169 14.9416,14.9416 0 0 1 -8.031,2.036 c -5.003,0 -9.235,-1.889 -10.15,-4.402 -0.06,-0.1643 -0.3137,-0.2817 -0.6266,-0.2943 a 10.6483,10.6483 0 0 1 -5.199,-1.472 22.9993,22.9993 0 0 0 19.075,35.85 z"
       id="path9" />
    <path
       fill="none"
       stroke="#000"
       stroke-linecap="round"
       stroke-linejoin="round"
       stroke-width="2"
       d="m 36.2846,57.9425 c 2.897,0 5.245,-2.927 5.245,-6.538 0,-3.611 -2.348,-6.538 -5.245,-6.538 -2.897,0 -5.245,2.927 -5.245,6.538 0,3.611 2.348,6.538 5.245,6.538 z"
       id="path11" />
    <path
       fill="none"
       stroke="#000"
       stroke-linecap="round"
       stroke-linejoin="round"
       stroke-width="2"
       d="m 23.2646,15.3825 c -0.0241,0.14 -0.2461,0.2536 -0.5208,0.2685 -3.348,0.1819 -5.924,1.861 -5.924,3.904 0,2.165 2.948,3.92 6.585,3.92 h 0.4921 a 8.3244,8.3244 0 0 1 1.942,2.698 21.4379,21.4379 0 0 1 1.197,4.668 c 0.0272,0.158 0.0528,0.3059 0.077,0.4416 a 17.2563,17.2563 0 0 0 6.071,1.038 14.9416,14.9416 0 0 0 8.031,-2.036 1.0487,1.0487 0 0 1 0.7575,-0.1169 10.6169,10.6169 0 0 0 2.348,0.2413 11.5324,11.5324 0 0 0 1.294,-0.072 19.4024,19.4024 0 0 1 1.11,-4.164 8.331,8.331 0 0 1 1.942,-2.698 h -0.1525 c 3.993,-0.0015 7.229,-1.856 7.229,-4.142 0,-2.193 -2.976,-3.988 -6.741,-4.133 -0.2868,-0.0111 -0.52,-0.1138 -0.5744,-0.2576 -0.841,-2.199 -4.72,-3.852 -9.307,-3.852 a 14.1982,14.1982 0 0 0 -7.362,1.782 1.0008,1.0008 0 0 1 -0.6945,0.1023 10.1768,10.1768 0 0 0 -2.152,-0.2111 c -2.963,0 -5.395,1.152 -5.648,2.619 z"
       id="path13" />
    <path
       fill="none"
       stroke="#000"
       stroke-width="2"
       d="m 23.7846,23.5925 a 17.6584,17.6584 0 0 0 -6.5,2.5"
       id="path15" />
    <path
       fill="none"
       stroke="#000"
       stroke-width="2"
       d="m 48.2846,23.5925 a 19.3387,19.3387 0 0 1 7,2.5"
       id="path17" />
    <path
       fill="none"
       stroke="#000"
       stroke-linejoin="round"
       stroke-width="2"
       d="m 23.9046,23.4825 c 2.064,0.59 6.546,1.062 7.962,-1.769 2.1231,2.123 7.077,1.474 8.846,0 0.8847,1.769 4.423,3.185 7.962,1.769"
       id="path19" />
  </g>
</g></svg>