<svg xmlns="http://www.w3.org/2000/svg" width="24" height="24" viewBox="0 0 24 24"> <g transform="translate(4.691760727272728 0.0) scale(0.36363636363636365)">
  
  <g
     id="line"
     transform="translate(-15.9,-3)">
    <circle
       cx="36"
       cy="27.25"
       r="3"
       fill="#000"
       stroke="none"
       id="circle2" />
    <path
       fill="none"
       stroke="#000"
       stroke-linecap="round"
       stroke-linejoin="round"
       stroke-miterlimit="10"
       stroke-width="2"
       d="m 44.3441,51.4548 c 0.4118,4.1818 2.7967,8.8825 9.7967,13.5995 1.1555,0.7786 0.6786,2.5674 -0.7056,2.7269 C 52.1874,67.9249 50.9182,68 49.6308,68 31.5541,68 16.9,53.6731 16.9,36 16.9,18.3269 31.5541,4 49.6308,4 c 1.4038,0 2.7859,0.0893 4.1422,0.2595 1.271,0.1595 1.7777,1.7021 0.8548,2.5905 -3.6851,3.5471 -6.6266,7.5692 -8.7365,12.192 -1.0567,2.3153 -1.2149,4.9406 -0.405,7.3533 0.832,2.4787 2.3222,5.7467 4.9203,8.6047 4.375,4.8125 -3.5625,5.375 -3.5625,5.375 0,0 -3.1458,0.5833 -0.5,3.4375 1.161,1.2524 0.2761,2.4207 -0.6881,3.1591 -1.0432,0.7989 -2.3329,1.1945 -3.646,1.244 C 40.3787,48.277 38.0549,47.9458 36.3036,46 m 8.0405,5.4548 c 0,0 5.0913,-2.0786 1.8269,-4.9398"
       id="path4" />
    <path
       fill="none"
       stroke="#000"
       stroke-linecap="round"
       stroke-linejoin="round"
       stroke-miterlimit="10"
       stroke-width="2"
       d="m 40.7812,19.875 c 0,0 -4.7812,-3 -9.5625,1.9062"
       id="path6" />
  </g>
</g></svg>