<svg xmlns="http://www.w3.org/2000/svg" width="24" height="24" viewBox="0 0 24 24"> <g transform="translate(0.0 0.25854411471715366) scale(0.4135620648616268)">
  
  <g
     id="line"
     transform="translate(-7.0086807,-7.6101476)">
    <g
       fill="none"
       id="g10">
      <path
         d="m 8.252,17.56 18.03,-4.217 c 0,0 0.2161,2.499 0.5386,4.217 a 19.09,19.1 0 0 0 3.542,6.444 c 0.7512,0.5369 -7.393,12.25 -10.18,12.36 -2.79,0.1075 -11.93,-18.8 -11.93,-18.8 z"
         id="path2" />
      <path
         stroke="#000"
         stroke-linecap="round"
         stroke-linejoin="round"
         stroke-width="2"
         d="m 34.66,24.76 c -0.04016,0.2039 -0.0022,0.4507 0.1384,0.7666 0.1851,0.4156 0.3298,0.848 0.4321,1.291 0.4985,2.162 1.495,3.658 5.317,5.819 3.394,1.919 10.32,15.51 11.83,18.53 0.1945,0.3888 0.2999,0.8161 0.3086,1.251 l 0.1292,5.814 c 0.01454,0.6546 0.2464,1.286 0.659,1.794 l 1.853,2.283 c 1.015,1.25 2.845,1.454 4.11,0.4574 l 3.483,-2.744 c 1.169,-0.9207 1.468,-2.568 0.6995,-3.842 L 42.4798,21.44 C 42.1655,20.9195 41.955,20.6325 41.7481,20.5223"
         id="path4" />
      <rect
         x="14.32"
         y="25.040001"
         rx="2.359"
         ry="2.359"
         width="13.56"
         height="13.46"
         transform="matrix(0.8659032,-0.50021159,0.49978843,0.86614765,0,0)"
         stroke="#000"
         stroke-linecap="round"
         stroke-linejoin="round"
         stroke-width="2"
         id="rect6" />
      <path
         stroke="#000"
         stroke-linecap="round"
         stroke-linejoin="round"
         stroke-width="2"
         d="M 31.02,24.98 21.555,36.22 C 18.092,40.269 4.415,18.58 8.905,16.95 l 17.34,-3.026"
         id="path8" />
    </g>
  </g>
</g></svg>