<svg xmlns="http://www.w3.org/2000/svg" width="24" height="24" viewBox="0 0 24 24"> <g transform="translate(3.9719524946235047 0.0) scale(0.4115353425094626)">
  
  <g
     id="line"
     transform="translate(-16.304384,-6.7992013)">
    <path
       fill="none"
       stroke="#000"
       stroke-linecap="round"
       stroke-linejoin="round"
       stroke-miterlimit="10"
       stroke-width="2"
       d="m 40.3256,34.2618 c 0.081,-1.9313 1.7123,-3.4312 3.6436,-3.3502 1.9313,0.081 3.4313,1.7123 3.3502,3.6436"
       id="path2" />
    <line
       x1="54.316399"
       x2="54.3148"
       y1="34.788101"
       y2="47.661701"
       fill="none"
       stroke="#000"
       stroke-linecap="round"
       stroke-linejoin="round"
       stroke-miterlimit="10"
       stroke-width="2"
       id="line4" />
    <path
       fill="none"
       stroke="#000"
       stroke-linecap="round"
       stroke-linejoin="round"
       stroke-miterlimit="10"
       stroke-width="2"
       d="m 23.0111,34.7881 c -1.3429,-1.3904 -3.4627,-1.3429 -4.853,0 -1.3904,1.3429 -0.9608,3.2735 0.3821,4.6639 1.7701,1.875 2.935,4.0425 2.863,8.3966 v -0.187 c 0,9.0883 7.3675,16.4558 16.4558,16.4558 9.0883,0 16.4558,-7.3674 16.4558,-16.4557"
       id="path6" />
    <path
       fill="none"
       stroke="#000"
       stroke-linecap="round"
       stroke-linejoin="round"
       stroke-miterlimit="10"
       stroke-width="2"
       d="m 54.3164,34.7881 c 0.081,-1.9313 -1.4189,-3.5626 -3.3502,-3.6436 -1.9313,-0.081 -3.5626,1.4189 -3.6436,3.3502 l -0.0155,0.1945 c 0.155,-1.9268 -1.2813,-3.6144 -3.2081,-3.7694 -1.9268,-0.155 -3.6144,1.2813 -3.7694,3.2081 l -0.0487,0.4272 v -23.144 l -0.0073,0.1121 C 40.3973,9.5942 38.9338,7.9301 37.0048,7.8064 35.0758,7.6827 33.4117,9.1462 33.288,11.0752 v 0.3359 22.3353 c 0,-1.933 -1.567,-3.5 -3.5,-3.5 -1.933,0 -3.5,1.567 -3.5,3.5"
       id="path8" />
  </g>
</g></svg>