<svg xmlns="http://www.w3.org/2000/svg" width="24" height="24" viewBox="0 0 24 24"> <g transform="translate(2.402668250173086 0.0) scale(0.4798665874913457)">
  
  <g
     id="line"
     transform="translate(-16,-10.9444)">
    <path
       fill="none"
       stroke="#000"
       stroke-linecap="round"
       stroke-linejoin="round"
       stroke-width="2"
       d="m 17,59.9583 v -3 c 0,-4.9941 5.0078,-9 10,-9 q 9,7.5 18,0 c 4.9941,0 10,4.0059 10,9 v 3"
       id="path2" />
    <path
       d="m 42,30.9583 c 0,1.1045 -0.8955,1 -2,1 -1.1045,0 -2,0.1045 -2,-1 a 3.1184,3.1184 0 0 1 1,-2 c 1.1045,0 3,0.8955 3,2"
       id="path4" />
    <path
       d="m 34,30.9583 c 0,1.1045 -0.8955,1 -2,1 -1.1045,0 -2,0.1045 -2,-1 0,-1 2.0225,-2 3.127,-2 a 3.2627,3.2627 0 0 1 0.873,2"
       id="path6" />
    <path
       fill="none"
       stroke="#000"
       stroke-linecap="round"
       stroke-linejoin="round"
       stroke-width="2"
       d="m 38,38.7083 a 3.0417,3.0417 0 0 0 -4,0"
       id="path8" />
    <path
       fill="none"
       stroke="#000"
       stroke-linecap="round"
       stroke-linejoin="round"
       stroke-width="2"
       d="m 25.99,37.9444 c -3,0 -4,-7 -4,-14 0,-6 5,-12 14,-12 9,0 14,6 14,12 0,7 -1,14 -4,14"
       id="path10" />
    <path
       fill="none"
       stroke="#000"
       stroke-linejoin="round"
       stroke-width="2"
       d="m 24.9262,30.9444 c -0.1015,7.999 4.9365,14 11,14 5.9365,0 11.0635,-6 11.0635,-14 0,-5 -3,-11 -3,-11 -8,0 -10,3 -16,1 3e-4,0 -2.9997,5 -3.0635,10 z"
       id="path12" />
  </g>
</g></svg>