<svg xmlns="http://www.w3.org/2000/svg" width="24" height="24" viewBox="0 0 24 24"> <g transform="scale(0.47058823529411764)">
  
  <g
     id="line"
     transform="translate(-10,-10.9092)">
    <path
       fill="none"
       stroke="#000"
       stroke-linecap="round"
       stroke-linejoin="round"
       stroke-miterlimit="10"
       stroke-width="2"
       d="m 11,16.9092 4.9985,-5 h 43.003 c 0.5514,0 0.9985,0.447 0.9985,0.9985 v 43.003 c 0,0.5514 -0.447,0.9985 -0.9985,0.9985"
       id="path2" />
    <path
       fill="none"
       stroke="#000"
       stroke-linecap="round"
       stroke-linejoin="round"
       stroke-miterlimit="10"
       stroke-width="2"
       d="M 55.0015,60.9092 H 11.9985 C 11.4471,60.9092 11,60.4622 11,59.9107 v -43.003 c 0,-0.5514 0.447,-0.9985 0.9985,-0.9985 h 43.003 c 0.5514,0 0.9985,0.447 0.9985,0.9985 v 43.003 c 0,0.5514 -0.447,0.9985 -0.9985,0.9985 z"
       id="path4" />
    <polyline
       fill="none"
       stroke="#000"
       stroke-linecap="round"
       stroke-linejoin="round"
       stroke-miterlimit="10"
       stroke-width="2"
       points="47.3583,29.7985 43.3583,29.7985 43.3583,36.7985 47.3583,36.7985"
       id="polyline6" />
    <line
       x1="43.358299"
       x2="46.358299"
       y1="33.2985"
       y2="33.2985"
       fill="none"
       stroke="#000"
       stroke-linecap="round"
       stroke-linejoin="round"
       stroke-miterlimit="10"
       stroke-width="2"
       id="line8" />
    <polyline
       fill="none"
       stroke="#000"
       stroke-linecap="round"
       stroke-linejoin="round"
       stroke-miterlimit="10"
       stroke-width="2"
       points="19.6417,36.7985 19.6417,29.7985 24.6417,36.7985 24.6417,29.7985"
       id="polyline10" />
    <path
       fill="none"
       stroke="#000"
       stroke-linecap="round"
       stroke-linejoin="round"
       stroke-miterlimit="10"
       stroke-width="2"
       d="m 30.8583,36.7985 v 0 c -1.3807,0 -2.5,-1.1193 -2.5,-2.5 v -2 c 0,-1.3807 1.1193,-2.5 2.5,-2.5 v 0 c 1.3807,0 2.5,1.1193 2.5,2.5 v 2 c 0,1.3807 -1.1193,2.5 -2.5,2.5 z"
       id="path12" />
    <line
       x1="36.358299"
       x2="40.358299"
       y1="29.8286"
       y2="29.8286"
       fill="none"
       stroke="#000"
       stroke-linecap="round"
       stroke-linejoin="round"
       stroke-miterlimit="10"
       stroke-width="2"
       id="line14" />
    <line
       x1="38.358299"
       x2="38.358299"
       y1="29.8286"
       y2="36.828602"
       fill="none"
       stroke="#000"
       stroke-linecap="round"
       stroke-linejoin="round"
       stroke-miterlimit="10"
       stroke-width="2"
       id="line16" />
  </g>
</g></svg>