<svg xmlns="http://www.w3.org/2000/svg" width="24" height="24" viewBox="0 0 24 24"><path transform="scale(0.48)" d="M 44 38 C 46.2091389993 38 48 39.7908610007 48 42 C 48 44.2091389993 46.2091389993 46 44 46 C 41.7908610007 46 40 44.2091389993 40 42 C 40 39.7908610007 41.7908610007 38 44 38 Z" style="fill:#000;fill-opacity:1"/><path transform="scale(0.48)" d="M 15 38 C 17.2091389993 38 19 39.7908610007 19 42 C 19 44.2091389993 17.2091389993 46 15 46 C 12.7908610007 46 11 44.2091389993 11 42 C 11 39.7908610007 12.7908610007 38 15 38 Z" style="fill:#000;fill-opacity:1"/><path transform="scale(0.48)" d="M47 33h-31.229l.667-1.082c.286-.464 .37 -1.025 .233 -1.553l-.651-2.506 28.983-1.506c1.099-.056 1.997-1.003 1.997-2.103v-13.25c0-1.1-.9-2-2-2h-33.881l-.391-1.503c-.229-.882-1.025-1.497-1.936-1.497h-6.792c-1.104 0-2 .896-2 2s.896 2 2 2h5.246l5.34 20.545-2.1 3.405c-.38 .617 -.397 1.392-.043 2.024 .352 .633 1.02 1.026 1.745 1.026h34.812c1.104 0 2-.896 2-2s-.896-2-2-2z" style="fill:#000;fill-opacity:1"/></svg>