<svg xmlns="http://www.w3.org/2000/svg" width="24" height="24" viewBox="0 0 24 24"><path transform="scale(0.48)" d="M18 47c0 1.233 .768 2 2 2 1.235 0 2-.767 2-2v-19h2v19c0 1.231 .767 2 2 2s2-.767 2-2v-32h1v11.814c0 2.395 3.006 2.395 3 0v-12.153c0-2.646-1.906-4.661-5-4.661h-8c-2.82 0-5 1.719-5 4.587v12.413c0 2 3 2 3 0v-12h1v32z" style="fill:#000;fill-opacity:1"/><path transform="scale(0.48)" d="M 22.875 0.5 C 25.1531745931 0.5 27 2.34682540695 27 4.625 C 27 6.90317459305 25.1531745931 8.75 22.875 8.75 C 20.5968254069 8.75 18.75 6.90317459305 18.75 4.625 C 18.75 2.34682540695 20.5968254069 0.5 22.875 0.5 Z" style="fill:#000;fill-opacity:1"/></svg>